G04 #@! TF.GenerationSoftware,KiCad,Pcbnew,5.1.5-52549c5~85~ubuntu18.04.1*
G04 #@! TF.CreationDate,2020-03-29T12:36:54+00:00*
G04 #@! TF.ProjectId,PWR,5057522e-6b69-4636-9164-5f7063625858,rev?*
G04 #@! TF.SameCoordinates,Original*
G04 #@! TF.FileFunction,Copper,L1,Top*
G04 #@! TF.FilePolarity,Positive*
%FSLAX46Y46*%
G04 Gerber Fmt 4.6, Leading zero omitted, Abs format (unit mm)*
G04 Created by KiCad (PCBNEW 5.1.5-52549c5~85~ubuntu18.04.1) date 2020-03-29 12:36:54*
%MOMM*%
%LPD*%
G04 APERTURE LIST*
%ADD10O,1.600000X1.600000*%
%ADD11R,1.600000X1.600000*%
%ADD12R,1.700000X1.700000*%
%ADD13C,1.700000*%
%ADD14C,2.032000*%
%ADD15R,2.032000X2.032000*%
%ADD16O,1.700000X1.700000*%
%ADD17C,2.300000*%
%ADD18R,2.000000X2.300000*%
%ADD19C,1.600000*%
%ADD20O,1.905000X2.000000*%
%ADD21R,1.905000X2.000000*%
%ADD22C,2.600000*%
%ADD23R,2.600000X2.600000*%
%ADD24C,1.000000*%
%ADD25C,0.250000*%
G04 APERTURE END LIST*
D10*
X142240000Y-121920000D03*
X147320000Y-114300000D03*
X144780000Y-121920000D03*
X144780000Y-114300000D03*
X147320000Y-121920000D03*
D11*
X142240000Y-114300000D03*
D12*
X151130000Y-125095000D03*
D13*
X137160000Y-125095000D03*
D14*
X151130000Y-119380000D03*
X151130000Y-114300000D03*
X151130000Y-116840000D03*
X151130000Y-96520000D03*
X151130000Y-99060000D03*
X151130000Y-104140000D03*
X151130000Y-101600000D03*
X151130000Y-86360000D03*
X151130000Y-106680000D03*
X151130000Y-111760000D03*
X151130000Y-109220000D03*
X151130000Y-93980000D03*
X151130000Y-88900000D03*
X151130000Y-91440000D03*
X151130000Y-121920000D03*
X128270000Y-86360000D03*
X128270000Y-88900000D03*
X128270000Y-91440000D03*
X128270000Y-93980000D03*
X128270000Y-96520000D03*
X128270000Y-99060000D03*
X128270000Y-101600000D03*
X128270000Y-104140000D03*
X128270000Y-106680000D03*
X128270000Y-109220000D03*
X128270000Y-111760000D03*
X128270000Y-114300000D03*
X128270000Y-116840000D03*
X128270000Y-119380000D03*
D15*
X128270000Y-121920000D03*
D16*
X132080000Y-125095000D03*
D12*
X134620000Y-125095000D03*
D17*
X139720000Y-125155000D03*
X132120000Y-97155000D03*
D18*
X147320000Y-97155000D03*
D17*
X147320000Y-125155000D03*
D10*
X147320000Y-101600000D03*
D19*
X147320000Y-111760000D03*
X134620000Y-107950000D03*
D10*
X144780000Y-107950000D03*
X137160000Y-93980000D03*
D19*
X147320000Y-93980000D03*
D10*
X132080000Y-110490000D03*
D19*
X132080000Y-100330000D03*
D10*
X142240000Y-91440000D03*
D19*
X132080000Y-91440000D03*
D11*
X142240000Y-104140000D03*
D10*
X137160000Y-96520000D03*
X137160000Y-104140000D03*
X142240000Y-96520000D03*
X137160000Y-114300000D03*
X132080000Y-121920000D03*
X134620000Y-114300000D03*
X134620000Y-121920000D03*
X132080000Y-114300000D03*
D11*
X137160000Y-121920000D03*
D20*
X137160000Y-86995000D03*
X139700000Y-86995000D03*
D21*
X142240000Y-86995000D03*
D22*
X147320000Y-80645000D03*
X142240000Y-80645000D03*
X137160000Y-80645000D03*
D23*
X132080000Y-80645000D03*
D24*
X142240000Y-114300000D02*
X142240000Y-104140000D01*
X137160000Y-125095000D02*
X138430000Y-125095000D01*
X138430000Y-125095000D02*
X139700000Y-125095000D01*
X147320000Y-101600000D02*
X139700000Y-101600000D01*
X139700000Y-101600000D02*
X139700000Y-92710000D01*
X139700000Y-92710000D02*
X133350000Y-86360000D01*
X133350000Y-86360000D02*
X128270000Y-86360000D01*
X139720000Y-123805000D02*
X139720000Y-125155000D01*
X139700000Y-111760000D02*
X139700000Y-123785000D01*
X139700000Y-123785000D02*
X139720000Y-123805000D01*
X139700000Y-111760000D02*
X139700000Y-101600000D01*
D25*
G36*
X149855352Y-85313924D02*
G01*
X149675765Y-85582695D01*
X149552063Y-85881338D01*
X149489000Y-86198376D01*
X149489000Y-86521624D01*
X149552063Y-86838662D01*
X149675765Y-87137305D01*
X149855352Y-87406076D01*
X150083924Y-87634648D01*
X150187453Y-87703824D01*
X150166604Y-87759828D01*
X151130000Y-88723223D01*
X152093396Y-87759828D01*
X152072547Y-87703824D01*
X152176076Y-87634648D01*
X152404648Y-87406076D01*
X152584235Y-87137305D01*
X152600001Y-87099243D01*
X152600001Y-88158818D01*
X152533655Y-88034694D01*
X152270172Y-87936604D01*
X151306777Y-88900000D01*
X152270172Y-89863396D01*
X152533655Y-89765306D01*
X152600001Y-89629442D01*
X152600001Y-90700757D01*
X152584235Y-90662695D01*
X152404648Y-90393924D01*
X152176076Y-90165352D01*
X152072547Y-90096176D01*
X152093396Y-90040172D01*
X151130000Y-89076777D01*
X150166604Y-90040172D01*
X150187453Y-90096176D01*
X150083924Y-90165352D01*
X149855352Y-90393924D01*
X149675765Y-90662695D01*
X149552063Y-90961338D01*
X149489000Y-91278376D01*
X149489000Y-91601624D01*
X149552063Y-91918662D01*
X149675765Y-92217305D01*
X149855352Y-92486076D01*
X150079276Y-92710000D01*
X149855352Y-92933924D01*
X149675765Y-93202695D01*
X149552063Y-93501338D01*
X149489000Y-93818376D01*
X149489000Y-94141624D01*
X149552063Y-94458662D01*
X149675765Y-94757305D01*
X149855352Y-95026076D01*
X150079276Y-95250000D01*
X149855352Y-95473924D01*
X149675765Y-95742695D01*
X149552063Y-96041338D01*
X149489000Y-96358376D01*
X149489000Y-96681624D01*
X149552063Y-96998662D01*
X149675765Y-97297305D01*
X149855352Y-97566076D01*
X150079276Y-97790000D01*
X149855352Y-98013924D01*
X149675765Y-98282695D01*
X149552063Y-98581338D01*
X149489000Y-98898376D01*
X149489000Y-99221624D01*
X149552063Y-99538662D01*
X149675765Y-99837305D01*
X149855352Y-100106076D01*
X150079276Y-100330000D01*
X149855352Y-100553924D01*
X149675765Y-100822695D01*
X149552063Y-101121338D01*
X149489000Y-101438376D01*
X149489000Y-101761624D01*
X149552063Y-102078662D01*
X149675765Y-102377305D01*
X149855352Y-102646076D01*
X150079276Y-102870000D01*
X149855352Y-103093924D01*
X149675765Y-103362695D01*
X149552063Y-103661338D01*
X149489000Y-103978376D01*
X149489000Y-104301624D01*
X149552063Y-104618662D01*
X149675765Y-104917305D01*
X149855352Y-105186076D01*
X150083924Y-105414648D01*
X150187453Y-105483824D01*
X150166604Y-105539828D01*
X151130000Y-106503223D01*
X152093396Y-105539828D01*
X152072547Y-105483824D01*
X152176076Y-105414648D01*
X152404648Y-105186076D01*
X152584235Y-104917305D01*
X152600000Y-104879245D01*
X152600000Y-105938817D01*
X152533655Y-105814694D01*
X152270172Y-105716604D01*
X151306777Y-106680000D01*
X152270172Y-107643396D01*
X152533655Y-107545306D01*
X152600000Y-107409443D01*
X152600000Y-108480755D01*
X152584235Y-108442695D01*
X152404648Y-108173924D01*
X152176076Y-107945352D01*
X152072547Y-107876176D01*
X152093396Y-107820172D01*
X151130000Y-106856777D01*
X150166604Y-107820172D01*
X150187453Y-107876176D01*
X150083924Y-107945352D01*
X149855352Y-108173924D01*
X149675765Y-108442695D01*
X149552063Y-108741338D01*
X149489000Y-109058376D01*
X149489000Y-109381624D01*
X149552063Y-109698662D01*
X149675765Y-109997305D01*
X149855352Y-110266076D01*
X150079276Y-110490000D01*
X149855352Y-110713924D01*
X149675765Y-110982695D01*
X149552063Y-111281338D01*
X149489000Y-111598376D01*
X149489000Y-111921624D01*
X149552063Y-112238662D01*
X149675765Y-112537305D01*
X149855352Y-112806076D01*
X150079276Y-113030000D01*
X149855352Y-113253924D01*
X149675765Y-113522695D01*
X149552063Y-113821338D01*
X149489000Y-114138376D01*
X149489000Y-114461624D01*
X149552063Y-114778662D01*
X149675765Y-115077305D01*
X149855352Y-115346076D01*
X150079276Y-115570000D01*
X149855352Y-115793924D01*
X149675765Y-116062695D01*
X149552063Y-116361338D01*
X149489000Y-116678376D01*
X149489000Y-117001624D01*
X149552063Y-117318662D01*
X149675765Y-117617305D01*
X149855352Y-117886076D01*
X150079276Y-118110000D01*
X149855352Y-118333924D01*
X149675765Y-118602695D01*
X149552063Y-118901338D01*
X149489000Y-119218376D01*
X149489000Y-119541624D01*
X149552063Y-119858662D01*
X149675765Y-120157305D01*
X149855352Y-120426076D01*
X150079276Y-120650000D01*
X149855352Y-120873924D01*
X149675765Y-121142695D01*
X149552063Y-121441338D01*
X149489000Y-121758376D01*
X149489000Y-122081624D01*
X149552063Y-122398662D01*
X149675765Y-122697305D01*
X149855352Y-122966076D01*
X150083924Y-123194648D01*
X150352695Y-123374235D01*
X150651338Y-123497937D01*
X150968376Y-123561000D01*
X151291624Y-123561000D01*
X151608662Y-123497937D01*
X151907305Y-123374235D01*
X152176076Y-123194648D01*
X152404648Y-122966076D01*
X152584235Y-122697305D01*
X152600000Y-122659245D01*
X152600000Y-124163530D01*
X152595957Y-124122479D01*
X152560219Y-124004666D01*
X152502183Y-123896089D01*
X152424080Y-123800920D01*
X152328911Y-123722817D01*
X152220334Y-123664781D01*
X152102521Y-123629043D01*
X151980000Y-123616976D01*
X150280000Y-123616976D01*
X150157479Y-123629043D01*
X150039666Y-123664781D01*
X149931089Y-123722817D01*
X149835920Y-123800920D01*
X149757817Y-123896089D01*
X149699781Y-124004666D01*
X149664043Y-124122479D01*
X149651976Y-124245000D01*
X149651976Y-125945000D01*
X149664043Y-126067521D01*
X149699781Y-126185334D01*
X149757817Y-126293911D01*
X149835920Y-126389080D01*
X149931089Y-126467183D01*
X150039666Y-126525219D01*
X150157479Y-126560957D01*
X150280000Y-126573024D01*
X151980000Y-126573024D01*
X152102521Y-126560957D01*
X152220334Y-126525219D01*
X152328911Y-126467183D01*
X152424080Y-126389080D01*
X152502183Y-126293911D01*
X152560219Y-126185334D01*
X152595957Y-126067521D01*
X152600000Y-126026471D01*
X152600000Y-126978724D01*
X152582051Y-127161779D01*
X152535066Y-127317399D01*
X152458750Y-127460929D01*
X152356011Y-127586899D01*
X152230757Y-127690519D01*
X152087770Y-127767832D01*
X151932479Y-127815903D01*
X151750775Y-127835000D01*
X127656276Y-127835000D01*
X127473221Y-127817051D01*
X127317601Y-127770066D01*
X127174071Y-127693750D01*
X127048101Y-127591011D01*
X126944481Y-127465757D01*
X126867168Y-127322770D01*
X126819097Y-127167479D01*
X126800000Y-126985775D01*
X126800000Y-124949725D01*
X130605000Y-124949725D01*
X130605000Y-125240275D01*
X130661683Y-125525242D01*
X130772872Y-125793675D01*
X130934293Y-126035258D01*
X131139742Y-126240707D01*
X131381325Y-126402128D01*
X131649758Y-126513317D01*
X131934725Y-126570000D01*
X132225275Y-126570000D01*
X132510242Y-126513317D01*
X132778675Y-126402128D01*
X133020258Y-126240707D01*
X133163213Y-126097752D01*
X133189781Y-126185334D01*
X133247817Y-126293911D01*
X133325920Y-126389080D01*
X133421089Y-126467183D01*
X133529666Y-126525219D01*
X133647479Y-126560957D01*
X133770000Y-126573024D01*
X134338750Y-126570000D01*
X134495000Y-126413750D01*
X134495000Y-125220000D01*
X134475000Y-125220000D01*
X134475000Y-124970000D01*
X134495000Y-124970000D01*
X134495000Y-123776250D01*
X134338750Y-123620000D01*
X133770000Y-123616976D01*
X133647479Y-123629043D01*
X133529666Y-123664781D01*
X133421089Y-123722817D01*
X133325920Y-123800920D01*
X133247817Y-123896089D01*
X133189781Y-124004666D01*
X133163213Y-124092248D01*
X133020258Y-123949293D01*
X132778675Y-123787872D01*
X132510242Y-123676683D01*
X132225275Y-123620000D01*
X131934725Y-123620000D01*
X131649758Y-123676683D01*
X131381325Y-123787872D01*
X131139742Y-123949293D01*
X130934293Y-124154742D01*
X130772872Y-124396325D01*
X130661683Y-124664758D01*
X130605000Y-124949725D01*
X126800000Y-124949725D01*
X126800000Y-123367992D01*
X126809920Y-123380080D01*
X126905089Y-123458183D01*
X127013666Y-123516219D01*
X127131479Y-123551957D01*
X127254000Y-123564024D01*
X129286000Y-123564024D01*
X129408521Y-123551957D01*
X129526334Y-123516219D01*
X129634911Y-123458183D01*
X129730080Y-123380080D01*
X129808183Y-123284911D01*
X129866219Y-123176334D01*
X129901957Y-123058521D01*
X129914024Y-122936000D01*
X129914024Y-121779650D01*
X130655000Y-121779650D01*
X130655000Y-122060350D01*
X130709762Y-122335657D01*
X130817181Y-122594991D01*
X130973130Y-122828385D01*
X131171615Y-123026870D01*
X131405009Y-123182819D01*
X131664343Y-123290238D01*
X131939650Y-123345000D01*
X132220350Y-123345000D01*
X132495657Y-123290238D01*
X132754991Y-123182819D01*
X132988385Y-123026870D01*
X133186870Y-122828385D01*
X133342819Y-122594991D01*
X133354442Y-122566930D01*
X133474980Y-122768274D01*
X133662471Y-122975357D01*
X133886760Y-123141883D01*
X134139227Y-123261453D01*
X134274479Y-123302476D01*
X134495000Y-123182577D01*
X134495000Y-122045000D01*
X134475000Y-122045000D01*
X134475000Y-121795000D01*
X134495000Y-121795000D01*
X134495000Y-120657423D01*
X134274479Y-120537524D01*
X134139227Y-120578547D01*
X133886760Y-120698117D01*
X133662471Y-120864643D01*
X133474980Y-121071726D01*
X133354442Y-121273070D01*
X133342819Y-121245009D01*
X133186870Y-121011615D01*
X132988385Y-120813130D01*
X132754991Y-120657181D01*
X132495657Y-120549762D01*
X132220350Y-120495000D01*
X131939650Y-120495000D01*
X131664343Y-120549762D01*
X131405009Y-120657181D01*
X131171615Y-120813130D01*
X130973130Y-121011615D01*
X130817181Y-121245009D01*
X130709762Y-121504343D01*
X130655000Y-121779650D01*
X129914024Y-121779650D01*
X129914024Y-120904000D01*
X129901957Y-120781479D01*
X129866219Y-120663666D01*
X129808183Y-120555089D01*
X129730080Y-120459920D01*
X129634911Y-120381817D01*
X129590192Y-120357914D01*
X129724235Y-120157305D01*
X129847937Y-119858662D01*
X129911000Y-119541624D01*
X129911000Y-119218376D01*
X129847937Y-118901338D01*
X129724235Y-118602695D01*
X129544648Y-118333924D01*
X129320724Y-118110000D01*
X129544648Y-117886076D01*
X129724235Y-117617305D01*
X129847937Y-117318662D01*
X129911000Y-117001624D01*
X129911000Y-116678376D01*
X129847937Y-116361338D01*
X129724235Y-116062695D01*
X129544648Y-115793924D01*
X129320724Y-115570000D01*
X129544648Y-115346076D01*
X129724235Y-115077305D01*
X129847937Y-114778662D01*
X129911000Y-114461624D01*
X129911000Y-114138376D01*
X129847937Y-113821338D01*
X129724235Y-113522695D01*
X129544648Y-113253924D01*
X129320724Y-113030000D01*
X129544648Y-112806076D01*
X129724235Y-112537305D01*
X129847937Y-112238662D01*
X129911000Y-111921624D01*
X129911000Y-111598376D01*
X129847937Y-111281338D01*
X129724235Y-110982695D01*
X129544648Y-110713924D01*
X129320724Y-110490000D01*
X129461074Y-110349650D01*
X130655000Y-110349650D01*
X130655000Y-110630350D01*
X130709762Y-110905657D01*
X130817181Y-111164991D01*
X130973130Y-111398385D01*
X131171615Y-111596870D01*
X131405009Y-111752819D01*
X131664343Y-111860238D01*
X131939650Y-111915000D01*
X132220350Y-111915000D01*
X132495657Y-111860238D01*
X132754991Y-111752819D01*
X132988385Y-111596870D01*
X133186870Y-111398385D01*
X133342819Y-111164991D01*
X133450238Y-110905657D01*
X133505000Y-110630350D01*
X133505000Y-110349650D01*
X133450238Y-110074343D01*
X133342819Y-109815009D01*
X133186870Y-109581615D01*
X132988385Y-109383130D01*
X132754991Y-109227181D01*
X132495657Y-109119762D01*
X132220350Y-109065000D01*
X131939650Y-109065000D01*
X131664343Y-109119762D01*
X131405009Y-109227181D01*
X131171615Y-109383130D01*
X130973130Y-109581615D01*
X130817181Y-109815009D01*
X130709762Y-110074343D01*
X130655000Y-110349650D01*
X129461074Y-110349650D01*
X129544648Y-110266076D01*
X129724235Y-109997305D01*
X129847937Y-109698662D01*
X129911000Y-109381624D01*
X129911000Y-109058376D01*
X129847937Y-108741338D01*
X129724235Y-108442695D01*
X129544648Y-108173924D01*
X129320724Y-107950000D01*
X129461074Y-107809650D01*
X133195000Y-107809650D01*
X133195000Y-108090350D01*
X133249762Y-108365657D01*
X133357181Y-108624991D01*
X133513130Y-108858385D01*
X133711615Y-109056870D01*
X133945009Y-109212819D01*
X134204343Y-109320238D01*
X134479650Y-109375000D01*
X134760350Y-109375000D01*
X135035657Y-109320238D01*
X135294991Y-109212819D01*
X135528385Y-109056870D01*
X135726870Y-108858385D01*
X135882819Y-108624991D01*
X135990238Y-108365657D01*
X136045000Y-108090350D01*
X136045000Y-107809650D01*
X135990238Y-107534343D01*
X135882819Y-107275009D01*
X135726870Y-107041615D01*
X135528385Y-106843130D01*
X135294991Y-106687181D01*
X135035657Y-106579762D01*
X134760350Y-106525000D01*
X134479650Y-106525000D01*
X134204343Y-106579762D01*
X133945009Y-106687181D01*
X133711615Y-106843130D01*
X133513130Y-107041615D01*
X133357181Y-107275009D01*
X133249762Y-107534343D01*
X133195000Y-107809650D01*
X129461074Y-107809650D01*
X129544648Y-107726076D01*
X129724235Y-107457305D01*
X129847937Y-107158662D01*
X129911000Y-106841624D01*
X129911000Y-106518376D01*
X129847937Y-106201338D01*
X129724235Y-105902695D01*
X129544648Y-105633924D01*
X129320724Y-105410000D01*
X129544648Y-105186076D01*
X129724235Y-104917305D01*
X129847937Y-104618662D01*
X129911000Y-104301624D01*
X129911000Y-103978376D01*
X129847937Y-103661338D01*
X129724235Y-103362695D01*
X129544648Y-103093924D01*
X129320724Y-102870000D01*
X129544648Y-102646076D01*
X129724235Y-102377305D01*
X129847937Y-102078662D01*
X129911000Y-101761624D01*
X129911000Y-101438376D01*
X129847937Y-101121338D01*
X129724235Y-100822695D01*
X129544648Y-100553924D01*
X129316076Y-100325352D01*
X129212547Y-100256176D01*
X129233396Y-100200172D01*
X128270000Y-99236777D01*
X127306604Y-100200172D01*
X127327453Y-100256176D01*
X127223924Y-100325352D01*
X126995352Y-100553924D01*
X126815765Y-100822695D01*
X126800000Y-100860755D01*
X126800000Y-99801184D01*
X126866345Y-99925306D01*
X127129828Y-100023396D01*
X128093223Y-99060000D01*
X128446777Y-99060000D01*
X129410172Y-100023396D01*
X129673655Y-99925306D01*
X129815497Y-99634840D01*
X129897946Y-99322283D01*
X129917835Y-98999647D01*
X129874398Y-98679330D01*
X129769305Y-98373642D01*
X129673655Y-98194694D01*
X129410172Y-98096604D01*
X128446777Y-99060000D01*
X128093223Y-99060000D01*
X127129828Y-98096604D01*
X126866345Y-98194694D01*
X126800000Y-98330556D01*
X126800000Y-97259245D01*
X126815765Y-97297305D01*
X126995352Y-97566076D01*
X127223924Y-97794648D01*
X127327453Y-97863824D01*
X127306604Y-97919828D01*
X128270000Y-98883223D01*
X129233396Y-97919828D01*
X129212547Y-97863824D01*
X129316076Y-97794648D01*
X129544648Y-97566076D01*
X129724235Y-97297305D01*
X129845000Y-97005753D01*
X129845000Y-97379068D01*
X129932427Y-97818593D01*
X130103921Y-98232617D01*
X130352892Y-98605228D01*
X130669772Y-98922108D01*
X130727175Y-98960464D01*
X130584755Y-99102884D01*
X130374087Y-99418171D01*
X130228977Y-99768498D01*
X130155000Y-100140404D01*
X130155000Y-100519596D01*
X130228977Y-100891502D01*
X130374087Y-101241829D01*
X130584755Y-101557116D01*
X130852884Y-101825245D01*
X131168171Y-102035913D01*
X131518498Y-102181023D01*
X131890404Y-102255000D01*
X132269596Y-102255000D01*
X132641502Y-102181023D01*
X132991829Y-102035913D01*
X133307116Y-101825245D01*
X133575245Y-101557116D01*
X133785913Y-101241829D01*
X133931023Y-100891502D01*
X134005000Y-100519596D01*
X134005000Y-100140404D01*
X133931023Y-99768498D01*
X133785913Y-99418171D01*
X133575245Y-99102884D01*
X133464868Y-98992507D01*
X133570228Y-98922108D01*
X133887108Y-98605228D01*
X134136079Y-98232617D01*
X134307573Y-97818593D01*
X134395000Y-97379068D01*
X134395000Y-96930932D01*
X134307573Y-96491407D01*
X134136079Y-96077383D01*
X133887108Y-95704772D01*
X133570228Y-95387892D01*
X133197617Y-95138921D01*
X132783593Y-94967427D01*
X132344068Y-94880000D01*
X131895932Y-94880000D01*
X131456407Y-94967427D01*
X131042383Y-95138921D01*
X130669772Y-95387892D01*
X130352892Y-95704772D01*
X130103921Y-96077383D01*
X129932427Y-96491407D01*
X129911000Y-96599128D01*
X129911000Y-96358376D01*
X129847937Y-96041338D01*
X129724235Y-95742695D01*
X129544648Y-95473924D01*
X129320724Y-95250000D01*
X129544648Y-95026076D01*
X129724235Y-94757305D01*
X129847937Y-94458662D01*
X129911000Y-94141624D01*
X129911000Y-93818376D01*
X129847937Y-93501338D01*
X129724235Y-93202695D01*
X129544648Y-92933924D01*
X129320724Y-92710000D01*
X129544648Y-92486076D01*
X129724235Y-92217305D01*
X129847937Y-91918662D01*
X129911000Y-91601624D01*
X129911000Y-91278376D01*
X129905437Y-91250404D01*
X130155000Y-91250404D01*
X130155000Y-91629596D01*
X130228977Y-92001502D01*
X130374087Y-92351829D01*
X130584755Y-92667116D01*
X130852884Y-92935245D01*
X131168171Y-93145913D01*
X131518498Y-93291023D01*
X131890404Y-93365000D01*
X132269596Y-93365000D01*
X132641502Y-93291023D01*
X132991829Y-93145913D01*
X133307116Y-92935245D01*
X133575245Y-92667116D01*
X133785913Y-92351829D01*
X133931023Y-92001502D01*
X134005000Y-91629596D01*
X134005000Y-91250404D01*
X133931023Y-90878498D01*
X133785913Y-90528171D01*
X133575245Y-90212884D01*
X133307116Y-89944755D01*
X132991829Y-89734087D01*
X132641502Y-89588977D01*
X132269596Y-89515000D01*
X131890404Y-89515000D01*
X131518498Y-89588977D01*
X131168171Y-89734087D01*
X130852884Y-89944755D01*
X130584755Y-90212884D01*
X130374087Y-90528171D01*
X130228977Y-90878498D01*
X130155000Y-91250404D01*
X129905437Y-91250404D01*
X129847937Y-90961338D01*
X129724235Y-90662695D01*
X129544648Y-90393924D01*
X129316076Y-90165352D01*
X129212547Y-90096176D01*
X129233396Y-90040172D01*
X128270000Y-89076777D01*
X127306604Y-90040172D01*
X127327453Y-90096176D01*
X127223924Y-90165352D01*
X126995352Y-90393924D01*
X126815765Y-90662695D01*
X126800000Y-90700755D01*
X126800000Y-89641184D01*
X126866345Y-89765306D01*
X127129828Y-89863396D01*
X128093223Y-88900000D01*
X128446777Y-88900000D01*
X129410172Y-89863396D01*
X129673655Y-89765306D01*
X129815497Y-89474840D01*
X129897946Y-89162283D01*
X129917835Y-88839647D01*
X129874398Y-88519330D01*
X129769305Y-88213642D01*
X129673655Y-88034694D01*
X129410172Y-87936604D01*
X128446777Y-88900000D01*
X128093223Y-88900000D01*
X127129828Y-87936604D01*
X126866345Y-88034694D01*
X126800000Y-88170556D01*
X126800000Y-87099245D01*
X126815765Y-87137305D01*
X126995352Y-87406076D01*
X127223924Y-87634648D01*
X127327453Y-87703824D01*
X127306604Y-87759828D01*
X128270000Y-88723223D01*
X129233396Y-87759828D01*
X129212547Y-87703824D01*
X129316076Y-87634648D01*
X129465724Y-87485000D01*
X132884011Y-87485000D01*
X137479937Y-92080926D01*
X137349596Y-92055000D01*
X136970404Y-92055000D01*
X136598498Y-92128977D01*
X136248171Y-92274087D01*
X135932884Y-92484755D01*
X135664755Y-92752884D01*
X135454087Y-93068171D01*
X135308977Y-93418498D01*
X135235000Y-93790404D01*
X135235000Y-94169596D01*
X135308977Y-94541502D01*
X135454087Y-94891829D01*
X135664755Y-95207116D01*
X135707639Y-95250000D01*
X135664755Y-95292884D01*
X135454087Y-95608171D01*
X135308977Y-95958498D01*
X135235000Y-96330404D01*
X135235000Y-96709596D01*
X135308977Y-97081502D01*
X135454087Y-97431829D01*
X135664755Y-97747116D01*
X135932884Y-98015245D01*
X136248171Y-98225913D01*
X136598498Y-98371023D01*
X136970404Y-98445000D01*
X137349596Y-98445000D01*
X137721502Y-98371023D01*
X138071829Y-98225913D01*
X138387116Y-98015245D01*
X138575000Y-97827361D01*
X138575000Y-101544736D01*
X138569557Y-101600000D01*
X138575001Y-101655274D01*
X138575001Y-103949380D01*
X138530238Y-103724343D01*
X138422819Y-103465009D01*
X138266870Y-103231615D01*
X138068385Y-103033130D01*
X137834991Y-102877181D01*
X137575657Y-102769762D01*
X137300350Y-102715000D01*
X137019650Y-102715000D01*
X136744343Y-102769762D01*
X136485009Y-102877181D01*
X136251615Y-103033130D01*
X136053130Y-103231615D01*
X135897181Y-103465009D01*
X135789762Y-103724343D01*
X135735000Y-103999650D01*
X135735000Y-104280350D01*
X135789762Y-104555657D01*
X135897181Y-104814991D01*
X136053130Y-105048385D01*
X136251615Y-105246870D01*
X136485009Y-105402819D01*
X136744343Y-105510238D01*
X137019650Y-105565000D01*
X137300350Y-105565000D01*
X137575657Y-105510238D01*
X137834991Y-105402819D01*
X138068385Y-105246870D01*
X138266870Y-105048385D01*
X138422819Y-104814991D01*
X138530238Y-104555657D01*
X138575001Y-104330620D01*
X138575000Y-111704736D01*
X138575000Y-114109378D01*
X138530238Y-113884343D01*
X138422819Y-113625009D01*
X138266870Y-113391615D01*
X138068385Y-113193130D01*
X137834991Y-113037181D01*
X137575657Y-112929762D01*
X137300350Y-112875000D01*
X137019650Y-112875000D01*
X136744343Y-112929762D01*
X136485009Y-113037181D01*
X136251615Y-113193130D01*
X136053130Y-113391615D01*
X135897181Y-113625009D01*
X135890000Y-113642346D01*
X135882819Y-113625009D01*
X135726870Y-113391615D01*
X135528385Y-113193130D01*
X135294991Y-113037181D01*
X135035657Y-112929762D01*
X134760350Y-112875000D01*
X134479650Y-112875000D01*
X134204343Y-112929762D01*
X133945009Y-113037181D01*
X133711615Y-113193130D01*
X133513130Y-113391615D01*
X133357181Y-113625009D01*
X133350000Y-113642346D01*
X133342819Y-113625009D01*
X133186870Y-113391615D01*
X132988385Y-113193130D01*
X132754991Y-113037181D01*
X132495657Y-112929762D01*
X132220350Y-112875000D01*
X131939650Y-112875000D01*
X131664343Y-112929762D01*
X131405009Y-113037181D01*
X131171615Y-113193130D01*
X130973130Y-113391615D01*
X130817181Y-113625009D01*
X130709762Y-113884343D01*
X130655000Y-114159650D01*
X130655000Y-114440350D01*
X130709762Y-114715657D01*
X130817181Y-114974991D01*
X130973130Y-115208385D01*
X131171615Y-115406870D01*
X131405009Y-115562819D01*
X131664343Y-115670238D01*
X131939650Y-115725000D01*
X132220350Y-115725000D01*
X132495657Y-115670238D01*
X132754991Y-115562819D01*
X132988385Y-115406870D01*
X133186870Y-115208385D01*
X133342819Y-114974991D01*
X133350000Y-114957654D01*
X133357181Y-114974991D01*
X133513130Y-115208385D01*
X133711615Y-115406870D01*
X133945009Y-115562819D01*
X134204343Y-115670238D01*
X134479650Y-115725000D01*
X134760350Y-115725000D01*
X135035657Y-115670238D01*
X135294991Y-115562819D01*
X135528385Y-115406870D01*
X135726870Y-115208385D01*
X135882819Y-114974991D01*
X135890000Y-114957654D01*
X135897181Y-114974991D01*
X136053130Y-115208385D01*
X136251615Y-115406870D01*
X136485009Y-115562819D01*
X136744343Y-115670238D01*
X137019650Y-115725000D01*
X137300350Y-115725000D01*
X137575657Y-115670238D01*
X137834991Y-115562819D01*
X138068385Y-115406870D01*
X138266870Y-115208385D01*
X138422819Y-114974991D01*
X138530238Y-114715657D01*
X138575000Y-114490622D01*
X138575001Y-120994327D01*
X138540219Y-120879666D01*
X138482183Y-120771089D01*
X138404080Y-120675920D01*
X138308911Y-120597817D01*
X138200334Y-120539781D01*
X138082521Y-120504043D01*
X137960000Y-120491976D01*
X136360000Y-120491976D01*
X136237479Y-120504043D01*
X136119666Y-120539781D01*
X136011089Y-120597817D01*
X135915920Y-120675920D01*
X135837817Y-120771089D01*
X135779781Y-120879666D01*
X135744043Y-120997479D01*
X135739506Y-121043546D01*
X135577529Y-120864643D01*
X135353240Y-120698117D01*
X135100773Y-120578547D01*
X134965521Y-120537524D01*
X134745000Y-120657423D01*
X134745000Y-121795000D01*
X134765000Y-121795000D01*
X134765000Y-122045000D01*
X134745000Y-122045000D01*
X134745000Y-123182577D01*
X134965521Y-123302476D01*
X135100773Y-123261453D01*
X135353240Y-123141883D01*
X135577529Y-122975357D01*
X135739506Y-122796454D01*
X135744043Y-122842521D01*
X135779781Y-122960334D01*
X135837817Y-123068911D01*
X135915920Y-123164080D01*
X136011089Y-123242183D01*
X136119666Y-123300219D01*
X136237479Y-123335957D01*
X136360000Y-123348024D01*
X137960000Y-123348024D01*
X138082521Y-123335957D01*
X138200334Y-123300219D01*
X138308911Y-123242183D01*
X138404080Y-123164080D01*
X138482183Y-123068911D01*
X138540219Y-122960334D01*
X138575001Y-122845673D01*
X138575001Y-123729729D01*
X138569557Y-123785000D01*
X138570473Y-123794299D01*
X138394772Y-123970000D01*
X138120965Y-123970000D01*
X138100258Y-123949293D01*
X137858675Y-123787872D01*
X137590242Y-123676683D01*
X137305275Y-123620000D01*
X137014725Y-123620000D01*
X136729758Y-123676683D01*
X136461325Y-123787872D01*
X136219742Y-123949293D01*
X136076787Y-124092248D01*
X136050219Y-124004666D01*
X135992183Y-123896089D01*
X135914080Y-123800920D01*
X135818911Y-123722817D01*
X135710334Y-123664781D01*
X135592521Y-123629043D01*
X135470000Y-123616976D01*
X134901250Y-123620000D01*
X134745000Y-123776250D01*
X134745000Y-124970000D01*
X134765000Y-124970000D01*
X134765000Y-125220000D01*
X134745000Y-125220000D01*
X134745000Y-126413750D01*
X134901250Y-126570000D01*
X135470000Y-126573024D01*
X135592521Y-126560957D01*
X135710334Y-126525219D01*
X135818911Y-126467183D01*
X135914080Y-126389080D01*
X135992183Y-126293911D01*
X136050219Y-126185334D01*
X136076787Y-126097752D01*
X136219742Y-126240707D01*
X136461325Y-126402128D01*
X136729758Y-126513317D01*
X137014725Y-126570000D01*
X137305275Y-126570000D01*
X137590242Y-126513317D01*
X137858675Y-126402128D01*
X138100258Y-126240707D01*
X138120965Y-126220000D01*
X138296837Y-126220000D01*
X138341268Y-126286496D01*
X138588504Y-126533732D01*
X138879222Y-126727984D01*
X139202252Y-126861787D01*
X139545178Y-126930000D01*
X139894822Y-126930000D01*
X140237748Y-126861787D01*
X140560778Y-126727984D01*
X140851496Y-126533732D01*
X140994538Y-126390690D01*
X146261086Y-126390690D01*
X146375339Y-126667878D01*
X146688638Y-126823103D01*
X147026201Y-126914223D01*
X147375053Y-126937737D01*
X147721790Y-126892742D01*
X148053087Y-126780967D01*
X148264661Y-126667878D01*
X148378914Y-126390690D01*
X147320000Y-125331777D01*
X146261086Y-126390690D01*
X140994538Y-126390690D01*
X141098732Y-126286496D01*
X141292984Y-125995778D01*
X141426787Y-125672748D01*
X141495000Y-125329822D01*
X141495000Y-125210053D01*
X145537263Y-125210053D01*
X145582258Y-125556790D01*
X145694033Y-125888087D01*
X145807122Y-126099661D01*
X146084310Y-126213914D01*
X147143223Y-125155000D01*
X147496777Y-125155000D01*
X148555690Y-126213914D01*
X148832878Y-126099661D01*
X148988103Y-125786362D01*
X149079223Y-125448799D01*
X149102737Y-125099947D01*
X149057742Y-124753210D01*
X148945967Y-124421913D01*
X148832878Y-124210339D01*
X148555690Y-124096086D01*
X147496777Y-125155000D01*
X147143223Y-125155000D01*
X146084310Y-124096086D01*
X145807122Y-124210339D01*
X145651897Y-124523638D01*
X145560777Y-124861201D01*
X145537263Y-125210053D01*
X141495000Y-125210053D01*
X141495000Y-124980178D01*
X141426787Y-124637252D01*
X141292984Y-124314222D01*
X141098732Y-124023504D01*
X140994538Y-123919310D01*
X146261086Y-123919310D01*
X147320000Y-124978223D01*
X148378914Y-123919310D01*
X148264661Y-123642122D01*
X147951362Y-123486897D01*
X147613799Y-123395777D01*
X147264947Y-123372263D01*
X146918210Y-123417258D01*
X146586913Y-123529033D01*
X146375339Y-123642122D01*
X146261086Y-123919310D01*
X140994538Y-123919310D01*
X140851496Y-123776268D01*
X140847339Y-123773490D01*
X140845000Y-123749745D01*
X140845000Y-123749736D01*
X140828722Y-123584462D01*
X140825000Y-123572192D01*
X140825000Y-122110623D01*
X140869762Y-122335657D01*
X140977181Y-122594991D01*
X141133130Y-122828385D01*
X141331615Y-123026870D01*
X141565009Y-123182819D01*
X141824343Y-123290238D01*
X142099650Y-123345000D01*
X142380350Y-123345000D01*
X142655657Y-123290238D01*
X142914991Y-123182819D01*
X143148385Y-123026870D01*
X143346870Y-122828385D01*
X143502819Y-122594991D01*
X143510000Y-122577654D01*
X143517181Y-122594991D01*
X143673130Y-122828385D01*
X143871615Y-123026870D01*
X144105009Y-123182819D01*
X144364343Y-123290238D01*
X144639650Y-123345000D01*
X144920350Y-123345000D01*
X145195657Y-123290238D01*
X145454991Y-123182819D01*
X145688385Y-123026870D01*
X145886870Y-122828385D01*
X146042819Y-122594991D01*
X146054442Y-122566930D01*
X146174980Y-122768274D01*
X146362471Y-122975357D01*
X146586760Y-123141883D01*
X146839227Y-123261453D01*
X146974479Y-123302476D01*
X147195000Y-123182577D01*
X147195000Y-122045000D01*
X147445000Y-122045000D01*
X147445000Y-123182577D01*
X147665521Y-123302476D01*
X147800773Y-123261453D01*
X148053240Y-123141883D01*
X148277529Y-122975357D01*
X148465020Y-122768274D01*
X148608509Y-122528592D01*
X148702481Y-122265522D01*
X148583262Y-122045000D01*
X147445000Y-122045000D01*
X147195000Y-122045000D01*
X147175000Y-122045000D01*
X147175000Y-121795000D01*
X147195000Y-121795000D01*
X147195000Y-120657423D01*
X147445000Y-120657423D01*
X147445000Y-121795000D01*
X148583262Y-121795000D01*
X148702481Y-121574478D01*
X148608509Y-121311408D01*
X148465020Y-121071726D01*
X148277529Y-120864643D01*
X148053240Y-120698117D01*
X147800773Y-120578547D01*
X147665521Y-120537524D01*
X147445000Y-120657423D01*
X147195000Y-120657423D01*
X146974479Y-120537524D01*
X146839227Y-120578547D01*
X146586760Y-120698117D01*
X146362471Y-120864643D01*
X146174980Y-121071726D01*
X146054442Y-121273070D01*
X146042819Y-121245009D01*
X145886870Y-121011615D01*
X145688385Y-120813130D01*
X145454991Y-120657181D01*
X145195657Y-120549762D01*
X144920350Y-120495000D01*
X144639650Y-120495000D01*
X144364343Y-120549762D01*
X144105009Y-120657181D01*
X143871615Y-120813130D01*
X143673130Y-121011615D01*
X143517181Y-121245009D01*
X143510000Y-121262346D01*
X143502819Y-121245009D01*
X143346870Y-121011615D01*
X143148385Y-120813130D01*
X142914991Y-120657181D01*
X142655657Y-120549762D01*
X142380350Y-120495000D01*
X142099650Y-120495000D01*
X141824343Y-120549762D01*
X141565009Y-120657181D01*
X141331615Y-120813130D01*
X141133130Y-121011615D01*
X140977181Y-121245009D01*
X140869762Y-121504343D01*
X140825000Y-121729377D01*
X140825000Y-115225676D01*
X140859781Y-115340334D01*
X140917817Y-115448911D01*
X140995920Y-115544080D01*
X141091089Y-115622183D01*
X141199666Y-115680219D01*
X141317479Y-115715957D01*
X141440000Y-115728024D01*
X143040000Y-115728024D01*
X143162521Y-115715957D01*
X143280334Y-115680219D01*
X143388911Y-115622183D01*
X143484080Y-115544080D01*
X143562183Y-115448911D01*
X143620219Y-115340334D01*
X143655957Y-115222521D01*
X143659377Y-115187801D01*
X143673130Y-115208385D01*
X143871615Y-115406870D01*
X144105009Y-115562819D01*
X144364343Y-115670238D01*
X144639650Y-115725000D01*
X144920350Y-115725000D01*
X145195657Y-115670238D01*
X145454991Y-115562819D01*
X145688385Y-115406870D01*
X145886870Y-115208385D01*
X146042819Y-114974991D01*
X146050000Y-114957654D01*
X146057181Y-114974991D01*
X146213130Y-115208385D01*
X146411615Y-115406870D01*
X146645009Y-115562819D01*
X146904343Y-115670238D01*
X147179650Y-115725000D01*
X147460350Y-115725000D01*
X147735657Y-115670238D01*
X147994991Y-115562819D01*
X148228385Y-115406870D01*
X148426870Y-115208385D01*
X148582819Y-114974991D01*
X148690238Y-114715657D01*
X148745000Y-114440350D01*
X148745000Y-114159650D01*
X148690238Y-113884343D01*
X148582819Y-113625009D01*
X148426870Y-113391615D01*
X148228385Y-113193130D01*
X147994991Y-113037181D01*
X147977654Y-113030000D01*
X147994991Y-113022819D01*
X148228385Y-112866870D01*
X148426870Y-112668385D01*
X148582819Y-112434991D01*
X148690238Y-112175657D01*
X148745000Y-111900350D01*
X148745000Y-111619650D01*
X148690238Y-111344343D01*
X148582819Y-111085009D01*
X148426870Y-110851615D01*
X148228385Y-110653130D01*
X147994991Y-110497181D01*
X147735657Y-110389762D01*
X147460350Y-110335000D01*
X147179650Y-110335000D01*
X146904343Y-110389762D01*
X146645009Y-110497181D01*
X146411615Y-110653130D01*
X146213130Y-110851615D01*
X146057181Y-111085009D01*
X145949762Y-111344343D01*
X145895000Y-111619650D01*
X145895000Y-111900350D01*
X145949762Y-112175657D01*
X146057181Y-112434991D01*
X146213130Y-112668385D01*
X146411615Y-112866870D01*
X146645009Y-113022819D01*
X146662346Y-113030000D01*
X146645009Y-113037181D01*
X146411615Y-113193130D01*
X146213130Y-113391615D01*
X146057181Y-113625009D01*
X146050000Y-113642346D01*
X146042819Y-113625009D01*
X145886870Y-113391615D01*
X145688385Y-113193130D01*
X145454991Y-113037181D01*
X145195657Y-112929762D01*
X144920350Y-112875000D01*
X144639650Y-112875000D01*
X144364343Y-112929762D01*
X144105009Y-113037181D01*
X143871615Y-113193130D01*
X143673130Y-113391615D01*
X143659377Y-113412199D01*
X143655957Y-113377479D01*
X143620219Y-113259666D01*
X143562183Y-113151089D01*
X143484080Y-113055920D01*
X143388911Y-112977817D01*
X143365000Y-112965036D01*
X143365000Y-108140623D01*
X143409762Y-108365657D01*
X143517181Y-108624991D01*
X143673130Y-108858385D01*
X143871615Y-109056870D01*
X144105009Y-109212819D01*
X144364343Y-109320238D01*
X144639650Y-109375000D01*
X144920350Y-109375000D01*
X145195657Y-109320238D01*
X145454991Y-109212819D01*
X145688385Y-109056870D01*
X145886870Y-108858385D01*
X146042819Y-108624991D01*
X146150238Y-108365657D01*
X146205000Y-108090350D01*
X146205000Y-107809650D01*
X146150238Y-107534343D01*
X146042819Y-107275009D01*
X145886870Y-107041615D01*
X145688385Y-106843130D01*
X145534569Y-106740353D01*
X149482165Y-106740353D01*
X149525602Y-107060670D01*
X149630695Y-107366358D01*
X149726345Y-107545306D01*
X149989828Y-107643396D01*
X150953223Y-106680000D01*
X149989828Y-105716604D01*
X149726345Y-105814694D01*
X149584503Y-106105160D01*
X149502054Y-106417717D01*
X149482165Y-106740353D01*
X145534569Y-106740353D01*
X145454991Y-106687181D01*
X145195657Y-106579762D01*
X144920350Y-106525000D01*
X144639650Y-106525000D01*
X144364343Y-106579762D01*
X144105009Y-106687181D01*
X143871615Y-106843130D01*
X143673130Y-107041615D01*
X143517181Y-107275009D01*
X143409762Y-107534343D01*
X143365000Y-107759377D01*
X143365000Y-105474964D01*
X143388911Y-105462183D01*
X143484080Y-105384080D01*
X143562183Y-105288911D01*
X143620219Y-105180334D01*
X143655957Y-105062521D01*
X143668024Y-104940000D01*
X143668024Y-103340000D01*
X143655957Y-103217479D01*
X143620219Y-103099666D01*
X143562183Y-102991089D01*
X143484080Y-102895920D01*
X143388911Y-102817817D01*
X143280334Y-102759781D01*
X143165676Y-102725000D01*
X146438748Y-102725000D01*
X146645009Y-102862819D01*
X146904343Y-102970238D01*
X147179650Y-103025000D01*
X147460350Y-103025000D01*
X147735657Y-102970238D01*
X147994991Y-102862819D01*
X148228385Y-102706870D01*
X148426870Y-102508385D01*
X148582819Y-102274991D01*
X148690238Y-102015657D01*
X148745000Y-101740350D01*
X148745000Y-101459650D01*
X148690238Y-101184343D01*
X148582819Y-100925009D01*
X148426870Y-100691615D01*
X148228385Y-100493130D01*
X147994991Y-100337181D01*
X147735657Y-100229762D01*
X147460350Y-100175000D01*
X147179650Y-100175000D01*
X146904343Y-100229762D01*
X146645009Y-100337181D01*
X146438748Y-100475000D01*
X140825000Y-100475000D01*
X140825000Y-97827361D01*
X141012884Y-98015245D01*
X141328171Y-98225913D01*
X141678498Y-98371023D01*
X142050404Y-98445000D01*
X142429596Y-98445000D01*
X142801502Y-98371023D01*
X143151829Y-98225913D01*
X143467116Y-98015245D01*
X143735245Y-97747116D01*
X143945913Y-97431829D01*
X144091023Y-97081502D01*
X144165000Y-96709596D01*
X144165000Y-96330404D01*
X144100273Y-96005000D01*
X145189557Y-96005000D01*
X145189557Y-98305000D01*
X145211278Y-98525538D01*
X145275607Y-98737602D01*
X145380071Y-98933040D01*
X145520656Y-99104344D01*
X145691960Y-99244929D01*
X145887398Y-99349393D01*
X146099462Y-99413722D01*
X146320000Y-99435443D01*
X148320000Y-99435443D01*
X148540538Y-99413722D01*
X148752602Y-99349393D01*
X148948040Y-99244929D01*
X149119344Y-99104344D01*
X149259929Y-98933040D01*
X149364393Y-98737602D01*
X149428722Y-98525538D01*
X149450443Y-98305000D01*
X149450443Y-96005000D01*
X149428722Y-95784462D01*
X149364393Y-95572398D01*
X149259929Y-95376960D01*
X149119344Y-95205656D01*
X148948040Y-95065071D01*
X148920126Y-95050151D01*
X149025913Y-94891829D01*
X149171023Y-94541502D01*
X149245000Y-94169596D01*
X149245000Y-93790404D01*
X149171023Y-93418498D01*
X149025913Y-93068171D01*
X148815245Y-92752884D01*
X148547116Y-92484755D01*
X148231829Y-92274087D01*
X147881502Y-92128977D01*
X147509596Y-92055000D01*
X147130404Y-92055000D01*
X146758498Y-92128977D01*
X146408171Y-92274087D01*
X146092884Y-92484755D01*
X145824755Y-92752884D01*
X145614087Y-93068171D01*
X145468977Y-93418498D01*
X145395000Y-93790404D01*
X145395000Y-94169596D01*
X145468977Y-94541502D01*
X145614087Y-94891829D01*
X145719874Y-95050151D01*
X145691960Y-95065071D01*
X145520656Y-95205656D01*
X145380071Y-95376960D01*
X145275607Y-95572398D01*
X145211278Y-95784462D01*
X145189557Y-96005000D01*
X144100273Y-96005000D01*
X144091023Y-95958498D01*
X143945913Y-95608171D01*
X143735245Y-95292884D01*
X143467116Y-95024755D01*
X143151829Y-94814087D01*
X142801502Y-94668977D01*
X142429596Y-94595000D01*
X142050404Y-94595000D01*
X141678498Y-94668977D01*
X141328171Y-94814087D01*
X141012884Y-95024755D01*
X140825000Y-95212639D01*
X140825000Y-92765261D01*
X140826605Y-92748966D01*
X141012884Y-92935245D01*
X141328171Y-93145913D01*
X141678498Y-93291023D01*
X142050404Y-93365000D01*
X142429596Y-93365000D01*
X142801502Y-93291023D01*
X143151829Y-93145913D01*
X143467116Y-92935245D01*
X143735245Y-92667116D01*
X143945913Y-92351829D01*
X144091023Y-92001502D01*
X144165000Y-91629596D01*
X144165000Y-91250404D01*
X144091023Y-90878498D01*
X143945913Y-90528171D01*
X143735245Y-90212884D01*
X143467116Y-89944755D01*
X143151829Y-89734087D01*
X142801502Y-89588977D01*
X142429596Y-89515000D01*
X142050404Y-89515000D01*
X141678498Y-89588977D01*
X141328171Y-89734087D01*
X141012884Y-89944755D01*
X140744755Y-90212884D01*
X140534087Y-90528171D01*
X140388977Y-90878498D01*
X140315000Y-91250404D01*
X140315000Y-91629596D01*
X140340926Y-91759936D01*
X137204262Y-88623273D01*
X137469243Y-88597174D01*
X137766603Y-88506971D01*
X138040651Y-88360489D01*
X138072590Y-88334277D01*
X138223878Y-88518622D01*
X138540218Y-88778236D01*
X138901128Y-88971147D01*
X139292739Y-89089940D01*
X139700000Y-89130052D01*
X140107260Y-89089940D01*
X140498871Y-88971147D01*
X140622846Y-88904881D01*
X140659460Y-88934929D01*
X140854898Y-89039393D01*
X141066962Y-89103722D01*
X141287500Y-89125443D01*
X143192500Y-89125443D01*
X143413038Y-89103722D01*
X143625102Y-89039393D01*
X143772975Y-88960353D01*
X149482165Y-88960353D01*
X149525602Y-89280670D01*
X149630695Y-89586358D01*
X149726345Y-89765306D01*
X149989828Y-89863396D01*
X150953223Y-88900000D01*
X149989828Y-87936604D01*
X149726345Y-88034694D01*
X149584503Y-88325160D01*
X149502054Y-88637717D01*
X149482165Y-88960353D01*
X143772975Y-88960353D01*
X143820540Y-88934929D01*
X143991844Y-88794344D01*
X144132429Y-88623040D01*
X144236893Y-88427602D01*
X144301222Y-88215538D01*
X144322943Y-87995000D01*
X144322943Y-85995000D01*
X144301222Y-85774462D01*
X144236893Y-85562398D01*
X144132429Y-85366960D01*
X144007719Y-85215000D01*
X149954276Y-85215000D01*
X149855352Y-85313924D01*
G37*
X149855352Y-85313924D02*
X149675765Y-85582695D01*
X149552063Y-85881338D01*
X149489000Y-86198376D01*
X149489000Y-86521624D01*
X149552063Y-86838662D01*
X149675765Y-87137305D01*
X149855352Y-87406076D01*
X150083924Y-87634648D01*
X150187453Y-87703824D01*
X150166604Y-87759828D01*
X151130000Y-88723223D01*
X152093396Y-87759828D01*
X152072547Y-87703824D01*
X152176076Y-87634648D01*
X152404648Y-87406076D01*
X152584235Y-87137305D01*
X152600001Y-87099243D01*
X152600001Y-88158818D01*
X152533655Y-88034694D01*
X152270172Y-87936604D01*
X151306777Y-88900000D01*
X152270172Y-89863396D01*
X152533655Y-89765306D01*
X152600001Y-89629442D01*
X152600001Y-90700757D01*
X152584235Y-90662695D01*
X152404648Y-90393924D01*
X152176076Y-90165352D01*
X152072547Y-90096176D01*
X152093396Y-90040172D01*
X151130000Y-89076777D01*
X150166604Y-90040172D01*
X150187453Y-90096176D01*
X150083924Y-90165352D01*
X149855352Y-90393924D01*
X149675765Y-90662695D01*
X149552063Y-90961338D01*
X149489000Y-91278376D01*
X149489000Y-91601624D01*
X149552063Y-91918662D01*
X149675765Y-92217305D01*
X149855352Y-92486076D01*
X150079276Y-92710000D01*
X149855352Y-92933924D01*
X149675765Y-93202695D01*
X149552063Y-93501338D01*
X149489000Y-93818376D01*
X149489000Y-94141624D01*
X149552063Y-94458662D01*
X149675765Y-94757305D01*
X149855352Y-95026076D01*
X150079276Y-95250000D01*
X149855352Y-95473924D01*
X149675765Y-95742695D01*
X149552063Y-96041338D01*
X149489000Y-96358376D01*
X149489000Y-96681624D01*
X149552063Y-96998662D01*
X149675765Y-97297305D01*
X149855352Y-97566076D01*
X150079276Y-97790000D01*
X149855352Y-98013924D01*
X149675765Y-98282695D01*
X149552063Y-98581338D01*
X149489000Y-98898376D01*
X149489000Y-99221624D01*
X149552063Y-99538662D01*
X149675765Y-99837305D01*
X149855352Y-100106076D01*
X150079276Y-100330000D01*
X149855352Y-100553924D01*
X149675765Y-100822695D01*
X149552063Y-101121338D01*
X149489000Y-101438376D01*
X149489000Y-101761624D01*
X149552063Y-102078662D01*
X149675765Y-102377305D01*
X149855352Y-102646076D01*
X150079276Y-102870000D01*
X149855352Y-103093924D01*
X149675765Y-103362695D01*
X149552063Y-103661338D01*
X149489000Y-103978376D01*
X149489000Y-104301624D01*
X149552063Y-104618662D01*
X149675765Y-104917305D01*
X149855352Y-105186076D01*
X150083924Y-105414648D01*
X150187453Y-105483824D01*
X150166604Y-105539828D01*
X151130000Y-106503223D01*
X152093396Y-105539828D01*
X152072547Y-105483824D01*
X152176076Y-105414648D01*
X152404648Y-105186076D01*
X152584235Y-104917305D01*
X152600000Y-104879245D01*
X152600000Y-105938817D01*
X152533655Y-105814694D01*
X152270172Y-105716604D01*
X151306777Y-106680000D01*
X152270172Y-107643396D01*
X152533655Y-107545306D01*
X152600000Y-107409443D01*
X152600000Y-108480755D01*
X152584235Y-108442695D01*
X152404648Y-108173924D01*
X152176076Y-107945352D01*
X152072547Y-107876176D01*
X152093396Y-107820172D01*
X151130000Y-106856777D01*
X150166604Y-107820172D01*
X150187453Y-107876176D01*
X150083924Y-107945352D01*
X149855352Y-108173924D01*
X149675765Y-108442695D01*
X149552063Y-108741338D01*
X149489000Y-109058376D01*
X149489000Y-109381624D01*
X149552063Y-109698662D01*
X149675765Y-109997305D01*
X149855352Y-110266076D01*
X150079276Y-110490000D01*
X149855352Y-110713924D01*
X149675765Y-110982695D01*
X149552063Y-111281338D01*
X149489000Y-111598376D01*
X149489000Y-111921624D01*
X149552063Y-112238662D01*
X149675765Y-112537305D01*
X149855352Y-112806076D01*
X150079276Y-113030000D01*
X149855352Y-113253924D01*
X149675765Y-113522695D01*
X149552063Y-113821338D01*
X149489000Y-114138376D01*
X149489000Y-114461624D01*
X149552063Y-114778662D01*
X149675765Y-115077305D01*
X149855352Y-115346076D01*
X150079276Y-115570000D01*
X149855352Y-115793924D01*
X149675765Y-116062695D01*
X149552063Y-116361338D01*
X149489000Y-116678376D01*
X149489000Y-117001624D01*
X149552063Y-117318662D01*
X149675765Y-117617305D01*
X149855352Y-117886076D01*
X150079276Y-118110000D01*
X149855352Y-118333924D01*
X149675765Y-118602695D01*
X149552063Y-118901338D01*
X149489000Y-119218376D01*
X149489000Y-119541624D01*
X149552063Y-119858662D01*
X149675765Y-120157305D01*
X149855352Y-120426076D01*
X150079276Y-120650000D01*
X149855352Y-120873924D01*
X149675765Y-121142695D01*
X149552063Y-121441338D01*
X149489000Y-121758376D01*
X149489000Y-122081624D01*
X149552063Y-122398662D01*
X149675765Y-122697305D01*
X149855352Y-122966076D01*
X150083924Y-123194648D01*
X150352695Y-123374235D01*
X150651338Y-123497937D01*
X150968376Y-123561000D01*
X151291624Y-123561000D01*
X151608662Y-123497937D01*
X151907305Y-123374235D01*
X152176076Y-123194648D01*
X152404648Y-122966076D01*
X152584235Y-122697305D01*
X152600000Y-122659245D01*
X152600000Y-124163530D01*
X152595957Y-124122479D01*
X152560219Y-124004666D01*
X152502183Y-123896089D01*
X152424080Y-123800920D01*
X152328911Y-123722817D01*
X152220334Y-123664781D01*
X152102521Y-123629043D01*
X151980000Y-123616976D01*
X150280000Y-123616976D01*
X150157479Y-123629043D01*
X150039666Y-123664781D01*
X149931089Y-123722817D01*
X149835920Y-123800920D01*
X149757817Y-123896089D01*
X149699781Y-124004666D01*
X149664043Y-124122479D01*
X149651976Y-124245000D01*
X149651976Y-125945000D01*
X149664043Y-126067521D01*
X149699781Y-126185334D01*
X149757817Y-126293911D01*
X149835920Y-126389080D01*
X149931089Y-126467183D01*
X150039666Y-126525219D01*
X150157479Y-126560957D01*
X150280000Y-126573024D01*
X151980000Y-126573024D01*
X152102521Y-126560957D01*
X152220334Y-126525219D01*
X152328911Y-126467183D01*
X152424080Y-126389080D01*
X152502183Y-126293911D01*
X152560219Y-126185334D01*
X152595957Y-126067521D01*
X152600000Y-126026471D01*
X152600000Y-126978724D01*
X152582051Y-127161779D01*
X152535066Y-127317399D01*
X152458750Y-127460929D01*
X152356011Y-127586899D01*
X152230757Y-127690519D01*
X152087770Y-127767832D01*
X151932479Y-127815903D01*
X151750775Y-127835000D01*
X127656276Y-127835000D01*
X127473221Y-127817051D01*
X127317601Y-127770066D01*
X127174071Y-127693750D01*
X127048101Y-127591011D01*
X126944481Y-127465757D01*
X126867168Y-127322770D01*
X126819097Y-127167479D01*
X126800000Y-126985775D01*
X126800000Y-124949725D01*
X130605000Y-124949725D01*
X130605000Y-125240275D01*
X130661683Y-125525242D01*
X130772872Y-125793675D01*
X130934293Y-126035258D01*
X131139742Y-126240707D01*
X131381325Y-126402128D01*
X131649758Y-126513317D01*
X131934725Y-126570000D01*
X132225275Y-126570000D01*
X132510242Y-126513317D01*
X132778675Y-126402128D01*
X133020258Y-126240707D01*
X133163213Y-126097752D01*
X133189781Y-126185334D01*
X133247817Y-126293911D01*
X133325920Y-126389080D01*
X133421089Y-126467183D01*
X133529666Y-126525219D01*
X133647479Y-126560957D01*
X133770000Y-126573024D01*
X134338750Y-126570000D01*
X134495000Y-126413750D01*
X134495000Y-125220000D01*
X134475000Y-125220000D01*
X134475000Y-124970000D01*
X134495000Y-124970000D01*
X134495000Y-123776250D01*
X134338750Y-123620000D01*
X133770000Y-123616976D01*
X133647479Y-123629043D01*
X133529666Y-123664781D01*
X133421089Y-123722817D01*
X133325920Y-123800920D01*
X133247817Y-123896089D01*
X133189781Y-124004666D01*
X133163213Y-124092248D01*
X133020258Y-123949293D01*
X132778675Y-123787872D01*
X132510242Y-123676683D01*
X132225275Y-123620000D01*
X131934725Y-123620000D01*
X131649758Y-123676683D01*
X131381325Y-123787872D01*
X131139742Y-123949293D01*
X130934293Y-124154742D01*
X130772872Y-124396325D01*
X130661683Y-124664758D01*
X130605000Y-124949725D01*
X126800000Y-124949725D01*
X126800000Y-123367992D01*
X126809920Y-123380080D01*
X126905089Y-123458183D01*
X127013666Y-123516219D01*
X127131479Y-123551957D01*
X127254000Y-123564024D01*
X129286000Y-123564024D01*
X129408521Y-123551957D01*
X129526334Y-123516219D01*
X129634911Y-123458183D01*
X129730080Y-123380080D01*
X129808183Y-123284911D01*
X129866219Y-123176334D01*
X129901957Y-123058521D01*
X129914024Y-122936000D01*
X129914024Y-121779650D01*
X130655000Y-121779650D01*
X130655000Y-122060350D01*
X130709762Y-122335657D01*
X130817181Y-122594991D01*
X130973130Y-122828385D01*
X131171615Y-123026870D01*
X131405009Y-123182819D01*
X131664343Y-123290238D01*
X131939650Y-123345000D01*
X132220350Y-123345000D01*
X132495657Y-123290238D01*
X132754991Y-123182819D01*
X132988385Y-123026870D01*
X133186870Y-122828385D01*
X133342819Y-122594991D01*
X133354442Y-122566930D01*
X133474980Y-122768274D01*
X133662471Y-122975357D01*
X133886760Y-123141883D01*
X134139227Y-123261453D01*
X134274479Y-123302476D01*
X134495000Y-123182577D01*
X134495000Y-122045000D01*
X134475000Y-122045000D01*
X134475000Y-121795000D01*
X134495000Y-121795000D01*
X134495000Y-120657423D01*
X134274479Y-120537524D01*
X134139227Y-120578547D01*
X133886760Y-120698117D01*
X133662471Y-120864643D01*
X133474980Y-121071726D01*
X133354442Y-121273070D01*
X133342819Y-121245009D01*
X133186870Y-121011615D01*
X132988385Y-120813130D01*
X132754991Y-120657181D01*
X132495657Y-120549762D01*
X132220350Y-120495000D01*
X131939650Y-120495000D01*
X131664343Y-120549762D01*
X131405009Y-120657181D01*
X131171615Y-120813130D01*
X130973130Y-121011615D01*
X130817181Y-121245009D01*
X130709762Y-121504343D01*
X130655000Y-121779650D01*
X129914024Y-121779650D01*
X129914024Y-120904000D01*
X129901957Y-120781479D01*
X129866219Y-120663666D01*
X129808183Y-120555089D01*
X129730080Y-120459920D01*
X129634911Y-120381817D01*
X129590192Y-120357914D01*
X129724235Y-120157305D01*
X129847937Y-119858662D01*
X129911000Y-119541624D01*
X129911000Y-119218376D01*
X129847937Y-118901338D01*
X129724235Y-118602695D01*
X129544648Y-118333924D01*
X129320724Y-118110000D01*
X129544648Y-117886076D01*
X129724235Y-117617305D01*
X129847937Y-117318662D01*
X129911000Y-117001624D01*
X129911000Y-116678376D01*
X129847937Y-116361338D01*
X129724235Y-116062695D01*
X129544648Y-115793924D01*
X129320724Y-115570000D01*
X129544648Y-115346076D01*
X129724235Y-115077305D01*
X129847937Y-114778662D01*
X129911000Y-114461624D01*
X129911000Y-114138376D01*
X129847937Y-113821338D01*
X129724235Y-113522695D01*
X129544648Y-113253924D01*
X129320724Y-113030000D01*
X129544648Y-112806076D01*
X129724235Y-112537305D01*
X129847937Y-112238662D01*
X129911000Y-111921624D01*
X129911000Y-111598376D01*
X129847937Y-111281338D01*
X129724235Y-110982695D01*
X129544648Y-110713924D01*
X129320724Y-110490000D01*
X129461074Y-110349650D01*
X130655000Y-110349650D01*
X130655000Y-110630350D01*
X130709762Y-110905657D01*
X130817181Y-111164991D01*
X130973130Y-111398385D01*
X131171615Y-111596870D01*
X131405009Y-111752819D01*
X131664343Y-111860238D01*
X131939650Y-111915000D01*
X132220350Y-111915000D01*
X132495657Y-111860238D01*
X132754991Y-111752819D01*
X132988385Y-111596870D01*
X133186870Y-111398385D01*
X133342819Y-111164991D01*
X133450238Y-110905657D01*
X133505000Y-110630350D01*
X133505000Y-110349650D01*
X133450238Y-110074343D01*
X133342819Y-109815009D01*
X133186870Y-109581615D01*
X132988385Y-109383130D01*
X132754991Y-109227181D01*
X132495657Y-109119762D01*
X132220350Y-109065000D01*
X131939650Y-109065000D01*
X131664343Y-109119762D01*
X131405009Y-109227181D01*
X131171615Y-109383130D01*
X130973130Y-109581615D01*
X130817181Y-109815009D01*
X130709762Y-110074343D01*
X130655000Y-110349650D01*
X129461074Y-110349650D01*
X129544648Y-110266076D01*
X129724235Y-109997305D01*
X129847937Y-109698662D01*
X129911000Y-109381624D01*
X129911000Y-109058376D01*
X129847937Y-108741338D01*
X129724235Y-108442695D01*
X129544648Y-108173924D01*
X129320724Y-107950000D01*
X129461074Y-107809650D01*
X133195000Y-107809650D01*
X133195000Y-108090350D01*
X133249762Y-108365657D01*
X133357181Y-108624991D01*
X133513130Y-108858385D01*
X133711615Y-109056870D01*
X133945009Y-109212819D01*
X134204343Y-109320238D01*
X134479650Y-109375000D01*
X134760350Y-109375000D01*
X135035657Y-109320238D01*
X135294991Y-109212819D01*
X135528385Y-109056870D01*
X135726870Y-108858385D01*
X135882819Y-108624991D01*
X135990238Y-108365657D01*
X136045000Y-108090350D01*
X136045000Y-107809650D01*
X135990238Y-107534343D01*
X135882819Y-107275009D01*
X135726870Y-107041615D01*
X135528385Y-106843130D01*
X135294991Y-106687181D01*
X135035657Y-106579762D01*
X134760350Y-106525000D01*
X134479650Y-106525000D01*
X134204343Y-106579762D01*
X133945009Y-106687181D01*
X133711615Y-106843130D01*
X133513130Y-107041615D01*
X133357181Y-107275009D01*
X133249762Y-107534343D01*
X133195000Y-107809650D01*
X129461074Y-107809650D01*
X129544648Y-107726076D01*
X129724235Y-107457305D01*
X129847937Y-107158662D01*
X129911000Y-106841624D01*
X129911000Y-106518376D01*
X129847937Y-106201338D01*
X129724235Y-105902695D01*
X129544648Y-105633924D01*
X129320724Y-105410000D01*
X129544648Y-105186076D01*
X129724235Y-104917305D01*
X129847937Y-104618662D01*
X129911000Y-104301624D01*
X129911000Y-103978376D01*
X129847937Y-103661338D01*
X129724235Y-103362695D01*
X129544648Y-103093924D01*
X129320724Y-102870000D01*
X129544648Y-102646076D01*
X129724235Y-102377305D01*
X129847937Y-102078662D01*
X129911000Y-101761624D01*
X129911000Y-101438376D01*
X129847937Y-101121338D01*
X129724235Y-100822695D01*
X129544648Y-100553924D01*
X129316076Y-100325352D01*
X129212547Y-100256176D01*
X129233396Y-100200172D01*
X128270000Y-99236777D01*
X127306604Y-100200172D01*
X127327453Y-100256176D01*
X127223924Y-100325352D01*
X126995352Y-100553924D01*
X126815765Y-100822695D01*
X126800000Y-100860755D01*
X126800000Y-99801184D01*
X126866345Y-99925306D01*
X127129828Y-100023396D01*
X128093223Y-99060000D01*
X128446777Y-99060000D01*
X129410172Y-100023396D01*
X129673655Y-99925306D01*
X129815497Y-99634840D01*
X129897946Y-99322283D01*
X129917835Y-98999647D01*
X129874398Y-98679330D01*
X129769305Y-98373642D01*
X129673655Y-98194694D01*
X129410172Y-98096604D01*
X128446777Y-99060000D01*
X128093223Y-99060000D01*
X127129828Y-98096604D01*
X126866345Y-98194694D01*
X126800000Y-98330556D01*
X126800000Y-97259245D01*
X126815765Y-97297305D01*
X126995352Y-97566076D01*
X127223924Y-97794648D01*
X127327453Y-97863824D01*
X127306604Y-97919828D01*
X128270000Y-98883223D01*
X129233396Y-97919828D01*
X129212547Y-97863824D01*
X129316076Y-97794648D01*
X129544648Y-97566076D01*
X129724235Y-97297305D01*
X129845000Y-97005753D01*
X129845000Y-97379068D01*
X129932427Y-97818593D01*
X130103921Y-98232617D01*
X130352892Y-98605228D01*
X130669772Y-98922108D01*
X130727175Y-98960464D01*
X130584755Y-99102884D01*
X130374087Y-99418171D01*
X130228977Y-99768498D01*
X130155000Y-100140404D01*
X130155000Y-100519596D01*
X130228977Y-100891502D01*
X130374087Y-101241829D01*
X130584755Y-101557116D01*
X130852884Y-101825245D01*
X131168171Y-102035913D01*
X131518498Y-102181023D01*
X131890404Y-102255000D01*
X132269596Y-102255000D01*
X132641502Y-102181023D01*
X132991829Y-102035913D01*
X133307116Y-101825245D01*
X133575245Y-101557116D01*
X133785913Y-101241829D01*
X133931023Y-100891502D01*
X134005000Y-100519596D01*
X134005000Y-100140404D01*
X133931023Y-99768498D01*
X133785913Y-99418171D01*
X133575245Y-99102884D01*
X133464868Y-98992507D01*
X133570228Y-98922108D01*
X133887108Y-98605228D01*
X134136079Y-98232617D01*
X134307573Y-97818593D01*
X134395000Y-97379068D01*
X134395000Y-96930932D01*
X134307573Y-96491407D01*
X134136079Y-96077383D01*
X133887108Y-95704772D01*
X133570228Y-95387892D01*
X133197617Y-95138921D01*
X132783593Y-94967427D01*
X132344068Y-94880000D01*
X131895932Y-94880000D01*
X131456407Y-94967427D01*
X131042383Y-95138921D01*
X130669772Y-95387892D01*
X130352892Y-95704772D01*
X130103921Y-96077383D01*
X129932427Y-96491407D01*
X129911000Y-96599128D01*
X129911000Y-96358376D01*
X129847937Y-96041338D01*
X129724235Y-95742695D01*
X129544648Y-95473924D01*
X129320724Y-95250000D01*
X129544648Y-95026076D01*
X129724235Y-94757305D01*
X129847937Y-94458662D01*
X129911000Y-94141624D01*
X129911000Y-93818376D01*
X129847937Y-93501338D01*
X129724235Y-93202695D01*
X129544648Y-92933924D01*
X129320724Y-92710000D01*
X129544648Y-92486076D01*
X129724235Y-92217305D01*
X129847937Y-91918662D01*
X129911000Y-91601624D01*
X129911000Y-91278376D01*
X129905437Y-91250404D01*
X130155000Y-91250404D01*
X130155000Y-91629596D01*
X130228977Y-92001502D01*
X130374087Y-92351829D01*
X130584755Y-92667116D01*
X130852884Y-92935245D01*
X131168171Y-93145913D01*
X131518498Y-93291023D01*
X131890404Y-93365000D01*
X132269596Y-93365000D01*
X132641502Y-93291023D01*
X132991829Y-93145913D01*
X133307116Y-92935245D01*
X133575245Y-92667116D01*
X133785913Y-92351829D01*
X133931023Y-92001502D01*
X134005000Y-91629596D01*
X134005000Y-91250404D01*
X133931023Y-90878498D01*
X133785913Y-90528171D01*
X133575245Y-90212884D01*
X133307116Y-89944755D01*
X132991829Y-89734087D01*
X132641502Y-89588977D01*
X132269596Y-89515000D01*
X131890404Y-89515000D01*
X131518498Y-89588977D01*
X131168171Y-89734087D01*
X130852884Y-89944755D01*
X130584755Y-90212884D01*
X130374087Y-90528171D01*
X130228977Y-90878498D01*
X130155000Y-91250404D01*
X129905437Y-91250404D01*
X129847937Y-90961338D01*
X129724235Y-90662695D01*
X129544648Y-90393924D01*
X129316076Y-90165352D01*
X129212547Y-90096176D01*
X129233396Y-90040172D01*
X128270000Y-89076777D01*
X127306604Y-90040172D01*
X127327453Y-90096176D01*
X127223924Y-90165352D01*
X126995352Y-90393924D01*
X126815765Y-90662695D01*
X126800000Y-90700755D01*
X126800000Y-89641184D01*
X126866345Y-89765306D01*
X127129828Y-89863396D01*
X128093223Y-88900000D01*
X128446777Y-88900000D01*
X129410172Y-89863396D01*
X129673655Y-89765306D01*
X129815497Y-89474840D01*
X129897946Y-89162283D01*
X129917835Y-88839647D01*
X129874398Y-88519330D01*
X129769305Y-88213642D01*
X129673655Y-88034694D01*
X129410172Y-87936604D01*
X128446777Y-88900000D01*
X128093223Y-88900000D01*
X127129828Y-87936604D01*
X126866345Y-88034694D01*
X126800000Y-88170556D01*
X126800000Y-87099245D01*
X126815765Y-87137305D01*
X126995352Y-87406076D01*
X127223924Y-87634648D01*
X127327453Y-87703824D01*
X127306604Y-87759828D01*
X128270000Y-88723223D01*
X129233396Y-87759828D01*
X129212547Y-87703824D01*
X129316076Y-87634648D01*
X129465724Y-87485000D01*
X132884011Y-87485000D01*
X137479937Y-92080926D01*
X137349596Y-92055000D01*
X136970404Y-92055000D01*
X136598498Y-92128977D01*
X136248171Y-92274087D01*
X135932884Y-92484755D01*
X135664755Y-92752884D01*
X135454087Y-93068171D01*
X135308977Y-93418498D01*
X135235000Y-93790404D01*
X135235000Y-94169596D01*
X135308977Y-94541502D01*
X135454087Y-94891829D01*
X135664755Y-95207116D01*
X135707639Y-95250000D01*
X135664755Y-95292884D01*
X135454087Y-95608171D01*
X135308977Y-95958498D01*
X135235000Y-96330404D01*
X135235000Y-96709596D01*
X135308977Y-97081502D01*
X135454087Y-97431829D01*
X135664755Y-97747116D01*
X135932884Y-98015245D01*
X136248171Y-98225913D01*
X136598498Y-98371023D01*
X136970404Y-98445000D01*
X137349596Y-98445000D01*
X137721502Y-98371023D01*
X138071829Y-98225913D01*
X138387116Y-98015245D01*
X138575000Y-97827361D01*
X138575000Y-101544736D01*
X138569557Y-101600000D01*
X138575001Y-101655274D01*
X138575001Y-103949380D01*
X138530238Y-103724343D01*
X138422819Y-103465009D01*
X138266870Y-103231615D01*
X138068385Y-103033130D01*
X137834991Y-102877181D01*
X137575657Y-102769762D01*
X137300350Y-102715000D01*
X137019650Y-102715000D01*
X136744343Y-102769762D01*
X136485009Y-102877181D01*
X136251615Y-103033130D01*
X136053130Y-103231615D01*
X135897181Y-103465009D01*
X135789762Y-103724343D01*
X135735000Y-103999650D01*
X135735000Y-104280350D01*
X135789762Y-104555657D01*
X135897181Y-104814991D01*
X136053130Y-105048385D01*
X136251615Y-105246870D01*
X136485009Y-105402819D01*
X136744343Y-105510238D01*
X137019650Y-105565000D01*
X137300350Y-105565000D01*
X137575657Y-105510238D01*
X137834991Y-105402819D01*
X138068385Y-105246870D01*
X138266870Y-105048385D01*
X138422819Y-104814991D01*
X138530238Y-104555657D01*
X138575001Y-104330620D01*
X138575000Y-111704736D01*
X138575000Y-114109378D01*
X138530238Y-113884343D01*
X138422819Y-113625009D01*
X138266870Y-113391615D01*
X138068385Y-113193130D01*
X137834991Y-113037181D01*
X137575657Y-112929762D01*
X137300350Y-112875000D01*
X137019650Y-112875000D01*
X136744343Y-112929762D01*
X136485009Y-113037181D01*
X136251615Y-113193130D01*
X136053130Y-113391615D01*
X135897181Y-113625009D01*
X135890000Y-113642346D01*
X135882819Y-113625009D01*
X135726870Y-113391615D01*
X135528385Y-113193130D01*
X135294991Y-113037181D01*
X135035657Y-112929762D01*
X134760350Y-112875000D01*
X134479650Y-112875000D01*
X134204343Y-112929762D01*
X133945009Y-113037181D01*
X133711615Y-113193130D01*
X133513130Y-113391615D01*
X133357181Y-113625009D01*
X133350000Y-113642346D01*
X133342819Y-113625009D01*
X133186870Y-113391615D01*
X132988385Y-113193130D01*
X132754991Y-113037181D01*
X132495657Y-112929762D01*
X132220350Y-112875000D01*
X131939650Y-112875000D01*
X131664343Y-112929762D01*
X131405009Y-113037181D01*
X131171615Y-113193130D01*
X130973130Y-113391615D01*
X130817181Y-113625009D01*
X130709762Y-113884343D01*
X130655000Y-114159650D01*
X130655000Y-114440350D01*
X130709762Y-114715657D01*
X130817181Y-114974991D01*
X130973130Y-115208385D01*
X131171615Y-115406870D01*
X131405009Y-115562819D01*
X131664343Y-115670238D01*
X131939650Y-115725000D01*
X132220350Y-115725000D01*
X132495657Y-115670238D01*
X132754991Y-115562819D01*
X132988385Y-115406870D01*
X133186870Y-115208385D01*
X133342819Y-114974991D01*
X133350000Y-114957654D01*
X133357181Y-114974991D01*
X133513130Y-115208385D01*
X133711615Y-115406870D01*
X133945009Y-115562819D01*
X134204343Y-115670238D01*
X134479650Y-115725000D01*
X134760350Y-115725000D01*
X135035657Y-115670238D01*
X135294991Y-115562819D01*
X135528385Y-115406870D01*
X135726870Y-115208385D01*
X135882819Y-114974991D01*
X135890000Y-114957654D01*
X135897181Y-114974991D01*
X136053130Y-115208385D01*
X136251615Y-115406870D01*
X136485009Y-115562819D01*
X136744343Y-115670238D01*
X137019650Y-115725000D01*
X137300350Y-115725000D01*
X137575657Y-115670238D01*
X137834991Y-115562819D01*
X138068385Y-115406870D01*
X138266870Y-115208385D01*
X138422819Y-114974991D01*
X138530238Y-114715657D01*
X138575000Y-114490622D01*
X138575001Y-120994327D01*
X138540219Y-120879666D01*
X138482183Y-120771089D01*
X138404080Y-120675920D01*
X138308911Y-120597817D01*
X138200334Y-120539781D01*
X138082521Y-120504043D01*
X137960000Y-120491976D01*
X136360000Y-120491976D01*
X136237479Y-120504043D01*
X136119666Y-120539781D01*
X136011089Y-120597817D01*
X135915920Y-120675920D01*
X135837817Y-120771089D01*
X135779781Y-120879666D01*
X135744043Y-120997479D01*
X135739506Y-121043546D01*
X135577529Y-120864643D01*
X135353240Y-120698117D01*
X135100773Y-120578547D01*
X134965521Y-120537524D01*
X134745000Y-120657423D01*
X134745000Y-121795000D01*
X134765000Y-121795000D01*
X134765000Y-122045000D01*
X134745000Y-122045000D01*
X134745000Y-123182577D01*
X134965521Y-123302476D01*
X135100773Y-123261453D01*
X135353240Y-123141883D01*
X135577529Y-122975357D01*
X135739506Y-122796454D01*
X135744043Y-122842521D01*
X135779781Y-122960334D01*
X135837817Y-123068911D01*
X135915920Y-123164080D01*
X136011089Y-123242183D01*
X136119666Y-123300219D01*
X136237479Y-123335957D01*
X136360000Y-123348024D01*
X137960000Y-123348024D01*
X138082521Y-123335957D01*
X138200334Y-123300219D01*
X138308911Y-123242183D01*
X138404080Y-123164080D01*
X138482183Y-123068911D01*
X138540219Y-122960334D01*
X138575001Y-122845673D01*
X138575001Y-123729729D01*
X138569557Y-123785000D01*
X138570473Y-123794299D01*
X138394772Y-123970000D01*
X138120965Y-123970000D01*
X138100258Y-123949293D01*
X137858675Y-123787872D01*
X137590242Y-123676683D01*
X137305275Y-123620000D01*
X137014725Y-123620000D01*
X136729758Y-123676683D01*
X136461325Y-123787872D01*
X136219742Y-123949293D01*
X136076787Y-124092248D01*
X136050219Y-124004666D01*
X135992183Y-123896089D01*
X135914080Y-123800920D01*
X135818911Y-123722817D01*
X135710334Y-123664781D01*
X135592521Y-123629043D01*
X135470000Y-123616976D01*
X134901250Y-123620000D01*
X134745000Y-123776250D01*
X134745000Y-124970000D01*
X134765000Y-124970000D01*
X134765000Y-125220000D01*
X134745000Y-125220000D01*
X134745000Y-126413750D01*
X134901250Y-126570000D01*
X135470000Y-126573024D01*
X135592521Y-126560957D01*
X135710334Y-126525219D01*
X135818911Y-126467183D01*
X135914080Y-126389080D01*
X135992183Y-126293911D01*
X136050219Y-126185334D01*
X136076787Y-126097752D01*
X136219742Y-126240707D01*
X136461325Y-126402128D01*
X136729758Y-126513317D01*
X137014725Y-126570000D01*
X137305275Y-126570000D01*
X137590242Y-126513317D01*
X137858675Y-126402128D01*
X138100258Y-126240707D01*
X138120965Y-126220000D01*
X138296837Y-126220000D01*
X138341268Y-126286496D01*
X138588504Y-126533732D01*
X138879222Y-126727984D01*
X139202252Y-126861787D01*
X139545178Y-126930000D01*
X139894822Y-126930000D01*
X140237748Y-126861787D01*
X140560778Y-126727984D01*
X140851496Y-126533732D01*
X140994538Y-126390690D01*
X146261086Y-126390690D01*
X146375339Y-126667878D01*
X146688638Y-126823103D01*
X147026201Y-126914223D01*
X147375053Y-126937737D01*
X147721790Y-126892742D01*
X148053087Y-126780967D01*
X148264661Y-126667878D01*
X148378914Y-126390690D01*
X147320000Y-125331777D01*
X146261086Y-126390690D01*
X140994538Y-126390690D01*
X141098732Y-126286496D01*
X141292984Y-125995778D01*
X141426787Y-125672748D01*
X141495000Y-125329822D01*
X141495000Y-125210053D01*
X145537263Y-125210053D01*
X145582258Y-125556790D01*
X145694033Y-125888087D01*
X145807122Y-126099661D01*
X146084310Y-126213914D01*
X147143223Y-125155000D01*
X147496777Y-125155000D01*
X148555690Y-126213914D01*
X148832878Y-126099661D01*
X148988103Y-125786362D01*
X149079223Y-125448799D01*
X149102737Y-125099947D01*
X149057742Y-124753210D01*
X148945967Y-124421913D01*
X148832878Y-124210339D01*
X148555690Y-124096086D01*
X147496777Y-125155000D01*
X147143223Y-125155000D01*
X146084310Y-124096086D01*
X145807122Y-124210339D01*
X145651897Y-124523638D01*
X145560777Y-124861201D01*
X145537263Y-125210053D01*
X141495000Y-125210053D01*
X141495000Y-124980178D01*
X141426787Y-124637252D01*
X141292984Y-124314222D01*
X141098732Y-124023504D01*
X140994538Y-123919310D01*
X146261086Y-123919310D01*
X147320000Y-124978223D01*
X148378914Y-123919310D01*
X148264661Y-123642122D01*
X147951362Y-123486897D01*
X147613799Y-123395777D01*
X147264947Y-123372263D01*
X146918210Y-123417258D01*
X146586913Y-123529033D01*
X146375339Y-123642122D01*
X146261086Y-123919310D01*
X140994538Y-123919310D01*
X140851496Y-123776268D01*
X140847339Y-123773490D01*
X140845000Y-123749745D01*
X140845000Y-123749736D01*
X140828722Y-123584462D01*
X140825000Y-123572192D01*
X140825000Y-122110623D01*
X140869762Y-122335657D01*
X140977181Y-122594991D01*
X141133130Y-122828385D01*
X141331615Y-123026870D01*
X141565009Y-123182819D01*
X141824343Y-123290238D01*
X142099650Y-123345000D01*
X142380350Y-123345000D01*
X142655657Y-123290238D01*
X142914991Y-123182819D01*
X143148385Y-123026870D01*
X143346870Y-122828385D01*
X143502819Y-122594991D01*
X143510000Y-122577654D01*
X143517181Y-122594991D01*
X143673130Y-122828385D01*
X143871615Y-123026870D01*
X144105009Y-123182819D01*
X144364343Y-123290238D01*
X144639650Y-123345000D01*
X144920350Y-123345000D01*
X145195657Y-123290238D01*
X145454991Y-123182819D01*
X145688385Y-123026870D01*
X145886870Y-122828385D01*
X146042819Y-122594991D01*
X146054442Y-122566930D01*
X146174980Y-122768274D01*
X146362471Y-122975357D01*
X146586760Y-123141883D01*
X146839227Y-123261453D01*
X146974479Y-123302476D01*
X147195000Y-123182577D01*
X147195000Y-122045000D01*
X147445000Y-122045000D01*
X147445000Y-123182577D01*
X147665521Y-123302476D01*
X147800773Y-123261453D01*
X148053240Y-123141883D01*
X148277529Y-122975357D01*
X148465020Y-122768274D01*
X148608509Y-122528592D01*
X148702481Y-122265522D01*
X148583262Y-122045000D01*
X147445000Y-122045000D01*
X147195000Y-122045000D01*
X147175000Y-122045000D01*
X147175000Y-121795000D01*
X147195000Y-121795000D01*
X147195000Y-120657423D01*
X147445000Y-120657423D01*
X147445000Y-121795000D01*
X148583262Y-121795000D01*
X148702481Y-121574478D01*
X148608509Y-121311408D01*
X148465020Y-121071726D01*
X148277529Y-120864643D01*
X148053240Y-120698117D01*
X147800773Y-120578547D01*
X147665521Y-120537524D01*
X147445000Y-120657423D01*
X147195000Y-120657423D01*
X146974479Y-120537524D01*
X146839227Y-120578547D01*
X146586760Y-120698117D01*
X146362471Y-120864643D01*
X146174980Y-121071726D01*
X146054442Y-121273070D01*
X146042819Y-121245009D01*
X145886870Y-121011615D01*
X145688385Y-120813130D01*
X145454991Y-120657181D01*
X145195657Y-120549762D01*
X144920350Y-120495000D01*
X144639650Y-120495000D01*
X144364343Y-120549762D01*
X144105009Y-120657181D01*
X143871615Y-120813130D01*
X143673130Y-121011615D01*
X143517181Y-121245009D01*
X143510000Y-121262346D01*
X143502819Y-121245009D01*
X143346870Y-121011615D01*
X143148385Y-120813130D01*
X142914991Y-120657181D01*
X142655657Y-120549762D01*
X142380350Y-120495000D01*
X142099650Y-120495000D01*
X141824343Y-120549762D01*
X141565009Y-120657181D01*
X141331615Y-120813130D01*
X141133130Y-121011615D01*
X140977181Y-121245009D01*
X140869762Y-121504343D01*
X140825000Y-121729377D01*
X140825000Y-115225676D01*
X140859781Y-115340334D01*
X140917817Y-115448911D01*
X140995920Y-115544080D01*
X141091089Y-115622183D01*
X141199666Y-115680219D01*
X141317479Y-115715957D01*
X141440000Y-115728024D01*
X143040000Y-115728024D01*
X143162521Y-115715957D01*
X143280334Y-115680219D01*
X143388911Y-115622183D01*
X143484080Y-115544080D01*
X143562183Y-115448911D01*
X143620219Y-115340334D01*
X143655957Y-115222521D01*
X143659377Y-115187801D01*
X143673130Y-115208385D01*
X143871615Y-115406870D01*
X144105009Y-115562819D01*
X144364343Y-115670238D01*
X144639650Y-115725000D01*
X144920350Y-115725000D01*
X145195657Y-115670238D01*
X145454991Y-115562819D01*
X145688385Y-115406870D01*
X145886870Y-115208385D01*
X146042819Y-114974991D01*
X146050000Y-114957654D01*
X146057181Y-114974991D01*
X146213130Y-115208385D01*
X146411615Y-115406870D01*
X146645009Y-115562819D01*
X146904343Y-115670238D01*
X147179650Y-115725000D01*
X147460350Y-115725000D01*
X147735657Y-115670238D01*
X147994991Y-115562819D01*
X148228385Y-115406870D01*
X148426870Y-115208385D01*
X148582819Y-114974991D01*
X148690238Y-114715657D01*
X148745000Y-114440350D01*
X148745000Y-114159650D01*
X148690238Y-113884343D01*
X148582819Y-113625009D01*
X148426870Y-113391615D01*
X148228385Y-113193130D01*
X147994991Y-113037181D01*
X147977654Y-113030000D01*
X147994991Y-113022819D01*
X148228385Y-112866870D01*
X148426870Y-112668385D01*
X148582819Y-112434991D01*
X148690238Y-112175657D01*
X148745000Y-111900350D01*
X148745000Y-111619650D01*
X148690238Y-111344343D01*
X148582819Y-111085009D01*
X148426870Y-110851615D01*
X148228385Y-110653130D01*
X147994991Y-110497181D01*
X147735657Y-110389762D01*
X147460350Y-110335000D01*
X147179650Y-110335000D01*
X146904343Y-110389762D01*
X146645009Y-110497181D01*
X146411615Y-110653130D01*
X146213130Y-110851615D01*
X146057181Y-111085009D01*
X145949762Y-111344343D01*
X145895000Y-111619650D01*
X145895000Y-111900350D01*
X145949762Y-112175657D01*
X146057181Y-112434991D01*
X146213130Y-112668385D01*
X146411615Y-112866870D01*
X146645009Y-113022819D01*
X146662346Y-113030000D01*
X146645009Y-113037181D01*
X146411615Y-113193130D01*
X146213130Y-113391615D01*
X146057181Y-113625009D01*
X146050000Y-113642346D01*
X146042819Y-113625009D01*
X145886870Y-113391615D01*
X145688385Y-113193130D01*
X145454991Y-113037181D01*
X145195657Y-112929762D01*
X144920350Y-112875000D01*
X144639650Y-112875000D01*
X144364343Y-112929762D01*
X144105009Y-113037181D01*
X143871615Y-113193130D01*
X143673130Y-113391615D01*
X143659377Y-113412199D01*
X143655957Y-113377479D01*
X143620219Y-113259666D01*
X143562183Y-113151089D01*
X143484080Y-113055920D01*
X143388911Y-112977817D01*
X143365000Y-112965036D01*
X143365000Y-108140623D01*
X143409762Y-108365657D01*
X143517181Y-108624991D01*
X143673130Y-108858385D01*
X143871615Y-109056870D01*
X144105009Y-109212819D01*
X144364343Y-109320238D01*
X144639650Y-109375000D01*
X144920350Y-109375000D01*
X145195657Y-109320238D01*
X145454991Y-109212819D01*
X145688385Y-109056870D01*
X145886870Y-108858385D01*
X146042819Y-108624991D01*
X146150238Y-108365657D01*
X146205000Y-108090350D01*
X146205000Y-107809650D01*
X146150238Y-107534343D01*
X146042819Y-107275009D01*
X145886870Y-107041615D01*
X145688385Y-106843130D01*
X145534569Y-106740353D01*
X149482165Y-106740353D01*
X149525602Y-107060670D01*
X149630695Y-107366358D01*
X149726345Y-107545306D01*
X149989828Y-107643396D01*
X150953223Y-106680000D01*
X149989828Y-105716604D01*
X149726345Y-105814694D01*
X149584503Y-106105160D01*
X149502054Y-106417717D01*
X149482165Y-106740353D01*
X145534569Y-106740353D01*
X145454991Y-106687181D01*
X145195657Y-106579762D01*
X144920350Y-106525000D01*
X144639650Y-106525000D01*
X144364343Y-106579762D01*
X144105009Y-106687181D01*
X143871615Y-106843130D01*
X143673130Y-107041615D01*
X143517181Y-107275009D01*
X143409762Y-107534343D01*
X143365000Y-107759377D01*
X143365000Y-105474964D01*
X143388911Y-105462183D01*
X143484080Y-105384080D01*
X143562183Y-105288911D01*
X143620219Y-105180334D01*
X143655957Y-105062521D01*
X143668024Y-104940000D01*
X143668024Y-103340000D01*
X143655957Y-103217479D01*
X143620219Y-103099666D01*
X143562183Y-102991089D01*
X143484080Y-102895920D01*
X143388911Y-102817817D01*
X143280334Y-102759781D01*
X143165676Y-102725000D01*
X146438748Y-102725000D01*
X146645009Y-102862819D01*
X146904343Y-102970238D01*
X147179650Y-103025000D01*
X147460350Y-103025000D01*
X147735657Y-102970238D01*
X147994991Y-102862819D01*
X148228385Y-102706870D01*
X148426870Y-102508385D01*
X148582819Y-102274991D01*
X148690238Y-102015657D01*
X148745000Y-101740350D01*
X148745000Y-101459650D01*
X148690238Y-101184343D01*
X148582819Y-100925009D01*
X148426870Y-100691615D01*
X148228385Y-100493130D01*
X147994991Y-100337181D01*
X147735657Y-100229762D01*
X147460350Y-100175000D01*
X147179650Y-100175000D01*
X146904343Y-100229762D01*
X146645009Y-100337181D01*
X146438748Y-100475000D01*
X140825000Y-100475000D01*
X140825000Y-97827361D01*
X141012884Y-98015245D01*
X141328171Y-98225913D01*
X141678498Y-98371023D01*
X142050404Y-98445000D01*
X142429596Y-98445000D01*
X142801502Y-98371023D01*
X143151829Y-98225913D01*
X143467116Y-98015245D01*
X143735245Y-97747116D01*
X143945913Y-97431829D01*
X144091023Y-97081502D01*
X144165000Y-96709596D01*
X144165000Y-96330404D01*
X144100273Y-96005000D01*
X145189557Y-96005000D01*
X145189557Y-98305000D01*
X145211278Y-98525538D01*
X145275607Y-98737602D01*
X145380071Y-98933040D01*
X145520656Y-99104344D01*
X145691960Y-99244929D01*
X145887398Y-99349393D01*
X146099462Y-99413722D01*
X146320000Y-99435443D01*
X148320000Y-99435443D01*
X148540538Y-99413722D01*
X148752602Y-99349393D01*
X148948040Y-99244929D01*
X149119344Y-99104344D01*
X149259929Y-98933040D01*
X149364393Y-98737602D01*
X149428722Y-98525538D01*
X149450443Y-98305000D01*
X149450443Y-96005000D01*
X149428722Y-95784462D01*
X149364393Y-95572398D01*
X149259929Y-95376960D01*
X149119344Y-95205656D01*
X148948040Y-95065071D01*
X148920126Y-95050151D01*
X149025913Y-94891829D01*
X149171023Y-94541502D01*
X149245000Y-94169596D01*
X149245000Y-93790404D01*
X149171023Y-93418498D01*
X149025913Y-93068171D01*
X148815245Y-92752884D01*
X148547116Y-92484755D01*
X148231829Y-92274087D01*
X147881502Y-92128977D01*
X147509596Y-92055000D01*
X147130404Y-92055000D01*
X146758498Y-92128977D01*
X146408171Y-92274087D01*
X146092884Y-92484755D01*
X145824755Y-92752884D01*
X145614087Y-93068171D01*
X145468977Y-93418498D01*
X145395000Y-93790404D01*
X145395000Y-94169596D01*
X145468977Y-94541502D01*
X145614087Y-94891829D01*
X145719874Y-95050151D01*
X145691960Y-95065071D01*
X145520656Y-95205656D01*
X145380071Y-95376960D01*
X145275607Y-95572398D01*
X145211278Y-95784462D01*
X145189557Y-96005000D01*
X144100273Y-96005000D01*
X144091023Y-95958498D01*
X143945913Y-95608171D01*
X143735245Y-95292884D01*
X143467116Y-95024755D01*
X143151829Y-94814087D01*
X142801502Y-94668977D01*
X142429596Y-94595000D01*
X142050404Y-94595000D01*
X141678498Y-94668977D01*
X141328171Y-94814087D01*
X141012884Y-95024755D01*
X140825000Y-95212639D01*
X140825000Y-92765261D01*
X140826605Y-92748966D01*
X141012884Y-92935245D01*
X141328171Y-93145913D01*
X141678498Y-93291023D01*
X142050404Y-93365000D01*
X142429596Y-93365000D01*
X142801502Y-93291023D01*
X143151829Y-93145913D01*
X143467116Y-92935245D01*
X143735245Y-92667116D01*
X143945913Y-92351829D01*
X144091023Y-92001502D01*
X144165000Y-91629596D01*
X144165000Y-91250404D01*
X144091023Y-90878498D01*
X143945913Y-90528171D01*
X143735245Y-90212884D01*
X143467116Y-89944755D01*
X143151829Y-89734087D01*
X142801502Y-89588977D01*
X142429596Y-89515000D01*
X142050404Y-89515000D01*
X141678498Y-89588977D01*
X141328171Y-89734087D01*
X141012884Y-89944755D01*
X140744755Y-90212884D01*
X140534087Y-90528171D01*
X140388977Y-90878498D01*
X140315000Y-91250404D01*
X140315000Y-91629596D01*
X140340926Y-91759936D01*
X137204262Y-88623273D01*
X137469243Y-88597174D01*
X137766603Y-88506971D01*
X138040651Y-88360489D01*
X138072590Y-88334277D01*
X138223878Y-88518622D01*
X138540218Y-88778236D01*
X138901128Y-88971147D01*
X139292739Y-89089940D01*
X139700000Y-89130052D01*
X140107260Y-89089940D01*
X140498871Y-88971147D01*
X140622846Y-88904881D01*
X140659460Y-88934929D01*
X140854898Y-89039393D01*
X141066962Y-89103722D01*
X141287500Y-89125443D01*
X143192500Y-89125443D01*
X143413038Y-89103722D01*
X143625102Y-89039393D01*
X143772975Y-88960353D01*
X149482165Y-88960353D01*
X149525602Y-89280670D01*
X149630695Y-89586358D01*
X149726345Y-89765306D01*
X149989828Y-89863396D01*
X150953223Y-88900000D01*
X149989828Y-87936604D01*
X149726345Y-88034694D01*
X149584503Y-88325160D01*
X149502054Y-88637717D01*
X149482165Y-88960353D01*
X143772975Y-88960353D01*
X143820540Y-88934929D01*
X143991844Y-88794344D01*
X144132429Y-88623040D01*
X144236893Y-88427602D01*
X144301222Y-88215538D01*
X144322943Y-87995000D01*
X144322943Y-85995000D01*
X144301222Y-85774462D01*
X144236893Y-85562398D01*
X144132429Y-85366960D01*
X144007719Y-85215000D01*
X149954276Y-85215000D01*
X149855352Y-85313924D01*
M02*
