G04 #@! TF.GenerationSoftware,KiCad,Pcbnew,5.1.5-52549c5~85~ubuntu18.04.1*
G04 #@! TF.CreationDate,2020-03-29T12:36:54+00:00*
G04 #@! TF.ProjectId,PWR,5057522e-6b69-4636-9164-5f7063625858,rev?*
G04 #@! TF.SameCoordinates,Original*
G04 #@! TF.FileFunction,Other,User*
%FSLAX46Y46*%
G04 Gerber Fmt 4.6, Leading zero omitted, Abs format (unit mm)*
G04 Created by KiCad (PCBNEW 5.1.5-52549c5~85~ubuntu18.04.1) date 2020-03-29 12:36:54*
%MOMM*%
%LPD*%
G04 APERTURE LIST*
%ADD10C,0.050000*%
G04 APERTURE END LIST*
D10*
X140690000Y-123000000D02*
X140690000Y-113200000D01*
X148840000Y-123000000D02*
X140690000Y-123000000D01*
X148840000Y-113200000D02*
X148840000Y-123000000D01*
X140690000Y-113200000D02*
X148840000Y-113200000D01*
X152930000Y-126895000D02*
X149330000Y-126895000D01*
X152930000Y-123295000D02*
X152930000Y-126895000D01*
X149330000Y-123295000D02*
X152930000Y-123295000D01*
X149330000Y-126895000D02*
X149330000Y-123295000D01*
X138960000Y-126895000D02*
X135360000Y-126895000D01*
X138960000Y-123295000D02*
X138960000Y-126895000D01*
X135360000Y-123295000D02*
X138960000Y-123295000D01*
X135360000Y-126895000D02*
X135360000Y-123295000D01*
X126470000Y-128120000D02*
X152870000Y-128120000D01*
X152870000Y-128120000D02*
X152870000Y-79520000D01*
X152870000Y-79520000D02*
X126470000Y-79520000D01*
X126470000Y-79520000D02*
X126470000Y-128120000D01*
X130320000Y-126895000D02*
X136420000Y-126895000D01*
X130320000Y-123345000D02*
X130320000Y-126895000D01*
X136420000Y-123345000D02*
X130320000Y-123345000D01*
X136420000Y-126895000D02*
X136420000Y-123345000D01*
X148820000Y-100550000D02*
X148820000Y-112810000D01*
X145820000Y-100550000D02*
X148820000Y-100550000D01*
X145820000Y-112810000D02*
X145820000Y-100550000D01*
X148820000Y-112810000D02*
X145820000Y-112810000D01*
X133570000Y-109450000D02*
X133570000Y-106450000D01*
X133570000Y-106450000D02*
X145830000Y-106450000D01*
X145830000Y-106450000D02*
X145830000Y-109450000D01*
X145830000Y-109450000D02*
X133570000Y-109450000D01*
X136110000Y-92480000D02*
X148370000Y-92480000D01*
X136110000Y-95480000D02*
X136110000Y-92480000D01*
X148370000Y-95480000D02*
X136110000Y-95480000D01*
X148370000Y-92480000D02*
X148370000Y-95480000D01*
X130580000Y-111540000D02*
X130580000Y-99280000D01*
X133580000Y-111540000D02*
X130580000Y-111540000D01*
X133580000Y-99280000D02*
X133580000Y-111540000D01*
X130580000Y-99280000D02*
X133580000Y-99280000D01*
X143290000Y-92940000D02*
X131030000Y-92940000D01*
X143290000Y-89940000D02*
X143290000Y-92940000D01*
X131030000Y-89940000D02*
X143290000Y-89940000D01*
X131030000Y-92940000D02*
X131030000Y-89940000D01*
X135390000Y-95470000D02*
X135390000Y-105190000D01*
X135390000Y-95470000D02*
X144290000Y-95470000D01*
X144290000Y-105190000D02*
X135390000Y-105190000D01*
X144290000Y-105190000D02*
X144290000Y-95470000D01*
X138710000Y-113220000D02*
X138710000Y-123020000D01*
X130560000Y-113220000D02*
X138710000Y-113220000D01*
X130560000Y-123020000D02*
X130560000Y-113220000D01*
X138710000Y-123020000D02*
X130560000Y-123020000D01*
M02*
