G04 #@! TF.GenerationSoftware,KiCad,Pcbnew,5.1.5-52549c5~85~ubuntu18.04.1*
G04 #@! TF.CreationDate,2020-03-29T12:36:54+00:00*
G04 #@! TF.ProjectId,PWR,5057522e-6b69-4636-9164-5f7063625858,rev?*
G04 #@! TF.SameCoordinates,Original*
G04 #@! TF.FileFunction,Other,Fab,Top*
%FSLAX46Y46*%
G04 Gerber Fmt 4.6, Leading zero omitted, Abs format (unit mm)*
G04 Created by KiCad (PCBNEW 5.1.5-52549c5~85~ubuntu18.04.1) date 2020-03-29 12:36:54*
%MOMM*%
%LPD*%
G04 APERTURE LIST*
%ADD10C,0.100000*%
%ADD11C,0.150000*%
G04 APERTURE END LIST*
D10*
X150820000Y-98155000D02*
X149820000Y-97155000D01*
X149820000Y-97155000D02*
X150820000Y-96155000D01*
X150820000Y-96155000D02*
X150820000Y-94305000D01*
X150820000Y-98155000D02*
X150820000Y-128005000D01*
X128620000Y-94305000D02*
X150820000Y-94305000D01*
X128620000Y-128005000D02*
X150820000Y-128005000D01*
X128620000Y-94305000D02*
X128620000Y-128005000D01*
X137850000Y-90145000D02*
X137850000Y-88875000D01*
X141550000Y-90145000D02*
X141550000Y-88875000D01*
X144700000Y-88875000D02*
X134700000Y-88875000D01*
X134700000Y-90145000D02*
X144700000Y-90145000D01*
X134700000Y-85745000D02*
X134700000Y-90145000D01*
X144700000Y-85745000D02*
X134700000Y-85745000D01*
X144700000Y-90145000D02*
X144700000Y-85745000D01*
X148275000Y-79507000D02*
X146183000Y-81600000D01*
X148458000Y-79690000D02*
X146366000Y-81783000D01*
X143195000Y-79507000D02*
X141103000Y-81600000D01*
X143378000Y-79690000D02*
X141286000Y-81783000D01*
X138115000Y-79507000D02*
X136023000Y-81600000D01*
X138298000Y-79690000D02*
X136206000Y-81783000D01*
X133035000Y-79507000D02*
X130942000Y-81600000D01*
X133218000Y-79690000D02*
X131125000Y-81783000D01*
X129540000Y-78345000D02*
X149860000Y-78345000D01*
X129540000Y-83245000D02*
X149860000Y-83245000D01*
X129540000Y-84745000D02*
X149860000Y-84745000D01*
X129540000Y-84745000D02*
X129540000Y-75445000D01*
X130040000Y-85245000D02*
X129540000Y-84745000D01*
X149860000Y-85245000D02*
X130040000Y-85245000D01*
X149860000Y-75445000D02*
X149860000Y-85245000D01*
X129540000Y-75445000D02*
X149860000Y-75445000D01*
X148820000Y-80645000D02*
G75*
G03X148820000Y-80645000I-1500000J0D01*
G01*
X143740000Y-80645000D02*
G75*
G03X143740000Y-80645000I-1500000J0D01*
G01*
X138660000Y-80645000D02*
G75*
G03X138660000Y-80645000I-1500000J0D01*
G01*
X133580000Y-80645000D02*
G75*
G03X133580000Y-80645000I-1500000J0D01*
G01*
D11*
X127622380Y-116033095D02*
X126622380Y-116033095D01*
X127622380Y-114985476D02*
X127146190Y-115318809D01*
X127622380Y-115556904D02*
X126622380Y-115556904D01*
X126622380Y-115175952D01*
X126670000Y-115080714D01*
X126717619Y-115033095D01*
X126812857Y-114985476D01*
X126955714Y-114985476D01*
X127050952Y-115033095D01*
X127098571Y-115080714D01*
X127146190Y-115175952D01*
X127146190Y-115556904D01*
X127622380Y-114556904D02*
X126622380Y-114556904D01*
X127336666Y-114223571D01*
X126622380Y-113890238D01*
X127622380Y-113890238D01*
X127241428Y-113414047D02*
X127241428Y-112652142D01*
X126622380Y-111985476D02*
X126622380Y-111890238D01*
X126670000Y-111795000D01*
X126717619Y-111747380D01*
X126812857Y-111699761D01*
X127003333Y-111652142D01*
X127241428Y-111652142D01*
X127431904Y-111699761D01*
X127527142Y-111747380D01*
X127574761Y-111795000D01*
X127622380Y-111890238D01*
X127622380Y-111985476D01*
X127574761Y-112080714D01*
X127527142Y-112128333D01*
X127431904Y-112175952D01*
X127241428Y-112223571D01*
X127003333Y-112223571D01*
X126812857Y-112175952D01*
X126717619Y-112128333D01*
X126670000Y-112080714D01*
X126622380Y-111985476D01*
X126717619Y-111271190D02*
X126670000Y-111223571D01*
X126622380Y-111128333D01*
X126622380Y-110890238D01*
X126670000Y-110795000D01*
X126717619Y-110747380D01*
X126812857Y-110699761D01*
X126908095Y-110699761D01*
X127050952Y-110747380D01*
X127622380Y-111318809D01*
X127622380Y-110699761D01*
X127241428Y-110271190D02*
X127241428Y-109509285D01*
X126622380Y-108556904D02*
X126622380Y-109033095D01*
X127098571Y-109080714D01*
X127050952Y-109033095D01*
X127003333Y-108937857D01*
X127003333Y-108699761D01*
X127050952Y-108604523D01*
X127098571Y-108556904D01*
X127193809Y-108509285D01*
X127431904Y-108509285D01*
X127527142Y-108556904D01*
X127574761Y-108604523D01*
X127622380Y-108699761D01*
X127622380Y-108937857D01*
X127574761Y-109033095D01*
X127527142Y-109080714D01*
X140302380Y-112399285D02*
X139302380Y-112399285D01*
X139302380Y-112018333D01*
X139350000Y-111923095D01*
X139397619Y-111875476D01*
X139492857Y-111827857D01*
X139635714Y-111827857D01*
X139730952Y-111875476D01*
X139778571Y-111923095D01*
X139826190Y-112018333D01*
X139826190Y-112399285D01*
X140254761Y-111446904D02*
X140302380Y-111304047D01*
X140302380Y-111065952D01*
X140254761Y-110970714D01*
X140207142Y-110923095D01*
X140111904Y-110875476D01*
X140016666Y-110875476D01*
X139921428Y-110923095D01*
X139873809Y-110970714D01*
X139826190Y-111065952D01*
X139778571Y-111256428D01*
X139730952Y-111351666D01*
X139683333Y-111399285D01*
X139588095Y-111446904D01*
X139492857Y-111446904D01*
X139397619Y-111399285D01*
X139350000Y-111351666D01*
X139302380Y-111256428D01*
X139302380Y-111018333D01*
X139350000Y-110875476D01*
X140302380Y-109923095D02*
X140302380Y-110494523D01*
X140302380Y-110208809D02*
X139302380Y-110208809D01*
X139445238Y-110304047D01*
X139540476Y-110399285D01*
X139588095Y-110494523D01*
X146772380Y-91352380D02*
X146772380Y-90780952D01*
X147772380Y-91066666D02*
X146772380Y-91066666D01*
X147772380Y-90447619D02*
X146772380Y-90447619D01*
X147677142Y-89400000D02*
X147724761Y-89447619D01*
X147772380Y-89590476D01*
X147772380Y-89685714D01*
X147724761Y-89828571D01*
X147629523Y-89923809D01*
X147534285Y-89971428D01*
X147343809Y-90019047D01*
X147200952Y-90019047D01*
X147010476Y-89971428D01*
X146915238Y-89923809D01*
X146820000Y-89828571D01*
X146772380Y-89685714D01*
X146772380Y-89590476D01*
X146820000Y-89447619D01*
X146867619Y-89400000D01*
X146867619Y-89019047D02*
X146820000Y-88971428D01*
X146772380Y-88876190D01*
X146772380Y-88638095D01*
X146820000Y-88542857D01*
X146867619Y-88495238D01*
X146962857Y-88447619D01*
X147058095Y-88447619D01*
X147200952Y-88495238D01*
X147772380Y-89066666D01*
X147772380Y-88447619D01*
X146772380Y-87828571D02*
X146772380Y-87733333D01*
X146820000Y-87638095D01*
X146867619Y-87590476D01*
X146962857Y-87542857D01*
X147153333Y-87495238D01*
X147391428Y-87495238D01*
X147581904Y-87542857D01*
X147677142Y-87590476D01*
X147724761Y-87638095D01*
X147772380Y-87733333D01*
X147772380Y-87828571D01*
X147724761Y-87923809D01*
X147677142Y-87971428D01*
X147581904Y-88019047D01*
X147391428Y-88066666D01*
X147153333Y-88066666D01*
X146962857Y-88019047D01*
X146867619Y-87971428D01*
X146820000Y-87923809D01*
X146772380Y-87828571D01*
X146772380Y-86638095D02*
X146772380Y-86828571D01*
X146820000Y-86923809D01*
X146867619Y-86971428D01*
X147010476Y-87066666D01*
X147200952Y-87114285D01*
X147581904Y-87114285D01*
X147677142Y-87066666D01*
X147724761Y-87019047D01*
X147772380Y-86923809D01*
X147772380Y-86733333D01*
X147724761Y-86638095D01*
X147677142Y-86590476D01*
X147581904Y-86542857D01*
X147343809Y-86542857D01*
X147248571Y-86590476D01*
X147200952Y-86638095D01*
X147153333Y-86733333D01*
X147153333Y-86923809D01*
X147200952Y-87019047D01*
X147248571Y-87066666D01*
X147343809Y-87114285D01*
X145954761Y-87542619D02*
X145859523Y-87495000D01*
X145764285Y-87399761D01*
X145621428Y-87256904D01*
X145526190Y-87209285D01*
X145430952Y-87209285D01*
X145478571Y-87447380D02*
X145383333Y-87399761D01*
X145288095Y-87304523D01*
X145240476Y-87114047D01*
X145240476Y-86780714D01*
X145288095Y-86590238D01*
X145383333Y-86495000D01*
X145478571Y-86447380D01*
X145669047Y-86447380D01*
X145764285Y-86495000D01*
X145859523Y-86590238D01*
X145907142Y-86780714D01*
X145907142Y-87114047D01*
X145859523Y-87304523D01*
X145764285Y-87399761D01*
X145669047Y-87447380D01*
X145478571Y-87447380D01*
X146859523Y-87447380D02*
X146288095Y-87447380D01*
X146573809Y-87447380D02*
X146573809Y-86447380D01*
X146478571Y-86590238D01*
X146383333Y-86685476D01*
X146288095Y-86733095D01*
X128603333Y-81192619D02*
X128603333Y-80478333D01*
X128650952Y-80335476D01*
X128746190Y-80240238D01*
X128889047Y-80192619D01*
X128984285Y-80192619D01*
X127603333Y-80192619D02*
X128174761Y-80192619D01*
X127889047Y-80192619D02*
X127889047Y-81192619D01*
X127984285Y-81049761D01*
X128079523Y-80954523D01*
X128174761Y-80906904D01*
M02*
