%FSLAX45Y45*%
G04 Gerber Fmt 4.5, Leading zero omitted, Abs format (unit mm)*
G04 Created by KiCad (PCBNEW 5.1.5-52549c5~86~ubuntu18.04.1) date 2020-03-29 17:49:02*
%MOMM*%
%LPD*%
G04 APERTURE LIST*
%TA.AperFunction,Profile*%
%ADD10C,0.120000*%
%TD*%
%ADD11C,0.200000*%
%ADD12C,0.300000*%
G04 APERTURE END LIST*
D10*
X15303500Y-12700000D02*
G75*
G02X15176500Y-12827000I-127000J0D01*
G01*
X12636500Y-7620000D02*
G75*
G02X12763500Y-7493000I127000J0D01*
G01*
X12763500Y-12827000D02*
G75*
G02X12636500Y-12700000I0J127000D01*
G01*
X15176500Y-7493000D02*
G75*
G02X15303500Y-7620000I0J-127000D01*
G01*
X12636500Y-7620000D02*
X12636500Y-12700000D01*
X15176500Y-7493000D02*
X12763500Y-7493000D01*
X15303500Y-12700000D02*
X15303500Y-7620000D01*
X12763500Y-12827000D02*
X15176500Y-12827000D01*
D11*
D12*
X12916928Y-13298714D02*
X12916928Y-12998714D01*
X12988357Y-12998714D01*
X13031214Y-13013000D01*
X13059786Y-13041571D01*
X13074071Y-13070143D01*
X13088357Y-13127286D01*
X13088357Y-13170143D01*
X13074071Y-13227286D01*
X13059786Y-13255857D01*
X13031214Y-13284429D01*
X12988357Y-13298714D01*
X12916928Y-13298714D01*
X13216928Y-13298714D02*
X13216928Y-13098714D01*
X13216928Y-13155857D02*
X13231214Y-13127286D01*
X13245500Y-13113000D01*
X13274071Y-13098714D01*
X13302643Y-13098714D01*
X13402643Y-13298714D02*
X13402643Y-13098714D01*
X13402643Y-12998714D02*
X13388357Y-13013000D01*
X13402643Y-13027286D01*
X13416928Y-13013000D01*
X13402643Y-12998714D01*
X13402643Y-13027286D01*
X13588357Y-13298714D02*
X13559786Y-13284429D01*
X13545500Y-13255857D01*
X13545500Y-12998714D01*
X13745500Y-13298714D02*
X13716928Y-13284429D01*
X13702643Y-13255857D01*
X13702643Y-12998714D01*
X14088357Y-13298714D02*
X14088357Y-12998714D01*
X14188357Y-13213000D01*
X14288357Y-12998714D01*
X14288357Y-13298714D01*
X14559786Y-13298714D02*
X14559786Y-13141571D01*
X14545500Y-13113000D01*
X14516928Y-13098714D01*
X14459786Y-13098714D01*
X14431214Y-13113000D01*
X14559786Y-13284429D02*
X14531214Y-13298714D01*
X14459786Y-13298714D01*
X14431214Y-13284429D01*
X14416928Y-13255857D01*
X14416928Y-13227286D01*
X14431214Y-13198714D01*
X14459786Y-13184429D01*
X14531214Y-13184429D01*
X14559786Y-13170143D01*
X14702643Y-13098714D02*
X14702643Y-13398714D01*
X14702643Y-13113000D02*
X14731214Y-13098714D01*
X14788357Y-13098714D01*
X14816928Y-13113000D01*
X14831214Y-13127286D01*
X14845500Y-13155857D01*
X14845500Y-13241571D01*
X14831214Y-13270143D01*
X14816928Y-13284429D01*
X14788357Y-13298714D01*
X14731214Y-13298714D01*
X14702643Y-13284429D01*
X14974071Y-13270143D02*
X14988357Y-13284429D01*
X14974071Y-13298714D01*
X14959786Y-13284429D01*
X14974071Y-13270143D01*
X14974071Y-13298714D01*
X14974071Y-13113000D02*
X14988357Y-13127286D01*
X14974071Y-13141571D01*
X14959786Y-13127286D01*
X14974071Y-13113000D01*
X14974071Y-13141571D01*
M02*
