G04 #@! TF.GenerationSoftware,KiCad,Pcbnew,5.1.5-52549c5~85~ubuntu18.04.1*
G04 #@! TF.CreationDate,2020-03-29T12:36:54+00:00*
G04 #@! TF.ProjectId,PWR,5057522e-6b69-4636-9164-5f7063625858,rev?*
G04 #@! TF.SameCoordinates,Original*
G04 #@! TF.FileFunction,Other,Fab,Bot*
%FSLAX46Y46*%
G04 Gerber Fmt 4.6, Leading zero omitted, Abs format (unit mm)*
G04 Created by KiCad (PCBNEW 5.1.5-52549c5~85~ubuntu18.04.1) date 2020-03-29 12:36:54*
%MOMM*%
%LPD*%
G04 APERTURE LIST*
%ADD10C,0.100000*%
%ADD11C,0.150000*%
G04 APERTURE END LIST*
D10*
X141970000Y-114935000D02*
X140970000Y-115935000D01*
X148590000Y-114935000D02*
X141970000Y-114935000D01*
X148590000Y-121285000D02*
X148590000Y-114935000D01*
X140970000Y-121285000D02*
X148590000Y-121285000D01*
X140970000Y-115935000D02*
X140970000Y-121285000D01*
X149860000Y-125730000D02*
X150495000Y-126365000D01*
X149860000Y-123825000D02*
X149860000Y-125730000D01*
X152400000Y-123825000D02*
X149860000Y-123825000D01*
X152400000Y-126365000D02*
X152400000Y-123825000D01*
X150495000Y-126365000D02*
X152400000Y-126365000D01*
X135890000Y-125730000D02*
X136525000Y-126365000D01*
X135890000Y-123825000D02*
X135890000Y-125730000D01*
X138430000Y-123825000D02*
X135890000Y-123825000D01*
X138430000Y-126365000D02*
X138430000Y-123825000D01*
X136525000Y-126365000D02*
X138430000Y-126365000D01*
X128143000Y-128016000D02*
X127127000Y-127000000D01*
X152273000Y-128016000D02*
X128143000Y-128016000D01*
X152273000Y-79756000D02*
X152273000Y-128016000D01*
X127127000Y-79756000D02*
X152273000Y-79756000D01*
X127127000Y-127000000D02*
X127127000Y-79756000D01*
X130810000Y-126365000D02*
X135890000Y-126365000D01*
X130810000Y-123825000D02*
X130810000Y-126365000D01*
X135255000Y-123825000D02*
X130810000Y-123825000D01*
X135890000Y-124460000D02*
X135255000Y-123825000D01*
X135890000Y-126365000D02*
X135890000Y-124460000D01*
X147320000Y-101600000D02*
X147320000Y-103530000D01*
X147320000Y-111760000D02*
X147320000Y-109830000D01*
X148570000Y-103530000D02*
X148570000Y-109830000D01*
X146070000Y-103530000D02*
X148570000Y-103530000D01*
X146070000Y-109830000D02*
X146070000Y-103530000D01*
X148570000Y-109830000D02*
X146070000Y-109830000D01*
X136550000Y-109200000D02*
X136550000Y-106700000D01*
X136550000Y-106700000D02*
X142850000Y-106700000D01*
X142850000Y-106700000D02*
X142850000Y-109200000D01*
X142850000Y-109200000D02*
X136550000Y-109200000D01*
X134620000Y-107950000D02*
X136550000Y-107950000D01*
X144780000Y-107950000D02*
X142850000Y-107950000D01*
X137160000Y-93980000D02*
X139090000Y-93980000D01*
X147320000Y-93980000D02*
X145390000Y-93980000D01*
X139090000Y-92730000D02*
X145390000Y-92730000D01*
X139090000Y-95230000D02*
X139090000Y-92730000D01*
X145390000Y-95230000D02*
X139090000Y-95230000D01*
X145390000Y-92730000D02*
X145390000Y-95230000D01*
X132080000Y-110490000D02*
X132080000Y-108560000D01*
X132080000Y-100330000D02*
X132080000Y-102260000D01*
X130830000Y-108560000D02*
X130830000Y-102260000D01*
X133330000Y-108560000D02*
X130830000Y-108560000D01*
X133330000Y-102260000D02*
X133330000Y-108560000D01*
X130830000Y-102260000D02*
X133330000Y-102260000D01*
X142240000Y-91440000D02*
X140310000Y-91440000D01*
X132080000Y-91440000D02*
X134010000Y-91440000D01*
X140310000Y-92690000D02*
X134010000Y-92690000D01*
X140310000Y-90190000D02*
X140310000Y-92690000D01*
X134010000Y-90190000D02*
X140310000Y-90190000D01*
X134010000Y-92690000D02*
X134010000Y-90190000D01*
X144040000Y-102505000D02*
X144040000Y-97155000D01*
X144040000Y-97155000D02*
X135640000Y-97155000D01*
X135640000Y-97155000D02*
X135640000Y-103505000D01*
X135640000Y-103505000D02*
X143040000Y-103505000D01*
X143040000Y-103505000D02*
X144040000Y-102505000D01*
X137430000Y-121285000D02*
X138430000Y-120285000D01*
X130810000Y-121285000D02*
X137430000Y-121285000D01*
X130810000Y-114935000D02*
X130810000Y-121285000D01*
X138430000Y-114935000D02*
X130810000Y-114935000D01*
X138430000Y-120285000D02*
X138430000Y-114935000D01*
D11*
X149435714Y-116824285D02*
X150102380Y-116824285D01*
X149054761Y-116586190D02*
X149769047Y-116348095D01*
X149769047Y-116967142D01*
X150102380Y-117348095D02*
X149102380Y-117348095D01*
X150102380Y-117919523D01*
X149102380Y-117919523D01*
X149197619Y-118348095D02*
X149150000Y-118395714D01*
X149102380Y-118490952D01*
X149102380Y-118729047D01*
X149150000Y-118824285D01*
X149197619Y-118871904D01*
X149292857Y-118919523D01*
X149388095Y-118919523D01*
X149530952Y-118871904D01*
X150102380Y-118300476D01*
X150102380Y-118919523D01*
X149102380Y-119824285D02*
X149102380Y-119348095D01*
X149578571Y-119300476D01*
X149530952Y-119348095D01*
X149483333Y-119443333D01*
X149483333Y-119681428D01*
X149530952Y-119776666D01*
X149578571Y-119824285D01*
X149673809Y-119871904D01*
X149911904Y-119871904D01*
X150007142Y-119824285D01*
X150054761Y-119776666D01*
X150102380Y-119681428D01*
X150102380Y-119443333D01*
X150054761Y-119348095D01*
X150007142Y-119300476D01*
X144232380Y-117348095D02*
X145041904Y-117348095D01*
X145137142Y-117395714D01*
X145184761Y-117443333D01*
X145232380Y-117538571D01*
X145232380Y-117729047D01*
X145184761Y-117824285D01*
X145137142Y-117871904D01*
X145041904Y-117919523D01*
X144232380Y-117919523D01*
X144327619Y-118348095D02*
X144280000Y-118395714D01*
X144232380Y-118490952D01*
X144232380Y-118729047D01*
X144280000Y-118824285D01*
X144327619Y-118871904D01*
X144422857Y-118919523D01*
X144518095Y-118919523D01*
X144660952Y-118871904D01*
X145232380Y-118300476D01*
X145232380Y-118919523D01*
X154868095Y-123122142D02*
X154915714Y-123169761D01*
X155058571Y-123217380D01*
X155153809Y-123217380D01*
X155296666Y-123169761D01*
X155391904Y-123074523D01*
X155439523Y-122979285D01*
X155487142Y-122788809D01*
X155487142Y-122645952D01*
X155439523Y-122455476D01*
X155391904Y-122360238D01*
X155296666Y-122265000D01*
X155153809Y-122217380D01*
X155058571Y-122217380D01*
X154915714Y-122265000D01*
X154868095Y-122312619D01*
X154296666Y-123217380D02*
X154391904Y-123169761D01*
X154439523Y-123122142D01*
X154487142Y-123026904D01*
X154487142Y-122741190D01*
X154439523Y-122645952D01*
X154391904Y-122598333D01*
X154296666Y-122550714D01*
X154153809Y-122550714D01*
X154058571Y-122598333D01*
X154010952Y-122645952D01*
X153963333Y-122741190D01*
X153963333Y-123026904D01*
X154010952Y-123122142D01*
X154058571Y-123169761D01*
X154153809Y-123217380D01*
X154296666Y-123217380D01*
X153534761Y-122550714D02*
X153534761Y-123217380D01*
X153534761Y-122645952D02*
X153487142Y-122598333D01*
X153391904Y-122550714D01*
X153249047Y-122550714D01*
X153153809Y-122598333D01*
X153106190Y-122693571D01*
X153106190Y-123217380D01*
X152630000Y-122550714D02*
X152630000Y-123217380D01*
X152630000Y-122645952D02*
X152582380Y-122598333D01*
X152487142Y-122550714D01*
X152344285Y-122550714D01*
X152249047Y-122598333D01*
X152201428Y-122693571D01*
X152201428Y-123217380D01*
X151963333Y-123312619D02*
X151201428Y-123312619D01*
X150772857Y-122217380D02*
X150677619Y-122217380D01*
X150582380Y-122265000D01*
X150534761Y-122312619D01*
X150487142Y-122407857D01*
X150439523Y-122598333D01*
X150439523Y-122836428D01*
X150487142Y-123026904D01*
X150534761Y-123122142D01*
X150582380Y-123169761D01*
X150677619Y-123217380D01*
X150772857Y-123217380D01*
X150868095Y-123169761D01*
X150915714Y-123122142D01*
X150963333Y-123026904D01*
X151010952Y-122836428D01*
X151010952Y-122598333D01*
X150963333Y-122407857D01*
X150915714Y-122312619D01*
X150868095Y-122265000D01*
X150772857Y-122217380D01*
X149487142Y-123217380D02*
X150058571Y-123217380D01*
X149772857Y-123217380D02*
X149772857Y-122217380D01*
X149868095Y-122360238D01*
X149963333Y-122455476D01*
X150058571Y-122503095D01*
X149153809Y-123217380D02*
X148630000Y-122550714D01*
X149153809Y-122550714D02*
X148630000Y-123217380D01*
X148058571Y-122217380D02*
X147963333Y-122217380D01*
X147868095Y-122265000D01*
X147820476Y-122312619D01*
X147772857Y-122407857D01*
X147725238Y-122598333D01*
X147725238Y-122836428D01*
X147772857Y-123026904D01*
X147820476Y-123122142D01*
X147868095Y-123169761D01*
X147963333Y-123217380D01*
X148058571Y-123217380D01*
X148153809Y-123169761D01*
X148201428Y-123122142D01*
X148249047Y-123026904D01*
X148296666Y-122836428D01*
X148296666Y-122598333D01*
X148249047Y-122407857D01*
X148201428Y-122312619D01*
X148153809Y-122265000D01*
X148058571Y-122217380D01*
X146772857Y-123217380D02*
X147344285Y-123217380D01*
X147058571Y-123217380D02*
X147058571Y-122217380D01*
X147153809Y-122360238D01*
X147249047Y-122455476D01*
X147344285Y-122503095D01*
X151677619Y-125428333D02*
X150963333Y-125428333D01*
X150820476Y-125475952D01*
X150725238Y-125571190D01*
X150677619Y-125714047D01*
X150677619Y-125809285D01*
X151582380Y-124999761D02*
X151630000Y-124952142D01*
X151677619Y-124856904D01*
X151677619Y-124618809D01*
X151630000Y-124523571D01*
X151582380Y-124475952D01*
X151487142Y-124428333D01*
X151391904Y-124428333D01*
X151249047Y-124475952D01*
X150677619Y-125047380D01*
X150677619Y-124428333D01*
X140898095Y-123122142D02*
X140945714Y-123169761D01*
X141088571Y-123217380D01*
X141183809Y-123217380D01*
X141326666Y-123169761D01*
X141421904Y-123074523D01*
X141469523Y-122979285D01*
X141517142Y-122788809D01*
X141517142Y-122645952D01*
X141469523Y-122455476D01*
X141421904Y-122360238D01*
X141326666Y-122265000D01*
X141183809Y-122217380D01*
X141088571Y-122217380D01*
X140945714Y-122265000D01*
X140898095Y-122312619D01*
X140326666Y-123217380D02*
X140421904Y-123169761D01*
X140469523Y-123122142D01*
X140517142Y-123026904D01*
X140517142Y-122741190D01*
X140469523Y-122645952D01*
X140421904Y-122598333D01*
X140326666Y-122550714D01*
X140183809Y-122550714D01*
X140088571Y-122598333D01*
X140040952Y-122645952D01*
X139993333Y-122741190D01*
X139993333Y-123026904D01*
X140040952Y-123122142D01*
X140088571Y-123169761D01*
X140183809Y-123217380D01*
X140326666Y-123217380D01*
X139564761Y-122550714D02*
X139564761Y-123217380D01*
X139564761Y-122645952D02*
X139517142Y-122598333D01*
X139421904Y-122550714D01*
X139279047Y-122550714D01*
X139183809Y-122598333D01*
X139136190Y-122693571D01*
X139136190Y-123217380D01*
X138660000Y-122550714D02*
X138660000Y-123217380D01*
X138660000Y-122645952D02*
X138612380Y-122598333D01*
X138517142Y-122550714D01*
X138374285Y-122550714D01*
X138279047Y-122598333D01*
X138231428Y-122693571D01*
X138231428Y-123217380D01*
X137993333Y-123312619D02*
X137231428Y-123312619D01*
X136802857Y-122217380D02*
X136707619Y-122217380D01*
X136612380Y-122265000D01*
X136564761Y-122312619D01*
X136517142Y-122407857D01*
X136469523Y-122598333D01*
X136469523Y-122836428D01*
X136517142Y-123026904D01*
X136564761Y-123122142D01*
X136612380Y-123169761D01*
X136707619Y-123217380D01*
X136802857Y-123217380D01*
X136898095Y-123169761D01*
X136945714Y-123122142D01*
X136993333Y-123026904D01*
X137040952Y-122836428D01*
X137040952Y-122598333D01*
X136993333Y-122407857D01*
X136945714Y-122312619D01*
X136898095Y-122265000D01*
X136802857Y-122217380D01*
X135517142Y-123217380D02*
X136088571Y-123217380D01*
X135802857Y-123217380D02*
X135802857Y-122217380D01*
X135898095Y-122360238D01*
X135993333Y-122455476D01*
X136088571Y-122503095D01*
X135183809Y-123217380D02*
X134660000Y-122550714D01*
X135183809Y-122550714D02*
X134660000Y-123217380D01*
X134088571Y-122217380D02*
X133993333Y-122217380D01*
X133898095Y-122265000D01*
X133850476Y-122312619D01*
X133802857Y-122407857D01*
X133755238Y-122598333D01*
X133755238Y-122836428D01*
X133802857Y-123026904D01*
X133850476Y-123122142D01*
X133898095Y-123169761D01*
X133993333Y-123217380D01*
X134088571Y-123217380D01*
X134183809Y-123169761D01*
X134231428Y-123122142D01*
X134279047Y-123026904D01*
X134326666Y-122836428D01*
X134326666Y-122598333D01*
X134279047Y-122407857D01*
X134231428Y-122312619D01*
X134183809Y-122265000D01*
X134088571Y-122217380D01*
X132802857Y-123217380D02*
X133374285Y-123217380D01*
X133088571Y-123217380D02*
X133088571Y-122217380D01*
X133183809Y-122360238D01*
X133279047Y-122455476D01*
X133374285Y-122503095D01*
X137707619Y-125428333D02*
X136993333Y-125428333D01*
X136850476Y-125475952D01*
X136755238Y-125571190D01*
X136707619Y-125714047D01*
X136707619Y-125809285D01*
X137707619Y-124475952D02*
X137707619Y-124952142D01*
X137231428Y-124999761D01*
X137279047Y-124952142D01*
X137326666Y-124856904D01*
X137326666Y-124618809D01*
X137279047Y-124523571D01*
X137231428Y-124475952D01*
X137136190Y-124428333D01*
X136898095Y-124428333D01*
X136802857Y-124475952D01*
X136755238Y-124523571D01*
X136707619Y-124618809D01*
X136707619Y-124856904D01*
X136755238Y-124952142D01*
X136802857Y-124999761D01*
X148223809Y-104592380D02*
X148223809Y-103592380D01*
X147652380Y-104592380D01*
X147652380Y-103592380D01*
X147033333Y-104592380D02*
X147128571Y-104544761D01*
X147176190Y-104497142D01*
X147223809Y-104401904D01*
X147223809Y-104116190D01*
X147176190Y-104020952D01*
X147128571Y-103973333D01*
X147033333Y-103925714D01*
X146890476Y-103925714D01*
X146795238Y-103973333D01*
X146747619Y-104020952D01*
X146700000Y-104116190D01*
X146700000Y-104401904D01*
X146747619Y-104497142D01*
X146795238Y-104544761D01*
X146890476Y-104592380D01*
X147033333Y-104592380D01*
X145842857Y-104592380D02*
X145842857Y-103592380D01*
X145842857Y-104544761D02*
X145938095Y-104592380D01*
X146128571Y-104592380D01*
X146223809Y-104544761D01*
X146271428Y-104497142D01*
X146319047Y-104401904D01*
X146319047Y-104116190D01*
X146271428Y-104020952D01*
X146223809Y-103973333D01*
X146128571Y-103925714D01*
X145938095Y-103925714D01*
X145842857Y-103973333D01*
X144985714Y-104544761D02*
X145080952Y-104592380D01*
X145271428Y-104592380D01*
X145366666Y-104544761D01*
X145414285Y-104449523D01*
X145414285Y-104068571D01*
X145366666Y-103973333D01*
X145271428Y-103925714D01*
X145080952Y-103925714D01*
X144985714Y-103973333D01*
X144938095Y-104068571D01*
X144938095Y-104163809D01*
X145414285Y-104259047D01*
X144509523Y-104592380D02*
X144509523Y-103592380D01*
X144176190Y-104306666D01*
X143842857Y-103592380D01*
X143842857Y-104592380D01*
X142795238Y-104497142D02*
X142842857Y-104544761D01*
X142985714Y-104592380D01*
X143080952Y-104592380D01*
X143223809Y-104544761D01*
X143319047Y-104449523D01*
X143366666Y-104354285D01*
X143414285Y-104163809D01*
X143414285Y-104020952D01*
X143366666Y-103830476D01*
X143319047Y-103735238D01*
X143223809Y-103640000D01*
X143080952Y-103592380D01*
X142985714Y-103592380D01*
X142842857Y-103640000D01*
X142795238Y-103687619D01*
X142366666Y-103592380D02*
X142366666Y-104401904D01*
X142319047Y-104497142D01*
X142271428Y-104544761D01*
X142176190Y-104592380D01*
X141985714Y-104592380D01*
X141890476Y-104544761D01*
X141842857Y-104497142D01*
X141795238Y-104401904D01*
X141795238Y-103592380D01*
X140795238Y-104592380D02*
X141366666Y-104592380D01*
X141080952Y-104592380D02*
X141080952Y-103592380D01*
X141176190Y-103735238D01*
X141271428Y-103830476D01*
X141366666Y-103878095D01*
X140366666Y-104497142D02*
X140319047Y-104544761D01*
X140366666Y-104592380D01*
X140414285Y-104544761D01*
X140366666Y-104497142D01*
X140366666Y-104592380D01*
X139700000Y-103592380D02*
X139604761Y-103592380D01*
X139509523Y-103640000D01*
X139461904Y-103687619D01*
X139414285Y-103782857D01*
X139366666Y-103973333D01*
X139366666Y-104211428D01*
X139414285Y-104401904D01*
X139461904Y-104497142D01*
X139509523Y-104544761D01*
X139604761Y-104592380D01*
X139700000Y-104592380D01*
X139795238Y-104544761D01*
X139842857Y-104497142D01*
X139890476Y-104401904D01*
X139938095Y-104211428D01*
X139938095Y-103973333D01*
X139890476Y-103782857D01*
X139842857Y-103687619D01*
X139795238Y-103640000D01*
X139700000Y-103592380D01*
X138652380Y-104973333D02*
X138700000Y-104925714D01*
X138795238Y-104782857D01*
X138842857Y-104687619D01*
X138890476Y-104544761D01*
X138938095Y-104306666D01*
X138938095Y-104116190D01*
X138890476Y-103878095D01*
X138842857Y-103735238D01*
X138795238Y-103640000D01*
X138700000Y-103497142D01*
X138652380Y-103449523D01*
X138271428Y-104068571D02*
X137938095Y-104068571D01*
X137795238Y-104592380D02*
X138271428Y-104592380D01*
X138271428Y-103592380D01*
X137795238Y-103592380D01*
X137414285Y-104544761D02*
X137271428Y-104592380D01*
X137033333Y-104592380D01*
X136938095Y-104544761D01*
X136890476Y-104497142D01*
X136842857Y-104401904D01*
X136842857Y-104306666D01*
X136890476Y-104211428D01*
X136938095Y-104163809D01*
X137033333Y-104116190D01*
X137223809Y-104068571D01*
X137319047Y-104020952D01*
X137366666Y-103973333D01*
X137414285Y-103878095D01*
X137414285Y-103782857D01*
X137366666Y-103687619D01*
X137319047Y-103640000D01*
X137223809Y-103592380D01*
X136985714Y-103592380D01*
X136842857Y-103640000D01*
X136414285Y-104592380D02*
X136414285Y-103592380D01*
X136033333Y-103592380D01*
X135938095Y-103640000D01*
X135890476Y-103687619D01*
X135842857Y-103782857D01*
X135842857Y-103925714D01*
X135890476Y-104020952D01*
X135938095Y-104068571D01*
X136033333Y-104116190D01*
X136414285Y-104116190D01*
X135414285Y-104211428D02*
X134652380Y-104211428D01*
X133652380Y-104592380D02*
X134223809Y-104592380D01*
X133938095Y-104592380D02*
X133938095Y-103592380D01*
X134033333Y-103735238D01*
X134128571Y-103830476D01*
X134223809Y-103878095D01*
X133271428Y-103687619D02*
X133223809Y-103640000D01*
X133128571Y-103592380D01*
X132890476Y-103592380D01*
X132795238Y-103640000D01*
X132747619Y-103687619D01*
X132700000Y-103782857D01*
X132700000Y-103878095D01*
X132747619Y-104020952D01*
X133319047Y-104592380D01*
X132700000Y-104592380D01*
X132271428Y-104068571D02*
X131938095Y-104068571D01*
X131795238Y-104592380D02*
X132271428Y-104592380D01*
X132271428Y-103592380D01*
X131795238Y-103592380D01*
X131461904Y-104973333D02*
X131414285Y-104925714D01*
X131319047Y-104782857D01*
X131271428Y-104687619D01*
X131223809Y-104544761D01*
X131176190Y-104306666D01*
X131176190Y-104116190D01*
X131223809Y-103878095D01*
X131271428Y-103735238D01*
X131319047Y-103640000D01*
X131414285Y-103497142D01*
X131461904Y-103449523D01*
X140461904Y-106132380D02*
X140461904Y-106941904D01*
X140414285Y-107037142D01*
X140366666Y-107084761D01*
X140271428Y-107132380D01*
X140080952Y-107132380D01*
X139985714Y-107084761D01*
X139938095Y-107037142D01*
X139890476Y-106941904D01*
X139890476Y-106132380D01*
X139509523Y-106132380D02*
X138890476Y-106132380D01*
X139223809Y-106513333D01*
X139080952Y-106513333D01*
X138985714Y-106560952D01*
X138938095Y-106608571D01*
X138890476Y-106703809D01*
X138890476Y-106941904D01*
X138938095Y-107037142D01*
X138985714Y-107084761D01*
X139080952Y-107132380D01*
X139366666Y-107132380D01*
X139461904Y-107084761D01*
X139509523Y-107037142D01*
X129667142Y-121356904D02*
X129714761Y-121309285D01*
X129762380Y-121166428D01*
X129762380Y-121071190D01*
X129714761Y-120928333D01*
X129619523Y-120833095D01*
X129524285Y-120785476D01*
X129333809Y-120737857D01*
X129190952Y-120737857D01*
X129000476Y-120785476D01*
X128905238Y-120833095D01*
X128810000Y-120928333D01*
X128762380Y-121071190D01*
X128762380Y-121166428D01*
X128810000Y-121309285D01*
X128857619Y-121356904D01*
X129762380Y-121928333D02*
X129714761Y-121833095D01*
X129667142Y-121785476D01*
X129571904Y-121737857D01*
X129286190Y-121737857D01*
X129190952Y-121785476D01*
X129143333Y-121833095D01*
X129095714Y-121928333D01*
X129095714Y-122071190D01*
X129143333Y-122166428D01*
X129190952Y-122214047D01*
X129286190Y-122261666D01*
X129571904Y-122261666D01*
X129667142Y-122214047D01*
X129714761Y-122166428D01*
X129762380Y-122071190D01*
X129762380Y-121928333D01*
X129095714Y-122690238D02*
X129762380Y-122690238D01*
X129190952Y-122690238D02*
X129143333Y-122737857D01*
X129095714Y-122833095D01*
X129095714Y-122975952D01*
X129143333Y-123071190D01*
X129238571Y-123118809D01*
X129762380Y-123118809D01*
X129095714Y-123595000D02*
X129762380Y-123595000D01*
X129190952Y-123595000D02*
X129143333Y-123642619D01*
X129095714Y-123737857D01*
X129095714Y-123880714D01*
X129143333Y-123975952D01*
X129238571Y-124023571D01*
X129762380Y-124023571D01*
X129857619Y-124261666D02*
X129857619Y-125023571D01*
X128762380Y-125452142D02*
X128762380Y-125547380D01*
X128810000Y-125642619D01*
X128857619Y-125690238D01*
X128952857Y-125737857D01*
X129143333Y-125785476D01*
X129381428Y-125785476D01*
X129571904Y-125737857D01*
X129667142Y-125690238D01*
X129714761Y-125642619D01*
X129762380Y-125547380D01*
X129762380Y-125452142D01*
X129714761Y-125356904D01*
X129667142Y-125309285D01*
X129571904Y-125261666D01*
X129381428Y-125214047D01*
X129143333Y-125214047D01*
X128952857Y-125261666D01*
X128857619Y-125309285D01*
X128810000Y-125356904D01*
X128762380Y-125452142D01*
X129762380Y-126737857D02*
X129762380Y-126166428D01*
X129762380Y-126452142D02*
X128762380Y-126452142D01*
X128905238Y-126356904D01*
X129000476Y-126261666D01*
X129048095Y-126166428D01*
X129762380Y-127071190D02*
X129095714Y-127595000D01*
X129095714Y-127071190D02*
X129762380Y-127595000D01*
X128762380Y-128166428D02*
X128762380Y-128261666D01*
X128810000Y-128356904D01*
X128857619Y-128404523D01*
X128952857Y-128452142D01*
X129143333Y-128499761D01*
X129381428Y-128499761D01*
X129571904Y-128452142D01*
X129667142Y-128404523D01*
X129714761Y-128356904D01*
X129762380Y-128261666D01*
X129762380Y-128166428D01*
X129714761Y-128071190D01*
X129667142Y-128023571D01*
X129571904Y-127975952D01*
X129381428Y-127928333D01*
X129143333Y-127928333D01*
X128952857Y-127975952D01*
X128857619Y-128023571D01*
X128810000Y-128071190D01*
X128762380Y-128166428D01*
X128857619Y-128880714D02*
X128810000Y-128928333D01*
X128762380Y-129023571D01*
X128762380Y-129261666D01*
X128810000Y-129356904D01*
X128857619Y-129404523D01*
X128952857Y-129452142D01*
X129048095Y-129452142D01*
X129190952Y-129404523D01*
X129762380Y-128833095D01*
X129762380Y-129452142D01*
X133683333Y-124547380D02*
X133683333Y-125261666D01*
X133730952Y-125404523D01*
X133826190Y-125499761D01*
X133969047Y-125547380D01*
X134064285Y-125547380D01*
X133302380Y-124547380D02*
X132683333Y-124547380D01*
X133016666Y-124928333D01*
X132873809Y-124928333D01*
X132778571Y-124975952D01*
X132730952Y-125023571D01*
X132683333Y-125118809D01*
X132683333Y-125356904D01*
X132730952Y-125452142D01*
X132778571Y-125499761D01*
X132873809Y-125547380D01*
X133159523Y-125547380D01*
X133254761Y-125499761D01*
X133302380Y-125452142D01*
X145402380Y-106989523D02*
X144926190Y-106656190D01*
X145402380Y-106418095D02*
X144402380Y-106418095D01*
X144402380Y-106799047D01*
X144450000Y-106894285D01*
X144497619Y-106941904D01*
X144592857Y-106989523D01*
X144735714Y-106989523D01*
X144830952Y-106941904D01*
X144878571Y-106894285D01*
X144926190Y-106799047D01*
X144926190Y-106418095D01*
X147772380Y-106513333D02*
X147296190Y-106180000D01*
X147772380Y-105941904D02*
X146772380Y-105941904D01*
X146772380Y-106322857D01*
X146820000Y-106418095D01*
X146867619Y-106465714D01*
X146962857Y-106513333D01*
X147105714Y-106513333D01*
X147200952Y-106465714D01*
X147248571Y-106418095D01*
X147296190Y-106322857D01*
X147296190Y-105941904D01*
X146772380Y-107418095D02*
X146772380Y-106941904D01*
X147248571Y-106894285D01*
X147200952Y-106941904D01*
X147153333Y-107037142D01*
X147153333Y-107275238D01*
X147200952Y-107370476D01*
X147248571Y-107418095D01*
X147343809Y-107465714D01*
X147581904Y-107465714D01*
X147677142Y-107418095D01*
X147724761Y-107370476D01*
X147772380Y-107275238D01*
X147772380Y-107037142D01*
X147724761Y-106941904D01*
X147677142Y-106894285D01*
X139390476Y-106032380D02*
X139723809Y-105556190D01*
X139961904Y-106032380D02*
X139961904Y-105032380D01*
X139580952Y-105032380D01*
X139485714Y-105080000D01*
X139438095Y-105127619D01*
X139390476Y-105222857D01*
X139390476Y-105365714D01*
X139438095Y-105460952D01*
X139485714Y-105508571D01*
X139580952Y-105556190D01*
X139961904Y-105556190D01*
X139866666Y-108402380D02*
X140200000Y-107926190D01*
X140438095Y-108402380D02*
X140438095Y-107402380D01*
X140057142Y-107402380D01*
X139961904Y-107450000D01*
X139914285Y-107497619D01*
X139866666Y-107592857D01*
X139866666Y-107735714D01*
X139914285Y-107830952D01*
X139961904Y-107878571D01*
X140057142Y-107926190D01*
X140438095Y-107926190D01*
X139009523Y-107735714D02*
X139009523Y-108402380D01*
X139247619Y-107354761D02*
X139485714Y-108069047D01*
X138866666Y-108069047D01*
X141930476Y-94432380D02*
X142263809Y-93956190D01*
X142501904Y-94432380D02*
X142501904Y-93432380D01*
X142120952Y-93432380D01*
X142025714Y-93480000D01*
X141978095Y-93527619D01*
X141930476Y-93622857D01*
X141930476Y-93765714D01*
X141978095Y-93860952D01*
X142025714Y-93908571D01*
X142120952Y-93956190D01*
X142501904Y-93956190D01*
X142406666Y-94432380D02*
X142740000Y-93956190D01*
X142978095Y-94432380D02*
X142978095Y-93432380D01*
X142597142Y-93432380D01*
X142501904Y-93480000D01*
X142454285Y-93527619D01*
X142406666Y-93622857D01*
X142406666Y-93765714D01*
X142454285Y-93860952D01*
X142501904Y-93908571D01*
X142597142Y-93956190D01*
X142978095Y-93956190D01*
X142073333Y-93432380D02*
X141454285Y-93432380D01*
X141787619Y-93813333D01*
X141644761Y-93813333D01*
X141549523Y-93860952D01*
X141501904Y-93908571D01*
X141454285Y-94003809D01*
X141454285Y-94241904D01*
X141501904Y-94337142D01*
X141549523Y-94384761D01*
X141644761Y-94432380D01*
X141930476Y-94432380D01*
X142025714Y-94384761D01*
X142073333Y-94337142D01*
X134902380Y-105719523D02*
X134426190Y-105386190D01*
X134902380Y-105148095D02*
X133902380Y-105148095D01*
X133902380Y-105529047D01*
X133950000Y-105624285D01*
X133997619Y-105671904D01*
X134092857Y-105719523D01*
X134235714Y-105719523D01*
X134330952Y-105671904D01*
X134378571Y-105624285D01*
X134426190Y-105529047D01*
X134426190Y-105148095D01*
X132532380Y-105243333D02*
X132056190Y-104910000D01*
X132532380Y-104671904D02*
X131532380Y-104671904D01*
X131532380Y-105052857D01*
X131580000Y-105148095D01*
X131627619Y-105195714D01*
X131722857Y-105243333D01*
X131865714Y-105243333D01*
X131960952Y-105195714D01*
X132008571Y-105148095D01*
X132056190Y-105052857D01*
X132056190Y-104671904D01*
X131627619Y-105624285D02*
X131580000Y-105671904D01*
X131532380Y-105767142D01*
X131532380Y-106005238D01*
X131580000Y-106100476D01*
X131627619Y-106148095D01*
X131722857Y-106195714D01*
X131818095Y-106195714D01*
X131960952Y-106148095D01*
X132532380Y-105576666D01*
X132532380Y-106195714D01*
X136850476Y-91892380D02*
X137183809Y-91416190D01*
X137421904Y-91892380D02*
X137421904Y-90892380D01*
X137040952Y-90892380D01*
X136945714Y-90940000D01*
X136898095Y-90987619D01*
X136850476Y-91082857D01*
X136850476Y-91225714D01*
X136898095Y-91320952D01*
X136945714Y-91368571D01*
X137040952Y-91416190D01*
X137421904Y-91416190D01*
X137326666Y-91892380D02*
X137660000Y-91416190D01*
X137898095Y-91892380D02*
X137898095Y-90892380D01*
X137517142Y-90892380D01*
X137421904Y-90940000D01*
X137374285Y-90987619D01*
X137326666Y-91082857D01*
X137326666Y-91225714D01*
X137374285Y-91320952D01*
X137421904Y-91368571D01*
X137517142Y-91416190D01*
X137898095Y-91416190D01*
X136374285Y-91892380D02*
X136945714Y-91892380D01*
X136660000Y-91892380D02*
X136660000Y-90892380D01*
X136755238Y-91035238D01*
X136850476Y-91130476D01*
X136945714Y-91178095D01*
X134892380Y-98125714D02*
X133892380Y-98125714D01*
X133892380Y-98363809D01*
X133940000Y-98506666D01*
X134035238Y-98601904D01*
X134130476Y-98649523D01*
X134320952Y-98697142D01*
X134463809Y-98697142D01*
X134654285Y-98649523D01*
X134749523Y-98601904D01*
X134844761Y-98506666D01*
X134892380Y-98363809D01*
X134892380Y-98125714D01*
X134368571Y-99459047D02*
X134368571Y-99125714D01*
X134892380Y-99125714D02*
X133892380Y-99125714D01*
X133892380Y-99601904D01*
X133892380Y-100173333D02*
X133892380Y-100268571D01*
X133940000Y-100363809D01*
X133987619Y-100411428D01*
X134082857Y-100459047D01*
X134273333Y-100506666D01*
X134511428Y-100506666D01*
X134701904Y-100459047D01*
X134797142Y-100411428D01*
X134844761Y-100363809D01*
X134892380Y-100268571D01*
X134892380Y-100173333D01*
X134844761Y-100078095D01*
X134797142Y-100030476D01*
X134701904Y-99982857D01*
X134511428Y-99935238D01*
X134273333Y-99935238D01*
X134082857Y-99982857D01*
X133987619Y-100030476D01*
X133940000Y-100078095D01*
X133892380Y-100173333D01*
X133892380Y-101363809D02*
X133892380Y-101173333D01*
X133940000Y-101078095D01*
X133987619Y-101030476D01*
X134130476Y-100935238D01*
X134320952Y-100887619D01*
X134701904Y-100887619D01*
X134797142Y-100935238D01*
X134844761Y-100982857D01*
X134892380Y-101078095D01*
X134892380Y-101268571D01*
X134844761Y-101363809D01*
X134797142Y-101411428D01*
X134701904Y-101459047D01*
X134463809Y-101459047D01*
X134368571Y-101411428D01*
X134320952Y-101363809D01*
X134273333Y-101268571D01*
X134273333Y-101078095D01*
X134320952Y-100982857D01*
X134368571Y-100935238D01*
X134463809Y-100887619D01*
X134892380Y-101887619D02*
X133892380Y-101887619D01*
X134606666Y-102220952D01*
X133892380Y-102554285D01*
X134892380Y-102554285D01*
X140152380Y-99591904D02*
X139152380Y-99591904D01*
X139152380Y-99830000D01*
X139200000Y-99972857D01*
X139295238Y-100068095D01*
X139390476Y-100115714D01*
X139580952Y-100163333D01*
X139723809Y-100163333D01*
X139914285Y-100115714D01*
X140009523Y-100068095D01*
X140104761Y-99972857D01*
X140152380Y-99830000D01*
X140152380Y-99591904D01*
X140152380Y-101115714D02*
X140152380Y-100544285D01*
X140152380Y-100830000D02*
X139152380Y-100830000D01*
X139295238Y-100734761D01*
X139390476Y-100639523D01*
X139438095Y-100544285D01*
X130202380Y-114276666D02*
X129202380Y-114276666D01*
X129916666Y-114610000D01*
X129202380Y-114943333D01*
X130202380Y-114943333D01*
X129202380Y-115610000D02*
X129202380Y-115800476D01*
X129250000Y-115895714D01*
X129345238Y-115990952D01*
X129535714Y-116038571D01*
X129869047Y-116038571D01*
X130059523Y-115990952D01*
X130154761Y-115895714D01*
X130202380Y-115800476D01*
X130202380Y-115610000D01*
X130154761Y-115514761D01*
X130059523Y-115419523D01*
X129869047Y-115371904D01*
X129535714Y-115371904D01*
X129345238Y-115419523D01*
X129250000Y-115514761D01*
X129202380Y-115610000D01*
X130107142Y-117038571D02*
X130154761Y-116990952D01*
X130202380Y-116848095D01*
X130202380Y-116752857D01*
X130154761Y-116610000D01*
X130059523Y-116514761D01*
X129964285Y-116467142D01*
X129773809Y-116419523D01*
X129630952Y-116419523D01*
X129440476Y-116467142D01*
X129345238Y-116514761D01*
X129250000Y-116610000D01*
X129202380Y-116752857D01*
X129202380Y-116848095D01*
X129250000Y-116990952D01*
X129297619Y-117038571D01*
X129202380Y-117371904D02*
X129202380Y-117990952D01*
X129583333Y-117657619D01*
X129583333Y-117800476D01*
X129630952Y-117895714D01*
X129678571Y-117943333D01*
X129773809Y-117990952D01*
X130011904Y-117990952D01*
X130107142Y-117943333D01*
X130154761Y-117895714D01*
X130202380Y-117800476D01*
X130202380Y-117514761D01*
X130154761Y-117419523D01*
X130107142Y-117371904D01*
X129202380Y-118610000D02*
X129202380Y-118705238D01*
X129250000Y-118800476D01*
X129297619Y-118848095D01*
X129392857Y-118895714D01*
X129583333Y-118943333D01*
X129821428Y-118943333D01*
X130011904Y-118895714D01*
X130107142Y-118848095D01*
X130154761Y-118800476D01*
X130202380Y-118705238D01*
X130202380Y-118610000D01*
X130154761Y-118514761D01*
X130107142Y-118467142D01*
X130011904Y-118419523D01*
X129821428Y-118371904D01*
X129583333Y-118371904D01*
X129392857Y-118419523D01*
X129297619Y-118467142D01*
X129250000Y-118514761D01*
X129202380Y-118610000D01*
X129297619Y-119324285D02*
X129250000Y-119371904D01*
X129202380Y-119467142D01*
X129202380Y-119705238D01*
X129250000Y-119800476D01*
X129297619Y-119848095D01*
X129392857Y-119895714D01*
X129488095Y-119895714D01*
X129630952Y-119848095D01*
X130202380Y-119276666D01*
X130202380Y-119895714D01*
X130202380Y-120848095D02*
X130202380Y-120276666D01*
X130202380Y-120562380D02*
X129202380Y-120562380D01*
X129345238Y-120467142D01*
X129440476Y-120371904D01*
X129488095Y-120276666D01*
X130202380Y-121276666D02*
X129202380Y-121276666D01*
X129916666Y-121610000D01*
X129202380Y-121943333D01*
X130202380Y-121943333D01*
X134072380Y-117348095D02*
X134881904Y-117348095D01*
X134977142Y-117395714D01*
X135024761Y-117443333D01*
X135072380Y-117538571D01*
X135072380Y-117729047D01*
X135024761Y-117824285D01*
X134977142Y-117871904D01*
X134881904Y-117919523D01*
X134072380Y-117919523D01*
X135072380Y-118919523D02*
X135072380Y-118348095D01*
X135072380Y-118633809D02*
X134072380Y-118633809D01*
X134215238Y-118538571D01*
X134310476Y-118443333D01*
X134358095Y-118348095D01*
M02*
