G04 #@! TF.GenerationSoftware,KiCad,Pcbnew,5.1.5-52549c5~86~ubuntu18.04.1*
G04 #@! TF.CreationDate,2020-03-29T17:49:25+00:00*
G04 #@! TF.ProjectId,PIS,5049532e-6b69-4636-9164-5f7063625858,rev?*
G04 #@! TF.SameCoordinates,Original*
G04 #@! TF.FileFunction,OtherDrawing,Comment*
%FSLAX46Y46*%
G04 Gerber Fmt 4.6, Leading zero omitted, Abs format (unit mm)*
G04 Created by KiCad (PCBNEW 5.1.5-52549c5~86~ubuntu18.04.1) date 2020-03-29 17:49:25*
%MOMM*%
%LPD*%
G04 APERTURE LIST*
%ADD10C,0.150000*%
G04 APERTURE END LIST*
D10*
X128572142Y-94767619D02*
X128619761Y-94720000D01*
X128715000Y-94672380D01*
X128953095Y-94672380D01*
X129048333Y-94720000D01*
X129095952Y-94767619D01*
X129143571Y-94862857D01*
X129143571Y-94958095D01*
X129095952Y-95100952D01*
X128524523Y-95672380D01*
X129143571Y-95672380D01*
X130000714Y-94672380D02*
X129810238Y-94672380D01*
X129715000Y-94720000D01*
X129667380Y-94767619D01*
X129572142Y-94910476D01*
X129524523Y-95100952D01*
X129524523Y-95481904D01*
X129572142Y-95577142D01*
X129619761Y-95624761D01*
X129715000Y-95672380D01*
X129905476Y-95672380D01*
X130000714Y-95624761D01*
X130048333Y-95577142D01*
X130095952Y-95481904D01*
X130095952Y-95243809D01*
X130048333Y-95148571D01*
X130000714Y-95100952D01*
X129905476Y-95053333D01*
X129715000Y-95053333D01*
X129619761Y-95100952D01*
X129572142Y-95148571D01*
X129524523Y-95243809D01*
X130572142Y-95624761D02*
X130572142Y-95672380D01*
X130524523Y-95767619D01*
X130476904Y-95815238D01*
X131429285Y-94672380D02*
X131238809Y-94672380D01*
X131143571Y-94720000D01*
X131095952Y-94767619D01*
X131000714Y-94910476D01*
X130953095Y-95100952D01*
X130953095Y-95481904D01*
X131000714Y-95577142D01*
X131048333Y-95624761D01*
X131143571Y-95672380D01*
X131334047Y-95672380D01*
X131429285Y-95624761D01*
X131476904Y-95577142D01*
X131524523Y-95481904D01*
X131524523Y-95243809D01*
X131476904Y-95148571D01*
X131429285Y-95100952D01*
X131334047Y-95053333D01*
X131143571Y-95053333D01*
X131048333Y-95100952D01*
X131000714Y-95148571D01*
X130953095Y-95243809D01*
X131857857Y-94672380D02*
X132524523Y-94672380D01*
X132095952Y-95672380D01*
X133095952Y-94672380D02*
X133191190Y-94672380D01*
X133286428Y-94720000D01*
X133334047Y-94767619D01*
X133381666Y-94862857D01*
X133429285Y-95053333D01*
X133429285Y-95291428D01*
X133381666Y-95481904D01*
X133334047Y-95577142D01*
X133286428Y-95624761D01*
X133191190Y-95672380D01*
X133095952Y-95672380D01*
X133000714Y-95624761D01*
X132953095Y-95577142D01*
X132905476Y-95481904D01*
X132857857Y-95291428D01*
X132857857Y-95053333D01*
X132905476Y-94862857D01*
X132953095Y-94767619D01*
X133000714Y-94720000D01*
X133095952Y-94672380D01*
X134619761Y-95672380D02*
X134619761Y-95005714D01*
X134619761Y-95100952D02*
X134667380Y-95053333D01*
X134762619Y-95005714D01*
X134905476Y-95005714D01*
X135000714Y-95053333D01*
X135048333Y-95148571D01*
X135048333Y-95672380D01*
X135048333Y-95148571D02*
X135095952Y-95053333D01*
X135191190Y-95005714D01*
X135334047Y-95005714D01*
X135429285Y-95053333D01*
X135476904Y-95148571D01*
X135476904Y-95672380D01*
X135953095Y-95672380D02*
X135953095Y-95005714D01*
X135953095Y-95100952D02*
X136000714Y-95053333D01*
X136095952Y-95005714D01*
X136238809Y-95005714D01*
X136334047Y-95053333D01*
X136381666Y-95148571D01*
X136381666Y-95672380D01*
X136381666Y-95148571D02*
X136429285Y-95053333D01*
X136524523Y-95005714D01*
X136667380Y-95005714D01*
X136762619Y-95053333D01*
X136810238Y-95148571D01*
X136810238Y-95672380D01*
X119380000Y-96520000D02*
X146050000Y-96520000D01*
X119380000Y-104140000D02*
X119380000Y-95933579D01*
X146050000Y-104140000D02*
X146050000Y-95933579D01*
X146050000Y-96520000D02*
X144923496Y-97106421D01*
X146050000Y-96520000D02*
X144923496Y-95933579D01*
X119380000Y-96520000D02*
X120506504Y-97106421D01*
X119380000Y-96520000D02*
X120506504Y-95933579D01*
X154549285Y-123653278D02*
X153882619Y-123653278D01*
X154930238Y-123415183D02*
X154215952Y-123177087D01*
X154215952Y-123796135D01*
X154454047Y-124319945D02*
X154501666Y-124224706D01*
X154549285Y-124177087D01*
X154644523Y-124129468D01*
X154692142Y-124129468D01*
X154787380Y-124177087D01*
X154835000Y-124224706D01*
X154882619Y-124319945D01*
X154882619Y-124510421D01*
X154835000Y-124605659D01*
X154787380Y-124653278D01*
X154692142Y-124700897D01*
X154644523Y-124700897D01*
X154549285Y-124653278D01*
X154501666Y-124605659D01*
X154454047Y-124510421D01*
X154454047Y-124319945D01*
X154406428Y-124224706D01*
X154358809Y-124177087D01*
X154263571Y-124129468D01*
X154073095Y-124129468D01*
X153977857Y-124177087D01*
X153930238Y-124224706D01*
X153882619Y-124319945D01*
X153882619Y-124510421D01*
X153930238Y-124605659D01*
X153977857Y-124653278D01*
X154073095Y-124700897D01*
X154263571Y-124700897D01*
X154358809Y-124653278D01*
X154406428Y-124605659D01*
X154454047Y-124510421D01*
X153930238Y-125177087D02*
X153882619Y-125177087D01*
X153787380Y-125129468D01*
X153739761Y-125081849D01*
X154454047Y-125748516D02*
X154501666Y-125653278D01*
X154549285Y-125605659D01*
X154644523Y-125558040D01*
X154692142Y-125558040D01*
X154787380Y-125605659D01*
X154835000Y-125653278D01*
X154882619Y-125748516D01*
X154882619Y-125938992D01*
X154835000Y-126034230D01*
X154787380Y-126081849D01*
X154692142Y-126129468D01*
X154644523Y-126129468D01*
X154549285Y-126081849D01*
X154501666Y-126034230D01*
X154454047Y-125938992D01*
X154454047Y-125748516D01*
X154406428Y-125653278D01*
X154358809Y-125605659D01*
X154263571Y-125558040D01*
X154073095Y-125558040D01*
X153977857Y-125605659D01*
X153930238Y-125653278D01*
X153882619Y-125748516D01*
X153882619Y-125938992D01*
X153930238Y-126034230D01*
X153977857Y-126081849D01*
X154073095Y-126129468D01*
X154263571Y-126129468D01*
X154358809Y-126081849D01*
X154406428Y-126034230D01*
X154454047Y-125938992D01*
X153882619Y-126605659D02*
X153882619Y-126796135D01*
X153930238Y-126891373D01*
X153977857Y-126938992D01*
X154120714Y-127034230D01*
X154311190Y-127081849D01*
X154692142Y-127081849D01*
X154787380Y-127034230D01*
X154835000Y-126986611D01*
X154882619Y-126891373D01*
X154882619Y-126700897D01*
X154835000Y-126605659D01*
X154787380Y-126558040D01*
X154692142Y-126510421D01*
X154454047Y-126510421D01*
X154358809Y-126558040D01*
X154311190Y-126605659D01*
X154263571Y-126700897D01*
X154263571Y-126891373D01*
X154311190Y-126986611D01*
X154358809Y-127034230D01*
X154454047Y-127081849D01*
X154882619Y-127700897D02*
X154882619Y-127796135D01*
X154835000Y-127891373D01*
X154787380Y-127938992D01*
X154692142Y-127986611D01*
X154501666Y-128034230D01*
X154263571Y-128034230D01*
X154073095Y-127986611D01*
X153977857Y-127938992D01*
X153930238Y-127891373D01*
X153882619Y-127796135D01*
X153882619Y-127700897D01*
X153930238Y-127605659D01*
X153977857Y-127558040D01*
X154073095Y-127510421D01*
X154263571Y-127462802D01*
X154501666Y-127462802D01*
X154692142Y-127510421D01*
X154787380Y-127558040D01*
X154835000Y-127605659D01*
X154882619Y-127700897D01*
X153882619Y-129224706D02*
X154549285Y-129224706D01*
X154454047Y-129224706D02*
X154501666Y-129272325D01*
X154549285Y-129367564D01*
X154549285Y-129510421D01*
X154501666Y-129605659D01*
X154406428Y-129653278D01*
X153882619Y-129653278D01*
X154406428Y-129653278D02*
X154501666Y-129700897D01*
X154549285Y-129796135D01*
X154549285Y-129938992D01*
X154501666Y-130034230D01*
X154406428Y-130081849D01*
X153882619Y-130081849D01*
X153882619Y-130558040D02*
X154549285Y-130558040D01*
X154454047Y-130558040D02*
X154501666Y-130605659D01*
X154549285Y-130700897D01*
X154549285Y-130843754D01*
X154501666Y-130938992D01*
X154406428Y-130986611D01*
X153882619Y-130986611D01*
X154406428Y-130986611D02*
X154501666Y-131034230D01*
X154549285Y-131129468D01*
X154549285Y-131272325D01*
X154501666Y-131367564D01*
X154406428Y-131415183D01*
X153882619Y-131415183D01*
X153035000Y-102874890D02*
X153035000Y-151765000D01*
X144780000Y-102874890D02*
X153621421Y-102874890D01*
X144780000Y-151765000D02*
X153621421Y-151765000D01*
X153035000Y-151765000D02*
X152448579Y-150638496D01*
X153035000Y-151765000D02*
X153621421Y-150638496D01*
X153035000Y-102874890D02*
X152448579Y-104001394D01*
X153035000Y-102874890D02*
X153621421Y-104001394D01*
M02*
