%FSLAX45Y45*%
G04 Gerber Fmt 4.5, Leading zero omitted, Abs format (unit mm)*
G04 Created by KiCad (PCBNEW 5.1.5-52549c5~86~ubuntu18.04.1) date 2020-03-29 17:49:26*
%MOMM*%
%LPD*%
G04 APERTURE LIST*
%TA.AperFunction,Profile*%
%ADD10C,0.120000*%
%TD*%
%ADD11C,0.200000*%
%ADD12C,0.300000*%
G04 APERTURE END LIST*
D10*
X11938000Y-10414489D02*
G75*
G02X12065000Y-10287489I127000J0D01*
G01*
X14605000Y-15049500D02*
G75*
G02X14478000Y-15176500I-127000J0D01*
G01*
X14478000Y-10287489D02*
G75*
G02X14605000Y-10414489I0J-127000D01*
G01*
X12065000Y-15176989D02*
G75*
G02X11938000Y-15049989I0J127000D01*
G01*
X14605000Y-15049500D02*
X14605000Y-10414000D01*
X12065000Y-15176500D02*
X14478000Y-15176500D01*
X11938000Y-10414000D02*
X11938000Y-15049500D01*
X14478000Y-10287489D02*
X12065000Y-10287489D01*
D11*
X12802000Y-12548000D02*
X12852000Y-12598000D01*
X12852000Y-12548000D02*
X12802000Y-12598000D01*
X13056000Y-12548000D02*
X13106000Y-12598000D01*
X13106000Y-12548000D02*
X13056000Y-12598000D01*
X13310000Y-12548000D02*
X13360000Y-12598000D01*
X13360000Y-12548000D02*
X13310000Y-12598000D01*
X13564000Y-12548000D02*
X13614000Y-12598000D01*
X13614000Y-12548000D02*
X13564000Y-12598000D01*
X14195500Y-12954000D02*
G75*
G03X14195500Y-12954000I-35000J0D01*
G01*
X14195500Y-13716000D02*
G75*
G03X14195500Y-13716000I-35000J0D01*
G01*
X12417500Y-12192000D02*
G75*
G03X12417500Y-12192000I-35000J0D01*
G01*
X12417500Y-12954000D02*
G75*
G03X12417500Y-12954000I-35000J0D01*
G01*
X14195500Y-13716000D02*
G75*
G03X14195500Y-13716000I-35000J0D01*
G01*
X14195500Y-14478000D02*
G75*
G03X14195500Y-14478000I-35000J0D01*
G01*
X13941500Y-11938000D02*
G75*
G03X13941500Y-11938000I-35000J0D01*
G01*
X13941500Y-12700000D02*
G75*
G03X13941500Y-12700000I-35000J0D01*
G01*
X12608000Y-10668000D02*
G75*
G03X12608000Y-10668000I-35000J0D01*
G01*
X13116000Y-10668000D02*
G75*
G03X13116000Y-10668000I-35000J0D01*
G01*
X13370000Y-10668000D02*
G75*
G03X13370000Y-10668000I-35000J0D01*
G01*
X12763500Y-12027500D02*
X12763500Y-12102500D01*
X12726000Y-12065000D02*
X12801000Y-12065000D01*
X12890500Y-12027500D02*
X12890500Y-12102500D01*
X12853000Y-12065000D02*
X12928000Y-12065000D01*
X13017500Y-12027500D02*
X13017500Y-12102500D01*
X12980000Y-12065000D02*
X13055000Y-12065000D01*
X13335000Y-12027500D02*
X13335000Y-12102500D01*
X13297500Y-12065000D02*
X13372500Y-12065000D01*
X13462000Y-12027500D02*
X13462000Y-12102500D01*
X13424500Y-12065000D02*
X13499500Y-12065000D01*
X13589000Y-12027500D02*
X13589000Y-12102500D01*
X13551500Y-12065000D02*
X13626500Y-12065000D01*
X12410784Y-11204284D02*
X12410784Y-11147716D01*
X12354215Y-11147716D01*
X12354215Y-11204284D01*
X12410784Y-11204284D01*
X12410784Y-11966284D02*
X12410784Y-11909715D01*
X12354215Y-11909715D01*
X12354215Y-11966284D01*
X12410784Y-11966284D01*
X13716000Y-10713000D02*
X13761000Y-10668000D01*
X13716000Y-10623000D01*
X13671000Y-10668000D01*
X13716000Y-10713000D01*
X13970000Y-10713000D02*
X14015000Y-10668000D01*
X13970000Y-10623000D01*
X13925000Y-10668000D01*
X13970000Y-10713000D01*
X14110500Y-10872000D02*
X14210500Y-10972000D01*
X14210500Y-10872000D02*
X14110500Y-10972000D01*
X14210500Y-10922000D02*
G75*
G03X14210500Y-10922000I-50000J0D01*
G01*
X14110500Y-11126000D02*
X14210500Y-11226000D01*
X14210500Y-11126000D02*
X14110500Y-11226000D01*
X14210500Y-11176000D02*
G75*
G03X14210500Y-11176000I-50000J0D01*
G01*
X14110500Y-11380000D02*
X14210500Y-11480000D01*
X14210500Y-11380000D02*
X14110500Y-11480000D01*
X14210500Y-11430000D02*
G75*
G03X14210500Y-11430000I-50000J0D01*
G01*
X14110500Y-11634000D02*
X14210500Y-11734000D01*
X14210500Y-11634000D02*
X14110500Y-11734000D01*
X14210500Y-11684000D02*
G75*
G03X14210500Y-11684000I-50000J0D01*
G01*
X12840500Y-14872500D02*
X12940500Y-14972500D01*
X12940500Y-14872500D02*
X12840500Y-14972500D01*
X12940500Y-14922500D02*
G75*
G03X12940500Y-14922500I-50000J0D01*
G01*
X13094500Y-14872500D02*
X13194500Y-14972500D01*
X13194500Y-14872500D02*
X13094500Y-14972500D01*
X13194500Y-14922500D02*
G75*
G03X13194500Y-14922500I-50000J0D01*
G01*
X13348500Y-14872500D02*
X13448500Y-14972500D01*
X13448500Y-14872500D02*
X13348500Y-14972500D01*
X13448500Y-14922500D02*
G75*
G03X13448500Y-14922500I-50000J0D01*
G01*
X13602500Y-14872500D02*
X13702500Y-14972500D01*
X13702500Y-14872500D02*
X13602500Y-14972500D01*
X13702500Y-14922500D02*
G75*
G03X13702500Y-14922500I-50000J0D01*
G01*
X12713500Y-11126000D02*
X12813500Y-11226000D01*
X12813500Y-11126000D02*
X12713500Y-11226000D01*
X12813500Y-11176000D02*
G75*
G03X12813500Y-11176000I-50000J0D01*
G01*
X12713500Y-11634000D02*
X12813500Y-11734000D01*
X12813500Y-11634000D02*
X12713500Y-11734000D01*
X12813500Y-11684000D02*
G75*
G03X12813500Y-11684000I-50000J0D01*
G01*
X12967500Y-11126000D02*
X13067500Y-11226000D01*
X13067500Y-11126000D02*
X12967500Y-11226000D01*
X13067500Y-11176000D02*
G75*
G03X13067500Y-11176000I-50000J0D01*
G01*
X12967500Y-11634000D02*
X13067500Y-11734000D01*
X13067500Y-11634000D02*
X12967500Y-11734000D01*
X13067500Y-11684000D02*
G75*
G03X13067500Y-11684000I-50000J0D01*
G01*
X13729500Y-11126000D02*
X13829500Y-11226000D01*
X13829500Y-11126000D02*
X13729500Y-11226000D01*
X13829500Y-11176000D02*
G75*
G03X13829500Y-11176000I-50000J0D01*
G01*
X13729500Y-11634000D02*
X13829500Y-11734000D01*
X13829500Y-11634000D02*
X13729500Y-11734000D01*
X13829500Y-11684000D02*
G75*
G03X13829500Y-11684000I-50000J0D01*
G01*
X12332500Y-13412000D02*
X12432500Y-13512000D01*
X12432500Y-13412000D02*
X12332500Y-13512000D01*
X12432500Y-13462000D02*
G75*
G03X12432500Y-13462000I-50000J0D01*
G01*
X12332500Y-13666000D02*
X12432500Y-13766000D01*
X12432500Y-13666000D02*
X12332500Y-13766000D01*
X12432500Y-13716000D02*
G75*
G03X12432500Y-13716000I-50000J0D01*
G01*
X12332500Y-13920000D02*
X12432500Y-14020000D01*
X12432500Y-13920000D02*
X12332500Y-14020000D01*
X12432500Y-13970000D02*
G75*
G03X12432500Y-13970000I-50000J0D01*
G01*
X12967500Y-14555000D02*
X13067500Y-14655000D01*
X13067500Y-14555000D02*
X12967500Y-14655000D01*
X13067500Y-14605000D02*
G75*
G03X13067500Y-14605000I-50000J0D01*
G01*
X13221500Y-14555000D02*
X13321500Y-14655000D01*
X13321500Y-14555000D02*
X13221500Y-14655000D01*
X13321500Y-14605000D02*
G75*
G03X13321500Y-14605000I-50000J0D01*
G01*
X13475500Y-14555000D02*
X13575500Y-14655000D01*
X13575500Y-14555000D02*
X13475500Y-14655000D01*
X13575500Y-14605000D02*
G75*
G03X13575500Y-14605000I-50000J0D01*
G01*
X12077700Y-10871200D02*
X12179300Y-10972800D01*
X12179300Y-10871200D02*
X12077700Y-10972800D01*
X12128500Y-10871200D02*
X12128500Y-10972800D01*
X12077700Y-10922000D02*
X12179300Y-10922000D01*
X12077700Y-11125200D02*
X12179300Y-11226800D01*
X12179300Y-11125200D02*
X12077700Y-11226800D01*
X12128500Y-11125200D02*
X12128500Y-11226800D01*
X12077700Y-11176000D02*
X12179300Y-11176000D01*
X12077700Y-11379200D02*
X12179300Y-11480800D01*
X12179300Y-11379200D02*
X12077700Y-11480800D01*
X12128500Y-11379200D02*
X12128500Y-11480800D01*
X12077700Y-11430000D02*
X12179300Y-11430000D01*
X12077700Y-11633200D02*
X12179300Y-11734800D01*
X12179300Y-11633200D02*
X12077700Y-11734800D01*
X12128500Y-11633200D02*
X12128500Y-11734800D01*
X12077700Y-11684000D02*
X12179300Y-11684000D01*
X12077700Y-11887200D02*
X12179300Y-11988800D01*
X12179300Y-11887200D02*
X12077700Y-11988800D01*
X12128500Y-11887200D02*
X12128500Y-11988800D01*
X12077700Y-11938000D02*
X12179300Y-11938000D01*
X12077700Y-12141200D02*
X12179300Y-12242800D01*
X12179300Y-12141200D02*
X12077700Y-12242800D01*
X12128500Y-12141200D02*
X12128500Y-12242800D01*
X12077700Y-12192000D02*
X12179300Y-12192000D01*
X12077700Y-12395200D02*
X12179300Y-12496800D01*
X12179300Y-12395200D02*
X12077700Y-12496800D01*
X12128500Y-12395200D02*
X12128500Y-12496800D01*
X12077700Y-12446000D02*
X12179300Y-12446000D01*
X12077700Y-12649200D02*
X12179300Y-12750800D01*
X12179300Y-12649200D02*
X12077700Y-12750800D01*
X12128500Y-12649200D02*
X12128500Y-12750800D01*
X12077700Y-12700000D02*
X12179300Y-12700000D01*
X12077700Y-12903200D02*
X12179300Y-13004800D01*
X12179300Y-12903200D02*
X12077700Y-13004800D01*
X12128500Y-12903200D02*
X12128500Y-13004800D01*
X12077700Y-12954000D02*
X12179300Y-12954000D01*
X12077700Y-13157200D02*
X12179300Y-13258800D01*
X12179300Y-13157200D02*
X12077700Y-13258800D01*
X12128500Y-13157200D02*
X12128500Y-13258800D01*
X12077700Y-13208000D02*
X12179300Y-13208000D01*
X12077700Y-13411200D02*
X12179300Y-13512800D01*
X12179300Y-13411200D02*
X12077700Y-13512800D01*
X12128500Y-13411200D02*
X12128500Y-13512800D01*
X12077700Y-13462000D02*
X12179300Y-13462000D01*
X12077700Y-13665200D02*
X12179300Y-13766800D01*
X12179300Y-13665200D02*
X12077700Y-13766800D01*
X12128500Y-13665200D02*
X12128500Y-13766800D01*
X12077700Y-13716000D02*
X12179300Y-13716000D01*
X12077700Y-13919200D02*
X12179300Y-14020800D01*
X12179300Y-13919200D02*
X12077700Y-14020800D01*
X12128500Y-13919200D02*
X12128500Y-14020800D01*
X12077700Y-13970000D02*
X12179300Y-13970000D01*
X12077700Y-14173200D02*
X12179300Y-14274800D01*
X12179300Y-14173200D02*
X12077700Y-14274800D01*
X12128500Y-14173200D02*
X12128500Y-14274800D01*
X12077700Y-14224000D02*
X12179300Y-14224000D01*
X12077700Y-14427200D02*
X12179300Y-14528800D01*
X12179300Y-14427200D02*
X12077700Y-14528800D01*
X12128500Y-14427200D02*
X12128500Y-14528800D01*
X12077700Y-14478000D02*
X12179300Y-14478000D01*
X14363700Y-10871200D02*
X14465300Y-10972800D01*
X14465300Y-10871200D02*
X14363700Y-10972800D01*
X14414500Y-10871200D02*
X14414500Y-10972800D01*
X14363700Y-10922000D02*
X14465300Y-10922000D01*
X14363700Y-11125200D02*
X14465300Y-11226800D01*
X14465300Y-11125200D02*
X14363700Y-11226800D01*
X14414500Y-11125200D02*
X14414500Y-11226800D01*
X14363700Y-11176000D02*
X14465300Y-11176000D01*
X14363700Y-11379200D02*
X14465300Y-11480800D01*
X14465300Y-11379200D02*
X14363700Y-11480800D01*
X14414500Y-11379200D02*
X14414500Y-11480800D01*
X14363700Y-11430000D02*
X14465300Y-11430000D01*
X14363700Y-11633200D02*
X14465300Y-11734800D01*
X14465300Y-11633200D02*
X14363700Y-11734800D01*
X14414500Y-11633200D02*
X14414500Y-11734800D01*
X14363700Y-11684000D02*
X14465300Y-11684000D01*
X14363700Y-11887200D02*
X14465300Y-11988800D01*
X14465300Y-11887200D02*
X14363700Y-11988800D01*
X14414500Y-11887200D02*
X14414500Y-11988800D01*
X14363700Y-11938000D02*
X14465300Y-11938000D01*
X14363700Y-12141200D02*
X14465300Y-12242800D01*
X14465300Y-12141200D02*
X14363700Y-12242800D01*
X14414500Y-12141200D02*
X14414500Y-12242800D01*
X14363700Y-12192000D02*
X14465300Y-12192000D01*
X14363700Y-12395200D02*
X14465300Y-12496800D01*
X14465300Y-12395200D02*
X14363700Y-12496800D01*
X14414500Y-12395200D02*
X14414500Y-12496800D01*
X14363700Y-12446000D02*
X14465300Y-12446000D01*
X14363700Y-12649200D02*
X14465300Y-12750800D01*
X14465300Y-12649200D02*
X14363700Y-12750800D01*
X14414500Y-12649200D02*
X14414500Y-12750800D01*
X14363700Y-12700000D02*
X14465300Y-12700000D01*
X14363700Y-12903200D02*
X14465300Y-13004800D01*
X14465300Y-12903200D02*
X14363700Y-13004800D01*
X14414500Y-12903200D02*
X14414500Y-13004800D01*
X14363700Y-12954000D02*
X14465300Y-12954000D01*
X14363700Y-13157200D02*
X14465300Y-13258800D01*
X14465300Y-13157200D02*
X14363700Y-13258800D01*
X14414500Y-13157200D02*
X14414500Y-13258800D01*
X14363700Y-13208000D02*
X14465300Y-13208000D01*
X14363700Y-13411200D02*
X14465300Y-13512800D01*
X14465300Y-13411200D02*
X14363700Y-13512800D01*
X14414500Y-13411200D02*
X14414500Y-13512800D01*
X14363700Y-13462000D02*
X14465300Y-13462000D01*
X14363700Y-13665200D02*
X14465300Y-13766800D01*
X14465300Y-13665200D02*
X14363700Y-13766800D01*
X14414500Y-13665200D02*
X14414500Y-13766800D01*
X14363700Y-13716000D02*
X14465300Y-13716000D01*
X14363700Y-13919200D02*
X14465300Y-14020800D01*
X14465300Y-13919200D02*
X14363700Y-14020800D01*
X14414500Y-13919200D02*
X14414500Y-14020800D01*
X14363700Y-13970000D02*
X14465300Y-13970000D01*
X14363700Y-14173200D02*
X14465300Y-14274800D01*
X14465300Y-14173200D02*
X14363700Y-14274800D01*
X14414500Y-14173200D02*
X14414500Y-14274800D01*
X14363700Y-14224000D02*
X14465300Y-14224000D01*
X14363700Y-14427200D02*
X14465300Y-14528800D01*
X14465300Y-14427200D02*
X14363700Y-14528800D01*
X14414500Y-14427200D02*
X14414500Y-14528800D01*
X14363700Y-14478000D02*
X14465300Y-14478000D01*
X12518000Y-10613000D02*
X12628000Y-10723000D01*
X12628000Y-10613000D02*
X12518000Y-10723000D01*
X12611891Y-10706891D02*
X12611891Y-10629109D01*
X12534109Y-10629109D01*
X12534109Y-10706891D01*
X12611891Y-10706891D01*
X12772000Y-10613000D02*
X12882000Y-10723000D01*
X12882000Y-10613000D02*
X12772000Y-10723000D01*
X12865891Y-10706891D02*
X12865891Y-10629109D01*
X12788109Y-10629109D01*
X12788109Y-10706891D01*
X12865891Y-10706891D01*
X13026000Y-10613000D02*
X13136000Y-10723000D01*
X13136000Y-10613000D02*
X13026000Y-10723000D01*
X13119891Y-10706891D02*
X13119891Y-10629109D01*
X13042109Y-10629109D01*
X13042109Y-10706891D01*
X13119891Y-10706891D01*
X13280000Y-10613000D02*
X13390000Y-10723000D01*
X13390000Y-10613000D02*
X13280000Y-10723000D01*
X13373891Y-10706891D02*
X13373891Y-10629109D01*
X13296109Y-10629109D01*
X13296109Y-10706891D01*
X13373891Y-10706891D01*
D12*
X12218428Y-15648703D02*
X12218428Y-15348703D01*
X12289857Y-15348703D01*
X12332714Y-15362989D01*
X12361286Y-15391560D01*
X12375571Y-15420132D01*
X12389857Y-15477275D01*
X12389857Y-15520132D01*
X12375571Y-15577275D01*
X12361286Y-15605846D01*
X12332714Y-15634418D01*
X12289857Y-15648703D01*
X12218428Y-15648703D01*
X12518428Y-15648703D02*
X12518428Y-15448703D01*
X12518428Y-15505846D02*
X12532714Y-15477275D01*
X12547000Y-15462989D01*
X12575571Y-15448703D01*
X12604143Y-15448703D01*
X12704143Y-15648703D02*
X12704143Y-15448703D01*
X12704143Y-15348703D02*
X12689857Y-15362989D01*
X12704143Y-15377275D01*
X12718428Y-15362989D01*
X12704143Y-15348703D01*
X12704143Y-15377275D01*
X12889857Y-15648703D02*
X12861286Y-15634418D01*
X12847000Y-15605846D01*
X12847000Y-15348703D01*
X13047000Y-15648703D02*
X13018428Y-15634418D01*
X13004143Y-15605846D01*
X13004143Y-15348703D01*
X13389857Y-15648703D02*
X13389857Y-15348703D01*
X13489857Y-15562989D01*
X13589857Y-15348703D01*
X13589857Y-15648703D01*
X13861286Y-15648703D02*
X13861286Y-15491560D01*
X13847000Y-15462989D01*
X13818428Y-15448703D01*
X13761286Y-15448703D01*
X13732714Y-15462989D01*
X13861286Y-15634418D02*
X13832714Y-15648703D01*
X13761286Y-15648703D01*
X13732714Y-15634418D01*
X13718428Y-15605846D01*
X13718428Y-15577275D01*
X13732714Y-15548703D01*
X13761286Y-15534418D01*
X13832714Y-15534418D01*
X13861286Y-15520132D01*
X14004143Y-15448703D02*
X14004143Y-15748703D01*
X14004143Y-15462989D02*
X14032714Y-15448703D01*
X14089857Y-15448703D01*
X14118428Y-15462989D01*
X14132714Y-15477275D01*
X14147000Y-15505846D01*
X14147000Y-15591560D01*
X14132714Y-15620132D01*
X14118428Y-15634418D01*
X14089857Y-15648703D01*
X14032714Y-15648703D01*
X14004143Y-15634418D01*
X14275571Y-15620132D02*
X14289857Y-15634418D01*
X14275571Y-15648703D01*
X14261286Y-15634418D01*
X14275571Y-15620132D01*
X14275571Y-15648703D01*
X14275571Y-15462989D02*
X14289857Y-15477275D01*
X14275571Y-15491560D01*
X14261286Y-15477275D01*
X14275571Y-15462989D01*
X14275571Y-15491560D01*
X11882000Y-16117989D02*
X11932000Y-16167989D01*
X11932000Y-16117989D02*
X11882000Y-16167989D01*
X12275571Y-15978703D02*
X12304143Y-15978703D01*
X12332714Y-15992989D01*
X12347000Y-16007275D01*
X12361286Y-16035846D01*
X12375571Y-16092989D01*
X12375571Y-16164418D01*
X12361286Y-16221560D01*
X12347000Y-16250132D01*
X12332714Y-16264418D01*
X12304143Y-16278703D01*
X12275571Y-16278703D01*
X12247000Y-16264418D01*
X12232714Y-16250132D01*
X12218428Y-16221560D01*
X12204143Y-16164418D01*
X12204143Y-16092989D01*
X12218428Y-16035846D01*
X12232714Y-16007275D01*
X12247000Y-15992989D01*
X12275571Y-15978703D01*
X12504143Y-16250132D02*
X12518428Y-16264418D01*
X12504143Y-16278703D01*
X12489857Y-16264418D01*
X12504143Y-16250132D01*
X12504143Y-16278703D01*
X12789857Y-15978703D02*
X12647000Y-15978703D01*
X12632714Y-16121560D01*
X12647000Y-16107275D01*
X12675571Y-16092989D01*
X12747000Y-16092989D01*
X12775571Y-16107275D01*
X12789857Y-16121560D01*
X12804143Y-16150132D01*
X12804143Y-16221560D01*
X12789857Y-16250132D01*
X12775571Y-16264418D01*
X12747000Y-16278703D01*
X12675571Y-16278703D01*
X12647000Y-16264418D01*
X12632714Y-16250132D01*
X12989857Y-15978703D02*
X13018428Y-15978703D01*
X13047000Y-15992989D01*
X13061286Y-16007275D01*
X13075571Y-16035846D01*
X13089857Y-16092989D01*
X13089857Y-16164418D01*
X13075571Y-16221560D01*
X13061286Y-16250132D01*
X13047000Y-16264418D01*
X13018428Y-16278703D01*
X12989857Y-16278703D01*
X12961286Y-16264418D01*
X12947000Y-16250132D01*
X12932714Y-16221560D01*
X12918428Y-16164418D01*
X12918428Y-16092989D01*
X12932714Y-16035846D01*
X12947000Y-16007275D01*
X12961286Y-15992989D01*
X12989857Y-15978703D01*
X13218428Y-16278703D02*
X13218428Y-16078703D01*
X13218428Y-16107275D02*
X13232714Y-16092989D01*
X13261286Y-16078703D01*
X13304143Y-16078703D01*
X13332714Y-16092989D01*
X13347000Y-16121560D01*
X13347000Y-16278703D01*
X13347000Y-16121560D02*
X13361286Y-16092989D01*
X13389857Y-16078703D01*
X13432714Y-16078703D01*
X13461286Y-16092989D01*
X13475571Y-16121560D01*
X13475571Y-16278703D01*
X13618428Y-16278703D02*
X13618428Y-16078703D01*
X13618428Y-16107275D02*
X13632714Y-16092989D01*
X13661286Y-16078703D01*
X13704143Y-16078703D01*
X13732714Y-16092989D01*
X13747000Y-16121560D01*
X13747000Y-16278703D01*
X13747000Y-16121560D02*
X13761286Y-16092989D01*
X13789857Y-16078703D01*
X13832714Y-16078703D01*
X13861286Y-16092989D01*
X13875571Y-16121560D01*
X13875571Y-16278703D01*
X14461286Y-15964418D02*
X14204143Y-16350132D01*
X14847000Y-15978703D02*
X14875571Y-15978703D01*
X14904143Y-15992989D01*
X14918428Y-16007275D01*
X14932714Y-16035846D01*
X14947000Y-16092989D01*
X14947000Y-16164418D01*
X14932714Y-16221560D01*
X14918428Y-16250132D01*
X14904143Y-16264418D01*
X14875571Y-16278703D01*
X14847000Y-16278703D01*
X14818428Y-16264418D01*
X14804143Y-16250132D01*
X14789857Y-16221560D01*
X14775571Y-16164418D01*
X14775571Y-16092989D01*
X14789857Y-16035846D01*
X14804143Y-16007275D01*
X14818428Y-15992989D01*
X14847000Y-15978703D01*
X15075571Y-16250132D02*
X15089857Y-16264418D01*
X15075571Y-16278703D01*
X15061286Y-16264418D01*
X15075571Y-16250132D01*
X15075571Y-16278703D01*
X15275571Y-15978703D02*
X15304143Y-15978703D01*
X15332714Y-15992989D01*
X15347000Y-16007275D01*
X15361286Y-16035846D01*
X15375571Y-16092989D01*
X15375571Y-16164418D01*
X15361286Y-16221560D01*
X15347000Y-16250132D01*
X15332714Y-16264418D01*
X15304143Y-16278703D01*
X15275571Y-16278703D01*
X15247000Y-16264418D01*
X15232714Y-16250132D01*
X15218428Y-16221560D01*
X15204143Y-16164418D01*
X15204143Y-16092989D01*
X15218428Y-16035846D01*
X15232714Y-16007275D01*
X15247000Y-15992989D01*
X15275571Y-15978703D01*
X15489857Y-16007275D02*
X15504143Y-15992989D01*
X15532714Y-15978703D01*
X15604143Y-15978703D01*
X15632714Y-15992989D01*
X15647000Y-16007275D01*
X15661286Y-16035846D01*
X15661286Y-16064418D01*
X15647000Y-16107275D01*
X15475571Y-16278703D01*
X15661286Y-16278703D01*
X15847000Y-15978703D02*
X15875571Y-15978703D01*
X15904143Y-15992989D01*
X15918428Y-16007275D01*
X15932714Y-16035846D01*
X15947000Y-16092989D01*
X15947000Y-16164418D01*
X15932714Y-16221560D01*
X15918428Y-16250132D01*
X15904143Y-16264418D01*
X15875571Y-16278703D01*
X15847000Y-16278703D01*
X15818428Y-16264418D01*
X15804143Y-16250132D01*
X15789857Y-16221560D01*
X15775571Y-16164418D01*
X15775571Y-16092989D01*
X15789857Y-16035846D01*
X15804143Y-16007275D01*
X15818428Y-15992989D01*
X15847000Y-15978703D01*
X16061286Y-15978703D02*
X16061286Y-16035846D01*
X16175571Y-15978703D02*
X16175571Y-16035846D01*
X16618428Y-16392989D02*
X16604143Y-16378703D01*
X16575571Y-16335846D01*
X16561286Y-16307275D01*
X16547000Y-16264418D01*
X16532714Y-16192989D01*
X16532714Y-16135846D01*
X16547000Y-16064418D01*
X16561286Y-16021560D01*
X16575571Y-15992989D01*
X16604143Y-15950132D01*
X16618428Y-15935846D01*
X16861286Y-16078703D02*
X16861286Y-16278703D01*
X16789857Y-15964418D02*
X16718428Y-16178703D01*
X16904143Y-16178703D01*
X17247000Y-16278703D02*
X17247000Y-15978703D01*
X17375571Y-16278703D02*
X17375571Y-16121560D01*
X17361286Y-16092989D01*
X17332714Y-16078703D01*
X17289857Y-16078703D01*
X17261286Y-16092989D01*
X17247000Y-16107275D01*
X17561286Y-16278703D02*
X17532714Y-16264418D01*
X17518428Y-16250132D01*
X17504143Y-16221560D01*
X17504143Y-16135846D01*
X17518428Y-16107275D01*
X17532714Y-16092989D01*
X17561286Y-16078703D01*
X17604143Y-16078703D01*
X17632714Y-16092989D01*
X17647000Y-16107275D01*
X17661286Y-16135846D01*
X17661286Y-16221560D01*
X17647000Y-16250132D01*
X17632714Y-16264418D01*
X17604143Y-16278703D01*
X17561286Y-16278703D01*
X17832714Y-16278703D02*
X17804143Y-16264418D01*
X17789857Y-16235846D01*
X17789857Y-15978703D01*
X18061286Y-16264418D02*
X18032714Y-16278703D01*
X17975571Y-16278703D01*
X17947000Y-16264418D01*
X17932714Y-16235846D01*
X17932714Y-16121560D01*
X17947000Y-16092989D01*
X17975571Y-16078703D01*
X18032714Y-16078703D01*
X18061286Y-16092989D01*
X18075571Y-16121560D01*
X18075571Y-16150132D01*
X17932714Y-16178703D01*
X18189857Y-16264418D02*
X18218428Y-16278703D01*
X18275571Y-16278703D01*
X18304143Y-16264418D01*
X18318428Y-16235846D01*
X18318428Y-16221560D01*
X18304143Y-16192989D01*
X18275571Y-16178703D01*
X18232714Y-16178703D01*
X18204143Y-16164418D01*
X18189857Y-16135846D01*
X18189857Y-16121560D01*
X18204143Y-16092989D01*
X18232714Y-16078703D01*
X18275571Y-16078703D01*
X18304143Y-16092989D01*
X18418428Y-16392989D02*
X18432714Y-16378703D01*
X18461286Y-16335846D01*
X18475571Y-16307275D01*
X18489857Y-16264418D01*
X18504143Y-16192989D01*
X18504143Y-16135846D01*
X18489857Y-16064418D01*
X18475571Y-16021560D01*
X18461286Y-15992989D01*
X18432714Y-15950132D01*
X18418428Y-15935846D01*
X11932000Y-16538989D02*
G75*
G03X11932000Y-16538989I-35000J0D01*
G01*
X12275571Y-16374703D02*
X12304143Y-16374703D01*
X12332714Y-16388989D01*
X12347000Y-16403275D01*
X12361286Y-16431846D01*
X12375571Y-16488989D01*
X12375571Y-16560418D01*
X12361286Y-16617560D01*
X12347000Y-16646132D01*
X12332714Y-16660418D01*
X12304143Y-16674703D01*
X12275571Y-16674703D01*
X12247000Y-16660418D01*
X12232714Y-16646132D01*
X12218428Y-16617560D01*
X12204143Y-16560418D01*
X12204143Y-16488989D01*
X12218428Y-16431846D01*
X12232714Y-16403275D01*
X12247000Y-16388989D01*
X12275571Y-16374703D01*
X12504143Y-16646132D02*
X12518428Y-16660418D01*
X12504143Y-16674703D01*
X12489857Y-16660418D01*
X12504143Y-16646132D01*
X12504143Y-16674703D01*
X12618428Y-16374703D02*
X12818428Y-16374703D01*
X12689857Y-16674703D01*
X12989857Y-16374703D02*
X13018428Y-16374703D01*
X13047000Y-16388989D01*
X13061286Y-16403275D01*
X13075571Y-16431846D01*
X13089857Y-16488989D01*
X13089857Y-16560418D01*
X13075571Y-16617560D01*
X13061286Y-16646132D01*
X13047000Y-16660418D01*
X13018428Y-16674703D01*
X12989857Y-16674703D01*
X12961286Y-16660418D01*
X12947000Y-16646132D01*
X12932714Y-16617560D01*
X12918428Y-16560418D01*
X12918428Y-16488989D01*
X12932714Y-16431846D01*
X12947000Y-16403275D01*
X12961286Y-16388989D01*
X12989857Y-16374703D01*
X13218428Y-16674703D02*
X13218428Y-16474703D01*
X13218428Y-16503275D02*
X13232714Y-16488989D01*
X13261286Y-16474703D01*
X13304143Y-16474703D01*
X13332714Y-16488989D01*
X13347000Y-16517560D01*
X13347000Y-16674703D01*
X13347000Y-16517560D02*
X13361286Y-16488989D01*
X13389857Y-16474703D01*
X13432714Y-16474703D01*
X13461286Y-16488989D01*
X13475571Y-16517560D01*
X13475571Y-16674703D01*
X13618428Y-16674703D02*
X13618428Y-16474703D01*
X13618428Y-16503275D02*
X13632714Y-16488989D01*
X13661286Y-16474703D01*
X13704143Y-16474703D01*
X13732714Y-16488989D01*
X13747000Y-16517560D01*
X13747000Y-16674703D01*
X13747000Y-16517560D02*
X13761286Y-16488989D01*
X13789857Y-16474703D01*
X13832714Y-16474703D01*
X13861286Y-16488989D01*
X13875571Y-16517560D01*
X13875571Y-16674703D01*
X14461286Y-16360418D02*
X14204143Y-16746132D01*
X14847000Y-16374703D02*
X14875571Y-16374703D01*
X14904143Y-16388989D01*
X14918428Y-16403275D01*
X14932714Y-16431846D01*
X14947000Y-16488989D01*
X14947000Y-16560418D01*
X14932714Y-16617560D01*
X14918428Y-16646132D01*
X14904143Y-16660418D01*
X14875571Y-16674703D01*
X14847000Y-16674703D01*
X14818428Y-16660418D01*
X14804143Y-16646132D01*
X14789857Y-16617560D01*
X14775571Y-16560418D01*
X14775571Y-16488989D01*
X14789857Y-16431846D01*
X14804143Y-16403275D01*
X14818428Y-16388989D01*
X14847000Y-16374703D01*
X15075571Y-16646132D02*
X15089857Y-16660418D01*
X15075571Y-16674703D01*
X15061286Y-16660418D01*
X15075571Y-16646132D01*
X15075571Y-16674703D01*
X15275571Y-16374703D02*
X15304143Y-16374703D01*
X15332714Y-16388989D01*
X15347000Y-16403275D01*
X15361286Y-16431846D01*
X15375571Y-16488989D01*
X15375571Y-16560418D01*
X15361286Y-16617560D01*
X15347000Y-16646132D01*
X15332714Y-16660418D01*
X15304143Y-16674703D01*
X15275571Y-16674703D01*
X15247000Y-16660418D01*
X15232714Y-16646132D01*
X15218428Y-16617560D01*
X15204143Y-16560418D01*
X15204143Y-16488989D01*
X15218428Y-16431846D01*
X15232714Y-16403275D01*
X15247000Y-16388989D01*
X15275571Y-16374703D01*
X15489857Y-16403275D02*
X15504143Y-16388989D01*
X15532714Y-16374703D01*
X15604143Y-16374703D01*
X15632714Y-16388989D01*
X15647000Y-16403275D01*
X15661286Y-16431846D01*
X15661286Y-16460418D01*
X15647000Y-16503275D01*
X15475571Y-16674703D01*
X15661286Y-16674703D01*
X15832714Y-16503275D02*
X15804143Y-16488989D01*
X15789857Y-16474703D01*
X15775571Y-16446132D01*
X15775571Y-16431846D01*
X15789857Y-16403275D01*
X15804143Y-16388989D01*
X15832714Y-16374703D01*
X15889857Y-16374703D01*
X15918428Y-16388989D01*
X15932714Y-16403275D01*
X15947000Y-16431846D01*
X15947000Y-16446132D01*
X15932714Y-16474703D01*
X15918428Y-16488989D01*
X15889857Y-16503275D01*
X15832714Y-16503275D01*
X15804143Y-16517560D01*
X15789857Y-16531846D01*
X15775571Y-16560418D01*
X15775571Y-16617560D01*
X15789857Y-16646132D01*
X15804143Y-16660418D01*
X15832714Y-16674703D01*
X15889857Y-16674703D01*
X15918428Y-16660418D01*
X15932714Y-16646132D01*
X15947000Y-16617560D01*
X15947000Y-16560418D01*
X15932714Y-16531846D01*
X15918428Y-16517560D01*
X15889857Y-16503275D01*
X16061286Y-16374703D02*
X16061286Y-16431846D01*
X16175571Y-16374703D02*
X16175571Y-16431846D01*
X16618428Y-16788989D02*
X16604143Y-16774703D01*
X16575571Y-16731846D01*
X16561286Y-16703275D01*
X16547000Y-16660418D01*
X16532714Y-16588989D01*
X16532714Y-16531846D01*
X16547000Y-16460418D01*
X16561286Y-16417560D01*
X16575571Y-16388989D01*
X16604143Y-16346132D01*
X16618428Y-16331846D01*
X16889857Y-16674703D02*
X16718428Y-16674703D01*
X16804143Y-16674703D02*
X16804143Y-16374703D01*
X16775571Y-16417560D01*
X16747000Y-16446132D01*
X16718428Y-16460418D01*
X17175571Y-16674703D02*
X17004143Y-16674703D01*
X17089857Y-16674703D02*
X17089857Y-16374703D01*
X17061286Y-16417560D01*
X17032714Y-16446132D01*
X17004143Y-16460418D01*
X17532714Y-16674703D02*
X17532714Y-16374703D01*
X17661286Y-16674703D02*
X17661286Y-16517560D01*
X17647000Y-16488989D01*
X17618428Y-16474703D01*
X17575571Y-16474703D01*
X17547000Y-16488989D01*
X17532714Y-16503275D01*
X17847000Y-16674703D02*
X17818428Y-16660418D01*
X17804143Y-16646132D01*
X17789857Y-16617560D01*
X17789857Y-16531846D01*
X17804143Y-16503275D01*
X17818428Y-16488989D01*
X17847000Y-16474703D01*
X17889857Y-16474703D01*
X17918428Y-16488989D01*
X17932714Y-16503275D01*
X17947000Y-16531846D01*
X17947000Y-16617560D01*
X17932714Y-16646132D01*
X17918428Y-16660418D01*
X17889857Y-16674703D01*
X17847000Y-16674703D01*
X18118428Y-16674703D02*
X18089857Y-16660418D01*
X18075571Y-16631846D01*
X18075571Y-16374703D01*
X18347000Y-16660418D02*
X18318428Y-16674703D01*
X18261286Y-16674703D01*
X18232714Y-16660418D01*
X18218428Y-16631846D01*
X18218428Y-16517560D01*
X18232714Y-16488989D01*
X18261286Y-16474703D01*
X18318428Y-16474703D01*
X18347000Y-16488989D01*
X18361286Y-16517560D01*
X18361286Y-16546132D01*
X18218428Y-16574703D01*
X18475571Y-16660418D02*
X18504143Y-16674703D01*
X18561286Y-16674703D01*
X18589857Y-16660418D01*
X18604143Y-16631846D01*
X18604143Y-16617560D01*
X18589857Y-16588989D01*
X18561286Y-16574703D01*
X18518428Y-16574703D01*
X18489857Y-16560418D01*
X18475571Y-16531846D01*
X18475571Y-16517560D01*
X18489857Y-16488989D01*
X18518428Y-16474703D01*
X18561286Y-16474703D01*
X18589857Y-16488989D01*
X18704143Y-16788989D02*
X18718428Y-16774703D01*
X18747000Y-16731846D01*
X18761286Y-16703275D01*
X18775571Y-16660418D01*
X18789857Y-16588989D01*
X18789857Y-16531846D01*
X18775571Y-16460418D01*
X18761286Y-16417560D01*
X18747000Y-16388989D01*
X18718428Y-16346132D01*
X18704143Y-16331846D01*
X11894500Y-16897489D02*
X11894500Y-16972489D01*
X11857000Y-16934989D02*
X11932000Y-16934989D01*
X12275571Y-16770703D02*
X12304143Y-16770703D01*
X12332714Y-16784989D01*
X12347000Y-16799275D01*
X12361286Y-16827846D01*
X12375571Y-16884989D01*
X12375571Y-16956418D01*
X12361286Y-17013561D01*
X12347000Y-17042132D01*
X12332714Y-17056418D01*
X12304143Y-17070703D01*
X12275571Y-17070703D01*
X12247000Y-17056418D01*
X12232714Y-17042132D01*
X12218428Y-17013561D01*
X12204143Y-16956418D01*
X12204143Y-16884989D01*
X12218428Y-16827846D01*
X12232714Y-16799275D01*
X12247000Y-16784989D01*
X12275571Y-16770703D01*
X12504143Y-17042132D02*
X12518428Y-17056418D01*
X12504143Y-17070703D01*
X12489857Y-17056418D01*
X12504143Y-17042132D01*
X12504143Y-17070703D01*
X12618428Y-16770703D02*
X12818428Y-16770703D01*
X12689857Y-17070703D01*
X13075571Y-16770703D02*
X12932714Y-16770703D01*
X12918428Y-16913561D01*
X12932714Y-16899275D01*
X12961286Y-16884989D01*
X13032714Y-16884989D01*
X13061286Y-16899275D01*
X13075571Y-16913561D01*
X13089857Y-16942132D01*
X13089857Y-17013561D01*
X13075571Y-17042132D01*
X13061286Y-17056418D01*
X13032714Y-17070703D01*
X12961286Y-17070703D01*
X12932714Y-17056418D01*
X12918428Y-17042132D01*
X13218428Y-17070703D02*
X13218428Y-16870703D01*
X13218428Y-16899275D02*
X13232714Y-16884989D01*
X13261286Y-16870703D01*
X13304143Y-16870703D01*
X13332714Y-16884989D01*
X13347000Y-16913561D01*
X13347000Y-17070703D01*
X13347000Y-16913561D02*
X13361286Y-16884989D01*
X13389857Y-16870703D01*
X13432714Y-16870703D01*
X13461286Y-16884989D01*
X13475571Y-16913561D01*
X13475571Y-17070703D01*
X13618428Y-17070703D02*
X13618428Y-16870703D01*
X13618428Y-16899275D02*
X13632714Y-16884989D01*
X13661286Y-16870703D01*
X13704143Y-16870703D01*
X13732714Y-16884989D01*
X13747000Y-16913561D01*
X13747000Y-17070703D01*
X13747000Y-16913561D02*
X13761286Y-16884989D01*
X13789857Y-16870703D01*
X13832714Y-16870703D01*
X13861286Y-16884989D01*
X13875571Y-16913561D01*
X13875571Y-17070703D01*
X14461286Y-16756418D02*
X14204143Y-17142132D01*
X14847000Y-16770703D02*
X14875571Y-16770703D01*
X14904143Y-16784989D01*
X14918428Y-16799275D01*
X14932714Y-16827846D01*
X14947000Y-16884989D01*
X14947000Y-16956418D01*
X14932714Y-17013561D01*
X14918428Y-17042132D01*
X14904143Y-17056418D01*
X14875571Y-17070703D01*
X14847000Y-17070703D01*
X14818428Y-17056418D01*
X14804143Y-17042132D01*
X14789857Y-17013561D01*
X14775571Y-16956418D01*
X14775571Y-16884989D01*
X14789857Y-16827846D01*
X14804143Y-16799275D01*
X14818428Y-16784989D01*
X14847000Y-16770703D01*
X15075571Y-17042132D02*
X15089857Y-17056418D01*
X15075571Y-17070703D01*
X15061286Y-17056418D01*
X15075571Y-17042132D01*
X15075571Y-17070703D01*
X15275571Y-16770703D02*
X15304143Y-16770703D01*
X15332714Y-16784989D01*
X15347000Y-16799275D01*
X15361286Y-16827846D01*
X15375571Y-16884989D01*
X15375571Y-16956418D01*
X15361286Y-17013561D01*
X15347000Y-17042132D01*
X15332714Y-17056418D01*
X15304143Y-17070703D01*
X15275571Y-17070703D01*
X15247000Y-17056418D01*
X15232714Y-17042132D01*
X15218428Y-17013561D01*
X15204143Y-16956418D01*
X15204143Y-16884989D01*
X15218428Y-16827846D01*
X15232714Y-16799275D01*
X15247000Y-16784989D01*
X15275571Y-16770703D01*
X15475571Y-16770703D02*
X15661286Y-16770703D01*
X15561286Y-16884989D01*
X15604143Y-16884989D01*
X15632714Y-16899275D01*
X15647000Y-16913561D01*
X15661286Y-16942132D01*
X15661286Y-17013561D01*
X15647000Y-17042132D01*
X15632714Y-17056418D01*
X15604143Y-17070703D01*
X15518428Y-17070703D01*
X15489857Y-17056418D01*
X15475571Y-17042132D01*
X15847000Y-16770703D02*
X15875571Y-16770703D01*
X15904143Y-16784989D01*
X15918428Y-16799275D01*
X15932714Y-16827846D01*
X15947000Y-16884989D01*
X15947000Y-16956418D01*
X15932714Y-17013561D01*
X15918428Y-17042132D01*
X15904143Y-17056418D01*
X15875571Y-17070703D01*
X15847000Y-17070703D01*
X15818428Y-17056418D01*
X15804143Y-17042132D01*
X15789857Y-17013561D01*
X15775571Y-16956418D01*
X15775571Y-16884989D01*
X15789857Y-16827846D01*
X15804143Y-16799275D01*
X15818428Y-16784989D01*
X15847000Y-16770703D01*
X16061286Y-16770703D02*
X16061286Y-16827846D01*
X16175571Y-16770703D02*
X16175571Y-16827846D01*
X16618428Y-17184989D02*
X16604143Y-17170703D01*
X16575571Y-17127846D01*
X16561286Y-17099275D01*
X16547000Y-17056418D01*
X16532714Y-16984989D01*
X16532714Y-16927846D01*
X16547000Y-16856418D01*
X16561286Y-16813561D01*
X16575571Y-16784989D01*
X16604143Y-16742132D01*
X16618428Y-16727846D01*
X16861286Y-16770703D02*
X16804143Y-16770703D01*
X16775571Y-16784989D01*
X16761286Y-16799275D01*
X16732714Y-16842132D01*
X16718428Y-16899275D01*
X16718428Y-17013561D01*
X16732714Y-17042132D01*
X16747000Y-17056418D01*
X16775571Y-17070703D01*
X16832714Y-17070703D01*
X16861286Y-17056418D01*
X16875571Y-17042132D01*
X16889857Y-17013561D01*
X16889857Y-16942132D01*
X16875571Y-16913561D01*
X16861286Y-16899275D01*
X16832714Y-16884989D01*
X16775571Y-16884989D01*
X16747000Y-16899275D01*
X16732714Y-16913561D01*
X16718428Y-16942132D01*
X17247000Y-17070703D02*
X17247000Y-16770703D01*
X17375571Y-17070703D02*
X17375571Y-16913561D01*
X17361286Y-16884989D01*
X17332714Y-16870703D01*
X17289857Y-16870703D01*
X17261286Y-16884989D01*
X17247000Y-16899275D01*
X17561286Y-17070703D02*
X17532714Y-17056418D01*
X17518428Y-17042132D01*
X17504143Y-17013561D01*
X17504143Y-16927846D01*
X17518428Y-16899275D01*
X17532714Y-16884989D01*
X17561286Y-16870703D01*
X17604143Y-16870703D01*
X17632714Y-16884989D01*
X17647000Y-16899275D01*
X17661286Y-16927846D01*
X17661286Y-17013561D01*
X17647000Y-17042132D01*
X17632714Y-17056418D01*
X17604143Y-17070703D01*
X17561286Y-17070703D01*
X17832714Y-17070703D02*
X17804143Y-17056418D01*
X17789857Y-17027846D01*
X17789857Y-16770703D01*
X18061286Y-17056418D02*
X18032714Y-17070703D01*
X17975571Y-17070703D01*
X17947000Y-17056418D01*
X17932714Y-17027846D01*
X17932714Y-16913561D01*
X17947000Y-16884989D01*
X17975571Y-16870703D01*
X18032714Y-16870703D01*
X18061286Y-16884989D01*
X18075571Y-16913561D01*
X18075571Y-16942132D01*
X17932714Y-16970703D01*
X18189857Y-17056418D02*
X18218428Y-17070703D01*
X18275571Y-17070703D01*
X18304143Y-17056418D01*
X18318428Y-17027846D01*
X18318428Y-17013561D01*
X18304143Y-16984989D01*
X18275571Y-16970703D01*
X18232714Y-16970703D01*
X18204143Y-16956418D01*
X18189857Y-16927846D01*
X18189857Y-16913561D01*
X18204143Y-16884989D01*
X18232714Y-16870703D01*
X18275571Y-16870703D01*
X18304143Y-16884989D01*
X18418428Y-17184989D02*
X18432714Y-17170703D01*
X18461286Y-17127846D01*
X18475571Y-17099275D01*
X18489857Y-17056418D01*
X18504143Y-16984989D01*
X18504143Y-16927846D01*
X18489857Y-16856418D01*
X18475571Y-16813561D01*
X18461286Y-16784989D01*
X18432714Y-16742132D01*
X18418428Y-16727846D01*
X11920284Y-17359274D02*
X11920284Y-17302705D01*
X11863715Y-17302705D01*
X11863715Y-17359274D01*
X11920284Y-17359274D01*
X12275571Y-17166703D02*
X12304143Y-17166703D01*
X12332714Y-17180989D01*
X12347000Y-17195275D01*
X12361286Y-17223846D01*
X12375571Y-17280989D01*
X12375571Y-17352418D01*
X12361286Y-17409561D01*
X12347000Y-17438132D01*
X12332714Y-17452418D01*
X12304143Y-17466703D01*
X12275571Y-17466703D01*
X12247000Y-17452418D01*
X12232714Y-17438132D01*
X12218428Y-17409561D01*
X12204143Y-17352418D01*
X12204143Y-17280989D01*
X12218428Y-17223846D01*
X12232714Y-17195275D01*
X12247000Y-17180989D01*
X12275571Y-17166703D01*
X12504143Y-17438132D02*
X12518428Y-17452418D01*
X12504143Y-17466703D01*
X12489857Y-17452418D01*
X12504143Y-17438132D01*
X12504143Y-17466703D01*
X12689857Y-17295275D02*
X12661286Y-17280989D01*
X12647000Y-17266703D01*
X12632714Y-17238132D01*
X12632714Y-17223846D01*
X12647000Y-17195275D01*
X12661286Y-17180989D01*
X12689857Y-17166703D01*
X12747000Y-17166703D01*
X12775571Y-17180989D01*
X12789857Y-17195275D01*
X12804143Y-17223846D01*
X12804143Y-17238132D01*
X12789857Y-17266703D01*
X12775571Y-17280989D01*
X12747000Y-17295275D01*
X12689857Y-17295275D01*
X12661286Y-17309561D01*
X12647000Y-17323846D01*
X12632714Y-17352418D01*
X12632714Y-17409561D01*
X12647000Y-17438132D01*
X12661286Y-17452418D01*
X12689857Y-17466703D01*
X12747000Y-17466703D01*
X12775571Y-17452418D01*
X12789857Y-17438132D01*
X12804143Y-17409561D01*
X12804143Y-17352418D01*
X12789857Y-17323846D01*
X12775571Y-17309561D01*
X12747000Y-17295275D01*
X12989857Y-17166703D02*
X13018428Y-17166703D01*
X13047000Y-17180989D01*
X13061286Y-17195275D01*
X13075571Y-17223846D01*
X13089857Y-17280989D01*
X13089857Y-17352418D01*
X13075571Y-17409561D01*
X13061286Y-17438132D01*
X13047000Y-17452418D01*
X13018428Y-17466703D01*
X12989857Y-17466703D01*
X12961286Y-17452418D01*
X12947000Y-17438132D01*
X12932714Y-17409561D01*
X12918428Y-17352418D01*
X12918428Y-17280989D01*
X12932714Y-17223846D01*
X12947000Y-17195275D01*
X12961286Y-17180989D01*
X12989857Y-17166703D01*
X13218428Y-17466703D02*
X13218428Y-17266703D01*
X13218428Y-17295275D02*
X13232714Y-17280989D01*
X13261286Y-17266703D01*
X13304143Y-17266703D01*
X13332714Y-17280989D01*
X13347000Y-17309561D01*
X13347000Y-17466703D01*
X13347000Y-17309561D02*
X13361286Y-17280989D01*
X13389857Y-17266703D01*
X13432714Y-17266703D01*
X13461286Y-17280989D01*
X13475571Y-17309561D01*
X13475571Y-17466703D01*
X13618428Y-17466703D02*
X13618428Y-17266703D01*
X13618428Y-17295275D02*
X13632714Y-17280989D01*
X13661286Y-17266703D01*
X13704143Y-17266703D01*
X13732714Y-17280989D01*
X13747000Y-17309561D01*
X13747000Y-17466703D01*
X13747000Y-17309561D02*
X13761286Y-17280989D01*
X13789857Y-17266703D01*
X13832714Y-17266703D01*
X13861286Y-17280989D01*
X13875571Y-17309561D01*
X13875571Y-17466703D01*
X14461286Y-17152418D02*
X14204143Y-17538132D01*
X14847000Y-17166703D02*
X14875571Y-17166703D01*
X14904143Y-17180989D01*
X14918428Y-17195275D01*
X14932714Y-17223846D01*
X14947000Y-17280989D01*
X14947000Y-17352418D01*
X14932714Y-17409561D01*
X14918428Y-17438132D01*
X14904143Y-17452418D01*
X14875571Y-17466703D01*
X14847000Y-17466703D01*
X14818428Y-17452418D01*
X14804143Y-17438132D01*
X14789857Y-17409561D01*
X14775571Y-17352418D01*
X14775571Y-17280989D01*
X14789857Y-17223846D01*
X14804143Y-17195275D01*
X14818428Y-17180989D01*
X14847000Y-17166703D01*
X15075571Y-17438132D02*
X15089857Y-17452418D01*
X15075571Y-17466703D01*
X15061286Y-17452418D01*
X15075571Y-17438132D01*
X15075571Y-17466703D01*
X15275571Y-17166703D02*
X15304143Y-17166703D01*
X15332714Y-17180989D01*
X15347000Y-17195275D01*
X15361286Y-17223846D01*
X15375571Y-17280989D01*
X15375571Y-17352418D01*
X15361286Y-17409561D01*
X15347000Y-17438132D01*
X15332714Y-17452418D01*
X15304143Y-17466703D01*
X15275571Y-17466703D01*
X15247000Y-17452418D01*
X15232714Y-17438132D01*
X15218428Y-17409561D01*
X15204143Y-17352418D01*
X15204143Y-17280989D01*
X15218428Y-17223846D01*
X15232714Y-17195275D01*
X15247000Y-17180989D01*
X15275571Y-17166703D01*
X15475571Y-17166703D02*
X15661286Y-17166703D01*
X15561286Y-17280989D01*
X15604143Y-17280989D01*
X15632714Y-17295275D01*
X15647000Y-17309561D01*
X15661286Y-17338132D01*
X15661286Y-17409561D01*
X15647000Y-17438132D01*
X15632714Y-17452418D01*
X15604143Y-17466703D01*
X15518428Y-17466703D01*
X15489857Y-17452418D01*
X15475571Y-17438132D01*
X15947000Y-17466703D02*
X15775571Y-17466703D01*
X15861286Y-17466703D02*
X15861286Y-17166703D01*
X15832714Y-17209561D01*
X15804143Y-17238132D01*
X15775571Y-17252418D01*
X16061286Y-17166703D02*
X16061286Y-17223846D01*
X16175571Y-17166703D02*
X16175571Y-17223846D01*
X16618428Y-17580989D02*
X16604143Y-17566703D01*
X16575571Y-17523846D01*
X16561286Y-17495275D01*
X16547000Y-17452418D01*
X16532714Y-17380989D01*
X16532714Y-17323846D01*
X16547000Y-17252418D01*
X16561286Y-17209561D01*
X16575571Y-17180989D01*
X16604143Y-17138132D01*
X16618428Y-17123846D01*
X16718428Y-17195275D02*
X16732714Y-17180989D01*
X16761286Y-17166703D01*
X16832714Y-17166703D01*
X16861286Y-17180989D01*
X16875571Y-17195275D01*
X16889857Y-17223846D01*
X16889857Y-17252418D01*
X16875571Y-17295275D01*
X16704143Y-17466703D01*
X16889857Y-17466703D01*
X17247000Y-17466703D02*
X17247000Y-17166703D01*
X17375571Y-17466703D02*
X17375571Y-17309561D01*
X17361286Y-17280989D01*
X17332714Y-17266703D01*
X17289857Y-17266703D01*
X17261286Y-17280989D01*
X17247000Y-17295275D01*
X17561286Y-17466703D02*
X17532714Y-17452418D01*
X17518428Y-17438132D01*
X17504143Y-17409561D01*
X17504143Y-17323846D01*
X17518428Y-17295275D01*
X17532714Y-17280989D01*
X17561286Y-17266703D01*
X17604143Y-17266703D01*
X17632714Y-17280989D01*
X17647000Y-17295275D01*
X17661286Y-17323846D01*
X17661286Y-17409561D01*
X17647000Y-17438132D01*
X17632714Y-17452418D01*
X17604143Y-17466703D01*
X17561286Y-17466703D01*
X17832714Y-17466703D02*
X17804143Y-17452418D01*
X17789857Y-17423846D01*
X17789857Y-17166703D01*
X18061286Y-17452418D02*
X18032714Y-17466703D01*
X17975571Y-17466703D01*
X17947000Y-17452418D01*
X17932714Y-17423846D01*
X17932714Y-17309561D01*
X17947000Y-17280989D01*
X17975571Y-17266703D01*
X18032714Y-17266703D01*
X18061286Y-17280989D01*
X18075571Y-17309561D01*
X18075571Y-17338132D01*
X17932714Y-17366703D01*
X18189857Y-17452418D02*
X18218428Y-17466703D01*
X18275571Y-17466703D01*
X18304143Y-17452418D01*
X18318428Y-17423846D01*
X18318428Y-17409561D01*
X18304143Y-17380989D01*
X18275571Y-17366703D01*
X18232714Y-17366703D01*
X18204143Y-17352418D01*
X18189857Y-17323846D01*
X18189857Y-17309561D01*
X18204143Y-17280989D01*
X18232714Y-17266703D01*
X18275571Y-17266703D01*
X18304143Y-17280989D01*
X18418428Y-17580989D02*
X18432714Y-17566703D01*
X18461286Y-17523846D01*
X18475571Y-17495275D01*
X18489857Y-17452418D01*
X18504143Y-17380989D01*
X18504143Y-17323846D01*
X18489857Y-17252418D01*
X18475571Y-17209561D01*
X18461286Y-17180989D01*
X18432714Y-17138132D01*
X18418428Y-17123846D01*
X11887000Y-17771989D02*
X11932000Y-17726989D01*
X11887000Y-17681989D01*
X11842000Y-17726989D01*
X11887000Y-17771989D01*
X12275571Y-17562703D02*
X12304143Y-17562703D01*
X12332714Y-17576989D01*
X12347000Y-17591275D01*
X12361286Y-17619846D01*
X12375571Y-17676989D01*
X12375571Y-17748418D01*
X12361286Y-17805561D01*
X12347000Y-17834132D01*
X12332714Y-17848418D01*
X12304143Y-17862703D01*
X12275571Y-17862703D01*
X12247000Y-17848418D01*
X12232714Y-17834132D01*
X12218428Y-17805561D01*
X12204143Y-17748418D01*
X12204143Y-17676989D01*
X12218428Y-17619846D01*
X12232714Y-17591275D01*
X12247000Y-17576989D01*
X12275571Y-17562703D01*
X12504143Y-17834132D02*
X12518428Y-17848418D01*
X12504143Y-17862703D01*
X12489857Y-17848418D01*
X12504143Y-17834132D01*
X12504143Y-17862703D01*
X12661286Y-17862703D02*
X12718428Y-17862703D01*
X12747000Y-17848418D01*
X12761286Y-17834132D01*
X12789857Y-17791275D01*
X12804143Y-17734132D01*
X12804143Y-17619846D01*
X12789857Y-17591275D01*
X12775571Y-17576989D01*
X12747000Y-17562703D01*
X12689857Y-17562703D01*
X12661286Y-17576989D01*
X12647000Y-17591275D01*
X12632714Y-17619846D01*
X12632714Y-17691275D01*
X12647000Y-17719846D01*
X12661286Y-17734132D01*
X12689857Y-17748418D01*
X12747000Y-17748418D01*
X12775571Y-17734132D01*
X12789857Y-17719846D01*
X12804143Y-17691275D01*
X12989857Y-17562703D02*
X13018428Y-17562703D01*
X13047000Y-17576989D01*
X13061286Y-17591275D01*
X13075571Y-17619846D01*
X13089857Y-17676989D01*
X13089857Y-17748418D01*
X13075571Y-17805561D01*
X13061286Y-17834132D01*
X13047000Y-17848418D01*
X13018428Y-17862703D01*
X12989857Y-17862703D01*
X12961286Y-17848418D01*
X12947000Y-17834132D01*
X12932714Y-17805561D01*
X12918428Y-17748418D01*
X12918428Y-17676989D01*
X12932714Y-17619846D01*
X12947000Y-17591275D01*
X12961286Y-17576989D01*
X12989857Y-17562703D01*
X13218428Y-17862703D02*
X13218428Y-17662703D01*
X13218428Y-17691275D02*
X13232714Y-17676989D01*
X13261286Y-17662703D01*
X13304143Y-17662703D01*
X13332714Y-17676989D01*
X13347000Y-17705561D01*
X13347000Y-17862703D01*
X13347000Y-17705561D02*
X13361286Y-17676989D01*
X13389857Y-17662703D01*
X13432714Y-17662703D01*
X13461286Y-17676989D01*
X13475571Y-17705561D01*
X13475571Y-17862703D01*
X13618428Y-17862703D02*
X13618428Y-17662703D01*
X13618428Y-17691275D02*
X13632714Y-17676989D01*
X13661286Y-17662703D01*
X13704143Y-17662703D01*
X13732714Y-17676989D01*
X13747000Y-17705561D01*
X13747000Y-17862703D01*
X13747000Y-17705561D02*
X13761286Y-17676989D01*
X13789857Y-17662703D01*
X13832714Y-17662703D01*
X13861286Y-17676989D01*
X13875571Y-17705561D01*
X13875571Y-17862703D01*
X14461286Y-17548418D02*
X14204143Y-17934132D01*
X14847000Y-17562703D02*
X14875571Y-17562703D01*
X14904143Y-17576989D01*
X14918428Y-17591275D01*
X14932714Y-17619846D01*
X14947000Y-17676989D01*
X14947000Y-17748418D01*
X14932714Y-17805561D01*
X14918428Y-17834132D01*
X14904143Y-17848418D01*
X14875571Y-17862703D01*
X14847000Y-17862703D01*
X14818428Y-17848418D01*
X14804143Y-17834132D01*
X14789857Y-17805561D01*
X14775571Y-17748418D01*
X14775571Y-17676989D01*
X14789857Y-17619846D01*
X14804143Y-17591275D01*
X14818428Y-17576989D01*
X14847000Y-17562703D01*
X15075571Y-17834132D02*
X15089857Y-17848418D01*
X15075571Y-17862703D01*
X15061286Y-17848418D01*
X15075571Y-17834132D01*
X15075571Y-17862703D01*
X15275571Y-17562703D02*
X15304143Y-17562703D01*
X15332714Y-17576989D01*
X15347000Y-17591275D01*
X15361286Y-17619846D01*
X15375571Y-17676989D01*
X15375571Y-17748418D01*
X15361286Y-17805561D01*
X15347000Y-17834132D01*
X15332714Y-17848418D01*
X15304143Y-17862703D01*
X15275571Y-17862703D01*
X15247000Y-17848418D01*
X15232714Y-17834132D01*
X15218428Y-17805561D01*
X15204143Y-17748418D01*
X15204143Y-17676989D01*
X15218428Y-17619846D01*
X15232714Y-17591275D01*
X15247000Y-17576989D01*
X15275571Y-17562703D01*
X15475571Y-17562703D02*
X15661286Y-17562703D01*
X15561286Y-17676989D01*
X15604143Y-17676989D01*
X15632714Y-17691275D01*
X15647000Y-17705561D01*
X15661286Y-17734132D01*
X15661286Y-17805561D01*
X15647000Y-17834132D01*
X15632714Y-17848418D01*
X15604143Y-17862703D01*
X15518428Y-17862703D01*
X15489857Y-17848418D01*
X15475571Y-17834132D01*
X15932714Y-17562703D02*
X15789857Y-17562703D01*
X15775571Y-17705561D01*
X15789857Y-17691275D01*
X15818428Y-17676989D01*
X15889857Y-17676989D01*
X15918428Y-17691275D01*
X15932714Y-17705561D01*
X15947000Y-17734132D01*
X15947000Y-17805561D01*
X15932714Y-17834132D01*
X15918428Y-17848418D01*
X15889857Y-17862703D01*
X15818428Y-17862703D01*
X15789857Y-17848418D01*
X15775571Y-17834132D01*
X16061286Y-17562703D02*
X16061286Y-17619846D01*
X16175571Y-17562703D02*
X16175571Y-17619846D01*
X16618428Y-17976989D02*
X16604143Y-17962703D01*
X16575571Y-17919846D01*
X16561286Y-17891275D01*
X16547000Y-17848418D01*
X16532714Y-17776989D01*
X16532714Y-17719846D01*
X16547000Y-17648418D01*
X16561286Y-17605561D01*
X16575571Y-17576989D01*
X16604143Y-17534132D01*
X16618428Y-17519846D01*
X16718428Y-17591275D02*
X16732714Y-17576989D01*
X16761286Y-17562703D01*
X16832714Y-17562703D01*
X16861286Y-17576989D01*
X16875571Y-17591275D01*
X16889857Y-17619846D01*
X16889857Y-17648418D01*
X16875571Y-17691275D01*
X16704143Y-17862703D01*
X16889857Y-17862703D01*
X17247000Y-17862703D02*
X17247000Y-17562703D01*
X17375571Y-17862703D02*
X17375571Y-17705561D01*
X17361286Y-17676989D01*
X17332714Y-17662703D01*
X17289857Y-17662703D01*
X17261286Y-17676989D01*
X17247000Y-17691275D01*
X17561286Y-17862703D02*
X17532714Y-17848418D01*
X17518428Y-17834132D01*
X17504143Y-17805561D01*
X17504143Y-17719846D01*
X17518428Y-17691275D01*
X17532714Y-17676989D01*
X17561286Y-17662703D01*
X17604143Y-17662703D01*
X17632714Y-17676989D01*
X17647000Y-17691275D01*
X17661286Y-17719846D01*
X17661286Y-17805561D01*
X17647000Y-17834132D01*
X17632714Y-17848418D01*
X17604143Y-17862703D01*
X17561286Y-17862703D01*
X17832714Y-17862703D02*
X17804143Y-17848418D01*
X17789857Y-17819846D01*
X17789857Y-17562703D01*
X18061286Y-17848418D02*
X18032714Y-17862703D01*
X17975571Y-17862703D01*
X17947000Y-17848418D01*
X17932714Y-17819846D01*
X17932714Y-17705561D01*
X17947000Y-17676989D01*
X17975571Y-17662703D01*
X18032714Y-17662703D01*
X18061286Y-17676989D01*
X18075571Y-17705561D01*
X18075571Y-17734132D01*
X17932714Y-17762703D01*
X18189857Y-17848418D02*
X18218428Y-17862703D01*
X18275571Y-17862703D01*
X18304143Y-17848418D01*
X18318428Y-17819846D01*
X18318428Y-17805561D01*
X18304143Y-17776989D01*
X18275571Y-17762703D01*
X18232714Y-17762703D01*
X18204143Y-17748418D01*
X18189857Y-17719846D01*
X18189857Y-17705561D01*
X18204143Y-17676989D01*
X18232714Y-17662703D01*
X18275571Y-17662703D01*
X18304143Y-17676989D01*
X18418428Y-17976989D02*
X18432714Y-17962703D01*
X18461286Y-17919846D01*
X18475571Y-17891275D01*
X18489857Y-17848418D01*
X18504143Y-17776989D01*
X18504143Y-17719846D01*
X18489857Y-17648418D01*
X18475571Y-17605561D01*
X18461286Y-17576989D01*
X18432714Y-17534132D01*
X18418428Y-17519846D01*
X11832000Y-18072989D02*
X11932000Y-18172989D01*
X11932000Y-18072989D02*
X11832000Y-18172989D01*
X11932000Y-18122989D02*
G75*
G03X11932000Y-18122989I-50000J0D01*
G01*
X12375571Y-18258703D02*
X12204143Y-18258703D01*
X12289857Y-18258703D02*
X12289857Y-17958703D01*
X12261286Y-18001561D01*
X12232714Y-18030132D01*
X12204143Y-18044418D01*
X12504143Y-18230132D02*
X12518428Y-18244418D01*
X12504143Y-18258703D01*
X12489857Y-18244418D01*
X12504143Y-18230132D01*
X12504143Y-18258703D01*
X12704143Y-17958703D02*
X12732714Y-17958703D01*
X12761286Y-17972989D01*
X12775571Y-17987275D01*
X12789857Y-18015846D01*
X12804143Y-18072989D01*
X12804143Y-18144418D01*
X12789857Y-18201561D01*
X12775571Y-18230132D01*
X12761286Y-18244418D01*
X12732714Y-18258703D01*
X12704143Y-18258703D01*
X12675571Y-18244418D01*
X12661286Y-18230132D01*
X12647000Y-18201561D01*
X12632714Y-18144418D01*
X12632714Y-18072989D01*
X12647000Y-18015846D01*
X12661286Y-17987275D01*
X12675571Y-17972989D01*
X12704143Y-17958703D01*
X12989857Y-17958703D02*
X13018428Y-17958703D01*
X13047000Y-17972989D01*
X13061286Y-17987275D01*
X13075571Y-18015846D01*
X13089857Y-18072989D01*
X13089857Y-18144418D01*
X13075571Y-18201561D01*
X13061286Y-18230132D01*
X13047000Y-18244418D01*
X13018428Y-18258703D01*
X12989857Y-18258703D01*
X12961286Y-18244418D01*
X12947000Y-18230132D01*
X12932714Y-18201561D01*
X12918428Y-18144418D01*
X12918428Y-18072989D01*
X12932714Y-18015846D01*
X12947000Y-17987275D01*
X12961286Y-17972989D01*
X12989857Y-17958703D01*
X13218428Y-18258703D02*
X13218428Y-18058703D01*
X13218428Y-18087275D02*
X13232714Y-18072989D01*
X13261286Y-18058703D01*
X13304143Y-18058703D01*
X13332714Y-18072989D01*
X13347000Y-18101561D01*
X13347000Y-18258703D01*
X13347000Y-18101561D02*
X13361286Y-18072989D01*
X13389857Y-18058703D01*
X13432714Y-18058703D01*
X13461286Y-18072989D01*
X13475571Y-18101561D01*
X13475571Y-18258703D01*
X13618428Y-18258703D02*
X13618428Y-18058703D01*
X13618428Y-18087275D02*
X13632714Y-18072989D01*
X13661286Y-18058703D01*
X13704143Y-18058703D01*
X13732714Y-18072989D01*
X13747000Y-18101561D01*
X13747000Y-18258703D01*
X13747000Y-18101561D02*
X13761286Y-18072989D01*
X13789857Y-18058703D01*
X13832714Y-18058703D01*
X13861286Y-18072989D01*
X13875571Y-18101561D01*
X13875571Y-18258703D01*
X14461286Y-17944418D02*
X14204143Y-18330132D01*
X14847000Y-17958703D02*
X14875571Y-17958703D01*
X14904143Y-17972989D01*
X14918428Y-17987275D01*
X14932714Y-18015846D01*
X14947000Y-18072989D01*
X14947000Y-18144418D01*
X14932714Y-18201561D01*
X14918428Y-18230132D01*
X14904143Y-18244418D01*
X14875571Y-18258703D01*
X14847000Y-18258703D01*
X14818428Y-18244418D01*
X14804143Y-18230132D01*
X14789857Y-18201561D01*
X14775571Y-18144418D01*
X14775571Y-18072989D01*
X14789857Y-18015846D01*
X14804143Y-17987275D01*
X14818428Y-17972989D01*
X14847000Y-17958703D01*
X15075571Y-18230132D02*
X15089857Y-18244418D01*
X15075571Y-18258703D01*
X15061286Y-18244418D01*
X15075571Y-18230132D01*
X15075571Y-18258703D01*
X15275571Y-17958703D02*
X15304143Y-17958703D01*
X15332714Y-17972989D01*
X15347000Y-17987275D01*
X15361286Y-18015846D01*
X15375571Y-18072989D01*
X15375571Y-18144418D01*
X15361286Y-18201561D01*
X15347000Y-18230132D01*
X15332714Y-18244418D01*
X15304143Y-18258703D01*
X15275571Y-18258703D01*
X15247000Y-18244418D01*
X15232714Y-18230132D01*
X15218428Y-18201561D01*
X15204143Y-18144418D01*
X15204143Y-18072989D01*
X15218428Y-18015846D01*
X15232714Y-17987275D01*
X15247000Y-17972989D01*
X15275571Y-17958703D01*
X15475571Y-17958703D02*
X15661286Y-17958703D01*
X15561286Y-18072989D01*
X15604143Y-18072989D01*
X15632714Y-18087275D01*
X15647000Y-18101561D01*
X15661286Y-18130132D01*
X15661286Y-18201561D01*
X15647000Y-18230132D01*
X15632714Y-18244418D01*
X15604143Y-18258703D01*
X15518428Y-18258703D01*
X15489857Y-18244418D01*
X15475571Y-18230132D01*
X15804143Y-18258703D02*
X15861286Y-18258703D01*
X15889857Y-18244418D01*
X15904143Y-18230132D01*
X15932714Y-18187275D01*
X15947000Y-18130132D01*
X15947000Y-18015846D01*
X15932714Y-17987275D01*
X15918428Y-17972989D01*
X15889857Y-17958703D01*
X15832714Y-17958703D01*
X15804143Y-17972989D01*
X15789857Y-17987275D01*
X15775571Y-18015846D01*
X15775571Y-18087275D01*
X15789857Y-18115846D01*
X15804143Y-18130132D01*
X15832714Y-18144418D01*
X15889857Y-18144418D01*
X15918428Y-18130132D01*
X15932714Y-18115846D01*
X15947000Y-18087275D01*
X16061286Y-17958703D02*
X16061286Y-18015846D01*
X16175571Y-17958703D02*
X16175571Y-18015846D01*
X16618428Y-18372989D02*
X16604143Y-18358703D01*
X16575571Y-18315846D01*
X16561286Y-18287275D01*
X16547000Y-18244418D01*
X16532714Y-18172989D01*
X16532714Y-18115846D01*
X16547000Y-18044418D01*
X16561286Y-18001561D01*
X16575571Y-17972989D01*
X16604143Y-17930132D01*
X16618428Y-17915846D01*
X16718428Y-17987275D02*
X16732714Y-17972989D01*
X16761286Y-17958703D01*
X16832714Y-17958703D01*
X16861286Y-17972989D01*
X16875571Y-17987275D01*
X16889857Y-18015846D01*
X16889857Y-18044418D01*
X16875571Y-18087275D01*
X16704143Y-18258703D01*
X16889857Y-18258703D01*
X17075571Y-17958703D02*
X17104143Y-17958703D01*
X17132714Y-17972989D01*
X17147000Y-17987275D01*
X17161286Y-18015846D01*
X17175571Y-18072989D01*
X17175571Y-18144418D01*
X17161286Y-18201561D01*
X17147000Y-18230132D01*
X17132714Y-18244418D01*
X17104143Y-18258703D01*
X17075571Y-18258703D01*
X17047000Y-18244418D01*
X17032714Y-18230132D01*
X17018428Y-18201561D01*
X17004143Y-18144418D01*
X17004143Y-18072989D01*
X17018428Y-18015846D01*
X17032714Y-17987275D01*
X17047000Y-17972989D01*
X17075571Y-17958703D01*
X17532714Y-18258703D02*
X17532714Y-17958703D01*
X17661286Y-18258703D02*
X17661286Y-18101561D01*
X17647000Y-18072989D01*
X17618428Y-18058703D01*
X17575571Y-18058703D01*
X17547000Y-18072989D01*
X17532714Y-18087275D01*
X17847000Y-18258703D02*
X17818428Y-18244418D01*
X17804143Y-18230132D01*
X17789857Y-18201561D01*
X17789857Y-18115846D01*
X17804143Y-18087275D01*
X17818428Y-18072989D01*
X17847000Y-18058703D01*
X17889857Y-18058703D01*
X17918428Y-18072989D01*
X17932714Y-18087275D01*
X17947000Y-18115846D01*
X17947000Y-18201561D01*
X17932714Y-18230132D01*
X17918428Y-18244418D01*
X17889857Y-18258703D01*
X17847000Y-18258703D01*
X18118428Y-18258703D02*
X18089857Y-18244418D01*
X18075571Y-18215846D01*
X18075571Y-17958703D01*
X18347000Y-18244418D02*
X18318428Y-18258703D01*
X18261286Y-18258703D01*
X18232714Y-18244418D01*
X18218428Y-18215846D01*
X18218428Y-18101561D01*
X18232714Y-18072989D01*
X18261286Y-18058703D01*
X18318428Y-18058703D01*
X18347000Y-18072989D01*
X18361286Y-18101561D01*
X18361286Y-18130132D01*
X18218428Y-18158703D01*
X18475571Y-18244418D02*
X18504143Y-18258703D01*
X18561286Y-18258703D01*
X18589857Y-18244418D01*
X18604143Y-18215846D01*
X18604143Y-18201561D01*
X18589857Y-18172989D01*
X18561286Y-18158703D01*
X18518428Y-18158703D01*
X18489857Y-18144418D01*
X18475571Y-18115846D01*
X18475571Y-18101561D01*
X18489857Y-18072989D01*
X18518428Y-18058703D01*
X18561286Y-18058703D01*
X18589857Y-18072989D01*
X18704143Y-18372989D02*
X18718428Y-18358703D01*
X18747000Y-18315846D01*
X18761286Y-18287275D01*
X18775571Y-18244418D01*
X18789857Y-18172989D01*
X18789857Y-18115846D01*
X18775571Y-18044418D01*
X18761286Y-18001561D01*
X18747000Y-17972989D01*
X18718428Y-17930132D01*
X18704143Y-17915846D01*
X11830400Y-18468189D02*
X11932000Y-18569789D01*
X11932000Y-18468189D02*
X11830400Y-18569789D01*
X11881200Y-18468189D02*
X11881200Y-18569789D01*
X11830400Y-18518989D02*
X11932000Y-18518989D01*
X12375571Y-18654703D02*
X12204143Y-18654703D01*
X12289857Y-18654703D02*
X12289857Y-18354703D01*
X12261286Y-18397561D01*
X12232714Y-18426132D01*
X12204143Y-18440418D01*
X12504143Y-18626132D02*
X12518428Y-18640418D01*
X12504143Y-18654703D01*
X12489857Y-18640418D01*
X12504143Y-18626132D01*
X12504143Y-18654703D01*
X12704143Y-18354703D02*
X12732714Y-18354703D01*
X12761286Y-18368989D01*
X12775571Y-18383275D01*
X12789857Y-18411846D01*
X12804143Y-18468989D01*
X12804143Y-18540418D01*
X12789857Y-18597561D01*
X12775571Y-18626132D01*
X12761286Y-18640418D01*
X12732714Y-18654703D01*
X12704143Y-18654703D01*
X12675571Y-18640418D01*
X12661286Y-18626132D01*
X12647000Y-18597561D01*
X12632714Y-18540418D01*
X12632714Y-18468989D01*
X12647000Y-18411846D01*
X12661286Y-18383275D01*
X12675571Y-18368989D01*
X12704143Y-18354703D01*
X12918428Y-18383275D02*
X12932714Y-18368989D01*
X12961286Y-18354703D01*
X13032714Y-18354703D01*
X13061286Y-18368989D01*
X13075571Y-18383275D01*
X13089857Y-18411846D01*
X13089857Y-18440418D01*
X13075571Y-18483275D01*
X12904143Y-18654703D01*
X13089857Y-18654703D01*
X13218428Y-18654703D02*
X13218428Y-18454703D01*
X13218428Y-18483275D02*
X13232714Y-18468989D01*
X13261286Y-18454703D01*
X13304143Y-18454703D01*
X13332714Y-18468989D01*
X13347000Y-18497561D01*
X13347000Y-18654703D01*
X13347000Y-18497561D02*
X13361286Y-18468989D01*
X13389857Y-18454703D01*
X13432714Y-18454703D01*
X13461286Y-18468989D01*
X13475571Y-18497561D01*
X13475571Y-18654703D01*
X13618428Y-18654703D02*
X13618428Y-18454703D01*
X13618428Y-18483275D02*
X13632714Y-18468989D01*
X13661286Y-18454703D01*
X13704143Y-18454703D01*
X13732714Y-18468989D01*
X13747000Y-18497561D01*
X13747000Y-18654703D01*
X13747000Y-18497561D02*
X13761286Y-18468989D01*
X13789857Y-18454703D01*
X13832714Y-18454703D01*
X13861286Y-18468989D01*
X13875571Y-18497561D01*
X13875571Y-18654703D01*
X14461286Y-18340418D02*
X14204143Y-18726132D01*
X14847000Y-18354703D02*
X14875571Y-18354703D01*
X14904143Y-18368989D01*
X14918428Y-18383275D01*
X14932714Y-18411846D01*
X14947000Y-18468989D01*
X14947000Y-18540418D01*
X14932714Y-18597561D01*
X14918428Y-18626132D01*
X14904143Y-18640418D01*
X14875571Y-18654703D01*
X14847000Y-18654703D01*
X14818428Y-18640418D01*
X14804143Y-18626132D01*
X14789857Y-18597561D01*
X14775571Y-18540418D01*
X14775571Y-18468989D01*
X14789857Y-18411846D01*
X14804143Y-18383275D01*
X14818428Y-18368989D01*
X14847000Y-18354703D01*
X15075571Y-18626132D02*
X15089857Y-18640418D01*
X15075571Y-18654703D01*
X15061286Y-18640418D01*
X15075571Y-18626132D01*
X15075571Y-18654703D01*
X15275571Y-18354703D02*
X15304143Y-18354703D01*
X15332714Y-18368989D01*
X15347000Y-18383275D01*
X15361286Y-18411846D01*
X15375571Y-18468989D01*
X15375571Y-18540418D01*
X15361286Y-18597561D01*
X15347000Y-18626132D01*
X15332714Y-18640418D01*
X15304143Y-18654703D01*
X15275571Y-18654703D01*
X15247000Y-18640418D01*
X15232714Y-18626132D01*
X15218428Y-18597561D01*
X15204143Y-18540418D01*
X15204143Y-18468989D01*
X15218428Y-18411846D01*
X15232714Y-18383275D01*
X15247000Y-18368989D01*
X15275571Y-18354703D01*
X15632714Y-18454703D02*
X15632714Y-18654703D01*
X15561286Y-18340418D02*
X15489857Y-18554703D01*
X15675571Y-18554703D01*
X15847000Y-18354703D02*
X15875571Y-18354703D01*
X15904143Y-18368989D01*
X15918428Y-18383275D01*
X15932714Y-18411846D01*
X15947000Y-18468989D01*
X15947000Y-18540418D01*
X15932714Y-18597561D01*
X15918428Y-18626132D01*
X15904143Y-18640418D01*
X15875571Y-18654703D01*
X15847000Y-18654703D01*
X15818428Y-18640418D01*
X15804143Y-18626132D01*
X15789857Y-18597561D01*
X15775571Y-18540418D01*
X15775571Y-18468989D01*
X15789857Y-18411846D01*
X15804143Y-18383275D01*
X15818428Y-18368989D01*
X15847000Y-18354703D01*
X16061286Y-18354703D02*
X16061286Y-18411846D01*
X16175571Y-18354703D02*
X16175571Y-18411846D01*
X16618428Y-18768989D02*
X16604143Y-18754703D01*
X16575571Y-18711846D01*
X16561286Y-18683275D01*
X16547000Y-18640418D01*
X16532714Y-18568989D01*
X16532714Y-18511846D01*
X16547000Y-18440418D01*
X16561286Y-18397561D01*
X16575571Y-18368989D01*
X16604143Y-18326132D01*
X16618428Y-18311846D01*
X16704143Y-18354703D02*
X16889857Y-18354703D01*
X16789857Y-18468989D01*
X16832714Y-18468989D01*
X16861286Y-18483275D01*
X16875571Y-18497561D01*
X16889857Y-18526132D01*
X16889857Y-18597561D01*
X16875571Y-18626132D01*
X16861286Y-18640418D01*
X16832714Y-18654703D01*
X16747000Y-18654703D01*
X16718428Y-18640418D01*
X16704143Y-18626132D01*
X17075571Y-18354703D02*
X17104143Y-18354703D01*
X17132714Y-18368989D01*
X17147000Y-18383275D01*
X17161286Y-18411846D01*
X17175571Y-18468989D01*
X17175571Y-18540418D01*
X17161286Y-18597561D01*
X17147000Y-18626132D01*
X17132714Y-18640418D01*
X17104143Y-18654703D01*
X17075571Y-18654703D01*
X17047000Y-18640418D01*
X17032714Y-18626132D01*
X17018428Y-18597561D01*
X17004143Y-18540418D01*
X17004143Y-18468989D01*
X17018428Y-18411846D01*
X17032714Y-18383275D01*
X17047000Y-18368989D01*
X17075571Y-18354703D01*
X17532714Y-18654703D02*
X17532714Y-18354703D01*
X17661286Y-18654703D02*
X17661286Y-18497561D01*
X17647000Y-18468989D01*
X17618428Y-18454703D01*
X17575571Y-18454703D01*
X17547000Y-18468989D01*
X17532714Y-18483275D01*
X17847000Y-18654703D02*
X17818428Y-18640418D01*
X17804143Y-18626132D01*
X17789857Y-18597561D01*
X17789857Y-18511846D01*
X17804143Y-18483275D01*
X17818428Y-18468989D01*
X17847000Y-18454703D01*
X17889857Y-18454703D01*
X17918428Y-18468989D01*
X17932714Y-18483275D01*
X17947000Y-18511846D01*
X17947000Y-18597561D01*
X17932714Y-18626132D01*
X17918428Y-18640418D01*
X17889857Y-18654703D01*
X17847000Y-18654703D01*
X18118428Y-18654703D02*
X18089857Y-18640418D01*
X18075571Y-18611846D01*
X18075571Y-18354703D01*
X18347000Y-18640418D02*
X18318428Y-18654703D01*
X18261286Y-18654703D01*
X18232714Y-18640418D01*
X18218428Y-18611846D01*
X18218428Y-18497561D01*
X18232714Y-18468989D01*
X18261286Y-18454703D01*
X18318428Y-18454703D01*
X18347000Y-18468989D01*
X18361286Y-18497561D01*
X18361286Y-18526132D01*
X18218428Y-18554703D01*
X18475571Y-18640418D02*
X18504143Y-18654703D01*
X18561286Y-18654703D01*
X18589857Y-18640418D01*
X18604143Y-18611846D01*
X18604143Y-18597561D01*
X18589857Y-18568989D01*
X18561286Y-18554703D01*
X18518428Y-18554703D01*
X18489857Y-18540418D01*
X18475571Y-18511846D01*
X18475571Y-18497561D01*
X18489857Y-18468989D01*
X18518428Y-18454703D01*
X18561286Y-18454703D01*
X18589857Y-18468989D01*
X18704143Y-18768989D02*
X18718428Y-18754703D01*
X18747000Y-18711846D01*
X18761286Y-18683275D01*
X18775571Y-18640418D01*
X18789857Y-18568989D01*
X18789857Y-18511846D01*
X18775571Y-18440418D01*
X18761286Y-18397561D01*
X18747000Y-18368989D01*
X18718428Y-18326132D01*
X18704143Y-18311846D01*
X11822000Y-18859989D02*
X11932000Y-18969989D01*
X11932000Y-18859989D02*
X11822000Y-18969989D01*
X11915891Y-18953880D02*
X11915891Y-18876098D01*
X11838109Y-18876098D01*
X11838109Y-18953880D01*
X11915891Y-18953880D01*
X12375571Y-19050703D02*
X12204143Y-19050703D01*
X12289857Y-19050703D02*
X12289857Y-18750703D01*
X12261286Y-18793561D01*
X12232714Y-18822132D01*
X12204143Y-18836418D01*
X12504143Y-19022132D02*
X12518428Y-19036418D01*
X12504143Y-19050703D01*
X12489857Y-19036418D01*
X12504143Y-19022132D01*
X12504143Y-19050703D01*
X12804143Y-19050703D02*
X12632714Y-19050703D01*
X12718428Y-19050703D02*
X12718428Y-18750703D01*
X12689857Y-18793561D01*
X12661286Y-18822132D01*
X12632714Y-18836418D01*
X12989857Y-18750703D02*
X13018428Y-18750703D01*
X13047000Y-18764989D01*
X13061286Y-18779275D01*
X13075571Y-18807846D01*
X13089857Y-18864989D01*
X13089857Y-18936418D01*
X13075571Y-18993561D01*
X13061286Y-19022132D01*
X13047000Y-19036418D01*
X13018428Y-19050703D01*
X12989857Y-19050703D01*
X12961286Y-19036418D01*
X12947000Y-19022132D01*
X12932714Y-18993561D01*
X12918428Y-18936418D01*
X12918428Y-18864989D01*
X12932714Y-18807846D01*
X12947000Y-18779275D01*
X12961286Y-18764989D01*
X12989857Y-18750703D01*
X13218428Y-19050703D02*
X13218428Y-18850703D01*
X13218428Y-18879275D02*
X13232714Y-18864989D01*
X13261286Y-18850703D01*
X13304143Y-18850703D01*
X13332714Y-18864989D01*
X13347000Y-18893561D01*
X13347000Y-19050703D01*
X13347000Y-18893561D02*
X13361286Y-18864989D01*
X13389857Y-18850703D01*
X13432714Y-18850703D01*
X13461286Y-18864989D01*
X13475571Y-18893561D01*
X13475571Y-19050703D01*
X13618428Y-19050703D02*
X13618428Y-18850703D01*
X13618428Y-18879275D02*
X13632714Y-18864989D01*
X13661286Y-18850703D01*
X13704143Y-18850703D01*
X13732714Y-18864989D01*
X13747000Y-18893561D01*
X13747000Y-19050703D01*
X13747000Y-18893561D02*
X13761286Y-18864989D01*
X13789857Y-18850703D01*
X13832714Y-18850703D01*
X13861286Y-18864989D01*
X13875571Y-18893561D01*
X13875571Y-19050703D01*
X14461286Y-18736418D02*
X14204143Y-19122132D01*
X14847000Y-18750703D02*
X14875571Y-18750703D01*
X14904143Y-18764989D01*
X14918428Y-18779275D01*
X14932714Y-18807846D01*
X14947000Y-18864989D01*
X14947000Y-18936418D01*
X14932714Y-18993561D01*
X14918428Y-19022132D01*
X14904143Y-19036418D01*
X14875571Y-19050703D01*
X14847000Y-19050703D01*
X14818428Y-19036418D01*
X14804143Y-19022132D01*
X14789857Y-18993561D01*
X14775571Y-18936418D01*
X14775571Y-18864989D01*
X14789857Y-18807846D01*
X14804143Y-18779275D01*
X14818428Y-18764989D01*
X14847000Y-18750703D01*
X15075571Y-19022132D02*
X15089857Y-19036418D01*
X15075571Y-19050703D01*
X15061286Y-19036418D01*
X15075571Y-19022132D01*
X15075571Y-19050703D01*
X15275571Y-18750703D02*
X15304143Y-18750703D01*
X15332714Y-18764989D01*
X15347000Y-18779275D01*
X15361286Y-18807846D01*
X15375571Y-18864989D01*
X15375571Y-18936418D01*
X15361286Y-18993561D01*
X15347000Y-19022132D01*
X15332714Y-19036418D01*
X15304143Y-19050703D01*
X15275571Y-19050703D01*
X15247000Y-19036418D01*
X15232714Y-19022132D01*
X15218428Y-18993561D01*
X15204143Y-18936418D01*
X15204143Y-18864989D01*
X15218428Y-18807846D01*
X15232714Y-18779275D01*
X15247000Y-18764989D01*
X15275571Y-18750703D01*
X15632714Y-18850703D02*
X15632714Y-19050703D01*
X15561286Y-18736418D02*
X15489857Y-18950703D01*
X15675571Y-18950703D01*
X15761286Y-18750703D02*
X15947000Y-18750703D01*
X15847000Y-18864989D01*
X15889857Y-18864989D01*
X15918428Y-18879275D01*
X15932714Y-18893561D01*
X15947000Y-18922132D01*
X15947000Y-18993561D01*
X15932714Y-19022132D01*
X15918428Y-19036418D01*
X15889857Y-19050703D01*
X15804143Y-19050703D01*
X15775571Y-19036418D01*
X15761286Y-19022132D01*
X16061286Y-18750703D02*
X16061286Y-18807846D01*
X16175571Y-18750703D02*
X16175571Y-18807846D01*
X16618428Y-19164989D02*
X16604143Y-19150703D01*
X16575571Y-19107846D01*
X16561286Y-19079275D01*
X16547000Y-19036418D01*
X16532714Y-18964989D01*
X16532714Y-18907846D01*
X16547000Y-18836418D01*
X16561286Y-18793561D01*
X16575571Y-18764989D01*
X16604143Y-18722132D01*
X16618428Y-18707846D01*
X16861286Y-18850703D02*
X16861286Y-19050703D01*
X16789857Y-18736418D02*
X16718428Y-18950703D01*
X16904143Y-18950703D01*
X17247000Y-19050703D02*
X17247000Y-18750703D01*
X17375571Y-19050703D02*
X17375571Y-18893561D01*
X17361286Y-18864989D01*
X17332714Y-18850703D01*
X17289857Y-18850703D01*
X17261286Y-18864989D01*
X17247000Y-18879275D01*
X17561286Y-19050703D02*
X17532714Y-19036418D01*
X17518428Y-19022132D01*
X17504143Y-18993561D01*
X17504143Y-18907846D01*
X17518428Y-18879275D01*
X17532714Y-18864989D01*
X17561286Y-18850703D01*
X17604143Y-18850703D01*
X17632714Y-18864989D01*
X17647000Y-18879275D01*
X17661286Y-18907846D01*
X17661286Y-18993561D01*
X17647000Y-19022132D01*
X17632714Y-19036418D01*
X17604143Y-19050703D01*
X17561286Y-19050703D01*
X17832714Y-19050703D02*
X17804143Y-19036418D01*
X17789857Y-19007846D01*
X17789857Y-18750703D01*
X18061286Y-19036418D02*
X18032714Y-19050703D01*
X17975571Y-19050703D01*
X17947000Y-19036418D01*
X17932714Y-19007846D01*
X17932714Y-18893561D01*
X17947000Y-18864989D01*
X17975571Y-18850703D01*
X18032714Y-18850703D01*
X18061286Y-18864989D01*
X18075571Y-18893561D01*
X18075571Y-18922132D01*
X17932714Y-18950703D01*
X18189857Y-19036418D02*
X18218428Y-19050703D01*
X18275571Y-19050703D01*
X18304143Y-19036418D01*
X18318428Y-19007846D01*
X18318428Y-18993561D01*
X18304143Y-18964989D01*
X18275571Y-18950703D01*
X18232714Y-18950703D01*
X18204143Y-18936418D01*
X18189857Y-18907846D01*
X18189857Y-18893561D01*
X18204143Y-18864989D01*
X18232714Y-18850703D01*
X18275571Y-18850703D01*
X18304143Y-18864989D01*
X18418428Y-19164989D02*
X18432714Y-19150703D01*
X18461286Y-19107846D01*
X18475571Y-19079275D01*
X18489857Y-19036418D01*
X18504143Y-18964989D01*
X18504143Y-18907846D01*
X18489857Y-18836418D01*
X18475571Y-18793561D01*
X18461286Y-18764989D01*
X18432714Y-18722132D01*
X18418428Y-18707846D01*
M02*
