G04 #@! TF.GenerationSoftware,KiCad,Pcbnew,5.1.5-52549c5~85~ubuntu18.04.1*
G04 #@! TF.CreationDate,2020-03-29T12:38:49+00:00*
G04 #@! TF.ProjectId,PIS,5049532e-6b69-4636-9164-5f7063625858,rev?*
G04 #@! TF.SameCoordinates,Original*
G04 #@! TF.FileFunction,Copper,L2,Bot*
G04 #@! TF.FilePolarity,Positive*
%FSLAX46Y46*%
G04 Gerber Fmt 4.6, Leading zero omitted, Abs format (unit mm)*
G04 Created by KiCad (PCBNEW 5.1.5-52549c5~85~ubuntu18.04.1) date 2020-03-29 12:38:49*
%MOMM*%
%LPD*%
G04 APERTURE LIST*
%ADD10C,2.100000*%
%ADD11R,2.100000X2.100000*%
%ADD12C,1.400000*%
%ADD13C,0.100000*%
%ADD14O,1.700000X1.700000*%
%ADD15R,1.700000X1.700000*%
%ADD16O,1.000000X1.000000*%
%ADD17R,1.000000X1.000000*%
%ADD18O,1.400000X1.400000*%
%ADD19C,1.800000*%
%ADD20R,1.800000X1.800000*%
%ADD21R,1.050000X1.500000*%
%ADD22O,1.050000X1.500000*%
%ADD23O,1.600000X1.600000*%
%ADD24R,1.600000X1.600000*%
%ADD25C,2.000000*%
%ADD26R,2.000000X2.000000*%
%ADD27C,2.032000*%
%ADD28R,2.032000X2.032000*%
%ADD29C,0.500000*%
%ADD30C,0.250000*%
G04 APERTURE END LIST*
D10*
X125730000Y-106680000D03*
X128270000Y-106680000D03*
X130810000Y-106680000D03*
D11*
X133350000Y-106680000D03*
D12*
X125730000Y-106680000D03*
X130810000Y-106680000D03*
G04 #@! TA.AperFunction,ComponentPad*
D13*
G36*
X133825226Y-105981200D02*
G01*
X133849417Y-105984788D01*
X133873139Y-105990730D01*
X133896165Y-105998969D01*
X133918272Y-106009425D01*
X133939248Y-106021998D01*
X133958891Y-106036566D01*
X133977011Y-106052989D01*
X133993434Y-106071109D01*
X134008002Y-106090752D01*
X134020575Y-106111728D01*
X134031031Y-106133835D01*
X134039270Y-106156861D01*
X134045212Y-106180583D01*
X134048800Y-106204774D01*
X134050000Y-106229200D01*
X134050000Y-107130800D01*
X134048800Y-107155226D01*
X134045212Y-107179417D01*
X134039270Y-107203139D01*
X134031031Y-107226165D01*
X134020575Y-107248272D01*
X134008002Y-107269248D01*
X133993434Y-107288891D01*
X133977011Y-107307011D01*
X133958891Y-107323434D01*
X133939248Y-107338002D01*
X133918272Y-107350575D01*
X133896165Y-107361031D01*
X133873139Y-107369270D01*
X133849417Y-107375212D01*
X133825226Y-107378800D01*
X133800800Y-107380000D01*
X132899200Y-107380000D01*
X132874774Y-107378800D01*
X132850583Y-107375212D01*
X132826861Y-107369270D01*
X132803835Y-107361031D01*
X132781728Y-107350575D01*
X132760752Y-107338002D01*
X132741109Y-107323434D01*
X132722989Y-107307011D01*
X132706566Y-107288891D01*
X132691998Y-107269248D01*
X132679425Y-107248272D01*
X132668969Y-107226165D01*
X132660730Y-107203139D01*
X132654788Y-107179417D01*
X132651200Y-107155226D01*
X132650000Y-107130800D01*
X132650000Y-106229200D01*
X132651200Y-106204774D01*
X132654788Y-106180583D01*
X132660730Y-106156861D01*
X132668969Y-106133835D01*
X132679425Y-106111728D01*
X132691998Y-106090752D01*
X132706566Y-106071109D01*
X132722989Y-106052989D01*
X132741109Y-106036566D01*
X132760752Y-106021998D01*
X132781728Y-106009425D01*
X132803835Y-105998969D01*
X132826861Y-105990730D01*
X132850583Y-105984788D01*
X132874774Y-105981200D01*
X132899200Y-105980000D01*
X133800800Y-105980000D01*
X133825226Y-105981200D01*
G37*
G04 #@! TD.AperFunction*
D14*
X128905000Y-149225000D03*
X131445000Y-149225000D03*
X133985000Y-149225000D03*
D15*
X136525000Y-149225000D03*
D16*
X128270000Y-125730000D03*
X130810000Y-125730000D03*
X133350000Y-125730000D03*
D17*
X135890000Y-125730000D03*
D18*
X139065000Y-119380000D03*
D12*
X139065000Y-127000000D03*
D19*
X137160000Y-106680000D03*
D20*
X139700000Y-106680000D03*
D21*
X135890000Y-120650000D03*
D22*
X133350000Y-120650000D03*
X134620000Y-120650000D03*
D23*
X123825000Y-119380000D03*
D24*
X123825000Y-111760000D03*
D25*
X127635000Y-111760000D03*
X130175000Y-111760000D03*
D26*
X127635000Y-116840000D03*
D25*
X130175000Y-116840000D03*
X137795000Y-111760000D03*
X137795000Y-116840000D03*
D18*
X141605000Y-137160000D03*
D12*
X141605000Y-129540000D03*
D18*
X141605000Y-144780000D03*
D12*
X141605000Y-137160000D03*
D21*
X130175000Y-120650000D03*
D22*
X127635000Y-120650000D03*
X128905000Y-120650000D03*
D14*
X123825000Y-139700000D03*
X123825000Y-137160000D03*
D15*
X123825000Y-134620000D03*
D27*
X144145000Y-142240000D03*
X144145000Y-137160000D03*
X144145000Y-139700000D03*
X144145000Y-119380000D03*
X144145000Y-121920000D03*
X144145000Y-127000000D03*
X144145000Y-124460000D03*
X144145000Y-109220000D03*
X144145000Y-129540000D03*
X144145000Y-134620000D03*
X144145000Y-132080000D03*
X144145000Y-116840000D03*
X144145000Y-111760000D03*
X144145000Y-114300000D03*
X144145000Y-144780000D03*
X121285000Y-109220000D03*
X121285000Y-111760000D03*
X121285000Y-114300000D03*
X121285000Y-116840000D03*
X121285000Y-119380000D03*
X121285000Y-121920000D03*
X121285000Y-124460000D03*
X121285000Y-127000000D03*
X121285000Y-129540000D03*
X121285000Y-132080000D03*
X121285000Y-134620000D03*
X121285000Y-137160000D03*
X121285000Y-139700000D03*
X121285000Y-142240000D03*
D28*
X121285000Y-144780000D03*
D14*
X130175000Y-146050000D03*
X132715000Y-146050000D03*
D15*
X135255000Y-146050000D03*
D18*
X123825000Y-121920000D03*
D12*
X123825000Y-129540000D03*
D14*
X141605000Y-116840000D03*
X141605000Y-114300000D03*
X141605000Y-111760000D03*
D15*
X141605000Y-109220000D03*
D29*
X141605000Y-111760000D02*
X144145000Y-111760000D01*
X128905000Y-149225000D02*
X128905000Y-147320000D01*
X128905000Y-147320000D02*
X130175000Y-146050000D01*
X130175000Y-146050000D02*
X128905000Y-144780000D01*
X128905000Y-144780000D02*
X121285000Y-144780000D01*
X141605000Y-116840000D02*
X144145000Y-116840000D01*
X144145000Y-114300000D02*
X141605000Y-114300000D01*
X141605000Y-139700000D02*
X133350000Y-131445000D01*
X144145000Y-139700000D02*
X141605000Y-139700000D01*
X133350000Y-125730000D02*
X133350000Y-131445000D01*
X127635000Y-111760000D02*
X127635000Y-109855000D01*
X127635000Y-109855000D02*
X128270000Y-109220000D01*
X128270000Y-109220000D02*
X128270000Y-106680000D01*
X128905000Y-123190000D02*
X128905000Y-120650000D01*
X129540000Y-132080000D02*
X129540000Y-123825000D01*
X129540000Y-123825000D02*
X128905000Y-123190000D01*
X139700000Y-142240000D02*
X129540000Y-132080000D01*
X144145000Y-142240000D02*
X139700000Y-142240000D01*
X130175000Y-120650000D02*
X130175000Y-118745000D01*
X130175000Y-118745000D02*
X130175000Y-116840000D01*
X130175000Y-118745000D02*
X126365000Y-118745000D01*
X126365000Y-118745000D02*
X125730000Y-119380000D01*
X125730000Y-119380000D02*
X123825000Y-119380000D01*
X139700000Y-106680000D02*
X139700000Y-118745000D01*
X139700000Y-118745000D02*
X139065000Y-119380000D01*
X134620000Y-127000000D02*
X134620000Y-120650000D01*
X144145000Y-137160000D02*
X134620000Y-127635000D01*
X134620000Y-127635000D02*
X134620000Y-127000000D01*
X137160000Y-120650000D02*
X135890000Y-120650000D01*
X137160000Y-120650000D02*
X139065000Y-122555000D01*
X139065000Y-127000000D02*
X139065000Y-122555000D01*
X137795000Y-151130000D02*
X141287500Y-147637500D01*
X131445000Y-149225000D02*
X133350000Y-151130000D01*
X141287500Y-147637500D02*
X144145000Y-144780000D01*
X133350000Y-151130000D02*
X137795000Y-151130000D01*
X137795000Y-114300000D02*
X127000000Y-114300000D01*
X137795000Y-116840000D02*
X137795000Y-114300000D01*
X137795000Y-114300000D02*
X137795000Y-111760000D01*
X127000000Y-114300000D02*
X125730000Y-113030000D01*
X125730000Y-113030000D02*
X125730000Y-106680000D01*
D30*
G36*
X144941779Y-103327839D02*
G01*
X145097399Y-103374824D01*
X145240926Y-103451137D01*
X145366900Y-103553879D01*
X145470519Y-103679133D01*
X145547832Y-103822120D01*
X145595903Y-103977411D01*
X145615001Y-104159124D01*
X145615001Y-111018818D01*
X145548655Y-110894694D01*
X145285172Y-110796604D01*
X144321777Y-111760000D01*
X145285172Y-112723396D01*
X145548655Y-112625306D01*
X145615001Y-112489442D01*
X145615000Y-128798817D01*
X145548655Y-128674694D01*
X145285172Y-128576604D01*
X144321777Y-129540000D01*
X145285172Y-130503396D01*
X145548655Y-130405306D01*
X145615000Y-130269443D01*
X145615000Y-150473724D01*
X145597051Y-150656779D01*
X145550066Y-150812399D01*
X145473750Y-150955929D01*
X145371011Y-151081899D01*
X145245757Y-151185519D01*
X145102770Y-151262832D01*
X144947479Y-151310903D01*
X144765775Y-151330000D01*
X138478882Y-151330000D01*
X141407768Y-148401115D01*
X141385898Y-148453914D01*
X141310000Y-148835479D01*
X141310000Y-149224521D01*
X141385898Y-149606086D01*
X141534778Y-149965513D01*
X141750917Y-150288989D01*
X142026011Y-150564083D01*
X142349487Y-150780222D01*
X142708914Y-150929102D01*
X143090479Y-151005000D01*
X143479521Y-151005000D01*
X143861086Y-150929102D01*
X144220513Y-150780222D01*
X144543989Y-150564083D01*
X144819083Y-150288989D01*
X145035222Y-149965513D01*
X145184102Y-149606086D01*
X145260000Y-149224521D01*
X145260000Y-148835479D01*
X145184102Y-148453914D01*
X145035222Y-148094487D01*
X144819083Y-147771011D01*
X144543989Y-147495917D01*
X144220513Y-147279778D01*
X143861086Y-147130898D01*
X143479521Y-147055000D01*
X143090479Y-147055000D01*
X142708914Y-147130898D01*
X142656114Y-147152769D01*
X143705375Y-146103508D01*
X143739260Y-146117544D01*
X144007999Y-146171000D01*
X144282001Y-146171000D01*
X144550740Y-146117544D01*
X144803885Y-146012688D01*
X145031711Y-145860460D01*
X145225460Y-145666711D01*
X145377688Y-145438885D01*
X145482544Y-145185740D01*
X145536000Y-144917001D01*
X145536000Y-144642999D01*
X145482544Y-144374260D01*
X145377688Y-144121115D01*
X145225460Y-143893289D01*
X145031711Y-143699540D01*
X144803885Y-143547312D01*
X144713806Y-143510000D01*
X144803885Y-143472688D01*
X145031711Y-143320460D01*
X145225460Y-143126711D01*
X145377688Y-142898885D01*
X145482544Y-142645740D01*
X145536000Y-142377001D01*
X145536000Y-142102999D01*
X145482544Y-141834260D01*
X145377688Y-141581115D01*
X145225460Y-141353289D01*
X145031711Y-141159540D01*
X144803885Y-141007312D01*
X144713806Y-140970000D01*
X144803885Y-140932688D01*
X145031711Y-140780460D01*
X145225460Y-140586711D01*
X145377688Y-140358885D01*
X145482544Y-140105740D01*
X145536000Y-139837001D01*
X145536000Y-139562999D01*
X145482544Y-139294260D01*
X145377688Y-139041115D01*
X145225460Y-138813289D01*
X145031711Y-138619540D01*
X144803885Y-138467312D01*
X144713806Y-138430000D01*
X144803885Y-138392688D01*
X145031711Y-138240460D01*
X145225460Y-138046711D01*
X145377688Y-137818885D01*
X145482544Y-137565740D01*
X145536000Y-137297001D01*
X145536000Y-137022999D01*
X145482544Y-136754260D01*
X145377688Y-136501115D01*
X145225460Y-136273289D01*
X145031711Y-136079540D01*
X144803885Y-135927312D01*
X144713806Y-135890000D01*
X144803885Y-135852688D01*
X145031711Y-135700460D01*
X145225460Y-135506711D01*
X145377688Y-135278885D01*
X145482544Y-135025740D01*
X145536000Y-134757001D01*
X145536000Y-134482999D01*
X145482544Y-134214260D01*
X145377688Y-133961115D01*
X145225460Y-133733289D01*
X145031711Y-133539540D01*
X144803885Y-133387312D01*
X144713806Y-133350000D01*
X144803885Y-133312688D01*
X145031711Y-133160460D01*
X145225460Y-132966711D01*
X145377688Y-132738885D01*
X145482544Y-132485740D01*
X145536000Y-132217001D01*
X145536000Y-131942999D01*
X145482544Y-131674260D01*
X145377688Y-131421115D01*
X145225460Y-131193289D01*
X145031711Y-130999540D01*
X144975731Y-130962136D01*
X145010306Y-130943655D01*
X145108396Y-130680172D01*
X144145000Y-129716777D01*
X143181604Y-130680172D01*
X143279694Y-130943655D01*
X143315650Y-130961213D01*
X143258289Y-130999540D01*
X143064540Y-131193289D01*
X142912312Y-131421115D01*
X142807456Y-131674260D01*
X142754000Y-131942999D01*
X142754000Y-132217001D01*
X142807456Y-132485740D01*
X142912312Y-132738885D01*
X143064540Y-132966711D01*
X143258289Y-133160460D01*
X143486115Y-133312688D01*
X143576194Y-133350000D01*
X143486115Y-133387312D01*
X143258289Y-133539540D01*
X143064540Y-133733289D01*
X142912312Y-133961115D01*
X142807456Y-134214260D01*
X142754000Y-134482999D01*
X142754000Y-134757001D01*
X142785812Y-134916929D01*
X138323521Y-130454638D01*
X140867138Y-130454638D01*
X140927001Y-130685850D01*
X141163572Y-130796104D01*
X141417108Y-130858087D01*
X141677864Y-130869417D01*
X141935820Y-130829657D01*
X142181063Y-130740336D01*
X142282999Y-130685850D01*
X142342862Y-130454638D01*
X141605000Y-129716777D01*
X140867138Y-130454638D01*
X138323521Y-130454638D01*
X137481747Y-129612864D01*
X140275583Y-129612864D01*
X140315343Y-129870820D01*
X140404664Y-130116063D01*
X140459150Y-130217999D01*
X140690362Y-130277862D01*
X141428223Y-129540000D01*
X141781777Y-129540000D01*
X142519638Y-130277862D01*
X142654554Y-130242931D01*
X142741345Y-130405306D01*
X143004828Y-130503396D01*
X143968223Y-129540000D01*
X143004828Y-128576604D01*
X142741345Y-128674694D01*
X142661211Y-128838793D01*
X142519638Y-128802138D01*
X141781777Y-129540000D01*
X141428223Y-129540000D01*
X140690362Y-128802138D01*
X140459150Y-128862001D01*
X140348896Y-129098572D01*
X140286913Y-129352108D01*
X140275583Y-129612864D01*
X137481747Y-129612864D01*
X136494245Y-128625362D01*
X140867138Y-128625362D01*
X141605000Y-129363223D01*
X142342862Y-128625362D01*
X142282999Y-128394150D01*
X142046428Y-128283896D01*
X141792892Y-128221913D01*
X141532136Y-128210583D01*
X141274180Y-128250343D01*
X141028937Y-128339664D01*
X140927001Y-128394150D01*
X140867138Y-128625362D01*
X136494245Y-128625362D01*
X135245000Y-127376118D01*
X135245000Y-126577703D01*
X135245800Y-126578131D01*
X135316487Y-126599574D01*
X135390000Y-126606814D01*
X136390000Y-126606814D01*
X136463513Y-126599574D01*
X136534200Y-126578131D01*
X136599347Y-126543309D01*
X136656448Y-126496448D01*
X136703309Y-126439347D01*
X136738131Y-126374200D01*
X136759574Y-126303513D01*
X136766814Y-126230000D01*
X136766814Y-125230000D01*
X136759574Y-125156487D01*
X136738131Y-125085800D01*
X136703309Y-125020653D01*
X136656448Y-124963552D01*
X136599347Y-124916691D01*
X136534200Y-124881869D01*
X136463513Y-124860426D01*
X136390000Y-124853186D01*
X135390000Y-124853186D01*
X135316487Y-124860426D01*
X135245800Y-124881869D01*
X135245000Y-124882297D01*
X135245000Y-121755472D01*
X135291487Y-121769574D01*
X135365000Y-121776814D01*
X136415000Y-121776814D01*
X136488513Y-121769574D01*
X136559200Y-121748131D01*
X136624347Y-121713309D01*
X136681448Y-121666448D01*
X136728309Y-121609347D01*
X136763131Y-121544200D01*
X136784574Y-121473513D01*
X136791814Y-121400000D01*
X136791814Y-121275000D01*
X136901118Y-121275000D01*
X138440001Y-122813884D01*
X138440000Y-126124721D01*
X138379728Y-126164993D01*
X138229993Y-126314728D01*
X138112348Y-126490797D01*
X138031312Y-126686434D01*
X137990000Y-126894122D01*
X137990000Y-127105878D01*
X138031312Y-127313566D01*
X138112348Y-127509203D01*
X138229993Y-127685272D01*
X138379728Y-127835007D01*
X138555797Y-127952652D01*
X138751434Y-128033688D01*
X138959122Y-128075000D01*
X139170878Y-128075000D01*
X139378566Y-128033688D01*
X139574203Y-127952652D01*
X139750272Y-127835007D01*
X139900007Y-127685272D01*
X140017652Y-127509203D01*
X140098688Y-127313566D01*
X140140000Y-127105878D01*
X140140000Y-126894122D01*
X140098688Y-126686434D01*
X140017652Y-126490797D01*
X139900007Y-126314728D01*
X139750272Y-126164993D01*
X139690000Y-126124721D01*
X139690000Y-122585701D01*
X139693024Y-122555000D01*
X139690000Y-122524296D01*
X139680957Y-122432479D01*
X139645219Y-122314666D01*
X139587183Y-122206089D01*
X139509080Y-122110920D01*
X139485229Y-122091346D01*
X137623658Y-120229776D01*
X137604080Y-120205920D01*
X137508911Y-120127817D01*
X137400334Y-120069781D01*
X137282521Y-120034043D01*
X137190704Y-120025000D01*
X137190694Y-120025000D01*
X137160000Y-120021977D01*
X137129306Y-120025000D01*
X136791814Y-120025000D01*
X136791814Y-119900000D01*
X136784574Y-119826487D01*
X136763131Y-119755800D01*
X136728309Y-119690653D01*
X136681448Y-119633552D01*
X136624347Y-119586691D01*
X136559200Y-119551869D01*
X136488513Y-119530426D01*
X136415000Y-119523186D01*
X135365000Y-119523186D01*
X135291487Y-119530426D01*
X135220800Y-119551869D01*
X135155653Y-119586691D01*
X135098552Y-119633552D01*
X135083298Y-119652139D01*
X134966081Y-119589486D01*
X134796431Y-119538023D01*
X134620000Y-119520646D01*
X134443570Y-119538023D01*
X134273920Y-119589486D01*
X134190530Y-119634059D01*
X134110039Y-119549027D01*
X133924541Y-119417582D01*
X133716964Y-119324852D01*
X133652295Y-119315443D01*
X133475000Y-119439143D01*
X133475000Y-120525000D01*
X133495000Y-120525000D01*
X133495000Y-120775000D01*
X133475000Y-120775000D01*
X133475000Y-121860857D01*
X133652295Y-121984557D01*
X133716964Y-121975148D01*
X133924541Y-121882418D01*
X133995001Y-121832490D01*
X133995000Y-125137563D01*
X133907780Y-125050343D01*
X133764468Y-124954585D01*
X133605228Y-124888626D01*
X133436180Y-124855000D01*
X133263820Y-124855000D01*
X133094772Y-124888626D01*
X132935532Y-124954585D01*
X132792220Y-125050343D01*
X132670343Y-125172220D01*
X132574585Y-125315532D01*
X132508626Y-125474772D01*
X132475000Y-125643820D01*
X132475000Y-125816180D01*
X132508626Y-125985228D01*
X132574585Y-126144468D01*
X132670343Y-126287780D01*
X132725000Y-126342437D01*
X132725001Y-131414296D01*
X132721977Y-131445000D01*
X132725001Y-131475704D01*
X132734044Y-131567521D01*
X132769782Y-131685334D01*
X132827818Y-131793911D01*
X132905921Y-131889080D01*
X132929772Y-131908654D01*
X141141346Y-140120229D01*
X141160920Y-140144080D01*
X141256089Y-140222183D01*
X141364666Y-140280219D01*
X141482479Y-140315957D01*
X141574296Y-140325000D01*
X141574306Y-140325000D01*
X141605000Y-140328023D01*
X141635694Y-140325000D01*
X142898276Y-140325000D01*
X142912312Y-140358885D01*
X143064540Y-140586711D01*
X143258289Y-140780460D01*
X143486115Y-140932688D01*
X143576194Y-140970000D01*
X143486115Y-141007312D01*
X143258289Y-141159540D01*
X143064540Y-141353289D01*
X142912312Y-141581115D01*
X142898276Y-141615000D01*
X139958883Y-141615000D01*
X130165000Y-131821118D01*
X130165000Y-126322437D01*
X130252220Y-126409657D01*
X130395532Y-126505415D01*
X130554772Y-126571374D01*
X130723820Y-126605000D01*
X130896180Y-126605000D01*
X131065228Y-126571374D01*
X131224468Y-126505415D01*
X131367780Y-126409657D01*
X131489657Y-126287780D01*
X131585415Y-126144468D01*
X131651374Y-125985228D01*
X131685000Y-125816180D01*
X131685000Y-125643820D01*
X131651374Y-125474772D01*
X131585415Y-125315532D01*
X131489657Y-125172220D01*
X131367780Y-125050343D01*
X131224468Y-124954585D01*
X131065228Y-124888626D01*
X130896180Y-124855000D01*
X130723820Y-124855000D01*
X130554772Y-124888626D01*
X130395532Y-124954585D01*
X130252220Y-125050343D01*
X130165000Y-125137563D01*
X130165000Y-123855702D01*
X130168024Y-123825000D01*
X130165000Y-123794296D01*
X130155957Y-123702479D01*
X130120219Y-123584666D01*
X130088005Y-123524398D01*
X130062183Y-123476088D01*
X130003653Y-123404769D01*
X130003649Y-123404765D01*
X129984080Y-123380920D01*
X129960234Y-123361350D01*
X129530000Y-122931117D01*
X129530000Y-121755472D01*
X129576487Y-121769574D01*
X129650000Y-121776814D01*
X130700000Y-121776814D01*
X130773513Y-121769574D01*
X130844200Y-121748131D01*
X130909347Y-121713309D01*
X130966448Y-121666448D01*
X131013309Y-121609347D01*
X131048131Y-121544200D01*
X131069574Y-121473513D01*
X131076814Y-121400000D01*
X131076814Y-120956978D01*
X132193165Y-120956978D01*
X132231386Y-121181090D01*
X132312595Y-121393439D01*
X132433671Y-121585865D01*
X132589961Y-121750973D01*
X132775459Y-121882418D01*
X132983036Y-121975148D01*
X133047705Y-121984557D01*
X133225000Y-121860857D01*
X133225000Y-120775000D01*
X132350833Y-120775000D01*
X132193165Y-120956978D01*
X131076814Y-120956978D01*
X131076814Y-120343022D01*
X132193165Y-120343022D01*
X132350833Y-120525000D01*
X133225000Y-120525000D01*
X133225000Y-119439143D01*
X133047705Y-119315443D01*
X132983036Y-119324852D01*
X132775459Y-119417582D01*
X132589961Y-119549027D01*
X132433671Y-119714135D01*
X132312595Y-119906561D01*
X132231386Y-120118910D01*
X132193165Y-120343022D01*
X131076814Y-120343022D01*
X131076814Y-119900000D01*
X131069574Y-119826487D01*
X131048131Y-119755800D01*
X131013309Y-119690653D01*
X130966448Y-119633552D01*
X130909347Y-119586691D01*
X130844200Y-119551869D01*
X130800000Y-119538461D01*
X130800000Y-118775703D01*
X130803024Y-118745000D01*
X130800000Y-118714296D01*
X130800000Y-118069406D01*
X130826307Y-118058509D01*
X131051511Y-117908032D01*
X131243032Y-117716511D01*
X131393509Y-117491307D01*
X131497159Y-117241073D01*
X131550000Y-116975426D01*
X131550000Y-116704574D01*
X131497159Y-116438927D01*
X131393509Y-116188693D01*
X131243032Y-115963489D01*
X131051511Y-115771968D01*
X130826307Y-115621491D01*
X130576073Y-115517841D01*
X130310426Y-115465000D01*
X130039574Y-115465000D01*
X129773927Y-115517841D01*
X129523693Y-115621491D01*
X129298489Y-115771968D01*
X129106968Y-115963489D01*
X129011814Y-116105897D01*
X129011814Y-115840000D01*
X129004574Y-115766487D01*
X128983131Y-115695800D01*
X128948309Y-115630653D01*
X128901448Y-115573552D01*
X128844347Y-115526691D01*
X128779200Y-115491869D01*
X128708513Y-115470426D01*
X128635000Y-115463186D01*
X126635000Y-115463186D01*
X126561487Y-115470426D01*
X126490800Y-115491869D01*
X126425653Y-115526691D01*
X126368552Y-115573552D01*
X126321691Y-115630653D01*
X126286869Y-115695800D01*
X126265426Y-115766487D01*
X126258186Y-115840000D01*
X126258186Y-117840000D01*
X126265426Y-117913513D01*
X126286869Y-117984200D01*
X126321691Y-118049347D01*
X126368552Y-118106448D01*
X126383615Y-118118809D01*
X126365000Y-118116976D01*
X126334298Y-118120000D01*
X126334296Y-118120000D01*
X126242479Y-118129043D01*
X126124666Y-118164781D01*
X126080982Y-118188131D01*
X126016088Y-118222817D01*
X125944769Y-118281347D01*
X125944765Y-118281351D01*
X125920920Y-118300920D01*
X125901350Y-118324766D01*
X125471117Y-118755000D01*
X124820548Y-118755000D01*
X124737682Y-118630981D01*
X124574019Y-118467318D01*
X124381571Y-118338729D01*
X124167735Y-118250155D01*
X123940727Y-118205000D01*
X123709273Y-118205000D01*
X123482265Y-118250155D01*
X123268429Y-118338729D01*
X123075981Y-118467318D01*
X122912318Y-118630981D01*
X122783729Y-118823429D01*
X122695155Y-119037265D01*
X122665116Y-119188281D01*
X122622544Y-118974260D01*
X122517688Y-118721115D01*
X122365460Y-118493289D01*
X122171711Y-118299540D01*
X121943885Y-118147312D01*
X121853806Y-118110000D01*
X121943885Y-118072688D01*
X122171711Y-117920460D01*
X122365460Y-117726711D01*
X122517688Y-117498885D01*
X122622544Y-117245740D01*
X122676000Y-116977001D01*
X122676000Y-116702999D01*
X122622544Y-116434260D01*
X122517688Y-116181115D01*
X122365460Y-115953289D01*
X122171711Y-115759540D01*
X121943885Y-115607312D01*
X121853806Y-115570000D01*
X121943885Y-115532688D01*
X122171711Y-115380460D01*
X122365460Y-115186711D01*
X122517688Y-114958885D01*
X122622544Y-114705740D01*
X122676000Y-114437001D01*
X122676000Y-114162999D01*
X122622544Y-113894260D01*
X122517688Y-113641115D01*
X122365460Y-113413289D01*
X122171711Y-113219540D01*
X122115731Y-113182136D01*
X122150306Y-113163655D01*
X122248396Y-112900172D01*
X121285000Y-111936777D01*
X120321604Y-112900172D01*
X120419694Y-113163655D01*
X120455650Y-113181213D01*
X120398289Y-113219540D01*
X120204540Y-113413289D01*
X120052312Y-113641115D01*
X119947456Y-113894260D01*
X119894000Y-114162999D01*
X119894000Y-114437001D01*
X119947456Y-114705740D01*
X120052312Y-114958885D01*
X120204540Y-115186711D01*
X120398289Y-115380460D01*
X120626115Y-115532688D01*
X120716194Y-115570000D01*
X120626115Y-115607312D01*
X120398289Y-115759540D01*
X120204540Y-115953289D01*
X120052312Y-116181115D01*
X119947456Y-116434260D01*
X119894000Y-116702999D01*
X119894000Y-116977001D01*
X119947456Y-117245740D01*
X120052312Y-117498885D01*
X120204540Y-117726711D01*
X120398289Y-117920460D01*
X120626115Y-118072688D01*
X120716194Y-118110000D01*
X120626115Y-118147312D01*
X120398289Y-118299540D01*
X120204540Y-118493289D01*
X120052312Y-118721115D01*
X119947456Y-118974260D01*
X119894000Y-119242999D01*
X119894000Y-119517001D01*
X119947456Y-119785740D01*
X120052312Y-120038885D01*
X120204540Y-120266711D01*
X120398289Y-120460460D01*
X120454269Y-120497864D01*
X120419694Y-120516345D01*
X120321604Y-120779828D01*
X121285000Y-121743223D01*
X122248396Y-120779828D01*
X122150306Y-120516345D01*
X122114350Y-120498787D01*
X122171711Y-120460460D01*
X122365460Y-120266711D01*
X122517688Y-120038885D01*
X122622544Y-119785740D01*
X122665116Y-119571719D01*
X122695155Y-119722735D01*
X122783729Y-119936571D01*
X122912318Y-120129019D01*
X123075981Y-120292682D01*
X123268429Y-120421271D01*
X123482265Y-120509845D01*
X123709273Y-120555000D01*
X123940727Y-120555000D01*
X124167735Y-120509845D01*
X124381571Y-120421271D01*
X124574019Y-120292682D01*
X124737682Y-120129019D01*
X124820548Y-120005000D01*
X125699306Y-120005000D01*
X125730000Y-120008023D01*
X125760694Y-120005000D01*
X125760704Y-120005000D01*
X125852521Y-119995957D01*
X125970334Y-119960219D01*
X126078911Y-119902183D01*
X126174080Y-119824080D01*
X126193658Y-119800224D01*
X126623883Y-119370000D01*
X127166972Y-119370000D01*
X127060459Y-119417582D01*
X126874961Y-119549027D01*
X126718671Y-119714135D01*
X126597595Y-119906561D01*
X126516386Y-120118910D01*
X126478165Y-120343022D01*
X126635833Y-120525000D01*
X127510000Y-120525000D01*
X127510000Y-120505000D01*
X127760000Y-120505000D01*
X127760000Y-120525000D01*
X127780000Y-120525000D01*
X127780000Y-120775000D01*
X127760000Y-120775000D01*
X127760000Y-121860857D01*
X127937295Y-121984557D01*
X128001964Y-121975148D01*
X128209541Y-121882418D01*
X128280001Y-121832490D01*
X128280000Y-123159306D01*
X128276977Y-123190000D01*
X128280000Y-123220694D01*
X128280000Y-123220703D01*
X128289043Y-123312520D01*
X128324781Y-123430333D01*
X128382817Y-123538910D01*
X128460920Y-123634080D01*
X128484776Y-123653658D01*
X128915001Y-124083884D01*
X128915001Y-124814874D01*
X128826040Y-124752013D01*
X128624560Y-124662327D01*
X128568360Y-124645285D01*
X128395000Y-124769348D01*
X128395000Y-125605000D01*
X128415000Y-125605000D01*
X128415000Y-125855000D01*
X128395000Y-125855000D01*
X128395000Y-126690652D01*
X128568360Y-126814715D01*
X128624560Y-126797673D01*
X128826040Y-126707987D01*
X128915001Y-126645126D01*
X128915000Y-132049306D01*
X128911977Y-132080000D01*
X128915000Y-132110694D01*
X128915000Y-132110703D01*
X128924043Y-132202520D01*
X128959781Y-132320333D01*
X129017817Y-132428910D01*
X129095920Y-132524080D01*
X129119776Y-132543658D01*
X139236346Y-142660229D01*
X139255920Y-142684080D01*
X139351089Y-142762183D01*
X139459666Y-142820219D01*
X139577479Y-142855957D01*
X139669296Y-142865000D01*
X139669298Y-142865000D01*
X139700000Y-142868024D01*
X139730701Y-142865000D01*
X142898276Y-142865000D01*
X142912312Y-142898885D01*
X143064540Y-143126711D01*
X143258289Y-143320460D01*
X143486115Y-143472688D01*
X143576194Y-143510000D01*
X143486115Y-143547312D01*
X143258289Y-143699540D01*
X143064540Y-143893289D01*
X142912312Y-144121115D01*
X142807456Y-144374260D01*
X142754000Y-144642999D01*
X142754000Y-144917001D01*
X142807456Y-145185740D01*
X142821492Y-145219625D01*
X140867269Y-147173848D01*
X137536118Y-150505000D01*
X134711042Y-150505000D01*
X134747740Y-150487485D01*
X134979383Y-150314423D01*
X135172812Y-150099496D01*
X135298186Y-149888647D01*
X135298186Y-150075000D01*
X135305426Y-150148513D01*
X135326869Y-150219200D01*
X135361691Y-150284347D01*
X135408552Y-150341448D01*
X135465653Y-150388309D01*
X135530800Y-150423131D01*
X135601487Y-150444574D01*
X135675000Y-150451814D01*
X137375000Y-150451814D01*
X137448513Y-150444574D01*
X137519200Y-150423131D01*
X137584347Y-150388309D01*
X137641448Y-150341448D01*
X137688309Y-150284347D01*
X137723131Y-150219200D01*
X137744574Y-150148513D01*
X137751814Y-150075000D01*
X137751814Y-148375000D01*
X137744574Y-148301487D01*
X137723131Y-148230800D01*
X137688309Y-148165653D01*
X137641448Y-148108552D01*
X137584347Y-148061691D01*
X137519200Y-148026869D01*
X137448513Y-148005426D01*
X137375000Y-147998186D01*
X135675000Y-147998186D01*
X135601487Y-148005426D01*
X135530800Y-148026869D01*
X135465653Y-148061691D01*
X135408552Y-148108552D01*
X135361691Y-148165653D01*
X135326869Y-148230800D01*
X135305426Y-148301487D01*
X135298186Y-148375000D01*
X135298186Y-148561353D01*
X135172812Y-148350504D01*
X134979383Y-148135577D01*
X134747740Y-147962515D01*
X134486786Y-147837970D01*
X134338372Y-147792955D01*
X134110000Y-147912188D01*
X134110000Y-149100000D01*
X134130000Y-149100000D01*
X134130000Y-149350000D01*
X134110000Y-149350000D01*
X134110000Y-149370000D01*
X133860000Y-149370000D01*
X133860000Y-149350000D01*
X133840000Y-149350000D01*
X133840000Y-149100000D01*
X133860000Y-149100000D01*
X133860000Y-147912188D01*
X133631628Y-147792955D01*
X133483214Y-147837970D01*
X133222260Y-147962515D01*
X132990617Y-148135577D01*
X132797188Y-148350504D01*
X132649406Y-148599038D01*
X132585940Y-148778395D01*
X132530581Y-148644745D01*
X132396519Y-148444108D01*
X132225892Y-148273481D01*
X132025255Y-148139419D01*
X131802319Y-148047076D01*
X131565652Y-148000000D01*
X131324348Y-148000000D01*
X131087681Y-148047076D01*
X130864745Y-148139419D01*
X130664108Y-148273481D01*
X130493481Y-148444108D01*
X130359419Y-148644745D01*
X130267076Y-148867681D01*
X130220000Y-149104348D01*
X130220000Y-149345652D01*
X130267076Y-149582319D01*
X130359419Y-149805255D01*
X130493481Y-150005892D01*
X130664108Y-150176519D01*
X130864745Y-150310581D01*
X131087681Y-150402924D01*
X131324348Y-150450000D01*
X131565652Y-150450000D01*
X131749540Y-150413422D01*
X132666117Y-151330000D01*
X120628638Y-151330000D01*
X120625029Y-151330355D01*
X120488221Y-151316941D01*
X120332601Y-151269956D01*
X120189071Y-151193640D01*
X120063101Y-151090901D01*
X119959481Y-150965647D01*
X119882168Y-150822660D01*
X119834097Y-150667369D01*
X119815000Y-150485665D01*
X119815000Y-148835479D01*
X120060000Y-148835479D01*
X120060000Y-149224521D01*
X120135898Y-149606086D01*
X120284778Y-149965513D01*
X120500917Y-150288989D01*
X120776011Y-150564083D01*
X121099487Y-150780222D01*
X121458914Y-150929102D01*
X121840479Y-151005000D01*
X122229521Y-151005000D01*
X122611086Y-150929102D01*
X122970513Y-150780222D01*
X123293989Y-150564083D01*
X123569083Y-150288989D01*
X123785222Y-149965513D01*
X123934102Y-149606086D01*
X124010000Y-149224521D01*
X124010000Y-148835479D01*
X123934102Y-148453914D01*
X123785222Y-148094487D01*
X123569083Y-147771011D01*
X123293989Y-147495917D01*
X122970513Y-147279778D01*
X122611086Y-147130898D01*
X122229521Y-147055000D01*
X121840479Y-147055000D01*
X121458914Y-147130898D01*
X121099487Y-147279778D01*
X120776011Y-147495917D01*
X120500917Y-147771011D01*
X120284778Y-148094487D01*
X120135898Y-148453914D01*
X120060000Y-148835479D01*
X119815000Y-148835479D01*
X119815000Y-143764000D01*
X119892186Y-143764000D01*
X119892186Y-145796000D01*
X119899426Y-145869513D01*
X119920869Y-145940200D01*
X119955691Y-146005347D01*
X120002552Y-146062448D01*
X120059653Y-146109309D01*
X120124800Y-146144131D01*
X120195487Y-146165574D01*
X120269000Y-146172814D01*
X122301000Y-146172814D01*
X122374513Y-146165574D01*
X122445200Y-146144131D01*
X122510347Y-146109309D01*
X122567448Y-146062448D01*
X122614309Y-146005347D01*
X122649131Y-145940200D01*
X122670574Y-145869513D01*
X122677814Y-145796000D01*
X122677814Y-145405000D01*
X128646118Y-145405000D01*
X128986578Y-145745460D01*
X128950000Y-145929348D01*
X128950000Y-146170652D01*
X128986578Y-146354540D01*
X128484772Y-146856346D01*
X128460921Y-146875920D01*
X128382818Y-146971089D01*
X128324782Y-147079666D01*
X128289044Y-147197479D01*
X128283979Y-147248911D01*
X128276977Y-147320000D01*
X128280001Y-147350704D01*
X128280001Y-148169316D01*
X128124108Y-148273481D01*
X127953481Y-148444108D01*
X127819419Y-148644745D01*
X127727076Y-148867681D01*
X127680000Y-149104348D01*
X127680000Y-149345652D01*
X127727076Y-149582319D01*
X127819419Y-149805255D01*
X127953481Y-150005892D01*
X128124108Y-150176519D01*
X128324745Y-150310581D01*
X128547681Y-150402924D01*
X128784348Y-150450000D01*
X129025652Y-150450000D01*
X129262319Y-150402924D01*
X129485255Y-150310581D01*
X129685892Y-150176519D01*
X129856519Y-150005892D01*
X129990581Y-149805255D01*
X130082924Y-149582319D01*
X130130000Y-149345652D01*
X130130000Y-149104348D01*
X130082924Y-148867681D01*
X129990581Y-148644745D01*
X129856519Y-148444108D01*
X129685892Y-148273481D01*
X129530000Y-148169317D01*
X129530000Y-147578882D01*
X129870460Y-147238422D01*
X130054348Y-147275000D01*
X130295652Y-147275000D01*
X130532319Y-147227924D01*
X130755255Y-147135581D01*
X130955892Y-147001519D01*
X131126519Y-146830892D01*
X131260581Y-146630255D01*
X131352924Y-146407319D01*
X131400000Y-146170652D01*
X131400000Y-145929348D01*
X131490000Y-145929348D01*
X131490000Y-146170652D01*
X131537076Y-146407319D01*
X131629419Y-146630255D01*
X131763481Y-146830892D01*
X131934108Y-147001519D01*
X132134745Y-147135581D01*
X132357681Y-147227924D01*
X132594348Y-147275000D01*
X132835652Y-147275000D01*
X133072319Y-147227924D01*
X133295255Y-147135581D01*
X133495892Y-147001519D01*
X133666519Y-146830892D01*
X133778232Y-146663702D01*
X133776976Y-146900000D01*
X133789043Y-147022521D01*
X133824781Y-147140334D01*
X133882817Y-147248911D01*
X133960920Y-147344080D01*
X134056089Y-147422183D01*
X134164666Y-147480219D01*
X134282479Y-147515957D01*
X134405000Y-147528024D01*
X134973750Y-147525000D01*
X135130000Y-147368750D01*
X135130000Y-146175000D01*
X135380000Y-146175000D01*
X135380000Y-147368750D01*
X135536250Y-147525000D01*
X136105000Y-147528024D01*
X136227521Y-147515957D01*
X136345334Y-147480219D01*
X136453911Y-147422183D01*
X136549080Y-147344080D01*
X136627183Y-147248911D01*
X136685219Y-147140334D01*
X136720957Y-147022521D01*
X136733024Y-146900000D01*
X136730000Y-146331250D01*
X136573750Y-146175000D01*
X135380000Y-146175000D01*
X135130000Y-146175000D01*
X135110000Y-146175000D01*
X135110000Y-145925000D01*
X135130000Y-145925000D01*
X135130000Y-144731250D01*
X135380000Y-144731250D01*
X135380000Y-145925000D01*
X136573750Y-145925000D01*
X136730000Y-145768750D01*
X136733024Y-145200000D01*
X136720957Y-145077479D01*
X136685219Y-144959666D01*
X136627183Y-144851089D01*
X136549080Y-144755920D01*
X136453911Y-144677817D01*
X136446999Y-144674122D01*
X140530000Y-144674122D01*
X140530000Y-144885878D01*
X140571312Y-145093566D01*
X140652348Y-145289203D01*
X140769993Y-145465272D01*
X140919728Y-145615007D01*
X141095797Y-145732652D01*
X141291434Y-145813688D01*
X141499122Y-145855000D01*
X141710878Y-145855000D01*
X141918566Y-145813688D01*
X142114203Y-145732652D01*
X142290272Y-145615007D01*
X142440007Y-145465272D01*
X142557652Y-145289203D01*
X142638688Y-145093566D01*
X142680000Y-144885878D01*
X142680000Y-144674122D01*
X142638688Y-144466434D01*
X142557652Y-144270797D01*
X142440007Y-144094728D01*
X142290272Y-143944993D01*
X142114203Y-143827348D01*
X141918566Y-143746312D01*
X141710878Y-143705000D01*
X141499122Y-143705000D01*
X141291434Y-143746312D01*
X141095797Y-143827348D01*
X140919728Y-143944993D01*
X140769993Y-144094728D01*
X140652348Y-144270797D01*
X140571312Y-144466434D01*
X140530000Y-144674122D01*
X136446999Y-144674122D01*
X136345334Y-144619781D01*
X136227521Y-144584043D01*
X136105000Y-144571976D01*
X135536250Y-144575000D01*
X135380000Y-144731250D01*
X135130000Y-144731250D01*
X134973750Y-144575000D01*
X134405000Y-144571976D01*
X134282479Y-144584043D01*
X134164666Y-144619781D01*
X134056089Y-144677817D01*
X133960920Y-144755920D01*
X133882817Y-144851089D01*
X133824781Y-144959666D01*
X133789043Y-145077479D01*
X133776976Y-145200000D01*
X133778232Y-145436298D01*
X133666519Y-145269108D01*
X133495892Y-145098481D01*
X133295255Y-144964419D01*
X133072319Y-144872076D01*
X132835652Y-144825000D01*
X132594348Y-144825000D01*
X132357681Y-144872076D01*
X132134745Y-144964419D01*
X131934108Y-145098481D01*
X131763481Y-145269108D01*
X131629419Y-145469745D01*
X131537076Y-145692681D01*
X131490000Y-145929348D01*
X131400000Y-145929348D01*
X131352924Y-145692681D01*
X131260581Y-145469745D01*
X131126519Y-145269108D01*
X130955892Y-145098481D01*
X130755255Y-144964419D01*
X130532319Y-144872076D01*
X130295652Y-144825000D01*
X130054348Y-144825000D01*
X129870460Y-144861578D01*
X129368658Y-144359776D01*
X129349080Y-144335920D01*
X129253911Y-144257817D01*
X129145334Y-144199781D01*
X129027521Y-144164043D01*
X128935704Y-144155000D01*
X128935694Y-144155000D01*
X128905000Y-144151977D01*
X128874306Y-144155000D01*
X122677814Y-144155000D01*
X122677814Y-143764000D01*
X122670574Y-143690487D01*
X122649131Y-143619800D01*
X122614309Y-143554653D01*
X122567448Y-143497552D01*
X122510347Y-143450691D01*
X122445200Y-143415869D01*
X122374513Y-143394426D01*
X122301000Y-143387186D01*
X122071848Y-143387186D01*
X122171711Y-143320460D01*
X122365460Y-143126711D01*
X122517688Y-142898885D01*
X122622544Y-142645740D01*
X122676000Y-142377001D01*
X122676000Y-142102999D01*
X122622544Y-141834260D01*
X122517688Y-141581115D01*
X122365460Y-141353289D01*
X122171711Y-141159540D01*
X121943885Y-141007312D01*
X121853806Y-140970000D01*
X121943885Y-140932688D01*
X122171711Y-140780460D01*
X122365460Y-140586711D01*
X122517688Y-140358885D01*
X122622544Y-140105740D01*
X122639626Y-140019865D01*
X122647076Y-140057319D01*
X122739419Y-140280255D01*
X122873481Y-140480892D01*
X123044108Y-140651519D01*
X123244745Y-140785581D01*
X123467681Y-140877924D01*
X123704348Y-140925000D01*
X123945652Y-140925000D01*
X124182319Y-140877924D01*
X124405255Y-140785581D01*
X124605892Y-140651519D01*
X124776519Y-140480892D01*
X124910581Y-140280255D01*
X125002924Y-140057319D01*
X125050000Y-139820652D01*
X125050000Y-139579348D01*
X125002924Y-139342681D01*
X124910581Y-139119745D01*
X124776519Y-138919108D01*
X124605892Y-138748481D01*
X124405255Y-138614419D01*
X124182319Y-138522076D01*
X123945652Y-138475000D01*
X123704348Y-138475000D01*
X123467681Y-138522076D01*
X123244745Y-138614419D01*
X123044108Y-138748481D01*
X122873481Y-138919108D01*
X122739419Y-139119745D01*
X122647076Y-139342681D01*
X122639626Y-139380135D01*
X122622544Y-139294260D01*
X122517688Y-139041115D01*
X122365460Y-138813289D01*
X122171711Y-138619540D01*
X121943885Y-138467312D01*
X121853806Y-138430000D01*
X121943885Y-138392688D01*
X122171711Y-138240460D01*
X122365460Y-138046711D01*
X122517688Y-137818885D01*
X122622544Y-137565740D01*
X122639626Y-137479865D01*
X122647076Y-137517319D01*
X122739419Y-137740255D01*
X122873481Y-137940892D01*
X123044108Y-138111519D01*
X123244745Y-138245581D01*
X123467681Y-138337924D01*
X123704348Y-138385000D01*
X123945652Y-138385000D01*
X124182319Y-138337924D01*
X124405255Y-138245581D01*
X124605892Y-138111519D01*
X124776519Y-137940892D01*
X124910581Y-137740255D01*
X125002924Y-137517319D01*
X125050000Y-137280652D01*
X125050000Y-137039348D01*
X125002924Y-136802681D01*
X124910581Y-136579745D01*
X124776519Y-136379108D01*
X124605892Y-136208481D01*
X124438702Y-136096768D01*
X124675000Y-136098024D01*
X124797521Y-136085957D01*
X124915334Y-136050219D01*
X125023911Y-135992183D01*
X125119080Y-135914080D01*
X125197183Y-135818911D01*
X125255219Y-135710334D01*
X125290957Y-135592521D01*
X125303024Y-135470000D01*
X125300000Y-134901250D01*
X125143750Y-134745000D01*
X123950000Y-134745000D01*
X123950000Y-134765000D01*
X123700000Y-134765000D01*
X123700000Y-134745000D01*
X123680000Y-134745000D01*
X123680000Y-134495000D01*
X123700000Y-134495000D01*
X123700000Y-133301250D01*
X123950000Y-133301250D01*
X123950000Y-134495000D01*
X125143750Y-134495000D01*
X125300000Y-134338750D01*
X125303024Y-133770000D01*
X125290957Y-133647479D01*
X125255219Y-133529666D01*
X125197183Y-133421089D01*
X125119080Y-133325920D01*
X125023911Y-133247817D01*
X124915334Y-133189781D01*
X124797521Y-133154043D01*
X124675000Y-133141976D01*
X124106250Y-133145000D01*
X123950000Y-133301250D01*
X123700000Y-133301250D01*
X123543750Y-133145000D01*
X122975000Y-133141976D01*
X122852479Y-133154043D01*
X122734666Y-133189781D01*
X122626089Y-133247817D01*
X122530920Y-133325920D01*
X122452817Y-133421089D01*
X122394781Y-133529666D01*
X122359043Y-133647479D01*
X122351925Y-133719754D01*
X122171711Y-133539540D01*
X121943885Y-133387312D01*
X121853806Y-133350000D01*
X121943885Y-133312688D01*
X122171711Y-133160460D01*
X122365460Y-132966711D01*
X122517688Y-132738885D01*
X122622544Y-132485740D01*
X122676000Y-132217001D01*
X122676000Y-131942999D01*
X122622544Y-131674260D01*
X122517688Y-131421115D01*
X122365460Y-131193289D01*
X122171711Y-130999540D01*
X121943885Y-130847312D01*
X121853806Y-130810000D01*
X121943885Y-130772688D01*
X122171711Y-130620460D01*
X122365460Y-130426711D01*
X122517688Y-130198885D01*
X122622544Y-129945740D01*
X122676000Y-129677001D01*
X122676000Y-129434122D01*
X122750000Y-129434122D01*
X122750000Y-129645878D01*
X122791312Y-129853566D01*
X122872348Y-130049203D01*
X122989993Y-130225272D01*
X123139728Y-130375007D01*
X123315797Y-130492652D01*
X123511434Y-130573688D01*
X123719122Y-130615000D01*
X123930878Y-130615000D01*
X124138566Y-130573688D01*
X124334203Y-130492652D01*
X124510272Y-130375007D01*
X124660007Y-130225272D01*
X124777652Y-130049203D01*
X124858688Y-129853566D01*
X124900000Y-129645878D01*
X124900000Y-129434122D01*
X124858688Y-129226434D01*
X124777652Y-129030797D01*
X124660007Y-128854728D01*
X124510272Y-128704993D01*
X124334203Y-128587348D01*
X124138566Y-128506312D01*
X123930878Y-128465000D01*
X123719122Y-128465000D01*
X123511434Y-128506312D01*
X123315797Y-128587348D01*
X123139728Y-128704993D01*
X122989993Y-128854728D01*
X122872348Y-129030797D01*
X122791312Y-129226434D01*
X122750000Y-129434122D01*
X122676000Y-129434122D01*
X122676000Y-129402999D01*
X122622544Y-129134260D01*
X122517688Y-128881115D01*
X122365460Y-128653289D01*
X122171711Y-128459540D01*
X121943885Y-128307312D01*
X121853806Y-128270000D01*
X121943885Y-128232688D01*
X122171711Y-128080460D01*
X122365460Y-127886711D01*
X122517688Y-127658885D01*
X122622544Y-127405740D01*
X122676000Y-127137001D01*
X122676000Y-126862999D01*
X122622544Y-126594260D01*
X122517688Y-126341115D01*
X122365460Y-126113289D01*
X122280532Y-126028361D01*
X127185279Y-126028361D01*
X127264329Y-126234247D01*
X127382026Y-126420755D01*
X127533848Y-126580717D01*
X127713960Y-126707987D01*
X127915440Y-126797673D01*
X127971640Y-126814715D01*
X128145000Y-126690652D01*
X128145000Y-125855000D01*
X127308210Y-125855000D01*
X127185279Y-126028361D01*
X122280532Y-126028361D01*
X122171711Y-125919540D01*
X121943885Y-125767312D01*
X121853806Y-125730000D01*
X121943885Y-125692688D01*
X122171711Y-125540460D01*
X122280532Y-125431639D01*
X127185279Y-125431639D01*
X127308210Y-125605000D01*
X128145000Y-125605000D01*
X128145000Y-124769348D01*
X127971640Y-124645285D01*
X127915440Y-124662327D01*
X127713960Y-124752013D01*
X127533848Y-124879283D01*
X127382026Y-125039245D01*
X127264329Y-125225753D01*
X127185279Y-125431639D01*
X122280532Y-125431639D01*
X122365460Y-125346711D01*
X122517688Y-125118885D01*
X122622544Y-124865740D01*
X122676000Y-124597001D01*
X122676000Y-124322999D01*
X122622544Y-124054260D01*
X122517688Y-123801115D01*
X122365460Y-123573289D01*
X122171711Y-123379540D01*
X122115731Y-123342136D01*
X122150306Y-123323655D01*
X122248396Y-123060172D01*
X121285000Y-122096777D01*
X120321604Y-123060172D01*
X120419694Y-123323655D01*
X120455650Y-123341213D01*
X120398289Y-123379540D01*
X120204540Y-123573289D01*
X120052312Y-123801115D01*
X119947456Y-124054260D01*
X119894000Y-124322999D01*
X119894000Y-124597001D01*
X119947456Y-124865740D01*
X120052312Y-125118885D01*
X120204540Y-125346711D01*
X120398289Y-125540460D01*
X120626115Y-125692688D01*
X120716194Y-125730000D01*
X120626115Y-125767312D01*
X120398289Y-125919540D01*
X120204540Y-126113289D01*
X120052312Y-126341115D01*
X119947456Y-126594260D01*
X119894000Y-126862999D01*
X119894000Y-127137001D01*
X119947456Y-127405740D01*
X120052312Y-127658885D01*
X120204540Y-127886711D01*
X120398289Y-128080460D01*
X120626115Y-128232688D01*
X120716194Y-128270000D01*
X120626115Y-128307312D01*
X120398289Y-128459540D01*
X120204540Y-128653289D01*
X120052312Y-128881115D01*
X119947456Y-129134260D01*
X119894000Y-129402999D01*
X119894000Y-129677001D01*
X119947456Y-129945740D01*
X120052312Y-130198885D01*
X120204540Y-130426711D01*
X120398289Y-130620460D01*
X120626115Y-130772688D01*
X120716194Y-130810000D01*
X120626115Y-130847312D01*
X120398289Y-130999540D01*
X120204540Y-131193289D01*
X120052312Y-131421115D01*
X119947456Y-131674260D01*
X119894000Y-131942999D01*
X119894000Y-132217001D01*
X119947456Y-132485740D01*
X120052312Y-132738885D01*
X120204540Y-132966711D01*
X120398289Y-133160460D01*
X120626115Y-133312688D01*
X120716194Y-133350000D01*
X120626115Y-133387312D01*
X120398289Y-133539540D01*
X120204540Y-133733289D01*
X120052312Y-133961115D01*
X119947456Y-134214260D01*
X119894000Y-134482999D01*
X119894000Y-134757001D01*
X119947456Y-135025740D01*
X120052312Y-135278885D01*
X120204540Y-135506711D01*
X120398289Y-135700460D01*
X120626115Y-135852688D01*
X120716194Y-135890000D01*
X120626115Y-135927312D01*
X120398289Y-136079540D01*
X120204540Y-136273289D01*
X120052312Y-136501115D01*
X119947456Y-136754260D01*
X119894000Y-137022999D01*
X119894000Y-137297001D01*
X119947456Y-137565740D01*
X120052312Y-137818885D01*
X120204540Y-138046711D01*
X120398289Y-138240460D01*
X120626115Y-138392688D01*
X120716194Y-138430000D01*
X120626115Y-138467312D01*
X120398289Y-138619540D01*
X120204540Y-138813289D01*
X120052312Y-139041115D01*
X119947456Y-139294260D01*
X119894000Y-139562999D01*
X119894000Y-139837001D01*
X119947456Y-140105740D01*
X120052312Y-140358885D01*
X120204540Y-140586711D01*
X120398289Y-140780460D01*
X120626115Y-140932688D01*
X120716194Y-140970000D01*
X120626115Y-141007312D01*
X120398289Y-141159540D01*
X120204540Y-141353289D01*
X120052312Y-141581115D01*
X119947456Y-141834260D01*
X119894000Y-142102999D01*
X119894000Y-142377001D01*
X119947456Y-142645740D01*
X120052312Y-142898885D01*
X120204540Y-143126711D01*
X120398289Y-143320460D01*
X120498152Y-143387186D01*
X120269000Y-143387186D01*
X120195487Y-143394426D01*
X120124800Y-143415869D01*
X120059653Y-143450691D01*
X120002552Y-143497552D01*
X119955691Y-143554653D01*
X119920869Y-143619800D01*
X119899426Y-143690487D01*
X119892186Y-143764000D01*
X119815000Y-143764000D01*
X119815000Y-122661184D01*
X119881345Y-122785306D01*
X120144828Y-122883396D01*
X121108223Y-121920000D01*
X121461777Y-121920000D01*
X122425172Y-122883396D01*
X122688655Y-122785306D01*
X122830497Y-122494840D01*
X122857358Y-122393013D01*
X122872348Y-122429203D01*
X122989993Y-122605272D01*
X123139728Y-122755007D01*
X123315797Y-122872652D01*
X123511434Y-122953688D01*
X123719122Y-122995000D01*
X123930878Y-122995000D01*
X124138566Y-122953688D01*
X124334203Y-122872652D01*
X124510272Y-122755007D01*
X124660007Y-122605272D01*
X124777652Y-122429203D01*
X124858688Y-122233566D01*
X124900000Y-122025878D01*
X124900000Y-121814122D01*
X124858688Y-121606434D01*
X124777652Y-121410797D01*
X124660007Y-121234728D01*
X124510272Y-121084993D01*
X124334203Y-120967348D01*
X124309168Y-120956978D01*
X126478165Y-120956978D01*
X126516386Y-121181090D01*
X126597595Y-121393439D01*
X126718671Y-121585865D01*
X126874961Y-121750973D01*
X127060459Y-121882418D01*
X127268036Y-121975148D01*
X127332705Y-121984557D01*
X127510000Y-121860857D01*
X127510000Y-120775000D01*
X126635833Y-120775000D01*
X126478165Y-120956978D01*
X124309168Y-120956978D01*
X124138566Y-120886312D01*
X123930878Y-120845000D01*
X123719122Y-120845000D01*
X123511434Y-120886312D01*
X123315797Y-120967348D01*
X123139728Y-121084993D01*
X122989993Y-121234728D01*
X122872348Y-121410797D01*
X122857518Y-121446600D01*
X122784305Y-121233642D01*
X122688655Y-121054694D01*
X122425172Y-120956604D01*
X121461777Y-121920000D01*
X121108223Y-121920000D01*
X120144828Y-120956604D01*
X119881345Y-121054694D01*
X119815000Y-121190556D01*
X119815000Y-112501184D01*
X119881345Y-112625306D01*
X120144828Y-112723396D01*
X121108223Y-111760000D01*
X121461777Y-111760000D01*
X122425172Y-112723396D01*
X122656561Y-112637254D01*
X122676869Y-112704200D01*
X122711691Y-112769347D01*
X122758552Y-112826448D01*
X122815653Y-112873309D01*
X122880800Y-112908131D01*
X122951487Y-112929574D01*
X123025000Y-112936814D01*
X124625000Y-112936814D01*
X124698513Y-112929574D01*
X124769200Y-112908131D01*
X124834347Y-112873309D01*
X124891448Y-112826448D01*
X124938309Y-112769347D01*
X124973131Y-112704200D01*
X124994574Y-112633513D01*
X125001814Y-112560000D01*
X125001814Y-110960000D01*
X124994574Y-110886487D01*
X124973131Y-110815800D01*
X124938309Y-110750653D01*
X124891448Y-110693552D01*
X124834347Y-110646691D01*
X124769200Y-110611869D01*
X124698513Y-110590426D01*
X124625000Y-110583186D01*
X123025000Y-110583186D01*
X122951487Y-110590426D01*
X122880800Y-110611869D01*
X122815653Y-110646691D01*
X122758552Y-110693552D01*
X122711691Y-110750653D01*
X122676869Y-110815800D01*
X122656561Y-110882746D01*
X122425172Y-110796604D01*
X121461777Y-111760000D01*
X121108223Y-111760000D01*
X120144828Y-110796604D01*
X119881345Y-110894694D01*
X119815000Y-111030556D01*
X119815000Y-109082999D01*
X119894000Y-109082999D01*
X119894000Y-109357001D01*
X119947456Y-109625740D01*
X120052312Y-109878885D01*
X120204540Y-110106711D01*
X120398289Y-110300460D01*
X120454269Y-110337864D01*
X120419694Y-110356345D01*
X120321604Y-110619828D01*
X121285000Y-111583223D01*
X122248396Y-110619828D01*
X122150306Y-110356345D01*
X122114350Y-110338787D01*
X122171711Y-110300460D01*
X122365460Y-110106711D01*
X122517688Y-109878885D01*
X122622544Y-109625740D01*
X122676000Y-109357001D01*
X122676000Y-109082999D01*
X122622544Y-108814260D01*
X122517688Y-108561115D01*
X122365460Y-108333289D01*
X122171711Y-108139540D01*
X121943885Y-107987312D01*
X121690740Y-107882456D01*
X121422001Y-107829000D01*
X121147999Y-107829000D01*
X120879260Y-107882456D01*
X120626115Y-107987312D01*
X120398289Y-108139540D01*
X120204540Y-108333289D01*
X120052312Y-108561115D01*
X119947456Y-108814260D01*
X119894000Y-109082999D01*
X119815000Y-109082999D01*
X119815000Y-105205479D01*
X120110000Y-105205479D01*
X120110000Y-105594521D01*
X120185898Y-105976086D01*
X120334778Y-106335513D01*
X120550917Y-106658989D01*
X120826011Y-106934083D01*
X121149487Y-107150222D01*
X121508914Y-107299102D01*
X121890479Y-107375000D01*
X122279521Y-107375000D01*
X122661086Y-107299102D01*
X123020513Y-107150222D01*
X123343989Y-106934083D01*
X123619083Y-106658989D01*
X123698822Y-106539650D01*
X124305000Y-106539650D01*
X124305000Y-106820350D01*
X124359762Y-107095657D01*
X124467181Y-107354991D01*
X124623130Y-107588385D01*
X124821615Y-107786870D01*
X125055009Y-107942819D01*
X125105001Y-107963526D01*
X125105000Y-112999306D01*
X125101977Y-113030000D01*
X125105000Y-113060694D01*
X125105000Y-113060703D01*
X125114043Y-113152520D01*
X125149781Y-113270333D01*
X125207817Y-113378910D01*
X125285920Y-113474080D01*
X125309776Y-113493658D01*
X126536346Y-114720229D01*
X126555920Y-114744080D01*
X126579769Y-114763652D01*
X126651087Y-114822182D01*
X126651089Y-114822183D01*
X126759666Y-114880219D01*
X126877479Y-114915957D01*
X126969296Y-114925000D01*
X126969305Y-114925000D01*
X126999999Y-114928023D01*
X127030693Y-114925000D01*
X137170001Y-114925000D01*
X137170000Y-115610594D01*
X137143693Y-115621491D01*
X136918489Y-115771968D01*
X136726968Y-115963489D01*
X136576491Y-116188693D01*
X136472841Y-116438927D01*
X136420000Y-116704574D01*
X136420000Y-116975426D01*
X136472841Y-117241073D01*
X136576491Y-117491307D01*
X136726968Y-117716511D01*
X136918489Y-117908032D01*
X137143693Y-118058509D01*
X137393927Y-118162159D01*
X137659574Y-118215000D01*
X137930426Y-118215000D01*
X138196073Y-118162159D01*
X138446307Y-118058509D01*
X138671511Y-117908032D01*
X138863032Y-117716511D01*
X139013509Y-117491307D01*
X139075001Y-117342852D01*
X139075001Y-118305000D01*
X138959122Y-118305000D01*
X138751434Y-118346312D01*
X138555797Y-118427348D01*
X138379728Y-118544993D01*
X138229993Y-118694728D01*
X138112348Y-118870797D01*
X138031312Y-119066434D01*
X137990000Y-119274122D01*
X137990000Y-119485878D01*
X138031312Y-119693566D01*
X138112348Y-119889203D01*
X138229993Y-120065272D01*
X138379728Y-120215007D01*
X138555797Y-120332652D01*
X138751434Y-120413688D01*
X138959122Y-120455000D01*
X139170878Y-120455000D01*
X139378566Y-120413688D01*
X139574203Y-120332652D01*
X139750272Y-120215007D01*
X139900007Y-120065272D01*
X140017652Y-119889203D01*
X140098688Y-119693566D01*
X140140000Y-119485878D01*
X140140000Y-119274122D01*
X140126030Y-119203893D01*
X140144080Y-119189080D01*
X140163649Y-119165235D01*
X140163653Y-119165231D01*
X140222183Y-119093912D01*
X140280218Y-118985335D01*
X140280219Y-118985334D01*
X140315957Y-118867521D01*
X140325000Y-118775704D01*
X140325000Y-118775702D01*
X140328024Y-118745000D01*
X140325000Y-118714296D01*
X140325000Y-112486042D01*
X140342515Y-112522740D01*
X140515577Y-112754383D01*
X140730504Y-112947812D01*
X140979038Y-113095594D01*
X141158395Y-113159060D01*
X141024745Y-113214419D01*
X140824108Y-113348481D01*
X140653481Y-113519108D01*
X140519419Y-113719745D01*
X140427076Y-113942681D01*
X140380000Y-114179348D01*
X140380000Y-114420652D01*
X140427076Y-114657319D01*
X140519419Y-114880255D01*
X140653481Y-115080892D01*
X140824108Y-115251519D01*
X141024745Y-115385581D01*
X141247681Y-115477924D01*
X141484348Y-115525000D01*
X141725652Y-115525000D01*
X141962319Y-115477924D01*
X142185255Y-115385581D01*
X142385892Y-115251519D01*
X142556519Y-115080892D01*
X142660683Y-114925000D01*
X142898276Y-114925000D01*
X142912312Y-114958885D01*
X143064540Y-115186711D01*
X143258289Y-115380460D01*
X143486115Y-115532688D01*
X143576194Y-115570000D01*
X143486115Y-115607312D01*
X143258289Y-115759540D01*
X143064540Y-115953289D01*
X142912312Y-116181115D01*
X142898276Y-116215000D01*
X142660683Y-116215000D01*
X142556519Y-116059108D01*
X142385892Y-115888481D01*
X142185255Y-115754419D01*
X141962319Y-115662076D01*
X141725652Y-115615000D01*
X141484348Y-115615000D01*
X141247681Y-115662076D01*
X141024745Y-115754419D01*
X140824108Y-115888481D01*
X140653481Y-116059108D01*
X140519419Y-116259745D01*
X140427076Y-116482681D01*
X140380000Y-116719348D01*
X140380000Y-116960652D01*
X140427076Y-117197319D01*
X140519419Y-117420255D01*
X140653481Y-117620892D01*
X140824108Y-117791519D01*
X141024745Y-117925581D01*
X141247681Y-118017924D01*
X141484348Y-118065000D01*
X141725652Y-118065000D01*
X141962319Y-118017924D01*
X142185255Y-117925581D01*
X142385892Y-117791519D01*
X142556519Y-117620892D01*
X142660683Y-117465000D01*
X142898276Y-117465000D01*
X142912312Y-117498885D01*
X143064540Y-117726711D01*
X143258289Y-117920460D01*
X143486115Y-118072688D01*
X143576194Y-118110000D01*
X143486115Y-118147312D01*
X143258289Y-118299540D01*
X143064540Y-118493289D01*
X142912312Y-118721115D01*
X142807456Y-118974260D01*
X142754000Y-119242999D01*
X142754000Y-119517001D01*
X142807456Y-119785740D01*
X142912312Y-120038885D01*
X143064540Y-120266711D01*
X143258289Y-120460460D01*
X143486115Y-120612688D01*
X143576194Y-120650000D01*
X143486115Y-120687312D01*
X143258289Y-120839540D01*
X143064540Y-121033289D01*
X142912312Y-121261115D01*
X142807456Y-121514260D01*
X142754000Y-121782999D01*
X142754000Y-122057001D01*
X142807456Y-122325740D01*
X142912312Y-122578885D01*
X143064540Y-122806711D01*
X143258289Y-123000460D01*
X143486115Y-123152688D01*
X143576194Y-123190000D01*
X143486115Y-123227312D01*
X143258289Y-123379540D01*
X143064540Y-123573289D01*
X142912312Y-123801115D01*
X142807456Y-124054260D01*
X142754000Y-124322999D01*
X142754000Y-124597001D01*
X142807456Y-124865740D01*
X142912312Y-125118885D01*
X143064540Y-125346711D01*
X143258289Y-125540460D01*
X143486115Y-125692688D01*
X143576194Y-125730000D01*
X143486115Y-125767312D01*
X143258289Y-125919540D01*
X143064540Y-126113289D01*
X142912312Y-126341115D01*
X142807456Y-126594260D01*
X142754000Y-126862999D01*
X142754000Y-127137001D01*
X142807456Y-127405740D01*
X142912312Y-127658885D01*
X143064540Y-127886711D01*
X143258289Y-128080460D01*
X143314269Y-128117864D01*
X143279694Y-128136345D01*
X143181604Y-128399828D01*
X144145000Y-129363223D01*
X145108396Y-128399828D01*
X145010306Y-128136345D01*
X144974350Y-128118787D01*
X145031711Y-128080460D01*
X145225460Y-127886711D01*
X145377688Y-127658885D01*
X145482544Y-127405740D01*
X145536000Y-127137001D01*
X145536000Y-126862999D01*
X145482544Y-126594260D01*
X145377688Y-126341115D01*
X145225460Y-126113289D01*
X145031711Y-125919540D01*
X144803885Y-125767312D01*
X144713806Y-125730000D01*
X144803885Y-125692688D01*
X145031711Y-125540460D01*
X145225460Y-125346711D01*
X145377688Y-125118885D01*
X145482544Y-124865740D01*
X145536000Y-124597001D01*
X145536000Y-124322999D01*
X145482544Y-124054260D01*
X145377688Y-123801115D01*
X145225460Y-123573289D01*
X145031711Y-123379540D01*
X144803885Y-123227312D01*
X144713806Y-123190000D01*
X144803885Y-123152688D01*
X145031711Y-123000460D01*
X145225460Y-122806711D01*
X145377688Y-122578885D01*
X145482544Y-122325740D01*
X145536000Y-122057001D01*
X145536000Y-121782999D01*
X145482544Y-121514260D01*
X145377688Y-121261115D01*
X145225460Y-121033289D01*
X145031711Y-120839540D01*
X144803885Y-120687312D01*
X144713806Y-120650000D01*
X144803885Y-120612688D01*
X145031711Y-120460460D01*
X145225460Y-120266711D01*
X145377688Y-120038885D01*
X145482544Y-119785740D01*
X145536000Y-119517001D01*
X145536000Y-119242999D01*
X145482544Y-118974260D01*
X145377688Y-118721115D01*
X145225460Y-118493289D01*
X145031711Y-118299540D01*
X144803885Y-118147312D01*
X144713806Y-118110000D01*
X144803885Y-118072688D01*
X145031711Y-117920460D01*
X145225460Y-117726711D01*
X145377688Y-117498885D01*
X145482544Y-117245740D01*
X145536000Y-116977001D01*
X145536000Y-116702999D01*
X145482544Y-116434260D01*
X145377688Y-116181115D01*
X145225460Y-115953289D01*
X145031711Y-115759540D01*
X144803885Y-115607312D01*
X144713806Y-115570000D01*
X144803885Y-115532688D01*
X145031711Y-115380460D01*
X145225460Y-115186711D01*
X145377688Y-114958885D01*
X145482544Y-114705740D01*
X145536000Y-114437001D01*
X145536000Y-114162999D01*
X145482544Y-113894260D01*
X145377688Y-113641115D01*
X145225460Y-113413289D01*
X145031711Y-113219540D01*
X144975731Y-113182136D01*
X145010306Y-113163655D01*
X145108396Y-112900172D01*
X144145000Y-111936777D01*
X143181604Y-112900172D01*
X143279694Y-113163655D01*
X143315650Y-113181213D01*
X143258289Y-113219540D01*
X143064540Y-113413289D01*
X142912312Y-113641115D01*
X142898276Y-113675000D01*
X142660683Y-113675000D01*
X142556519Y-113519108D01*
X142385892Y-113348481D01*
X142185255Y-113214419D01*
X142051605Y-113159060D01*
X142230962Y-113095594D01*
X142479496Y-112947812D01*
X142694423Y-112754383D01*
X142780083Y-112639727D01*
X143004828Y-112723396D01*
X143968223Y-111760000D01*
X143004828Y-110796604D01*
X142780083Y-110880273D01*
X142694423Y-110765617D01*
X142479496Y-110572188D01*
X142268647Y-110446814D01*
X142455000Y-110446814D01*
X142528513Y-110439574D01*
X142599200Y-110418131D01*
X142664347Y-110383309D01*
X142721448Y-110336448D01*
X142768309Y-110279347D01*
X142803131Y-110214200D01*
X142824574Y-110143513D01*
X142831814Y-110070000D01*
X142831814Y-109684545D01*
X142912312Y-109878885D01*
X143064540Y-110106711D01*
X143258289Y-110300460D01*
X143314269Y-110337864D01*
X143279694Y-110356345D01*
X143181604Y-110619828D01*
X144145000Y-111583223D01*
X145108396Y-110619828D01*
X145010306Y-110356345D01*
X144974350Y-110338787D01*
X145031711Y-110300460D01*
X145225460Y-110106711D01*
X145377688Y-109878885D01*
X145482544Y-109625740D01*
X145536000Y-109357001D01*
X145536000Y-109082999D01*
X145482544Y-108814260D01*
X145377688Y-108561115D01*
X145225460Y-108333289D01*
X145031711Y-108139540D01*
X144803885Y-107987312D01*
X144550740Y-107882456D01*
X144282001Y-107829000D01*
X144007999Y-107829000D01*
X143739260Y-107882456D01*
X143486115Y-107987312D01*
X143258289Y-108139540D01*
X143064540Y-108333289D01*
X142912312Y-108561115D01*
X142831814Y-108755455D01*
X142831814Y-108370000D01*
X142824574Y-108296487D01*
X142803131Y-108225800D01*
X142768309Y-108160653D01*
X142721448Y-108103552D01*
X142664347Y-108056691D01*
X142599200Y-108021869D01*
X142528513Y-108000426D01*
X142455000Y-107993186D01*
X140755000Y-107993186D01*
X140681487Y-108000426D01*
X140610800Y-108021869D01*
X140545653Y-108056691D01*
X140488552Y-108103552D01*
X140441691Y-108160653D01*
X140406869Y-108225800D01*
X140385426Y-108296487D01*
X140378186Y-108370000D01*
X140378186Y-110070000D01*
X140385426Y-110143513D01*
X140406869Y-110214200D01*
X140441691Y-110279347D01*
X140488552Y-110336448D01*
X140545653Y-110383309D01*
X140610800Y-110418131D01*
X140681487Y-110439574D01*
X140755000Y-110446814D01*
X140941353Y-110446814D01*
X140730504Y-110572188D01*
X140515577Y-110765617D01*
X140342515Y-110997260D01*
X140325000Y-111033958D01*
X140325000Y-107956814D01*
X140600000Y-107956814D01*
X140673513Y-107949574D01*
X140744200Y-107928131D01*
X140809347Y-107893309D01*
X140866448Y-107846448D01*
X140913309Y-107789347D01*
X140948131Y-107724200D01*
X140969574Y-107653513D01*
X140976814Y-107580000D01*
X140976814Y-105780000D01*
X140969574Y-105706487D01*
X140948131Y-105635800D01*
X140913309Y-105570653D01*
X140866448Y-105513552D01*
X140809347Y-105466691D01*
X140744200Y-105431869D01*
X140673513Y-105410426D01*
X140600000Y-105403186D01*
X138800000Y-105403186D01*
X138726487Y-105410426D01*
X138655800Y-105431869D01*
X138590653Y-105466691D01*
X138533552Y-105513552D01*
X138486691Y-105570653D01*
X138451869Y-105635800D01*
X138430426Y-105706487D01*
X138423186Y-105780000D01*
X138423186Y-106495031D01*
X138386002Y-106308096D01*
X138289890Y-106076061D01*
X138150357Y-105867235D01*
X137972765Y-105689643D01*
X137763939Y-105550110D01*
X137531904Y-105453998D01*
X137285577Y-105405000D01*
X137034423Y-105405000D01*
X136788096Y-105453998D01*
X136556061Y-105550110D01*
X136347235Y-105689643D01*
X136169643Y-105867235D01*
X136030110Y-106076061D01*
X135933998Y-106308096D01*
X135885000Y-106554423D01*
X135885000Y-106805577D01*
X135933998Y-107051904D01*
X136030110Y-107283939D01*
X136169643Y-107492765D01*
X136347235Y-107670357D01*
X136556061Y-107809890D01*
X136788096Y-107906002D01*
X137034423Y-107955000D01*
X137285577Y-107955000D01*
X137531904Y-107906002D01*
X137763939Y-107809890D01*
X137972765Y-107670357D01*
X138150357Y-107492765D01*
X138289890Y-107283939D01*
X138386002Y-107051904D01*
X138423186Y-106864969D01*
X138423186Y-107580000D01*
X138430426Y-107653513D01*
X138451869Y-107724200D01*
X138486691Y-107789347D01*
X138533552Y-107846448D01*
X138590653Y-107893309D01*
X138655800Y-107928131D01*
X138726487Y-107949574D01*
X138800000Y-107956814D01*
X139075000Y-107956814D01*
X139075000Y-111257146D01*
X139013509Y-111108693D01*
X138863032Y-110883489D01*
X138671511Y-110691968D01*
X138446307Y-110541491D01*
X138196073Y-110437841D01*
X137930426Y-110385000D01*
X137659574Y-110385000D01*
X137393927Y-110437841D01*
X137143693Y-110541491D01*
X136918489Y-110691968D01*
X136726968Y-110883489D01*
X136576491Y-111108693D01*
X136472841Y-111358927D01*
X136420000Y-111624574D01*
X136420000Y-111895426D01*
X136472841Y-112161073D01*
X136576491Y-112411307D01*
X136726968Y-112636511D01*
X136918489Y-112828032D01*
X137143693Y-112978509D01*
X137170001Y-112989406D01*
X137170000Y-113675000D01*
X127258883Y-113675000D01*
X126355000Y-112771118D01*
X126355000Y-112262854D01*
X126416491Y-112411307D01*
X126566968Y-112636511D01*
X126758489Y-112828032D01*
X126983693Y-112978509D01*
X127233927Y-113082159D01*
X127499574Y-113135000D01*
X127770426Y-113135000D01*
X128036073Y-113082159D01*
X128286307Y-112978509D01*
X128511511Y-112828032D01*
X128703032Y-112636511D01*
X128853509Y-112411307D01*
X128905000Y-112286996D01*
X128956491Y-112411307D01*
X129106968Y-112636511D01*
X129298489Y-112828032D01*
X129523693Y-112978509D01*
X129773927Y-113082159D01*
X130039574Y-113135000D01*
X130310426Y-113135000D01*
X130576073Y-113082159D01*
X130826307Y-112978509D01*
X131051511Y-112828032D01*
X131243032Y-112636511D01*
X131393509Y-112411307D01*
X131497159Y-112161073D01*
X131550000Y-111895426D01*
X131550000Y-111624574D01*
X131497159Y-111358927D01*
X131393509Y-111108693D01*
X131243032Y-110883489D01*
X131051511Y-110691968D01*
X130826307Y-110541491D01*
X130576073Y-110437841D01*
X130310426Y-110385000D01*
X130039574Y-110385000D01*
X129773927Y-110437841D01*
X129523693Y-110541491D01*
X129298489Y-110691968D01*
X129106968Y-110883489D01*
X128956491Y-111108693D01*
X128905000Y-111233004D01*
X128853509Y-111108693D01*
X128703032Y-110883489D01*
X128511511Y-110691968D01*
X128286307Y-110541491D01*
X128260000Y-110530594D01*
X128260000Y-110113883D01*
X128690235Y-109683649D01*
X128714080Y-109664080D01*
X128733649Y-109640235D01*
X128733653Y-109640231D01*
X128792183Y-109568912D01*
X128850218Y-109460335D01*
X128850219Y-109460334D01*
X128885957Y-109342521D01*
X128895000Y-109250704D01*
X128895000Y-109250702D01*
X128898024Y-109220000D01*
X128895000Y-109189298D01*
X128895000Y-107963526D01*
X128944991Y-107942819D01*
X129178385Y-107786870D01*
X129376870Y-107588385D01*
X129532819Y-107354991D01*
X129540000Y-107337654D01*
X129547181Y-107354991D01*
X129703130Y-107588385D01*
X129901615Y-107786870D01*
X130135009Y-107942819D01*
X130394343Y-108050238D01*
X130669650Y-108105000D01*
X130950350Y-108105000D01*
X131225657Y-108050238D01*
X131484991Y-107942819D01*
X131680097Y-107812453D01*
X131684043Y-107852521D01*
X131719781Y-107970334D01*
X131777817Y-108078911D01*
X131855920Y-108174080D01*
X131951089Y-108252183D01*
X132059666Y-108310219D01*
X132177479Y-108345957D01*
X132300000Y-108358024D01*
X133068750Y-108355000D01*
X133225000Y-108198750D01*
X133225000Y-106805000D01*
X133475000Y-106805000D01*
X133475000Y-108198750D01*
X133631250Y-108355000D01*
X134400000Y-108358024D01*
X134522521Y-108345957D01*
X134640334Y-108310219D01*
X134748911Y-108252183D01*
X134844080Y-108174080D01*
X134922183Y-108078911D01*
X134980219Y-107970334D01*
X135015957Y-107852521D01*
X135028024Y-107730000D01*
X135025000Y-106961250D01*
X134868750Y-106805000D01*
X133475000Y-106805000D01*
X133225000Y-106805000D01*
X133205000Y-106805000D01*
X133205000Y-106555000D01*
X133225000Y-106555000D01*
X133225000Y-105161250D01*
X133475000Y-105161250D01*
X133475000Y-106555000D01*
X134868750Y-106555000D01*
X135025000Y-106398750D01*
X135028024Y-105630000D01*
X135015957Y-105507479D01*
X134980219Y-105389666D01*
X134922183Y-105281089D01*
X134860132Y-105205479D01*
X141310000Y-105205479D01*
X141310000Y-105594521D01*
X141385898Y-105976086D01*
X141534778Y-106335513D01*
X141750917Y-106658989D01*
X142026011Y-106934083D01*
X142349487Y-107150222D01*
X142708914Y-107299102D01*
X143090479Y-107375000D01*
X143479521Y-107375000D01*
X143861086Y-107299102D01*
X144220513Y-107150222D01*
X144543989Y-106934083D01*
X144819083Y-106658989D01*
X145035222Y-106335513D01*
X145184102Y-105976086D01*
X145260000Y-105594521D01*
X145260000Y-105205479D01*
X145184102Y-104823914D01*
X145035222Y-104464487D01*
X144819083Y-104141011D01*
X144543989Y-103865917D01*
X144220513Y-103649778D01*
X143861086Y-103500898D01*
X143479521Y-103425000D01*
X143090479Y-103425000D01*
X142708914Y-103500898D01*
X142349487Y-103649778D01*
X142026011Y-103865917D01*
X141750917Y-104141011D01*
X141534778Y-104464487D01*
X141385898Y-104823914D01*
X141310000Y-105205479D01*
X134860132Y-105205479D01*
X134844080Y-105185920D01*
X134748911Y-105107817D01*
X134640334Y-105049781D01*
X134522521Y-105014043D01*
X134400000Y-105001976D01*
X133631250Y-105005000D01*
X133475000Y-105161250D01*
X133225000Y-105161250D01*
X133068750Y-105005000D01*
X132300000Y-105001976D01*
X132177479Y-105014043D01*
X132059666Y-105049781D01*
X131951089Y-105107817D01*
X131855920Y-105185920D01*
X131777817Y-105281089D01*
X131719781Y-105389666D01*
X131684043Y-105507479D01*
X131680097Y-105547547D01*
X131484991Y-105417181D01*
X131225657Y-105309762D01*
X130950350Y-105255000D01*
X130669650Y-105255000D01*
X130394343Y-105309762D01*
X130135009Y-105417181D01*
X129901615Y-105573130D01*
X129703130Y-105771615D01*
X129547181Y-106005009D01*
X129540000Y-106022346D01*
X129532819Y-106005009D01*
X129376870Y-105771615D01*
X129178385Y-105573130D01*
X128944991Y-105417181D01*
X128685657Y-105309762D01*
X128410350Y-105255000D01*
X128129650Y-105255000D01*
X127854343Y-105309762D01*
X127595009Y-105417181D01*
X127361615Y-105573130D01*
X127163130Y-105771615D01*
X127007181Y-106005009D01*
X127000000Y-106022346D01*
X126992819Y-106005009D01*
X126836870Y-105771615D01*
X126638385Y-105573130D01*
X126404991Y-105417181D01*
X126145657Y-105309762D01*
X125870350Y-105255000D01*
X125589650Y-105255000D01*
X125314343Y-105309762D01*
X125055009Y-105417181D01*
X124821615Y-105573130D01*
X124623130Y-105771615D01*
X124467181Y-106005009D01*
X124359762Y-106264343D01*
X124305000Y-106539650D01*
X123698822Y-106539650D01*
X123835222Y-106335513D01*
X123984102Y-105976086D01*
X124060000Y-105594521D01*
X124060000Y-105205479D01*
X123984102Y-104823914D01*
X123835222Y-104464487D01*
X123619083Y-104141011D01*
X123343989Y-103865917D01*
X123020513Y-103649778D01*
X122661086Y-103500898D01*
X122279521Y-103425000D01*
X121890479Y-103425000D01*
X121508914Y-103500898D01*
X121149487Y-103649778D01*
X120826011Y-103865917D01*
X120550917Y-104141011D01*
X120334778Y-104464487D01*
X120185898Y-104823914D01*
X120110000Y-105205479D01*
X119815000Y-105205479D01*
X119815000Y-104166166D01*
X119832949Y-103983111D01*
X119879934Y-103827491D01*
X119956247Y-103683964D01*
X120058989Y-103557990D01*
X120184243Y-103454371D01*
X120327230Y-103377058D01*
X120482521Y-103328987D01*
X120664225Y-103309890D01*
X144758724Y-103309890D01*
X144941779Y-103327839D01*
G37*
X144941779Y-103327839D02*
X145097399Y-103374824D01*
X145240926Y-103451137D01*
X145366900Y-103553879D01*
X145470519Y-103679133D01*
X145547832Y-103822120D01*
X145595903Y-103977411D01*
X145615001Y-104159124D01*
X145615001Y-111018818D01*
X145548655Y-110894694D01*
X145285172Y-110796604D01*
X144321777Y-111760000D01*
X145285172Y-112723396D01*
X145548655Y-112625306D01*
X145615001Y-112489442D01*
X145615000Y-128798817D01*
X145548655Y-128674694D01*
X145285172Y-128576604D01*
X144321777Y-129540000D01*
X145285172Y-130503396D01*
X145548655Y-130405306D01*
X145615000Y-130269443D01*
X145615000Y-150473724D01*
X145597051Y-150656779D01*
X145550066Y-150812399D01*
X145473750Y-150955929D01*
X145371011Y-151081899D01*
X145245757Y-151185519D01*
X145102770Y-151262832D01*
X144947479Y-151310903D01*
X144765775Y-151330000D01*
X138478882Y-151330000D01*
X141407768Y-148401115D01*
X141385898Y-148453914D01*
X141310000Y-148835479D01*
X141310000Y-149224521D01*
X141385898Y-149606086D01*
X141534778Y-149965513D01*
X141750917Y-150288989D01*
X142026011Y-150564083D01*
X142349487Y-150780222D01*
X142708914Y-150929102D01*
X143090479Y-151005000D01*
X143479521Y-151005000D01*
X143861086Y-150929102D01*
X144220513Y-150780222D01*
X144543989Y-150564083D01*
X144819083Y-150288989D01*
X145035222Y-149965513D01*
X145184102Y-149606086D01*
X145260000Y-149224521D01*
X145260000Y-148835479D01*
X145184102Y-148453914D01*
X145035222Y-148094487D01*
X144819083Y-147771011D01*
X144543989Y-147495917D01*
X144220513Y-147279778D01*
X143861086Y-147130898D01*
X143479521Y-147055000D01*
X143090479Y-147055000D01*
X142708914Y-147130898D01*
X142656114Y-147152769D01*
X143705375Y-146103508D01*
X143739260Y-146117544D01*
X144007999Y-146171000D01*
X144282001Y-146171000D01*
X144550740Y-146117544D01*
X144803885Y-146012688D01*
X145031711Y-145860460D01*
X145225460Y-145666711D01*
X145377688Y-145438885D01*
X145482544Y-145185740D01*
X145536000Y-144917001D01*
X145536000Y-144642999D01*
X145482544Y-144374260D01*
X145377688Y-144121115D01*
X145225460Y-143893289D01*
X145031711Y-143699540D01*
X144803885Y-143547312D01*
X144713806Y-143510000D01*
X144803885Y-143472688D01*
X145031711Y-143320460D01*
X145225460Y-143126711D01*
X145377688Y-142898885D01*
X145482544Y-142645740D01*
X145536000Y-142377001D01*
X145536000Y-142102999D01*
X145482544Y-141834260D01*
X145377688Y-141581115D01*
X145225460Y-141353289D01*
X145031711Y-141159540D01*
X144803885Y-141007312D01*
X144713806Y-140970000D01*
X144803885Y-140932688D01*
X145031711Y-140780460D01*
X145225460Y-140586711D01*
X145377688Y-140358885D01*
X145482544Y-140105740D01*
X145536000Y-139837001D01*
X145536000Y-139562999D01*
X145482544Y-139294260D01*
X145377688Y-139041115D01*
X145225460Y-138813289D01*
X145031711Y-138619540D01*
X144803885Y-138467312D01*
X144713806Y-138430000D01*
X144803885Y-138392688D01*
X145031711Y-138240460D01*
X145225460Y-138046711D01*
X145377688Y-137818885D01*
X145482544Y-137565740D01*
X145536000Y-137297001D01*
X145536000Y-137022999D01*
X145482544Y-136754260D01*
X145377688Y-136501115D01*
X145225460Y-136273289D01*
X145031711Y-136079540D01*
X144803885Y-135927312D01*
X144713806Y-135890000D01*
X144803885Y-135852688D01*
X145031711Y-135700460D01*
X145225460Y-135506711D01*
X145377688Y-135278885D01*
X145482544Y-135025740D01*
X145536000Y-134757001D01*
X145536000Y-134482999D01*
X145482544Y-134214260D01*
X145377688Y-133961115D01*
X145225460Y-133733289D01*
X145031711Y-133539540D01*
X144803885Y-133387312D01*
X144713806Y-133350000D01*
X144803885Y-133312688D01*
X145031711Y-133160460D01*
X145225460Y-132966711D01*
X145377688Y-132738885D01*
X145482544Y-132485740D01*
X145536000Y-132217001D01*
X145536000Y-131942999D01*
X145482544Y-131674260D01*
X145377688Y-131421115D01*
X145225460Y-131193289D01*
X145031711Y-130999540D01*
X144975731Y-130962136D01*
X145010306Y-130943655D01*
X145108396Y-130680172D01*
X144145000Y-129716777D01*
X143181604Y-130680172D01*
X143279694Y-130943655D01*
X143315650Y-130961213D01*
X143258289Y-130999540D01*
X143064540Y-131193289D01*
X142912312Y-131421115D01*
X142807456Y-131674260D01*
X142754000Y-131942999D01*
X142754000Y-132217001D01*
X142807456Y-132485740D01*
X142912312Y-132738885D01*
X143064540Y-132966711D01*
X143258289Y-133160460D01*
X143486115Y-133312688D01*
X143576194Y-133350000D01*
X143486115Y-133387312D01*
X143258289Y-133539540D01*
X143064540Y-133733289D01*
X142912312Y-133961115D01*
X142807456Y-134214260D01*
X142754000Y-134482999D01*
X142754000Y-134757001D01*
X142785812Y-134916929D01*
X138323521Y-130454638D01*
X140867138Y-130454638D01*
X140927001Y-130685850D01*
X141163572Y-130796104D01*
X141417108Y-130858087D01*
X141677864Y-130869417D01*
X141935820Y-130829657D01*
X142181063Y-130740336D01*
X142282999Y-130685850D01*
X142342862Y-130454638D01*
X141605000Y-129716777D01*
X140867138Y-130454638D01*
X138323521Y-130454638D01*
X137481747Y-129612864D01*
X140275583Y-129612864D01*
X140315343Y-129870820D01*
X140404664Y-130116063D01*
X140459150Y-130217999D01*
X140690362Y-130277862D01*
X141428223Y-129540000D01*
X141781777Y-129540000D01*
X142519638Y-130277862D01*
X142654554Y-130242931D01*
X142741345Y-130405306D01*
X143004828Y-130503396D01*
X143968223Y-129540000D01*
X143004828Y-128576604D01*
X142741345Y-128674694D01*
X142661211Y-128838793D01*
X142519638Y-128802138D01*
X141781777Y-129540000D01*
X141428223Y-129540000D01*
X140690362Y-128802138D01*
X140459150Y-128862001D01*
X140348896Y-129098572D01*
X140286913Y-129352108D01*
X140275583Y-129612864D01*
X137481747Y-129612864D01*
X136494245Y-128625362D01*
X140867138Y-128625362D01*
X141605000Y-129363223D01*
X142342862Y-128625362D01*
X142282999Y-128394150D01*
X142046428Y-128283896D01*
X141792892Y-128221913D01*
X141532136Y-128210583D01*
X141274180Y-128250343D01*
X141028937Y-128339664D01*
X140927001Y-128394150D01*
X140867138Y-128625362D01*
X136494245Y-128625362D01*
X135245000Y-127376118D01*
X135245000Y-126577703D01*
X135245800Y-126578131D01*
X135316487Y-126599574D01*
X135390000Y-126606814D01*
X136390000Y-126606814D01*
X136463513Y-126599574D01*
X136534200Y-126578131D01*
X136599347Y-126543309D01*
X136656448Y-126496448D01*
X136703309Y-126439347D01*
X136738131Y-126374200D01*
X136759574Y-126303513D01*
X136766814Y-126230000D01*
X136766814Y-125230000D01*
X136759574Y-125156487D01*
X136738131Y-125085800D01*
X136703309Y-125020653D01*
X136656448Y-124963552D01*
X136599347Y-124916691D01*
X136534200Y-124881869D01*
X136463513Y-124860426D01*
X136390000Y-124853186D01*
X135390000Y-124853186D01*
X135316487Y-124860426D01*
X135245800Y-124881869D01*
X135245000Y-124882297D01*
X135245000Y-121755472D01*
X135291487Y-121769574D01*
X135365000Y-121776814D01*
X136415000Y-121776814D01*
X136488513Y-121769574D01*
X136559200Y-121748131D01*
X136624347Y-121713309D01*
X136681448Y-121666448D01*
X136728309Y-121609347D01*
X136763131Y-121544200D01*
X136784574Y-121473513D01*
X136791814Y-121400000D01*
X136791814Y-121275000D01*
X136901118Y-121275000D01*
X138440001Y-122813884D01*
X138440000Y-126124721D01*
X138379728Y-126164993D01*
X138229993Y-126314728D01*
X138112348Y-126490797D01*
X138031312Y-126686434D01*
X137990000Y-126894122D01*
X137990000Y-127105878D01*
X138031312Y-127313566D01*
X138112348Y-127509203D01*
X138229993Y-127685272D01*
X138379728Y-127835007D01*
X138555797Y-127952652D01*
X138751434Y-128033688D01*
X138959122Y-128075000D01*
X139170878Y-128075000D01*
X139378566Y-128033688D01*
X139574203Y-127952652D01*
X139750272Y-127835007D01*
X139900007Y-127685272D01*
X140017652Y-127509203D01*
X140098688Y-127313566D01*
X140140000Y-127105878D01*
X140140000Y-126894122D01*
X140098688Y-126686434D01*
X140017652Y-126490797D01*
X139900007Y-126314728D01*
X139750272Y-126164993D01*
X139690000Y-126124721D01*
X139690000Y-122585701D01*
X139693024Y-122555000D01*
X139690000Y-122524296D01*
X139680957Y-122432479D01*
X139645219Y-122314666D01*
X139587183Y-122206089D01*
X139509080Y-122110920D01*
X139485229Y-122091346D01*
X137623658Y-120229776D01*
X137604080Y-120205920D01*
X137508911Y-120127817D01*
X137400334Y-120069781D01*
X137282521Y-120034043D01*
X137190704Y-120025000D01*
X137190694Y-120025000D01*
X137160000Y-120021977D01*
X137129306Y-120025000D01*
X136791814Y-120025000D01*
X136791814Y-119900000D01*
X136784574Y-119826487D01*
X136763131Y-119755800D01*
X136728309Y-119690653D01*
X136681448Y-119633552D01*
X136624347Y-119586691D01*
X136559200Y-119551869D01*
X136488513Y-119530426D01*
X136415000Y-119523186D01*
X135365000Y-119523186D01*
X135291487Y-119530426D01*
X135220800Y-119551869D01*
X135155653Y-119586691D01*
X135098552Y-119633552D01*
X135083298Y-119652139D01*
X134966081Y-119589486D01*
X134796431Y-119538023D01*
X134620000Y-119520646D01*
X134443570Y-119538023D01*
X134273920Y-119589486D01*
X134190530Y-119634059D01*
X134110039Y-119549027D01*
X133924541Y-119417582D01*
X133716964Y-119324852D01*
X133652295Y-119315443D01*
X133475000Y-119439143D01*
X133475000Y-120525000D01*
X133495000Y-120525000D01*
X133495000Y-120775000D01*
X133475000Y-120775000D01*
X133475000Y-121860857D01*
X133652295Y-121984557D01*
X133716964Y-121975148D01*
X133924541Y-121882418D01*
X133995001Y-121832490D01*
X133995000Y-125137563D01*
X133907780Y-125050343D01*
X133764468Y-124954585D01*
X133605228Y-124888626D01*
X133436180Y-124855000D01*
X133263820Y-124855000D01*
X133094772Y-124888626D01*
X132935532Y-124954585D01*
X132792220Y-125050343D01*
X132670343Y-125172220D01*
X132574585Y-125315532D01*
X132508626Y-125474772D01*
X132475000Y-125643820D01*
X132475000Y-125816180D01*
X132508626Y-125985228D01*
X132574585Y-126144468D01*
X132670343Y-126287780D01*
X132725000Y-126342437D01*
X132725001Y-131414296D01*
X132721977Y-131445000D01*
X132725001Y-131475704D01*
X132734044Y-131567521D01*
X132769782Y-131685334D01*
X132827818Y-131793911D01*
X132905921Y-131889080D01*
X132929772Y-131908654D01*
X141141346Y-140120229D01*
X141160920Y-140144080D01*
X141256089Y-140222183D01*
X141364666Y-140280219D01*
X141482479Y-140315957D01*
X141574296Y-140325000D01*
X141574306Y-140325000D01*
X141605000Y-140328023D01*
X141635694Y-140325000D01*
X142898276Y-140325000D01*
X142912312Y-140358885D01*
X143064540Y-140586711D01*
X143258289Y-140780460D01*
X143486115Y-140932688D01*
X143576194Y-140970000D01*
X143486115Y-141007312D01*
X143258289Y-141159540D01*
X143064540Y-141353289D01*
X142912312Y-141581115D01*
X142898276Y-141615000D01*
X139958883Y-141615000D01*
X130165000Y-131821118D01*
X130165000Y-126322437D01*
X130252220Y-126409657D01*
X130395532Y-126505415D01*
X130554772Y-126571374D01*
X130723820Y-126605000D01*
X130896180Y-126605000D01*
X131065228Y-126571374D01*
X131224468Y-126505415D01*
X131367780Y-126409657D01*
X131489657Y-126287780D01*
X131585415Y-126144468D01*
X131651374Y-125985228D01*
X131685000Y-125816180D01*
X131685000Y-125643820D01*
X131651374Y-125474772D01*
X131585415Y-125315532D01*
X131489657Y-125172220D01*
X131367780Y-125050343D01*
X131224468Y-124954585D01*
X131065228Y-124888626D01*
X130896180Y-124855000D01*
X130723820Y-124855000D01*
X130554772Y-124888626D01*
X130395532Y-124954585D01*
X130252220Y-125050343D01*
X130165000Y-125137563D01*
X130165000Y-123855702D01*
X130168024Y-123825000D01*
X130165000Y-123794296D01*
X130155957Y-123702479D01*
X130120219Y-123584666D01*
X130088005Y-123524398D01*
X130062183Y-123476088D01*
X130003653Y-123404769D01*
X130003649Y-123404765D01*
X129984080Y-123380920D01*
X129960234Y-123361350D01*
X129530000Y-122931117D01*
X129530000Y-121755472D01*
X129576487Y-121769574D01*
X129650000Y-121776814D01*
X130700000Y-121776814D01*
X130773513Y-121769574D01*
X130844200Y-121748131D01*
X130909347Y-121713309D01*
X130966448Y-121666448D01*
X131013309Y-121609347D01*
X131048131Y-121544200D01*
X131069574Y-121473513D01*
X131076814Y-121400000D01*
X131076814Y-120956978D01*
X132193165Y-120956978D01*
X132231386Y-121181090D01*
X132312595Y-121393439D01*
X132433671Y-121585865D01*
X132589961Y-121750973D01*
X132775459Y-121882418D01*
X132983036Y-121975148D01*
X133047705Y-121984557D01*
X133225000Y-121860857D01*
X133225000Y-120775000D01*
X132350833Y-120775000D01*
X132193165Y-120956978D01*
X131076814Y-120956978D01*
X131076814Y-120343022D01*
X132193165Y-120343022D01*
X132350833Y-120525000D01*
X133225000Y-120525000D01*
X133225000Y-119439143D01*
X133047705Y-119315443D01*
X132983036Y-119324852D01*
X132775459Y-119417582D01*
X132589961Y-119549027D01*
X132433671Y-119714135D01*
X132312595Y-119906561D01*
X132231386Y-120118910D01*
X132193165Y-120343022D01*
X131076814Y-120343022D01*
X131076814Y-119900000D01*
X131069574Y-119826487D01*
X131048131Y-119755800D01*
X131013309Y-119690653D01*
X130966448Y-119633552D01*
X130909347Y-119586691D01*
X130844200Y-119551869D01*
X130800000Y-119538461D01*
X130800000Y-118775703D01*
X130803024Y-118745000D01*
X130800000Y-118714296D01*
X130800000Y-118069406D01*
X130826307Y-118058509D01*
X131051511Y-117908032D01*
X131243032Y-117716511D01*
X131393509Y-117491307D01*
X131497159Y-117241073D01*
X131550000Y-116975426D01*
X131550000Y-116704574D01*
X131497159Y-116438927D01*
X131393509Y-116188693D01*
X131243032Y-115963489D01*
X131051511Y-115771968D01*
X130826307Y-115621491D01*
X130576073Y-115517841D01*
X130310426Y-115465000D01*
X130039574Y-115465000D01*
X129773927Y-115517841D01*
X129523693Y-115621491D01*
X129298489Y-115771968D01*
X129106968Y-115963489D01*
X129011814Y-116105897D01*
X129011814Y-115840000D01*
X129004574Y-115766487D01*
X128983131Y-115695800D01*
X128948309Y-115630653D01*
X128901448Y-115573552D01*
X128844347Y-115526691D01*
X128779200Y-115491869D01*
X128708513Y-115470426D01*
X128635000Y-115463186D01*
X126635000Y-115463186D01*
X126561487Y-115470426D01*
X126490800Y-115491869D01*
X126425653Y-115526691D01*
X126368552Y-115573552D01*
X126321691Y-115630653D01*
X126286869Y-115695800D01*
X126265426Y-115766487D01*
X126258186Y-115840000D01*
X126258186Y-117840000D01*
X126265426Y-117913513D01*
X126286869Y-117984200D01*
X126321691Y-118049347D01*
X126368552Y-118106448D01*
X126383615Y-118118809D01*
X126365000Y-118116976D01*
X126334298Y-118120000D01*
X126334296Y-118120000D01*
X126242479Y-118129043D01*
X126124666Y-118164781D01*
X126080982Y-118188131D01*
X126016088Y-118222817D01*
X125944769Y-118281347D01*
X125944765Y-118281351D01*
X125920920Y-118300920D01*
X125901350Y-118324766D01*
X125471117Y-118755000D01*
X124820548Y-118755000D01*
X124737682Y-118630981D01*
X124574019Y-118467318D01*
X124381571Y-118338729D01*
X124167735Y-118250155D01*
X123940727Y-118205000D01*
X123709273Y-118205000D01*
X123482265Y-118250155D01*
X123268429Y-118338729D01*
X123075981Y-118467318D01*
X122912318Y-118630981D01*
X122783729Y-118823429D01*
X122695155Y-119037265D01*
X122665116Y-119188281D01*
X122622544Y-118974260D01*
X122517688Y-118721115D01*
X122365460Y-118493289D01*
X122171711Y-118299540D01*
X121943885Y-118147312D01*
X121853806Y-118110000D01*
X121943885Y-118072688D01*
X122171711Y-117920460D01*
X122365460Y-117726711D01*
X122517688Y-117498885D01*
X122622544Y-117245740D01*
X122676000Y-116977001D01*
X122676000Y-116702999D01*
X122622544Y-116434260D01*
X122517688Y-116181115D01*
X122365460Y-115953289D01*
X122171711Y-115759540D01*
X121943885Y-115607312D01*
X121853806Y-115570000D01*
X121943885Y-115532688D01*
X122171711Y-115380460D01*
X122365460Y-115186711D01*
X122517688Y-114958885D01*
X122622544Y-114705740D01*
X122676000Y-114437001D01*
X122676000Y-114162999D01*
X122622544Y-113894260D01*
X122517688Y-113641115D01*
X122365460Y-113413289D01*
X122171711Y-113219540D01*
X122115731Y-113182136D01*
X122150306Y-113163655D01*
X122248396Y-112900172D01*
X121285000Y-111936777D01*
X120321604Y-112900172D01*
X120419694Y-113163655D01*
X120455650Y-113181213D01*
X120398289Y-113219540D01*
X120204540Y-113413289D01*
X120052312Y-113641115D01*
X119947456Y-113894260D01*
X119894000Y-114162999D01*
X119894000Y-114437001D01*
X119947456Y-114705740D01*
X120052312Y-114958885D01*
X120204540Y-115186711D01*
X120398289Y-115380460D01*
X120626115Y-115532688D01*
X120716194Y-115570000D01*
X120626115Y-115607312D01*
X120398289Y-115759540D01*
X120204540Y-115953289D01*
X120052312Y-116181115D01*
X119947456Y-116434260D01*
X119894000Y-116702999D01*
X119894000Y-116977001D01*
X119947456Y-117245740D01*
X120052312Y-117498885D01*
X120204540Y-117726711D01*
X120398289Y-117920460D01*
X120626115Y-118072688D01*
X120716194Y-118110000D01*
X120626115Y-118147312D01*
X120398289Y-118299540D01*
X120204540Y-118493289D01*
X120052312Y-118721115D01*
X119947456Y-118974260D01*
X119894000Y-119242999D01*
X119894000Y-119517001D01*
X119947456Y-119785740D01*
X120052312Y-120038885D01*
X120204540Y-120266711D01*
X120398289Y-120460460D01*
X120454269Y-120497864D01*
X120419694Y-120516345D01*
X120321604Y-120779828D01*
X121285000Y-121743223D01*
X122248396Y-120779828D01*
X122150306Y-120516345D01*
X122114350Y-120498787D01*
X122171711Y-120460460D01*
X122365460Y-120266711D01*
X122517688Y-120038885D01*
X122622544Y-119785740D01*
X122665116Y-119571719D01*
X122695155Y-119722735D01*
X122783729Y-119936571D01*
X122912318Y-120129019D01*
X123075981Y-120292682D01*
X123268429Y-120421271D01*
X123482265Y-120509845D01*
X123709273Y-120555000D01*
X123940727Y-120555000D01*
X124167735Y-120509845D01*
X124381571Y-120421271D01*
X124574019Y-120292682D01*
X124737682Y-120129019D01*
X124820548Y-120005000D01*
X125699306Y-120005000D01*
X125730000Y-120008023D01*
X125760694Y-120005000D01*
X125760704Y-120005000D01*
X125852521Y-119995957D01*
X125970334Y-119960219D01*
X126078911Y-119902183D01*
X126174080Y-119824080D01*
X126193658Y-119800224D01*
X126623883Y-119370000D01*
X127166972Y-119370000D01*
X127060459Y-119417582D01*
X126874961Y-119549027D01*
X126718671Y-119714135D01*
X126597595Y-119906561D01*
X126516386Y-120118910D01*
X126478165Y-120343022D01*
X126635833Y-120525000D01*
X127510000Y-120525000D01*
X127510000Y-120505000D01*
X127760000Y-120505000D01*
X127760000Y-120525000D01*
X127780000Y-120525000D01*
X127780000Y-120775000D01*
X127760000Y-120775000D01*
X127760000Y-121860857D01*
X127937295Y-121984557D01*
X128001964Y-121975148D01*
X128209541Y-121882418D01*
X128280001Y-121832490D01*
X128280000Y-123159306D01*
X128276977Y-123190000D01*
X128280000Y-123220694D01*
X128280000Y-123220703D01*
X128289043Y-123312520D01*
X128324781Y-123430333D01*
X128382817Y-123538910D01*
X128460920Y-123634080D01*
X128484776Y-123653658D01*
X128915001Y-124083884D01*
X128915001Y-124814874D01*
X128826040Y-124752013D01*
X128624560Y-124662327D01*
X128568360Y-124645285D01*
X128395000Y-124769348D01*
X128395000Y-125605000D01*
X128415000Y-125605000D01*
X128415000Y-125855000D01*
X128395000Y-125855000D01*
X128395000Y-126690652D01*
X128568360Y-126814715D01*
X128624560Y-126797673D01*
X128826040Y-126707987D01*
X128915001Y-126645126D01*
X128915000Y-132049306D01*
X128911977Y-132080000D01*
X128915000Y-132110694D01*
X128915000Y-132110703D01*
X128924043Y-132202520D01*
X128959781Y-132320333D01*
X129017817Y-132428910D01*
X129095920Y-132524080D01*
X129119776Y-132543658D01*
X139236346Y-142660229D01*
X139255920Y-142684080D01*
X139351089Y-142762183D01*
X139459666Y-142820219D01*
X139577479Y-142855957D01*
X139669296Y-142865000D01*
X139669298Y-142865000D01*
X139700000Y-142868024D01*
X139730701Y-142865000D01*
X142898276Y-142865000D01*
X142912312Y-142898885D01*
X143064540Y-143126711D01*
X143258289Y-143320460D01*
X143486115Y-143472688D01*
X143576194Y-143510000D01*
X143486115Y-143547312D01*
X143258289Y-143699540D01*
X143064540Y-143893289D01*
X142912312Y-144121115D01*
X142807456Y-144374260D01*
X142754000Y-144642999D01*
X142754000Y-144917001D01*
X142807456Y-145185740D01*
X142821492Y-145219625D01*
X140867269Y-147173848D01*
X137536118Y-150505000D01*
X134711042Y-150505000D01*
X134747740Y-150487485D01*
X134979383Y-150314423D01*
X135172812Y-150099496D01*
X135298186Y-149888647D01*
X135298186Y-150075000D01*
X135305426Y-150148513D01*
X135326869Y-150219200D01*
X135361691Y-150284347D01*
X135408552Y-150341448D01*
X135465653Y-150388309D01*
X135530800Y-150423131D01*
X135601487Y-150444574D01*
X135675000Y-150451814D01*
X137375000Y-150451814D01*
X137448513Y-150444574D01*
X137519200Y-150423131D01*
X137584347Y-150388309D01*
X137641448Y-150341448D01*
X137688309Y-150284347D01*
X137723131Y-150219200D01*
X137744574Y-150148513D01*
X137751814Y-150075000D01*
X137751814Y-148375000D01*
X137744574Y-148301487D01*
X137723131Y-148230800D01*
X137688309Y-148165653D01*
X137641448Y-148108552D01*
X137584347Y-148061691D01*
X137519200Y-148026869D01*
X137448513Y-148005426D01*
X137375000Y-147998186D01*
X135675000Y-147998186D01*
X135601487Y-148005426D01*
X135530800Y-148026869D01*
X135465653Y-148061691D01*
X135408552Y-148108552D01*
X135361691Y-148165653D01*
X135326869Y-148230800D01*
X135305426Y-148301487D01*
X135298186Y-148375000D01*
X135298186Y-148561353D01*
X135172812Y-148350504D01*
X134979383Y-148135577D01*
X134747740Y-147962515D01*
X134486786Y-147837970D01*
X134338372Y-147792955D01*
X134110000Y-147912188D01*
X134110000Y-149100000D01*
X134130000Y-149100000D01*
X134130000Y-149350000D01*
X134110000Y-149350000D01*
X134110000Y-149370000D01*
X133860000Y-149370000D01*
X133860000Y-149350000D01*
X133840000Y-149350000D01*
X133840000Y-149100000D01*
X133860000Y-149100000D01*
X133860000Y-147912188D01*
X133631628Y-147792955D01*
X133483214Y-147837970D01*
X133222260Y-147962515D01*
X132990617Y-148135577D01*
X132797188Y-148350504D01*
X132649406Y-148599038D01*
X132585940Y-148778395D01*
X132530581Y-148644745D01*
X132396519Y-148444108D01*
X132225892Y-148273481D01*
X132025255Y-148139419D01*
X131802319Y-148047076D01*
X131565652Y-148000000D01*
X131324348Y-148000000D01*
X131087681Y-148047076D01*
X130864745Y-148139419D01*
X130664108Y-148273481D01*
X130493481Y-148444108D01*
X130359419Y-148644745D01*
X130267076Y-148867681D01*
X130220000Y-149104348D01*
X130220000Y-149345652D01*
X130267076Y-149582319D01*
X130359419Y-149805255D01*
X130493481Y-150005892D01*
X130664108Y-150176519D01*
X130864745Y-150310581D01*
X131087681Y-150402924D01*
X131324348Y-150450000D01*
X131565652Y-150450000D01*
X131749540Y-150413422D01*
X132666117Y-151330000D01*
X120628638Y-151330000D01*
X120625029Y-151330355D01*
X120488221Y-151316941D01*
X120332601Y-151269956D01*
X120189071Y-151193640D01*
X120063101Y-151090901D01*
X119959481Y-150965647D01*
X119882168Y-150822660D01*
X119834097Y-150667369D01*
X119815000Y-150485665D01*
X119815000Y-148835479D01*
X120060000Y-148835479D01*
X120060000Y-149224521D01*
X120135898Y-149606086D01*
X120284778Y-149965513D01*
X120500917Y-150288989D01*
X120776011Y-150564083D01*
X121099487Y-150780222D01*
X121458914Y-150929102D01*
X121840479Y-151005000D01*
X122229521Y-151005000D01*
X122611086Y-150929102D01*
X122970513Y-150780222D01*
X123293989Y-150564083D01*
X123569083Y-150288989D01*
X123785222Y-149965513D01*
X123934102Y-149606086D01*
X124010000Y-149224521D01*
X124010000Y-148835479D01*
X123934102Y-148453914D01*
X123785222Y-148094487D01*
X123569083Y-147771011D01*
X123293989Y-147495917D01*
X122970513Y-147279778D01*
X122611086Y-147130898D01*
X122229521Y-147055000D01*
X121840479Y-147055000D01*
X121458914Y-147130898D01*
X121099487Y-147279778D01*
X120776011Y-147495917D01*
X120500917Y-147771011D01*
X120284778Y-148094487D01*
X120135898Y-148453914D01*
X120060000Y-148835479D01*
X119815000Y-148835479D01*
X119815000Y-143764000D01*
X119892186Y-143764000D01*
X119892186Y-145796000D01*
X119899426Y-145869513D01*
X119920869Y-145940200D01*
X119955691Y-146005347D01*
X120002552Y-146062448D01*
X120059653Y-146109309D01*
X120124800Y-146144131D01*
X120195487Y-146165574D01*
X120269000Y-146172814D01*
X122301000Y-146172814D01*
X122374513Y-146165574D01*
X122445200Y-146144131D01*
X122510347Y-146109309D01*
X122567448Y-146062448D01*
X122614309Y-146005347D01*
X122649131Y-145940200D01*
X122670574Y-145869513D01*
X122677814Y-145796000D01*
X122677814Y-145405000D01*
X128646118Y-145405000D01*
X128986578Y-145745460D01*
X128950000Y-145929348D01*
X128950000Y-146170652D01*
X128986578Y-146354540D01*
X128484772Y-146856346D01*
X128460921Y-146875920D01*
X128382818Y-146971089D01*
X128324782Y-147079666D01*
X128289044Y-147197479D01*
X128283979Y-147248911D01*
X128276977Y-147320000D01*
X128280001Y-147350704D01*
X128280001Y-148169316D01*
X128124108Y-148273481D01*
X127953481Y-148444108D01*
X127819419Y-148644745D01*
X127727076Y-148867681D01*
X127680000Y-149104348D01*
X127680000Y-149345652D01*
X127727076Y-149582319D01*
X127819419Y-149805255D01*
X127953481Y-150005892D01*
X128124108Y-150176519D01*
X128324745Y-150310581D01*
X128547681Y-150402924D01*
X128784348Y-150450000D01*
X129025652Y-150450000D01*
X129262319Y-150402924D01*
X129485255Y-150310581D01*
X129685892Y-150176519D01*
X129856519Y-150005892D01*
X129990581Y-149805255D01*
X130082924Y-149582319D01*
X130130000Y-149345652D01*
X130130000Y-149104348D01*
X130082924Y-148867681D01*
X129990581Y-148644745D01*
X129856519Y-148444108D01*
X129685892Y-148273481D01*
X129530000Y-148169317D01*
X129530000Y-147578882D01*
X129870460Y-147238422D01*
X130054348Y-147275000D01*
X130295652Y-147275000D01*
X130532319Y-147227924D01*
X130755255Y-147135581D01*
X130955892Y-147001519D01*
X131126519Y-146830892D01*
X131260581Y-146630255D01*
X131352924Y-146407319D01*
X131400000Y-146170652D01*
X131400000Y-145929348D01*
X131490000Y-145929348D01*
X131490000Y-146170652D01*
X131537076Y-146407319D01*
X131629419Y-146630255D01*
X131763481Y-146830892D01*
X131934108Y-147001519D01*
X132134745Y-147135581D01*
X132357681Y-147227924D01*
X132594348Y-147275000D01*
X132835652Y-147275000D01*
X133072319Y-147227924D01*
X133295255Y-147135581D01*
X133495892Y-147001519D01*
X133666519Y-146830892D01*
X133778232Y-146663702D01*
X133776976Y-146900000D01*
X133789043Y-147022521D01*
X133824781Y-147140334D01*
X133882817Y-147248911D01*
X133960920Y-147344080D01*
X134056089Y-147422183D01*
X134164666Y-147480219D01*
X134282479Y-147515957D01*
X134405000Y-147528024D01*
X134973750Y-147525000D01*
X135130000Y-147368750D01*
X135130000Y-146175000D01*
X135380000Y-146175000D01*
X135380000Y-147368750D01*
X135536250Y-147525000D01*
X136105000Y-147528024D01*
X136227521Y-147515957D01*
X136345334Y-147480219D01*
X136453911Y-147422183D01*
X136549080Y-147344080D01*
X136627183Y-147248911D01*
X136685219Y-147140334D01*
X136720957Y-147022521D01*
X136733024Y-146900000D01*
X136730000Y-146331250D01*
X136573750Y-146175000D01*
X135380000Y-146175000D01*
X135130000Y-146175000D01*
X135110000Y-146175000D01*
X135110000Y-145925000D01*
X135130000Y-145925000D01*
X135130000Y-144731250D01*
X135380000Y-144731250D01*
X135380000Y-145925000D01*
X136573750Y-145925000D01*
X136730000Y-145768750D01*
X136733024Y-145200000D01*
X136720957Y-145077479D01*
X136685219Y-144959666D01*
X136627183Y-144851089D01*
X136549080Y-144755920D01*
X136453911Y-144677817D01*
X136446999Y-144674122D01*
X140530000Y-144674122D01*
X140530000Y-144885878D01*
X140571312Y-145093566D01*
X140652348Y-145289203D01*
X140769993Y-145465272D01*
X140919728Y-145615007D01*
X141095797Y-145732652D01*
X141291434Y-145813688D01*
X141499122Y-145855000D01*
X141710878Y-145855000D01*
X141918566Y-145813688D01*
X142114203Y-145732652D01*
X142290272Y-145615007D01*
X142440007Y-145465272D01*
X142557652Y-145289203D01*
X142638688Y-145093566D01*
X142680000Y-144885878D01*
X142680000Y-144674122D01*
X142638688Y-144466434D01*
X142557652Y-144270797D01*
X142440007Y-144094728D01*
X142290272Y-143944993D01*
X142114203Y-143827348D01*
X141918566Y-143746312D01*
X141710878Y-143705000D01*
X141499122Y-143705000D01*
X141291434Y-143746312D01*
X141095797Y-143827348D01*
X140919728Y-143944993D01*
X140769993Y-144094728D01*
X140652348Y-144270797D01*
X140571312Y-144466434D01*
X140530000Y-144674122D01*
X136446999Y-144674122D01*
X136345334Y-144619781D01*
X136227521Y-144584043D01*
X136105000Y-144571976D01*
X135536250Y-144575000D01*
X135380000Y-144731250D01*
X135130000Y-144731250D01*
X134973750Y-144575000D01*
X134405000Y-144571976D01*
X134282479Y-144584043D01*
X134164666Y-144619781D01*
X134056089Y-144677817D01*
X133960920Y-144755920D01*
X133882817Y-144851089D01*
X133824781Y-144959666D01*
X133789043Y-145077479D01*
X133776976Y-145200000D01*
X133778232Y-145436298D01*
X133666519Y-145269108D01*
X133495892Y-145098481D01*
X133295255Y-144964419D01*
X133072319Y-144872076D01*
X132835652Y-144825000D01*
X132594348Y-144825000D01*
X132357681Y-144872076D01*
X132134745Y-144964419D01*
X131934108Y-145098481D01*
X131763481Y-145269108D01*
X131629419Y-145469745D01*
X131537076Y-145692681D01*
X131490000Y-145929348D01*
X131400000Y-145929348D01*
X131352924Y-145692681D01*
X131260581Y-145469745D01*
X131126519Y-145269108D01*
X130955892Y-145098481D01*
X130755255Y-144964419D01*
X130532319Y-144872076D01*
X130295652Y-144825000D01*
X130054348Y-144825000D01*
X129870460Y-144861578D01*
X129368658Y-144359776D01*
X129349080Y-144335920D01*
X129253911Y-144257817D01*
X129145334Y-144199781D01*
X129027521Y-144164043D01*
X128935704Y-144155000D01*
X128935694Y-144155000D01*
X128905000Y-144151977D01*
X128874306Y-144155000D01*
X122677814Y-144155000D01*
X122677814Y-143764000D01*
X122670574Y-143690487D01*
X122649131Y-143619800D01*
X122614309Y-143554653D01*
X122567448Y-143497552D01*
X122510347Y-143450691D01*
X122445200Y-143415869D01*
X122374513Y-143394426D01*
X122301000Y-143387186D01*
X122071848Y-143387186D01*
X122171711Y-143320460D01*
X122365460Y-143126711D01*
X122517688Y-142898885D01*
X122622544Y-142645740D01*
X122676000Y-142377001D01*
X122676000Y-142102999D01*
X122622544Y-141834260D01*
X122517688Y-141581115D01*
X122365460Y-141353289D01*
X122171711Y-141159540D01*
X121943885Y-141007312D01*
X121853806Y-140970000D01*
X121943885Y-140932688D01*
X122171711Y-140780460D01*
X122365460Y-140586711D01*
X122517688Y-140358885D01*
X122622544Y-140105740D01*
X122639626Y-140019865D01*
X122647076Y-140057319D01*
X122739419Y-140280255D01*
X122873481Y-140480892D01*
X123044108Y-140651519D01*
X123244745Y-140785581D01*
X123467681Y-140877924D01*
X123704348Y-140925000D01*
X123945652Y-140925000D01*
X124182319Y-140877924D01*
X124405255Y-140785581D01*
X124605892Y-140651519D01*
X124776519Y-140480892D01*
X124910581Y-140280255D01*
X125002924Y-140057319D01*
X125050000Y-139820652D01*
X125050000Y-139579348D01*
X125002924Y-139342681D01*
X124910581Y-139119745D01*
X124776519Y-138919108D01*
X124605892Y-138748481D01*
X124405255Y-138614419D01*
X124182319Y-138522076D01*
X123945652Y-138475000D01*
X123704348Y-138475000D01*
X123467681Y-138522076D01*
X123244745Y-138614419D01*
X123044108Y-138748481D01*
X122873481Y-138919108D01*
X122739419Y-139119745D01*
X122647076Y-139342681D01*
X122639626Y-139380135D01*
X122622544Y-139294260D01*
X122517688Y-139041115D01*
X122365460Y-138813289D01*
X122171711Y-138619540D01*
X121943885Y-138467312D01*
X121853806Y-138430000D01*
X121943885Y-138392688D01*
X122171711Y-138240460D01*
X122365460Y-138046711D01*
X122517688Y-137818885D01*
X122622544Y-137565740D01*
X122639626Y-137479865D01*
X122647076Y-137517319D01*
X122739419Y-137740255D01*
X122873481Y-137940892D01*
X123044108Y-138111519D01*
X123244745Y-138245581D01*
X123467681Y-138337924D01*
X123704348Y-138385000D01*
X123945652Y-138385000D01*
X124182319Y-138337924D01*
X124405255Y-138245581D01*
X124605892Y-138111519D01*
X124776519Y-137940892D01*
X124910581Y-137740255D01*
X125002924Y-137517319D01*
X125050000Y-137280652D01*
X125050000Y-137039348D01*
X125002924Y-136802681D01*
X124910581Y-136579745D01*
X124776519Y-136379108D01*
X124605892Y-136208481D01*
X124438702Y-136096768D01*
X124675000Y-136098024D01*
X124797521Y-136085957D01*
X124915334Y-136050219D01*
X125023911Y-135992183D01*
X125119080Y-135914080D01*
X125197183Y-135818911D01*
X125255219Y-135710334D01*
X125290957Y-135592521D01*
X125303024Y-135470000D01*
X125300000Y-134901250D01*
X125143750Y-134745000D01*
X123950000Y-134745000D01*
X123950000Y-134765000D01*
X123700000Y-134765000D01*
X123700000Y-134745000D01*
X123680000Y-134745000D01*
X123680000Y-134495000D01*
X123700000Y-134495000D01*
X123700000Y-133301250D01*
X123950000Y-133301250D01*
X123950000Y-134495000D01*
X125143750Y-134495000D01*
X125300000Y-134338750D01*
X125303024Y-133770000D01*
X125290957Y-133647479D01*
X125255219Y-133529666D01*
X125197183Y-133421089D01*
X125119080Y-133325920D01*
X125023911Y-133247817D01*
X124915334Y-133189781D01*
X124797521Y-133154043D01*
X124675000Y-133141976D01*
X124106250Y-133145000D01*
X123950000Y-133301250D01*
X123700000Y-133301250D01*
X123543750Y-133145000D01*
X122975000Y-133141976D01*
X122852479Y-133154043D01*
X122734666Y-133189781D01*
X122626089Y-133247817D01*
X122530920Y-133325920D01*
X122452817Y-133421089D01*
X122394781Y-133529666D01*
X122359043Y-133647479D01*
X122351925Y-133719754D01*
X122171711Y-133539540D01*
X121943885Y-133387312D01*
X121853806Y-133350000D01*
X121943885Y-133312688D01*
X122171711Y-133160460D01*
X122365460Y-132966711D01*
X122517688Y-132738885D01*
X122622544Y-132485740D01*
X122676000Y-132217001D01*
X122676000Y-131942999D01*
X122622544Y-131674260D01*
X122517688Y-131421115D01*
X122365460Y-131193289D01*
X122171711Y-130999540D01*
X121943885Y-130847312D01*
X121853806Y-130810000D01*
X121943885Y-130772688D01*
X122171711Y-130620460D01*
X122365460Y-130426711D01*
X122517688Y-130198885D01*
X122622544Y-129945740D01*
X122676000Y-129677001D01*
X122676000Y-129434122D01*
X122750000Y-129434122D01*
X122750000Y-129645878D01*
X122791312Y-129853566D01*
X122872348Y-130049203D01*
X122989993Y-130225272D01*
X123139728Y-130375007D01*
X123315797Y-130492652D01*
X123511434Y-130573688D01*
X123719122Y-130615000D01*
X123930878Y-130615000D01*
X124138566Y-130573688D01*
X124334203Y-130492652D01*
X124510272Y-130375007D01*
X124660007Y-130225272D01*
X124777652Y-130049203D01*
X124858688Y-129853566D01*
X124900000Y-129645878D01*
X124900000Y-129434122D01*
X124858688Y-129226434D01*
X124777652Y-129030797D01*
X124660007Y-128854728D01*
X124510272Y-128704993D01*
X124334203Y-128587348D01*
X124138566Y-128506312D01*
X123930878Y-128465000D01*
X123719122Y-128465000D01*
X123511434Y-128506312D01*
X123315797Y-128587348D01*
X123139728Y-128704993D01*
X122989993Y-128854728D01*
X122872348Y-129030797D01*
X122791312Y-129226434D01*
X122750000Y-129434122D01*
X122676000Y-129434122D01*
X122676000Y-129402999D01*
X122622544Y-129134260D01*
X122517688Y-128881115D01*
X122365460Y-128653289D01*
X122171711Y-128459540D01*
X121943885Y-128307312D01*
X121853806Y-128270000D01*
X121943885Y-128232688D01*
X122171711Y-128080460D01*
X122365460Y-127886711D01*
X122517688Y-127658885D01*
X122622544Y-127405740D01*
X122676000Y-127137001D01*
X122676000Y-126862999D01*
X122622544Y-126594260D01*
X122517688Y-126341115D01*
X122365460Y-126113289D01*
X122280532Y-126028361D01*
X127185279Y-126028361D01*
X127264329Y-126234247D01*
X127382026Y-126420755D01*
X127533848Y-126580717D01*
X127713960Y-126707987D01*
X127915440Y-126797673D01*
X127971640Y-126814715D01*
X128145000Y-126690652D01*
X128145000Y-125855000D01*
X127308210Y-125855000D01*
X127185279Y-126028361D01*
X122280532Y-126028361D01*
X122171711Y-125919540D01*
X121943885Y-125767312D01*
X121853806Y-125730000D01*
X121943885Y-125692688D01*
X122171711Y-125540460D01*
X122280532Y-125431639D01*
X127185279Y-125431639D01*
X127308210Y-125605000D01*
X128145000Y-125605000D01*
X128145000Y-124769348D01*
X127971640Y-124645285D01*
X127915440Y-124662327D01*
X127713960Y-124752013D01*
X127533848Y-124879283D01*
X127382026Y-125039245D01*
X127264329Y-125225753D01*
X127185279Y-125431639D01*
X122280532Y-125431639D01*
X122365460Y-125346711D01*
X122517688Y-125118885D01*
X122622544Y-124865740D01*
X122676000Y-124597001D01*
X122676000Y-124322999D01*
X122622544Y-124054260D01*
X122517688Y-123801115D01*
X122365460Y-123573289D01*
X122171711Y-123379540D01*
X122115731Y-123342136D01*
X122150306Y-123323655D01*
X122248396Y-123060172D01*
X121285000Y-122096777D01*
X120321604Y-123060172D01*
X120419694Y-123323655D01*
X120455650Y-123341213D01*
X120398289Y-123379540D01*
X120204540Y-123573289D01*
X120052312Y-123801115D01*
X119947456Y-124054260D01*
X119894000Y-124322999D01*
X119894000Y-124597001D01*
X119947456Y-124865740D01*
X120052312Y-125118885D01*
X120204540Y-125346711D01*
X120398289Y-125540460D01*
X120626115Y-125692688D01*
X120716194Y-125730000D01*
X120626115Y-125767312D01*
X120398289Y-125919540D01*
X120204540Y-126113289D01*
X120052312Y-126341115D01*
X119947456Y-126594260D01*
X119894000Y-126862999D01*
X119894000Y-127137001D01*
X119947456Y-127405740D01*
X120052312Y-127658885D01*
X120204540Y-127886711D01*
X120398289Y-128080460D01*
X120626115Y-128232688D01*
X120716194Y-128270000D01*
X120626115Y-128307312D01*
X120398289Y-128459540D01*
X120204540Y-128653289D01*
X120052312Y-128881115D01*
X119947456Y-129134260D01*
X119894000Y-129402999D01*
X119894000Y-129677001D01*
X119947456Y-129945740D01*
X120052312Y-130198885D01*
X120204540Y-130426711D01*
X120398289Y-130620460D01*
X120626115Y-130772688D01*
X120716194Y-130810000D01*
X120626115Y-130847312D01*
X120398289Y-130999540D01*
X120204540Y-131193289D01*
X120052312Y-131421115D01*
X119947456Y-131674260D01*
X119894000Y-131942999D01*
X119894000Y-132217001D01*
X119947456Y-132485740D01*
X120052312Y-132738885D01*
X120204540Y-132966711D01*
X120398289Y-133160460D01*
X120626115Y-133312688D01*
X120716194Y-133350000D01*
X120626115Y-133387312D01*
X120398289Y-133539540D01*
X120204540Y-133733289D01*
X120052312Y-133961115D01*
X119947456Y-134214260D01*
X119894000Y-134482999D01*
X119894000Y-134757001D01*
X119947456Y-135025740D01*
X120052312Y-135278885D01*
X120204540Y-135506711D01*
X120398289Y-135700460D01*
X120626115Y-135852688D01*
X120716194Y-135890000D01*
X120626115Y-135927312D01*
X120398289Y-136079540D01*
X120204540Y-136273289D01*
X120052312Y-136501115D01*
X119947456Y-136754260D01*
X119894000Y-137022999D01*
X119894000Y-137297001D01*
X119947456Y-137565740D01*
X120052312Y-137818885D01*
X120204540Y-138046711D01*
X120398289Y-138240460D01*
X120626115Y-138392688D01*
X120716194Y-138430000D01*
X120626115Y-138467312D01*
X120398289Y-138619540D01*
X120204540Y-138813289D01*
X120052312Y-139041115D01*
X119947456Y-139294260D01*
X119894000Y-139562999D01*
X119894000Y-139837001D01*
X119947456Y-140105740D01*
X120052312Y-140358885D01*
X120204540Y-140586711D01*
X120398289Y-140780460D01*
X120626115Y-140932688D01*
X120716194Y-140970000D01*
X120626115Y-141007312D01*
X120398289Y-141159540D01*
X120204540Y-141353289D01*
X120052312Y-141581115D01*
X119947456Y-141834260D01*
X119894000Y-142102999D01*
X119894000Y-142377001D01*
X119947456Y-142645740D01*
X120052312Y-142898885D01*
X120204540Y-143126711D01*
X120398289Y-143320460D01*
X120498152Y-143387186D01*
X120269000Y-143387186D01*
X120195487Y-143394426D01*
X120124800Y-143415869D01*
X120059653Y-143450691D01*
X120002552Y-143497552D01*
X119955691Y-143554653D01*
X119920869Y-143619800D01*
X119899426Y-143690487D01*
X119892186Y-143764000D01*
X119815000Y-143764000D01*
X119815000Y-122661184D01*
X119881345Y-122785306D01*
X120144828Y-122883396D01*
X121108223Y-121920000D01*
X121461777Y-121920000D01*
X122425172Y-122883396D01*
X122688655Y-122785306D01*
X122830497Y-122494840D01*
X122857358Y-122393013D01*
X122872348Y-122429203D01*
X122989993Y-122605272D01*
X123139728Y-122755007D01*
X123315797Y-122872652D01*
X123511434Y-122953688D01*
X123719122Y-122995000D01*
X123930878Y-122995000D01*
X124138566Y-122953688D01*
X124334203Y-122872652D01*
X124510272Y-122755007D01*
X124660007Y-122605272D01*
X124777652Y-122429203D01*
X124858688Y-122233566D01*
X124900000Y-122025878D01*
X124900000Y-121814122D01*
X124858688Y-121606434D01*
X124777652Y-121410797D01*
X124660007Y-121234728D01*
X124510272Y-121084993D01*
X124334203Y-120967348D01*
X124309168Y-120956978D01*
X126478165Y-120956978D01*
X126516386Y-121181090D01*
X126597595Y-121393439D01*
X126718671Y-121585865D01*
X126874961Y-121750973D01*
X127060459Y-121882418D01*
X127268036Y-121975148D01*
X127332705Y-121984557D01*
X127510000Y-121860857D01*
X127510000Y-120775000D01*
X126635833Y-120775000D01*
X126478165Y-120956978D01*
X124309168Y-120956978D01*
X124138566Y-120886312D01*
X123930878Y-120845000D01*
X123719122Y-120845000D01*
X123511434Y-120886312D01*
X123315797Y-120967348D01*
X123139728Y-121084993D01*
X122989993Y-121234728D01*
X122872348Y-121410797D01*
X122857518Y-121446600D01*
X122784305Y-121233642D01*
X122688655Y-121054694D01*
X122425172Y-120956604D01*
X121461777Y-121920000D01*
X121108223Y-121920000D01*
X120144828Y-120956604D01*
X119881345Y-121054694D01*
X119815000Y-121190556D01*
X119815000Y-112501184D01*
X119881345Y-112625306D01*
X120144828Y-112723396D01*
X121108223Y-111760000D01*
X121461777Y-111760000D01*
X122425172Y-112723396D01*
X122656561Y-112637254D01*
X122676869Y-112704200D01*
X122711691Y-112769347D01*
X122758552Y-112826448D01*
X122815653Y-112873309D01*
X122880800Y-112908131D01*
X122951487Y-112929574D01*
X123025000Y-112936814D01*
X124625000Y-112936814D01*
X124698513Y-112929574D01*
X124769200Y-112908131D01*
X124834347Y-112873309D01*
X124891448Y-112826448D01*
X124938309Y-112769347D01*
X124973131Y-112704200D01*
X124994574Y-112633513D01*
X125001814Y-112560000D01*
X125001814Y-110960000D01*
X124994574Y-110886487D01*
X124973131Y-110815800D01*
X124938309Y-110750653D01*
X124891448Y-110693552D01*
X124834347Y-110646691D01*
X124769200Y-110611869D01*
X124698513Y-110590426D01*
X124625000Y-110583186D01*
X123025000Y-110583186D01*
X122951487Y-110590426D01*
X122880800Y-110611869D01*
X122815653Y-110646691D01*
X122758552Y-110693552D01*
X122711691Y-110750653D01*
X122676869Y-110815800D01*
X122656561Y-110882746D01*
X122425172Y-110796604D01*
X121461777Y-111760000D01*
X121108223Y-111760000D01*
X120144828Y-110796604D01*
X119881345Y-110894694D01*
X119815000Y-111030556D01*
X119815000Y-109082999D01*
X119894000Y-109082999D01*
X119894000Y-109357001D01*
X119947456Y-109625740D01*
X120052312Y-109878885D01*
X120204540Y-110106711D01*
X120398289Y-110300460D01*
X120454269Y-110337864D01*
X120419694Y-110356345D01*
X120321604Y-110619828D01*
X121285000Y-111583223D01*
X122248396Y-110619828D01*
X122150306Y-110356345D01*
X122114350Y-110338787D01*
X122171711Y-110300460D01*
X122365460Y-110106711D01*
X122517688Y-109878885D01*
X122622544Y-109625740D01*
X122676000Y-109357001D01*
X122676000Y-109082999D01*
X122622544Y-108814260D01*
X122517688Y-108561115D01*
X122365460Y-108333289D01*
X122171711Y-108139540D01*
X121943885Y-107987312D01*
X121690740Y-107882456D01*
X121422001Y-107829000D01*
X121147999Y-107829000D01*
X120879260Y-107882456D01*
X120626115Y-107987312D01*
X120398289Y-108139540D01*
X120204540Y-108333289D01*
X120052312Y-108561115D01*
X119947456Y-108814260D01*
X119894000Y-109082999D01*
X119815000Y-109082999D01*
X119815000Y-105205479D01*
X120110000Y-105205479D01*
X120110000Y-105594521D01*
X120185898Y-105976086D01*
X120334778Y-106335513D01*
X120550917Y-106658989D01*
X120826011Y-106934083D01*
X121149487Y-107150222D01*
X121508914Y-107299102D01*
X121890479Y-107375000D01*
X122279521Y-107375000D01*
X122661086Y-107299102D01*
X123020513Y-107150222D01*
X123343989Y-106934083D01*
X123619083Y-106658989D01*
X123698822Y-106539650D01*
X124305000Y-106539650D01*
X124305000Y-106820350D01*
X124359762Y-107095657D01*
X124467181Y-107354991D01*
X124623130Y-107588385D01*
X124821615Y-107786870D01*
X125055009Y-107942819D01*
X125105001Y-107963526D01*
X125105000Y-112999306D01*
X125101977Y-113030000D01*
X125105000Y-113060694D01*
X125105000Y-113060703D01*
X125114043Y-113152520D01*
X125149781Y-113270333D01*
X125207817Y-113378910D01*
X125285920Y-113474080D01*
X125309776Y-113493658D01*
X126536346Y-114720229D01*
X126555920Y-114744080D01*
X126579769Y-114763652D01*
X126651087Y-114822182D01*
X126651089Y-114822183D01*
X126759666Y-114880219D01*
X126877479Y-114915957D01*
X126969296Y-114925000D01*
X126969305Y-114925000D01*
X126999999Y-114928023D01*
X127030693Y-114925000D01*
X137170001Y-114925000D01*
X137170000Y-115610594D01*
X137143693Y-115621491D01*
X136918489Y-115771968D01*
X136726968Y-115963489D01*
X136576491Y-116188693D01*
X136472841Y-116438927D01*
X136420000Y-116704574D01*
X136420000Y-116975426D01*
X136472841Y-117241073D01*
X136576491Y-117491307D01*
X136726968Y-117716511D01*
X136918489Y-117908032D01*
X137143693Y-118058509D01*
X137393927Y-118162159D01*
X137659574Y-118215000D01*
X137930426Y-118215000D01*
X138196073Y-118162159D01*
X138446307Y-118058509D01*
X138671511Y-117908032D01*
X138863032Y-117716511D01*
X139013509Y-117491307D01*
X139075001Y-117342852D01*
X139075001Y-118305000D01*
X138959122Y-118305000D01*
X138751434Y-118346312D01*
X138555797Y-118427348D01*
X138379728Y-118544993D01*
X138229993Y-118694728D01*
X138112348Y-118870797D01*
X138031312Y-119066434D01*
X137990000Y-119274122D01*
X137990000Y-119485878D01*
X138031312Y-119693566D01*
X138112348Y-119889203D01*
X138229993Y-120065272D01*
X138379728Y-120215007D01*
X138555797Y-120332652D01*
X138751434Y-120413688D01*
X138959122Y-120455000D01*
X139170878Y-120455000D01*
X139378566Y-120413688D01*
X139574203Y-120332652D01*
X139750272Y-120215007D01*
X139900007Y-120065272D01*
X140017652Y-119889203D01*
X140098688Y-119693566D01*
X140140000Y-119485878D01*
X140140000Y-119274122D01*
X140126030Y-119203893D01*
X140144080Y-119189080D01*
X140163649Y-119165235D01*
X140163653Y-119165231D01*
X140222183Y-119093912D01*
X140280218Y-118985335D01*
X140280219Y-118985334D01*
X140315957Y-118867521D01*
X140325000Y-118775704D01*
X140325000Y-118775702D01*
X140328024Y-118745000D01*
X140325000Y-118714296D01*
X140325000Y-112486042D01*
X140342515Y-112522740D01*
X140515577Y-112754383D01*
X140730504Y-112947812D01*
X140979038Y-113095594D01*
X141158395Y-113159060D01*
X141024745Y-113214419D01*
X140824108Y-113348481D01*
X140653481Y-113519108D01*
X140519419Y-113719745D01*
X140427076Y-113942681D01*
X140380000Y-114179348D01*
X140380000Y-114420652D01*
X140427076Y-114657319D01*
X140519419Y-114880255D01*
X140653481Y-115080892D01*
X140824108Y-115251519D01*
X141024745Y-115385581D01*
X141247681Y-115477924D01*
X141484348Y-115525000D01*
X141725652Y-115525000D01*
X141962319Y-115477924D01*
X142185255Y-115385581D01*
X142385892Y-115251519D01*
X142556519Y-115080892D01*
X142660683Y-114925000D01*
X142898276Y-114925000D01*
X142912312Y-114958885D01*
X143064540Y-115186711D01*
X143258289Y-115380460D01*
X143486115Y-115532688D01*
X143576194Y-115570000D01*
X143486115Y-115607312D01*
X143258289Y-115759540D01*
X143064540Y-115953289D01*
X142912312Y-116181115D01*
X142898276Y-116215000D01*
X142660683Y-116215000D01*
X142556519Y-116059108D01*
X142385892Y-115888481D01*
X142185255Y-115754419D01*
X141962319Y-115662076D01*
X141725652Y-115615000D01*
X141484348Y-115615000D01*
X141247681Y-115662076D01*
X141024745Y-115754419D01*
X140824108Y-115888481D01*
X140653481Y-116059108D01*
X140519419Y-116259745D01*
X140427076Y-116482681D01*
X140380000Y-116719348D01*
X140380000Y-116960652D01*
X140427076Y-117197319D01*
X140519419Y-117420255D01*
X140653481Y-117620892D01*
X140824108Y-117791519D01*
X141024745Y-117925581D01*
X141247681Y-118017924D01*
X141484348Y-118065000D01*
X141725652Y-118065000D01*
X141962319Y-118017924D01*
X142185255Y-117925581D01*
X142385892Y-117791519D01*
X142556519Y-117620892D01*
X142660683Y-117465000D01*
X142898276Y-117465000D01*
X142912312Y-117498885D01*
X143064540Y-117726711D01*
X143258289Y-117920460D01*
X143486115Y-118072688D01*
X143576194Y-118110000D01*
X143486115Y-118147312D01*
X143258289Y-118299540D01*
X143064540Y-118493289D01*
X142912312Y-118721115D01*
X142807456Y-118974260D01*
X142754000Y-119242999D01*
X142754000Y-119517001D01*
X142807456Y-119785740D01*
X142912312Y-120038885D01*
X143064540Y-120266711D01*
X143258289Y-120460460D01*
X143486115Y-120612688D01*
X143576194Y-120650000D01*
X143486115Y-120687312D01*
X143258289Y-120839540D01*
X143064540Y-121033289D01*
X142912312Y-121261115D01*
X142807456Y-121514260D01*
X142754000Y-121782999D01*
X142754000Y-122057001D01*
X142807456Y-122325740D01*
X142912312Y-122578885D01*
X143064540Y-122806711D01*
X143258289Y-123000460D01*
X143486115Y-123152688D01*
X143576194Y-123190000D01*
X143486115Y-123227312D01*
X143258289Y-123379540D01*
X143064540Y-123573289D01*
X142912312Y-123801115D01*
X142807456Y-124054260D01*
X142754000Y-124322999D01*
X142754000Y-124597001D01*
X142807456Y-124865740D01*
X142912312Y-125118885D01*
X143064540Y-125346711D01*
X143258289Y-125540460D01*
X143486115Y-125692688D01*
X143576194Y-125730000D01*
X143486115Y-125767312D01*
X143258289Y-125919540D01*
X143064540Y-126113289D01*
X142912312Y-126341115D01*
X142807456Y-126594260D01*
X142754000Y-126862999D01*
X142754000Y-127137001D01*
X142807456Y-127405740D01*
X142912312Y-127658885D01*
X143064540Y-127886711D01*
X143258289Y-128080460D01*
X143314269Y-128117864D01*
X143279694Y-128136345D01*
X143181604Y-128399828D01*
X144145000Y-129363223D01*
X145108396Y-128399828D01*
X145010306Y-128136345D01*
X144974350Y-128118787D01*
X145031711Y-128080460D01*
X145225460Y-127886711D01*
X145377688Y-127658885D01*
X145482544Y-127405740D01*
X145536000Y-127137001D01*
X145536000Y-126862999D01*
X145482544Y-126594260D01*
X145377688Y-126341115D01*
X145225460Y-126113289D01*
X145031711Y-125919540D01*
X144803885Y-125767312D01*
X144713806Y-125730000D01*
X144803885Y-125692688D01*
X145031711Y-125540460D01*
X145225460Y-125346711D01*
X145377688Y-125118885D01*
X145482544Y-124865740D01*
X145536000Y-124597001D01*
X145536000Y-124322999D01*
X145482544Y-124054260D01*
X145377688Y-123801115D01*
X145225460Y-123573289D01*
X145031711Y-123379540D01*
X144803885Y-123227312D01*
X144713806Y-123190000D01*
X144803885Y-123152688D01*
X145031711Y-123000460D01*
X145225460Y-122806711D01*
X145377688Y-122578885D01*
X145482544Y-122325740D01*
X145536000Y-122057001D01*
X145536000Y-121782999D01*
X145482544Y-121514260D01*
X145377688Y-121261115D01*
X145225460Y-121033289D01*
X145031711Y-120839540D01*
X144803885Y-120687312D01*
X144713806Y-120650000D01*
X144803885Y-120612688D01*
X145031711Y-120460460D01*
X145225460Y-120266711D01*
X145377688Y-120038885D01*
X145482544Y-119785740D01*
X145536000Y-119517001D01*
X145536000Y-119242999D01*
X145482544Y-118974260D01*
X145377688Y-118721115D01*
X145225460Y-118493289D01*
X145031711Y-118299540D01*
X144803885Y-118147312D01*
X144713806Y-118110000D01*
X144803885Y-118072688D01*
X145031711Y-117920460D01*
X145225460Y-117726711D01*
X145377688Y-117498885D01*
X145482544Y-117245740D01*
X145536000Y-116977001D01*
X145536000Y-116702999D01*
X145482544Y-116434260D01*
X145377688Y-116181115D01*
X145225460Y-115953289D01*
X145031711Y-115759540D01*
X144803885Y-115607312D01*
X144713806Y-115570000D01*
X144803885Y-115532688D01*
X145031711Y-115380460D01*
X145225460Y-115186711D01*
X145377688Y-114958885D01*
X145482544Y-114705740D01*
X145536000Y-114437001D01*
X145536000Y-114162999D01*
X145482544Y-113894260D01*
X145377688Y-113641115D01*
X145225460Y-113413289D01*
X145031711Y-113219540D01*
X144975731Y-113182136D01*
X145010306Y-113163655D01*
X145108396Y-112900172D01*
X144145000Y-111936777D01*
X143181604Y-112900172D01*
X143279694Y-113163655D01*
X143315650Y-113181213D01*
X143258289Y-113219540D01*
X143064540Y-113413289D01*
X142912312Y-113641115D01*
X142898276Y-113675000D01*
X142660683Y-113675000D01*
X142556519Y-113519108D01*
X142385892Y-113348481D01*
X142185255Y-113214419D01*
X142051605Y-113159060D01*
X142230962Y-113095594D01*
X142479496Y-112947812D01*
X142694423Y-112754383D01*
X142780083Y-112639727D01*
X143004828Y-112723396D01*
X143968223Y-111760000D01*
X143004828Y-110796604D01*
X142780083Y-110880273D01*
X142694423Y-110765617D01*
X142479496Y-110572188D01*
X142268647Y-110446814D01*
X142455000Y-110446814D01*
X142528513Y-110439574D01*
X142599200Y-110418131D01*
X142664347Y-110383309D01*
X142721448Y-110336448D01*
X142768309Y-110279347D01*
X142803131Y-110214200D01*
X142824574Y-110143513D01*
X142831814Y-110070000D01*
X142831814Y-109684545D01*
X142912312Y-109878885D01*
X143064540Y-110106711D01*
X143258289Y-110300460D01*
X143314269Y-110337864D01*
X143279694Y-110356345D01*
X143181604Y-110619828D01*
X144145000Y-111583223D01*
X145108396Y-110619828D01*
X145010306Y-110356345D01*
X144974350Y-110338787D01*
X145031711Y-110300460D01*
X145225460Y-110106711D01*
X145377688Y-109878885D01*
X145482544Y-109625740D01*
X145536000Y-109357001D01*
X145536000Y-109082999D01*
X145482544Y-108814260D01*
X145377688Y-108561115D01*
X145225460Y-108333289D01*
X145031711Y-108139540D01*
X144803885Y-107987312D01*
X144550740Y-107882456D01*
X144282001Y-107829000D01*
X144007999Y-107829000D01*
X143739260Y-107882456D01*
X143486115Y-107987312D01*
X143258289Y-108139540D01*
X143064540Y-108333289D01*
X142912312Y-108561115D01*
X142831814Y-108755455D01*
X142831814Y-108370000D01*
X142824574Y-108296487D01*
X142803131Y-108225800D01*
X142768309Y-108160653D01*
X142721448Y-108103552D01*
X142664347Y-108056691D01*
X142599200Y-108021869D01*
X142528513Y-108000426D01*
X142455000Y-107993186D01*
X140755000Y-107993186D01*
X140681487Y-108000426D01*
X140610800Y-108021869D01*
X140545653Y-108056691D01*
X140488552Y-108103552D01*
X140441691Y-108160653D01*
X140406869Y-108225800D01*
X140385426Y-108296487D01*
X140378186Y-108370000D01*
X140378186Y-110070000D01*
X140385426Y-110143513D01*
X140406869Y-110214200D01*
X140441691Y-110279347D01*
X140488552Y-110336448D01*
X140545653Y-110383309D01*
X140610800Y-110418131D01*
X140681487Y-110439574D01*
X140755000Y-110446814D01*
X140941353Y-110446814D01*
X140730504Y-110572188D01*
X140515577Y-110765617D01*
X140342515Y-110997260D01*
X140325000Y-111033958D01*
X140325000Y-107956814D01*
X140600000Y-107956814D01*
X140673513Y-107949574D01*
X140744200Y-107928131D01*
X140809347Y-107893309D01*
X140866448Y-107846448D01*
X140913309Y-107789347D01*
X140948131Y-107724200D01*
X140969574Y-107653513D01*
X140976814Y-107580000D01*
X140976814Y-105780000D01*
X140969574Y-105706487D01*
X140948131Y-105635800D01*
X140913309Y-105570653D01*
X140866448Y-105513552D01*
X140809347Y-105466691D01*
X140744200Y-105431869D01*
X140673513Y-105410426D01*
X140600000Y-105403186D01*
X138800000Y-105403186D01*
X138726487Y-105410426D01*
X138655800Y-105431869D01*
X138590653Y-105466691D01*
X138533552Y-105513552D01*
X138486691Y-105570653D01*
X138451869Y-105635800D01*
X138430426Y-105706487D01*
X138423186Y-105780000D01*
X138423186Y-106495031D01*
X138386002Y-106308096D01*
X138289890Y-106076061D01*
X138150357Y-105867235D01*
X137972765Y-105689643D01*
X137763939Y-105550110D01*
X137531904Y-105453998D01*
X137285577Y-105405000D01*
X137034423Y-105405000D01*
X136788096Y-105453998D01*
X136556061Y-105550110D01*
X136347235Y-105689643D01*
X136169643Y-105867235D01*
X136030110Y-106076061D01*
X135933998Y-106308096D01*
X135885000Y-106554423D01*
X135885000Y-106805577D01*
X135933998Y-107051904D01*
X136030110Y-107283939D01*
X136169643Y-107492765D01*
X136347235Y-107670357D01*
X136556061Y-107809890D01*
X136788096Y-107906002D01*
X137034423Y-107955000D01*
X137285577Y-107955000D01*
X137531904Y-107906002D01*
X137763939Y-107809890D01*
X137972765Y-107670357D01*
X138150357Y-107492765D01*
X138289890Y-107283939D01*
X138386002Y-107051904D01*
X138423186Y-106864969D01*
X138423186Y-107580000D01*
X138430426Y-107653513D01*
X138451869Y-107724200D01*
X138486691Y-107789347D01*
X138533552Y-107846448D01*
X138590653Y-107893309D01*
X138655800Y-107928131D01*
X138726487Y-107949574D01*
X138800000Y-107956814D01*
X139075000Y-107956814D01*
X139075000Y-111257146D01*
X139013509Y-111108693D01*
X138863032Y-110883489D01*
X138671511Y-110691968D01*
X138446307Y-110541491D01*
X138196073Y-110437841D01*
X137930426Y-110385000D01*
X137659574Y-110385000D01*
X137393927Y-110437841D01*
X137143693Y-110541491D01*
X136918489Y-110691968D01*
X136726968Y-110883489D01*
X136576491Y-111108693D01*
X136472841Y-111358927D01*
X136420000Y-111624574D01*
X136420000Y-111895426D01*
X136472841Y-112161073D01*
X136576491Y-112411307D01*
X136726968Y-112636511D01*
X136918489Y-112828032D01*
X137143693Y-112978509D01*
X137170001Y-112989406D01*
X137170000Y-113675000D01*
X127258883Y-113675000D01*
X126355000Y-112771118D01*
X126355000Y-112262854D01*
X126416491Y-112411307D01*
X126566968Y-112636511D01*
X126758489Y-112828032D01*
X126983693Y-112978509D01*
X127233927Y-113082159D01*
X127499574Y-113135000D01*
X127770426Y-113135000D01*
X128036073Y-113082159D01*
X128286307Y-112978509D01*
X128511511Y-112828032D01*
X128703032Y-112636511D01*
X128853509Y-112411307D01*
X128905000Y-112286996D01*
X128956491Y-112411307D01*
X129106968Y-112636511D01*
X129298489Y-112828032D01*
X129523693Y-112978509D01*
X129773927Y-113082159D01*
X130039574Y-113135000D01*
X130310426Y-113135000D01*
X130576073Y-113082159D01*
X130826307Y-112978509D01*
X131051511Y-112828032D01*
X131243032Y-112636511D01*
X131393509Y-112411307D01*
X131497159Y-112161073D01*
X131550000Y-111895426D01*
X131550000Y-111624574D01*
X131497159Y-111358927D01*
X131393509Y-111108693D01*
X131243032Y-110883489D01*
X131051511Y-110691968D01*
X130826307Y-110541491D01*
X130576073Y-110437841D01*
X130310426Y-110385000D01*
X130039574Y-110385000D01*
X129773927Y-110437841D01*
X129523693Y-110541491D01*
X129298489Y-110691968D01*
X129106968Y-110883489D01*
X128956491Y-111108693D01*
X128905000Y-111233004D01*
X128853509Y-111108693D01*
X128703032Y-110883489D01*
X128511511Y-110691968D01*
X128286307Y-110541491D01*
X128260000Y-110530594D01*
X128260000Y-110113883D01*
X128690235Y-109683649D01*
X128714080Y-109664080D01*
X128733649Y-109640235D01*
X128733653Y-109640231D01*
X128792183Y-109568912D01*
X128850218Y-109460335D01*
X128850219Y-109460334D01*
X128885957Y-109342521D01*
X128895000Y-109250704D01*
X128895000Y-109250702D01*
X128898024Y-109220000D01*
X128895000Y-109189298D01*
X128895000Y-107963526D01*
X128944991Y-107942819D01*
X129178385Y-107786870D01*
X129376870Y-107588385D01*
X129532819Y-107354991D01*
X129540000Y-107337654D01*
X129547181Y-107354991D01*
X129703130Y-107588385D01*
X129901615Y-107786870D01*
X130135009Y-107942819D01*
X130394343Y-108050238D01*
X130669650Y-108105000D01*
X130950350Y-108105000D01*
X131225657Y-108050238D01*
X131484991Y-107942819D01*
X131680097Y-107812453D01*
X131684043Y-107852521D01*
X131719781Y-107970334D01*
X131777817Y-108078911D01*
X131855920Y-108174080D01*
X131951089Y-108252183D01*
X132059666Y-108310219D01*
X132177479Y-108345957D01*
X132300000Y-108358024D01*
X133068750Y-108355000D01*
X133225000Y-108198750D01*
X133225000Y-106805000D01*
X133475000Y-106805000D01*
X133475000Y-108198750D01*
X133631250Y-108355000D01*
X134400000Y-108358024D01*
X134522521Y-108345957D01*
X134640334Y-108310219D01*
X134748911Y-108252183D01*
X134844080Y-108174080D01*
X134922183Y-108078911D01*
X134980219Y-107970334D01*
X135015957Y-107852521D01*
X135028024Y-107730000D01*
X135025000Y-106961250D01*
X134868750Y-106805000D01*
X133475000Y-106805000D01*
X133225000Y-106805000D01*
X133205000Y-106805000D01*
X133205000Y-106555000D01*
X133225000Y-106555000D01*
X133225000Y-105161250D01*
X133475000Y-105161250D01*
X133475000Y-106555000D01*
X134868750Y-106555000D01*
X135025000Y-106398750D01*
X135028024Y-105630000D01*
X135015957Y-105507479D01*
X134980219Y-105389666D01*
X134922183Y-105281089D01*
X134860132Y-105205479D01*
X141310000Y-105205479D01*
X141310000Y-105594521D01*
X141385898Y-105976086D01*
X141534778Y-106335513D01*
X141750917Y-106658989D01*
X142026011Y-106934083D01*
X142349487Y-107150222D01*
X142708914Y-107299102D01*
X143090479Y-107375000D01*
X143479521Y-107375000D01*
X143861086Y-107299102D01*
X144220513Y-107150222D01*
X144543989Y-106934083D01*
X144819083Y-106658989D01*
X145035222Y-106335513D01*
X145184102Y-105976086D01*
X145260000Y-105594521D01*
X145260000Y-105205479D01*
X145184102Y-104823914D01*
X145035222Y-104464487D01*
X144819083Y-104141011D01*
X144543989Y-103865917D01*
X144220513Y-103649778D01*
X143861086Y-103500898D01*
X143479521Y-103425000D01*
X143090479Y-103425000D01*
X142708914Y-103500898D01*
X142349487Y-103649778D01*
X142026011Y-103865917D01*
X141750917Y-104141011D01*
X141534778Y-104464487D01*
X141385898Y-104823914D01*
X141310000Y-105205479D01*
X134860132Y-105205479D01*
X134844080Y-105185920D01*
X134748911Y-105107817D01*
X134640334Y-105049781D01*
X134522521Y-105014043D01*
X134400000Y-105001976D01*
X133631250Y-105005000D01*
X133475000Y-105161250D01*
X133225000Y-105161250D01*
X133068750Y-105005000D01*
X132300000Y-105001976D01*
X132177479Y-105014043D01*
X132059666Y-105049781D01*
X131951089Y-105107817D01*
X131855920Y-105185920D01*
X131777817Y-105281089D01*
X131719781Y-105389666D01*
X131684043Y-105507479D01*
X131680097Y-105547547D01*
X131484991Y-105417181D01*
X131225657Y-105309762D01*
X130950350Y-105255000D01*
X130669650Y-105255000D01*
X130394343Y-105309762D01*
X130135009Y-105417181D01*
X129901615Y-105573130D01*
X129703130Y-105771615D01*
X129547181Y-106005009D01*
X129540000Y-106022346D01*
X129532819Y-106005009D01*
X129376870Y-105771615D01*
X129178385Y-105573130D01*
X128944991Y-105417181D01*
X128685657Y-105309762D01*
X128410350Y-105255000D01*
X128129650Y-105255000D01*
X127854343Y-105309762D01*
X127595009Y-105417181D01*
X127361615Y-105573130D01*
X127163130Y-105771615D01*
X127007181Y-106005009D01*
X127000000Y-106022346D01*
X126992819Y-106005009D01*
X126836870Y-105771615D01*
X126638385Y-105573130D01*
X126404991Y-105417181D01*
X126145657Y-105309762D01*
X125870350Y-105255000D01*
X125589650Y-105255000D01*
X125314343Y-105309762D01*
X125055009Y-105417181D01*
X124821615Y-105573130D01*
X124623130Y-105771615D01*
X124467181Y-106005009D01*
X124359762Y-106264343D01*
X124305000Y-106539650D01*
X123698822Y-106539650D01*
X123835222Y-106335513D01*
X123984102Y-105976086D01*
X124060000Y-105594521D01*
X124060000Y-105205479D01*
X123984102Y-104823914D01*
X123835222Y-104464487D01*
X123619083Y-104141011D01*
X123343989Y-103865917D01*
X123020513Y-103649778D01*
X122661086Y-103500898D01*
X122279521Y-103425000D01*
X121890479Y-103425000D01*
X121508914Y-103500898D01*
X121149487Y-103649778D01*
X120826011Y-103865917D01*
X120550917Y-104141011D01*
X120334778Y-104464487D01*
X120185898Y-104823914D01*
X120110000Y-105205479D01*
X119815000Y-105205479D01*
X119815000Y-104166166D01*
X119832949Y-103983111D01*
X119879934Y-103827491D01*
X119956247Y-103683964D01*
X120058989Y-103557990D01*
X120184243Y-103454371D01*
X120327230Y-103377058D01*
X120482521Y-103328987D01*
X120664225Y-103309890D01*
X144758724Y-103309890D01*
X144941779Y-103327839D01*
G36*
X141730000Y-111635000D02*
G01*
X141750000Y-111635000D01*
X141750000Y-111885000D01*
X141730000Y-111885000D01*
X141730000Y-111905000D01*
X141480000Y-111905000D01*
X141480000Y-111885000D01*
X141460000Y-111885000D01*
X141460000Y-111635000D01*
X141480000Y-111635000D01*
X141480000Y-111615000D01*
X141730000Y-111615000D01*
X141730000Y-111635000D01*
G37*
X141730000Y-111635000D02*
X141750000Y-111635000D01*
X141750000Y-111885000D01*
X141730000Y-111885000D01*
X141730000Y-111905000D01*
X141480000Y-111905000D01*
X141480000Y-111885000D01*
X141460000Y-111885000D01*
X141460000Y-111635000D01*
X141480000Y-111635000D01*
X141480000Y-111615000D01*
X141730000Y-111615000D01*
X141730000Y-111635000D01*
M02*
