G04 #@! TF.GenerationSoftware,KiCad,Pcbnew,5.1.5-52549c5~86~ubuntu18.04.1*
G04 #@! TF.CreationDate,2020-03-29T17:49:25+00:00*
G04 #@! TF.ProjectId,PIS,5049532e-6b69-4636-9164-5f7063625858,rev?*
G04 #@! TF.SameCoordinates,Original*
G04 #@! TF.FileFunction,Legend,Top*
G04 #@! TF.FilePolarity,Positive*
%FSLAX46Y46*%
G04 Gerber Fmt 4.6, Leading zero omitted, Abs format (unit mm)*
G04 Created by KiCad (PCBNEW 5.1.5-52549c5~86~ubuntu18.04.1) date 2020-03-29 17:49:25*
%MOMM*%
%LPD*%
G04 APERTURE LIST*
%ADD10C,0.150000*%
%ADD11C,0.120000*%
G04 APERTURE END LIST*
D10*
X126065595Y-137612380D02*
X126065595Y-136612380D01*
X126303690Y-136612380D01*
X126446547Y-136660000D01*
X126541785Y-136755238D01*
X126589404Y-136850476D01*
X126637023Y-137040952D01*
X126637023Y-137183809D01*
X126589404Y-137374285D01*
X126541785Y-137469523D01*
X126446547Y-137564761D01*
X126303690Y-137612380D01*
X126065595Y-137612380D01*
X127494166Y-136945714D02*
X127494166Y-137612380D01*
X127256071Y-136564761D02*
X127017976Y-137279047D01*
X127637023Y-137279047D01*
X128732261Y-136564761D02*
X127875119Y-137850476D01*
X129589404Y-136660000D02*
X129494166Y-136612380D01*
X129351309Y-136612380D01*
X129208452Y-136660000D01*
X129113214Y-136755238D01*
X129065595Y-136850476D01*
X129017976Y-137040952D01*
X129017976Y-137183809D01*
X129065595Y-137374285D01*
X129113214Y-137469523D01*
X129208452Y-137564761D01*
X129351309Y-137612380D01*
X129446547Y-137612380D01*
X129589404Y-137564761D01*
X129637023Y-137517142D01*
X129637023Y-137183809D01*
X129446547Y-137183809D01*
X130065595Y-137612380D02*
X130065595Y-136612380D01*
X130446547Y-136612380D01*
X130541785Y-136660000D01*
X130589404Y-136707619D01*
X130637023Y-136802857D01*
X130637023Y-136945714D01*
X130589404Y-137040952D01*
X130541785Y-137088571D01*
X130446547Y-137136190D01*
X130065595Y-137136190D01*
X131065595Y-137612380D02*
X131065595Y-136612380D01*
X131732261Y-136612380D02*
X131922738Y-136612380D01*
X132017976Y-136660000D01*
X132113214Y-136755238D01*
X132160833Y-136945714D01*
X132160833Y-137279047D01*
X132113214Y-137469523D01*
X132017976Y-137564761D01*
X131922738Y-137612380D01*
X131732261Y-137612380D01*
X131637023Y-137564761D01*
X131541785Y-137469523D01*
X131494166Y-137279047D01*
X131494166Y-136945714D01*
X131541785Y-136755238D01*
X131637023Y-136660000D01*
X131732261Y-136612380D01*
X132541785Y-136707619D02*
X132589404Y-136660000D01*
X132684642Y-136612380D01*
X132922738Y-136612380D01*
X133017976Y-136660000D01*
X133065595Y-136707619D01*
X133113214Y-136802857D01*
X133113214Y-136898095D01*
X133065595Y-137040952D01*
X132494166Y-137612380D01*
X133113214Y-137612380D01*
X126541785Y-139152380D02*
X126065595Y-139152380D01*
X126017976Y-139628571D01*
X126065595Y-139580952D01*
X126160833Y-139533333D01*
X126398928Y-139533333D01*
X126494166Y-139580952D01*
X126541785Y-139628571D01*
X126589404Y-139723809D01*
X126589404Y-139961904D01*
X126541785Y-140057142D01*
X126494166Y-140104761D01*
X126398928Y-140152380D01*
X126160833Y-140152380D01*
X126065595Y-140104761D01*
X126017976Y-140057142D01*
X126875119Y-139152380D02*
X127208452Y-140152380D01*
X127541785Y-139152380D01*
X126589404Y-134120000D02*
X126494166Y-134072380D01*
X126351309Y-134072380D01*
X126208452Y-134120000D01*
X126113214Y-134215238D01*
X126065595Y-134310476D01*
X126017976Y-134500952D01*
X126017976Y-134643809D01*
X126065595Y-134834285D01*
X126113214Y-134929523D01*
X126208452Y-135024761D01*
X126351309Y-135072380D01*
X126446547Y-135072380D01*
X126589404Y-135024761D01*
X126637023Y-134977142D01*
X126637023Y-134643809D01*
X126446547Y-134643809D01*
X127065595Y-135072380D02*
X127065595Y-134072380D01*
X127637023Y-135072380D01*
X127637023Y-134072380D01*
X128113214Y-135072380D02*
X128113214Y-134072380D01*
X128351309Y-134072380D01*
X128494166Y-134120000D01*
X128589404Y-134215238D01*
X128637023Y-134310476D01*
X128684642Y-134500952D01*
X128684642Y-134643809D01*
X128637023Y-134834285D01*
X128589404Y-134929523D01*
X128494166Y-135024761D01*
X128351309Y-135072380D01*
X128113214Y-135072380D01*
X130341666Y-141049285D02*
X130341666Y-140573095D01*
X130627380Y-141144523D02*
X129627380Y-140811190D01*
X130627380Y-140477857D01*
X129627380Y-139954047D02*
X129627380Y-139858809D01*
X129675000Y-139763571D01*
X129722619Y-139715952D01*
X129817857Y-139668333D01*
X130008333Y-139620714D01*
X130246428Y-139620714D01*
X130436904Y-139668333D01*
X130532142Y-139715952D01*
X130579761Y-139763571D01*
X130627380Y-139858809D01*
X130627380Y-139954047D01*
X130579761Y-140049285D01*
X130532142Y-140096904D01*
X130436904Y-140144523D01*
X130246428Y-140192142D01*
X130008333Y-140192142D01*
X129817857Y-140144523D01*
X129722619Y-140096904D01*
X129675000Y-140049285D01*
X129627380Y-139954047D01*
X135977380Y-143065476D02*
X135977380Y-143541666D01*
X136453571Y-143589285D01*
X136405952Y-143541666D01*
X136358333Y-143446428D01*
X136358333Y-143208333D01*
X136405952Y-143113095D01*
X136453571Y-143065476D01*
X136548809Y-143017857D01*
X136786904Y-143017857D01*
X136882142Y-143065476D01*
X136929761Y-143113095D01*
X136977380Y-143208333D01*
X136977380Y-143446428D01*
X136929761Y-143541666D01*
X136882142Y-143589285D01*
X135977380Y-142732142D02*
X136977380Y-142398809D01*
X135977380Y-142065476D01*
X133485000Y-143636904D02*
X133437380Y-143732142D01*
X133437380Y-143875000D01*
X133485000Y-144017857D01*
X133580238Y-144113095D01*
X133675476Y-144160714D01*
X133865952Y-144208333D01*
X134008809Y-144208333D01*
X134199285Y-144160714D01*
X134294523Y-144113095D01*
X134389761Y-144017857D01*
X134437380Y-143875000D01*
X134437380Y-143779761D01*
X134389761Y-143636904D01*
X134342142Y-143589285D01*
X134008809Y-143589285D01*
X134008809Y-143779761D01*
X134437380Y-143160714D02*
X133437380Y-143160714D01*
X134437380Y-142589285D01*
X133437380Y-142589285D01*
X134437380Y-142113095D02*
X133437380Y-142113095D01*
X133437380Y-141875000D01*
X133485000Y-141732142D01*
X133580238Y-141636904D01*
X133675476Y-141589285D01*
X133865952Y-141541666D01*
X134008809Y-141541666D01*
X134199285Y-141589285D01*
X134294523Y-141636904D01*
X134389761Y-141732142D01*
X134437380Y-141875000D01*
X134437380Y-142113095D01*
X129071666Y-143589285D02*
X129071666Y-143113095D01*
X129357380Y-143684523D02*
X128357380Y-143351190D01*
X129357380Y-143017857D01*
X128357380Y-142494047D02*
X128357380Y-142398809D01*
X128405000Y-142303571D01*
X128452619Y-142255952D01*
X128547857Y-142208333D01*
X128738333Y-142160714D01*
X128976428Y-142160714D01*
X129166904Y-142208333D01*
X129262142Y-142255952D01*
X129309761Y-142303571D01*
X129357380Y-142398809D01*
X129357380Y-142494047D01*
X129309761Y-142589285D01*
X129262142Y-142636904D01*
X129166904Y-142684523D01*
X128976428Y-142732142D01*
X128738333Y-142732142D01*
X128547857Y-142684523D01*
X128452619Y-142636904D01*
X128405000Y-142589285D01*
X128357380Y-142494047D01*
X131897380Y-143660714D02*
X130897380Y-143660714D01*
X131897380Y-143089285D01*
X130897380Y-143089285D01*
X131802142Y-142041666D02*
X131849761Y-142089285D01*
X131897380Y-142232142D01*
X131897380Y-142327380D01*
X131849761Y-142470238D01*
X131754523Y-142565476D01*
X131659285Y-142613095D01*
X131468809Y-142660714D01*
X131325952Y-142660714D01*
X131135476Y-142613095D01*
X131040238Y-142565476D01*
X130945000Y-142470238D01*
X130897380Y-142327380D01*
X130897380Y-142232142D01*
X130945000Y-142089285D01*
X130992619Y-142041666D01*
X134755000Y-141096904D02*
X134707380Y-141192142D01*
X134707380Y-141335000D01*
X134755000Y-141477857D01*
X134850238Y-141573095D01*
X134945476Y-141620714D01*
X135135952Y-141668333D01*
X135278809Y-141668333D01*
X135469285Y-141620714D01*
X135564523Y-141573095D01*
X135659761Y-141477857D01*
X135707380Y-141335000D01*
X135707380Y-141239761D01*
X135659761Y-141096904D01*
X135612142Y-141049285D01*
X135278809Y-141049285D01*
X135278809Y-141239761D01*
X135707380Y-140620714D02*
X134707380Y-140620714D01*
X135707380Y-140049285D01*
X134707380Y-140049285D01*
X135707380Y-139573095D02*
X134707380Y-139573095D01*
X134707380Y-139335000D01*
X134755000Y-139192142D01*
X134850238Y-139096904D01*
X134945476Y-139049285D01*
X135135952Y-139001666D01*
X135278809Y-139001666D01*
X135469285Y-139049285D01*
X135564523Y-139096904D01*
X135659761Y-139192142D01*
X135707380Y-139335000D01*
X135707380Y-139573095D01*
X132167380Y-140525476D02*
X132167380Y-141001666D01*
X132643571Y-141049285D01*
X132595952Y-141001666D01*
X132548333Y-140906428D01*
X132548333Y-140668333D01*
X132595952Y-140573095D01*
X132643571Y-140525476D01*
X132738809Y-140477857D01*
X132976904Y-140477857D01*
X133072142Y-140525476D01*
X133119761Y-140573095D01*
X133167380Y-140668333D01*
X133167380Y-140906428D01*
X133119761Y-141001666D01*
X133072142Y-141049285D01*
X132167380Y-140192142D02*
X133167380Y-139858809D01*
X132167380Y-139525476D01*
X129960952Y-128722380D02*
X129960952Y-127722380D01*
X130199047Y-127722380D01*
X130341904Y-127770000D01*
X130437142Y-127865238D01*
X130484761Y-127960476D01*
X130532380Y-128150952D01*
X130532380Y-128293809D01*
X130484761Y-128484285D01*
X130437142Y-128579523D01*
X130341904Y-128674761D01*
X130199047Y-128722380D01*
X129960952Y-128722380D01*
X130960952Y-128722380D02*
X130960952Y-127722380D01*
X130960952Y-128198571D02*
X131532380Y-128198571D01*
X131532380Y-128722380D02*
X131532380Y-127722380D01*
X131865714Y-127722380D02*
X132437142Y-127722380D01*
X132151428Y-128722380D02*
X132151428Y-127722380D01*
X132722857Y-127817619D02*
X132770476Y-127770000D01*
X132865714Y-127722380D01*
X133103809Y-127722380D01*
X133199047Y-127770000D01*
X133246666Y-127817619D01*
X133294285Y-127912857D01*
X133294285Y-128008095D01*
X133246666Y-128150952D01*
X132675238Y-128722380D01*
X133294285Y-128722380D01*
X133675238Y-127817619D02*
X133722857Y-127770000D01*
X133818095Y-127722380D01*
X134056190Y-127722380D01*
X134151428Y-127770000D01*
X134199047Y-127817619D01*
X134246666Y-127912857D01*
X134246666Y-128008095D01*
X134199047Y-128150952D01*
X133627619Y-128722380D01*
X134246666Y-128722380D01*
D11*
X132985000Y-115700000D02*
X132985000Y-112900000D01*
X132985000Y-112900000D02*
X134985000Y-112900000D01*
X134985000Y-112900000D02*
X134985000Y-115700000D01*
X134985000Y-115700000D02*
X132985000Y-115700000D01*
X135210000Y-103070000D02*
X134810000Y-103070000D01*
X135210000Y-103710000D02*
X135210000Y-103070000D01*
X124109000Y-110050000D02*
X124109000Y-103310000D01*
X134970000Y-110050000D02*
X134970000Y-103310000D01*
X134970000Y-103310000D02*
X124109000Y-103310000D01*
X134970000Y-110050000D02*
X124109000Y-110050000D01*
X134970000Y-108930000D02*
X124109000Y-108930000D01*
X134970000Y-103830000D02*
X124109000Y-103830000D01*
X132456256Y-104175768D02*
G75*
G03X126800000Y-104180000I-2826256J-2504232D01*
G01*
X134650000Y-104180000D02*
X132450000Y-104180000D01*
X134650000Y-106680000D02*
X134650000Y-104180000D01*
X124450000Y-108380000D02*
X133350000Y-108380000D01*
X124450000Y-104180000D02*
X124450000Y-108380000D01*
X126850000Y-104180000D02*
X124450000Y-104180000D01*
X132450000Y-104180000D02*
X126750000Y-104180000D01*
X137855000Y-147895000D02*
X137855000Y-149225000D01*
X136525000Y-147895000D02*
X137855000Y-147895000D01*
X135255000Y-147895000D02*
X135255000Y-150555000D01*
X135255000Y-150555000D02*
X127575000Y-150555000D01*
X135255000Y-147895000D02*
X127575000Y-147895000D01*
X127575000Y-147895000D02*
X127575000Y-150555000D01*
X137220000Y-125730000D02*
X137220000Y-127060000D01*
X137220000Y-127060000D02*
X135890000Y-127060000D01*
X134620000Y-127060000D02*
X126940000Y-127060000D01*
X126940000Y-124400000D02*
X126940000Y-127060000D01*
X134620000Y-124400000D02*
X126940000Y-124400000D01*
X134620000Y-124400000D02*
X134620000Y-127060000D01*
X142555000Y-119380000D02*
G75*
G03X142555000Y-119380000I-950000J0D01*
G01*
X142555000Y-121920000D02*
G75*
G03X142555000Y-121920000I-950000J0D01*
G01*
X142555000Y-124460000D02*
G75*
G03X142555000Y-124460000I-950000J0D01*
G01*
X142555000Y-127000000D02*
G75*
G03X142555000Y-127000000I-950000J0D01*
G01*
X139065000Y-120320000D02*
X139065000Y-121270000D01*
X139065000Y-126060000D02*
X139065000Y-125110000D01*
X138145000Y-121270000D02*
X138145000Y-125110000D01*
X139985000Y-121270000D02*
X138145000Y-121270000D01*
X139985000Y-125110000D02*
X139985000Y-121270000D01*
X138145000Y-125110000D02*
X139985000Y-125110000D01*
X140990000Y-108225000D02*
X140990000Y-105135000D01*
X140930000Y-106680000D02*
G75*
G03X140930000Y-106680000I-2500000J0D01*
G01*
X135440000Y-106680462D02*
G75*
G02X140990000Y-105135170I2990000J462D01*
G01*
X135440000Y-106679538D02*
G75*
G03X140990000Y-108224830I2990000J-462D01*
G01*
X132781522Y-118811522D02*
G75*
G03X134620000Y-123250000I1838478J-1838478D01*
G01*
X136458478Y-118811522D02*
G75*
G02X134620000Y-123250000I-1838478J-1838478D01*
G01*
X136420000Y-118800000D02*
X132820000Y-118800000D01*
X124945000Y-114050000D02*
X122705000Y-114050000D01*
X124945000Y-114290000D02*
X122705000Y-114290000D01*
X124945000Y-114170000D02*
X122705000Y-114170000D01*
X123825000Y-118340000D02*
X123825000Y-117690000D01*
X123825000Y-112800000D02*
X123825000Y-113450000D01*
X124945000Y-117690000D02*
X124945000Y-113450000D01*
X122705000Y-117690000D02*
X124945000Y-117690000D01*
X122705000Y-113450000D02*
X122705000Y-117690000D01*
X124945000Y-113450000D02*
X122705000Y-113450000D01*
X126135000Y-118440000D02*
X126135000Y-116240000D01*
X128235000Y-118440000D02*
X126135000Y-118440000D01*
X139035000Y-118240000D02*
X126335000Y-118240000D01*
X139035000Y-110440000D02*
X139035000Y-118240000D01*
X126335000Y-110440000D02*
X139035000Y-110440000D01*
X126335000Y-118240000D02*
X126335000Y-110440000D01*
X131445000Y-113894000D02*
X132461000Y-114529000D01*
X131318000Y-116078000D02*
X131953000Y-116078000D01*
X131953000Y-116078000D02*
X131953000Y-115418000D01*
X131318000Y-112878000D02*
X131953000Y-112878000D01*
X131953000Y-112878000D02*
X131953000Y-113513000D01*
X131445000Y-113513000D02*
X131445000Y-115418000D01*
X131445000Y-115418000D02*
X132461000Y-115418000D01*
X132461000Y-115418000D02*
X132461000Y-113513000D01*
X131445000Y-113513000D02*
X132461000Y-113513000D01*
X141605000Y-136220000D02*
X141605000Y-135270000D01*
X141605000Y-130480000D02*
X141605000Y-131430000D01*
X142525000Y-135270000D02*
X142525000Y-131430000D01*
X140685000Y-135270000D02*
X142525000Y-135270000D01*
X140685000Y-131430000D02*
X140685000Y-135270000D01*
X142525000Y-131430000D02*
X140685000Y-131430000D01*
X141605000Y-143840000D02*
X141605000Y-142890000D01*
X141605000Y-138100000D02*
X141605000Y-139050000D01*
X142525000Y-142890000D02*
X142525000Y-139050000D01*
X140685000Y-142890000D02*
X142525000Y-142890000D01*
X140685000Y-139050000D02*
X140685000Y-142890000D01*
X142525000Y-139050000D02*
X140685000Y-139050000D01*
X127066522Y-118811522D02*
G75*
G03X128905000Y-123250000I1838478J-1838478D01*
G01*
X130743478Y-118811522D02*
G75*
G02X128905000Y-123250000I-1838478J-1838478D01*
G01*
X130705000Y-118800000D02*
X127105000Y-118800000D01*
X122495000Y-133290000D02*
X123825000Y-133290000D01*
X122495000Y-134620000D02*
X122495000Y-133290000D01*
X122495000Y-135890000D02*
X125155000Y-135890000D01*
X125155000Y-135890000D02*
X125155000Y-141030000D01*
X122495000Y-135890000D02*
X122495000Y-141030000D01*
X122495000Y-141030000D02*
X125155000Y-141030000D01*
X136585000Y-144720000D02*
X136585000Y-146050000D01*
X135255000Y-144720000D02*
X136585000Y-144720000D01*
X133985000Y-144720000D02*
X133985000Y-147380000D01*
X133985000Y-147380000D02*
X128845000Y-147380000D01*
X133985000Y-144720000D02*
X128845000Y-144720000D01*
X128845000Y-144720000D02*
X128845000Y-147380000D01*
X123825000Y-122860000D02*
X123825000Y-123810000D01*
X123825000Y-128600000D02*
X123825000Y-127650000D01*
X122905000Y-123810000D02*
X122905000Y-127650000D01*
X124745000Y-123810000D02*
X122905000Y-123810000D01*
X124745000Y-127650000D02*
X124745000Y-123810000D01*
X122905000Y-127650000D02*
X124745000Y-127650000D01*
X140275000Y-107890000D02*
X141605000Y-107890000D01*
X140275000Y-109220000D02*
X140275000Y-107890000D01*
X140275000Y-110490000D02*
X142935000Y-110490000D01*
X142935000Y-110490000D02*
X142935000Y-118170000D01*
X140275000Y-110490000D02*
X140275000Y-118170000D01*
X140275000Y-118170000D02*
X142935000Y-118170000D01*
D10*
X135342380Y-115133333D02*
X136056666Y-115133333D01*
X136199523Y-115180952D01*
X136294761Y-115276190D01*
X136342380Y-115419047D01*
X136342380Y-115514285D01*
X136342380Y-114657142D02*
X135342380Y-114657142D01*
X135342380Y-114276190D01*
X135390000Y-114180952D01*
X135437619Y-114133333D01*
X135532857Y-114085714D01*
X135675714Y-114085714D01*
X135770952Y-114133333D01*
X135818571Y-114180952D01*
X135866190Y-114276190D01*
X135866190Y-114657142D01*
X136342380Y-113133333D02*
X136342380Y-113704761D01*
X136342380Y-113419047D02*
X135342380Y-113419047D01*
X135485238Y-113514285D01*
X135580476Y-113609523D01*
X135628095Y-113704761D01*
X122642380Y-108283333D02*
X123356666Y-108283333D01*
X123499523Y-108330952D01*
X123594761Y-108426190D01*
X123642380Y-108569047D01*
X123642380Y-108664285D01*
X122975714Y-107378571D02*
X123642380Y-107378571D01*
X122594761Y-107616666D02*
X123309047Y-107854761D01*
X123309047Y-107235714D01*
X122642380Y-110616904D02*
X123451904Y-110616904D01*
X123547142Y-110569285D01*
X123594761Y-110521666D01*
X123642380Y-110426428D01*
X123642380Y-110235952D01*
X123594761Y-110140714D01*
X123547142Y-110093095D01*
X123451904Y-110045476D01*
X122642380Y-110045476D01*
X122737619Y-109616904D02*
X122690000Y-109569285D01*
X122642380Y-109474047D01*
X122642380Y-109235952D01*
X122690000Y-109140714D01*
X122737619Y-109093095D01*
X122832857Y-109045476D01*
X122928095Y-109045476D01*
X123070952Y-109093095D01*
X123642380Y-109664523D01*
X123642380Y-109045476D01*
X139152380Y-149558333D02*
X139866666Y-149558333D01*
X140009523Y-149605952D01*
X140104761Y-149701190D01*
X140152380Y-149844047D01*
X140152380Y-149939285D01*
X139152380Y-148605952D02*
X139152380Y-149082142D01*
X139628571Y-149129761D01*
X139580952Y-149082142D01*
X139533333Y-148986904D01*
X139533333Y-148748809D01*
X139580952Y-148653571D01*
X139628571Y-148605952D01*
X139723809Y-148558333D01*
X139961904Y-148558333D01*
X140057142Y-148605952D01*
X140104761Y-148653571D01*
X140152380Y-148748809D01*
X140152380Y-148986904D01*
X140104761Y-149082142D01*
X140057142Y-149129761D01*
X137612380Y-123356666D02*
X137136190Y-123690000D01*
X137612380Y-123928095D02*
X136612380Y-123928095D01*
X136612380Y-123547142D01*
X136660000Y-123451904D01*
X136707619Y-123404285D01*
X136802857Y-123356666D01*
X136945714Y-123356666D01*
X137040952Y-123404285D01*
X137088571Y-123451904D01*
X137136190Y-123547142D01*
X137136190Y-123928095D01*
X136945714Y-122499523D02*
X137612380Y-122499523D01*
X136564761Y-122737619D02*
X137279047Y-122975714D01*
X137279047Y-122356666D01*
X140152380Y-111228095D02*
X139152380Y-111228095D01*
X139152380Y-110990000D01*
X139200000Y-110847142D01*
X139295238Y-110751904D01*
X139390476Y-110704285D01*
X139580952Y-110656666D01*
X139723809Y-110656666D01*
X139914285Y-110704285D01*
X140009523Y-110751904D01*
X140104761Y-110847142D01*
X140152380Y-110990000D01*
X140152380Y-111228095D01*
X139247619Y-110275714D02*
X139200000Y-110228095D01*
X139152380Y-110132857D01*
X139152380Y-109894761D01*
X139200000Y-109799523D01*
X139247619Y-109751904D01*
X139342857Y-109704285D01*
X139438095Y-109704285D01*
X139580952Y-109751904D01*
X140152380Y-110323333D01*
X140152380Y-109704285D01*
X132627619Y-123285238D02*
X132580000Y-123380476D01*
X132484761Y-123475714D01*
X132341904Y-123618571D01*
X132294285Y-123713809D01*
X132294285Y-123809047D01*
X132532380Y-123761428D02*
X132484761Y-123856666D01*
X132389523Y-123951904D01*
X132199047Y-123999523D01*
X131865714Y-123999523D01*
X131675238Y-123951904D01*
X131580000Y-123856666D01*
X131532380Y-123761428D01*
X131532380Y-123570952D01*
X131580000Y-123475714D01*
X131675238Y-123380476D01*
X131865714Y-123332857D01*
X132199047Y-123332857D01*
X132389523Y-123380476D01*
X132484761Y-123475714D01*
X132532380Y-123570952D01*
X132532380Y-123761428D01*
X132532380Y-122380476D02*
X132532380Y-122951904D01*
X132532380Y-122666190D02*
X131532380Y-122666190D01*
X131675238Y-122761428D01*
X131770476Y-122856666D01*
X131818095Y-122951904D01*
X126182380Y-116308095D02*
X125182380Y-116308095D01*
X125182380Y-116070000D01*
X125230000Y-115927142D01*
X125325238Y-115831904D01*
X125420476Y-115784285D01*
X125610952Y-115736666D01*
X125753809Y-115736666D01*
X125944285Y-115784285D01*
X126039523Y-115831904D01*
X126134761Y-115927142D01*
X126182380Y-116070000D01*
X126182380Y-116308095D01*
X126182380Y-114784285D02*
X126182380Y-115355714D01*
X126182380Y-115070000D02*
X125182380Y-115070000D01*
X125325238Y-115165238D01*
X125420476Y-115260476D01*
X125468095Y-115355714D01*
X124277380Y-115196904D02*
X123277380Y-115196904D01*
X124277380Y-114625476D02*
X123705952Y-115054047D01*
X123277380Y-114625476D02*
X123848809Y-115196904D01*
X126182380Y-113768095D02*
X125182380Y-113768095D01*
X126182380Y-113196666D02*
X125610952Y-113625238D01*
X125182380Y-113196666D02*
X125753809Y-113768095D01*
X126182380Y-112244285D02*
X126182380Y-112815714D01*
X126182380Y-112530000D02*
X125182380Y-112530000D01*
X125325238Y-112625238D01*
X125420476Y-112720476D01*
X125468095Y-112815714D01*
X140152380Y-133516666D02*
X139676190Y-133850000D01*
X140152380Y-134088095D02*
X139152380Y-134088095D01*
X139152380Y-133707142D01*
X139200000Y-133611904D01*
X139247619Y-133564285D01*
X139342857Y-133516666D01*
X139485714Y-133516666D01*
X139580952Y-133564285D01*
X139628571Y-133611904D01*
X139676190Y-133707142D01*
X139676190Y-134088095D01*
X139152380Y-133183333D02*
X139152380Y-132564285D01*
X139533333Y-132897619D01*
X139533333Y-132754761D01*
X139580952Y-132659523D01*
X139628571Y-132611904D01*
X139723809Y-132564285D01*
X139961904Y-132564285D01*
X140057142Y-132611904D01*
X140104761Y-132659523D01*
X140152380Y-132754761D01*
X140152380Y-133040476D01*
X140104761Y-133135714D01*
X140057142Y-133183333D01*
X140152380Y-141136666D02*
X139676190Y-141470000D01*
X140152380Y-141708095D02*
X139152380Y-141708095D01*
X139152380Y-141327142D01*
X139200000Y-141231904D01*
X139247619Y-141184285D01*
X139342857Y-141136666D01*
X139485714Y-141136666D01*
X139580952Y-141184285D01*
X139628571Y-141231904D01*
X139676190Y-141327142D01*
X139676190Y-141708095D01*
X139247619Y-140755714D02*
X139200000Y-140708095D01*
X139152380Y-140612857D01*
X139152380Y-140374761D01*
X139200000Y-140279523D01*
X139247619Y-140231904D01*
X139342857Y-140184285D01*
X139438095Y-140184285D01*
X139580952Y-140231904D01*
X140152380Y-140803333D01*
X140152380Y-140184285D01*
X126277619Y-123285238D02*
X126230000Y-123380476D01*
X126134761Y-123475714D01*
X125991904Y-123618571D01*
X125944285Y-123713809D01*
X125944285Y-123809047D01*
X126182380Y-123761428D02*
X126134761Y-123856666D01*
X126039523Y-123951904D01*
X125849047Y-123999523D01*
X125515714Y-123999523D01*
X125325238Y-123951904D01*
X125230000Y-123856666D01*
X125182380Y-123761428D01*
X125182380Y-123570952D01*
X125230000Y-123475714D01*
X125325238Y-123380476D01*
X125515714Y-123332857D01*
X125849047Y-123332857D01*
X126039523Y-123380476D01*
X126134761Y-123475714D01*
X126182380Y-123570952D01*
X126182380Y-123761428D01*
X125182380Y-122999523D02*
X125182380Y-122380476D01*
X125563333Y-122713809D01*
X125563333Y-122570952D01*
X125610952Y-122475714D01*
X125658571Y-122428095D01*
X125753809Y-122380476D01*
X125991904Y-122380476D01*
X126087142Y-122428095D01*
X126134761Y-122475714D01*
X126182380Y-122570952D01*
X126182380Y-122856666D01*
X126134761Y-122951904D01*
X126087142Y-122999523D01*
X137882380Y-146383333D02*
X138596666Y-146383333D01*
X138739523Y-146430952D01*
X138834761Y-146526190D01*
X138882380Y-146669047D01*
X138882380Y-146764285D01*
X138882380Y-145383333D02*
X138882380Y-145954761D01*
X138882380Y-145669047D02*
X137882380Y-145669047D01*
X138025238Y-145764285D01*
X138120476Y-145859523D01*
X138168095Y-145954761D01*
X126182380Y-125896666D02*
X125706190Y-126230000D01*
X126182380Y-126468095D02*
X125182380Y-126468095D01*
X125182380Y-126087142D01*
X125230000Y-125991904D01*
X125277619Y-125944285D01*
X125372857Y-125896666D01*
X125515714Y-125896666D01*
X125610952Y-125944285D01*
X125658571Y-125991904D01*
X125706190Y-126087142D01*
X125706190Y-126468095D01*
X126182380Y-124944285D02*
X126182380Y-125515714D01*
X126182380Y-125230000D02*
X125182380Y-125230000D01*
X125325238Y-125325238D01*
X125420476Y-125420476D01*
X125468095Y-125515714D01*
X139152380Y-114633333D02*
X139866666Y-114633333D01*
X140009523Y-114680952D01*
X140104761Y-114776190D01*
X140152380Y-114919047D01*
X140152380Y-115014285D01*
X139152380Y-114252380D02*
X139152380Y-113633333D01*
X139533333Y-113966666D01*
X139533333Y-113823809D01*
X139580952Y-113728571D01*
X139628571Y-113680952D01*
X139723809Y-113633333D01*
X139961904Y-113633333D01*
X140057142Y-113680952D01*
X140104761Y-113728571D01*
X140152380Y-113823809D01*
X140152380Y-114109523D01*
X140104761Y-114204761D01*
X140057142Y-114252380D01*
M02*
