G04 #@! TF.GenerationSoftware,KiCad,Pcbnew,5.1.5-52549c5~86~ubuntu18.04.1*
G04 #@! TF.CreationDate,2020-03-29T17:49:25+00:00*
G04 #@! TF.ProjectId,PIS,5049532e-6b69-4636-9164-5f7063625858,rev?*
G04 #@! TF.SameCoordinates,Original*
G04 #@! TF.FileFunction,Legend,Bot*
G04 #@! TF.FilePolarity,Positive*
%FSLAX46Y46*%
G04 Gerber Fmt 4.6, Leading zero omitted, Abs format (unit mm)*
G04 Created by KiCad (PCBNEW 5.1.5-52549c5~86~ubuntu18.04.1) date 2020-03-29 17:49:25*
%MOMM*%
%LPD*%
G04 APERTURE LIST*
%ADD10C,0.150000*%
%ADD11C,0.400000*%
%ADD12C,0.250000*%
%ADD13C,0.010000*%
%ADD14C,0.120000*%
G04 APERTURE END LIST*
D10*
X127724285Y-144583095D02*
X127800476Y-144583095D01*
X127876666Y-144545000D01*
X127914761Y-144506904D01*
X127952857Y-144430714D01*
X127990952Y-144278333D01*
X127990952Y-144087857D01*
X127952857Y-143935476D01*
X127914761Y-143859285D01*
X127876666Y-143821190D01*
X127800476Y-143783095D01*
X127724285Y-143783095D01*
X127648095Y-143821190D01*
X127610000Y-143859285D01*
X127571904Y-143935476D01*
X127533809Y-144087857D01*
X127533809Y-144278333D01*
X127571904Y-144430714D01*
X127610000Y-144506904D01*
X127648095Y-144545000D01*
X127724285Y-144583095D01*
X128295714Y-144506904D02*
X128333809Y-144545000D01*
X128410000Y-144583095D01*
X128600476Y-144583095D01*
X128676666Y-144545000D01*
X128714761Y-144506904D01*
X128752857Y-144430714D01*
X128752857Y-144354523D01*
X128714761Y-144240238D01*
X128257619Y-143783095D01*
X128752857Y-143783095D01*
X129095714Y-143859285D02*
X129133809Y-143821190D01*
X129095714Y-143783095D01*
X129057619Y-143821190D01*
X129095714Y-143859285D01*
X129095714Y-143783095D01*
X129629047Y-144583095D02*
X129705238Y-144583095D01*
X129781428Y-144545000D01*
X129819523Y-144506904D01*
X129857619Y-144430714D01*
X129895714Y-144278333D01*
X129895714Y-144087857D01*
X129857619Y-143935476D01*
X129819523Y-143859285D01*
X129781428Y-143821190D01*
X129705238Y-143783095D01*
X129629047Y-143783095D01*
X129552857Y-143821190D01*
X129514761Y-143859285D01*
X129476666Y-143935476D01*
X129438571Y-144087857D01*
X129438571Y-144278333D01*
X129476666Y-144430714D01*
X129514761Y-144506904D01*
X129552857Y-144545000D01*
X129629047Y-144583095D01*
X130200476Y-144506904D02*
X130238571Y-144545000D01*
X130314761Y-144583095D01*
X130505238Y-144583095D01*
X130581428Y-144545000D01*
X130619523Y-144506904D01*
X130657619Y-144430714D01*
X130657619Y-144354523D01*
X130619523Y-144240238D01*
X130162380Y-143783095D01*
X130657619Y-143783095D01*
X131000476Y-143859285D02*
X131038571Y-143821190D01*
X131000476Y-143783095D01*
X130962380Y-143821190D01*
X131000476Y-143859285D01*
X131000476Y-143783095D01*
X131343333Y-144506904D02*
X131381428Y-144545000D01*
X131457619Y-144583095D01*
X131648095Y-144583095D01*
X131724285Y-144545000D01*
X131762380Y-144506904D01*
X131800476Y-144430714D01*
X131800476Y-144354523D01*
X131762380Y-144240238D01*
X131305238Y-143783095D01*
X131800476Y-143783095D01*
X132295714Y-144583095D02*
X132371904Y-144583095D01*
X132448095Y-144545000D01*
X132486190Y-144506904D01*
X132524285Y-144430714D01*
X132562380Y-144278333D01*
X132562380Y-144087857D01*
X132524285Y-143935476D01*
X132486190Y-143859285D01*
X132448095Y-143821190D01*
X132371904Y-143783095D01*
X132295714Y-143783095D01*
X132219523Y-143821190D01*
X132181428Y-143859285D01*
X132143333Y-143935476D01*
X132105238Y-144087857D01*
X132105238Y-144278333D01*
X132143333Y-144430714D01*
X132181428Y-144506904D01*
X132219523Y-144545000D01*
X132295714Y-144583095D01*
X133324285Y-143783095D02*
X132867142Y-143783095D01*
X133095714Y-143783095D02*
X133095714Y-144583095D01*
X133019523Y-144468809D01*
X132943333Y-144392619D01*
X132867142Y-144354523D01*
X133705238Y-143783095D02*
X133857619Y-143783095D01*
X133933809Y-143821190D01*
X133971904Y-143859285D01*
X134048095Y-143973571D01*
X134086190Y-144125952D01*
X134086190Y-144430714D01*
X134048095Y-144506904D01*
X134010000Y-144545000D01*
X133933809Y-144583095D01*
X133781428Y-144583095D01*
X133705238Y-144545000D01*
X133667142Y-144506904D01*
X133629047Y-144430714D01*
X133629047Y-144240238D01*
X133667142Y-144164047D01*
X133705238Y-144125952D01*
X133781428Y-144087857D01*
X133933809Y-144087857D01*
X134010000Y-144125952D01*
X134048095Y-144164047D01*
X134086190Y-144240238D01*
D11*
X138515833Y-138138333D02*
X138599166Y-138305000D01*
X138682500Y-138388333D01*
X138849166Y-138471666D01*
X139349166Y-138471666D01*
X139515833Y-138388333D01*
X139599166Y-138305000D01*
X139682500Y-138138333D01*
X139682500Y-137888333D01*
X139599166Y-137721666D01*
X139515833Y-137638333D01*
X139349166Y-137555000D01*
X138849166Y-137555000D01*
X138682500Y-137638333D01*
X138599166Y-137721666D01*
X138515833Y-137888333D01*
X138515833Y-138138333D01*
X139682500Y-136805000D02*
X137932500Y-136805000D01*
X139599166Y-136805000D02*
X139682500Y-136638333D01*
X139682500Y-136305000D01*
X139599166Y-136138333D01*
X139515833Y-136055000D01*
X139349166Y-135971666D01*
X138849166Y-135971666D01*
X138682500Y-136055000D01*
X138599166Y-136138333D01*
X138515833Y-136305000D01*
X138515833Y-136638333D01*
X138599166Y-136805000D01*
X138599166Y-134555000D02*
X138515833Y-134721666D01*
X138515833Y-135055000D01*
X138599166Y-135221666D01*
X138765833Y-135305000D01*
X139432500Y-135305000D01*
X139599166Y-135221666D01*
X139682500Y-135055000D01*
X139682500Y-134721666D01*
X139599166Y-134555000D01*
X139432500Y-134471666D01*
X139265833Y-134471666D01*
X139099166Y-135305000D01*
X139682500Y-133721666D02*
X138515833Y-133721666D01*
X139515833Y-133721666D02*
X139599166Y-133638333D01*
X139682500Y-133471666D01*
X139682500Y-133221666D01*
X139599166Y-133055000D01*
X139432500Y-132971666D01*
X138515833Y-132971666D01*
X135490833Y-138388333D02*
X137240833Y-138388333D01*
X135490833Y-137638333D02*
X136407500Y-137638333D01*
X136574166Y-137721666D01*
X136657500Y-137888333D01*
X136657500Y-138138333D01*
X136574166Y-138305000D01*
X136490833Y-138388333D01*
X135490833Y-136055000D02*
X136407500Y-136055000D01*
X136574166Y-136138333D01*
X136657500Y-136305000D01*
X136657500Y-136638333D01*
X136574166Y-136805000D01*
X135574166Y-136055000D02*
X135490833Y-136221666D01*
X135490833Y-136638333D01*
X135574166Y-136805000D01*
X135740833Y-136888333D01*
X135907500Y-136888333D01*
X136074166Y-136805000D01*
X136157500Y-136638333D01*
X136157500Y-136221666D01*
X136240833Y-136055000D01*
X135490833Y-135221666D02*
X136657500Y-135221666D01*
X136324166Y-135221666D02*
X136490833Y-135138333D01*
X136574166Y-135055000D01*
X136657500Y-134888333D01*
X136657500Y-134721666D01*
X135490833Y-133388333D02*
X137240833Y-133388333D01*
X135574166Y-133388333D02*
X135490833Y-133555000D01*
X135490833Y-133888333D01*
X135574166Y-134055000D01*
X135657500Y-134138333D01*
X135824166Y-134221666D01*
X136324166Y-134221666D01*
X136490833Y-134138333D01*
X136574166Y-134055000D01*
X136657500Y-133888333D01*
X136657500Y-133555000D01*
X136574166Y-133388333D01*
X136657500Y-132721666D02*
X135490833Y-132388333D01*
X136324166Y-132055000D01*
X135490833Y-131721666D01*
X136657500Y-131388333D01*
X135490833Y-129971666D02*
X136407500Y-129971666D01*
X136574166Y-130055000D01*
X136657500Y-130221666D01*
X136657500Y-130555000D01*
X136574166Y-130721666D01*
X135574166Y-129971666D02*
X135490833Y-130138333D01*
X135490833Y-130555000D01*
X135574166Y-130721666D01*
X135740833Y-130805000D01*
X135907500Y-130805000D01*
X136074166Y-130721666D01*
X136157500Y-130555000D01*
X136157500Y-130138333D01*
X136240833Y-129971666D01*
X135490833Y-129138333D02*
X136657500Y-129138333D01*
X136324166Y-129138333D02*
X136490833Y-129055000D01*
X136574166Y-128971666D01*
X136657500Y-128805000D01*
X136657500Y-128638333D01*
X135574166Y-127388333D02*
X135490833Y-127555000D01*
X135490833Y-127888333D01*
X135574166Y-128055000D01*
X135740833Y-128138333D01*
X136407500Y-128138333D01*
X136574166Y-128055000D01*
X136657500Y-127888333D01*
X136657500Y-127555000D01*
X136574166Y-127388333D01*
X136407500Y-127305000D01*
X136240833Y-127305000D01*
X136074166Y-128138333D01*
D12*
X125277619Y-150810476D02*
X126277619Y-150810476D01*
X125277619Y-150381904D02*
X125801428Y-150381904D01*
X125896666Y-150429523D01*
X125944285Y-150524761D01*
X125944285Y-150667619D01*
X125896666Y-150762857D01*
X125849047Y-150810476D01*
X125944285Y-150048571D02*
X125944285Y-149667619D01*
X126277619Y-149905714D02*
X125420476Y-149905714D01*
X125325238Y-149858095D01*
X125277619Y-149762857D01*
X125277619Y-149667619D01*
X125944285Y-149477142D02*
X125944285Y-149096190D01*
X126277619Y-149334285D02*
X125420476Y-149334285D01*
X125325238Y-149286666D01*
X125277619Y-149191428D01*
X125277619Y-149096190D01*
X125944285Y-148762857D02*
X124944285Y-148762857D01*
X125896666Y-148762857D02*
X125944285Y-148667619D01*
X125944285Y-148477142D01*
X125896666Y-148381904D01*
X125849047Y-148334285D01*
X125753809Y-148286666D01*
X125468095Y-148286666D01*
X125372857Y-148334285D01*
X125325238Y-148381904D01*
X125277619Y-148477142D01*
X125277619Y-148667619D01*
X125325238Y-148762857D01*
X125325238Y-147905714D02*
X125277619Y-147810476D01*
X125277619Y-147620000D01*
X125325238Y-147524761D01*
X125420476Y-147477142D01*
X125468095Y-147477142D01*
X125563333Y-147524761D01*
X125610952Y-147620000D01*
X125610952Y-147762857D01*
X125658571Y-147858095D01*
X125753809Y-147905714D01*
X125801428Y-147905714D01*
X125896666Y-147858095D01*
X125944285Y-147762857D01*
X125944285Y-147620000D01*
X125896666Y-147524761D01*
X125372857Y-147048571D02*
X125325238Y-147000952D01*
X125277619Y-147048571D01*
X125325238Y-147096190D01*
X125372857Y-147048571D01*
X125277619Y-147048571D01*
X125896666Y-147048571D02*
X125849047Y-147000952D01*
X125801428Y-147048571D01*
X125849047Y-147096190D01*
X125896666Y-147048571D01*
X125801428Y-147048571D01*
X126325238Y-145858095D02*
X125039523Y-146715238D01*
X126325238Y-144810476D02*
X125039523Y-145667619D01*
X125944285Y-144477142D02*
X125277619Y-144477142D01*
X125849047Y-144477142D02*
X125896666Y-144429523D01*
X125944285Y-144334285D01*
X125944285Y-144191428D01*
X125896666Y-144096190D01*
X125801428Y-144048571D01*
X125277619Y-144048571D01*
X125325238Y-143191428D02*
X125277619Y-143286666D01*
X125277619Y-143477142D01*
X125325238Y-143572380D01*
X125420476Y-143620000D01*
X125801428Y-143620000D01*
X125896666Y-143572380D01*
X125944285Y-143477142D01*
X125944285Y-143286666D01*
X125896666Y-143191428D01*
X125801428Y-143143809D01*
X125706190Y-143143809D01*
X125610952Y-143620000D01*
X125277619Y-142715238D02*
X125944285Y-142715238D01*
X125753809Y-142715238D02*
X125849047Y-142667619D01*
X125896666Y-142620000D01*
X125944285Y-142524761D01*
X125944285Y-142429523D01*
X125277619Y-141667619D02*
X126277619Y-141667619D01*
X125325238Y-141667619D02*
X125277619Y-141762857D01*
X125277619Y-141953333D01*
X125325238Y-142048571D01*
X125372857Y-142096190D01*
X125468095Y-142143809D01*
X125753809Y-142143809D01*
X125849047Y-142096190D01*
X125896666Y-142048571D01*
X125944285Y-141953333D01*
X125944285Y-141762857D01*
X125896666Y-141667619D01*
X125944285Y-141286666D02*
X125277619Y-141048571D01*
X125944285Y-140810476D02*
X125277619Y-141048571D01*
X125039523Y-141143809D01*
X124991904Y-141191428D01*
X124944285Y-141286666D01*
X125325238Y-140477142D02*
X125277619Y-140381904D01*
X125277619Y-140191428D01*
X125325238Y-140096190D01*
X125420476Y-140048571D01*
X125468095Y-140048571D01*
X125563333Y-140096190D01*
X125610952Y-140191428D01*
X125610952Y-140334285D01*
X125658571Y-140429523D01*
X125753809Y-140477142D01*
X125801428Y-140477142D01*
X125896666Y-140429523D01*
X125944285Y-140334285D01*
X125944285Y-140191428D01*
X125896666Y-140096190D01*
X125325238Y-139191428D02*
X125277619Y-139286666D01*
X125277619Y-139477142D01*
X125325238Y-139572380D01*
X125372857Y-139620000D01*
X125468095Y-139667619D01*
X125753809Y-139667619D01*
X125849047Y-139620000D01*
X125896666Y-139572380D01*
X125944285Y-139477142D01*
X125944285Y-139286666D01*
X125896666Y-139191428D01*
X125277619Y-138620000D02*
X125325238Y-138715238D01*
X125372857Y-138762857D01*
X125468095Y-138810476D01*
X125753809Y-138810476D01*
X125849047Y-138762857D01*
X125896666Y-138715238D01*
X125944285Y-138620000D01*
X125944285Y-138477142D01*
X125896666Y-138381904D01*
X125849047Y-138334285D01*
X125753809Y-138286666D01*
X125468095Y-138286666D01*
X125372857Y-138334285D01*
X125325238Y-138381904D01*
X125277619Y-138477142D01*
X125277619Y-138620000D01*
X125944285Y-137429523D02*
X125277619Y-137429523D01*
X125944285Y-137858095D02*
X125420476Y-137858095D01*
X125325238Y-137810476D01*
X125277619Y-137715238D01*
X125277619Y-137572380D01*
X125325238Y-137477142D01*
X125372857Y-137429523D01*
X125944285Y-137096190D02*
X125944285Y-136715238D01*
X126277619Y-136953333D02*
X125420476Y-136953333D01*
X125325238Y-136905714D01*
X125277619Y-136810476D01*
X125277619Y-136715238D01*
X125372857Y-136381904D02*
X125325238Y-136334285D01*
X125277619Y-136381904D01*
X125325238Y-136429523D01*
X125372857Y-136381904D01*
X125277619Y-136381904D01*
X125944285Y-135477142D02*
X125134761Y-135477142D01*
X125039523Y-135524761D01*
X124991904Y-135572380D01*
X124944285Y-135667619D01*
X124944285Y-135810476D01*
X124991904Y-135905714D01*
X125325238Y-135477142D02*
X125277619Y-135572380D01*
X125277619Y-135762857D01*
X125325238Y-135858095D01*
X125372857Y-135905714D01*
X125468095Y-135953333D01*
X125753809Y-135953333D01*
X125849047Y-135905714D01*
X125896666Y-135858095D01*
X125944285Y-135762857D01*
X125944285Y-135572380D01*
X125896666Y-135477142D01*
X125277619Y-135000952D02*
X125944285Y-135000952D01*
X126277619Y-135000952D02*
X126230000Y-135048571D01*
X126182380Y-135000952D01*
X126230000Y-134953333D01*
X126277619Y-135000952D01*
X126182380Y-135000952D01*
X125944285Y-134667619D02*
X125944285Y-134286666D01*
X126277619Y-134524761D02*
X125420476Y-134524761D01*
X125325238Y-134477142D01*
X125277619Y-134381904D01*
X125277619Y-134286666D01*
X125277619Y-133953333D02*
X126277619Y-133953333D01*
X125277619Y-133524761D02*
X125801428Y-133524761D01*
X125896666Y-133572380D01*
X125944285Y-133667619D01*
X125944285Y-133810476D01*
X125896666Y-133905714D01*
X125849047Y-133953333D01*
X125944285Y-132620000D02*
X125277619Y-132620000D01*
X125944285Y-133048571D02*
X125420476Y-133048571D01*
X125325238Y-133000952D01*
X125277619Y-132905714D01*
X125277619Y-132762857D01*
X125325238Y-132667619D01*
X125372857Y-132620000D01*
X125277619Y-132143809D02*
X126277619Y-132143809D01*
X125896666Y-132143809D02*
X125944285Y-132048571D01*
X125944285Y-131858095D01*
X125896666Y-131762857D01*
X125849047Y-131715238D01*
X125753809Y-131667619D01*
X125468095Y-131667619D01*
X125372857Y-131715238D01*
X125325238Y-131762857D01*
X125277619Y-131858095D01*
X125277619Y-132048571D01*
X125325238Y-132143809D01*
X125372857Y-131239047D02*
X125325238Y-131191428D01*
X125277619Y-131239047D01*
X125325238Y-131286666D01*
X125372857Y-131239047D01*
X125277619Y-131239047D01*
X125277619Y-130762857D02*
X125944285Y-130762857D01*
X126277619Y-130762857D02*
X126230000Y-130810476D01*
X126182380Y-130762857D01*
X126230000Y-130715238D01*
X126277619Y-130762857D01*
X126182380Y-130762857D01*
X125277619Y-130143809D02*
X125325238Y-130239047D01*
X125372857Y-130286666D01*
X125468095Y-130334285D01*
X125753809Y-130334285D01*
X125849047Y-130286666D01*
X125896666Y-130239047D01*
X125944285Y-130143809D01*
X125944285Y-130000952D01*
X125896666Y-129905714D01*
X125849047Y-129858095D01*
X125753809Y-129810476D01*
X125468095Y-129810476D01*
X125372857Y-129858095D01*
X125325238Y-129905714D01*
X125277619Y-130000952D01*
X125277619Y-130143809D01*
X126325238Y-128667619D02*
X125039523Y-129524761D01*
X125277619Y-128334285D02*
X126277619Y-128334285D01*
X125277619Y-127762857D01*
X126277619Y-127762857D01*
X125277619Y-127143809D02*
X125325238Y-127239047D01*
X125372857Y-127286666D01*
X125468095Y-127334285D01*
X125753809Y-127334285D01*
X125849047Y-127286666D01*
X125896666Y-127239047D01*
X125944285Y-127143809D01*
X125944285Y-127000952D01*
X125896666Y-126905714D01*
X125849047Y-126858095D01*
X125753809Y-126810476D01*
X125468095Y-126810476D01*
X125372857Y-126858095D01*
X125325238Y-126905714D01*
X125277619Y-127000952D01*
X125277619Y-127143809D01*
X125277619Y-125953333D02*
X126277619Y-125953333D01*
X125325238Y-125953333D02*
X125277619Y-126048571D01*
X125277619Y-126239047D01*
X125325238Y-126334285D01*
X125372857Y-126381904D01*
X125468095Y-126429523D01*
X125753809Y-126429523D01*
X125849047Y-126381904D01*
X125896666Y-126334285D01*
X125944285Y-126239047D01*
X125944285Y-126048571D01*
X125896666Y-125953333D01*
X125325238Y-125096190D02*
X125277619Y-125191428D01*
X125277619Y-125381904D01*
X125325238Y-125477142D01*
X125420476Y-125524761D01*
X125801428Y-125524761D01*
X125896666Y-125477142D01*
X125944285Y-125381904D01*
X125944285Y-125191428D01*
X125896666Y-125096190D01*
X125801428Y-125048571D01*
X125706190Y-125048571D01*
X125610952Y-125524761D01*
X125277619Y-124620000D02*
X126277619Y-124620000D01*
X125563333Y-124286666D01*
X126277619Y-123953333D01*
X125277619Y-123953333D01*
X125372857Y-122905714D02*
X125325238Y-122953333D01*
X125277619Y-123096190D01*
X125277619Y-123191428D01*
X125325238Y-123334285D01*
X125420476Y-123429523D01*
X125515714Y-123477142D01*
X125706190Y-123524761D01*
X125849047Y-123524761D01*
X126039523Y-123477142D01*
X126134761Y-123429523D01*
X126230000Y-123334285D01*
X126277619Y-123191428D01*
X126277619Y-123096190D01*
X126230000Y-122953333D01*
X126182380Y-122905714D01*
X126277619Y-122477142D02*
X125468095Y-122477142D01*
X125372857Y-122429523D01*
X125325238Y-122381904D01*
X125277619Y-122286666D01*
X125277619Y-122096190D01*
X125325238Y-122000952D01*
X125372857Y-121953333D01*
X125468095Y-121905714D01*
X126277619Y-121905714D01*
X126325238Y-120715238D02*
X125039523Y-121572380D01*
X125277619Y-120381904D02*
X126277619Y-120381904D01*
X126277619Y-120000952D01*
X126230000Y-119905714D01*
X126182380Y-119858095D01*
X126087142Y-119810476D01*
X125944285Y-119810476D01*
X125849047Y-119858095D01*
X125801428Y-119905714D01*
X125753809Y-120000952D01*
X125753809Y-120381904D01*
X125277619Y-119381904D02*
X126277619Y-119381904D01*
X125325238Y-118953333D02*
X125277619Y-118810476D01*
X125277619Y-118572380D01*
X125325238Y-118477142D01*
X125372857Y-118429523D01*
X125468095Y-118381904D01*
X125563333Y-118381904D01*
X125658571Y-118429523D01*
X125706190Y-118477142D01*
X125753809Y-118572380D01*
X125801428Y-118762857D01*
X125849047Y-118858095D01*
X125896666Y-118905714D01*
X125991904Y-118953333D01*
X126087142Y-118953333D01*
X126182380Y-118905714D01*
X126230000Y-118858095D01*
X126277619Y-118762857D01*
X126277619Y-118524761D01*
X126230000Y-118381904D01*
D13*
G36*
X134408510Y-137981079D02*
G01*
X134372762Y-137877973D01*
X134316493Y-137781978D01*
X134239712Y-137696247D01*
X134142427Y-137623930D01*
X134081108Y-137591445D01*
X133995340Y-137563332D01*
X133896323Y-137549705D01*
X133794529Y-137551214D01*
X133702286Y-137567969D01*
X133589568Y-137613763D01*
X133491793Y-137680168D01*
X133410885Y-137763809D01*
X133348768Y-137861312D01*
X133307366Y-137969300D01*
X133288603Y-138084399D01*
X133294402Y-138203234D01*
X133306794Y-138261811D01*
X133351203Y-138375972D01*
X133418967Y-138477365D01*
X133507999Y-138563545D01*
X133616209Y-138632066D01*
X133628027Y-138637864D01*
X133672372Y-138657904D01*
X133709720Y-138670487D01*
X133749120Y-138677319D01*
X133799619Y-138680105D01*
X133854567Y-138680568D01*
X133920585Y-138679803D01*
X133968311Y-138676352D01*
X134006897Y-138668477D01*
X134045494Y-138654443D01*
X134083574Y-138637120D01*
X134191672Y-138572505D01*
X134279197Y-138492934D01*
X134346159Y-138401560D01*
X134392564Y-138301536D01*
X134418419Y-138196012D01*
X134423732Y-138088142D01*
X134408510Y-137981079D01*
G37*
X134408510Y-137981079D02*
X134372762Y-137877973D01*
X134316493Y-137781978D01*
X134239712Y-137696247D01*
X134142427Y-137623930D01*
X134081108Y-137591445D01*
X133995340Y-137563332D01*
X133896323Y-137549705D01*
X133794529Y-137551214D01*
X133702286Y-137567969D01*
X133589568Y-137613763D01*
X133491793Y-137680168D01*
X133410885Y-137763809D01*
X133348768Y-137861312D01*
X133307366Y-137969300D01*
X133288603Y-138084399D01*
X133294402Y-138203234D01*
X133306794Y-138261811D01*
X133351203Y-138375972D01*
X133418967Y-138477365D01*
X133507999Y-138563545D01*
X133616209Y-138632066D01*
X133628027Y-138637864D01*
X133672372Y-138657904D01*
X133709720Y-138670487D01*
X133749120Y-138677319D01*
X133799619Y-138680105D01*
X133854567Y-138680568D01*
X133920585Y-138679803D01*
X133968311Y-138676352D01*
X134006897Y-138668477D01*
X134045494Y-138654443D01*
X134083574Y-138637120D01*
X134191672Y-138572505D01*
X134279197Y-138492934D01*
X134346159Y-138401560D01*
X134392564Y-138301536D01*
X134418419Y-138196012D01*
X134423732Y-138088142D01*
X134408510Y-137981079D01*
G36*
X133488175Y-128412730D02*
G01*
X133487696Y-128295959D01*
X133487455Y-128256271D01*
X133483865Y-127710514D01*
X131390081Y-127703649D01*
X131106158Y-127702742D01*
X130848360Y-127701938D01*
X130615354Y-127701185D01*
X130405806Y-127700431D01*
X130218382Y-127699625D01*
X130051750Y-127698715D01*
X129904575Y-127697649D01*
X129775523Y-127696376D01*
X129663261Y-127694844D01*
X129566456Y-127693002D01*
X129483774Y-127690797D01*
X129413881Y-127688178D01*
X129355443Y-127685094D01*
X129307128Y-127681492D01*
X129267600Y-127677322D01*
X129235527Y-127672531D01*
X129209576Y-127667069D01*
X129188411Y-127660882D01*
X129170701Y-127653920D01*
X129155111Y-127646131D01*
X129140307Y-127637463D01*
X129124956Y-127627865D01*
X129107724Y-127617285D01*
X129104054Y-127615116D01*
X129041969Y-127578732D01*
X129045566Y-128104569D01*
X129049162Y-128630406D01*
X129164669Y-128637271D01*
X129220101Y-128641008D01*
X129252149Y-128644903D01*
X129264865Y-128650189D01*
X129262304Y-128658097D01*
X129254976Y-128664730D01*
X129228286Y-128693626D01*
X129193979Y-128740721D01*
X129156154Y-128799380D01*
X129118910Y-128862969D01*
X129086347Y-128924851D01*
X129064923Y-128972366D01*
X129029717Y-129083684D01*
X129004778Y-129211404D01*
X128991059Y-129346099D01*
X128989514Y-129478337D01*
X129001094Y-129598692D01*
X129001426Y-129600674D01*
X129042750Y-129765359D01*
X129108588Y-129919521D01*
X129197526Y-130061672D01*
X129308148Y-130190325D01*
X129439039Y-130303993D01*
X129588784Y-130401190D01*
X129755967Y-130480428D01*
X129879810Y-130523570D01*
X129983419Y-130552021D01*
X130083748Y-130573120D01*
X130186891Y-130587512D01*
X130298943Y-130595842D01*
X130425999Y-130598755D01*
X130529748Y-130597465D01*
X130529748Y-129584350D01*
X130355778Y-129579556D01*
X130206105Y-129564432D01*
X130079403Y-129538515D01*
X129974342Y-129501337D01*
X129889594Y-129452435D01*
X129823831Y-129391342D01*
X129777341Y-129320823D01*
X129759986Y-129284129D01*
X129749581Y-129252304D01*
X129744821Y-129216823D01*
X129744399Y-129169159D01*
X129746252Y-129117811D01*
X129755159Y-129016831D01*
X129772602Y-128936965D01*
X129781339Y-128911865D01*
X129807143Y-128854552D01*
X129839547Y-128794103D01*
X129855767Y-128767703D01*
X129900795Y-128699054D01*
X131328018Y-128699054D01*
X131373282Y-128774568D01*
X131424428Y-128879879D01*
X131454676Y-128987475D01*
X131464205Y-129093419D01*
X131453193Y-129193776D01*
X131421819Y-129284613D01*
X131370260Y-129361993D01*
X131345512Y-129386961D01*
X131264423Y-129447144D01*
X131166266Y-129495855D01*
X131049357Y-129533501D01*
X130912015Y-129560488D01*
X130752556Y-129577225D01*
X130569300Y-129584117D01*
X130529748Y-129584350D01*
X130529748Y-130597465D01*
X130572933Y-130596927D01*
X130798947Y-130585353D01*
X131002808Y-130562080D01*
X131187487Y-130526496D01*
X131355952Y-130477987D01*
X131511174Y-130415940D01*
X131557192Y-130393799D01*
X131707261Y-130304615D01*
X131840623Y-130196841D01*
X131955123Y-130073010D01*
X132048611Y-129935658D01*
X132118932Y-129787317D01*
X132147940Y-129698396D01*
X132165160Y-129611067D01*
X132175406Y-129505989D01*
X132178682Y-129391971D01*
X132174991Y-129277823D01*
X132164340Y-129172352D01*
X132147630Y-129087666D01*
X132114860Y-128986872D01*
X132072721Y-128889178D01*
X132025481Y-128803704D01*
X131993419Y-128758211D01*
X131969578Y-128726831D01*
X131955061Y-128704858D01*
X131953000Y-128699859D01*
X131966282Y-128698310D01*
X132004337Y-128696865D01*
X132064481Y-128695557D01*
X132144027Y-128694417D01*
X132240289Y-128693479D01*
X132350581Y-128692774D01*
X132472219Y-128692333D01*
X132596115Y-128692189D01*
X132754804Y-128692270D01*
X132888592Y-128692665D01*
X133000040Y-128693605D01*
X133091705Y-128695320D01*
X133166147Y-128698043D01*
X133225925Y-128702003D01*
X133273598Y-128707431D01*
X133311726Y-128714559D01*
X133342866Y-128723616D01*
X133369579Y-128734833D01*
X133394423Y-128748442D01*
X133419957Y-128764672D01*
X133423119Y-128766760D01*
X133456190Y-128787694D01*
X133478931Y-128800333D01*
X133483728Y-128802027D01*
X133485241Y-128788784D01*
X133486472Y-128750998D01*
X133487401Y-128691584D01*
X133488008Y-128613458D01*
X133488273Y-128519535D01*
X133488175Y-128412730D01*
G37*
X133488175Y-128412730D02*
X133487696Y-128295959D01*
X133487455Y-128256271D01*
X133483865Y-127710514D01*
X131390081Y-127703649D01*
X131106158Y-127702742D01*
X130848360Y-127701938D01*
X130615354Y-127701185D01*
X130405806Y-127700431D01*
X130218382Y-127699625D01*
X130051750Y-127698715D01*
X129904575Y-127697649D01*
X129775523Y-127696376D01*
X129663261Y-127694844D01*
X129566456Y-127693002D01*
X129483774Y-127690797D01*
X129413881Y-127688178D01*
X129355443Y-127685094D01*
X129307128Y-127681492D01*
X129267600Y-127677322D01*
X129235527Y-127672531D01*
X129209576Y-127667069D01*
X129188411Y-127660882D01*
X129170701Y-127653920D01*
X129155111Y-127646131D01*
X129140307Y-127637463D01*
X129124956Y-127627865D01*
X129107724Y-127617285D01*
X129104054Y-127615116D01*
X129041969Y-127578732D01*
X129045566Y-128104569D01*
X129049162Y-128630406D01*
X129164669Y-128637271D01*
X129220101Y-128641008D01*
X129252149Y-128644903D01*
X129264865Y-128650189D01*
X129262304Y-128658097D01*
X129254976Y-128664730D01*
X129228286Y-128693626D01*
X129193979Y-128740721D01*
X129156154Y-128799380D01*
X129118910Y-128862969D01*
X129086347Y-128924851D01*
X129064923Y-128972366D01*
X129029717Y-129083684D01*
X129004778Y-129211404D01*
X128991059Y-129346099D01*
X128989514Y-129478337D01*
X129001094Y-129598692D01*
X129001426Y-129600674D01*
X129042750Y-129765359D01*
X129108588Y-129919521D01*
X129197526Y-130061672D01*
X129308148Y-130190325D01*
X129439039Y-130303993D01*
X129588784Y-130401190D01*
X129755967Y-130480428D01*
X129879810Y-130523570D01*
X129983419Y-130552021D01*
X130083748Y-130573120D01*
X130186891Y-130587512D01*
X130298943Y-130595842D01*
X130425999Y-130598755D01*
X130529748Y-130597465D01*
X130529748Y-129584350D01*
X130355778Y-129579556D01*
X130206105Y-129564432D01*
X130079403Y-129538515D01*
X129974342Y-129501337D01*
X129889594Y-129452435D01*
X129823831Y-129391342D01*
X129777341Y-129320823D01*
X129759986Y-129284129D01*
X129749581Y-129252304D01*
X129744821Y-129216823D01*
X129744399Y-129169159D01*
X129746252Y-129117811D01*
X129755159Y-129016831D01*
X129772602Y-128936965D01*
X129781339Y-128911865D01*
X129807143Y-128854552D01*
X129839547Y-128794103D01*
X129855767Y-128767703D01*
X129900795Y-128699054D01*
X131328018Y-128699054D01*
X131373282Y-128774568D01*
X131424428Y-128879879D01*
X131454676Y-128987475D01*
X131464205Y-129093419D01*
X131453193Y-129193776D01*
X131421819Y-129284613D01*
X131370260Y-129361993D01*
X131345512Y-129386961D01*
X131264423Y-129447144D01*
X131166266Y-129495855D01*
X131049357Y-129533501D01*
X130912015Y-129560488D01*
X130752556Y-129577225D01*
X130569300Y-129584117D01*
X130529748Y-129584350D01*
X130529748Y-130597465D01*
X130572933Y-130596927D01*
X130798947Y-130585353D01*
X131002808Y-130562080D01*
X131187487Y-130526496D01*
X131355952Y-130477987D01*
X131511174Y-130415940D01*
X131557192Y-130393799D01*
X131707261Y-130304615D01*
X131840623Y-130196841D01*
X131955123Y-130073010D01*
X132048611Y-129935658D01*
X132118932Y-129787317D01*
X132147940Y-129698396D01*
X132165160Y-129611067D01*
X132175406Y-129505989D01*
X132178682Y-129391971D01*
X132174991Y-129277823D01*
X132164340Y-129172352D01*
X132147630Y-129087666D01*
X132114860Y-128986872D01*
X132072721Y-128889178D01*
X132025481Y-128803704D01*
X131993419Y-128758211D01*
X131969578Y-128726831D01*
X131955061Y-128704858D01*
X131953000Y-128699859D01*
X131966282Y-128698310D01*
X132004337Y-128696865D01*
X132064481Y-128695557D01*
X132144027Y-128694417D01*
X132240289Y-128693479D01*
X132350581Y-128692774D01*
X132472219Y-128692333D01*
X132596115Y-128692189D01*
X132754804Y-128692270D01*
X132888592Y-128692665D01*
X133000040Y-128693605D01*
X133091705Y-128695320D01*
X133166147Y-128698043D01*
X133225925Y-128702003D01*
X133273598Y-128707431D01*
X133311726Y-128714559D01*
X133342866Y-128723616D01*
X133369579Y-128734833D01*
X133394423Y-128748442D01*
X133419957Y-128764672D01*
X133423119Y-128766760D01*
X133456190Y-128787694D01*
X133478931Y-128800333D01*
X133483728Y-128802027D01*
X133485241Y-128788784D01*
X133486472Y-128750998D01*
X133487401Y-128691584D01*
X133488008Y-128613458D01*
X133488273Y-128519535D01*
X133488175Y-128412730D01*
G36*
X132180771Y-132087495D02*
G01*
X132175622Y-132019469D01*
X132149727Y-131824837D01*
X132108425Y-131652471D01*
X132051147Y-131501530D01*
X131977326Y-131371175D01*
X131886392Y-131260566D01*
X131777778Y-131168865D01*
X131650915Y-131095230D01*
X131513648Y-131041461D01*
X131469863Y-131027813D01*
X131428859Y-131015927D01*
X131388431Y-131005666D01*
X131346370Y-130996887D01*
X131300469Y-130989452D01*
X131248520Y-130983220D01*
X131188315Y-130978050D01*
X131117648Y-130973804D01*
X131034311Y-130970340D01*
X130936095Y-130967519D01*
X130820795Y-130965200D01*
X130686201Y-130963243D01*
X130530107Y-130961509D01*
X130350305Y-130959857D01*
X130209324Y-130958676D01*
X129241378Y-130950730D01*
X129148230Y-130899244D01*
X129103355Y-130874863D01*
X129068499Y-130856720D01*
X129049946Y-130848065D01*
X129048689Y-130847757D01*
X129047251Y-130860986D01*
X129045926Y-130898674D01*
X129044751Y-130957817D01*
X129043763Y-131035414D01*
X129043001Y-131128464D01*
X129042500Y-131233965D01*
X129042299Y-131348916D01*
X129042297Y-131362622D01*
X129042297Y-131877487D01*
X129159000Y-131877487D01*
X129211740Y-131878365D01*
X129252074Y-131880708D01*
X129273700Y-131884079D01*
X129275702Y-131885569D01*
X129267317Y-131899196D01*
X129245308Y-131927243D01*
X129214399Y-131963697D01*
X129213684Y-131964515D01*
X129164157Y-132031038D01*
X129114425Y-132115052D01*
X129069374Y-132207063D01*
X129033890Y-132297579D01*
X129021764Y-132337433D01*
X129006363Y-132416745D01*
X128996535Y-132514065D01*
X128992420Y-132620484D01*
X128994159Y-132727093D01*
X129001892Y-132824983D01*
X129013019Y-132893487D01*
X129062352Y-133061480D01*
X129132658Y-133212719D01*
X129223067Y-133346218D01*
X129332705Y-133460994D01*
X129460701Y-133556063D01*
X129606182Y-133630440D01*
X129694459Y-133662526D01*
X129780261Y-133682635D01*
X129883264Y-133695962D01*
X129993966Y-133702128D01*
X130010075Y-133701926D01*
X130010075Y-132773352D01*
X129927816Y-132765652D01*
X129859454Y-132740011D01*
X129796030Y-132692622D01*
X129777433Y-132674421D01*
X129727154Y-132609718D01*
X129694944Y-132534934D01*
X129679352Y-132445338D01*
X129678204Y-132350988D01*
X129685784Y-132261499D01*
X129700611Y-132192982D01*
X129711747Y-132163225D01*
X129742096Y-132109592D01*
X129784779Y-132052765D01*
X129832683Y-132000918D01*
X129878699Y-131962222D01*
X129895579Y-131951946D01*
X129919218Y-131943958D01*
X129956832Y-131938279D01*
X130012015Y-131934644D01*
X130088360Y-131932789D01*
X130161019Y-131932406D01*
X130245730Y-131932665D01*
X130306982Y-131933713D01*
X130348773Y-131935955D01*
X130375101Y-131939794D01*
X130389965Y-131945635D01*
X130397361Y-131953882D01*
X130398539Y-131956433D01*
X130402167Y-131978600D01*
X130405134Y-132022320D01*
X130407173Y-132081689D01*
X130408017Y-132150804D01*
X130408018Y-132165811D01*
X130406543Y-132258195D01*
X130402158Y-132329568D01*
X130394262Y-132386281D01*
X130382730Y-132433128D01*
X130338785Y-132549331D01*
X130284757Y-132640457D01*
X130219781Y-132707295D01*
X130142995Y-132750635D01*
X130053533Y-132771266D01*
X130010075Y-132773352D01*
X130010075Y-133701926D01*
X130102867Y-133700756D01*
X130200464Y-133691468D01*
X130239895Y-133684223D01*
X130386299Y-133637961D01*
X130521005Y-133567616D01*
X130642720Y-133474516D01*
X130750153Y-133359988D01*
X130842012Y-133225360D01*
X130917004Y-133071960D01*
X130962542Y-132941541D01*
X130986467Y-132854377D01*
X131005057Y-132771004D01*
X131018916Y-132686024D01*
X131028649Y-132594035D01*
X131034859Y-132489638D01*
X131038149Y-132367432D01*
X131039076Y-132256945D01*
X131039973Y-131929323D01*
X131138453Y-131935599D01*
X131245305Y-131953421D01*
X131337148Y-131991333D01*
X131411690Y-132047720D01*
X131466636Y-132120969D01*
X131493448Y-132185465D01*
X131510346Y-132277877D01*
X131512773Y-132387889D01*
X131501622Y-132510344D01*
X131477790Y-132640086D01*
X131442170Y-132771958D01*
X131395657Y-132900802D01*
X131353117Y-132994434D01*
X131331272Y-133039483D01*
X131316016Y-133073844D01*
X131310063Y-133091319D01*
X131310254Y-133092267D01*
X131323588Y-133098297D01*
X131358932Y-133113355D01*
X131412899Y-133136023D01*
X131482104Y-133164885D01*
X131563160Y-133198523D01*
X131645882Y-133232716D01*
X131977197Y-133369414D01*
X131993167Y-133272180D01*
X132001180Y-133230036D01*
X132014639Y-133166681D01*
X132032321Y-133087543D01*
X132053004Y-132998049D01*
X132075468Y-132903627D01*
X132084597Y-132866027D01*
X132122326Y-132703363D01*
X132150612Y-132560950D01*
X132170028Y-132433473D01*
X132181146Y-132315616D01*
X132184536Y-132202062D01*
X132180771Y-132087495D01*
G37*
X132180771Y-132087495D02*
X132175622Y-132019469D01*
X132149727Y-131824837D01*
X132108425Y-131652471D01*
X132051147Y-131501530D01*
X131977326Y-131371175D01*
X131886392Y-131260566D01*
X131777778Y-131168865D01*
X131650915Y-131095230D01*
X131513648Y-131041461D01*
X131469863Y-131027813D01*
X131428859Y-131015927D01*
X131388431Y-131005666D01*
X131346370Y-130996887D01*
X131300469Y-130989452D01*
X131248520Y-130983220D01*
X131188315Y-130978050D01*
X131117648Y-130973804D01*
X131034311Y-130970340D01*
X130936095Y-130967519D01*
X130820795Y-130965200D01*
X130686201Y-130963243D01*
X130530107Y-130961509D01*
X130350305Y-130959857D01*
X130209324Y-130958676D01*
X129241378Y-130950730D01*
X129148230Y-130899244D01*
X129103355Y-130874863D01*
X129068499Y-130856720D01*
X129049946Y-130848065D01*
X129048689Y-130847757D01*
X129047251Y-130860986D01*
X129045926Y-130898674D01*
X129044751Y-130957817D01*
X129043763Y-131035414D01*
X129043001Y-131128464D01*
X129042500Y-131233965D01*
X129042299Y-131348916D01*
X129042297Y-131362622D01*
X129042297Y-131877487D01*
X129159000Y-131877487D01*
X129211740Y-131878365D01*
X129252074Y-131880708D01*
X129273700Y-131884079D01*
X129275702Y-131885569D01*
X129267317Y-131899196D01*
X129245308Y-131927243D01*
X129214399Y-131963697D01*
X129213684Y-131964515D01*
X129164157Y-132031038D01*
X129114425Y-132115052D01*
X129069374Y-132207063D01*
X129033890Y-132297579D01*
X129021764Y-132337433D01*
X129006363Y-132416745D01*
X128996535Y-132514065D01*
X128992420Y-132620484D01*
X128994159Y-132727093D01*
X129001892Y-132824983D01*
X129013019Y-132893487D01*
X129062352Y-133061480D01*
X129132658Y-133212719D01*
X129223067Y-133346218D01*
X129332705Y-133460994D01*
X129460701Y-133556063D01*
X129606182Y-133630440D01*
X129694459Y-133662526D01*
X129780261Y-133682635D01*
X129883264Y-133695962D01*
X129993966Y-133702128D01*
X130010075Y-133701926D01*
X130010075Y-132773352D01*
X129927816Y-132765652D01*
X129859454Y-132740011D01*
X129796030Y-132692622D01*
X129777433Y-132674421D01*
X129727154Y-132609718D01*
X129694944Y-132534934D01*
X129679352Y-132445338D01*
X129678204Y-132350988D01*
X129685784Y-132261499D01*
X129700611Y-132192982D01*
X129711747Y-132163225D01*
X129742096Y-132109592D01*
X129784779Y-132052765D01*
X129832683Y-132000918D01*
X129878699Y-131962222D01*
X129895579Y-131951946D01*
X129919218Y-131943958D01*
X129956832Y-131938279D01*
X130012015Y-131934644D01*
X130088360Y-131932789D01*
X130161019Y-131932406D01*
X130245730Y-131932665D01*
X130306982Y-131933713D01*
X130348773Y-131935955D01*
X130375101Y-131939794D01*
X130389965Y-131945635D01*
X130397361Y-131953882D01*
X130398539Y-131956433D01*
X130402167Y-131978600D01*
X130405134Y-132022320D01*
X130407173Y-132081689D01*
X130408017Y-132150804D01*
X130408018Y-132165811D01*
X130406543Y-132258195D01*
X130402158Y-132329568D01*
X130394262Y-132386281D01*
X130382730Y-132433128D01*
X130338785Y-132549331D01*
X130284757Y-132640457D01*
X130219781Y-132707295D01*
X130142995Y-132750635D01*
X130053533Y-132771266D01*
X130010075Y-132773352D01*
X130010075Y-133701926D01*
X130102867Y-133700756D01*
X130200464Y-133691468D01*
X130239895Y-133684223D01*
X130386299Y-133637961D01*
X130521005Y-133567616D01*
X130642720Y-133474516D01*
X130750153Y-133359988D01*
X130842012Y-133225360D01*
X130917004Y-133071960D01*
X130962542Y-132941541D01*
X130986467Y-132854377D01*
X131005057Y-132771004D01*
X131018916Y-132686024D01*
X131028649Y-132594035D01*
X131034859Y-132489638D01*
X131038149Y-132367432D01*
X131039076Y-132256945D01*
X131039973Y-131929323D01*
X131138453Y-131935599D01*
X131245305Y-131953421D01*
X131337148Y-131991333D01*
X131411690Y-132047720D01*
X131466636Y-132120969D01*
X131493448Y-132185465D01*
X131510346Y-132277877D01*
X131512773Y-132387889D01*
X131501622Y-132510344D01*
X131477790Y-132640086D01*
X131442170Y-132771958D01*
X131395657Y-132900802D01*
X131353117Y-132994434D01*
X131331272Y-133039483D01*
X131316016Y-133073844D01*
X131310063Y-133091319D01*
X131310254Y-133092267D01*
X131323588Y-133098297D01*
X131358932Y-133113355D01*
X131412899Y-133136023D01*
X131482104Y-133164885D01*
X131563160Y-133198523D01*
X131645882Y-133232716D01*
X131977197Y-133369414D01*
X131993167Y-133272180D01*
X132001180Y-133230036D01*
X132014639Y-133166681D01*
X132032321Y-133087543D01*
X132053004Y-132998049D01*
X132075468Y-132903627D01*
X132084597Y-132866027D01*
X132122326Y-132703363D01*
X132150612Y-132560950D01*
X132170028Y-132433473D01*
X132181146Y-132315616D01*
X132184536Y-132202062D01*
X132180771Y-132087495D01*
G36*
X133284501Y-134815038D02*
G01*
X133268293Y-134666986D01*
X133239282Y-134523548D01*
X133195955Y-134378890D01*
X133136799Y-134227176D01*
X133060300Y-134062572D01*
X133045483Y-134032929D01*
X133011969Y-133964902D01*
X132981792Y-133900744D01*
X132957834Y-133846785D01*
X132942976Y-133809360D01*
X132941105Y-133803611D01*
X132924598Y-133748514D01*
X132565799Y-133995149D01*
X132478107Y-134055448D01*
X132397988Y-134110578D01*
X132328164Y-134158664D01*
X132271353Y-134197832D01*
X132230277Y-134226206D01*
X132207654Y-134241913D01*
X132204072Y-134244464D01*
X132211562Y-134254829D01*
X132234082Y-134280340D01*
X132267539Y-134316437D01*
X132286450Y-134336358D01*
X132376222Y-134449227D01*
X132444439Y-134575986D01*
X132481805Y-134685217D01*
X132493540Y-134750786D01*
X132500692Y-134832884D01*
X132503126Y-134921856D01*
X132500712Y-135008044D01*
X132493317Y-135081795D01*
X132487653Y-135111224D01*
X132442018Y-135243867D01*
X132372337Y-135363394D01*
X132278740Y-135469717D01*
X132161351Y-135562747D01*
X132020300Y-135642395D01*
X131855714Y-135708574D01*
X131667720Y-135761194D01*
X131506783Y-135792467D01*
X131435737Y-135800626D01*
X131343954Y-135806185D01*
X131238032Y-135809198D01*
X131124566Y-135809719D01*
X131010151Y-135807800D01*
X130901383Y-135803497D01*
X130804857Y-135796863D01*
X130727169Y-135787951D01*
X130715183Y-135786021D01*
X130522108Y-135743501D01*
X130351227Y-135685567D01*
X130201776Y-135611867D01*
X130072989Y-135522049D01*
X130003361Y-135458293D01*
X129908827Y-135343714D01*
X129838754Y-135218058D01*
X129793523Y-135083443D01*
X129773516Y-134941989D01*
X129779115Y-134795817D01*
X129810700Y-134647045D01*
X129841606Y-134559089D01*
X129903494Y-134437371D01*
X129992271Y-134311920D01*
X130052306Y-134241647D01*
X130087053Y-134202189D01*
X130112546Y-134171188D01*
X130124830Y-134153542D01*
X130125205Y-134151352D01*
X130112653Y-134143476D01*
X130079484Y-134123068D01*
X130028542Y-134091868D01*
X129962669Y-134051614D01*
X129884711Y-134004043D01*
X129797510Y-133950896D01*
X129748933Y-133921313D01*
X129377785Y-133695352D01*
X129238361Y-133977473D01*
X129188281Y-134079478D01*
X129148790Y-134162111D01*
X129117927Y-134230422D01*
X129093732Y-134289463D01*
X129074242Y-134344286D01*
X129057497Y-134399940D01*
X129041535Y-134461477D01*
X129027518Y-134520460D01*
X129016671Y-134572885D01*
X129008474Y-134627712D01*
X129002472Y-134690428D01*
X128998210Y-134766523D01*
X128995233Y-134861484D01*
X128993948Y-134925487D01*
X128993070Y-135016808D01*
X128993513Y-135104373D01*
X128995148Y-135182388D01*
X128997851Y-135245058D01*
X129001495Y-135286587D01*
X129001858Y-135289048D01*
X129048513Y-135504697D01*
X129119271Y-135707207D01*
X129214086Y-135896505D01*
X129332911Y-136072521D01*
X129475700Y-136235184D01*
X129642406Y-136384422D01*
X129790567Y-136492504D01*
X129984498Y-136607566D01*
X130189301Y-136700577D01*
X130406617Y-136771987D01*
X130638088Y-136822244D01*
X130885357Y-136851799D01*
X131136441Y-136861111D01*
X131379330Y-136853452D01*
X131603430Y-136829387D01*
X131812523Y-136788148D01*
X132010387Y-136728973D01*
X132200804Y-136651096D01*
X132220532Y-136641797D01*
X132404941Y-136539352D01*
X132580424Y-136413528D01*
X132743350Y-136267888D01*
X132890086Y-136105999D01*
X133016999Y-135931424D01*
X133110095Y-135768756D01*
X133183009Y-135604427D01*
X133235826Y-135439749D01*
X133269985Y-135268348D01*
X133286922Y-135083847D01*
X133289420Y-134973541D01*
X133284501Y-134815038D01*
G37*
X133284501Y-134815038D02*
X133268293Y-134666986D01*
X133239282Y-134523548D01*
X133195955Y-134378890D01*
X133136799Y-134227176D01*
X133060300Y-134062572D01*
X133045483Y-134032929D01*
X133011969Y-133964902D01*
X132981792Y-133900744D01*
X132957834Y-133846785D01*
X132942976Y-133809360D01*
X132941105Y-133803611D01*
X132924598Y-133748514D01*
X132565799Y-133995149D01*
X132478107Y-134055448D01*
X132397988Y-134110578D01*
X132328164Y-134158664D01*
X132271353Y-134197832D01*
X132230277Y-134226206D01*
X132207654Y-134241913D01*
X132204072Y-134244464D01*
X132211562Y-134254829D01*
X132234082Y-134280340D01*
X132267539Y-134316437D01*
X132286450Y-134336358D01*
X132376222Y-134449227D01*
X132444439Y-134575986D01*
X132481805Y-134685217D01*
X132493540Y-134750786D01*
X132500692Y-134832884D01*
X132503126Y-134921856D01*
X132500712Y-135008044D01*
X132493317Y-135081795D01*
X132487653Y-135111224D01*
X132442018Y-135243867D01*
X132372337Y-135363394D01*
X132278740Y-135469717D01*
X132161351Y-135562747D01*
X132020300Y-135642395D01*
X131855714Y-135708574D01*
X131667720Y-135761194D01*
X131506783Y-135792467D01*
X131435737Y-135800626D01*
X131343954Y-135806185D01*
X131238032Y-135809198D01*
X131124566Y-135809719D01*
X131010151Y-135807800D01*
X130901383Y-135803497D01*
X130804857Y-135796863D01*
X130727169Y-135787951D01*
X130715183Y-135786021D01*
X130522108Y-135743501D01*
X130351227Y-135685567D01*
X130201776Y-135611867D01*
X130072989Y-135522049D01*
X130003361Y-135458293D01*
X129908827Y-135343714D01*
X129838754Y-135218058D01*
X129793523Y-135083443D01*
X129773516Y-134941989D01*
X129779115Y-134795817D01*
X129810700Y-134647045D01*
X129841606Y-134559089D01*
X129903494Y-134437371D01*
X129992271Y-134311920D01*
X130052306Y-134241647D01*
X130087053Y-134202189D01*
X130112546Y-134171188D01*
X130124830Y-134153542D01*
X130125205Y-134151352D01*
X130112653Y-134143476D01*
X130079484Y-134123068D01*
X130028542Y-134091868D01*
X129962669Y-134051614D01*
X129884711Y-134004043D01*
X129797510Y-133950896D01*
X129748933Y-133921313D01*
X129377785Y-133695352D01*
X129238361Y-133977473D01*
X129188281Y-134079478D01*
X129148790Y-134162111D01*
X129117927Y-134230422D01*
X129093732Y-134289463D01*
X129074242Y-134344286D01*
X129057497Y-134399940D01*
X129041535Y-134461477D01*
X129027518Y-134520460D01*
X129016671Y-134572885D01*
X129008474Y-134627712D01*
X129002472Y-134690428D01*
X128998210Y-134766523D01*
X128995233Y-134861484D01*
X128993948Y-134925487D01*
X128993070Y-135016808D01*
X128993513Y-135104373D01*
X128995148Y-135182388D01*
X128997851Y-135245058D01*
X129001495Y-135286587D01*
X129001858Y-135289048D01*
X129048513Y-135504697D01*
X129119271Y-135707207D01*
X129214086Y-135896505D01*
X129332911Y-136072521D01*
X129475700Y-136235184D01*
X129642406Y-136384422D01*
X129790567Y-136492504D01*
X129984498Y-136607566D01*
X130189301Y-136700577D01*
X130406617Y-136771987D01*
X130638088Y-136822244D01*
X130885357Y-136851799D01*
X131136441Y-136861111D01*
X131379330Y-136853452D01*
X131603430Y-136829387D01*
X131812523Y-136788148D01*
X132010387Y-136728973D01*
X132200804Y-136651096D01*
X132220532Y-136641797D01*
X132404941Y-136539352D01*
X132580424Y-136413528D01*
X132743350Y-136267888D01*
X132890086Y-136105999D01*
X133016999Y-135931424D01*
X133110095Y-135768756D01*
X133183009Y-135604427D01*
X133235826Y-135439749D01*
X133269985Y-135268348D01*
X133286922Y-135083847D01*
X133289420Y-134973541D01*
X133284501Y-134815038D01*
G36*
X133971311Y-141210743D02*
G01*
X133971275Y-140946220D01*
X133971270Y-140823088D01*
X133971270Y-138852189D01*
X133855090Y-138852189D01*
X133713709Y-138839789D01*
X133583316Y-138802364D01*
X133463138Y-138739577D01*
X133352398Y-138651094D01*
X133322489Y-138621157D01*
X133237652Y-138513466D01*
X133175779Y-138394725D01*
X133136841Y-138268460D01*
X133120810Y-138138197D01*
X133127658Y-138007465D01*
X133157357Y-137879788D01*
X133209880Y-137758695D01*
X133285197Y-137647712D01*
X133330637Y-137597868D01*
X133442048Y-137504983D01*
X133564565Y-137436873D01*
X133696785Y-137394129D01*
X133837308Y-137377347D01*
X133851133Y-137377124D01*
X133971266Y-137376244D01*
X133971268Y-137323443D01*
X133964911Y-137276604D01*
X133949444Y-137233817D01*
X133947846Y-137230989D01*
X133942832Y-137221325D01*
X133938927Y-137212451D01*
X133934993Y-137204335D01*
X133929894Y-137196943D01*
X133922492Y-137190245D01*
X133911649Y-137184208D01*
X133896228Y-137178801D01*
X133875091Y-137173990D01*
X133847101Y-137169745D01*
X133811121Y-137166032D01*
X133766013Y-137162821D01*
X133710640Y-137160078D01*
X133643863Y-137157772D01*
X133564547Y-137155871D01*
X133471553Y-137154342D01*
X133363743Y-137153154D01*
X133239981Y-137152274D01*
X133099129Y-137151670D01*
X132940050Y-137151311D01*
X132761605Y-137151165D01*
X132562658Y-137151198D01*
X132342071Y-137151380D01*
X132098707Y-137151677D01*
X131831428Y-137152059D01*
X131539097Y-137152492D01*
X131220576Y-137152945D01*
X131181770Y-137152998D01*
X130861218Y-137153404D01*
X130566988Y-137153749D01*
X130297944Y-137154069D01*
X130052948Y-137154400D01*
X129830863Y-137154779D01*
X129630553Y-137155243D01*
X129450881Y-137155828D01*
X129290710Y-137156570D01*
X129148902Y-137157506D01*
X129024321Y-137158673D01*
X128915830Y-137160107D01*
X128822293Y-137161844D01*
X128742571Y-137163922D01*
X128675528Y-137166376D01*
X128620027Y-137169244D01*
X128574932Y-137172561D01*
X128539105Y-137176364D01*
X128511409Y-137180690D01*
X128490707Y-137185575D01*
X128475863Y-137191055D01*
X128465740Y-137197168D01*
X128459200Y-137203950D01*
X128455107Y-137211437D01*
X128452324Y-137219666D01*
X128449713Y-137228673D01*
X128446138Y-137238495D01*
X128445050Y-137240894D01*
X128442604Y-137248435D01*
X128440358Y-137261056D01*
X128438302Y-137279859D01*
X128436428Y-137305947D01*
X128434729Y-137340422D01*
X128433197Y-137384385D01*
X128431823Y-137438939D01*
X128430600Y-137505185D01*
X128429519Y-137584226D01*
X128428573Y-137677163D01*
X128427753Y-137785099D01*
X128427053Y-137909136D01*
X128426462Y-138050376D01*
X128425975Y-138209921D01*
X128425581Y-138388872D01*
X128425275Y-138588332D01*
X128425047Y-138809404D01*
X128424890Y-139053188D01*
X128424795Y-139320787D01*
X128424755Y-139613303D01*
X128424762Y-139931839D01*
X128424772Y-140035021D01*
X128424824Y-140360623D01*
X128424909Y-140659881D01*
X128425037Y-140933909D01*
X128425215Y-141183824D01*
X128425452Y-141410740D01*
X128425758Y-141615773D01*
X128426140Y-141800038D01*
X128426608Y-141964650D01*
X128427170Y-142110725D01*
X128427835Y-142239376D01*
X128428612Y-142351721D01*
X128429509Y-142448874D01*
X128430535Y-142531950D01*
X128431699Y-142602064D01*
X128433009Y-142660332D01*
X128434475Y-142707869D01*
X128436104Y-142745790D01*
X128437907Y-142775210D01*
X128439890Y-142797245D01*
X128442064Y-142813010D01*
X128444437Y-142823620D01*
X128446609Y-142829404D01*
X128450944Y-142839684D01*
X128454141Y-142849122D01*
X128457335Y-142857755D01*
X128461662Y-142865619D01*
X128468256Y-142872748D01*
X128478253Y-142879179D01*
X128492788Y-142884947D01*
X128512997Y-142890089D01*
X128540015Y-142894640D01*
X128574977Y-142898635D01*
X128619019Y-142902111D01*
X128673276Y-142905102D01*
X128738883Y-142907646D01*
X128816976Y-142909777D01*
X128908690Y-142911532D01*
X129015160Y-142912945D01*
X129056027Y-142913315D01*
X129056027Y-142546884D01*
X129056027Y-141251734D01*
X129093783Y-141276655D01*
X129132583Y-141301447D01*
X129169531Y-141322440D01*
X129207212Y-141339935D01*
X129248212Y-141354230D01*
X129295117Y-141365623D01*
X129350513Y-141374413D01*
X129416984Y-141380898D01*
X129497117Y-141385377D01*
X129593498Y-141388150D01*
X129708711Y-141389513D01*
X129845343Y-141389767D01*
X130005980Y-141389209D01*
X130065618Y-141388893D01*
X130704959Y-141385325D01*
X130153551Y-140980298D01*
X129997124Y-140865554D01*
X129860912Y-140766143D01*
X129743110Y-140680990D01*
X129641916Y-140609022D01*
X129555523Y-140549166D01*
X129482126Y-140500348D01*
X129419923Y-140461495D01*
X129367107Y-140431534D01*
X129321875Y-140409391D01*
X129282422Y-140393993D01*
X129246942Y-140384266D01*
X129213632Y-140379137D01*
X129180687Y-140377532D01*
X129146303Y-140378379D01*
X129141981Y-140378595D01*
X129055969Y-140383054D01*
X129056027Y-138963692D01*
X129162478Y-139069265D01*
X129191594Y-139097913D01*
X129219924Y-139125090D01*
X129249032Y-139151989D01*
X129280480Y-139179803D01*
X129315831Y-139209725D01*
X129356646Y-139242946D01*
X129404489Y-139280661D01*
X129460921Y-139324060D01*
X129527506Y-139374338D01*
X129605805Y-139432688D01*
X129697381Y-139500300D01*
X129803796Y-139578369D01*
X129926613Y-139668088D01*
X130067395Y-139770648D01*
X130227703Y-139887242D01*
X130359202Y-139982809D01*
X130524404Y-140102749D01*
X130668848Y-140207380D01*
X130793906Y-140297648D01*
X130900948Y-140374503D01*
X130991346Y-140438891D01*
X131066471Y-140491761D01*
X131127696Y-140534060D01*
X131176390Y-140566736D01*
X131213926Y-140590738D01*
X131241675Y-140607013D01*
X131261008Y-140616508D01*
X131273297Y-140620173D01*
X131279758Y-140619071D01*
X131296952Y-140605724D01*
X131333345Y-140576866D01*
X131386776Y-140534240D01*
X131455081Y-140479585D01*
X131536097Y-140414644D01*
X131627660Y-140341158D01*
X131727608Y-140260868D01*
X131833776Y-140175515D01*
X131944003Y-140086840D01*
X132056124Y-139996586D01*
X132117756Y-139946944D01*
X132117756Y-138714373D01*
X132025081Y-138663146D01*
X131932405Y-138611919D01*
X129241378Y-138611919D01*
X129148702Y-138663146D01*
X129056027Y-138714373D01*
X129056027Y-138108396D01*
X129056069Y-137963734D01*
X129056259Y-137844244D01*
X129056692Y-137747642D01*
X129057464Y-137671642D01*
X129058670Y-137613957D01*
X129060406Y-137572301D01*
X129062768Y-137544389D01*
X129065850Y-137527935D01*
X129069749Y-137520652D01*
X129074560Y-137520255D01*
X129080378Y-137524458D01*
X129080426Y-137524501D01*
X129105468Y-137541813D01*
X129146185Y-137564736D01*
X129186832Y-137584981D01*
X129268838Y-137623379D01*
X132117756Y-137631211D01*
X132117756Y-138714373D01*
X132117756Y-139946944D01*
X132167976Y-139906493D01*
X132277396Y-139818302D01*
X132382222Y-139733754D01*
X132480289Y-139654592D01*
X132569434Y-139582556D01*
X132647495Y-139519387D01*
X132712308Y-139466827D01*
X132761710Y-139426617D01*
X132790513Y-139403000D01*
X132898222Y-139311290D01*
X132995420Y-139223060D01*
X133078924Y-139141403D01*
X133145552Y-139069410D01*
X133186401Y-139018319D01*
X133229865Y-138957907D01*
X133229865Y-140347298D01*
X133148334Y-140346908D01*
X133088394Y-140350791D01*
X133032823Y-140365390D01*
X132980145Y-140387988D01*
X132950385Y-140402678D01*
X132920897Y-140418472D01*
X132889724Y-140436814D01*
X132854907Y-140459145D01*
X132814490Y-140486909D01*
X132766514Y-140521549D01*
X132709022Y-140564507D01*
X132640057Y-140617227D01*
X132557661Y-140681151D01*
X132459876Y-140757721D01*
X132344745Y-140848381D01*
X132210310Y-140954574D01*
X132195141Y-140966568D01*
X131665588Y-141385325D01*
X132252078Y-141389378D01*
X132427749Y-141390195D01*
X132576468Y-141390021D01*
X132698725Y-141388849D01*
X132795011Y-141386669D01*
X132865817Y-141383474D01*
X132911631Y-141379256D01*
X132920321Y-141377838D01*
X133011865Y-141355591D01*
X133094392Y-141326443D01*
X133160747Y-141293182D01*
X133188890Y-141273200D01*
X133229865Y-141238722D01*
X133229865Y-141892914D01*
X133229731Y-142048969D01*
X133229297Y-142179467D01*
X133228511Y-142286310D01*
X133227324Y-142371398D01*
X133225683Y-142436635D01*
X133223539Y-142483921D01*
X133220841Y-142515157D01*
X133217538Y-142532246D01*
X133213579Y-142537088D01*
X133212702Y-142536753D01*
X133191769Y-142522885D01*
X133158588Y-142499732D01*
X133141807Y-142487754D01*
X133125060Y-142475369D01*
X133110085Y-142464237D01*
X133095406Y-142454288D01*
X133079551Y-142445451D01*
X133061045Y-142437657D01*
X133038415Y-142430835D01*
X133010187Y-142424916D01*
X132974887Y-142419829D01*
X132931042Y-142415504D01*
X132877178Y-142411871D01*
X132811820Y-142408860D01*
X132733496Y-142406401D01*
X132640732Y-142404423D01*
X132532053Y-142402858D01*
X132405987Y-142401634D01*
X132261058Y-142400681D01*
X132095794Y-142399930D01*
X131908721Y-142399311D01*
X131698365Y-142398752D01*
X131463252Y-142398185D01*
X131247259Y-142397655D01*
X131006465Y-142397155D01*
X130776726Y-142396895D01*
X130559507Y-142396868D01*
X130356278Y-142397067D01*
X130168504Y-142397486D01*
X129997655Y-142398118D01*
X129845197Y-142398956D01*
X129712597Y-142399992D01*
X129601324Y-142401220D01*
X129512844Y-142402633D01*
X129448625Y-142404225D01*
X129410135Y-142405987D01*
X129406067Y-142406321D01*
X129312752Y-142418466D01*
X129237810Y-142437427D01*
X129172406Y-142466302D01*
X129107707Y-142508190D01*
X129100648Y-142513429D01*
X129056027Y-142546884D01*
X129056027Y-142913315D01*
X129137521Y-142914054D01*
X129276910Y-142914893D01*
X129434461Y-142915498D01*
X129611309Y-142915905D01*
X129808590Y-142916150D01*
X130027440Y-142916267D01*
X130268993Y-142916295D01*
X130534385Y-142916267D01*
X130824751Y-142916220D01*
X131141227Y-142916190D01*
X131204054Y-142916189D01*
X131523863Y-142916172D01*
X131817339Y-142916112D01*
X132085610Y-142916002D01*
X132329802Y-142915833D01*
X132551043Y-142915597D01*
X132750460Y-142915284D01*
X132929180Y-142914885D01*
X133088329Y-142914393D01*
X133229034Y-142913797D01*
X133352424Y-142913090D01*
X133459624Y-142912263D01*
X133551762Y-142911307D01*
X133629965Y-142910213D01*
X133695359Y-142908973D01*
X133749072Y-142907578D01*
X133792231Y-142906018D01*
X133825963Y-142904286D01*
X133851395Y-142902372D01*
X133869653Y-142900268D01*
X133881866Y-142897966D01*
X133889159Y-142895455D01*
X133889341Y-142895363D01*
X133900482Y-142890192D01*
X133910569Y-142885885D01*
X133919654Y-142881121D01*
X133927788Y-142874578D01*
X133935024Y-142864935D01*
X133941414Y-142850871D01*
X133947011Y-142831063D01*
X133951867Y-142804191D01*
X133956034Y-142768933D01*
X133959564Y-142723968D01*
X133962509Y-142667974D01*
X133964923Y-142599629D01*
X133966856Y-142517614D01*
X133968362Y-142420605D01*
X133969492Y-142307282D01*
X133970298Y-142176323D01*
X133970834Y-142026407D01*
X133971151Y-141856213D01*
X133971301Y-141664418D01*
X133971337Y-141449702D01*
X133971311Y-141210743D01*
G37*
X133971311Y-141210743D02*
X133971275Y-140946220D01*
X133971270Y-140823088D01*
X133971270Y-138852189D01*
X133855090Y-138852189D01*
X133713709Y-138839789D01*
X133583316Y-138802364D01*
X133463138Y-138739577D01*
X133352398Y-138651094D01*
X133322489Y-138621157D01*
X133237652Y-138513466D01*
X133175779Y-138394725D01*
X133136841Y-138268460D01*
X133120810Y-138138197D01*
X133127658Y-138007465D01*
X133157357Y-137879788D01*
X133209880Y-137758695D01*
X133285197Y-137647712D01*
X133330637Y-137597868D01*
X133442048Y-137504983D01*
X133564565Y-137436873D01*
X133696785Y-137394129D01*
X133837308Y-137377347D01*
X133851133Y-137377124D01*
X133971266Y-137376244D01*
X133971268Y-137323443D01*
X133964911Y-137276604D01*
X133949444Y-137233817D01*
X133947846Y-137230989D01*
X133942832Y-137221325D01*
X133938927Y-137212451D01*
X133934993Y-137204335D01*
X133929894Y-137196943D01*
X133922492Y-137190245D01*
X133911649Y-137184208D01*
X133896228Y-137178801D01*
X133875091Y-137173990D01*
X133847101Y-137169745D01*
X133811121Y-137166032D01*
X133766013Y-137162821D01*
X133710640Y-137160078D01*
X133643863Y-137157772D01*
X133564547Y-137155871D01*
X133471553Y-137154342D01*
X133363743Y-137153154D01*
X133239981Y-137152274D01*
X133099129Y-137151670D01*
X132940050Y-137151311D01*
X132761605Y-137151165D01*
X132562658Y-137151198D01*
X132342071Y-137151380D01*
X132098707Y-137151677D01*
X131831428Y-137152059D01*
X131539097Y-137152492D01*
X131220576Y-137152945D01*
X131181770Y-137152998D01*
X130861218Y-137153404D01*
X130566988Y-137153749D01*
X130297944Y-137154069D01*
X130052948Y-137154400D01*
X129830863Y-137154779D01*
X129630553Y-137155243D01*
X129450881Y-137155828D01*
X129290710Y-137156570D01*
X129148902Y-137157506D01*
X129024321Y-137158673D01*
X128915830Y-137160107D01*
X128822293Y-137161844D01*
X128742571Y-137163922D01*
X128675528Y-137166376D01*
X128620027Y-137169244D01*
X128574932Y-137172561D01*
X128539105Y-137176364D01*
X128511409Y-137180690D01*
X128490707Y-137185575D01*
X128475863Y-137191055D01*
X128465740Y-137197168D01*
X128459200Y-137203950D01*
X128455107Y-137211437D01*
X128452324Y-137219666D01*
X128449713Y-137228673D01*
X128446138Y-137238495D01*
X128445050Y-137240894D01*
X128442604Y-137248435D01*
X128440358Y-137261056D01*
X128438302Y-137279859D01*
X128436428Y-137305947D01*
X128434729Y-137340422D01*
X128433197Y-137384385D01*
X128431823Y-137438939D01*
X128430600Y-137505185D01*
X128429519Y-137584226D01*
X128428573Y-137677163D01*
X128427753Y-137785099D01*
X128427053Y-137909136D01*
X128426462Y-138050376D01*
X128425975Y-138209921D01*
X128425581Y-138388872D01*
X128425275Y-138588332D01*
X128425047Y-138809404D01*
X128424890Y-139053188D01*
X128424795Y-139320787D01*
X128424755Y-139613303D01*
X128424762Y-139931839D01*
X128424772Y-140035021D01*
X128424824Y-140360623D01*
X128424909Y-140659881D01*
X128425037Y-140933909D01*
X128425215Y-141183824D01*
X128425452Y-141410740D01*
X128425758Y-141615773D01*
X128426140Y-141800038D01*
X128426608Y-141964650D01*
X128427170Y-142110725D01*
X128427835Y-142239376D01*
X128428612Y-142351721D01*
X128429509Y-142448874D01*
X128430535Y-142531950D01*
X128431699Y-142602064D01*
X128433009Y-142660332D01*
X128434475Y-142707869D01*
X128436104Y-142745790D01*
X128437907Y-142775210D01*
X128439890Y-142797245D01*
X128442064Y-142813010D01*
X128444437Y-142823620D01*
X128446609Y-142829404D01*
X128450944Y-142839684D01*
X128454141Y-142849122D01*
X128457335Y-142857755D01*
X128461662Y-142865619D01*
X128468256Y-142872748D01*
X128478253Y-142879179D01*
X128492788Y-142884947D01*
X128512997Y-142890089D01*
X128540015Y-142894640D01*
X128574977Y-142898635D01*
X128619019Y-142902111D01*
X128673276Y-142905102D01*
X128738883Y-142907646D01*
X128816976Y-142909777D01*
X128908690Y-142911532D01*
X129015160Y-142912945D01*
X129056027Y-142913315D01*
X129056027Y-142546884D01*
X129056027Y-141251734D01*
X129093783Y-141276655D01*
X129132583Y-141301447D01*
X129169531Y-141322440D01*
X129207212Y-141339935D01*
X129248212Y-141354230D01*
X129295117Y-141365623D01*
X129350513Y-141374413D01*
X129416984Y-141380898D01*
X129497117Y-141385377D01*
X129593498Y-141388150D01*
X129708711Y-141389513D01*
X129845343Y-141389767D01*
X130005980Y-141389209D01*
X130065618Y-141388893D01*
X130704959Y-141385325D01*
X130153551Y-140980298D01*
X129997124Y-140865554D01*
X129860912Y-140766143D01*
X129743110Y-140680990D01*
X129641916Y-140609022D01*
X129555523Y-140549166D01*
X129482126Y-140500348D01*
X129419923Y-140461495D01*
X129367107Y-140431534D01*
X129321875Y-140409391D01*
X129282422Y-140393993D01*
X129246942Y-140384266D01*
X129213632Y-140379137D01*
X129180687Y-140377532D01*
X129146303Y-140378379D01*
X129141981Y-140378595D01*
X129055969Y-140383054D01*
X129056027Y-138963692D01*
X129162478Y-139069265D01*
X129191594Y-139097913D01*
X129219924Y-139125090D01*
X129249032Y-139151989D01*
X129280480Y-139179803D01*
X129315831Y-139209725D01*
X129356646Y-139242946D01*
X129404489Y-139280661D01*
X129460921Y-139324060D01*
X129527506Y-139374338D01*
X129605805Y-139432688D01*
X129697381Y-139500300D01*
X129803796Y-139578369D01*
X129926613Y-139668088D01*
X130067395Y-139770648D01*
X130227703Y-139887242D01*
X130359202Y-139982809D01*
X130524404Y-140102749D01*
X130668848Y-140207380D01*
X130793906Y-140297648D01*
X130900948Y-140374503D01*
X130991346Y-140438891D01*
X131066471Y-140491761D01*
X131127696Y-140534060D01*
X131176390Y-140566736D01*
X131213926Y-140590738D01*
X131241675Y-140607013D01*
X131261008Y-140616508D01*
X131273297Y-140620173D01*
X131279758Y-140619071D01*
X131296952Y-140605724D01*
X131333345Y-140576866D01*
X131386776Y-140534240D01*
X131455081Y-140479585D01*
X131536097Y-140414644D01*
X131627660Y-140341158D01*
X131727608Y-140260868D01*
X131833776Y-140175515D01*
X131944003Y-140086840D01*
X132056124Y-139996586D01*
X132117756Y-139946944D01*
X132117756Y-138714373D01*
X132025081Y-138663146D01*
X131932405Y-138611919D01*
X129241378Y-138611919D01*
X129148702Y-138663146D01*
X129056027Y-138714373D01*
X129056027Y-138108396D01*
X129056069Y-137963734D01*
X129056259Y-137844244D01*
X129056692Y-137747642D01*
X129057464Y-137671642D01*
X129058670Y-137613957D01*
X129060406Y-137572301D01*
X129062768Y-137544389D01*
X129065850Y-137527935D01*
X129069749Y-137520652D01*
X129074560Y-137520255D01*
X129080378Y-137524458D01*
X129080426Y-137524501D01*
X129105468Y-137541813D01*
X129146185Y-137564736D01*
X129186832Y-137584981D01*
X129268838Y-137623379D01*
X132117756Y-137631211D01*
X132117756Y-138714373D01*
X132117756Y-139946944D01*
X132167976Y-139906493D01*
X132277396Y-139818302D01*
X132382222Y-139733754D01*
X132480289Y-139654592D01*
X132569434Y-139582556D01*
X132647495Y-139519387D01*
X132712308Y-139466827D01*
X132761710Y-139426617D01*
X132790513Y-139403000D01*
X132898222Y-139311290D01*
X132995420Y-139223060D01*
X133078924Y-139141403D01*
X133145552Y-139069410D01*
X133186401Y-139018319D01*
X133229865Y-138957907D01*
X133229865Y-140347298D01*
X133148334Y-140346908D01*
X133088394Y-140350791D01*
X133032823Y-140365390D01*
X132980145Y-140387988D01*
X132950385Y-140402678D01*
X132920897Y-140418472D01*
X132889724Y-140436814D01*
X132854907Y-140459145D01*
X132814490Y-140486909D01*
X132766514Y-140521549D01*
X132709022Y-140564507D01*
X132640057Y-140617227D01*
X132557661Y-140681151D01*
X132459876Y-140757721D01*
X132344745Y-140848381D01*
X132210310Y-140954574D01*
X132195141Y-140966568D01*
X131665588Y-141385325D01*
X132252078Y-141389378D01*
X132427749Y-141390195D01*
X132576468Y-141390021D01*
X132698725Y-141388849D01*
X132795011Y-141386669D01*
X132865817Y-141383474D01*
X132911631Y-141379256D01*
X132920321Y-141377838D01*
X133011865Y-141355591D01*
X133094392Y-141326443D01*
X133160747Y-141293182D01*
X133188890Y-141273200D01*
X133229865Y-141238722D01*
X133229865Y-141892914D01*
X133229731Y-142048969D01*
X133229297Y-142179467D01*
X133228511Y-142286310D01*
X133227324Y-142371398D01*
X133225683Y-142436635D01*
X133223539Y-142483921D01*
X133220841Y-142515157D01*
X133217538Y-142532246D01*
X133213579Y-142537088D01*
X133212702Y-142536753D01*
X133191769Y-142522885D01*
X133158588Y-142499732D01*
X133141807Y-142487754D01*
X133125060Y-142475369D01*
X133110085Y-142464237D01*
X133095406Y-142454288D01*
X133079551Y-142445451D01*
X133061045Y-142437657D01*
X133038415Y-142430835D01*
X133010187Y-142424916D01*
X132974887Y-142419829D01*
X132931042Y-142415504D01*
X132877178Y-142411871D01*
X132811820Y-142408860D01*
X132733496Y-142406401D01*
X132640732Y-142404423D01*
X132532053Y-142402858D01*
X132405987Y-142401634D01*
X132261058Y-142400681D01*
X132095794Y-142399930D01*
X131908721Y-142399311D01*
X131698365Y-142398752D01*
X131463252Y-142398185D01*
X131247259Y-142397655D01*
X131006465Y-142397155D01*
X130776726Y-142396895D01*
X130559507Y-142396868D01*
X130356278Y-142397067D01*
X130168504Y-142397486D01*
X129997655Y-142398118D01*
X129845197Y-142398956D01*
X129712597Y-142399992D01*
X129601324Y-142401220D01*
X129512844Y-142402633D01*
X129448625Y-142404225D01*
X129410135Y-142405987D01*
X129406067Y-142406321D01*
X129312752Y-142418466D01*
X129237810Y-142437427D01*
X129172406Y-142466302D01*
X129107707Y-142508190D01*
X129100648Y-142513429D01*
X129056027Y-142546884D01*
X129056027Y-142913315D01*
X129137521Y-142914054D01*
X129276910Y-142914893D01*
X129434461Y-142915498D01*
X129611309Y-142915905D01*
X129808590Y-142916150D01*
X130027440Y-142916267D01*
X130268993Y-142916295D01*
X130534385Y-142916267D01*
X130824751Y-142916220D01*
X131141227Y-142916190D01*
X131204054Y-142916189D01*
X131523863Y-142916172D01*
X131817339Y-142916112D01*
X132085610Y-142916002D01*
X132329802Y-142915833D01*
X132551043Y-142915597D01*
X132750460Y-142915284D01*
X132929180Y-142914885D01*
X133088329Y-142914393D01*
X133229034Y-142913797D01*
X133352424Y-142913090D01*
X133459624Y-142912263D01*
X133551762Y-142911307D01*
X133629965Y-142910213D01*
X133695359Y-142908973D01*
X133749072Y-142907578D01*
X133792231Y-142906018D01*
X133825963Y-142904286D01*
X133851395Y-142902372D01*
X133869653Y-142900268D01*
X133881866Y-142897966D01*
X133889159Y-142895455D01*
X133889341Y-142895363D01*
X133900482Y-142890192D01*
X133910569Y-142885885D01*
X133919654Y-142881121D01*
X133927788Y-142874578D01*
X133935024Y-142864935D01*
X133941414Y-142850871D01*
X133947011Y-142831063D01*
X133951867Y-142804191D01*
X133956034Y-142768933D01*
X133959564Y-142723968D01*
X133962509Y-142667974D01*
X133964923Y-142599629D01*
X133966856Y-142517614D01*
X133968362Y-142420605D01*
X133969492Y-142307282D01*
X133970298Y-142176323D01*
X133970834Y-142026407D01*
X133971151Y-141856213D01*
X133971301Y-141664418D01*
X133971337Y-141449702D01*
X133971311Y-141210743D01*
D14*
X122555000Y-146050000D02*
X120015000Y-146050000D01*
X145415000Y-107950000D02*
X145415000Y-146050000D01*
X145415000Y-146050000D02*
X142875000Y-146050000D01*
X142875000Y-146050000D02*
X142875000Y-107950000D01*
X142875000Y-107950000D02*
X145415000Y-107950000D01*
X122555000Y-143510000D02*
X120015000Y-143510000D01*
X122555000Y-107950000D02*
X122555000Y-146050000D01*
X120015000Y-107950000D02*
X122555000Y-107950000D01*
X120015000Y-146050000D02*
X120015000Y-107950000D01*
D13*
G36*
X140326069Y-141684186D02*
G01*
X139881445Y-141600365D01*
X139753947Y-141291080D01*
X139626449Y-140981794D01*
X139878754Y-140610754D01*
X139949004Y-140506843D01*
X140011728Y-140412913D01*
X140064062Y-140333348D01*
X140103143Y-140272530D01*
X140126107Y-140234843D01*
X140131058Y-140224579D01*
X140118324Y-140206090D01*
X140083118Y-140166580D01*
X140029938Y-140110478D01*
X139963282Y-140042213D01*
X139887646Y-139966214D01*
X139807528Y-139886908D01*
X139727426Y-139808725D01*
X139651836Y-139736093D01*
X139585255Y-139673441D01*
X139532182Y-139625197D01*
X139497113Y-139595790D01*
X139485377Y-139588759D01*
X139463740Y-139598877D01*
X139416338Y-139627241D01*
X139347807Y-139670871D01*
X139262785Y-139726782D01*
X139165907Y-139791994D01*
X139110650Y-139829781D01*
X139009752Y-139898657D01*
X138918701Y-139959860D01*
X138842030Y-140010422D01*
X138784272Y-140047372D01*
X138749957Y-140067742D01*
X138742746Y-140070803D01*
X138722252Y-140063864D01*
X138674487Y-140044949D01*
X138606168Y-140016913D01*
X138524011Y-139982609D01*
X138434730Y-139944891D01*
X138345042Y-139906613D01*
X138261662Y-139870630D01*
X138191306Y-139839794D01*
X138140690Y-139816961D01*
X138116529Y-139804983D01*
X138115578Y-139804276D01*
X138110964Y-139785469D01*
X138100672Y-139735382D01*
X138085713Y-139659207D01*
X138067099Y-139562135D01*
X138045841Y-139449357D01*
X138033582Y-139383558D01*
X138010638Y-139263050D01*
X137988805Y-139154203D01*
X137969278Y-139062524D01*
X137953252Y-138993519D01*
X137941921Y-138952696D01*
X137938326Y-138944489D01*
X137913994Y-138936452D01*
X137859041Y-138929967D01*
X137779892Y-138925030D01*
X137682974Y-138921636D01*
X137574713Y-138919782D01*
X137461535Y-138919462D01*
X137349865Y-138920673D01*
X137246132Y-138923410D01*
X137156759Y-138927669D01*
X137088174Y-138933445D01*
X137046803Y-138940733D01*
X137038190Y-138945105D01*
X137027867Y-138971236D01*
X137013108Y-139026607D01*
X136995648Y-139103893D01*
X136977220Y-139195770D01*
X136971259Y-139227842D01*
X136942934Y-139382476D01*
X136920124Y-139504625D01*
X136901920Y-139598327D01*
X136887417Y-139667616D01*
X136875708Y-139716529D01*
X136865885Y-139749103D01*
X136857044Y-139769372D01*
X136848276Y-139781374D01*
X136846543Y-139783053D01*
X136818629Y-139799816D01*
X136764305Y-139825386D01*
X136690223Y-139857212D01*
X136603035Y-139892740D01*
X136509392Y-139929417D01*
X136415948Y-139964689D01*
X136329353Y-139996004D01*
X136256260Y-140020807D01*
X136203322Y-140036546D01*
X136177189Y-140040668D01*
X136176274Y-140040324D01*
X136154914Y-140026359D01*
X136107916Y-139994678D01*
X136040173Y-139948609D01*
X135956577Y-139891482D01*
X135862018Y-139826627D01*
X135835146Y-139808157D01*
X135737725Y-139742301D01*
X135648837Y-139684350D01*
X135573588Y-139637462D01*
X135517080Y-139604793D01*
X135484419Y-139589500D01*
X135480407Y-139588759D01*
X135459316Y-139601608D01*
X135417536Y-139637112D01*
X135359555Y-139690707D01*
X135289865Y-139757829D01*
X135212955Y-139833913D01*
X135133317Y-139914396D01*
X135055439Y-139994713D01*
X134983814Y-140070301D01*
X134922930Y-140136595D01*
X134877279Y-140189031D01*
X134851350Y-140223045D01*
X134847117Y-140232455D01*
X134857088Y-140254357D01*
X134883980Y-140299200D01*
X134923264Y-140359679D01*
X134954883Y-140406211D01*
X135012902Y-140490525D01*
X135081216Y-140590374D01*
X135149421Y-140690527D01*
X135185925Y-140744373D01*
X135309200Y-140926629D01*
X135226480Y-141079619D01*
X135190241Y-141149318D01*
X135162074Y-141208586D01*
X135146009Y-141248689D01*
X135143774Y-141258897D01*
X135160278Y-141271171D01*
X135206918Y-141295387D01*
X135279391Y-141329737D01*
X135373394Y-141372412D01*
X135484626Y-141421606D01*
X135608785Y-141475510D01*
X135741568Y-141532316D01*
X135878673Y-141590218D01*
X136015798Y-141647407D01*
X136148642Y-141702076D01*
X136272902Y-141752416D01*
X136384275Y-141796620D01*
X136478461Y-141832881D01*
X136551156Y-141859391D01*
X136598059Y-141874342D01*
X136614167Y-141876746D01*
X136634714Y-141857689D01*
X136668067Y-141815964D01*
X136707298Y-141760294D01*
X136710401Y-141755622D01*
X136825577Y-141611736D01*
X136959947Y-141495717D01*
X137109216Y-141408570D01*
X137269087Y-141351301D01*
X137435263Y-141324914D01*
X137603448Y-141330415D01*
X137769345Y-141368810D01*
X137928658Y-141441105D01*
X137963513Y-141462374D01*
X138104263Y-141573004D01*
X138217286Y-141703698D01*
X138301997Y-141849936D01*
X138357806Y-142007192D01*
X138384126Y-142170943D01*
X138380370Y-142336667D01*
X138345950Y-142499838D01*
X138280277Y-142655935D01*
X138182765Y-142800433D01*
X138143187Y-142845131D01*
X138019297Y-142958888D01*
X137888876Y-143041782D01*
X137742685Y-143098644D01*
X137597912Y-143130313D01*
X137435140Y-143138131D01*
X137271560Y-143112062D01*
X137112702Y-143054755D01*
X136964094Y-142968856D01*
X136831265Y-142857014D01*
X136719744Y-142721877D01*
X136707989Y-142704117D01*
X136669492Y-142647850D01*
X136636137Y-142605077D01*
X136614840Y-142584628D01*
X136614167Y-142584331D01*
X136591129Y-142588721D01*
X136538843Y-142606124D01*
X136461610Y-142634732D01*
X136363732Y-142672735D01*
X136249509Y-142718326D01*
X136123242Y-142769697D01*
X135989233Y-142825038D01*
X135851782Y-142882542D01*
X135715192Y-142940399D01*
X135583763Y-142996802D01*
X135461795Y-143049942D01*
X135353591Y-143098010D01*
X135263451Y-143139199D01*
X135195677Y-143171699D01*
X135154570Y-143193703D01*
X135143774Y-143202564D01*
X135152181Y-143229640D01*
X135174728Y-143280303D01*
X135207387Y-143345817D01*
X135226480Y-143381841D01*
X135309200Y-143534832D01*
X135185925Y-143717088D01*
X135122772Y-143810125D01*
X135053273Y-143911985D01*
X134987835Y-144007438D01*
X134954883Y-144055250D01*
X134909727Y-144122495D01*
X134873943Y-144179436D01*
X134852062Y-144218646D01*
X134847437Y-144231381D01*
X134859915Y-144249917D01*
X134894748Y-144290941D01*
X134948322Y-144350475D01*
X135017017Y-144424542D01*
X135097219Y-144509165D01*
X135148714Y-144562685D01*
X135240714Y-144656319D01*
X135323001Y-144737241D01*
X135392055Y-144802177D01*
X135444356Y-144847858D01*
X135476384Y-144871011D01*
X135482884Y-144873232D01*
X135507606Y-144862924D01*
X135557595Y-144834439D01*
X135627788Y-144790937D01*
X135713125Y-144735577D01*
X135808544Y-144671520D01*
X135835146Y-144653303D01*
X135931833Y-144586927D01*
X136018883Y-144527378D01*
X136091405Y-144477984D01*
X136144507Y-144442075D01*
X136173297Y-144422981D01*
X136176274Y-144421136D01*
X136199218Y-144423895D01*
X136249664Y-144438538D01*
X136320959Y-144462513D01*
X136406453Y-144493266D01*
X136499493Y-144528244D01*
X136593426Y-144564893D01*
X136681601Y-144600661D01*
X136757366Y-144632994D01*
X136814069Y-144659338D01*
X136845057Y-144677142D01*
X136846543Y-144678407D01*
X136855399Y-144689294D01*
X136864157Y-144707682D01*
X136873723Y-144737606D01*
X136885004Y-144783103D01*
X136898907Y-144848209D01*
X136916337Y-144936961D01*
X136938202Y-145053393D01*
X136965409Y-145201542D01*
X136971259Y-145233618D01*
X136989626Y-145328686D01*
X137007595Y-145411565D01*
X137023431Y-145474930D01*
X137035400Y-145511458D01*
X137038190Y-145516356D01*
X137062928Y-145524427D01*
X137118210Y-145530987D01*
X137197611Y-145536033D01*
X137294704Y-145539559D01*
X137403062Y-145541561D01*
X137516260Y-145542036D01*
X137627872Y-145540977D01*
X137731471Y-145538382D01*
X137820632Y-145534246D01*
X137888928Y-145528563D01*
X137929934Y-145521331D01*
X137938326Y-145516971D01*
X137946792Y-145492698D01*
X137960565Y-145437426D01*
X137978450Y-145356662D01*
X137999252Y-145255912D01*
X138021777Y-145140683D01*
X138033582Y-145077902D01*
X138055849Y-144958787D01*
X138076021Y-144852565D01*
X138093085Y-144764427D01*
X138106031Y-144699566D01*
X138113845Y-144663174D01*
X138115578Y-144657184D01*
X138135110Y-144647061D01*
X138182157Y-144625662D01*
X138249997Y-144595839D01*
X138331909Y-144560445D01*
X138421172Y-144522332D01*
X138511065Y-144484353D01*
X138594865Y-144449360D01*
X138665853Y-144420206D01*
X138717306Y-144399743D01*
X138742503Y-144390823D01*
X138743604Y-144390657D01*
X138763481Y-144400769D01*
X138809223Y-144429117D01*
X138876283Y-144472723D01*
X138960116Y-144528606D01*
X139056174Y-144593787D01*
X139111350Y-144631679D01*
X139212519Y-144700725D01*
X139304370Y-144762050D01*
X139382256Y-144812663D01*
X139441531Y-144849571D01*
X139477549Y-144869782D01*
X139485623Y-144872701D01*
X139504416Y-144860153D01*
X139544543Y-144825463D01*
X139601507Y-144773063D01*
X139670815Y-144707384D01*
X139747969Y-144632856D01*
X139828475Y-144553913D01*
X139907837Y-144474983D01*
X139981560Y-144400500D01*
X140045148Y-144334894D01*
X140094106Y-144282596D01*
X140123939Y-144248039D01*
X140131058Y-144236478D01*
X140121047Y-144217654D01*
X140092922Y-144172631D01*
X140049546Y-144105787D01*
X139993782Y-144021499D01*
X139928494Y-143924144D01*
X139878754Y-143850707D01*
X139626449Y-143479667D01*
X139881445Y-142861095D01*
X140326069Y-142777275D01*
X140770693Y-142693454D01*
X140770693Y-141768006D01*
X140326069Y-141684186D01*
G37*
X140326069Y-141684186D02*
X139881445Y-141600365D01*
X139753947Y-141291080D01*
X139626449Y-140981794D01*
X139878754Y-140610754D01*
X139949004Y-140506843D01*
X140011728Y-140412913D01*
X140064062Y-140333348D01*
X140103143Y-140272530D01*
X140126107Y-140234843D01*
X140131058Y-140224579D01*
X140118324Y-140206090D01*
X140083118Y-140166580D01*
X140029938Y-140110478D01*
X139963282Y-140042213D01*
X139887646Y-139966214D01*
X139807528Y-139886908D01*
X139727426Y-139808725D01*
X139651836Y-139736093D01*
X139585255Y-139673441D01*
X139532182Y-139625197D01*
X139497113Y-139595790D01*
X139485377Y-139588759D01*
X139463740Y-139598877D01*
X139416338Y-139627241D01*
X139347807Y-139670871D01*
X139262785Y-139726782D01*
X139165907Y-139791994D01*
X139110650Y-139829781D01*
X139009752Y-139898657D01*
X138918701Y-139959860D01*
X138842030Y-140010422D01*
X138784272Y-140047372D01*
X138749957Y-140067742D01*
X138742746Y-140070803D01*
X138722252Y-140063864D01*
X138674487Y-140044949D01*
X138606168Y-140016913D01*
X138524011Y-139982609D01*
X138434730Y-139944891D01*
X138345042Y-139906613D01*
X138261662Y-139870630D01*
X138191306Y-139839794D01*
X138140690Y-139816961D01*
X138116529Y-139804983D01*
X138115578Y-139804276D01*
X138110964Y-139785469D01*
X138100672Y-139735382D01*
X138085713Y-139659207D01*
X138067099Y-139562135D01*
X138045841Y-139449357D01*
X138033582Y-139383558D01*
X138010638Y-139263050D01*
X137988805Y-139154203D01*
X137969278Y-139062524D01*
X137953252Y-138993519D01*
X137941921Y-138952696D01*
X137938326Y-138944489D01*
X137913994Y-138936452D01*
X137859041Y-138929967D01*
X137779892Y-138925030D01*
X137682974Y-138921636D01*
X137574713Y-138919782D01*
X137461535Y-138919462D01*
X137349865Y-138920673D01*
X137246132Y-138923410D01*
X137156759Y-138927669D01*
X137088174Y-138933445D01*
X137046803Y-138940733D01*
X137038190Y-138945105D01*
X137027867Y-138971236D01*
X137013108Y-139026607D01*
X136995648Y-139103893D01*
X136977220Y-139195770D01*
X136971259Y-139227842D01*
X136942934Y-139382476D01*
X136920124Y-139504625D01*
X136901920Y-139598327D01*
X136887417Y-139667616D01*
X136875708Y-139716529D01*
X136865885Y-139749103D01*
X136857044Y-139769372D01*
X136848276Y-139781374D01*
X136846543Y-139783053D01*
X136818629Y-139799816D01*
X136764305Y-139825386D01*
X136690223Y-139857212D01*
X136603035Y-139892740D01*
X136509392Y-139929417D01*
X136415948Y-139964689D01*
X136329353Y-139996004D01*
X136256260Y-140020807D01*
X136203322Y-140036546D01*
X136177189Y-140040668D01*
X136176274Y-140040324D01*
X136154914Y-140026359D01*
X136107916Y-139994678D01*
X136040173Y-139948609D01*
X135956577Y-139891482D01*
X135862018Y-139826627D01*
X135835146Y-139808157D01*
X135737725Y-139742301D01*
X135648837Y-139684350D01*
X135573588Y-139637462D01*
X135517080Y-139604793D01*
X135484419Y-139589500D01*
X135480407Y-139588759D01*
X135459316Y-139601608D01*
X135417536Y-139637112D01*
X135359555Y-139690707D01*
X135289865Y-139757829D01*
X135212955Y-139833913D01*
X135133317Y-139914396D01*
X135055439Y-139994713D01*
X134983814Y-140070301D01*
X134922930Y-140136595D01*
X134877279Y-140189031D01*
X134851350Y-140223045D01*
X134847117Y-140232455D01*
X134857088Y-140254357D01*
X134883980Y-140299200D01*
X134923264Y-140359679D01*
X134954883Y-140406211D01*
X135012902Y-140490525D01*
X135081216Y-140590374D01*
X135149421Y-140690527D01*
X135185925Y-140744373D01*
X135309200Y-140926629D01*
X135226480Y-141079619D01*
X135190241Y-141149318D01*
X135162074Y-141208586D01*
X135146009Y-141248689D01*
X135143774Y-141258897D01*
X135160278Y-141271171D01*
X135206918Y-141295387D01*
X135279391Y-141329737D01*
X135373394Y-141372412D01*
X135484626Y-141421606D01*
X135608785Y-141475510D01*
X135741568Y-141532316D01*
X135878673Y-141590218D01*
X136015798Y-141647407D01*
X136148642Y-141702076D01*
X136272902Y-141752416D01*
X136384275Y-141796620D01*
X136478461Y-141832881D01*
X136551156Y-141859391D01*
X136598059Y-141874342D01*
X136614167Y-141876746D01*
X136634714Y-141857689D01*
X136668067Y-141815964D01*
X136707298Y-141760294D01*
X136710401Y-141755622D01*
X136825577Y-141611736D01*
X136959947Y-141495717D01*
X137109216Y-141408570D01*
X137269087Y-141351301D01*
X137435263Y-141324914D01*
X137603448Y-141330415D01*
X137769345Y-141368810D01*
X137928658Y-141441105D01*
X137963513Y-141462374D01*
X138104263Y-141573004D01*
X138217286Y-141703698D01*
X138301997Y-141849936D01*
X138357806Y-142007192D01*
X138384126Y-142170943D01*
X138380370Y-142336667D01*
X138345950Y-142499838D01*
X138280277Y-142655935D01*
X138182765Y-142800433D01*
X138143187Y-142845131D01*
X138019297Y-142958888D01*
X137888876Y-143041782D01*
X137742685Y-143098644D01*
X137597912Y-143130313D01*
X137435140Y-143138131D01*
X137271560Y-143112062D01*
X137112702Y-143054755D01*
X136964094Y-142968856D01*
X136831265Y-142857014D01*
X136719744Y-142721877D01*
X136707989Y-142704117D01*
X136669492Y-142647850D01*
X136636137Y-142605077D01*
X136614840Y-142584628D01*
X136614167Y-142584331D01*
X136591129Y-142588721D01*
X136538843Y-142606124D01*
X136461610Y-142634732D01*
X136363732Y-142672735D01*
X136249509Y-142718326D01*
X136123242Y-142769697D01*
X135989233Y-142825038D01*
X135851782Y-142882542D01*
X135715192Y-142940399D01*
X135583763Y-142996802D01*
X135461795Y-143049942D01*
X135353591Y-143098010D01*
X135263451Y-143139199D01*
X135195677Y-143171699D01*
X135154570Y-143193703D01*
X135143774Y-143202564D01*
X135152181Y-143229640D01*
X135174728Y-143280303D01*
X135207387Y-143345817D01*
X135226480Y-143381841D01*
X135309200Y-143534832D01*
X135185925Y-143717088D01*
X135122772Y-143810125D01*
X135053273Y-143911985D01*
X134987835Y-144007438D01*
X134954883Y-144055250D01*
X134909727Y-144122495D01*
X134873943Y-144179436D01*
X134852062Y-144218646D01*
X134847437Y-144231381D01*
X134859915Y-144249917D01*
X134894748Y-144290941D01*
X134948322Y-144350475D01*
X135017017Y-144424542D01*
X135097219Y-144509165D01*
X135148714Y-144562685D01*
X135240714Y-144656319D01*
X135323001Y-144737241D01*
X135392055Y-144802177D01*
X135444356Y-144847858D01*
X135476384Y-144871011D01*
X135482884Y-144873232D01*
X135507606Y-144862924D01*
X135557595Y-144834439D01*
X135627788Y-144790937D01*
X135713125Y-144735577D01*
X135808544Y-144671520D01*
X135835146Y-144653303D01*
X135931833Y-144586927D01*
X136018883Y-144527378D01*
X136091405Y-144477984D01*
X136144507Y-144442075D01*
X136173297Y-144422981D01*
X136176274Y-144421136D01*
X136199218Y-144423895D01*
X136249664Y-144438538D01*
X136320959Y-144462513D01*
X136406453Y-144493266D01*
X136499493Y-144528244D01*
X136593426Y-144564893D01*
X136681601Y-144600661D01*
X136757366Y-144632994D01*
X136814069Y-144659338D01*
X136845057Y-144677142D01*
X136846543Y-144678407D01*
X136855399Y-144689294D01*
X136864157Y-144707682D01*
X136873723Y-144737606D01*
X136885004Y-144783103D01*
X136898907Y-144848209D01*
X136916337Y-144936961D01*
X136938202Y-145053393D01*
X136965409Y-145201542D01*
X136971259Y-145233618D01*
X136989626Y-145328686D01*
X137007595Y-145411565D01*
X137023431Y-145474930D01*
X137035400Y-145511458D01*
X137038190Y-145516356D01*
X137062928Y-145524427D01*
X137118210Y-145530987D01*
X137197611Y-145536033D01*
X137294704Y-145539559D01*
X137403062Y-145541561D01*
X137516260Y-145542036D01*
X137627872Y-145540977D01*
X137731471Y-145538382D01*
X137820632Y-145534246D01*
X137888928Y-145528563D01*
X137929934Y-145521331D01*
X137938326Y-145516971D01*
X137946792Y-145492698D01*
X137960565Y-145437426D01*
X137978450Y-145356662D01*
X137999252Y-145255912D01*
X138021777Y-145140683D01*
X138033582Y-145077902D01*
X138055849Y-144958787D01*
X138076021Y-144852565D01*
X138093085Y-144764427D01*
X138106031Y-144699566D01*
X138113845Y-144663174D01*
X138115578Y-144657184D01*
X138135110Y-144647061D01*
X138182157Y-144625662D01*
X138249997Y-144595839D01*
X138331909Y-144560445D01*
X138421172Y-144522332D01*
X138511065Y-144484353D01*
X138594865Y-144449360D01*
X138665853Y-144420206D01*
X138717306Y-144399743D01*
X138742503Y-144390823D01*
X138743604Y-144390657D01*
X138763481Y-144400769D01*
X138809223Y-144429117D01*
X138876283Y-144472723D01*
X138960116Y-144528606D01*
X139056174Y-144593787D01*
X139111350Y-144631679D01*
X139212519Y-144700725D01*
X139304370Y-144762050D01*
X139382256Y-144812663D01*
X139441531Y-144849571D01*
X139477549Y-144869782D01*
X139485623Y-144872701D01*
X139504416Y-144860153D01*
X139544543Y-144825463D01*
X139601507Y-144773063D01*
X139670815Y-144707384D01*
X139747969Y-144632856D01*
X139828475Y-144553913D01*
X139907837Y-144474983D01*
X139981560Y-144400500D01*
X140045148Y-144334894D01*
X140094106Y-144282596D01*
X140123939Y-144248039D01*
X140131058Y-144236478D01*
X140121047Y-144217654D01*
X140092922Y-144172631D01*
X140049546Y-144105787D01*
X139993782Y-144021499D01*
X139928494Y-143924144D01*
X139878754Y-143850707D01*
X139626449Y-143479667D01*
X139881445Y-142861095D01*
X140326069Y-142777275D01*
X140770693Y-142693454D01*
X140770693Y-141768006D01*
X140326069Y-141684186D01*
M02*
