G04 #@! TF.GenerationSoftware,KiCad,Pcbnew,5.1.5-52549c5~86~ubuntu18.04.1*
G04 #@! TF.CreationDate,2020-03-29T17:49:25+00:00*
G04 #@! TF.ProjectId,PIS,5049532e-6b69-4636-9164-5f7063625858,rev?*
G04 #@! TF.SameCoordinates,Original*
G04 #@! TF.FileFunction,Copper,L1,Top*
G04 #@! TF.FilePolarity,Positive*
%FSLAX46Y46*%
G04 Gerber Fmt 4.6, Leading zero omitted, Abs format (unit mm)*
G04 Created by KiCad (PCBNEW 5.1.5-52549c5~86~ubuntu18.04.1) date 2020-03-29 17:49:25*
%MOMM*%
%LPD*%
G04 APERTURE LIST*
%ADD10R,1.500000X1.000000*%
%ADD11C,2.100000*%
%ADD12R,2.100000X2.100000*%
%ADD13C,1.400000*%
%ADD14C,0.100000*%
%ADD15O,1.700000X1.700000*%
%ADD16R,1.700000X1.700000*%
%ADD17O,1.000000X1.000000*%
%ADD18R,1.000000X1.000000*%
%ADD19C,1.500000*%
%ADD20O,1.400000X1.400000*%
%ADD21C,1.800000*%
%ADD22R,1.800000X1.800000*%
%ADD23R,1.050000X1.500000*%
%ADD24O,1.050000X1.500000*%
%ADD25O,1.600000X1.600000*%
%ADD26R,1.600000X1.600000*%
%ADD27C,2.000000*%
%ADD28R,2.000000X2.000000*%
%ADD29C,2.032000*%
%ADD30R,2.032000X2.032000*%
%ADD31C,0.500000*%
%ADD32C,0.250000*%
G04 APERTURE END LIST*
D10*
X133985000Y-114950000D03*
X133985000Y-113650000D03*
D11*
X125730000Y-106680000D03*
X128270000Y-106680000D03*
X130810000Y-106680000D03*
D12*
X133350000Y-106680000D03*
D13*
X125730000Y-106680000D03*
X130810000Y-106680000D03*
G04 #@! TA.AperFunction,ComponentPad*
D14*
G36*
X133825226Y-105981200D02*
G01*
X133849417Y-105984788D01*
X133873139Y-105990730D01*
X133896165Y-105998969D01*
X133918272Y-106009425D01*
X133939248Y-106021998D01*
X133958891Y-106036566D01*
X133977011Y-106052989D01*
X133993434Y-106071109D01*
X134008002Y-106090752D01*
X134020575Y-106111728D01*
X134031031Y-106133835D01*
X134039270Y-106156861D01*
X134045212Y-106180583D01*
X134048800Y-106204774D01*
X134050000Y-106229200D01*
X134050000Y-107130800D01*
X134048800Y-107155226D01*
X134045212Y-107179417D01*
X134039270Y-107203139D01*
X134031031Y-107226165D01*
X134020575Y-107248272D01*
X134008002Y-107269248D01*
X133993434Y-107288891D01*
X133977011Y-107307011D01*
X133958891Y-107323434D01*
X133939248Y-107338002D01*
X133918272Y-107350575D01*
X133896165Y-107361031D01*
X133873139Y-107369270D01*
X133849417Y-107375212D01*
X133825226Y-107378800D01*
X133800800Y-107380000D01*
X132899200Y-107380000D01*
X132874774Y-107378800D01*
X132850583Y-107375212D01*
X132826861Y-107369270D01*
X132803835Y-107361031D01*
X132781728Y-107350575D01*
X132760752Y-107338002D01*
X132741109Y-107323434D01*
X132722989Y-107307011D01*
X132706566Y-107288891D01*
X132691998Y-107269248D01*
X132679425Y-107248272D01*
X132668969Y-107226165D01*
X132660730Y-107203139D01*
X132654788Y-107179417D01*
X132651200Y-107155226D01*
X132650000Y-107130800D01*
X132650000Y-106229200D01*
X132651200Y-106204774D01*
X132654788Y-106180583D01*
X132660730Y-106156861D01*
X132668969Y-106133835D01*
X132679425Y-106111728D01*
X132691998Y-106090752D01*
X132706566Y-106071109D01*
X132722989Y-106052989D01*
X132741109Y-106036566D01*
X132760752Y-106021998D01*
X132781728Y-106009425D01*
X132803835Y-105998969D01*
X132826861Y-105990730D01*
X132850583Y-105984788D01*
X132874774Y-105981200D01*
X132899200Y-105980000D01*
X133800800Y-105980000D01*
X133825226Y-105981200D01*
G37*
G04 #@! TD.AperFunction*
D15*
X128905000Y-149225000D03*
X131445000Y-149225000D03*
X133985000Y-149225000D03*
D16*
X136525000Y-149225000D03*
D17*
X128270000Y-125730000D03*
X130810000Y-125730000D03*
X133350000Y-125730000D03*
D18*
X135890000Y-125730000D03*
D19*
X141605000Y-119380000D03*
X141605000Y-121920000D03*
X141605000Y-124460000D03*
X141605000Y-127000000D03*
D20*
X139065000Y-119380000D03*
D13*
X139065000Y-127000000D03*
D21*
X137160000Y-106680000D03*
D22*
X139700000Y-106680000D03*
D23*
X135890000Y-120650000D03*
D24*
X133350000Y-120650000D03*
X134620000Y-120650000D03*
D25*
X123825000Y-119380000D03*
D26*
X123825000Y-111760000D03*
D27*
X127635000Y-111760000D03*
X130175000Y-111760000D03*
D28*
X127635000Y-116840000D03*
D27*
X130175000Y-116840000D03*
X137795000Y-111760000D03*
X137795000Y-116840000D03*
D20*
X141605000Y-137160000D03*
D13*
X141605000Y-129540000D03*
D20*
X141605000Y-144780000D03*
D13*
X141605000Y-137160000D03*
D23*
X130175000Y-120650000D03*
D24*
X127635000Y-120650000D03*
X128905000Y-120650000D03*
D15*
X123825000Y-139700000D03*
X123825000Y-137160000D03*
D16*
X123825000Y-134620000D03*
D29*
X144145000Y-142240000D03*
X144145000Y-137160000D03*
X144145000Y-139700000D03*
X144145000Y-119380000D03*
X144145000Y-121920000D03*
X144145000Y-127000000D03*
X144145000Y-124460000D03*
X144145000Y-109220000D03*
X144145000Y-129540000D03*
X144145000Y-134620000D03*
X144145000Y-132080000D03*
X144145000Y-116840000D03*
X144145000Y-111760000D03*
X144145000Y-114300000D03*
X144145000Y-144780000D03*
X121285000Y-109220000D03*
X121285000Y-111760000D03*
X121285000Y-114300000D03*
X121285000Y-116840000D03*
X121285000Y-119380000D03*
X121285000Y-121920000D03*
X121285000Y-124460000D03*
X121285000Y-127000000D03*
X121285000Y-129540000D03*
X121285000Y-132080000D03*
X121285000Y-134620000D03*
X121285000Y-137160000D03*
X121285000Y-139700000D03*
X121285000Y-142240000D03*
D30*
X121285000Y-144780000D03*
D15*
X130175000Y-146050000D03*
X132715000Y-146050000D03*
D16*
X135255000Y-146050000D03*
D20*
X123825000Y-121920000D03*
D13*
X123825000Y-129540000D03*
D15*
X141605000Y-116840000D03*
X141605000Y-114300000D03*
X141605000Y-111760000D03*
D16*
X141605000Y-109220000D03*
D31*
X129540000Y-129540000D02*
X123825000Y-129540000D01*
X133350000Y-125730000D02*
X129540000Y-129540000D01*
X133985000Y-115950000D02*
X131190000Y-118745000D01*
X133985000Y-114950000D02*
X133985000Y-115950000D01*
X131190000Y-118745000D02*
X129540000Y-118745000D01*
X129540000Y-118745000D02*
X128905000Y-119380000D01*
X128905000Y-119380000D02*
X128905000Y-120650000D01*
X141605000Y-127000000D02*
X144145000Y-127000000D01*
X141605000Y-124460000D02*
X144145000Y-124460000D01*
X141605000Y-121920000D02*
X144145000Y-121920000D01*
X141605000Y-119380000D02*
X144145000Y-119380000D01*
X123825000Y-137160000D02*
X141605000Y-137160000D01*
X141605000Y-137160000D02*
X144145000Y-134620000D01*
X137795000Y-111760000D02*
X136380787Y-111760000D01*
X136380787Y-111760000D02*
X134620000Y-111760000D01*
X134620000Y-111760000D02*
X133985000Y-112395000D01*
X133985000Y-112395000D02*
X133985000Y-113665000D01*
D32*
G36*
X144941779Y-103327839D02*
G01*
X145097399Y-103374824D01*
X145240926Y-103451137D01*
X145366900Y-103553879D01*
X145470519Y-103679133D01*
X145547832Y-103822120D01*
X145595903Y-103977411D01*
X145615001Y-104159124D01*
X145615000Y-150473724D01*
X145597051Y-150656779D01*
X145550066Y-150812399D01*
X145473750Y-150955929D01*
X145371011Y-151081899D01*
X145245757Y-151185519D01*
X145102770Y-151262832D01*
X144947479Y-151310903D01*
X144765775Y-151330000D01*
X120628638Y-151330000D01*
X120625029Y-151330355D01*
X120488221Y-151316941D01*
X120332601Y-151269956D01*
X120189071Y-151193640D01*
X120063101Y-151090901D01*
X119959481Y-150965647D01*
X119882168Y-150822660D01*
X119834097Y-150667369D01*
X119815000Y-150485665D01*
X119815000Y-148835479D01*
X120060000Y-148835479D01*
X120060000Y-149224521D01*
X120135898Y-149606086D01*
X120284778Y-149965513D01*
X120500917Y-150288989D01*
X120776011Y-150564083D01*
X121099487Y-150780222D01*
X121458914Y-150929102D01*
X121840479Y-151005000D01*
X122229521Y-151005000D01*
X122611086Y-150929102D01*
X122970513Y-150780222D01*
X123293989Y-150564083D01*
X123569083Y-150288989D01*
X123785222Y-149965513D01*
X123934102Y-149606086D01*
X124010000Y-149224521D01*
X124010000Y-149104348D01*
X127680000Y-149104348D01*
X127680000Y-149345652D01*
X127727076Y-149582319D01*
X127819419Y-149805255D01*
X127953481Y-150005892D01*
X128124108Y-150176519D01*
X128324745Y-150310581D01*
X128547681Y-150402924D01*
X128784348Y-150450000D01*
X129025652Y-150450000D01*
X129262319Y-150402924D01*
X129485255Y-150310581D01*
X129685892Y-150176519D01*
X129856519Y-150005892D01*
X129990581Y-149805255D01*
X130082924Y-149582319D01*
X130130000Y-149345652D01*
X130130000Y-149104348D01*
X130220000Y-149104348D01*
X130220000Y-149345652D01*
X130267076Y-149582319D01*
X130359419Y-149805255D01*
X130493481Y-150005892D01*
X130664108Y-150176519D01*
X130864745Y-150310581D01*
X131087681Y-150402924D01*
X131324348Y-150450000D01*
X131565652Y-150450000D01*
X131802319Y-150402924D01*
X132025255Y-150310581D01*
X132225892Y-150176519D01*
X132396519Y-150005892D01*
X132530581Y-149805255D01*
X132622924Y-149582319D01*
X132670000Y-149345652D01*
X132670000Y-149104348D01*
X132760000Y-149104348D01*
X132760000Y-149345652D01*
X132807076Y-149582319D01*
X132899419Y-149805255D01*
X133033481Y-150005892D01*
X133204108Y-150176519D01*
X133404745Y-150310581D01*
X133627681Y-150402924D01*
X133864348Y-150450000D01*
X134105652Y-150450000D01*
X134342319Y-150402924D01*
X134565255Y-150310581D01*
X134765892Y-150176519D01*
X134936519Y-150005892D01*
X135048232Y-149838702D01*
X135046976Y-150075000D01*
X135059043Y-150197521D01*
X135094781Y-150315334D01*
X135152817Y-150423911D01*
X135230920Y-150519080D01*
X135326089Y-150597183D01*
X135434666Y-150655219D01*
X135552479Y-150690957D01*
X135675000Y-150703024D01*
X136243750Y-150700000D01*
X136400000Y-150543750D01*
X136400000Y-149350000D01*
X136650000Y-149350000D01*
X136650000Y-150543750D01*
X136806250Y-150700000D01*
X137375000Y-150703024D01*
X137497521Y-150690957D01*
X137615334Y-150655219D01*
X137723911Y-150597183D01*
X137819080Y-150519080D01*
X137897183Y-150423911D01*
X137955219Y-150315334D01*
X137990957Y-150197521D01*
X138003024Y-150075000D01*
X138000000Y-149506250D01*
X137843750Y-149350000D01*
X136650000Y-149350000D01*
X136400000Y-149350000D01*
X136380000Y-149350000D01*
X136380000Y-149100000D01*
X136400000Y-149100000D01*
X136400000Y-147906250D01*
X136650000Y-147906250D01*
X136650000Y-149100000D01*
X137843750Y-149100000D01*
X138000000Y-148943750D01*
X138000575Y-148835479D01*
X141310000Y-148835479D01*
X141310000Y-149224521D01*
X141385898Y-149606086D01*
X141534778Y-149965513D01*
X141750917Y-150288989D01*
X142026011Y-150564083D01*
X142349487Y-150780222D01*
X142708914Y-150929102D01*
X143090479Y-151005000D01*
X143479521Y-151005000D01*
X143861086Y-150929102D01*
X144220513Y-150780222D01*
X144543989Y-150564083D01*
X144819083Y-150288989D01*
X145035222Y-149965513D01*
X145184102Y-149606086D01*
X145260000Y-149224521D01*
X145260000Y-148835479D01*
X145184102Y-148453914D01*
X145035222Y-148094487D01*
X144819083Y-147771011D01*
X144543989Y-147495917D01*
X144220513Y-147279778D01*
X143861086Y-147130898D01*
X143479521Y-147055000D01*
X143090479Y-147055000D01*
X142708914Y-147130898D01*
X142349487Y-147279778D01*
X142026011Y-147495917D01*
X141750917Y-147771011D01*
X141534778Y-148094487D01*
X141385898Y-148453914D01*
X141310000Y-148835479D01*
X138000575Y-148835479D01*
X138003024Y-148375000D01*
X137990957Y-148252479D01*
X137955219Y-148134666D01*
X137897183Y-148026089D01*
X137819080Y-147930920D01*
X137723911Y-147852817D01*
X137615334Y-147794781D01*
X137497521Y-147759043D01*
X137375000Y-147746976D01*
X136806250Y-147750000D01*
X136650000Y-147906250D01*
X136400000Y-147906250D01*
X136243750Y-147750000D01*
X135675000Y-147746976D01*
X135552479Y-147759043D01*
X135434666Y-147794781D01*
X135326089Y-147852817D01*
X135230920Y-147930920D01*
X135152817Y-148026089D01*
X135094781Y-148134666D01*
X135059043Y-148252479D01*
X135046976Y-148375000D01*
X135048232Y-148611298D01*
X134936519Y-148444108D01*
X134765892Y-148273481D01*
X134565255Y-148139419D01*
X134342319Y-148047076D01*
X134105652Y-148000000D01*
X133864348Y-148000000D01*
X133627681Y-148047076D01*
X133404745Y-148139419D01*
X133204108Y-148273481D01*
X133033481Y-148444108D01*
X132899419Y-148644745D01*
X132807076Y-148867681D01*
X132760000Y-149104348D01*
X132670000Y-149104348D01*
X132622924Y-148867681D01*
X132530581Y-148644745D01*
X132396519Y-148444108D01*
X132225892Y-148273481D01*
X132025255Y-148139419D01*
X131802319Y-148047076D01*
X131565652Y-148000000D01*
X131324348Y-148000000D01*
X131087681Y-148047076D01*
X130864745Y-148139419D01*
X130664108Y-148273481D01*
X130493481Y-148444108D01*
X130359419Y-148644745D01*
X130267076Y-148867681D01*
X130220000Y-149104348D01*
X130130000Y-149104348D01*
X130082924Y-148867681D01*
X129990581Y-148644745D01*
X129856519Y-148444108D01*
X129685892Y-148273481D01*
X129485255Y-148139419D01*
X129262319Y-148047076D01*
X129025652Y-148000000D01*
X128784348Y-148000000D01*
X128547681Y-148047076D01*
X128324745Y-148139419D01*
X128124108Y-148273481D01*
X127953481Y-148444108D01*
X127819419Y-148644745D01*
X127727076Y-148867681D01*
X127680000Y-149104348D01*
X124010000Y-149104348D01*
X124010000Y-148835479D01*
X123934102Y-148453914D01*
X123785222Y-148094487D01*
X123569083Y-147771011D01*
X123293989Y-147495917D01*
X122970513Y-147279778D01*
X122611086Y-147130898D01*
X122229521Y-147055000D01*
X121840479Y-147055000D01*
X121458914Y-147130898D01*
X121099487Y-147279778D01*
X120776011Y-147495917D01*
X120500917Y-147771011D01*
X120284778Y-148094487D01*
X120135898Y-148453914D01*
X120060000Y-148835479D01*
X119815000Y-148835479D01*
X119815000Y-143764000D01*
X119892186Y-143764000D01*
X119892186Y-145796000D01*
X119899426Y-145869513D01*
X119920869Y-145940200D01*
X119955691Y-146005347D01*
X120002552Y-146062448D01*
X120059653Y-146109309D01*
X120124800Y-146144131D01*
X120195487Y-146165574D01*
X120269000Y-146172814D01*
X122301000Y-146172814D01*
X122374513Y-146165574D01*
X122445200Y-146144131D01*
X122510347Y-146109309D01*
X122567448Y-146062448D01*
X122614309Y-146005347D01*
X122649131Y-145940200D01*
X122652422Y-145929348D01*
X128950000Y-145929348D01*
X128950000Y-146170652D01*
X128997076Y-146407319D01*
X129089419Y-146630255D01*
X129223481Y-146830892D01*
X129394108Y-147001519D01*
X129594745Y-147135581D01*
X129817681Y-147227924D01*
X130054348Y-147275000D01*
X130295652Y-147275000D01*
X130532319Y-147227924D01*
X130755255Y-147135581D01*
X130955892Y-147001519D01*
X131126519Y-146830892D01*
X131260581Y-146630255D01*
X131315940Y-146496605D01*
X131379406Y-146675962D01*
X131527188Y-146924496D01*
X131720617Y-147139423D01*
X131952260Y-147312485D01*
X132213214Y-147437030D01*
X132361628Y-147482045D01*
X132590000Y-147362812D01*
X132590000Y-146175000D01*
X132570000Y-146175000D01*
X132570000Y-145925000D01*
X132590000Y-145925000D01*
X132590000Y-144737188D01*
X132840000Y-144737188D01*
X132840000Y-145925000D01*
X132860000Y-145925000D01*
X132860000Y-146175000D01*
X132840000Y-146175000D01*
X132840000Y-147362812D01*
X133068372Y-147482045D01*
X133216786Y-147437030D01*
X133477740Y-147312485D01*
X133709383Y-147139423D01*
X133902812Y-146924496D01*
X134028186Y-146713647D01*
X134028186Y-146900000D01*
X134035426Y-146973513D01*
X134056869Y-147044200D01*
X134091691Y-147109347D01*
X134138552Y-147166448D01*
X134195653Y-147213309D01*
X134260800Y-147248131D01*
X134331487Y-147269574D01*
X134405000Y-147276814D01*
X136105000Y-147276814D01*
X136178513Y-147269574D01*
X136249200Y-147248131D01*
X136314347Y-147213309D01*
X136371448Y-147166448D01*
X136418309Y-147109347D01*
X136453131Y-147044200D01*
X136474574Y-146973513D01*
X136481814Y-146900000D01*
X136481814Y-145200000D01*
X136474574Y-145126487D01*
X136469516Y-145109813D01*
X140321699Y-145109813D01*
X140410701Y-145353835D01*
X140545599Y-145575805D01*
X140721209Y-145767193D01*
X140930783Y-145920643D01*
X141166266Y-146030259D01*
X141275188Y-146063296D01*
X141480000Y-145942046D01*
X141480000Y-144905000D01*
X140442154Y-144905000D01*
X140321699Y-145109813D01*
X136469516Y-145109813D01*
X136453131Y-145055800D01*
X136418309Y-144990653D01*
X136371448Y-144933552D01*
X136314347Y-144886691D01*
X136249200Y-144851869D01*
X136178513Y-144830426D01*
X136105000Y-144823186D01*
X134405000Y-144823186D01*
X134331487Y-144830426D01*
X134260800Y-144851869D01*
X134195653Y-144886691D01*
X134138552Y-144933552D01*
X134091691Y-144990653D01*
X134056869Y-145055800D01*
X134035426Y-145126487D01*
X134028186Y-145200000D01*
X134028186Y-145386353D01*
X133902812Y-145175504D01*
X133709383Y-144960577D01*
X133477740Y-144787515D01*
X133216786Y-144662970D01*
X133068372Y-144617955D01*
X132840000Y-144737188D01*
X132590000Y-144737188D01*
X132361628Y-144617955D01*
X132213214Y-144662970D01*
X131952260Y-144787515D01*
X131720617Y-144960577D01*
X131527188Y-145175504D01*
X131379406Y-145424038D01*
X131315940Y-145603395D01*
X131260581Y-145469745D01*
X131126519Y-145269108D01*
X130955892Y-145098481D01*
X130755255Y-144964419D01*
X130532319Y-144872076D01*
X130295652Y-144825000D01*
X130054348Y-144825000D01*
X129817681Y-144872076D01*
X129594745Y-144964419D01*
X129394108Y-145098481D01*
X129223481Y-145269108D01*
X129089419Y-145469745D01*
X128997076Y-145692681D01*
X128950000Y-145929348D01*
X122652422Y-145929348D01*
X122670574Y-145869513D01*
X122677814Y-145796000D01*
X122677814Y-144450187D01*
X140321699Y-144450187D01*
X140442154Y-144655000D01*
X141480000Y-144655000D01*
X141480000Y-143617954D01*
X141275188Y-143496704D01*
X141166266Y-143529741D01*
X140930783Y-143639357D01*
X140721209Y-143792807D01*
X140545599Y-143984195D01*
X140410701Y-144206165D01*
X140321699Y-144450187D01*
X122677814Y-144450187D01*
X122677814Y-143764000D01*
X122670574Y-143690487D01*
X122649131Y-143619800D01*
X122614309Y-143554653D01*
X122567448Y-143497552D01*
X122510347Y-143450691D01*
X122445200Y-143415869D01*
X122374513Y-143394426D01*
X122301000Y-143387186D01*
X122071848Y-143387186D01*
X122171711Y-143320460D01*
X122365460Y-143126711D01*
X122517688Y-142898885D01*
X122622544Y-142645740D01*
X122676000Y-142377001D01*
X122676000Y-142102999D01*
X122622544Y-141834260D01*
X122517688Y-141581115D01*
X122365460Y-141353289D01*
X122171711Y-141159540D01*
X121943885Y-141007312D01*
X121853806Y-140970000D01*
X121943885Y-140932688D01*
X122171711Y-140780460D01*
X122365460Y-140586711D01*
X122514923Y-140363023D01*
X122562515Y-140462740D01*
X122735577Y-140694383D01*
X122950504Y-140887812D01*
X123199038Y-141035594D01*
X123471627Y-141132050D01*
X123700000Y-141013449D01*
X123700000Y-139825000D01*
X123950000Y-139825000D01*
X123950000Y-141013449D01*
X124178373Y-141132050D01*
X124450962Y-141035594D01*
X124699496Y-140887812D01*
X124914423Y-140694383D01*
X125087485Y-140462740D01*
X125212030Y-140201786D01*
X125257045Y-140053372D01*
X125137812Y-139825000D01*
X123950000Y-139825000D01*
X123700000Y-139825000D01*
X123680000Y-139825000D01*
X123680000Y-139575000D01*
X123700000Y-139575000D01*
X123700000Y-139555000D01*
X123950000Y-139555000D01*
X123950000Y-139575000D01*
X125137812Y-139575000D01*
X125257045Y-139346628D01*
X125212030Y-139198214D01*
X125087485Y-138937260D01*
X124914423Y-138705617D01*
X124699496Y-138512188D01*
X124450962Y-138364406D01*
X124271605Y-138300940D01*
X124405255Y-138245581D01*
X124605892Y-138111519D01*
X124776519Y-137940892D01*
X124880683Y-137785000D01*
X140729721Y-137785000D01*
X140769993Y-137845272D01*
X140919728Y-137995007D01*
X141095797Y-138112652D01*
X141291434Y-138193688D01*
X141499122Y-138235000D01*
X141710878Y-138235000D01*
X141918566Y-138193688D01*
X142114203Y-138112652D01*
X142290272Y-137995007D01*
X142440007Y-137845272D01*
X142557652Y-137669203D01*
X142638688Y-137473566D01*
X142680000Y-137265878D01*
X142680000Y-137054122D01*
X142665858Y-136983025D01*
X142785812Y-136863071D01*
X142754000Y-137022999D01*
X142754000Y-137297001D01*
X142807456Y-137565740D01*
X142912312Y-137818885D01*
X143064540Y-138046711D01*
X143258289Y-138240460D01*
X143486115Y-138392688D01*
X143576194Y-138430000D01*
X143486115Y-138467312D01*
X143258289Y-138619540D01*
X143064540Y-138813289D01*
X142912312Y-139041115D01*
X142807456Y-139294260D01*
X142754000Y-139562999D01*
X142754000Y-139837001D01*
X142807456Y-140105740D01*
X142912312Y-140358885D01*
X143064540Y-140586711D01*
X143258289Y-140780460D01*
X143486115Y-140932688D01*
X143576194Y-140970000D01*
X143486115Y-141007312D01*
X143258289Y-141159540D01*
X143064540Y-141353289D01*
X142912312Y-141581115D01*
X142807456Y-141834260D01*
X142754000Y-142102999D01*
X142754000Y-142377001D01*
X142807456Y-142645740D01*
X142912312Y-142898885D01*
X143064540Y-143126711D01*
X143258289Y-143320460D01*
X143486115Y-143472688D01*
X143576194Y-143510000D01*
X143486115Y-143547312D01*
X143258289Y-143699540D01*
X143064540Y-143893289D01*
X142912312Y-144121115D01*
X142835720Y-144306024D01*
X142799299Y-144206165D01*
X142664401Y-143984195D01*
X142488791Y-143792807D01*
X142279217Y-143639357D01*
X142043734Y-143529741D01*
X141934812Y-143496704D01*
X141730000Y-143617954D01*
X141730000Y-144655000D01*
X141750000Y-144655000D01*
X141750000Y-144905000D01*
X141730000Y-144905000D01*
X141730000Y-145942046D01*
X141934812Y-146063296D01*
X142043734Y-146030259D01*
X142279217Y-145920643D01*
X142488791Y-145767193D01*
X142664401Y-145575805D01*
X142799299Y-145353835D01*
X142835720Y-145253976D01*
X142912312Y-145438885D01*
X143064540Y-145666711D01*
X143258289Y-145860460D01*
X143486115Y-146012688D01*
X143739260Y-146117544D01*
X144007999Y-146171000D01*
X144282001Y-146171000D01*
X144550740Y-146117544D01*
X144803885Y-146012688D01*
X145031711Y-145860460D01*
X145225460Y-145666711D01*
X145377688Y-145438885D01*
X145482544Y-145185740D01*
X145536000Y-144917001D01*
X145536000Y-144642999D01*
X145482544Y-144374260D01*
X145377688Y-144121115D01*
X145225460Y-143893289D01*
X145031711Y-143699540D01*
X144803885Y-143547312D01*
X144713806Y-143510000D01*
X144803885Y-143472688D01*
X145031711Y-143320460D01*
X145225460Y-143126711D01*
X145377688Y-142898885D01*
X145482544Y-142645740D01*
X145536000Y-142377001D01*
X145536000Y-142102999D01*
X145482544Y-141834260D01*
X145377688Y-141581115D01*
X145225460Y-141353289D01*
X145031711Y-141159540D01*
X144803885Y-141007312D01*
X144713806Y-140970000D01*
X144803885Y-140932688D01*
X145031711Y-140780460D01*
X145225460Y-140586711D01*
X145377688Y-140358885D01*
X145482544Y-140105740D01*
X145536000Y-139837001D01*
X145536000Y-139562999D01*
X145482544Y-139294260D01*
X145377688Y-139041115D01*
X145225460Y-138813289D01*
X145031711Y-138619540D01*
X144803885Y-138467312D01*
X144713806Y-138430000D01*
X144803885Y-138392688D01*
X145031711Y-138240460D01*
X145225460Y-138046711D01*
X145377688Y-137818885D01*
X145482544Y-137565740D01*
X145536000Y-137297001D01*
X145536000Y-137022999D01*
X145482544Y-136754260D01*
X145377688Y-136501115D01*
X145225460Y-136273289D01*
X145031711Y-136079540D01*
X144803885Y-135927312D01*
X144713806Y-135890000D01*
X144803885Y-135852688D01*
X145031711Y-135700460D01*
X145225460Y-135506711D01*
X145377688Y-135278885D01*
X145482544Y-135025740D01*
X145536000Y-134757001D01*
X145536000Y-134482999D01*
X145482544Y-134214260D01*
X145377688Y-133961115D01*
X145225460Y-133733289D01*
X145031711Y-133539540D01*
X144803885Y-133387312D01*
X144713806Y-133350000D01*
X144803885Y-133312688D01*
X145031711Y-133160460D01*
X145225460Y-132966711D01*
X145377688Y-132738885D01*
X145482544Y-132485740D01*
X145536000Y-132217001D01*
X145536000Y-131942999D01*
X145482544Y-131674260D01*
X145377688Y-131421115D01*
X145225460Y-131193289D01*
X145031711Y-130999540D01*
X144803885Y-130847312D01*
X144713806Y-130810000D01*
X144803885Y-130772688D01*
X145031711Y-130620460D01*
X145225460Y-130426711D01*
X145377688Y-130198885D01*
X145482544Y-129945740D01*
X145536000Y-129677001D01*
X145536000Y-129402999D01*
X145482544Y-129134260D01*
X145377688Y-128881115D01*
X145225460Y-128653289D01*
X145031711Y-128459540D01*
X144803885Y-128307312D01*
X144713806Y-128270000D01*
X144803885Y-128232688D01*
X145031711Y-128080460D01*
X145225460Y-127886711D01*
X145377688Y-127658885D01*
X145482544Y-127405740D01*
X145536000Y-127137001D01*
X145536000Y-126862999D01*
X145482544Y-126594260D01*
X145377688Y-126341115D01*
X145225460Y-126113289D01*
X145031711Y-125919540D01*
X144803885Y-125767312D01*
X144713806Y-125730000D01*
X144803885Y-125692688D01*
X145031711Y-125540460D01*
X145225460Y-125346711D01*
X145377688Y-125118885D01*
X145482544Y-124865740D01*
X145536000Y-124597001D01*
X145536000Y-124322999D01*
X145482544Y-124054260D01*
X145377688Y-123801115D01*
X145225460Y-123573289D01*
X145031711Y-123379540D01*
X144803885Y-123227312D01*
X144713806Y-123190000D01*
X144803885Y-123152688D01*
X145031711Y-123000460D01*
X145225460Y-122806711D01*
X145377688Y-122578885D01*
X145482544Y-122325740D01*
X145536000Y-122057001D01*
X145536000Y-121782999D01*
X145482544Y-121514260D01*
X145377688Y-121261115D01*
X145225460Y-121033289D01*
X145031711Y-120839540D01*
X144803885Y-120687312D01*
X144713806Y-120650000D01*
X144803885Y-120612688D01*
X145031711Y-120460460D01*
X145225460Y-120266711D01*
X145377688Y-120038885D01*
X145482544Y-119785740D01*
X145536000Y-119517001D01*
X145536000Y-119242999D01*
X145482544Y-118974260D01*
X145377688Y-118721115D01*
X145225460Y-118493289D01*
X145031711Y-118299540D01*
X144803885Y-118147312D01*
X144713806Y-118110000D01*
X144803885Y-118072688D01*
X145031711Y-117920460D01*
X145225460Y-117726711D01*
X145377688Y-117498885D01*
X145482544Y-117245740D01*
X145536000Y-116977001D01*
X145536000Y-116702999D01*
X145482544Y-116434260D01*
X145377688Y-116181115D01*
X145225460Y-115953289D01*
X145031711Y-115759540D01*
X144803885Y-115607312D01*
X144713806Y-115570000D01*
X144803885Y-115532688D01*
X145031711Y-115380460D01*
X145225460Y-115186711D01*
X145377688Y-114958885D01*
X145482544Y-114705740D01*
X145536000Y-114437001D01*
X145536000Y-114162999D01*
X145482544Y-113894260D01*
X145377688Y-113641115D01*
X145225460Y-113413289D01*
X145031711Y-113219540D01*
X144803885Y-113067312D01*
X144713806Y-113030000D01*
X144803885Y-112992688D01*
X145031711Y-112840460D01*
X145225460Y-112646711D01*
X145377688Y-112418885D01*
X145482544Y-112165740D01*
X145536000Y-111897001D01*
X145536000Y-111622999D01*
X145482544Y-111354260D01*
X145377688Y-111101115D01*
X145225460Y-110873289D01*
X145031711Y-110679540D01*
X144803885Y-110527312D01*
X144713806Y-110490000D01*
X144803885Y-110452688D01*
X145031711Y-110300460D01*
X145225460Y-110106711D01*
X145377688Y-109878885D01*
X145482544Y-109625740D01*
X145536000Y-109357001D01*
X145536000Y-109082999D01*
X145482544Y-108814260D01*
X145377688Y-108561115D01*
X145225460Y-108333289D01*
X145031711Y-108139540D01*
X144803885Y-107987312D01*
X144550740Y-107882456D01*
X144282001Y-107829000D01*
X144007999Y-107829000D01*
X143739260Y-107882456D01*
X143486115Y-107987312D01*
X143258289Y-108139540D01*
X143078075Y-108319754D01*
X143070957Y-108247479D01*
X143035219Y-108129666D01*
X142977183Y-108021089D01*
X142899080Y-107925920D01*
X142803911Y-107847817D01*
X142695334Y-107789781D01*
X142577521Y-107754043D01*
X142455000Y-107741976D01*
X141886250Y-107745000D01*
X141730000Y-107901250D01*
X141730000Y-109095000D01*
X141750000Y-109095000D01*
X141750000Y-109345000D01*
X141730000Y-109345000D01*
X141730000Y-109365000D01*
X141480000Y-109365000D01*
X141480000Y-109345000D01*
X140286250Y-109345000D01*
X140130000Y-109501250D01*
X140126976Y-110070000D01*
X140139043Y-110192521D01*
X140174781Y-110310334D01*
X140232817Y-110418911D01*
X140310920Y-110514080D01*
X140406089Y-110592183D01*
X140514666Y-110650219D01*
X140632479Y-110685957D01*
X140755000Y-110698024D01*
X140991298Y-110696768D01*
X140824108Y-110808481D01*
X140653481Y-110979108D01*
X140519419Y-111179745D01*
X140427076Y-111402681D01*
X140380000Y-111639348D01*
X140380000Y-111880652D01*
X140427076Y-112117319D01*
X140519419Y-112340255D01*
X140653481Y-112540892D01*
X140824108Y-112711519D01*
X141024745Y-112845581D01*
X141247681Y-112937924D01*
X141484348Y-112985000D01*
X141725652Y-112985000D01*
X141962319Y-112937924D01*
X142185255Y-112845581D01*
X142385892Y-112711519D01*
X142556519Y-112540892D01*
X142690581Y-112340255D01*
X142782924Y-112117319D01*
X142790374Y-112079865D01*
X142807456Y-112165740D01*
X142912312Y-112418885D01*
X143064540Y-112646711D01*
X143258289Y-112840460D01*
X143486115Y-112992688D01*
X143576194Y-113030000D01*
X143486115Y-113067312D01*
X143258289Y-113219540D01*
X143064540Y-113413289D01*
X142912312Y-113641115D01*
X142807456Y-113894260D01*
X142790374Y-113980135D01*
X142782924Y-113942681D01*
X142690581Y-113719745D01*
X142556519Y-113519108D01*
X142385892Y-113348481D01*
X142185255Y-113214419D01*
X141962319Y-113122076D01*
X141725652Y-113075000D01*
X141484348Y-113075000D01*
X141247681Y-113122076D01*
X141024745Y-113214419D01*
X140824108Y-113348481D01*
X140653481Y-113519108D01*
X140519419Y-113719745D01*
X140427076Y-113942681D01*
X140380000Y-114179348D01*
X140380000Y-114420652D01*
X140427076Y-114657319D01*
X140519419Y-114880255D01*
X140653481Y-115080892D01*
X140824108Y-115251519D01*
X141024745Y-115385581D01*
X141247681Y-115477924D01*
X141484348Y-115525000D01*
X141725652Y-115525000D01*
X141962319Y-115477924D01*
X142185255Y-115385581D01*
X142385892Y-115251519D01*
X142556519Y-115080892D01*
X142690581Y-114880255D01*
X142782924Y-114657319D01*
X142790374Y-114619865D01*
X142807456Y-114705740D01*
X142912312Y-114958885D01*
X143064540Y-115186711D01*
X143258289Y-115380460D01*
X143486115Y-115532688D01*
X143576194Y-115570000D01*
X143486115Y-115607312D01*
X143258289Y-115759540D01*
X143064540Y-115953289D01*
X142912312Y-116181115D01*
X142807456Y-116434260D01*
X142790374Y-116520135D01*
X142782924Y-116482681D01*
X142690581Y-116259745D01*
X142556519Y-116059108D01*
X142385892Y-115888481D01*
X142185255Y-115754419D01*
X141962319Y-115662076D01*
X141725652Y-115615000D01*
X141484348Y-115615000D01*
X141247681Y-115662076D01*
X141024745Y-115754419D01*
X140824108Y-115888481D01*
X140653481Y-116059108D01*
X140519419Y-116259745D01*
X140427076Y-116482681D01*
X140380000Y-116719348D01*
X140380000Y-116960652D01*
X140427076Y-117197319D01*
X140519419Y-117420255D01*
X140653481Y-117620892D01*
X140824108Y-117791519D01*
X141024745Y-117925581D01*
X141247681Y-118017924D01*
X141484348Y-118065000D01*
X141725652Y-118065000D01*
X141962319Y-118017924D01*
X142185255Y-117925581D01*
X142385892Y-117791519D01*
X142556519Y-117620892D01*
X142690581Y-117420255D01*
X142782924Y-117197319D01*
X142790374Y-117159865D01*
X142807456Y-117245740D01*
X142912312Y-117498885D01*
X143064540Y-117726711D01*
X143258289Y-117920460D01*
X143486115Y-118072688D01*
X143576194Y-118110000D01*
X143486115Y-118147312D01*
X143258289Y-118299540D01*
X143064540Y-118493289D01*
X142912312Y-118721115D01*
X142898276Y-118755000D01*
X142540414Y-118755000D01*
X142478844Y-118662855D01*
X142322145Y-118506156D01*
X142137887Y-118383038D01*
X141933150Y-118298233D01*
X141715803Y-118255000D01*
X141494197Y-118255000D01*
X141276850Y-118298233D01*
X141072113Y-118383038D01*
X140887855Y-118506156D01*
X140731156Y-118662855D01*
X140608038Y-118847113D01*
X140523233Y-119051850D01*
X140480000Y-119269197D01*
X140480000Y-119490803D01*
X140523233Y-119708150D01*
X140608038Y-119912887D01*
X140731156Y-120097145D01*
X140887855Y-120253844D01*
X141072113Y-120376962D01*
X141276850Y-120461767D01*
X141494197Y-120505000D01*
X141715803Y-120505000D01*
X141933150Y-120461767D01*
X142137887Y-120376962D01*
X142322145Y-120253844D01*
X142478844Y-120097145D01*
X142540414Y-120005000D01*
X142898276Y-120005000D01*
X142912312Y-120038885D01*
X143064540Y-120266711D01*
X143258289Y-120460460D01*
X143486115Y-120612688D01*
X143576194Y-120650000D01*
X143486115Y-120687312D01*
X143258289Y-120839540D01*
X143064540Y-121033289D01*
X142912312Y-121261115D01*
X142898276Y-121295000D01*
X142540414Y-121295000D01*
X142478844Y-121202855D01*
X142322145Y-121046156D01*
X142137887Y-120923038D01*
X141933150Y-120838233D01*
X141715803Y-120795000D01*
X141494197Y-120795000D01*
X141276850Y-120838233D01*
X141072113Y-120923038D01*
X140887855Y-121046156D01*
X140731156Y-121202855D01*
X140608038Y-121387113D01*
X140523233Y-121591850D01*
X140480000Y-121809197D01*
X140480000Y-122030803D01*
X140523233Y-122248150D01*
X140608038Y-122452887D01*
X140731156Y-122637145D01*
X140887855Y-122793844D01*
X141072113Y-122916962D01*
X141276850Y-123001767D01*
X141494197Y-123045000D01*
X141715803Y-123045000D01*
X141933150Y-123001767D01*
X142137887Y-122916962D01*
X142322145Y-122793844D01*
X142478844Y-122637145D01*
X142540414Y-122545000D01*
X142898276Y-122545000D01*
X142912312Y-122578885D01*
X143064540Y-122806711D01*
X143258289Y-123000460D01*
X143486115Y-123152688D01*
X143576194Y-123190000D01*
X143486115Y-123227312D01*
X143258289Y-123379540D01*
X143064540Y-123573289D01*
X142912312Y-123801115D01*
X142898276Y-123835000D01*
X142540414Y-123835000D01*
X142478844Y-123742855D01*
X142322145Y-123586156D01*
X142137887Y-123463038D01*
X141933150Y-123378233D01*
X141715803Y-123335000D01*
X141494197Y-123335000D01*
X141276850Y-123378233D01*
X141072113Y-123463038D01*
X140887855Y-123586156D01*
X140731156Y-123742855D01*
X140608038Y-123927113D01*
X140523233Y-124131850D01*
X140480000Y-124349197D01*
X140480000Y-124570803D01*
X140523233Y-124788150D01*
X140608038Y-124992887D01*
X140731156Y-125177145D01*
X140887855Y-125333844D01*
X141072113Y-125456962D01*
X141276850Y-125541767D01*
X141494197Y-125585000D01*
X141715803Y-125585000D01*
X141933150Y-125541767D01*
X142137887Y-125456962D01*
X142322145Y-125333844D01*
X142478844Y-125177145D01*
X142540414Y-125085000D01*
X142898276Y-125085000D01*
X142912312Y-125118885D01*
X143064540Y-125346711D01*
X143258289Y-125540460D01*
X143486115Y-125692688D01*
X143576194Y-125730000D01*
X143486115Y-125767312D01*
X143258289Y-125919540D01*
X143064540Y-126113289D01*
X142912312Y-126341115D01*
X142898276Y-126375000D01*
X142540414Y-126375000D01*
X142478844Y-126282855D01*
X142322145Y-126126156D01*
X142137887Y-126003038D01*
X141933150Y-125918233D01*
X141715803Y-125875000D01*
X141494197Y-125875000D01*
X141276850Y-125918233D01*
X141072113Y-126003038D01*
X140887855Y-126126156D01*
X140731156Y-126282855D01*
X140608038Y-126467113D01*
X140523233Y-126671850D01*
X140480000Y-126889197D01*
X140480000Y-127110803D01*
X140523233Y-127328150D01*
X140608038Y-127532887D01*
X140731156Y-127717145D01*
X140887855Y-127873844D01*
X141072113Y-127996962D01*
X141276850Y-128081767D01*
X141494197Y-128125000D01*
X141715803Y-128125000D01*
X141933150Y-128081767D01*
X142137887Y-127996962D01*
X142322145Y-127873844D01*
X142478844Y-127717145D01*
X142540414Y-127625000D01*
X142898276Y-127625000D01*
X142912312Y-127658885D01*
X143064540Y-127886711D01*
X143258289Y-128080460D01*
X143486115Y-128232688D01*
X143576194Y-128270000D01*
X143486115Y-128307312D01*
X143258289Y-128459540D01*
X143064540Y-128653289D01*
X142912312Y-128881115D01*
X142807456Y-129134260D01*
X142754000Y-129402999D01*
X142754000Y-129677001D01*
X142807456Y-129945740D01*
X142912312Y-130198885D01*
X143064540Y-130426711D01*
X143258289Y-130620460D01*
X143486115Y-130772688D01*
X143576194Y-130810000D01*
X143486115Y-130847312D01*
X143258289Y-130999540D01*
X143064540Y-131193289D01*
X142912312Y-131421115D01*
X142807456Y-131674260D01*
X142754000Y-131942999D01*
X142754000Y-132217001D01*
X142807456Y-132485740D01*
X142912312Y-132738885D01*
X143064540Y-132966711D01*
X143258289Y-133160460D01*
X143486115Y-133312688D01*
X143576194Y-133350000D01*
X143486115Y-133387312D01*
X143258289Y-133539540D01*
X143064540Y-133733289D01*
X142912312Y-133961115D01*
X142807456Y-134214260D01*
X142754000Y-134482999D01*
X142754000Y-134757001D01*
X142807456Y-135025740D01*
X142821492Y-135059625D01*
X141781975Y-136099142D01*
X141710878Y-136085000D01*
X141499122Y-136085000D01*
X141291434Y-136126312D01*
X141095797Y-136207348D01*
X140919728Y-136324993D01*
X140769993Y-136474728D01*
X140729721Y-136535000D01*
X124880683Y-136535000D01*
X124776519Y-136379108D01*
X124605892Y-136208481D01*
X124405255Y-136074419D01*
X124182319Y-135982076D01*
X123945652Y-135935000D01*
X123704348Y-135935000D01*
X123467681Y-135982076D01*
X123244745Y-136074419D01*
X123044108Y-136208481D01*
X122873481Y-136379108D01*
X122739419Y-136579745D01*
X122647076Y-136802681D01*
X122639626Y-136840135D01*
X122622544Y-136754260D01*
X122517688Y-136501115D01*
X122365460Y-136273289D01*
X122171711Y-136079540D01*
X121943885Y-135927312D01*
X121853806Y-135890000D01*
X121943885Y-135852688D01*
X122171711Y-135700460D01*
X122365460Y-135506711D01*
X122517688Y-135278885D01*
X122598186Y-135084545D01*
X122598186Y-135470000D01*
X122605426Y-135543513D01*
X122626869Y-135614200D01*
X122661691Y-135679347D01*
X122708552Y-135736448D01*
X122765653Y-135783309D01*
X122830800Y-135818131D01*
X122901487Y-135839574D01*
X122975000Y-135846814D01*
X124675000Y-135846814D01*
X124748513Y-135839574D01*
X124819200Y-135818131D01*
X124884347Y-135783309D01*
X124941448Y-135736448D01*
X124988309Y-135679347D01*
X125023131Y-135614200D01*
X125044574Y-135543513D01*
X125051814Y-135470000D01*
X125051814Y-133770000D01*
X125044574Y-133696487D01*
X125023131Y-133625800D01*
X124988309Y-133560653D01*
X124941448Y-133503552D01*
X124884347Y-133456691D01*
X124819200Y-133421869D01*
X124748513Y-133400426D01*
X124675000Y-133393186D01*
X122975000Y-133393186D01*
X122901487Y-133400426D01*
X122830800Y-133421869D01*
X122765653Y-133456691D01*
X122708552Y-133503552D01*
X122661691Y-133560653D01*
X122626869Y-133625800D01*
X122605426Y-133696487D01*
X122598186Y-133770000D01*
X122598186Y-134155455D01*
X122517688Y-133961115D01*
X122365460Y-133733289D01*
X122171711Y-133539540D01*
X121943885Y-133387312D01*
X121853806Y-133350000D01*
X121943885Y-133312688D01*
X122171711Y-133160460D01*
X122365460Y-132966711D01*
X122517688Y-132738885D01*
X122622544Y-132485740D01*
X122676000Y-132217001D01*
X122676000Y-131942999D01*
X122622544Y-131674260D01*
X122517688Y-131421115D01*
X122365460Y-131193289D01*
X122171711Y-130999540D01*
X121943885Y-130847312D01*
X121853806Y-130810000D01*
X121943885Y-130772688D01*
X122171711Y-130620460D01*
X122365460Y-130426711D01*
X122517688Y-130198885D01*
X122622544Y-129945740D01*
X122676000Y-129677001D01*
X122676000Y-129434122D01*
X122750000Y-129434122D01*
X122750000Y-129645878D01*
X122791312Y-129853566D01*
X122872348Y-130049203D01*
X122989993Y-130225272D01*
X123139728Y-130375007D01*
X123315797Y-130492652D01*
X123511434Y-130573688D01*
X123719122Y-130615000D01*
X123930878Y-130615000D01*
X124138566Y-130573688D01*
X124334203Y-130492652D01*
X124510272Y-130375007D01*
X124660007Y-130225272D01*
X124700279Y-130165000D01*
X129509306Y-130165000D01*
X129540000Y-130168023D01*
X129570694Y-130165000D01*
X129570704Y-130165000D01*
X129662521Y-130155957D01*
X129780334Y-130120219D01*
X129888911Y-130062183D01*
X129984080Y-129984080D01*
X130003658Y-129960224D01*
X130529760Y-129434122D01*
X140530000Y-129434122D01*
X140530000Y-129645878D01*
X140571312Y-129853566D01*
X140652348Y-130049203D01*
X140769993Y-130225272D01*
X140919728Y-130375007D01*
X141095797Y-130492652D01*
X141291434Y-130573688D01*
X141499122Y-130615000D01*
X141710878Y-130615000D01*
X141918566Y-130573688D01*
X142114203Y-130492652D01*
X142290272Y-130375007D01*
X142440007Y-130225272D01*
X142557652Y-130049203D01*
X142638688Y-129853566D01*
X142680000Y-129645878D01*
X142680000Y-129434122D01*
X142638688Y-129226434D01*
X142557652Y-129030797D01*
X142440007Y-128854728D01*
X142290272Y-128704993D01*
X142114203Y-128587348D01*
X141918566Y-128506312D01*
X141710878Y-128465000D01*
X141499122Y-128465000D01*
X141291434Y-128506312D01*
X141095797Y-128587348D01*
X140919728Y-128704993D01*
X140769993Y-128854728D01*
X140652348Y-129030797D01*
X140571312Y-129226434D01*
X140530000Y-129434122D01*
X130529760Y-129434122D01*
X133069760Y-126894122D01*
X137990000Y-126894122D01*
X137990000Y-127105878D01*
X138031312Y-127313566D01*
X138112348Y-127509203D01*
X138229993Y-127685272D01*
X138379728Y-127835007D01*
X138555797Y-127952652D01*
X138751434Y-128033688D01*
X138959122Y-128075000D01*
X139170878Y-128075000D01*
X139378566Y-128033688D01*
X139574203Y-127952652D01*
X139750272Y-127835007D01*
X139900007Y-127685272D01*
X140017652Y-127509203D01*
X140098688Y-127313566D01*
X140140000Y-127105878D01*
X140140000Y-126894122D01*
X140098688Y-126686434D01*
X140017652Y-126490797D01*
X139900007Y-126314728D01*
X139750272Y-126164993D01*
X139574203Y-126047348D01*
X139378566Y-125966312D01*
X139170878Y-125925000D01*
X138959122Y-125925000D01*
X138751434Y-125966312D01*
X138555797Y-126047348D01*
X138379728Y-126164993D01*
X138229993Y-126314728D01*
X138112348Y-126490797D01*
X138031312Y-126686434D01*
X137990000Y-126894122D01*
X133069760Y-126894122D01*
X133358883Y-126605000D01*
X133436180Y-126605000D01*
X133605228Y-126571374D01*
X133764468Y-126505415D01*
X133907780Y-126409657D01*
X134029657Y-126287780D01*
X134068264Y-126230000D01*
X134761976Y-126230000D01*
X134774043Y-126352521D01*
X134809781Y-126470334D01*
X134867817Y-126578911D01*
X134945920Y-126674080D01*
X135041089Y-126752183D01*
X135149666Y-126810219D01*
X135267479Y-126845957D01*
X135390000Y-126858024D01*
X135608750Y-126855000D01*
X135765000Y-126698750D01*
X135765000Y-125855000D01*
X136015000Y-125855000D01*
X136015000Y-126698750D01*
X136171250Y-126855000D01*
X136390000Y-126858024D01*
X136512521Y-126845957D01*
X136630334Y-126810219D01*
X136738911Y-126752183D01*
X136834080Y-126674080D01*
X136912183Y-126578911D01*
X136970219Y-126470334D01*
X137005957Y-126352521D01*
X137018024Y-126230000D01*
X137015000Y-126011250D01*
X136858750Y-125855000D01*
X136015000Y-125855000D01*
X135765000Y-125855000D01*
X134921250Y-125855000D01*
X134765000Y-126011250D01*
X134761976Y-126230000D01*
X134068264Y-126230000D01*
X134125415Y-126144468D01*
X134191374Y-125985228D01*
X134225000Y-125816180D01*
X134225000Y-125643820D01*
X134191374Y-125474772D01*
X134125415Y-125315532D01*
X134068265Y-125230000D01*
X134761976Y-125230000D01*
X134765000Y-125448750D01*
X134921250Y-125605000D01*
X135765000Y-125605000D01*
X135765000Y-124761250D01*
X136015000Y-124761250D01*
X136015000Y-125605000D01*
X136858750Y-125605000D01*
X137015000Y-125448750D01*
X137018024Y-125230000D01*
X137005957Y-125107479D01*
X136970219Y-124989666D01*
X136912183Y-124881089D01*
X136834080Y-124785920D01*
X136738911Y-124707817D01*
X136630334Y-124649781D01*
X136512521Y-124614043D01*
X136390000Y-124601976D01*
X136171250Y-124605000D01*
X136015000Y-124761250D01*
X135765000Y-124761250D01*
X135608750Y-124605000D01*
X135390000Y-124601976D01*
X135267479Y-124614043D01*
X135149666Y-124649781D01*
X135041089Y-124707817D01*
X134945920Y-124785920D01*
X134867817Y-124881089D01*
X134809781Y-124989666D01*
X134774043Y-125107479D01*
X134761976Y-125230000D01*
X134068265Y-125230000D01*
X134029657Y-125172220D01*
X133907780Y-125050343D01*
X133764468Y-124954585D01*
X133605228Y-124888626D01*
X133436180Y-124855000D01*
X133263820Y-124855000D01*
X133094772Y-124888626D01*
X132935532Y-124954585D01*
X132792220Y-125050343D01*
X132670343Y-125172220D01*
X132574585Y-125315532D01*
X132508626Y-125474772D01*
X132475000Y-125643820D01*
X132475000Y-125721117D01*
X129281118Y-128915000D01*
X124700279Y-128915000D01*
X124660007Y-128854728D01*
X124510272Y-128704993D01*
X124334203Y-128587348D01*
X124138566Y-128506312D01*
X123930878Y-128465000D01*
X123719122Y-128465000D01*
X123511434Y-128506312D01*
X123315797Y-128587348D01*
X123139728Y-128704993D01*
X122989993Y-128854728D01*
X122872348Y-129030797D01*
X122791312Y-129226434D01*
X122750000Y-129434122D01*
X122676000Y-129434122D01*
X122676000Y-129402999D01*
X122622544Y-129134260D01*
X122517688Y-128881115D01*
X122365460Y-128653289D01*
X122171711Y-128459540D01*
X121943885Y-128307312D01*
X121853806Y-128270000D01*
X121943885Y-128232688D01*
X122171711Y-128080460D01*
X122365460Y-127886711D01*
X122517688Y-127658885D01*
X122622544Y-127405740D01*
X122676000Y-127137001D01*
X122676000Y-126862999D01*
X122622544Y-126594260D01*
X122517688Y-126341115D01*
X122365460Y-126113289D01*
X122171711Y-125919540D01*
X121943885Y-125767312D01*
X121853806Y-125730000D01*
X121943885Y-125692688D01*
X122017021Y-125643820D01*
X127395000Y-125643820D01*
X127395000Y-125816180D01*
X127428626Y-125985228D01*
X127494585Y-126144468D01*
X127590343Y-126287780D01*
X127712220Y-126409657D01*
X127855532Y-126505415D01*
X128014772Y-126571374D01*
X128183820Y-126605000D01*
X128356180Y-126605000D01*
X128525228Y-126571374D01*
X128684468Y-126505415D01*
X128827780Y-126409657D01*
X128949657Y-126287780D01*
X129045415Y-126144468D01*
X129111374Y-125985228D01*
X129145000Y-125816180D01*
X129145000Y-125643820D01*
X129935000Y-125643820D01*
X129935000Y-125816180D01*
X129968626Y-125985228D01*
X130034585Y-126144468D01*
X130130343Y-126287780D01*
X130252220Y-126409657D01*
X130395532Y-126505415D01*
X130554772Y-126571374D01*
X130723820Y-126605000D01*
X130896180Y-126605000D01*
X131065228Y-126571374D01*
X131224468Y-126505415D01*
X131367780Y-126409657D01*
X131489657Y-126287780D01*
X131585415Y-126144468D01*
X131651374Y-125985228D01*
X131685000Y-125816180D01*
X131685000Y-125643820D01*
X131651374Y-125474772D01*
X131585415Y-125315532D01*
X131489657Y-125172220D01*
X131367780Y-125050343D01*
X131224468Y-124954585D01*
X131065228Y-124888626D01*
X130896180Y-124855000D01*
X130723820Y-124855000D01*
X130554772Y-124888626D01*
X130395532Y-124954585D01*
X130252220Y-125050343D01*
X130130343Y-125172220D01*
X130034585Y-125315532D01*
X129968626Y-125474772D01*
X129935000Y-125643820D01*
X129145000Y-125643820D01*
X129111374Y-125474772D01*
X129045415Y-125315532D01*
X128949657Y-125172220D01*
X128827780Y-125050343D01*
X128684468Y-124954585D01*
X128525228Y-124888626D01*
X128356180Y-124855000D01*
X128183820Y-124855000D01*
X128014772Y-124888626D01*
X127855532Y-124954585D01*
X127712220Y-125050343D01*
X127590343Y-125172220D01*
X127494585Y-125315532D01*
X127428626Y-125474772D01*
X127395000Y-125643820D01*
X122017021Y-125643820D01*
X122171711Y-125540460D01*
X122365460Y-125346711D01*
X122517688Y-125118885D01*
X122622544Y-124865740D01*
X122676000Y-124597001D01*
X122676000Y-124322999D01*
X122622544Y-124054260D01*
X122517688Y-123801115D01*
X122365460Y-123573289D01*
X122171711Y-123379540D01*
X121943885Y-123227312D01*
X121853806Y-123190000D01*
X121943885Y-123152688D01*
X122171711Y-123000460D01*
X122365460Y-122806711D01*
X122517688Y-122578885D01*
X122594280Y-122393976D01*
X122630701Y-122493835D01*
X122765599Y-122715805D01*
X122941209Y-122907193D01*
X123150783Y-123060643D01*
X123386266Y-123170259D01*
X123495188Y-123203296D01*
X123700000Y-123082046D01*
X123700000Y-122045000D01*
X123950000Y-122045000D01*
X123950000Y-123082046D01*
X124154812Y-123203296D01*
X124263734Y-123170259D01*
X124499217Y-123060643D01*
X124708791Y-122907193D01*
X124884401Y-122715805D01*
X125019299Y-122493835D01*
X125108301Y-122249813D01*
X124987846Y-122045000D01*
X123950000Y-122045000D01*
X123700000Y-122045000D01*
X123680000Y-122045000D01*
X123680000Y-121795000D01*
X123700000Y-121795000D01*
X123700000Y-120757954D01*
X123950000Y-120757954D01*
X123950000Y-121795000D01*
X124987846Y-121795000D01*
X125108301Y-121590187D01*
X125019299Y-121346165D01*
X124884401Y-121124195D01*
X124708791Y-120932807D01*
X124499217Y-120779357D01*
X124263734Y-120669741D01*
X124154812Y-120636704D01*
X123950000Y-120757954D01*
X123700000Y-120757954D01*
X123495188Y-120636704D01*
X123386266Y-120669741D01*
X123150783Y-120779357D01*
X122941209Y-120932807D01*
X122765599Y-121124195D01*
X122630701Y-121346165D01*
X122594280Y-121446024D01*
X122517688Y-121261115D01*
X122365460Y-121033289D01*
X122171711Y-120839540D01*
X121943885Y-120687312D01*
X121853806Y-120650000D01*
X121943885Y-120612688D01*
X122171711Y-120460460D01*
X122365460Y-120266711D01*
X122517688Y-120038885D01*
X122622544Y-119785740D01*
X122665116Y-119571719D01*
X122695155Y-119722735D01*
X122783729Y-119936571D01*
X122912318Y-120129019D01*
X123075981Y-120292682D01*
X123268429Y-120421271D01*
X123482265Y-120509845D01*
X123709273Y-120555000D01*
X123940727Y-120555000D01*
X124167735Y-120509845D01*
X124381571Y-120421271D01*
X124574019Y-120292682D01*
X124737682Y-120129019D01*
X124866271Y-119936571D01*
X124954845Y-119722735D01*
X125000000Y-119495727D01*
X125000000Y-119264273D01*
X124954845Y-119037265D01*
X124866271Y-118823429D01*
X124737682Y-118630981D01*
X124574019Y-118467318D01*
X124381571Y-118338729D01*
X124167735Y-118250155D01*
X123940727Y-118205000D01*
X123709273Y-118205000D01*
X123482265Y-118250155D01*
X123268429Y-118338729D01*
X123075981Y-118467318D01*
X122912318Y-118630981D01*
X122783729Y-118823429D01*
X122695155Y-119037265D01*
X122665116Y-119188281D01*
X122622544Y-118974260D01*
X122517688Y-118721115D01*
X122365460Y-118493289D01*
X122171711Y-118299540D01*
X121943885Y-118147312D01*
X121853806Y-118110000D01*
X121943885Y-118072688D01*
X122171711Y-117920460D01*
X122365460Y-117726711D01*
X122517688Y-117498885D01*
X122622544Y-117245740D01*
X122676000Y-116977001D01*
X122676000Y-116702999D01*
X122622544Y-116434260D01*
X122517688Y-116181115D01*
X122365460Y-115953289D01*
X122252171Y-115840000D01*
X126258186Y-115840000D01*
X126258186Y-117840000D01*
X126265426Y-117913513D01*
X126286869Y-117984200D01*
X126321691Y-118049347D01*
X126368552Y-118106448D01*
X126425653Y-118153309D01*
X126490800Y-118188131D01*
X126561487Y-118209574D01*
X126635000Y-118216814D01*
X128635000Y-118216814D01*
X128708513Y-118209574D01*
X128779200Y-118188131D01*
X128844347Y-118153309D01*
X128901448Y-118106448D01*
X128948309Y-118049347D01*
X128983131Y-117984200D01*
X129004574Y-117913513D01*
X129011814Y-117840000D01*
X129011814Y-117574103D01*
X129106968Y-117716511D01*
X129298489Y-117908032D01*
X129523693Y-118058509D01*
X129672146Y-118120000D01*
X129570702Y-118120000D01*
X129540000Y-118116976D01*
X129509298Y-118120000D01*
X129509296Y-118120000D01*
X129417479Y-118129043D01*
X129299666Y-118164781D01*
X129255982Y-118188131D01*
X129191088Y-118222817D01*
X129119769Y-118281347D01*
X129119765Y-118281351D01*
X129095920Y-118300920D01*
X129076350Y-118324766D01*
X128484776Y-118916342D01*
X128460920Y-118935920D01*
X128382817Y-119031090D01*
X128324781Y-119139667D01*
X128289043Y-119257480D01*
X128280000Y-119349297D01*
X128280000Y-119349306D01*
X128276977Y-119380000D01*
X128280000Y-119410694D01*
X128280000Y-119773646D01*
X128270001Y-119781853D01*
X128137432Y-119673057D01*
X127981081Y-119589486D01*
X127811431Y-119538023D01*
X127635000Y-119520646D01*
X127458570Y-119538023D01*
X127288920Y-119589486D01*
X127132569Y-119673057D01*
X126995526Y-119785525D01*
X126883058Y-119922568D01*
X126799486Y-120078919D01*
X126748023Y-120248569D01*
X126735000Y-120380793D01*
X126735000Y-120919206D01*
X126748023Y-121051430D01*
X126799486Y-121221080D01*
X126883057Y-121377431D01*
X126995525Y-121514475D01*
X127132568Y-121626943D01*
X127288919Y-121710514D01*
X127458569Y-121761977D01*
X127635000Y-121779354D01*
X127811430Y-121761977D01*
X127981080Y-121710514D01*
X128137431Y-121626943D01*
X128270000Y-121518148D01*
X128402568Y-121626943D01*
X128558919Y-121710514D01*
X128728569Y-121761977D01*
X128905000Y-121779354D01*
X129081430Y-121761977D01*
X129251080Y-121710514D01*
X129368298Y-121647860D01*
X129383552Y-121666448D01*
X129440653Y-121713309D01*
X129505800Y-121748131D01*
X129576487Y-121769574D01*
X129650000Y-121776814D01*
X130700000Y-121776814D01*
X130773513Y-121769574D01*
X130844200Y-121748131D01*
X130909347Y-121713309D01*
X130966448Y-121666448D01*
X131013309Y-121609347D01*
X131048131Y-121544200D01*
X131069574Y-121473513D01*
X131076814Y-121400000D01*
X131076814Y-120380793D01*
X132450000Y-120380793D01*
X132450000Y-120919206D01*
X132463023Y-121051430D01*
X132514486Y-121221080D01*
X132598057Y-121377431D01*
X132710525Y-121514475D01*
X132847568Y-121626943D01*
X133003919Y-121710514D01*
X133173569Y-121761977D01*
X133350000Y-121779354D01*
X133526430Y-121761977D01*
X133696080Y-121710514D01*
X133852431Y-121626943D01*
X133985000Y-121518148D01*
X134117568Y-121626943D01*
X134273919Y-121710514D01*
X134443569Y-121761977D01*
X134620000Y-121779354D01*
X134796430Y-121761977D01*
X134966080Y-121710514D01*
X135083298Y-121647860D01*
X135098552Y-121666448D01*
X135155653Y-121713309D01*
X135220800Y-121748131D01*
X135291487Y-121769574D01*
X135365000Y-121776814D01*
X136415000Y-121776814D01*
X136488513Y-121769574D01*
X136559200Y-121748131D01*
X136624347Y-121713309D01*
X136681448Y-121666448D01*
X136728309Y-121609347D01*
X136763131Y-121544200D01*
X136784574Y-121473513D01*
X136791814Y-121400000D01*
X136791814Y-119900000D01*
X136784574Y-119826487D01*
X136763131Y-119755800D01*
X136728309Y-119690653D01*
X136681448Y-119633552D01*
X136624347Y-119586691D01*
X136559200Y-119551869D01*
X136488513Y-119530426D01*
X136415000Y-119523186D01*
X135365000Y-119523186D01*
X135291487Y-119530426D01*
X135220800Y-119551869D01*
X135155653Y-119586691D01*
X135098552Y-119633552D01*
X135083298Y-119652139D01*
X134966081Y-119589486D01*
X134796431Y-119538023D01*
X134620000Y-119520646D01*
X134443570Y-119538023D01*
X134273920Y-119589486D01*
X134117569Y-119673057D01*
X133985001Y-119781853D01*
X133852432Y-119673057D01*
X133696081Y-119589486D01*
X133526431Y-119538023D01*
X133350000Y-119520646D01*
X133173570Y-119538023D01*
X133003920Y-119589486D01*
X132847569Y-119673057D01*
X132710526Y-119785525D01*
X132598058Y-119922568D01*
X132514486Y-120078919D01*
X132463023Y-120248569D01*
X132450000Y-120380793D01*
X131076814Y-120380793D01*
X131076814Y-119900000D01*
X131069574Y-119826487D01*
X131048131Y-119755800D01*
X131013309Y-119690653D01*
X130966448Y-119633552D01*
X130909347Y-119586691D01*
X130844200Y-119551869D01*
X130773513Y-119530426D01*
X130700000Y-119523186D01*
X129650000Y-119523186D01*
X129645227Y-119523656D01*
X129798883Y-119370000D01*
X131159306Y-119370000D01*
X131190000Y-119373023D01*
X131220694Y-119370000D01*
X131220704Y-119370000D01*
X131312521Y-119360957D01*
X131430334Y-119325219D01*
X131525929Y-119274122D01*
X137990000Y-119274122D01*
X137990000Y-119485878D01*
X138031312Y-119693566D01*
X138112348Y-119889203D01*
X138229993Y-120065272D01*
X138379728Y-120215007D01*
X138555797Y-120332652D01*
X138751434Y-120413688D01*
X138959122Y-120455000D01*
X139170878Y-120455000D01*
X139378566Y-120413688D01*
X139574203Y-120332652D01*
X139750272Y-120215007D01*
X139900007Y-120065272D01*
X140017652Y-119889203D01*
X140098688Y-119693566D01*
X140140000Y-119485878D01*
X140140000Y-119274122D01*
X140098688Y-119066434D01*
X140017652Y-118870797D01*
X139900007Y-118694728D01*
X139750272Y-118544993D01*
X139574203Y-118427348D01*
X139378566Y-118346312D01*
X139170878Y-118305000D01*
X138959122Y-118305000D01*
X138751434Y-118346312D01*
X138555797Y-118427348D01*
X138379728Y-118544993D01*
X138229993Y-118694728D01*
X138112348Y-118870797D01*
X138031312Y-119066434D01*
X137990000Y-119274122D01*
X131525929Y-119274122D01*
X131538911Y-119267183D01*
X131634080Y-119189080D01*
X131653658Y-119165224D01*
X134114308Y-116704574D01*
X136420000Y-116704574D01*
X136420000Y-116975426D01*
X136472841Y-117241073D01*
X136576491Y-117491307D01*
X136726968Y-117716511D01*
X136918489Y-117908032D01*
X137143693Y-118058509D01*
X137393927Y-118162159D01*
X137659574Y-118215000D01*
X137930426Y-118215000D01*
X138196073Y-118162159D01*
X138446307Y-118058509D01*
X138671511Y-117908032D01*
X138863032Y-117716511D01*
X139013509Y-117491307D01*
X139117159Y-117241073D01*
X139170000Y-116975426D01*
X139170000Y-116704574D01*
X139117159Y-116438927D01*
X139013509Y-116188693D01*
X138863032Y-115963489D01*
X138671511Y-115771968D01*
X138446307Y-115621491D01*
X138196073Y-115517841D01*
X137930426Y-115465000D01*
X137659574Y-115465000D01*
X137393927Y-115517841D01*
X137143693Y-115621491D01*
X136918489Y-115771968D01*
X136726968Y-115963489D01*
X136576491Y-116188693D01*
X136472841Y-116438927D01*
X136420000Y-116704574D01*
X134114308Y-116704574D01*
X134405229Y-116413654D01*
X134429080Y-116394080D01*
X134507183Y-116298911D01*
X134565219Y-116190334D01*
X134600957Y-116072521D01*
X134610000Y-115980704D01*
X134610000Y-115980702D01*
X134613024Y-115950000D01*
X134610000Y-115919299D01*
X134610000Y-115826814D01*
X134735000Y-115826814D01*
X134808513Y-115819574D01*
X134879200Y-115798131D01*
X134944347Y-115763309D01*
X135001448Y-115716448D01*
X135048309Y-115659347D01*
X135083131Y-115594200D01*
X135104574Y-115523513D01*
X135111814Y-115450000D01*
X135111814Y-114450000D01*
X135104574Y-114376487D01*
X135083131Y-114305800D01*
X135080031Y-114300000D01*
X135083131Y-114294200D01*
X135104574Y-114223513D01*
X135111814Y-114150000D01*
X135111814Y-113150000D01*
X135104574Y-113076487D01*
X135083131Y-113005800D01*
X135048309Y-112940653D01*
X135001448Y-112883552D01*
X134944347Y-112836691D01*
X134879200Y-112801869D01*
X134808513Y-112780426D01*
X134735000Y-112773186D01*
X134610000Y-112773186D01*
X134610000Y-112653883D01*
X134878883Y-112385000D01*
X136565594Y-112385000D01*
X136576491Y-112411307D01*
X136726968Y-112636511D01*
X136918489Y-112828032D01*
X137143693Y-112978509D01*
X137393927Y-113082159D01*
X137659574Y-113135000D01*
X137930426Y-113135000D01*
X138196073Y-113082159D01*
X138446307Y-112978509D01*
X138671511Y-112828032D01*
X138863032Y-112636511D01*
X139013509Y-112411307D01*
X139117159Y-112161073D01*
X139170000Y-111895426D01*
X139170000Y-111624574D01*
X139117159Y-111358927D01*
X139013509Y-111108693D01*
X138863032Y-110883489D01*
X138671511Y-110691968D01*
X138446307Y-110541491D01*
X138196073Y-110437841D01*
X137930426Y-110385000D01*
X137659574Y-110385000D01*
X137393927Y-110437841D01*
X137143693Y-110541491D01*
X136918489Y-110691968D01*
X136726968Y-110883489D01*
X136576491Y-111108693D01*
X136565594Y-111135000D01*
X134650702Y-111135000D01*
X134620000Y-111131976D01*
X134589298Y-111135000D01*
X134589296Y-111135000D01*
X134497479Y-111144043D01*
X134379666Y-111179781D01*
X134329124Y-111206796D01*
X134271088Y-111237817D01*
X134199769Y-111296347D01*
X134199765Y-111296351D01*
X134175920Y-111315920D01*
X134156350Y-111339766D01*
X133564776Y-111931342D01*
X133540920Y-111950920D01*
X133462817Y-112046090D01*
X133404781Y-112154667D01*
X133369043Y-112272480D01*
X133360000Y-112364297D01*
X133360000Y-112364306D01*
X133356977Y-112395000D01*
X133360000Y-112425694D01*
X133360000Y-112773186D01*
X133235000Y-112773186D01*
X133161487Y-112780426D01*
X133090800Y-112801869D01*
X133025653Y-112836691D01*
X132968552Y-112883552D01*
X132921691Y-112940653D01*
X132886869Y-113005800D01*
X132865426Y-113076487D01*
X132858186Y-113150000D01*
X132858186Y-114150000D01*
X132865426Y-114223513D01*
X132886869Y-114294200D01*
X132889969Y-114300000D01*
X132886869Y-114305800D01*
X132865426Y-114376487D01*
X132858186Y-114450000D01*
X132858186Y-115450000D01*
X132865426Y-115523513D01*
X132886869Y-115594200D01*
X132921691Y-115659347D01*
X132968552Y-115716448D01*
X133025653Y-115763309D01*
X133090800Y-115798131D01*
X133161487Y-115819574D01*
X133225262Y-115825855D01*
X130931118Y-118120000D01*
X130677854Y-118120000D01*
X130826307Y-118058509D01*
X131051511Y-117908032D01*
X131243032Y-117716511D01*
X131393509Y-117491307D01*
X131497159Y-117241073D01*
X131550000Y-116975426D01*
X131550000Y-116704574D01*
X131497159Y-116438927D01*
X131393509Y-116188693D01*
X131243032Y-115963489D01*
X131051511Y-115771968D01*
X130826307Y-115621491D01*
X130576073Y-115517841D01*
X130310426Y-115465000D01*
X130039574Y-115465000D01*
X129773927Y-115517841D01*
X129523693Y-115621491D01*
X129298489Y-115771968D01*
X129106968Y-115963489D01*
X129011814Y-116105897D01*
X129011814Y-115840000D01*
X129004574Y-115766487D01*
X128983131Y-115695800D01*
X128948309Y-115630653D01*
X128901448Y-115573552D01*
X128844347Y-115526691D01*
X128779200Y-115491869D01*
X128708513Y-115470426D01*
X128635000Y-115463186D01*
X126635000Y-115463186D01*
X126561487Y-115470426D01*
X126490800Y-115491869D01*
X126425653Y-115526691D01*
X126368552Y-115573552D01*
X126321691Y-115630653D01*
X126286869Y-115695800D01*
X126265426Y-115766487D01*
X126258186Y-115840000D01*
X122252171Y-115840000D01*
X122171711Y-115759540D01*
X121943885Y-115607312D01*
X121853806Y-115570000D01*
X121943885Y-115532688D01*
X122171711Y-115380460D01*
X122365460Y-115186711D01*
X122517688Y-114958885D01*
X122622544Y-114705740D01*
X122676000Y-114437001D01*
X122676000Y-114162999D01*
X122622544Y-113894260D01*
X122517688Y-113641115D01*
X122365460Y-113413289D01*
X122171711Y-113219540D01*
X121943885Y-113067312D01*
X121853806Y-113030000D01*
X121943885Y-112992688D01*
X122171711Y-112840460D01*
X122365460Y-112646711D01*
X122400370Y-112594464D01*
X122409043Y-112682521D01*
X122444781Y-112800334D01*
X122502817Y-112908911D01*
X122580920Y-113004080D01*
X122676089Y-113082183D01*
X122784666Y-113140219D01*
X122902479Y-113175957D01*
X123025000Y-113188024D01*
X123543750Y-113185000D01*
X123700000Y-113028750D01*
X123700000Y-111885000D01*
X123950000Y-111885000D01*
X123950000Y-113028750D01*
X124106250Y-113185000D01*
X124625000Y-113188024D01*
X124747521Y-113175957D01*
X124865334Y-113140219D01*
X124973911Y-113082183D01*
X125069080Y-113004080D01*
X125147183Y-112908911D01*
X125205219Y-112800334D01*
X125240957Y-112682521D01*
X125253024Y-112560000D01*
X125250000Y-112041250D01*
X125093750Y-111885000D01*
X123950000Y-111885000D01*
X123700000Y-111885000D01*
X123680000Y-111885000D01*
X123680000Y-111635000D01*
X123700000Y-111635000D01*
X123700000Y-110491250D01*
X123950000Y-110491250D01*
X123950000Y-111635000D01*
X125093750Y-111635000D01*
X125104176Y-111624574D01*
X126260000Y-111624574D01*
X126260000Y-111895426D01*
X126312841Y-112161073D01*
X126416491Y-112411307D01*
X126566968Y-112636511D01*
X126758489Y-112828032D01*
X126983693Y-112978509D01*
X127233927Y-113082159D01*
X127499574Y-113135000D01*
X127770426Y-113135000D01*
X128036073Y-113082159D01*
X128286307Y-112978509D01*
X128420619Y-112888764D01*
X129223013Y-112888764D01*
X129319171Y-113150610D01*
X129606910Y-113290854D01*
X129916481Y-113372268D01*
X130235986Y-113391723D01*
X130553147Y-113348472D01*
X130855777Y-113244178D01*
X131030829Y-113150610D01*
X131126987Y-112888764D01*
X130175000Y-111936777D01*
X129223013Y-112888764D01*
X128420619Y-112888764D01*
X128511511Y-112828032D01*
X128703032Y-112636511D01*
X128754374Y-112559673D01*
X128784390Y-112615829D01*
X129046236Y-112711987D01*
X129998223Y-111760000D01*
X130351777Y-111760000D01*
X131303764Y-112711987D01*
X131565610Y-112615829D01*
X131705854Y-112328090D01*
X131787268Y-112018519D01*
X131806723Y-111699014D01*
X131763472Y-111381853D01*
X131659178Y-111079223D01*
X131565610Y-110904171D01*
X131303764Y-110808013D01*
X130351777Y-111760000D01*
X129998223Y-111760000D01*
X129046236Y-110808013D01*
X128784390Y-110904171D01*
X128755904Y-110962617D01*
X128703032Y-110883489D01*
X128511511Y-110691968D01*
X128420620Y-110631236D01*
X129223013Y-110631236D01*
X130175000Y-111583223D01*
X131126987Y-110631236D01*
X131030829Y-110369390D01*
X130743090Y-110229146D01*
X130433519Y-110147732D01*
X130114014Y-110128277D01*
X129796853Y-110171528D01*
X129494223Y-110275822D01*
X129319171Y-110369390D01*
X129223013Y-110631236D01*
X128420620Y-110631236D01*
X128286307Y-110541491D01*
X128036073Y-110437841D01*
X127770426Y-110385000D01*
X127499574Y-110385000D01*
X127233927Y-110437841D01*
X126983693Y-110541491D01*
X126758489Y-110691968D01*
X126566968Y-110883489D01*
X126416491Y-111108693D01*
X126312841Y-111358927D01*
X126260000Y-111624574D01*
X125104176Y-111624574D01*
X125250000Y-111478750D01*
X125253024Y-110960000D01*
X125240957Y-110837479D01*
X125205219Y-110719666D01*
X125147183Y-110611089D01*
X125069080Y-110515920D01*
X124973911Y-110437817D01*
X124865334Y-110379781D01*
X124747521Y-110344043D01*
X124625000Y-110331976D01*
X124106250Y-110335000D01*
X123950000Y-110491250D01*
X123700000Y-110491250D01*
X123543750Y-110335000D01*
X123025000Y-110331976D01*
X122902479Y-110344043D01*
X122784666Y-110379781D01*
X122676089Y-110437817D01*
X122580920Y-110515920D01*
X122502817Y-110611089D01*
X122444781Y-110719666D01*
X122409043Y-110837479D01*
X122400370Y-110925536D01*
X122365460Y-110873289D01*
X122171711Y-110679540D01*
X122115731Y-110642136D01*
X122150306Y-110623655D01*
X122248396Y-110360172D01*
X121285000Y-109396777D01*
X120321604Y-110360172D01*
X120419694Y-110623655D01*
X120455650Y-110641213D01*
X120398289Y-110679540D01*
X120204540Y-110873289D01*
X120052312Y-111101115D01*
X119947456Y-111354260D01*
X119894000Y-111622999D01*
X119894000Y-111897001D01*
X119947456Y-112165740D01*
X120052312Y-112418885D01*
X120204540Y-112646711D01*
X120398289Y-112840460D01*
X120626115Y-112992688D01*
X120716194Y-113030000D01*
X120626115Y-113067312D01*
X120398289Y-113219540D01*
X120204540Y-113413289D01*
X120052312Y-113641115D01*
X119947456Y-113894260D01*
X119894000Y-114162999D01*
X119894000Y-114437001D01*
X119947456Y-114705740D01*
X120052312Y-114958885D01*
X120204540Y-115186711D01*
X120398289Y-115380460D01*
X120626115Y-115532688D01*
X120716194Y-115570000D01*
X120626115Y-115607312D01*
X120398289Y-115759540D01*
X120204540Y-115953289D01*
X120052312Y-116181115D01*
X119947456Y-116434260D01*
X119894000Y-116702999D01*
X119894000Y-116977001D01*
X119947456Y-117245740D01*
X120052312Y-117498885D01*
X120204540Y-117726711D01*
X120398289Y-117920460D01*
X120626115Y-118072688D01*
X120716194Y-118110000D01*
X120626115Y-118147312D01*
X120398289Y-118299540D01*
X120204540Y-118493289D01*
X120052312Y-118721115D01*
X119947456Y-118974260D01*
X119894000Y-119242999D01*
X119894000Y-119517001D01*
X119947456Y-119785740D01*
X120052312Y-120038885D01*
X120204540Y-120266711D01*
X120398289Y-120460460D01*
X120626115Y-120612688D01*
X120716194Y-120650000D01*
X120626115Y-120687312D01*
X120398289Y-120839540D01*
X120204540Y-121033289D01*
X120052312Y-121261115D01*
X119947456Y-121514260D01*
X119894000Y-121782999D01*
X119894000Y-122057001D01*
X119947456Y-122325740D01*
X120052312Y-122578885D01*
X120204540Y-122806711D01*
X120398289Y-123000460D01*
X120626115Y-123152688D01*
X120716194Y-123190000D01*
X120626115Y-123227312D01*
X120398289Y-123379540D01*
X120204540Y-123573289D01*
X120052312Y-123801115D01*
X119947456Y-124054260D01*
X119894000Y-124322999D01*
X119894000Y-124597001D01*
X119947456Y-124865740D01*
X120052312Y-125118885D01*
X120204540Y-125346711D01*
X120398289Y-125540460D01*
X120626115Y-125692688D01*
X120716194Y-125730000D01*
X120626115Y-125767312D01*
X120398289Y-125919540D01*
X120204540Y-126113289D01*
X120052312Y-126341115D01*
X119947456Y-126594260D01*
X119894000Y-126862999D01*
X119894000Y-127137001D01*
X119947456Y-127405740D01*
X120052312Y-127658885D01*
X120204540Y-127886711D01*
X120398289Y-128080460D01*
X120626115Y-128232688D01*
X120716194Y-128270000D01*
X120626115Y-128307312D01*
X120398289Y-128459540D01*
X120204540Y-128653289D01*
X120052312Y-128881115D01*
X119947456Y-129134260D01*
X119894000Y-129402999D01*
X119894000Y-129677001D01*
X119947456Y-129945740D01*
X120052312Y-130198885D01*
X120204540Y-130426711D01*
X120398289Y-130620460D01*
X120626115Y-130772688D01*
X120716194Y-130810000D01*
X120626115Y-130847312D01*
X120398289Y-130999540D01*
X120204540Y-131193289D01*
X120052312Y-131421115D01*
X119947456Y-131674260D01*
X119894000Y-131942999D01*
X119894000Y-132217001D01*
X119947456Y-132485740D01*
X120052312Y-132738885D01*
X120204540Y-132966711D01*
X120398289Y-133160460D01*
X120626115Y-133312688D01*
X120716194Y-133350000D01*
X120626115Y-133387312D01*
X120398289Y-133539540D01*
X120204540Y-133733289D01*
X120052312Y-133961115D01*
X119947456Y-134214260D01*
X119894000Y-134482999D01*
X119894000Y-134757001D01*
X119947456Y-135025740D01*
X120052312Y-135278885D01*
X120204540Y-135506711D01*
X120398289Y-135700460D01*
X120626115Y-135852688D01*
X120716194Y-135890000D01*
X120626115Y-135927312D01*
X120398289Y-136079540D01*
X120204540Y-136273289D01*
X120052312Y-136501115D01*
X119947456Y-136754260D01*
X119894000Y-137022999D01*
X119894000Y-137297001D01*
X119947456Y-137565740D01*
X120052312Y-137818885D01*
X120204540Y-138046711D01*
X120398289Y-138240460D01*
X120626115Y-138392688D01*
X120716194Y-138430000D01*
X120626115Y-138467312D01*
X120398289Y-138619540D01*
X120204540Y-138813289D01*
X120052312Y-139041115D01*
X119947456Y-139294260D01*
X119894000Y-139562999D01*
X119894000Y-139837001D01*
X119947456Y-140105740D01*
X120052312Y-140358885D01*
X120204540Y-140586711D01*
X120398289Y-140780460D01*
X120626115Y-140932688D01*
X120716194Y-140970000D01*
X120626115Y-141007312D01*
X120398289Y-141159540D01*
X120204540Y-141353289D01*
X120052312Y-141581115D01*
X119947456Y-141834260D01*
X119894000Y-142102999D01*
X119894000Y-142377001D01*
X119947456Y-142645740D01*
X120052312Y-142898885D01*
X120204540Y-143126711D01*
X120398289Y-143320460D01*
X120498152Y-143387186D01*
X120269000Y-143387186D01*
X120195487Y-143394426D01*
X120124800Y-143415869D01*
X120059653Y-143450691D01*
X120002552Y-143497552D01*
X119955691Y-143554653D01*
X119920869Y-143619800D01*
X119899426Y-143690487D01*
X119892186Y-143764000D01*
X119815000Y-143764000D01*
X119815000Y-109961184D01*
X119881345Y-110085306D01*
X120144828Y-110183396D01*
X121108223Y-109220000D01*
X121461777Y-109220000D01*
X122425172Y-110183396D01*
X122688655Y-110085306D01*
X122830497Y-109794840D01*
X122912946Y-109482283D01*
X122932835Y-109159647D01*
X122889398Y-108839330D01*
X122784305Y-108533642D01*
X122688655Y-108354694D01*
X122425172Y-108256604D01*
X121461777Y-109220000D01*
X121108223Y-109220000D01*
X120144828Y-108256604D01*
X119881345Y-108354694D01*
X119815000Y-108490556D01*
X119815000Y-108079828D01*
X120321604Y-108079828D01*
X121285000Y-109043223D01*
X122248396Y-108079828D01*
X122150306Y-107816345D01*
X121859840Y-107674503D01*
X121547283Y-107592054D01*
X121224647Y-107572165D01*
X120904330Y-107615602D01*
X120598642Y-107720695D01*
X120419694Y-107816345D01*
X120321604Y-108079828D01*
X119815000Y-108079828D01*
X119815000Y-105205479D01*
X120110000Y-105205479D01*
X120110000Y-105594521D01*
X120185898Y-105976086D01*
X120334778Y-106335513D01*
X120550917Y-106658989D01*
X120826011Y-106934083D01*
X121149487Y-107150222D01*
X121508914Y-107299102D01*
X121890479Y-107375000D01*
X122279521Y-107375000D01*
X122661086Y-107299102D01*
X123020513Y-107150222D01*
X123343989Y-106934083D01*
X123619083Y-106658989D01*
X123698822Y-106539650D01*
X124305000Y-106539650D01*
X124305000Y-106820350D01*
X124359762Y-107095657D01*
X124467181Y-107354991D01*
X124623130Y-107588385D01*
X124821615Y-107786870D01*
X125055009Y-107942819D01*
X125314343Y-108050238D01*
X125589650Y-108105000D01*
X125870350Y-108105000D01*
X126145657Y-108050238D01*
X126404991Y-107942819D01*
X126638385Y-107786870D01*
X126836870Y-107588385D01*
X126992819Y-107354991D01*
X127000000Y-107337654D01*
X127007181Y-107354991D01*
X127163130Y-107588385D01*
X127361615Y-107786870D01*
X127595009Y-107942819D01*
X127854343Y-108050238D01*
X128129650Y-108105000D01*
X128410350Y-108105000D01*
X128685657Y-108050238D01*
X128944991Y-107942819D01*
X129178385Y-107786870D01*
X129376870Y-107588385D01*
X129389434Y-107569582D01*
X129645586Y-107667637D01*
X129895361Y-107417862D01*
X129895362Y-107417862D01*
X130633223Y-106680000D01*
X129895362Y-105942138D01*
X129895361Y-105942138D01*
X129645586Y-105692363D01*
X129389434Y-105790418D01*
X129376870Y-105771615D01*
X129178385Y-105573130D01*
X129092265Y-105515586D01*
X129822363Y-105515586D01*
X130072138Y-105765361D01*
X130072138Y-105765362D01*
X130810000Y-106503223D01*
X130824142Y-106489081D01*
X131000919Y-106665858D01*
X130986777Y-106680000D01*
X131000919Y-106694142D01*
X130824142Y-106870919D01*
X130810000Y-106856777D01*
X130072138Y-107594638D01*
X130072138Y-107594639D01*
X129822363Y-107844414D01*
X129924555Y-108111374D01*
X130220816Y-108256612D01*
X130539719Y-108341262D01*
X130869009Y-108362071D01*
X131196031Y-108318238D01*
X131508218Y-108211448D01*
X131695445Y-108111374D01*
X131797636Y-107844416D01*
X131911317Y-107958097D01*
X131966967Y-107902447D01*
X131986691Y-107939347D01*
X132033552Y-107996448D01*
X132090653Y-108043309D01*
X132155800Y-108078131D01*
X132226487Y-108099574D01*
X132300000Y-108106814D01*
X134400000Y-108106814D01*
X134473513Y-108099574D01*
X134544200Y-108078131D01*
X134609347Y-108043309D01*
X134666448Y-107996448D01*
X134713309Y-107939347D01*
X134748131Y-107874200D01*
X134769574Y-107803513D01*
X134776081Y-107737436D01*
X136279341Y-107737436D01*
X136363419Y-107989062D01*
X136634111Y-108119314D01*
X136925012Y-108194253D01*
X137224944Y-108211001D01*
X137522379Y-108168913D01*
X137805888Y-108069608D01*
X137956581Y-107989062D01*
X138040659Y-107737436D01*
X137160000Y-106856777D01*
X136279341Y-107737436D01*
X134776081Y-107737436D01*
X134776814Y-107730000D01*
X134776814Y-106744944D01*
X135628999Y-106744944D01*
X135671087Y-107042379D01*
X135770392Y-107325888D01*
X135850938Y-107476581D01*
X136102564Y-107560659D01*
X136983223Y-106680000D01*
X137336777Y-106680000D01*
X138217436Y-107560659D01*
X138423186Y-107491910D01*
X138423186Y-107580000D01*
X138430426Y-107653513D01*
X138451869Y-107724200D01*
X138486691Y-107789347D01*
X138533552Y-107846448D01*
X138590653Y-107893309D01*
X138655800Y-107928131D01*
X138726487Y-107949574D01*
X138800000Y-107956814D01*
X140285566Y-107956814D01*
X140232817Y-108021089D01*
X140174781Y-108129666D01*
X140139043Y-108247479D01*
X140126976Y-108370000D01*
X140130000Y-108938750D01*
X140286250Y-109095000D01*
X141480000Y-109095000D01*
X141480000Y-107901250D01*
X141323750Y-107745000D01*
X140938109Y-107742950D01*
X140948131Y-107724200D01*
X140969574Y-107653513D01*
X140976814Y-107580000D01*
X140976814Y-105780000D01*
X140969574Y-105706487D01*
X140948131Y-105635800D01*
X140913309Y-105570653D01*
X140866448Y-105513552D01*
X140809347Y-105466691D01*
X140744200Y-105431869D01*
X140673513Y-105410426D01*
X140600000Y-105403186D01*
X138800000Y-105403186D01*
X138726487Y-105410426D01*
X138655800Y-105431869D01*
X138590653Y-105466691D01*
X138533552Y-105513552D01*
X138486691Y-105570653D01*
X138451869Y-105635800D01*
X138430426Y-105706487D01*
X138423186Y-105780000D01*
X138423186Y-105868090D01*
X138217436Y-105799341D01*
X137336777Y-106680000D01*
X136983223Y-106680000D01*
X136102564Y-105799341D01*
X135850938Y-105883419D01*
X135720686Y-106154111D01*
X135645747Y-106445012D01*
X135628999Y-106744944D01*
X134776814Y-106744944D01*
X134776814Y-105630000D01*
X134776082Y-105622564D01*
X136279341Y-105622564D01*
X137160000Y-106503223D01*
X138040659Y-105622564D01*
X137956581Y-105370938D01*
X137685889Y-105240686D01*
X137549222Y-105205479D01*
X141310000Y-105205479D01*
X141310000Y-105594521D01*
X141385898Y-105976086D01*
X141534778Y-106335513D01*
X141750917Y-106658989D01*
X142026011Y-106934083D01*
X142349487Y-107150222D01*
X142708914Y-107299102D01*
X143090479Y-107375000D01*
X143479521Y-107375000D01*
X143861086Y-107299102D01*
X144220513Y-107150222D01*
X144543989Y-106934083D01*
X144819083Y-106658989D01*
X145035222Y-106335513D01*
X145184102Y-105976086D01*
X145260000Y-105594521D01*
X145260000Y-105205479D01*
X145184102Y-104823914D01*
X145035222Y-104464487D01*
X144819083Y-104141011D01*
X144543989Y-103865917D01*
X144220513Y-103649778D01*
X143861086Y-103500898D01*
X143479521Y-103425000D01*
X143090479Y-103425000D01*
X142708914Y-103500898D01*
X142349487Y-103649778D01*
X142026011Y-103865917D01*
X141750917Y-104141011D01*
X141534778Y-104464487D01*
X141385898Y-104823914D01*
X141310000Y-105205479D01*
X137549222Y-105205479D01*
X137394988Y-105165747D01*
X137095056Y-105148999D01*
X136797621Y-105191087D01*
X136514112Y-105290392D01*
X136363419Y-105370938D01*
X136279341Y-105622564D01*
X134776082Y-105622564D01*
X134769574Y-105556487D01*
X134748131Y-105485800D01*
X134713309Y-105420653D01*
X134666448Y-105363552D01*
X134609347Y-105316691D01*
X134544200Y-105281869D01*
X134473513Y-105260426D01*
X134400000Y-105253186D01*
X132300000Y-105253186D01*
X132226487Y-105260426D01*
X132155800Y-105281869D01*
X132090653Y-105316691D01*
X132033552Y-105363552D01*
X131986691Y-105420653D01*
X131966967Y-105457553D01*
X131911317Y-105401903D01*
X131797636Y-105515584D01*
X131695445Y-105248626D01*
X131399184Y-105103388D01*
X131080281Y-105018738D01*
X130750991Y-104997929D01*
X130423969Y-105041762D01*
X130111782Y-105148552D01*
X129924555Y-105248626D01*
X129822363Y-105515586D01*
X129092265Y-105515586D01*
X128944991Y-105417181D01*
X128685657Y-105309762D01*
X128410350Y-105255000D01*
X128129650Y-105255000D01*
X127854343Y-105309762D01*
X127595009Y-105417181D01*
X127361615Y-105573130D01*
X127163130Y-105771615D01*
X127007181Y-106005009D01*
X127000000Y-106022346D01*
X126992819Y-106005009D01*
X126836870Y-105771615D01*
X126638385Y-105573130D01*
X126404991Y-105417181D01*
X126145657Y-105309762D01*
X125870350Y-105255000D01*
X125589650Y-105255000D01*
X125314343Y-105309762D01*
X125055009Y-105417181D01*
X124821615Y-105573130D01*
X124623130Y-105771615D01*
X124467181Y-106005009D01*
X124359762Y-106264343D01*
X124305000Y-106539650D01*
X123698822Y-106539650D01*
X123835222Y-106335513D01*
X123984102Y-105976086D01*
X124060000Y-105594521D01*
X124060000Y-105205479D01*
X123984102Y-104823914D01*
X123835222Y-104464487D01*
X123619083Y-104141011D01*
X123343989Y-103865917D01*
X123020513Y-103649778D01*
X122661086Y-103500898D01*
X122279521Y-103425000D01*
X121890479Y-103425000D01*
X121508914Y-103500898D01*
X121149487Y-103649778D01*
X120826011Y-103865917D01*
X120550917Y-104141011D01*
X120334778Y-104464487D01*
X120185898Y-104823914D01*
X120110000Y-105205479D01*
X119815000Y-105205479D01*
X119815000Y-104166166D01*
X119832949Y-103983111D01*
X119879934Y-103827491D01*
X119956247Y-103683964D01*
X120058989Y-103557990D01*
X120184243Y-103454371D01*
X120327230Y-103377058D01*
X120482521Y-103328987D01*
X120664225Y-103309890D01*
X144758724Y-103309890D01*
X144941779Y-103327839D01*
G37*
X144941779Y-103327839D02*
X145097399Y-103374824D01*
X145240926Y-103451137D01*
X145366900Y-103553879D01*
X145470519Y-103679133D01*
X145547832Y-103822120D01*
X145595903Y-103977411D01*
X145615001Y-104159124D01*
X145615000Y-150473724D01*
X145597051Y-150656779D01*
X145550066Y-150812399D01*
X145473750Y-150955929D01*
X145371011Y-151081899D01*
X145245757Y-151185519D01*
X145102770Y-151262832D01*
X144947479Y-151310903D01*
X144765775Y-151330000D01*
X120628638Y-151330000D01*
X120625029Y-151330355D01*
X120488221Y-151316941D01*
X120332601Y-151269956D01*
X120189071Y-151193640D01*
X120063101Y-151090901D01*
X119959481Y-150965647D01*
X119882168Y-150822660D01*
X119834097Y-150667369D01*
X119815000Y-150485665D01*
X119815000Y-148835479D01*
X120060000Y-148835479D01*
X120060000Y-149224521D01*
X120135898Y-149606086D01*
X120284778Y-149965513D01*
X120500917Y-150288989D01*
X120776011Y-150564083D01*
X121099487Y-150780222D01*
X121458914Y-150929102D01*
X121840479Y-151005000D01*
X122229521Y-151005000D01*
X122611086Y-150929102D01*
X122970513Y-150780222D01*
X123293989Y-150564083D01*
X123569083Y-150288989D01*
X123785222Y-149965513D01*
X123934102Y-149606086D01*
X124010000Y-149224521D01*
X124010000Y-149104348D01*
X127680000Y-149104348D01*
X127680000Y-149345652D01*
X127727076Y-149582319D01*
X127819419Y-149805255D01*
X127953481Y-150005892D01*
X128124108Y-150176519D01*
X128324745Y-150310581D01*
X128547681Y-150402924D01*
X128784348Y-150450000D01*
X129025652Y-150450000D01*
X129262319Y-150402924D01*
X129485255Y-150310581D01*
X129685892Y-150176519D01*
X129856519Y-150005892D01*
X129990581Y-149805255D01*
X130082924Y-149582319D01*
X130130000Y-149345652D01*
X130130000Y-149104348D01*
X130220000Y-149104348D01*
X130220000Y-149345652D01*
X130267076Y-149582319D01*
X130359419Y-149805255D01*
X130493481Y-150005892D01*
X130664108Y-150176519D01*
X130864745Y-150310581D01*
X131087681Y-150402924D01*
X131324348Y-150450000D01*
X131565652Y-150450000D01*
X131802319Y-150402924D01*
X132025255Y-150310581D01*
X132225892Y-150176519D01*
X132396519Y-150005892D01*
X132530581Y-149805255D01*
X132622924Y-149582319D01*
X132670000Y-149345652D01*
X132670000Y-149104348D01*
X132760000Y-149104348D01*
X132760000Y-149345652D01*
X132807076Y-149582319D01*
X132899419Y-149805255D01*
X133033481Y-150005892D01*
X133204108Y-150176519D01*
X133404745Y-150310581D01*
X133627681Y-150402924D01*
X133864348Y-150450000D01*
X134105652Y-150450000D01*
X134342319Y-150402924D01*
X134565255Y-150310581D01*
X134765892Y-150176519D01*
X134936519Y-150005892D01*
X135048232Y-149838702D01*
X135046976Y-150075000D01*
X135059043Y-150197521D01*
X135094781Y-150315334D01*
X135152817Y-150423911D01*
X135230920Y-150519080D01*
X135326089Y-150597183D01*
X135434666Y-150655219D01*
X135552479Y-150690957D01*
X135675000Y-150703024D01*
X136243750Y-150700000D01*
X136400000Y-150543750D01*
X136400000Y-149350000D01*
X136650000Y-149350000D01*
X136650000Y-150543750D01*
X136806250Y-150700000D01*
X137375000Y-150703024D01*
X137497521Y-150690957D01*
X137615334Y-150655219D01*
X137723911Y-150597183D01*
X137819080Y-150519080D01*
X137897183Y-150423911D01*
X137955219Y-150315334D01*
X137990957Y-150197521D01*
X138003024Y-150075000D01*
X138000000Y-149506250D01*
X137843750Y-149350000D01*
X136650000Y-149350000D01*
X136400000Y-149350000D01*
X136380000Y-149350000D01*
X136380000Y-149100000D01*
X136400000Y-149100000D01*
X136400000Y-147906250D01*
X136650000Y-147906250D01*
X136650000Y-149100000D01*
X137843750Y-149100000D01*
X138000000Y-148943750D01*
X138000575Y-148835479D01*
X141310000Y-148835479D01*
X141310000Y-149224521D01*
X141385898Y-149606086D01*
X141534778Y-149965513D01*
X141750917Y-150288989D01*
X142026011Y-150564083D01*
X142349487Y-150780222D01*
X142708914Y-150929102D01*
X143090479Y-151005000D01*
X143479521Y-151005000D01*
X143861086Y-150929102D01*
X144220513Y-150780222D01*
X144543989Y-150564083D01*
X144819083Y-150288989D01*
X145035222Y-149965513D01*
X145184102Y-149606086D01*
X145260000Y-149224521D01*
X145260000Y-148835479D01*
X145184102Y-148453914D01*
X145035222Y-148094487D01*
X144819083Y-147771011D01*
X144543989Y-147495917D01*
X144220513Y-147279778D01*
X143861086Y-147130898D01*
X143479521Y-147055000D01*
X143090479Y-147055000D01*
X142708914Y-147130898D01*
X142349487Y-147279778D01*
X142026011Y-147495917D01*
X141750917Y-147771011D01*
X141534778Y-148094487D01*
X141385898Y-148453914D01*
X141310000Y-148835479D01*
X138000575Y-148835479D01*
X138003024Y-148375000D01*
X137990957Y-148252479D01*
X137955219Y-148134666D01*
X137897183Y-148026089D01*
X137819080Y-147930920D01*
X137723911Y-147852817D01*
X137615334Y-147794781D01*
X137497521Y-147759043D01*
X137375000Y-147746976D01*
X136806250Y-147750000D01*
X136650000Y-147906250D01*
X136400000Y-147906250D01*
X136243750Y-147750000D01*
X135675000Y-147746976D01*
X135552479Y-147759043D01*
X135434666Y-147794781D01*
X135326089Y-147852817D01*
X135230920Y-147930920D01*
X135152817Y-148026089D01*
X135094781Y-148134666D01*
X135059043Y-148252479D01*
X135046976Y-148375000D01*
X135048232Y-148611298D01*
X134936519Y-148444108D01*
X134765892Y-148273481D01*
X134565255Y-148139419D01*
X134342319Y-148047076D01*
X134105652Y-148000000D01*
X133864348Y-148000000D01*
X133627681Y-148047076D01*
X133404745Y-148139419D01*
X133204108Y-148273481D01*
X133033481Y-148444108D01*
X132899419Y-148644745D01*
X132807076Y-148867681D01*
X132760000Y-149104348D01*
X132670000Y-149104348D01*
X132622924Y-148867681D01*
X132530581Y-148644745D01*
X132396519Y-148444108D01*
X132225892Y-148273481D01*
X132025255Y-148139419D01*
X131802319Y-148047076D01*
X131565652Y-148000000D01*
X131324348Y-148000000D01*
X131087681Y-148047076D01*
X130864745Y-148139419D01*
X130664108Y-148273481D01*
X130493481Y-148444108D01*
X130359419Y-148644745D01*
X130267076Y-148867681D01*
X130220000Y-149104348D01*
X130130000Y-149104348D01*
X130082924Y-148867681D01*
X129990581Y-148644745D01*
X129856519Y-148444108D01*
X129685892Y-148273481D01*
X129485255Y-148139419D01*
X129262319Y-148047076D01*
X129025652Y-148000000D01*
X128784348Y-148000000D01*
X128547681Y-148047076D01*
X128324745Y-148139419D01*
X128124108Y-148273481D01*
X127953481Y-148444108D01*
X127819419Y-148644745D01*
X127727076Y-148867681D01*
X127680000Y-149104348D01*
X124010000Y-149104348D01*
X124010000Y-148835479D01*
X123934102Y-148453914D01*
X123785222Y-148094487D01*
X123569083Y-147771011D01*
X123293989Y-147495917D01*
X122970513Y-147279778D01*
X122611086Y-147130898D01*
X122229521Y-147055000D01*
X121840479Y-147055000D01*
X121458914Y-147130898D01*
X121099487Y-147279778D01*
X120776011Y-147495917D01*
X120500917Y-147771011D01*
X120284778Y-148094487D01*
X120135898Y-148453914D01*
X120060000Y-148835479D01*
X119815000Y-148835479D01*
X119815000Y-143764000D01*
X119892186Y-143764000D01*
X119892186Y-145796000D01*
X119899426Y-145869513D01*
X119920869Y-145940200D01*
X119955691Y-146005347D01*
X120002552Y-146062448D01*
X120059653Y-146109309D01*
X120124800Y-146144131D01*
X120195487Y-146165574D01*
X120269000Y-146172814D01*
X122301000Y-146172814D01*
X122374513Y-146165574D01*
X122445200Y-146144131D01*
X122510347Y-146109309D01*
X122567448Y-146062448D01*
X122614309Y-146005347D01*
X122649131Y-145940200D01*
X122652422Y-145929348D01*
X128950000Y-145929348D01*
X128950000Y-146170652D01*
X128997076Y-146407319D01*
X129089419Y-146630255D01*
X129223481Y-146830892D01*
X129394108Y-147001519D01*
X129594745Y-147135581D01*
X129817681Y-147227924D01*
X130054348Y-147275000D01*
X130295652Y-147275000D01*
X130532319Y-147227924D01*
X130755255Y-147135581D01*
X130955892Y-147001519D01*
X131126519Y-146830892D01*
X131260581Y-146630255D01*
X131315940Y-146496605D01*
X131379406Y-146675962D01*
X131527188Y-146924496D01*
X131720617Y-147139423D01*
X131952260Y-147312485D01*
X132213214Y-147437030D01*
X132361628Y-147482045D01*
X132590000Y-147362812D01*
X132590000Y-146175000D01*
X132570000Y-146175000D01*
X132570000Y-145925000D01*
X132590000Y-145925000D01*
X132590000Y-144737188D01*
X132840000Y-144737188D01*
X132840000Y-145925000D01*
X132860000Y-145925000D01*
X132860000Y-146175000D01*
X132840000Y-146175000D01*
X132840000Y-147362812D01*
X133068372Y-147482045D01*
X133216786Y-147437030D01*
X133477740Y-147312485D01*
X133709383Y-147139423D01*
X133902812Y-146924496D01*
X134028186Y-146713647D01*
X134028186Y-146900000D01*
X134035426Y-146973513D01*
X134056869Y-147044200D01*
X134091691Y-147109347D01*
X134138552Y-147166448D01*
X134195653Y-147213309D01*
X134260800Y-147248131D01*
X134331487Y-147269574D01*
X134405000Y-147276814D01*
X136105000Y-147276814D01*
X136178513Y-147269574D01*
X136249200Y-147248131D01*
X136314347Y-147213309D01*
X136371448Y-147166448D01*
X136418309Y-147109347D01*
X136453131Y-147044200D01*
X136474574Y-146973513D01*
X136481814Y-146900000D01*
X136481814Y-145200000D01*
X136474574Y-145126487D01*
X136469516Y-145109813D01*
X140321699Y-145109813D01*
X140410701Y-145353835D01*
X140545599Y-145575805D01*
X140721209Y-145767193D01*
X140930783Y-145920643D01*
X141166266Y-146030259D01*
X141275188Y-146063296D01*
X141480000Y-145942046D01*
X141480000Y-144905000D01*
X140442154Y-144905000D01*
X140321699Y-145109813D01*
X136469516Y-145109813D01*
X136453131Y-145055800D01*
X136418309Y-144990653D01*
X136371448Y-144933552D01*
X136314347Y-144886691D01*
X136249200Y-144851869D01*
X136178513Y-144830426D01*
X136105000Y-144823186D01*
X134405000Y-144823186D01*
X134331487Y-144830426D01*
X134260800Y-144851869D01*
X134195653Y-144886691D01*
X134138552Y-144933552D01*
X134091691Y-144990653D01*
X134056869Y-145055800D01*
X134035426Y-145126487D01*
X134028186Y-145200000D01*
X134028186Y-145386353D01*
X133902812Y-145175504D01*
X133709383Y-144960577D01*
X133477740Y-144787515D01*
X133216786Y-144662970D01*
X133068372Y-144617955D01*
X132840000Y-144737188D01*
X132590000Y-144737188D01*
X132361628Y-144617955D01*
X132213214Y-144662970D01*
X131952260Y-144787515D01*
X131720617Y-144960577D01*
X131527188Y-145175504D01*
X131379406Y-145424038D01*
X131315940Y-145603395D01*
X131260581Y-145469745D01*
X131126519Y-145269108D01*
X130955892Y-145098481D01*
X130755255Y-144964419D01*
X130532319Y-144872076D01*
X130295652Y-144825000D01*
X130054348Y-144825000D01*
X129817681Y-144872076D01*
X129594745Y-144964419D01*
X129394108Y-145098481D01*
X129223481Y-145269108D01*
X129089419Y-145469745D01*
X128997076Y-145692681D01*
X128950000Y-145929348D01*
X122652422Y-145929348D01*
X122670574Y-145869513D01*
X122677814Y-145796000D01*
X122677814Y-144450187D01*
X140321699Y-144450187D01*
X140442154Y-144655000D01*
X141480000Y-144655000D01*
X141480000Y-143617954D01*
X141275188Y-143496704D01*
X141166266Y-143529741D01*
X140930783Y-143639357D01*
X140721209Y-143792807D01*
X140545599Y-143984195D01*
X140410701Y-144206165D01*
X140321699Y-144450187D01*
X122677814Y-144450187D01*
X122677814Y-143764000D01*
X122670574Y-143690487D01*
X122649131Y-143619800D01*
X122614309Y-143554653D01*
X122567448Y-143497552D01*
X122510347Y-143450691D01*
X122445200Y-143415869D01*
X122374513Y-143394426D01*
X122301000Y-143387186D01*
X122071848Y-143387186D01*
X122171711Y-143320460D01*
X122365460Y-143126711D01*
X122517688Y-142898885D01*
X122622544Y-142645740D01*
X122676000Y-142377001D01*
X122676000Y-142102999D01*
X122622544Y-141834260D01*
X122517688Y-141581115D01*
X122365460Y-141353289D01*
X122171711Y-141159540D01*
X121943885Y-141007312D01*
X121853806Y-140970000D01*
X121943885Y-140932688D01*
X122171711Y-140780460D01*
X122365460Y-140586711D01*
X122514923Y-140363023D01*
X122562515Y-140462740D01*
X122735577Y-140694383D01*
X122950504Y-140887812D01*
X123199038Y-141035594D01*
X123471627Y-141132050D01*
X123700000Y-141013449D01*
X123700000Y-139825000D01*
X123950000Y-139825000D01*
X123950000Y-141013449D01*
X124178373Y-141132050D01*
X124450962Y-141035594D01*
X124699496Y-140887812D01*
X124914423Y-140694383D01*
X125087485Y-140462740D01*
X125212030Y-140201786D01*
X125257045Y-140053372D01*
X125137812Y-139825000D01*
X123950000Y-139825000D01*
X123700000Y-139825000D01*
X123680000Y-139825000D01*
X123680000Y-139575000D01*
X123700000Y-139575000D01*
X123700000Y-139555000D01*
X123950000Y-139555000D01*
X123950000Y-139575000D01*
X125137812Y-139575000D01*
X125257045Y-139346628D01*
X125212030Y-139198214D01*
X125087485Y-138937260D01*
X124914423Y-138705617D01*
X124699496Y-138512188D01*
X124450962Y-138364406D01*
X124271605Y-138300940D01*
X124405255Y-138245581D01*
X124605892Y-138111519D01*
X124776519Y-137940892D01*
X124880683Y-137785000D01*
X140729721Y-137785000D01*
X140769993Y-137845272D01*
X140919728Y-137995007D01*
X141095797Y-138112652D01*
X141291434Y-138193688D01*
X141499122Y-138235000D01*
X141710878Y-138235000D01*
X141918566Y-138193688D01*
X142114203Y-138112652D01*
X142290272Y-137995007D01*
X142440007Y-137845272D01*
X142557652Y-137669203D01*
X142638688Y-137473566D01*
X142680000Y-137265878D01*
X142680000Y-137054122D01*
X142665858Y-136983025D01*
X142785812Y-136863071D01*
X142754000Y-137022999D01*
X142754000Y-137297001D01*
X142807456Y-137565740D01*
X142912312Y-137818885D01*
X143064540Y-138046711D01*
X143258289Y-138240460D01*
X143486115Y-138392688D01*
X143576194Y-138430000D01*
X143486115Y-138467312D01*
X143258289Y-138619540D01*
X143064540Y-138813289D01*
X142912312Y-139041115D01*
X142807456Y-139294260D01*
X142754000Y-139562999D01*
X142754000Y-139837001D01*
X142807456Y-140105740D01*
X142912312Y-140358885D01*
X143064540Y-140586711D01*
X143258289Y-140780460D01*
X143486115Y-140932688D01*
X143576194Y-140970000D01*
X143486115Y-141007312D01*
X143258289Y-141159540D01*
X143064540Y-141353289D01*
X142912312Y-141581115D01*
X142807456Y-141834260D01*
X142754000Y-142102999D01*
X142754000Y-142377001D01*
X142807456Y-142645740D01*
X142912312Y-142898885D01*
X143064540Y-143126711D01*
X143258289Y-143320460D01*
X143486115Y-143472688D01*
X143576194Y-143510000D01*
X143486115Y-143547312D01*
X143258289Y-143699540D01*
X143064540Y-143893289D01*
X142912312Y-144121115D01*
X142835720Y-144306024D01*
X142799299Y-144206165D01*
X142664401Y-143984195D01*
X142488791Y-143792807D01*
X142279217Y-143639357D01*
X142043734Y-143529741D01*
X141934812Y-143496704D01*
X141730000Y-143617954D01*
X141730000Y-144655000D01*
X141750000Y-144655000D01*
X141750000Y-144905000D01*
X141730000Y-144905000D01*
X141730000Y-145942046D01*
X141934812Y-146063296D01*
X142043734Y-146030259D01*
X142279217Y-145920643D01*
X142488791Y-145767193D01*
X142664401Y-145575805D01*
X142799299Y-145353835D01*
X142835720Y-145253976D01*
X142912312Y-145438885D01*
X143064540Y-145666711D01*
X143258289Y-145860460D01*
X143486115Y-146012688D01*
X143739260Y-146117544D01*
X144007999Y-146171000D01*
X144282001Y-146171000D01*
X144550740Y-146117544D01*
X144803885Y-146012688D01*
X145031711Y-145860460D01*
X145225460Y-145666711D01*
X145377688Y-145438885D01*
X145482544Y-145185740D01*
X145536000Y-144917001D01*
X145536000Y-144642999D01*
X145482544Y-144374260D01*
X145377688Y-144121115D01*
X145225460Y-143893289D01*
X145031711Y-143699540D01*
X144803885Y-143547312D01*
X144713806Y-143510000D01*
X144803885Y-143472688D01*
X145031711Y-143320460D01*
X145225460Y-143126711D01*
X145377688Y-142898885D01*
X145482544Y-142645740D01*
X145536000Y-142377001D01*
X145536000Y-142102999D01*
X145482544Y-141834260D01*
X145377688Y-141581115D01*
X145225460Y-141353289D01*
X145031711Y-141159540D01*
X144803885Y-141007312D01*
X144713806Y-140970000D01*
X144803885Y-140932688D01*
X145031711Y-140780460D01*
X145225460Y-140586711D01*
X145377688Y-140358885D01*
X145482544Y-140105740D01*
X145536000Y-139837001D01*
X145536000Y-139562999D01*
X145482544Y-139294260D01*
X145377688Y-139041115D01*
X145225460Y-138813289D01*
X145031711Y-138619540D01*
X144803885Y-138467312D01*
X144713806Y-138430000D01*
X144803885Y-138392688D01*
X145031711Y-138240460D01*
X145225460Y-138046711D01*
X145377688Y-137818885D01*
X145482544Y-137565740D01*
X145536000Y-137297001D01*
X145536000Y-137022999D01*
X145482544Y-136754260D01*
X145377688Y-136501115D01*
X145225460Y-136273289D01*
X145031711Y-136079540D01*
X144803885Y-135927312D01*
X144713806Y-135890000D01*
X144803885Y-135852688D01*
X145031711Y-135700460D01*
X145225460Y-135506711D01*
X145377688Y-135278885D01*
X145482544Y-135025740D01*
X145536000Y-134757001D01*
X145536000Y-134482999D01*
X145482544Y-134214260D01*
X145377688Y-133961115D01*
X145225460Y-133733289D01*
X145031711Y-133539540D01*
X144803885Y-133387312D01*
X144713806Y-133350000D01*
X144803885Y-133312688D01*
X145031711Y-133160460D01*
X145225460Y-132966711D01*
X145377688Y-132738885D01*
X145482544Y-132485740D01*
X145536000Y-132217001D01*
X145536000Y-131942999D01*
X145482544Y-131674260D01*
X145377688Y-131421115D01*
X145225460Y-131193289D01*
X145031711Y-130999540D01*
X144803885Y-130847312D01*
X144713806Y-130810000D01*
X144803885Y-130772688D01*
X145031711Y-130620460D01*
X145225460Y-130426711D01*
X145377688Y-130198885D01*
X145482544Y-129945740D01*
X145536000Y-129677001D01*
X145536000Y-129402999D01*
X145482544Y-129134260D01*
X145377688Y-128881115D01*
X145225460Y-128653289D01*
X145031711Y-128459540D01*
X144803885Y-128307312D01*
X144713806Y-128270000D01*
X144803885Y-128232688D01*
X145031711Y-128080460D01*
X145225460Y-127886711D01*
X145377688Y-127658885D01*
X145482544Y-127405740D01*
X145536000Y-127137001D01*
X145536000Y-126862999D01*
X145482544Y-126594260D01*
X145377688Y-126341115D01*
X145225460Y-126113289D01*
X145031711Y-125919540D01*
X144803885Y-125767312D01*
X144713806Y-125730000D01*
X144803885Y-125692688D01*
X145031711Y-125540460D01*
X145225460Y-125346711D01*
X145377688Y-125118885D01*
X145482544Y-124865740D01*
X145536000Y-124597001D01*
X145536000Y-124322999D01*
X145482544Y-124054260D01*
X145377688Y-123801115D01*
X145225460Y-123573289D01*
X145031711Y-123379540D01*
X144803885Y-123227312D01*
X144713806Y-123190000D01*
X144803885Y-123152688D01*
X145031711Y-123000460D01*
X145225460Y-122806711D01*
X145377688Y-122578885D01*
X145482544Y-122325740D01*
X145536000Y-122057001D01*
X145536000Y-121782999D01*
X145482544Y-121514260D01*
X145377688Y-121261115D01*
X145225460Y-121033289D01*
X145031711Y-120839540D01*
X144803885Y-120687312D01*
X144713806Y-120650000D01*
X144803885Y-120612688D01*
X145031711Y-120460460D01*
X145225460Y-120266711D01*
X145377688Y-120038885D01*
X145482544Y-119785740D01*
X145536000Y-119517001D01*
X145536000Y-119242999D01*
X145482544Y-118974260D01*
X145377688Y-118721115D01*
X145225460Y-118493289D01*
X145031711Y-118299540D01*
X144803885Y-118147312D01*
X144713806Y-118110000D01*
X144803885Y-118072688D01*
X145031711Y-117920460D01*
X145225460Y-117726711D01*
X145377688Y-117498885D01*
X145482544Y-117245740D01*
X145536000Y-116977001D01*
X145536000Y-116702999D01*
X145482544Y-116434260D01*
X145377688Y-116181115D01*
X145225460Y-115953289D01*
X145031711Y-115759540D01*
X144803885Y-115607312D01*
X144713806Y-115570000D01*
X144803885Y-115532688D01*
X145031711Y-115380460D01*
X145225460Y-115186711D01*
X145377688Y-114958885D01*
X145482544Y-114705740D01*
X145536000Y-114437001D01*
X145536000Y-114162999D01*
X145482544Y-113894260D01*
X145377688Y-113641115D01*
X145225460Y-113413289D01*
X145031711Y-113219540D01*
X144803885Y-113067312D01*
X144713806Y-113030000D01*
X144803885Y-112992688D01*
X145031711Y-112840460D01*
X145225460Y-112646711D01*
X145377688Y-112418885D01*
X145482544Y-112165740D01*
X145536000Y-111897001D01*
X145536000Y-111622999D01*
X145482544Y-111354260D01*
X145377688Y-111101115D01*
X145225460Y-110873289D01*
X145031711Y-110679540D01*
X144803885Y-110527312D01*
X144713806Y-110490000D01*
X144803885Y-110452688D01*
X145031711Y-110300460D01*
X145225460Y-110106711D01*
X145377688Y-109878885D01*
X145482544Y-109625740D01*
X145536000Y-109357001D01*
X145536000Y-109082999D01*
X145482544Y-108814260D01*
X145377688Y-108561115D01*
X145225460Y-108333289D01*
X145031711Y-108139540D01*
X144803885Y-107987312D01*
X144550740Y-107882456D01*
X144282001Y-107829000D01*
X144007999Y-107829000D01*
X143739260Y-107882456D01*
X143486115Y-107987312D01*
X143258289Y-108139540D01*
X143078075Y-108319754D01*
X143070957Y-108247479D01*
X143035219Y-108129666D01*
X142977183Y-108021089D01*
X142899080Y-107925920D01*
X142803911Y-107847817D01*
X142695334Y-107789781D01*
X142577521Y-107754043D01*
X142455000Y-107741976D01*
X141886250Y-107745000D01*
X141730000Y-107901250D01*
X141730000Y-109095000D01*
X141750000Y-109095000D01*
X141750000Y-109345000D01*
X141730000Y-109345000D01*
X141730000Y-109365000D01*
X141480000Y-109365000D01*
X141480000Y-109345000D01*
X140286250Y-109345000D01*
X140130000Y-109501250D01*
X140126976Y-110070000D01*
X140139043Y-110192521D01*
X140174781Y-110310334D01*
X140232817Y-110418911D01*
X140310920Y-110514080D01*
X140406089Y-110592183D01*
X140514666Y-110650219D01*
X140632479Y-110685957D01*
X140755000Y-110698024D01*
X140991298Y-110696768D01*
X140824108Y-110808481D01*
X140653481Y-110979108D01*
X140519419Y-111179745D01*
X140427076Y-111402681D01*
X140380000Y-111639348D01*
X140380000Y-111880652D01*
X140427076Y-112117319D01*
X140519419Y-112340255D01*
X140653481Y-112540892D01*
X140824108Y-112711519D01*
X141024745Y-112845581D01*
X141247681Y-112937924D01*
X141484348Y-112985000D01*
X141725652Y-112985000D01*
X141962319Y-112937924D01*
X142185255Y-112845581D01*
X142385892Y-112711519D01*
X142556519Y-112540892D01*
X142690581Y-112340255D01*
X142782924Y-112117319D01*
X142790374Y-112079865D01*
X142807456Y-112165740D01*
X142912312Y-112418885D01*
X143064540Y-112646711D01*
X143258289Y-112840460D01*
X143486115Y-112992688D01*
X143576194Y-113030000D01*
X143486115Y-113067312D01*
X143258289Y-113219540D01*
X143064540Y-113413289D01*
X142912312Y-113641115D01*
X142807456Y-113894260D01*
X142790374Y-113980135D01*
X142782924Y-113942681D01*
X142690581Y-113719745D01*
X142556519Y-113519108D01*
X142385892Y-113348481D01*
X142185255Y-113214419D01*
X141962319Y-113122076D01*
X141725652Y-113075000D01*
X141484348Y-113075000D01*
X141247681Y-113122076D01*
X141024745Y-113214419D01*
X140824108Y-113348481D01*
X140653481Y-113519108D01*
X140519419Y-113719745D01*
X140427076Y-113942681D01*
X140380000Y-114179348D01*
X140380000Y-114420652D01*
X140427076Y-114657319D01*
X140519419Y-114880255D01*
X140653481Y-115080892D01*
X140824108Y-115251519D01*
X141024745Y-115385581D01*
X141247681Y-115477924D01*
X141484348Y-115525000D01*
X141725652Y-115525000D01*
X141962319Y-115477924D01*
X142185255Y-115385581D01*
X142385892Y-115251519D01*
X142556519Y-115080892D01*
X142690581Y-114880255D01*
X142782924Y-114657319D01*
X142790374Y-114619865D01*
X142807456Y-114705740D01*
X142912312Y-114958885D01*
X143064540Y-115186711D01*
X143258289Y-115380460D01*
X143486115Y-115532688D01*
X143576194Y-115570000D01*
X143486115Y-115607312D01*
X143258289Y-115759540D01*
X143064540Y-115953289D01*
X142912312Y-116181115D01*
X142807456Y-116434260D01*
X142790374Y-116520135D01*
X142782924Y-116482681D01*
X142690581Y-116259745D01*
X142556519Y-116059108D01*
X142385892Y-115888481D01*
X142185255Y-115754419D01*
X141962319Y-115662076D01*
X141725652Y-115615000D01*
X141484348Y-115615000D01*
X141247681Y-115662076D01*
X141024745Y-115754419D01*
X140824108Y-115888481D01*
X140653481Y-116059108D01*
X140519419Y-116259745D01*
X140427076Y-116482681D01*
X140380000Y-116719348D01*
X140380000Y-116960652D01*
X140427076Y-117197319D01*
X140519419Y-117420255D01*
X140653481Y-117620892D01*
X140824108Y-117791519D01*
X141024745Y-117925581D01*
X141247681Y-118017924D01*
X141484348Y-118065000D01*
X141725652Y-118065000D01*
X141962319Y-118017924D01*
X142185255Y-117925581D01*
X142385892Y-117791519D01*
X142556519Y-117620892D01*
X142690581Y-117420255D01*
X142782924Y-117197319D01*
X142790374Y-117159865D01*
X142807456Y-117245740D01*
X142912312Y-117498885D01*
X143064540Y-117726711D01*
X143258289Y-117920460D01*
X143486115Y-118072688D01*
X143576194Y-118110000D01*
X143486115Y-118147312D01*
X143258289Y-118299540D01*
X143064540Y-118493289D01*
X142912312Y-118721115D01*
X142898276Y-118755000D01*
X142540414Y-118755000D01*
X142478844Y-118662855D01*
X142322145Y-118506156D01*
X142137887Y-118383038D01*
X141933150Y-118298233D01*
X141715803Y-118255000D01*
X141494197Y-118255000D01*
X141276850Y-118298233D01*
X141072113Y-118383038D01*
X140887855Y-118506156D01*
X140731156Y-118662855D01*
X140608038Y-118847113D01*
X140523233Y-119051850D01*
X140480000Y-119269197D01*
X140480000Y-119490803D01*
X140523233Y-119708150D01*
X140608038Y-119912887D01*
X140731156Y-120097145D01*
X140887855Y-120253844D01*
X141072113Y-120376962D01*
X141276850Y-120461767D01*
X141494197Y-120505000D01*
X141715803Y-120505000D01*
X141933150Y-120461767D01*
X142137887Y-120376962D01*
X142322145Y-120253844D01*
X142478844Y-120097145D01*
X142540414Y-120005000D01*
X142898276Y-120005000D01*
X142912312Y-120038885D01*
X143064540Y-120266711D01*
X143258289Y-120460460D01*
X143486115Y-120612688D01*
X143576194Y-120650000D01*
X143486115Y-120687312D01*
X143258289Y-120839540D01*
X143064540Y-121033289D01*
X142912312Y-121261115D01*
X142898276Y-121295000D01*
X142540414Y-121295000D01*
X142478844Y-121202855D01*
X142322145Y-121046156D01*
X142137887Y-120923038D01*
X141933150Y-120838233D01*
X141715803Y-120795000D01*
X141494197Y-120795000D01*
X141276850Y-120838233D01*
X141072113Y-120923038D01*
X140887855Y-121046156D01*
X140731156Y-121202855D01*
X140608038Y-121387113D01*
X140523233Y-121591850D01*
X140480000Y-121809197D01*
X140480000Y-122030803D01*
X140523233Y-122248150D01*
X140608038Y-122452887D01*
X140731156Y-122637145D01*
X140887855Y-122793844D01*
X141072113Y-122916962D01*
X141276850Y-123001767D01*
X141494197Y-123045000D01*
X141715803Y-123045000D01*
X141933150Y-123001767D01*
X142137887Y-122916962D01*
X142322145Y-122793844D01*
X142478844Y-122637145D01*
X142540414Y-122545000D01*
X142898276Y-122545000D01*
X142912312Y-122578885D01*
X143064540Y-122806711D01*
X143258289Y-123000460D01*
X143486115Y-123152688D01*
X143576194Y-123190000D01*
X143486115Y-123227312D01*
X143258289Y-123379540D01*
X143064540Y-123573289D01*
X142912312Y-123801115D01*
X142898276Y-123835000D01*
X142540414Y-123835000D01*
X142478844Y-123742855D01*
X142322145Y-123586156D01*
X142137887Y-123463038D01*
X141933150Y-123378233D01*
X141715803Y-123335000D01*
X141494197Y-123335000D01*
X141276850Y-123378233D01*
X141072113Y-123463038D01*
X140887855Y-123586156D01*
X140731156Y-123742855D01*
X140608038Y-123927113D01*
X140523233Y-124131850D01*
X140480000Y-124349197D01*
X140480000Y-124570803D01*
X140523233Y-124788150D01*
X140608038Y-124992887D01*
X140731156Y-125177145D01*
X140887855Y-125333844D01*
X141072113Y-125456962D01*
X141276850Y-125541767D01*
X141494197Y-125585000D01*
X141715803Y-125585000D01*
X141933150Y-125541767D01*
X142137887Y-125456962D01*
X142322145Y-125333844D01*
X142478844Y-125177145D01*
X142540414Y-125085000D01*
X142898276Y-125085000D01*
X142912312Y-125118885D01*
X143064540Y-125346711D01*
X143258289Y-125540460D01*
X143486115Y-125692688D01*
X143576194Y-125730000D01*
X143486115Y-125767312D01*
X143258289Y-125919540D01*
X143064540Y-126113289D01*
X142912312Y-126341115D01*
X142898276Y-126375000D01*
X142540414Y-126375000D01*
X142478844Y-126282855D01*
X142322145Y-126126156D01*
X142137887Y-126003038D01*
X141933150Y-125918233D01*
X141715803Y-125875000D01*
X141494197Y-125875000D01*
X141276850Y-125918233D01*
X141072113Y-126003038D01*
X140887855Y-126126156D01*
X140731156Y-126282855D01*
X140608038Y-126467113D01*
X140523233Y-126671850D01*
X140480000Y-126889197D01*
X140480000Y-127110803D01*
X140523233Y-127328150D01*
X140608038Y-127532887D01*
X140731156Y-127717145D01*
X140887855Y-127873844D01*
X141072113Y-127996962D01*
X141276850Y-128081767D01*
X141494197Y-128125000D01*
X141715803Y-128125000D01*
X141933150Y-128081767D01*
X142137887Y-127996962D01*
X142322145Y-127873844D01*
X142478844Y-127717145D01*
X142540414Y-127625000D01*
X142898276Y-127625000D01*
X142912312Y-127658885D01*
X143064540Y-127886711D01*
X143258289Y-128080460D01*
X143486115Y-128232688D01*
X143576194Y-128270000D01*
X143486115Y-128307312D01*
X143258289Y-128459540D01*
X143064540Y-128653289D01*
X142912312Y-128881115D01*
X142807456Y-129134260D01*
X142754000Y-129402999D01*
X142754000Y-129677001D01*
X142807456Y-129945740D01*
X142912312Y-130198885D01*
X143064540Y-130426711D01*
X143258289Y-130620460D01*
X143486115Y-130772688D01*
X143576194Y-130810000D01*
X143486115Y-130847312D01*
X143258289Y-130999540D01*
X143064540Y-131193289D01*
X142912312Y-131421115D01*
X142807456Y-131674260D01*
X142754000Y-131942999D01*
X142754000Y-132217001D01*
X142807456Y-132485740D01*
X142912312Y-132738885D01*
X143064540Y-132966711D01*
X143258289Y-133160460D01*
X143486115Y-133312688D01*
X143576194Y-133350000D01*
X143486115Y-133387312D01*
X143258289Y-133539540D01*
X143064540Y-133733289D01*
X142912312Y-133961115D01*
X142807456Y-134214260D01*
X142754000Y-134482999D01*
X142754000Y-134757001D01*
X142807456Y-135025740D01*
X142821492Y-135059625D01*
X141781975Y-136099142D01*
X141710878Y-136085000D01*
X141499122Y-136085000D01*
X141291434Y-136126312D01*
X141095797Y-136207348D01*
X140919728Y-136324993D01*
X140769993Y-136474728D01*
X140729721Y-136535000D01*
X124880683Y-136535000D01*
X124776519Y-136379108D01*
X124605892Y-136208481D01*
X124405255Y-136074419D01*
X124182319Y-135982076D01*
X123945652Y-135935000D01*
X123704348Y-135935000D01*
X123467681Y-135982076D01*
X123244745Y-136074419D01*
X123044108Y-136208481D01*
X122873481Y-136379108D01*
X122739419Y-136579745D01*
X122647076Y-136802681D01*
X122639626Y-136840135D01*
X122622544Y-136754260D01*
X122517688Y-136501115D01*
X122365460Y-136273289D01*
X122171711Y-136079540D01*
X121943885Y-135927312D01*
X121853806Y-135890000D01*
X121943885Y-135852688D01*
X122171711Y-135700460D01*
X122365460Y-135506711D01*
X122517688Y-135278885D01*
X122598186Y-135084545D01*
X122598186Y-135470000D01*
X122605426Y-135543513D01*
X122626869Y-135614200D01*
X122661691Y-135679347D01*
X122708552Y-135736448D01*
X122765653Y-135783309D01*
X122830800Y-135818131D01*
X122901487Y-135839574D01*
X122975000Y-135846814D01*
X124675000Y-135846814D01*
X124748513Y-135839574D01*
X124819200Y-135818131D01*
X124884347Y-135783309D01*
X124941448Y-135736448D01*
X124988309Y-135679347D01*
X125023131Y-135614200D01*
X125044574Y-135543513D01*
X125051814Y-135470000D01*
X125051814Y-133770000D01*
X125044574Y-133696487D01*
X125023131Y-133625800D01*
X124988309Y-133560653D01*
X124941448Y-133503552D01*
X124884347Y-133456691D01*
X124819200Y-133421869D01*
X124748513Y-133400426D01*
X124675000Y-133393186D01*
X122975000Y-133393186D01*
X122901487Y-133400426D01*
X122830800Y-133421869D01*
X122765653Y-133456691D01*
X122708552Y-133503552D01*
X122661691Y-133560653D01*
X122626869Y-133625800D01*
X122605426Y-133696487D01*
X122598186Y-133770000D01*
X122598186Y-134155455D01*
X122517688Y-133961115D01*
X122365460Y-133733289D01*
X122171711Y-133539540D01*
X121943885Y-133387312D01*
X121853806Y-133350000D01*
X121943885Y-133312688D01*
X122171711Y-133160460D01*
X122365460Y-132966711D01*
X122517688Y-132738885D01*
X122622544Y-132485740D01*
X122676000Y-132217001D01*
X122676000Y-131942999D01*
X122622544Y-131674260D01*
X122517688Y-131421115D01*
X122365460Y-131193289D01*
X122171711Y-130999540D01*
X121943885Y-130847312D01*
X121853806Y-130810000D01*
X121943885Y-130772688D01*
X122171711Y-130620460D01*
X122365460Y-130426711D01*
X122517688Y-130198885D01*
X122622544Y-129945740D01*
X122676000Y-129677001D01*
X122676000Y-129434122D01*
X122750000Y-129434122D01*
X122750000Y-129645878D01*
X122791312Y-129853566D01*
X122872348Y-130049203D01*
X122989993Y-130225272D01*
X123139728Y-130375007D01*
X123315797Y-130492652D01*
X123511434Y-130573688D01*
X123719122Y-130615000D01*
X123930878Y-130615000D01*
X124138566Y-130573688D01*
X124334203Y-130492652D01*
X124510272Y-130375007D01*
X124660007Y-130225272D01*
X124700279Y-130165000D01*
X129509306Y-130165000D01*
X129540000Y-130168023D01*
X129570694Y-130165000D01*
X129570704Y-130165000D01*
X129662521Y-130155957D01*
X129780334Y-130120219D01*
X129888911Y-130062183D01*
X129984080Y-129984080D01*
X130003658Y-129960224D01*
X130529760Y-129434122D01*
X140530000Y-129434122D01*
X140530000Y-129645878D01*
X140571312Y-129853566D01*
X140652348Y-130049203D01*
X140769993Y-130225272D01*
X140919728Y-130375007D01*
X141095797Y-130492652D01*
X141291434Y-130573688D01*
X141499122Y-130615000D01*
X141710878Y-130615000D01*
X141918566Y-130573688D01*
X142114203Y-130492652D01*
X142290272Y-130375007D01*
X142440007Y-130225272D01*
X142557652Y-130049203D01*
X142638688Y-129853566D01*
X142680000Y-129645878D01*
X142680000Y-129434122D01*
X142638688Y-129226434D01*
X142557652Y-129030797D01*
X142440007Y-128854728D01*
X142290272Y-128704993D01*
X142114203Y-128587348D01*
X141918566Y-128506312D01*
X141710878Y-128465000D01*
X141499122Y-128465000D01*
X141291434Y-128506312D01*
X141095797Y-128587348D01*
X140919728Y-128704993D01*
X140769993Y-128854728D01*
X140652348Y-129030797D01*
X140571312Y-129226434D01*
X140530000Y-129434122D01*
X130529760Y-129434122D01*
X133069760Y-126894122D01*
X137990000Y-126894122D01*
X137990000Y-127105878D01*
X138031312Y-127313566D01*
X138112348Y-127509203D01*
X138229993Y-127685272D01*
X138379728Y-127835007D01*
X138555797Y-127952652D01*
X138751434Y-128033688D01*
X138959122Y-128075000D01*
X139170878Y-128075000D01*
X139378566Y-128033688D01*
X139574203Y-127952652D01*
X139750272Y-127835007D01*
X139900007Y-127685272D01*
X140017652Y-127509203D01*
X140098688Y-127313566D01*
X140140000Y-127105878D01*
X140140000Y-126894122D01*
X140098688Y-126686434D01*
X140017652Y-126490797D01*
X139900007Y-126314728D01*
X139750272Y-126164993D01*
X139574203Y-126047348D01*
X139378566Y-125966312D01*
X139170878Y-125925000D01*
X138959122Y-125925000D01*
X138751434Y-125966312D01*
X138555797Y-126047348D01*
X138379728Y-126164993D01*
X138229993Y-126314728D01*
X138112348Y-126490797D01*
X138031312Y-126686434D01*
X137990000Y-126894122D01*
X133069760Y-126894122D01*
X133358883Y-126605000D01*
X133436180Y-126605000D01*
X133605228Y-126571374D01*
X133764468Y-126505415D01*
X133907780Y-126409657D01*
X134029657Y-126287780D01*
X134068264Y-126230000D01*
X134761976Y-126230000D01*
X134774043Y-126352521D01*
X134809781Y-126470334D01*
X134867817Y-126578911D01*
X134945920Y-126674080D01*
X135041089Y-126752183D01*
X135149666Y-126810219D01*
X135267479Y-126845957D01*
X135390000Y-126858024D01*
X135608750Y-126855000D01*
X135765000Y-126698750D01*
X135765000Y-125855000D01*
X136015000Y-125855000D01*
X136015000Y-126698750D01*
X136171250Y-126855000D01*
X136390000Y-126858024D01*
X136512521Y-126845957D01*
X136630334Y-126810219D01*
X136738911Y-126752183D01*
X136834080Y-126674080D01*
X136912183Y-126578911D01*
X136970219Y-126470334D01*
X137005957Y-126352521D01*
X137018024Y-126230000D01*
X137015000Y-126011250D01*
X136858750Y-125855000D01*
X136015000Y-125855000D01*
X135765000Y-125855000D01*
X134921250Y-125855000D01*
X134765000Y-126011250D01*
X134761976Y-126230000D01*
X134068264Y-126230000D01*
X134125415Y-126144468D01*
X134191374Y-125985228D01*
X134225000Y-125816180D01*
X134225000Y-125643820D01*
X134191374Y-125474772D01*
X134125415Y-125315532D01*
X134068265Y-125230000D01*
X134761976Y-125230000D01*
X134765000Y-125448750D01*
X134921250Y-125605000D01*
X135765000Y-125605000D01*
X135765000Y-124761250D01*
X136015000Y-124761250D01*
X136015000Y-125605000D01*
X136858750Y-125605000D01*
X137015000Y-125448750D01*
X137018024Y-125230000D01*
X137005957Y-125107479D01*
X136970219Y-124989666D01*
X136912183Y-124881089D01*
X136834080Y-124785920D01*
X136738911Y-124707817D01*
X136630334Y-124649781D01*
X136512521Y-124614043D01*
X136390000Y-124601976D01*
X136171250Y-124605000D01*
X136015000Y-124761250D01*
X135765000Y-124761250D01*
X135608750Y-124605000D01*
X135390000Y-124601976D01*
X135267479Y-124614043D01*
X135149666Y-124649781D01*
X135041089Y-124707817D01*
X134945920Y-124785920D01*
X134867817Y-124881089D01*
X134809781Y-124989666D01*
X134774043Y-125107479D01*
X134761976Y-125230000D01*
X134068265Y-125230000D01*
X134029657Y-125172220D01*
X133907780Y-125050343D01*
X133764468Y-124954585D01*
X133605228Y-124888626D01*
X133436180Y-124855000D01*
X133263820Y-124855000D01*
X133094772Y-124888626D01*
X132935532Y-124954585D01*
X132792220Y-125050343D01*
X132670343Y-125172220D01*
X132574585Y-125315532D01*
X132508626Y-125474772D01*
X132475000Y-125643820D01*
X132475000Y-125721117D01*
X129281118Y-128915000D01*
X124700279Y-128915000D01*
X124660007Y-128854728D01*
X124510272Y-128704993D01*
X124334203Y-128587348D01*
X124138566Y-128506312D01*
X123930878Y-128465000D01*
X123719122Y-128465000D01*
X123511434Y-128506312D01*
X123315797Y-128587348D01*
X123139728Y-128704993D01*
X122989993Y-128854728D01*
X122872348Y-129030797D01*
X122791312Y-129226434D01*
X122750000Y-129434122D01*
X122676000Y-129434122D01*
X122676000Y-129402999D01*
X122622544Y-129134260D01*
X122517688Y-128881115D01*
X122365460Y-128653289D01*
X122171711Y-128459540D01*
X121943885Y-128307312D01*
X121853806Y-128270000D01*
X121943885Y-128232688D01*
X122171711Y-128080460D01*
X122365460Y-127886711D01*
X122517688Y-127658885D01*
X122622544Y-127405740D01*
X122676000Y-127137001D01*
X122676000Y-126862999D01*
X122622544Y-126594260D01*
X122517688Y-126341115D01*
X122365460Y-126113289D01*
X122171711Y-125919540D01*
X121943885Y-125767312D01*
X121853806Y-125730000D01*
X121943885Y-125692688D01*
X122017021Y-125643820D01*
X127395000Y-125643820D01*
X127395000Y-125816180D01*
X127428626Y-125985228D01*
X127494585Y-126144468D01*
X127590343Y-126287780D01*
X127712220Y-126409657D01*
X127855532Y-126505415D01*
X128014772Y-126571374D01*
X128183820Y-126605000D01*
X128356180Y-126605000D01*
X128525228Y-126571374D01*
X128684468Y-126505415D01*
X128827780Y-126409657D01*
X128949657Y-126287780D01*
X129045415Y-126144468D01*
X129111374Y-125985228D01*
X129145000Y-125816180D01*
X129145000Y-125643820D01*
X129935000Y-125643820D01*
X129935000Y-125816180D01*
X129968626Y-125985228D01*
X130034585Y-126144468D01*
X130130343Y-126287780D01*
X130252220Y-126409657D01*
X130395532Y-126505415D01*
X130554772Y-126571374D01*
X130723820Y-126605000D01*
X130896180Y-126605000D01*
X131065228Y-126571374D01*
X131224468Y-126505415D01*
X131367780Y-126409657D01*
X131489657Y-126287780D01*
X131585415Y-126144468D01*
X131651374Y-125985228D01*
X131685000Y-125816180D01*
X131685000Y-125643820D01*
X131651374Y-125474772D01*
X131585415Y-125315532D01*
X131489657Y-125172220D01*
X131367780Y-125050343D01*
X131224468Y-124954585D01*
X131065228Y-124888626D01*
X130896180Y-124855000D01*
X130723820Y-124855000D01*
X130554772Y-124888626D01*
X130395532Y-124954585D01*
X130252220Y-125050343D01*
X130130343Y-125172220D01*
X130034585Y-125315532D01*
X129968626Y-125474772D01*
X129935000Y-125643820D01*
X129145000Y-125643820D01*
X129111374Y-125474772D01*
X129045415Y-125315532D01*
X128949657Y-125172220D01*
X128827780Y-125050343D01*
X128684468Y-124954585D01*
X128525228Y-124888626D01*
X128356180Y-124855000D01*
X128183820Y-124855000D01*
X128014772Y-124888626D01*
X127855532Y-124954585D01*
X127712220Y-125050343D01*
X127590343Y-125172220D01*
X127494585Y-125315532D01*
X127428626Y-125474772D01*
X127395000Y-125643820D01*
X122017021Y-125643820D01*
X122171711Y-125540460D01*
X122365460Y-125346711D01*
X122517688Y-125118885D01*
X122622544Y-124865740D01*
X122676000Y-124597001D01*
X122676000Y-124322999D01*
X122622544Y-124054260D01*
X122517688Y-123801115D01*
X122365460Y-123573289D01*
X122171711Y-123379540D01*
X121943885Y-123227312D01*
X121853806Y-123190000D01*
X121943885Y-123152688D01*
X122171711Y-123000460D01*
X122365460Y-122806711D01*
X122517688Y-122578885D01*
X122594280Y-122393976D01*
X122630701Y-122493835D01*
X122765599Y-122715805D01*
X122941209Y-122907193D01*
X123150783Y-123060643D01*
X123386266Y-123170259D01*
X123495188Y-123203296D01*
X123700000Y-123082046D01*
X123700000Y-122045000D01*
X123950000Y-122045000D01*
X123950000Y-123082046D01*
X124154812Y-123203296D01*
X124263734Y-123170259D01*
X124499217Y-123060643D01*
X124708791Y-122907193D01*
X124884401Y-122715805D01*
X125019299Y-122493835D01*
X125108301Y-122249813D01*
X124987846Y-122045000D01*
X123950000Y-122045000D01*
X123700000Y-122045000D01*
X123680000Y-122045000D01*
X123680000Y-121795000D01*
X123700000Y-121795000D01*
X123700000Y-120757954D01*
X123950000Y-120757954D01*
X123950000Y-121795000D01*
X124987846Y-121795000D01*
X125108301Y-121590187D01*
X125019299Y-121346165D01*
X124884401Y-121124195D01*
X124708791Y-120932807D01*
X124499217Y-120779357D01*
X124263734Y-120669741D01*
X124154812Y-120636704D01*
X123950000Y-120757954D01*
X123700000Y-120757954D01*
X123495188Y-120636704D01*
X123386266Y-120669741D01*
X123150783Y-120779357D01*
X122941209Y-120932807D01*
X122765599Y-121124195D01*
X122630701Y-121346165D01*
X122594280Y-121446024D01*
X122517688Y-121261115D01*
X122365460Y-121033289D01*
X122171711Y-120839540D01*
X121943885Y-120687312D01*
X121853806Y-120650000D01*
X121943885Y-120612688D01*
X122171711Y-120460460D01*
X122365460Y-120266711D01*
X122517688Y-120038885D01*
X122622544Y-119785740D01*
X122665116Y-119571719D01*
X122695155Y-119722735D01*
X122783729Y-119936571D01*
X122912318Y-120129019D01*
X123075981Y-120292682D01*
X123268429Y-120421271D01*
X123482265Y-120509845D01*
X123709273Y-120555000D01*
X123940727Y-120555000D01*
X124167735Y-120509845D01*
X124381571Y-120421271D01*
X124574019Y-120292682D01*
X124737682Y-120129019D01*
X124866271Y-119936571D01*
X124954845Y-119722735D01*
X125000000Y-119495727D01*
X125000000Y-119264273D01*
X124954845Y-119037265D01*
X124866271Y-118823429D01*
X124737682Y-118630981D01*
X124574019Y-118467318D01*
X124381571Y-118338729D01*
X124167735Y-118250155D01*
X123940727Y-118205000D01*
X123709273Y-118205000D01*
X123482265Y-118250155D01*
X123268429Y-118338729D01*
X123075981Y-118467318D01*
X122912318Y-118630981D01*
X122783729Y-118823429D01*
X122695155Y-119037265D01*
X122665116Y-119188281D01*
X122622544Y-118974260D01*
X122517688Y-118721115D01*
X122365460Y-118493289D01*
X122171711Y-118299540D01*
X121943885Y-118147312D01*
X121853806Y-118110000D01*
X121943885Y-118072688D01*
X122171711Y-117920460D01*
X122365460Y-117726711D01*
X122517688Y-117498885D01*
X122622544Y-117245740D01*
X122676000Y-116977001D01*
X122676000Y-116702999D01*
X122622544Y-116434260D01*
X122517688Y-116181115D01*
X122365460Y-115953289D01*
X122252171Y-115840000D01*
X126258186Y-115840000D01*
X126258186Y-117840000D01*
X126265426Y-117913513D01*
X126286869Y-117984200D01*
X126321691Y-118049347D01*
X126368552Y-118106448D01*
X126425653Y-118153309D01*
X126490800Y-118188131D01*
X126561487Y-118209574D01*
X126635000Y-118216814D01*
X128635000Y-118216814D01*
X128708513Y-118209574D01*
X128779200Y-118188131D01*
X128844347Y-118153309D01*
X128901448Y-118106448D01*
X128948309Y-118049347D01*
X128983131Y-117984200D01*
X129004574Y-117913513D01*
X129011814Y-117840000D01*
X129011814Y-117574103D01*
X129106968Y-117716511D01*
X129298489Y-117908032D01*
X129523693Y-118058509D01*
X129672146Y-118120000D01*
X129570702Y-118120000D01*
X129540000Y-118116976D01*
X129509298Y-118120000D01*
X129509296Y-118120000D01*
X129417479Y-118129043D01*
X129299666Y-118164781D01*
X129255982Y-118188131D01*
X129191088Y-118222817D01*
X129119769Y-118281347D01*
X129119765Y-118281351D01*
X129095920Y-118300920D01*
X129076350Y-118324766D01*
X128484776Y-118916342D01*
X128460920Y-118935920D01*
X128382817Y-119031090D01*
X128324781Y-119139667D01*
X128289043Y-119257480D01*
X128280000Y-119349297D01*
X128280000Y-119349306D01*
X128276977Y-119380000D01*
X128280000Y-119410694D01*
X128280000Y-119773646D01*
X128270001Y-119781853D01*
X128137432Y-119673057D01*
X127981081Y-119589486D01*
X127811431Y-119538023D01*
X127635000Y-119520646D01*
X127458570Y-119538023D01*
X127288920Y-119589486D01*
X127132569Y-119673057D01*
X126995526Y-119785525D01*
X126883058Y-119922568D01*
X126799486Y-120078919D01*
X126748023Y-120248569D01*
X126735000Y-120380793D01*
X126735000Y-120919206D01*
X126748023Y-121051430D01*
X126799486Y-121221080D01*
X126883057Y-121377431D01*
X126995525Y-121514475D01*
X127132568Y-121626943D01*
X127288919Y-121710514D01*
X127458569Y-121761977D01*
X127635000Y-121779354D01*
X127811430Y-121761977D01*
X127981080Y-121710514D01*
X128137431Y-121626943D01*
X128270000Y-121518148D01*
X128402568Y-121626943D01*
X128558919Y-121710514D01*
X128728569Y-121761977D01*
X128905000Y-121779354D01*
X129081430Y-121761977D01*
X129251080Y-121710514D01*
X129368298Y-121647860D01*
X129383552Y-121666448D01*
X129440653Y-121713309D01*
X129505800Y-121748131D01*
X129576487Y-121769574D01*
X129650000Y-121776814D01*
X130700000Y-121776814D01*
X130773513Y-121769574D01*
X130844200Y-121748131D01*
X130909347Y-121713309D01*
X130966448Y-121666448D01*
X131013309Y-121609347D01*
X131048131Y-121544200D01*
X131069574Y-121473513D01*
X131076814Y-121400000D01*
X131076814Y-120380793D01*
X132450000Y-120380793D01*
X132450000Y-120919206D01*
X132463023Y-121051430D01*
X132514486Y-121221080D01*
X132598057Y-121377431D01*
X132710525Y-121514475D01*
X132847568Y-121626943D01*
X133003919Y-121710514D01*
X133173569Y-121761977D01*
X133350000Y-121779354D01*
X133526430Y-121761977D01*
X133696080Y-121710514D01*
X133852431Y-121626943D01*
X133985000Y-121518148D01*
X134117568Y-121626943D01*
X134273919Y-121710514D01*
X134443569Y-121761977D01*
X134620000Y-121779354D01*
X134796430Y-121761977D01*
X134966080Y-121710514D01*
X135083298Y-121647860D01*
X135098552Y-121666448D01*
X135155653Y-121713309D01*
X135220800Y-121748131D01*
X135291487Y-121769574D01*
X135365000Y-121776814D01*
X136415000Y-121776814D01*
X136488513Y-121769574D01*
X136559200Y-121748131D01*
X136624347Y-121713309D01*
X136681448Y-121666448D01*
X136728309Y-121609347D01*
X136763131Y-121544200D01*
X136784574Y-121473513D01*
X136791814Y-121400000D01*
X136791814Y-119900000D01*
X136784574Y-119826487D01*
X136763131Y-119755800D01*
X136728309Y-119690653D01*
X136681448Y-119633552D01*
X136624347Y-119586691D01*
X136559200Y-119551869D01*
X136488513Y-119530426D01*
X136415000Y-119523186D01*
X135365000Y-119523186D01*
X135291487Y-119530426D01*
X135220800Y-119551869D01*
X135155653Y-119586691D01*
X135098552Y-119633552D01*
X135083298Y-119652139D01*
X134966081Y-119589486D01*
X134796431Y-119538023D01*
X134620000Y-119520646D01*
X134443570Y-119538023D01*
X134273920Y-119589486D01*
X134117569Y-119673057D01*
X133985001Y-119781853D01*
X133852432Y-119673057D01*
X133696081Y-119589486D01*
X133526431Y-119538023D01*
X133350000Y-119520646D01*
X133173570Y-119538023D01*
X133003920Y-119589486D01*
X132847569Y-119673057D01*
X132710526Y-119785525D01*
X132598058Y-119922568D01*
X132514486Y-120078919D01*
X132463023Y-120248569D01*
X132450000Y-120380793D01*
X131076814Y-120380793D01*
X131076814Y-119900000D01*
X131069574Y-119826487D01*
X131048131Y-119755800D01*
X131013309Y-119690653D01*
X130966448Y-119633552D01*
X130909347Y-119586691D01*
X130844200Y-119551869D01*
X130773513Y-119530426D01*
X130700000Y-119523186D01*
X129650000Y-119523186D01*
X129645227Y-119523656D01*
X129798883Y-119370000D01*
X131159306Y-119370000D01*
X131190000Y-119373023D01*
X131220694Y-119370000D01*
X131220704Y-119370000D01*
X131312521Y-119360957D01*
X131430334Y-119325219D01*
X131525929Y-119274122D01*
X137990000Y-119274122D01*
X137990000Y-119485878D01*
X138031312Y-119693566D01*
X138112348Y-119889203D01*
X138229993Y-120065272D01*
X138379728Y-120215007D01*
X138555797Y-120332652D01*
X138751434Y-120413688D01*
X138959122Y-120455000D01*
X139170878Y-120455000D01*
X139378566Y-120413688D01*
X139574203Y-120332652D01*
X139750272Y-120215007D01*
X139900007Y-120065272D01*
X140017652Y-119889203D01*
X140098688Y-119693566D01*
X140140000Y-119485878D01*
X140140000Y-119274122D01*
X140098688Y-119066434D01*
X140017652Y-118870797D01*
X139900007Y-118694728D01*
X139750272Y-118544993D01*
X139574203Y-118427348D01*
X139378566Y-118346312D01*
X139170878Y-118305000D01*
X138959122Y-118305000D01*
X138751434Y-118346312D01*
X138555797Y-118427348D01*
X138379728Y-118544993D01*
X138229993Y-118694728D01*
X138112348Y-118870797D01*
X138031312Y-119066434D01*
X137990000Y-119274122D01*
X131525929Y-119274122D01*
X131538911Y-119267183D01*
X131634080Y-119189080D01*
X131653658Y-119165224D01*
X134114308Y-116704574D01*
X136420000Y-116704574D01*
X136420000Y-116975426D01*
X136472841Y-117241073D01*
X136576491Y-117491307D01*
X136726968Y-117716511D01*
X136918489Y-117908032D01*
X137143693Y-118058509D01*
X137393927Y-118162159D01*
X137659574Y-118215000D01*
X137930426Y-118215000D01*
X138196073Y-118162159D01*
X138446307Y-118058509D01*
X138671511Y-117908032D01*
X138863032Y-117716511D01*
X139013509Y-117491307D01*
X139117159Y-117241073D01*
X139170000Y-116975426D01*
X139170000Y-116704574D01*
X139117159Y-116438927D01*
X139013509Y-116188693D01*
X138863032Y-115963489D01*
X138671511Y-115771968D01*
X138446307Y-115621491D01*
X138196073Y-115517841D01*
X137930426Y-115465000D01*
X137659574Y-115465000D01*
X137393927Y-115517841D01*
X137143693Y-115621491D01*
X136918489Y-115771968D01*
X136726968Y-115963489D01*
X136576491Y-116188693D01*
X136472841Y-116438927D01*
X136420000Y-116704574D01*
X134114308Y-116704574D01*
X134405229Y-116413654D01*
X134429080Y-116394080D01*
X134507183Y-116298911D01*
X134565219Y-116190334D01*
X134600957Y-116072521D01*
X134610000Y-115980704D01*
X134610000Y-115980702D01*
X134613024Y-115950000D01*
X134610000Y-115919299D01*
X134610000Y-115826814D01*
X134735000Y-115826814D01*
X134808513Y-115819574D01*
X134879200Y-115798131D01*
X134944347Y-115763309D01*
X135001448Y-115716448D01*
X135048309Y-115659347D01*
X135083131Y-115594200D01*
X135104574Y-115523513D01*
X135111814Y-115450000D01*
X135111814Y-114450000D01*
X135104574Y-114376487D01*
X135083131Y-114305800D01*
X135080031Y-114300000D01*
X135083131Y-114294200D01*
X135104574Y-114223513D01*
X135111814Y-114150000D01*
X135111814Y-113150000D01*
X135104574Y-113076487D01*
X135083131Y-113005800D01*
X135048309Y-112940653D01*
X135001448Y-112883552D01*
X134944347Y-112836691D01*
X134879200Y-112801869D01*
X134808513Y-112780426D01*
X134735000Y-112773186D01*
X134610000Y-112773186D01*
X134610000Y-112653883D01*
X134878883Y-112385000D01*
X136565594Y-112385000D01*
X136576491Y-112411307D01*
X136726968Y-112636511D01*
X136918489Y-112828032D01*
X137143693Y-112978509D01*
X137393927Y-113082159D01*
X137659574Y-113135000D01*
X137930426Y-113135000D01*
X138196073Y-113082159D01*
X138446307Y-112978509D01*
X138671511Y-112828032D01*
X138863032Y-112636511D01*
X139013509Y-112411307D01*
X139117159Y-112161073D01*
X139170000Y-111895426D01*
X139170000Y-111624574D01*
X139117159Y-111358927D01*
X139013509Y-111108693D01*
X138863032Y-110883489D01*
X138671511Y-110691968D01*
X138446307Y-110541491D01*
X138196073Y-110437841D01*
X137930426Y-110385000D01*
X137659574Y-110385000D01*
X137393927Y-110437841D01*
X137143693Y-110541491D01*
X136918489Y-110691968D01*
X136726968Y-110883489D01*
X136576491Y-111108693D01*
X136565594Y-111135000D01*
X134650702Y-111135000D01*
X134620000Y-111131976D01*
X134589298Y-111135000D01*
X134589296Y-111135000D01*
X134497479Y-111144043D01*
X134379666Y-111179781D01*
X134329124Y-111206796D01*
X134271088Y-111237817D01*
X134199769Y-111296347D01*
X134199765Y-111296351D01*
X134175920Y-111315920D01*
X134156350Y-111339766D01*
X133564776Y-111931342D01*
X133540920Y-111950920D01*
X133462817Y-112046090D01*
X133404781Y-112154667D01*
X133369043Y-112272480D01*
X133360000Y-112364297D01*
X133360000Y-112364306D01*
X133356977Y-112395000D01*
X133360000Y-112425694D01*
X133360000Y-112773186D01*
X133235000Y-112773186D01*
X133161487Y-112780426D01*
X133090800Y-112801869D01*
X133025653Y-112836691D01*
X132968552Y-112883552D01*
X132921691Y-112940653D01*
X132886869Y-113005800D01*
X132865426Y-113076487D01*
X132858186Y-113150000D01*
X132858186Y-114150000D01*
X132865426Y-114223513D01*
X132886869Y-114294200D01*
X132889969Y-114300000D01*
X132886869Y-114305800D01*
X132865426Y-114376487D01*
X132858186Y-114450000D01*
X132858186Y-115450000D01*
X132865426Y-115523513D01*
X132886869Y-115594200D01*
X132921691Y-115659347D01*
X132968552Y-115716448D01*
X133025653Y-115763309D01*
X133090800Y-115798131D01*
X133161487Y-115819574D01*
X133225262Y-115825855D01*
X130931118Y-118120000D01*
X130677854Y-118120000D01*
X130826307Y-118058509D01*
X131051511Y-117908032D01*
X131243032Y-117716511D01*
X131393509Y-117491307D01*
X131497159Y-117241073D01*
X131550000Y-116975426D01*
X131550000Y-116704574D01*
X131497159Y-116438927D01*
X131393509Y-116188693D01*
X131243032Y-115963489D01*
X131051511Y-115771968D01*
X130826307Y-115621491D01*
X130576073Y-115517841D01*
X130310426Y-115465000D01*
X130039574Y-115465000D01*
X129773927Y-115517841D01*
X129523693Y-115621491D01*
X129298489Y-115771968D01*
X129106968Y-115963489D01*
X129011814Y-116105897D01*
X129011814Y-115840000D01*
X129004574Y-115766487D01*
X128983131Y-115695800D01*
X128948309Y-115630653D01*
X128901448Y-115573552D01*
X128844347Y-115526691D01*
X128779200Y-115491869D01*
X128708513Y-115470426D01*
X128635000Y-115463186D01*
X126635000Y-115463186D01*
X126561487Y-115470426D01*
X126490800Y-115491869D01*
X126425653Y-115526691D01*
X126368552Y-115573552D01*
X126321691Y-115630653D01*
X126286869Y-115695800D01*
X126265426Y-115766487D01*
X126258186Y-115840000D01*
X122252171Y-115840000D01*
X122171711Y-115759540D01*
X121943885Y-115607312D01*
X121853806Y-115570000D01*
X121943885Y-115532688D01*
X122171711Y-115380460D01*
X122365460Y-115186711D01*
X122517688Y-114958885D01*
X122622544Y-114705740D01*
X122676000Y-114437001D01*
X122676000Y-114162999D01*
X122622544Y-113894260D01*
X122517688Y-113641115D01*
X122365460Y-113413289D01*
X122171711Y-113219540D01*
X121943885Y-113067312D01*
X121853806Y-113030000D01*
X121943885Y-112992688D01*
X122171711Y-112840460D01*
X122365460Y-112646711D01*
X122400370Y-112594464D01*
X122409043Y-112682521D01*
X122444781Y-112800334D01*
X122502817Y-112908911D01*
X122580920Y-113004080D01*
X122676089Y-113082183D01*
X122784666Y-113140219D01*
X122902479Y-113175957D01*
X123025000Y-113188024D01*
X123543750Y-113185000D01*
X123700000Y-113028750D01*
X123700000Y-111885000D01*
X123950000Y-111885000D01*
X123950000Y-113028750D01*
X124106250Y-113185000D01*
X124625000Y-113188024D01*
X124747521Y-113175957D01*
X124865334Y-113140219D01*
X124973911Y-113082183D01*
X125069080Y-113004080D01*
X125147183Y-112908911D01*
X125205219Y-112800334D01*
X125240957Y-112682521D01*
X125253024Y-112560000D01*
X125250000Y-112041250D01*
X125093750Y-111885000D01*
X123950000Y-111885000D01*
X123700000Y-111885000D01*
X123680000Y-111885000D01*
X123680000Y-111635000D01*
X123700000Y-111635000D01*
X123700000Y-110491250D01*
X123950000Y-110491250D01*
X123950000Y-111635000D01*
X125093750Y-111635000D01*
X125104176Y-111624574D01*
X126260000Y-111624574D01*
X126260000Y-111895426D01*
X126312841Y-112161073D01*
X126416491Y-112411307D01*
X126566968Y-112636511D01*
X126758489Y-112828032D01*
X126983693Y-112978509D01*
X127233927Y-113082159D01*
X127499574Y-113135000D01*
X127770426Y-113135000D01*
X128036073Y-113082159D01*
X128286307Y-112978509D01*
X128420619Y-112888764D01*
X129223013Y-112888764D01*
X129319171Y-113150610D01*
X129606910Y-113290854D01*
X129916481Y-113372268D01*
X130235986Y-113391723D01*
X130553147Y-113348472D01*
X130855777Y-113244178D01*
X131030829Y-113150610D01*
X131126987Y-112888764D01*
X130175000Y-111936777D01*
X129223013Y-112888764D01*
X128420619Y-112888764D01*
X128511511Y-112828032D01*
X128703032Y-112636511D01*
X128754374Y-112559673D01*
X128784390Y-112615829D01*
X129046236Y-112711987D01*
X129998223Y-111760000D01*
X130351777Y-111760000D01*
X131303764Y-112711987D01*
X131565610Y-112615829D01*
X131705854Y-112328090D01*
X131787268Y-112018519D01*
X131806723Y-111699014D01*
X131763472Y-111381853D01*
X131659178Y-111079223D01*
X131565610Y-110904171D01*
X131303764Y-110808013D01*
X130351777Y-111760000D01*
X129998223Y-111760000D01*
X129046236Y-110808013D01*
X128784390Y-110904171D01*
X128755904Y-110962617D01*
X128703032Y-110883489D01*
X128511511Y-110691968D01*
X128420620Y-110631236D01*
X129223013Y-110631236D01*
X130175000Y-111583223D01*
X131126987Y-110631236D01*
X131030829Y-110369390D01*
X130743090Y-110229146D01*
X130433519Y-110147732D01*
X130114014Y-110128277D01*
X129796853Y-110171528D01*
X129494223Y-110275822D01*
X129319171Y-110369390D01*
X129223013Y-110631236D01*
X128420620Y-110631236D01*
X128286307Y-110541491D01*
X128036073Y-110437841D01*
X127770426Y-110385000D01*
X127499574Y-110385000D01*
X127233927Y-110437841D01*
X126983693Y-110541491D01*
X126758489Y-110691968D01*
X126566968Y-110883489D01*
X126416491Y-111108693D01*
X126312841Y-111358927D01*
X126260000Y-111624574D01*
X125104176Y-111624574D01*
X125250000Y-111478750D01*
X125253024Y-110960000D01*
X125240957Y-110837479D01*
X125205219Y-110719666D01*
X125147183Y-110611089D01*
X125069080Y-110515920D01*
X124973911Y-110437817D01*
X124865334Y-110379781D01*
X124747521Y-110344043D01*
X124625000Y-110331976D01*
X124106250Y-110335000D01*
X123950000Y-110491250D01*
X123700000Y-110491250D01*
X123543750Y-110335000D01*
X123025000Y-110331976D01*
X122902479Y-110344043D01*
X122784666Y-110379781D01*
X122676089Y-110437817D01*
X122580920Y-110515920D01*
X122502817Y-110611089D01*
X122444781Y-110719666D01*
X122409043Y-110837479D01*
X122400370Y-110925536D01*
X122365460Y-110873289D01*
X122171711Y-110679540D01*
X122115731Y-110642136D01*
X122150306Y-110623655D01*
X122248396Y-110360172D01*
X121285000Y-109396777D01*
X120321604Y-110360172D01*
X120419694Y-110623655D01*
X120455650Y-110641213D01*
X120398289Y-110679540D01*
X120204540Y-110873289D01*
X120052312Y-111101115D01*
X119947456Y-111354260D01*
X119894000Y-111622999D01*
X119894000Y-111897001D01*
X119947456Y-112165740D01*
X120052312Y-112418885D01*
X120204540Y-112646711D01*
X120398289Y-112840460D01*
X120626115Y-112992688D01*
X120716194Y-113030000D01*
X120626115Y-113067312D01*
X120398289Y-113219540D01*
X120204540Y-113413289D01*
X120052312Y-113641115D01*
X119947456Y-113894260D01*
X119894000Y-114162999D01*
X119894000Y-114437001D01*
X119947456Y-114705740D01*
X120052312Y-114958885D01*
X120204540Y-115186711D01*
X120398289Y-115380460D01*
X120626115Y-115532688D01*
X120716194Y-115570000D01*
X120626115Y-115607312D01*
X120398289Y-115759540D01*
X120204540Y-115953289D01*
X120052312Y-116181115D01*
X119947456Y-116434260D01*
X119894000Y-116702999D01*
X119894000Y-116977001D01*
X119947456Y-117245740D01*
X120052312Y-117498885D01*
X120204540Y-117726711D01*
X120398289Y-117920460D01*
X120626115Y-118072688D01*
X120716194Y-118110000D01*
X120626115Y-118147312D01*
X120398289Y-118299540D01*
X120204540Y-118493289D01*
X120052312Y-118721115D01*
X119947456Y-118974260D01*
X119894000Y-119242999D01*
X119894000Y-119517001D01*
X119947456Y-119785740D01*
X120052312Y-120038885D01*
X120204540Y-120266711D01*
X120398289Y-120460460D01*
X120626115Y-120612688D01*
X120716194Y-120650000D01*
X120626115Y-120687312D01*
X120398289Y-120839540D01*
X120204540Y-121033289D01*
X120052312Y-121261115D01*
X119947456Y-121514260D01*
X119894000Y-121782999D01*
X119894000Y-122057001D01*
X119947456Y-122325740D01*
X120052312Y-122578885D01*
X120204540Y-122806711D01*
X120398289Y-123000460D01*
X120626115Y-123152688D01*
X120716194Y-123190000D01*
X120626115Y-123227312D01*
X120398289Y-123379540D01*
X120204540Y-123573289D01*
X120052312Y-123801115D01*
X119947456Y-124054260D01*
X119894000Y-124322999D01*
X119894000Y-124597001D01*
X119947456Y-124865740D01*
X120052312Y-125118885D01*
X120204540Y-125346711D01*
X120398289Y-125540460D01*
X120626115Y-125692688D01*
X120716194Y-125730000D01*
X120626115Y-125767312D01*
X120398289Y-125919540D01*
X120204540Y-126113289D01*
X120052312Y-126341115D01*
X119947456Y-126594260D01*
X119894000Y-126862999D01*
X119894000Y-127137001D01*
X119947456Y-127405740D01*
X120052312Y-127658885D01*
X120204540Y-127886711D01*
X120398289Y-128080460D01*
X120626115Y-128232688D01*
X120716194Y-128270000D01*
X120626115Y-128307312D01*
X120398289Y-128459540D01*
X120204540Y-128653289D01*
X120052312Y-128881115D01*
X119947456Y-129134260D01*
X119894000Y-129402999D01*
X119894000Y-129677001D01*
X119947456Y-129945740D01*
X120052312Y-130198885D01*
X120204540Y-130426711D01*
X120398289Y-130620460D01*
X120626115Y-130772688D01*
X120716194Y-130810000D01*
X120626115Y-130847312D01*
X120398289Y-130999540D01*
X120204540Y-131193289D01*
X120052312Y-131421115D01*
X119947456Y-131674260D01*
X119894000Y-131942999D01*
X119894000Y-132217001D01*
X119947456Y-132485740D01*
X120052312Y-132738885D01*
X120204540Y-132966711D01*
X120398289Y-133160460D01*
X120626115Y-133312688D01*
X120716194Y-133350000D01*
X120626115Y-133387312D01*
X120398289Y-133539540D01*
X120204540Y-133733289D01*
X120052312Y-133961115D01*
X119947456Y-134214260D01*
X119894000Y-134482999D01*
X119894000Y-134757001D01*
X119947456Y-135025740D01*
X120052312Y-135278885D01*
X120204540Y-135506711D01*
X120398289Y-135700460D01*
X120626115Y-135852688D01*
X120716194Y-135890000D01*
X120626115Y-135927312D01*
X120398289Y-136079540D01*
X120204540Y-136273289D01*
X120052312Y-136501115D01*
X119947456Y-136754260D01*
X119894000Y-137022999D01*
X119894000Y-137297001D01*
X119947456Y-137565740D01*
X120052312Y-137818885D01*
X120204540Y-138046711D01*
X120398289Y-138240460D01*
X120626115Y-138392688D01*
X120716194Y-138430000D01*
X120626115Y-138467312D01*
X120398289Y-138619540D01*
X120204540Y-138813289D01*
X120052312Y-139041115D01*
X119947456Y-139294260D01*
X119894000Y-139562999D01*
X119894000Y-139837001D01*
X119947456Y-140105740D01*
X120052312Y-140358885D01*
X120204540Y-140586711D01*
X120398289Y-140780460D01*
X120626115Y-140932688D01*
X120716194Y-140970000D01*
X120626115Y-141007312D01*
X120398289Y-141159540D01*
X120204540Y-141353289D01*
X120052312Y-141581115D01*
X119947456Y-141834260D01*
X119894000Y-142102999D01*
X119894000Y-142377001D01*
X119947456Y-142645740D01*
X120052312Y-142898885D01*
X120204540Y-143126711D01*
X120398289Y-143320460D01*
X120498152Y-143387186D01*
X120269000Y-143387186D01*
X120195487Y-143394426D01*
X120124800Y-143415869D01*
X120059653Y-143450691D01*
X120002552Y-143497552D01*
X119955691Y-143554653D01*
X119920869Y-143619800D01*
X119899426Y-143690487D01*
X119892186Y-143764000D01*
X119815000Y-143764000D01*
X119815000Y-109961184D01*
X119881345Y-110085306D01*
X120144828Y-110183396D01*
X121108223Y-109220000D01*
X121461777Y-109220000D01*
X122425172Y-110183396D01*
X122688655Y-110085306D01*
X122830497Y-109794840D01*
X122912946Y-109482283D01*
X122932835Y-109159647D01*
X122889398Y-108839330D01*
X122784305Y-108533642D01*
X122688655Y-108354694D01*
X122425172Y-108256604D01*
X121461777Y-109220000D01*
X121108223Y-109220000D01*
X120144828Y-108256604D01*
X119881345Y-108354694D01*
X119815000Y-108490556D01*
X119815000Y-108079828D01*
X120321604Y-108079828D01*
X121285000Y-109043223D01*
X122248396Y-108079828D01*
X122150306Y-107816345D01*
X121859840Y-107674503D01*
X121547283Y-107592054D01*
X121224647Y-107572165D01*
X120904330Y-107615602D01*
X120598642Y-107720695D01*
X120419694Y-107816345D01*
X120321604Y-108079828D01*
X119815000Y-108079828D01*
X119815000Y-105205479D01*
X120110000Y-105205479D01*
X120110000Y-105594521D01*
X120185898Y-105976086D01*
X120334778Y-106335513D01*
X120550917Y-106658989D01*
X120826011Y-106934083D01*
X121149487Y-107150222D01*
X121508914Y-107299102D01*
X121890479Y-107375000D01*
X122279521Y-107375000D01*
X122661086Y-107299102D01*
X123020513Y-107150222D01*
X123343989Y-106934083D01*
X123619083Y-106658989D01*
X123698822Y-106539650D01*
X124305000Y-106539650D01*
X124305000Y-106820350D01*
X124359762Y-107095657D01*
X124467181Y-107354991D01*
X124623130Y-107588385D01*
X124821615Y-107786870D01*
X125055009Y-107942819D01*
X125314343Y-108050238D01*
X125589650Y-108105000D01*
X125870350Y-108105000D01*
X126145657Y-108050238D01*
X126404991Y-107942819D01*
X126638385Y-107786870D01*
X126836870Y-107588385D01*
X126992819Y-107354991D01*
X127000000Y-107337654D01*
X127007181Y-107354991D01*
X127163130Y-107588385D01*
X127361615Y-107786870D01*
X127595009Y-107942819D01*
X127854343Y-108050238D01*
X128129650Y-108105000D01*
X128410350Y-108105000D01*
X128685657Y-108050238D01*
X128944991Y-107942819D01*
X129178385Y-107786870D01*
X129376870Y-107588385D01*
X129389434Y-107569582D01*
X129645586Y-107667637D01*
X129895361Y-107417862D01*
X129895362Y-107417862D01*
X130633223Y-106680000D01*
X129895362Y-105942138D01*
X129895361Y-105942138D01*
X129645586Y-105692363D01*
X129389434Y-105790418D01*
X129376870Y-105771615D01*
X129178385Y-105573130D01*
X129092265Y-105515586D01*
X129822363Y-105515586D01*
X130072138Y-105765361D01*
X130072138Y-105765362D01*
X130810000Y-106503223D01*
X130824142Y-106489081D01*
X131000919Y-106665858D01*
X130986777Y-106680000D01*
X131000919Y-106694142D01*
X130824142Y-106870919D01*
X130810000Y-106856777D01*
X130072138Y-107594638D01*
X130072138Y-107594639D01*
X129822363Y-107844414D01*
X129924555Y-108111374D01*
X130220816Y-108256612D01*
X130539719Y-108341262D01*
X130869009Y-108362071D01*
X131196031Y-108318238D01*
X131508218Y-108211448D01*
X131695445Y-108111374D01*
X131797636Y-107844416D01*
X131911317Y-107958097D01*
X131966967Y-107902447D01*
X131986691Y-107939347D01*
X132033552Y-107996448D01*
X132090653Y-108043309D01*
X132155800Y-108078131D01*
X132226487Y-108099574D01*
X132300000Y-108106814D01*
X134400000Y-108106814D01*
X134473513Y-108099574D01*
X134544200Y-108078131D01*
X134609347Y-108043309D01*
X134666448Y-107996448D01*
X134713309Y-107939347D01*
X134748131Y-107874200D01*
X134769574Y-107803513D01*
X134776081Y-107737436D01*
X136279341Y-107737436D01*
X136363419Y-107989062D01*
X136634111Y-108119314D01*
X136925012Y-108194253D01*
X137224944Y-108211001D01*
X137522379Y-108168913D01*
X137805888Y-108069608D01*
X137956581Y-107989062D01*
X138040659Y-107737436D01*
X137160000Y-106856777D01*
X136279341Y-107737436D01*
X134776081Y-107737436D01*
X134776814Y-107730000D01*
X134776814Y-106744944D01*
X135628999Y-106744944D01*
X135671087Y-107042379D01*
X135770392Y-107325888D01*
X135850938Y-107476581D01*
X136102564Y-107560659D01*
X136983223Y-106680000D01*
X137336777Y-106680000D01*
X138217436Y-107560659D01*
X138423186Y-107491910D01*
X138423186Y-107580000D01*
X138430426Y-107653513D01*
X138451869Y-107724200D01*
X138486691Y-107789347D01*
X138533552Y-107846448D01*
X138590653Y-107893309D01*
X138655800Y-107928131D01*
X138726487Y-107949574D01*
X138800000Y-107956814D01*
X140285566Y-107956814D01*
X140232817Y-108021089D01*
X140174781Y-108129666D01*
X140139043Y-108247479D01*
X140126976Y-108370000D01*
X140130000Y-108938750D01*
X140286250Y-109095000D01*
X141480000Y-109095000D01*
X141480000Y-107901250D01*
X141323750Y-107745000D01*
X140938109Y-107742950D01*
X140948131Y-107724200D01*
X140969574Y-107653513D01*
X140976814Y-107580000D01*
X140976814Y-105780000D01*
X140969574Y-105706487D01*
X140948131Y-105635800D01*
X140913309Y-105570653D01*
X140866448Y-105513552D01*
X140809347Y-105466691D01*
X140744200Y-105431869D01*
X140673513Y-105410426D01*
X140600000Y-105403186D01*
X138800000Y-105403186D01*
X138726487Y-105410426D01*
X138655800Y-105431869D01*
X138590653Y-105466691D01*
X138533552Y-105513552D01*
X138486691Y-105570653D01*
X138451869Y-105635800D01*
X138430426Y-105706487D01*
X138423186Y-105780000D01*
X138423186Y-105868090D01*
X138217436Y-105799341D01*
X137336777Y-106680000D01*
X136983223Y-106680000D01*
X136102564Y-105799341D01*
X135850938Y-105883419D01*
X135720686Y-106154111D01*
X135645747Y-106445012D01*
X135628999Y-106744944D01*
X134776814Y-106744944D01*
X134776814Y-105630000D01*
X134776082Y-105622564D01*
X136279341Y-105622564D01*
X137160000Y-106503223D01*
X138040659Y-105622564D01*
X137956581Y-105370938D01*
X137685889Y-105240686D01*
X137549222Y-105205479D01*
X141310000Y-105205479D01*
X141310000Y-105594521D01*
X141385898Y-105976086D01*
X141534778Y-106335513D01*
X141750917Y-106658989D01*
X142026011Y-106934083D01*
X142349487Y-107150222D01*
X142708914Y-107299102D01*
X143090479Y-107375000D01*
X143479521Y-107375000D01*
X143861086Y-107299102D01*
X144220513Y-107150222D01*
X144543989Y-106934083D01*
X144819083Y-106658989D01*
X145035222Y-106335513D01*
X145184102Y-105976086D01*
X145260000Y-105594521D01*
X145260000Y-105205479D01*
X145184102Y-104823914D01*
X145035222Y-104464487D01*
X144819083Y-104141011D01*
X144543989Y-103865917D01*
X144220513Y-103649778D01*
X143861086Y-103500898D01*
X143479521Y-103425000D01*
X143090479Y-103425000D01*
X142708914Y-103500898D01*
X142349487Y-103649778D01*
X142026011Y-103865917D01*
X141750917Y-104141011D01*
X141534778Y-104464487D01*
X141385898Y-104823914D01*
X141310000Y-105205479D01*
X137549222Y-105205479D01*
X137394988Y-105165747D01*
X137095056Y-105148999D01*
X136797621Y-105191087D01*
X136514112Y-105290392D01*
X136363419Y-105370938D01*
X136279341Y-105622564D01*
X134776082Y-105622564D01*
X134769574Y-105556487D01*
X134748131Y-105485800D01*
X134713309Y-105420653D01*
X134666448Y-105363552D01*
X134609347Y-105316691D01*
X134544200Y-105281869D01*
X134473513Y-105260426D01*
X134400000Y-105253186D01*
X132300000Y-105253186D01*
X132226487Y-105260426D01*
X132155800Y-105281869D01*
X132090653Y-105316691D01*
X132033552Y-105363552D01*
X131986691Y-105420653D01*
X131966967Y-105457553D01*
X131911317Y-105401903D01*
X131797636Y-105515584D01*
X131695445Y-105248626D01*
X131399184Y-105103388D01*
X131080281Y-105018738D01*
X130750991Y-104997929D01*
X130423969Y-105041762D01*
X130111782Y-105148552D01*
X129924555Y-105248626D01*
X129822363Y-105515586D01*
X129092265Y-105515586D01*
X128944991Y-105417181D01*
X128685657Y-105309762D01*
X128410350Y-105255000D01*
X128129650Y-105255000D01*
X127854343Y-105309762D01*
X127595009Y-105417181D01*
X127361615Y-105573130D01*
X127163130Y-105771615D01*
X127007181Y-106005009D01*
X127000000Y-106022346D01*
X126992819Y-106005009D01*
X126836870Y-105771615D01*
X126638385Y-105573130D01*
X126404991Y-105417181D01*
X126145657Y-105309762D01*
X125870350Y-105255000D01*
X125589650Y-105255000D01*
X125314343Y-105309762D01*
X125055009Y-105417181D01*
X124821615Y-105573130D01*
X124623130Y-105771615D01*
X124467181Y-106005009D01*
X124359762Y-106264343D01*
X124305000Y-106539650D01*
X123698822Y-106539650D01*
X123835222Y-106335513D01*
X123984102Y-105976086D01*
X124060000Y-105594521D01*
X124060000Y-105205479D01*
X123984102Y-104823914D01*
X123835222Y-104464487D01*
X123619083Y-104141011D01*
X123343989Y-103865917D01*
X123020513Y-103649778D01*
X122661086Y-103500898D01*
X122279521Y-103425000D01*
X121890479Y-103425000D01*
X121508914Y-103500898D01*
X121149487Y-103649778D01*
X120826011Y-103865917D01*
X120550917Y-104141011D01*
X120334778Y-104464487D01*
X120185898Y-104823914D01*
X120110000Y-105205479D01*
X119815000Y-105205479D01*
X119815000Y-104166166D01*
X119832949Y-103983111D01*
X119879934Y-103827491D01*
X119956247Y-103683964D01*
X120058989Y-103557990D01*
X120184243Y-103454371D01*
X120327230Y-103377058D01*
X120482521Y-103328987D01*
X120664225Y-103309890D01*
X144758724Y-103309890D01*
X144941779Y-103327839D01*
M02*
