%TF.GenerationSoftware,KiCad,Pcbnew,5.1.5+dfsg1-2~bpo10+1*%
%TF.CreationDate,2020-10-10T09:04:37+00:00*%
%TF.ProjectId,CO2,434f322e-6b69-4636-9164-5f7063625858,rev?*%
%TF.SameCoordinates,Original*%
%TF.FileFunction,Copper,L1,Top*%
%TF.FilePolarity,Positive*%
%FSLAX45Y45*%
G04 Gerber Fmt 4.5, Leading zero omitted, Abs format (unit mm)*
G04 Created by KiCad (PCBNEW 5.1.5+dfsg1-2~bpo10+1) date 2020-10-10 09:04:37*
%MOMM*%
%LPD*%
G04 APERTURE LIST*
%ADD10C,0.120000*%
%ADD11C,0.150000*%
%ADD12O,1.700000X1.700000*%
%ADD13R,1.700000X1.700000*%
%ADD14R,0.900000X0.800000*%
%ADD15C,2.032000*%
%ADD16R,2.032000X2.032000*%
%ADD17R,1.000000X1.500000*%
%ADD18C,0.800000*%
%ADD19C,0.250000*%
%ADD20C,0.500000*%
%ADD21C,0.400000*%
%ADD22C,0.200000*%
%ADD23C,0.350000*%
G04 APERTURE END LIST*
D10*
X-63500Y-4254500D02*
G75*
G02X-190500Y-4127500I0J127000D01*
G01*
X2476500Y-4127500D02*
G75*
G02X2349500Y-4254500I-127000J0D01*
G01*
X-190500Y507511D02*
G75*
G02X-63500Y634511I127000J0D01*
G01*
X2349500Y634511D02*
G75*
G02X2476500Y507511I0J-127000D01*
G01*
X2476500Y-4127500D02*
X2476500Y508000D01*
X-63500Y-4254500D02*
X2349500Y-4254500D01*
X-190500Y508000D02*
X-190500Y-4127500D01*
X2349500Y634511D02*
X-63500Y634511D01*
%TA.AperFunction,SMDPad,CuDef*%
D11*
G36*
X1276725Y525940D02*
G01*
X1277939Y525760D01*
X1279129Y525462D01*
X1280284Y525049D01*
X1281393Y524524D01*
X1282445Y523893D01*
X1283430Y523163D01*
X1284339Y522339D01*
X1285163Y521430D01*
X1285893Y520445D01*
X1286524Y519392D01*
X1287049Y518283D01*
X1287462Y517129D01*
X1287760Y515939D01*
X1287940Y514725D01*
X1288000Y513500D01*
X1288000Y486000D01*
X1287940Y484775D01*
X1287760Y483561D01*
X1287462Y482371D01*
X1287049Y481216D01*
X1286524Y480107D01*
X1285893Y479055D01*
X1285163Y478070D01*
X1284339Y477161D01*
X1283430Y476337D01*
X1282445Y475607D01*
X1281393Y474976D01*
X1280284Y474451D01*
X1279129Y474038D01*
X1277939Y473740D01*
X1276725Y473560D01*
X1275500Y473500D01*
X1250500Y473500D01*
X1249275Y473560D01*
X1248061Y473740D01*
X1246871Y474038D01*
X1245717Y474451D01*
X1244608Y474976D01*
X1243555Y475607D01*
X1242570Y476337D01*
X1241661Y477161D01*
X1240837Y478070D01*
X1240107Y479055D01*
X1239476Y480107D01*
X1238952Y481216D01*
X1238538Y482371D01*
X1238240Y483561D01*
X1238060Y484775D01*
X1238000Y486000D01*
X1238000Y513500D01*
X1238060Y514725D01*
X1238240Y515939D01*
X1238538Y517129D01*
X1238952Y518283D01*
X1239476Y519392D01*
X1240107Y520445D01*
X1240837Y521430D01*
X1241661Y522339D01*
X1242570Y523163D01*
X1243555Y523893D01*
X1244608Y524524D01*
X1245717Y525049D01*
X1246871Y525462D01*
X1248061Y525760D01*
X1249275Y525940D01*
X1250500Y526000D01*
X1275500Y526000D01*
X1276725Y525940D01*
G37*
%TD.AperFunction*%
%TA.AperFunction,SMDPad,CuDef*%
G36*
X1196725Y525940D02*
G01*
X1197939Y525760D01*
X1199129Y525462D01*
X1200284Y525049D01*
X1201393Y524524D01*
X1202445Y523893D01*
X1203430Y523163D01*
X1204339Y522339D01*
X1205163Y521430D01*
X1205893Y520445D01*
X1206524Y519392D01*
X1207049Y518283D01*
X1207462Y517129D01*
X1207760Y515939D01*
X1207940Y514725D01*
X1208000Y513500D01*
X1208000Y486000D01*
X1207940Y484775D01*
X1207760Y483561D01*
X1207462Y482371D01*
X1207049Y481216D01*
X1206524Y480107D01*
X1205893Y479055D01*
X1205163Y478070D01*
X1204339Y477161D01*
X1203430Y476337D01*
X1202445Y475607D01*
X1201393Y474976D01*
X1200284Y474451D01*
X1199129Y474038D01*
X1197939Y473740D01*
X1196725Y473560D01*
X1195500Y473500D01*
X1170500Y473500D01*
X1169275Y473560D01*
X1168061Y473740D01*
X1166871Y474038D01*
X1165717Y474451D01*
X1164608Y474976D01*
X1163555Y475607D01*
X1162570Y476337D01*
X1161661Y477161D01*
X1160837Y478070D01*
X1160107Y479055D01*
X1159476Y480107D01*
X1158952Y481216D01*
X1158538Y482371D01*
X1158240Y483561D01*
X1158060Y484775D01*
X1158000Y486000D01*
X1158000Y513500D01*
X1158060Y514725D01*
X1158240Y515939D01*
X1158538Y517129D01*
X1158952Y518283D01*
X1159476Y519392D01*
X1160107Y520445D01*
X1160837Y521430D01*
X1161661Y522339D01*
X1162570Y523163D01*
X1163555Y523893D01*
X1164608Y524524D01*
X1165717Y525049D01*
X1166871Y525462D01*
X1168061Y525760D01*
X1169275Y525940D01*
X1170500Y526000D01*
X1195500Y526000D01*
X1196725Y525940D01*
G37*
%TD.AperFunction*%
%TA.AperFunction,SMDPad,CuDef*%
G36*
X1116725Y525940D02*
G01*
X1117939Y525760D01*
X1119129Y525462D01*
X1120284Y525049D01*
X1121393Y524524D01*
X1122445Y523893D01*
X1123430Y523163D01*
X1124339Y522339D01*
X1125163Y521430D01*
X1125893Y520445D01*
X1126524Y519392D01*
X1127049Y518283D01*
X1127462Y517129D01*
X1127760Y515939D01*
X1127940Y514725D01*
X1128000Y513500D01*
X1128000Y486000D01*
X1127940Y484775D01*
X1127760Y483561D01*
X1127462Y482371D01*
X1127049Y481216D01*
X1126524Y480107D01*
X1125893Y479055D01*
X1125163Y478070D01*
X1124339Y477161D01*
X1123430Y476337D01*
X1122445Y475607D01*
X1121393Y474976D01*
X1120284Y474451D01*
X1119129Y474038D01*
X1117939Y473740D01*
X1116725Y473560D01*
X1115500Y473500D01*
X1090500Y473500D01*
X1089275Y473560D01*
X1088061Y473740D01*
X1086871Y474038D01*
X1085717Y474451D01*
X1084608Y474976D01*
X1083555Y475607D01*
X1082570Y476337D01*
X1081661Y477161D01*
X1080837Y478070D01*
X1080107Y479055D01*
X1079476Y480107D01*
X1078952Y481216D01*
X1078538Y482371D01*
X1078240Y483561D01*
X1078060Y484775D01*
X1078000Y486000D01*
X1078000Y513500D01*
X1078060Y514725D01*
X1078240Y515939D01*
X1078538Y517129D01*
X1078952Y518283D01*
X1079476Y519392D01*
X1080107Y520445D01*
X1080837Y521430D01*
X1081661Y522339D01*
X1082570Y523163D01*
X1083555Y523893D01*
X1084608Y524524D01*
X1085717Y525049D01*
X1086871Y525462D01*
X1088061Y525760D01*
X1089275Y525940D01*
X1090500Y526000D01*
X1115500Y526000D01*
X1116725Y525940D01*
G37*
%TD.AperFunction*%
%TA.AperFunction,SMDPad,CuDef*%
G36*
X1036725Y525940D02*
G01*
X1037939Y525760D01*
X1039129Y525462D01*
X1040283Y525049D01*
X1041392Y524524D01*
X1042445Y523893D01*
X1043430Y523163D01*
X1044339Y522339D01*
X1045163Y521430D01*
X1045893Y520445D01*
X1046524Y519392D01*
X1047048Y518283D01*
X1047462Y517129D01*
X1047760Y515939D01*
X1047940Y514725D01*
X1048000Y513500D01*
X1048000Y486000D01*
X1047940Y484775D01*
X1047760Y483561D01*
X1047462Y482371D01*
X1047048Y481216D01*
X1046524Y480107D01*
X1045893Y479055D01*
X1045163Y478070D01*
X1044339Y477161D01*
X1043430Y476337D01*
X1042445Y475607D01*
X1041392Y474976D01*
X1040283Y474451D01*
X1039129Y474038D01*
X1037939Y473740D01*
X1036725Y473560D01*
X1035500Y473500D01*
X1010500Y473500D01*
X1009275Y473560D01*
X1008061Y473740D01*
X1006871Y474038D01*
X1005716Y474451D01*
X1004607Y474976D01*
X1003555Y475607D01*
X1002570Y476337D01*
X1001661Y477161D01*
X1000837Y478070D01*
X1000107Y479055D01*
X999476Y480107D01*
X998951Y481216D01*
X998538Y482371D01*
X998240Y483561D01*
X998060Y484775D01*
X998000Y486000D01*
X998000Y513500D01*
X998060Y514725D01*
X998240Y515939D01*
X998538Y517129D01*
X998951Y518283D01*
X999476Y519392D01*
X1000107Y520445D01*
X1000837Y521430D01*
X1001661Y522339D01*
X1002570Y523163D01*
X1003555Y523893D01*
X1004607Y524524D01*
X1005716Y525049D01*
X1006871Y525462D01*
X1008061Y525760D01*
X1009275Y525940D01*
X1010500Y526000D01*
X1035500Y526000D01*
X1036725Y525940D01*
G37*
%TD.AperFunction*%
%TA.AperFunction,SMDPad,CuDef*%
G36*
X1036725Y288440D02*
G01*
X1037939Y288260D01*
X1039129Y287962D01*
X1040283Y287549D01*
X1041392Y287024D01*
X1042445Y286393D01*
X1043430Y285663D01*
X1044339Y284839D01*
X1045163Y283930D01*
X1045893Y282945D01*
X1046524Y281893D01*
X1047048Y280784D01*
X1047462Y279629D01*
X1047760Y278439D01*
X1047940Y277225D01*
X1048000Y276000D01*
X1048000Y248500D01*
X1047940Y247275D01*
X1047760Y246061D01*
X1047462Y244871D01*
X1047048Y243716D01*
X1046524Y242607D01*
X1045893Y241555D01*
X1045163Y240570D01*
X1044339Y239661D01*
X1043430Y238837D01*
X1042445Y238107D01*
X1041392Y237476D01*
X1040283Y236951D01*
X1039129Y236538D01*
X1037939Y236240D01*
X1036725Y236060D01*
X1035500Y236000D01*
X1010500Y236000D01*
X1009275Y236060D01*
X1008061Y236240D01*
X1006871Y236538D01*
X1005716Y236951D01*
X1004607Y237476D01*
X1003555Y238107D01*
X1002570Y238837D01*
X1001661Y239661D01*
X1000837Y240570D01*
X1000107Y241555D01*
X999476Y242607D01*
X998951Y243716D01*
X998538Y244871D01*
X998240Y246061D01*
X998060Y247275D01*
X998000Y248500D01*
X998000Y276000D01*
X998060Y277225D01*
X998240Y278439D01*
X998538Y279629D01*
X998951Y280784D01*
X999476Y281893D01*
X1000107Y282945D01*
X1000837Y283930D01*
X1001661Y284839D01*
X1002570Y285663D01*
X1003555Y286393D01*
X1004607Y287024D01*
X1005716Y287549D01*
X1006871Y287962D01*
X1008061Y288260D01*
X1009275Y288440D01*
X1010500Y288500D01*
X1035500Y288500D01*
X1036725Y288440D01*
G37*
%TD.AperFunction*%
%TA.AperFunction,SMDPad,CuDef*%
G36*
X1116725Y288440D02*
G01*
X1117939Y288260D01*
X1119129Y287962D01*
X1120284Y287549D01*
X1121393Y287024D01*
X1122445Y286393D01*
X1123430Y285663D01*
X1124339Y284839D01*
X1125163Y283930D01*
X1125893Y282945D01*
X1126524Y281893D01*
X1127049Y280784D01*
X1127462Y279629D01*
X1127760Y278439D01*
X1127940Y277225D01*
X1128000Y276000D01*
X1128000Y248500D01*
X1127940Y247275D01*
X1127760Y246061D01*
X1127462Y244871D01*
X1127049Y243716D01*
X1126524Y242607D01*
X1125893Y241555D01*
X1125163Y240570D01*
X1124339Y239661D01*
X1123430Y238837D01*
X1122445Y238107D01*
X1121393Y237476D01*
X1120284Y236951D01*
X1119129Y236538D01*
X1117939Y236240D01*
X1116725Y236060D01*
X1115500Y236000D01*
X1090500Y236000D01*
X1089275Y236060D01*
X1088061Y236240D01*
X1086871Y236538D01*
X1085717Y236951D01*
X1084608Y237476D01*
X1083555Y238107D01*
X1082570Y238837D01*
X1081661Y239661D01*
X1080837Y240570D01*
X1080107Y241555D01*
X1079476Y242607D01*
X1078952Y243716D01*
X1078538Y244871D01*
X1078240Y246061D01*
X1078060Y247275D01*
X1078000Y248500D01*
X1078000Y276000D01*
X1078060Y277225D01*
X1078240Y278439D01*
X1078538Y279629D01*
X1078952Y280784D01*
X1079476Y281893D01*
X1080107Y282945D01*
X1080837Y283930D01*
X1081661Y284839D01*
X1082570Y285663D01*
X1083555Y286393D01*
X1084608Y287024D01*
X1085717Y287549D01*
X1086871Y287962D01*
X1088061Y288260D01*
X1089275Y288440D01*
X1090500Y288500D01*
X1115500Y288500D01*
X1116725Y288440D01*
G37*
%TD.AperFunction*%
%TA.AperFunction,SMDPad,CuDef*%
G36*
X1196725Y288440D02*
G01*
X1197939Y288260D01*
X1199129Y287962D01*
X1200284Y287549D01*
X1201393Y287024D01*
X1202445Y286393D01*
X1203430Y285663D01*
X1204339Y284839D01*
X1205163Y283930D01*
X1205893Y282945D01*
X1206524Y281893D01*
X1207049Y280784D01*
X1207462Y279629D01*
X1207760Y278439D01*
X1207940Y277225D01*
X1208000Y276000D01*
X1208000Y248500D01*
X1207940Y247275D01*
X1207760Y246061D01*
X1207462Y244871D01*
X1207049Y243716D01*
X1206524Y242607D01*
X1205893Y241555D01*
X1205163Y240570D01*
X1204339Y239661D01*
X1203430Y238837D01*
X1202445Y238107D01*
X1201393Y237476D01*
X1200284Y236951D01*
X1199129Y236538D01*
X1197939Y236240D01*
X1196725Y236060D01*
X1195500Y236000D01*
X1170500Y236000D01*
X1169275Y236060D01*
X1168061Y236240D01*
X1166871Y236538D01*
X1165717Y236951D01*
X1164608Y237476D01*
X1163555Y238107D01*
X1162570Y238837D01*
X1161661Y239661D01*
X1160837Y240570D01*
X1160107Y241555D01*
X1159476Y242607D01*
X1158952Y243716D01*
X1158538Y244871D01*
X1158240Y246061D01*
X1158060Y247275D01*
X1158000Y248500D01*
X1158000Y276000D01*
X1158060Y277225D01*
X1158240Y278439D01*
X1158538Y279629D01*
X1158952Y280784D01*
X1159476Y281893D01*
X1160107Y282945D01*
X1160837Y283930D01*
X1161661Y284839D01*
X1162570Y285663D01*
X1163555Y286393D01*
X1164608Y287024D01*
X1165717Y287549D01*
X1166871Y287962D01*
X1168061Y288260D01*
X1169275Y288440D01*
X1170500Y288500D01*
X1195500Y288500D01*
X1196725Y288440D01*
G37*
%TD.AperFunction*%
%TA.AperFunction,SMDPad,CuDef*%
G36*
X1276725Y288440D02*
G01*
X1277939Y288260D01*
X1279129Y287962D01*
X1280284Y287549D01*
X1281393Y287024D01*
X1282445Y286393D01*
X1283430Y285663D01*
X1284339Y284839D01*
X1285163Y283930D01*
X1285893Y282945D01*
X1286524Y281893D01*
X1287049Y280784D01*
X1287462Y279629D01*
X1287760Y278439D01*
X1287940Y277225D01*
X1288000Y276000D01*
X1288000Y248500D01*
X1287940Y247275D01*
X1287760Y246061D01*
X1287462Y244871D01*
X1287049Y243716D01*
X1286524Y242607D01*
X1285893Y241555D01*
X1285163Y240570D01*
X1284339Y239661D01*
X1283430Y238837D01*
X1282445Y238107D01*
X1281393Y237476D01*
X1280284Y236951D01*
X1279129Y236538D01*
X1277939Y236240D01*
X1276725Y236060D01*
X1275500Y236000D01*
X1250500Y236000D01*
X1249275Y236060D01*
X1248061Y236240D01*
X1246871Y236538D01*
X1245717Y236951D01*
X1244608Y237476D01*
X1243555Y238107D01*
X1242570Y238837D01*
X1241661Y239661D01*
X1240837Y240570D01*
X1240107Y241555D01*
X1239476Y242607D01*
X1238952Y243716D01*
X1238538Y244871D01*
X1238240Y246061D01*
X1238060Y247275D01*
X1238000Y248500D01*
X1238000Y276000D01*
X1238060Y277225D01*
X1238240Y278439D01*
X1238538Y279629D01*
X1238952Y280784D01*
X1239476Y281893D01*
X1240107Y282945D01*
X1240837Y283930D01*
X1241661Y284839D01*
X1242570Y285663D01*
X1243555Y286393D01*
X1244608Y287024D01*
X1245717Y287549D01*
X1246871Y287962D01*
X1248061Y288260D01*
X1249275Y288440D01*
X1250500Y288500D01*
X1275500Y288500D01*
X1276725Y288440D01*
G37*
%TD.AperFunction*%
D12*
X2006600Y-2286000D03*
X2006600Y-2540000D03*
X2006600Y-2794000D03*
D13*
X2006600Y-3048000D03*
%TA.AperFunction,SMDPad,CuDef*%
D11*
G36*
X853269Y345895D02*
G01*
X855393Y345580D01*
X857475Y345058D01*
X859496Y344335D01*
X861437Y343417D01*
X863278Y342313D01*
X865002Y341035D01*
X866593Y339593D01*
X868035Y338002D01*
X869313Y336278D01*
X870417Y334437D01*
X871335Y332496D01*
X872058Y330475D01*
X872580Y328393D01*
X872895Y326269D01*
X873000Y324125D01*
X873000Y280375D01*
X872895Y278231D01*
X872580Y276107D01*
X872058Y274025D01*
X871335Y272004D01*
X870417Y270063D01*
X869313Y268222D01*
X868035Y266498D01*
X866593Y264907D01*
X865002Y263465D01*
X863278Y262187D01*
X861437Y261083D01*
X859496Y260165D01*
X857475Y259442D01*
X855393Y258920D01*
X853269Y258605D01*
X851125Y258500D01*
X799875Y258500D01*
X797731Y258605D01*
X795607Y258920D01*
X793525Y259442D01*
X791504Y260165D01*
X789563Y261083D01*
X787722Y262187D01*
X785998Y263465D01*
X784407Y264907D01*
X782965Y266498D01*
X781687Y268222D01*
X780583Y270063D01*
X779665Y272004D01*
X778942Y274025D01*
X778420Y276107D01*
X778105Y278231D01*
X778000Y280375D01*
X778000Y324125D01*
X778105Y326269D01*
X778420Y328393D01*
X778942Y330475D01*
X779665Y332496D01*
X780583Y334437D01*
X781687Y336278D01*
X782965Y338002D01*
X784407Y339593D01*
X785998Y341035D01*
X787722Y342313D01*
X789563Y343417D01*
X791504Y344335D01*
X793525Y345058D01*
X795607Y345580D01*
X797731Y345895D01*
X799875Y346000D01*
X851125Y346000D01*
X853269Y345895D01*
G37*
%TD.AperFunction*%
%TA.AperFunction,SMDPad,CuDef*%
G36*
X853269Y503395D02*
G01*
X855393Y503080D01*
X857475Y502558D01*
X859496Y501835D01*
X861437Y500917D01*
X863278Y499813D01*
X865002Y498535D01*
X866593Y497093D01*
X868035Y495502D01*
X869313Y493778D01*
X870417Y491937D01*
X871335Y489996D01*
X872058Y487975D01*
X872580Y485893D01*
X872895Y483769D01*
X873000Y481625D01*
X873000Y437875D01*
X872895Y435731D01*
X872580Y433607D01*
X872058Y431525D01*
X871335Y429504D01*
X870417Y427563D01*
X869313Y425722D01*
X868035Y423998D01*
X866593Y422407D01*
X865002Y420965D01*
X863278Y419687D01*
X861437Y418583D01*
X859496Y417665D01*
X857475Y416942D01*
X855393Y416420D01*
X853269Y416105D01*
X851125Y416000D01*
X799875Y416000D01*
X797731Y416105D01*
X795607Y416420D01*
X793525Y416942D01*
X791504Y417665D01*
X789563Y418583D01*
X787722Y419687D01*
X785998Y420965D01*
X784407Y422407D01*
X782965Y423998D01*
X781687Y425722D01*
X780583Y427563D01*
X779665Y429504D01*
X778942Y431525D01*
X778420Y433607D01*
X778105Y435731D01*
X778000Y437875D01*
X778000Y481625D01*
X778105Y483769D01*
X778420Y485893D01*
X778942Y487975D01*
X779665Y489996D01*
X780583Y491937D01*
X781687Y493778D01*
X782965Y495502D01*
X784407Y497093D01*
X785998Y498535D01*
X787722Y499813D01*
X789563Y500917D01*
X791504Y501835D01*
X793525Y502558D01*
X795607Y503080D01*
X797731Y503395D01*
X799875Y503500D01*
X851125Y503500D01*
X853269Y503395D01*
G37*
%TD.AperFunction*%
%TA.AperFunction,SMDPad,CuDef*%
G36*
X1488269Y503395D02*
G01*
X1490393Y503080D01*
X1492475Y502558D01*
X1494496Y501835D01*
X1496437Y500917D01*
X1498278Y499813D01*
X1500002Y498535D01*
X1501593Y497093D01*
X1503035Y495502D01*
X1504313Y493778D01*
X1505417Y491937D01*
X1506335Y489996D01*
X1507058Y487975D01*
X1507580Y485893D01*
X1507895Y483769D01*
X1508000Y481625D01*
X1508000Y437875D01*
X1507895Y435731D01*
X1507580Y433607D01*
X1507058Y431525D01*
X1506335Y429504D01*
X1505417Y427563D01*
X1504313Y425722D01*
X1503035Y423998D01*
X1501593Y422407D01*
X1500002Y420965D01*
X1498278Y419687D01*
X1496437Y418583D01*
X1494496Y417665D01*
X1492475Y416942D01*
X1490393Y416420D01*
X1488269Y416105D01*
X1486125Y416000D01*
X1434875Y416000D01*
X1432731Y416105D01*
X1430607Y416420D01*
X1428525Y416942D01*
X1426504Y417665D01*
X1424563Y418583D01*
X1422722Y419687D01*
X1420998Y420965D01*
X1419407Y422407D01*
X1417965Y423998D01*
X1416687Y425722D01*
X1415583Y427563D01*
X1414665Y429504D01*
X1413942Y431525D01*
X1413420Y433607D01*
X1413105Y435731D01*
X1413000Y437875D01*
X1413000Y481625D01*
X1413105Y483769D01*
X1413420Y485893D01*
X1413942Y487975D01*
X1414665Y489996D01*
X1415583Y491937D01*
X1416687Y493778D01*
X1417965Y495502D01*
X1419407Y497093D01*
X1420998Y498535D01*
X1422722Y499813D01*
X1424563Y500917D01*
X1426504Y501835D01*
X1428525Y502558D01*
X1430607Y503080D01*
X1432731Y503395D01*
X1434875Y503500D01*
X1486125Y503500D01*
X1488269Y503395D01*
G37*
%TD.AperFunction*%
%TA.AperFunction,SMDPad,CuDef*%
G36*
X1488269Y345895D02*
G01*
X1490393Y345580D01*
X1492475Y345058D01*
X1494496Y344335D01*
X1496437Y343417D01*
X1498278Y342313D01*
X1500002Y341035D01*
X1501593Y339593D01*
X1503035Y338002D01*
X1504313Y336278D01*
X1505417Y334437D01*
X1506335Y332496D01*
X1507058Y330475D01*
X1507580Y328393D01*
X1507895Y326269D01*
X1508000Y324125D01*
X1508000Y280375D01*
X1507895Y278231D01*
X1507580Y276107D01*
X1507058Y274025D01*
X1506335Y272004D01*
X1505417Y270063D01*
X1504313Y268222D01*
X1503035Y266498D01*
X1501593Y264907D01*
X1500002Y263465D01*
X1498278Y262187D01*
X1496437Y261083D01*
X1494496Y260165D01*
X1492475Y259442D01*
X1490393Y258920D01*
X1488269Y258605D01*
X1486125Y258500D01*
X1434875Y258500D01*
X1432731Y258605D01*
X1430607Y258920D01*
X1428525Y259442D01*
X1426504Y260165D01*
X1424563Y261083D01*
X1422722Y262187D01*
X1420998Y263465D01*
X1419407Y264907D01*
X1417965Y266498D01*
X1416687Y268222D01*
X1415583Y270063D01*
X1414665Y272004D01*
X1413942Y274025D01*
X1413420Y276107D01*
X1413105Y278231D01*
X1413000Y280375D01*
X1413000Y324125D01*
X1413105Y326269D01*
X1413420Y328393D01*
X1413942Y330475D01*
X1414665Y332496D01*
X1415583Y334437D01*
X1416687Y336278D01*
X1417965Y338002D01*
X1419407Y339593D01*
X1420998Y341035D01*
X1422722Y342313D01*
X1424563Y343417D01*
X1426504Y344335D01*
X1428525Y345058D01*
X1430607Y345580D01*
X1432731Y345895D01*
X1434875Y346000D01*
X1486125Y346000D01*
X1488269Y345895D01*
G37*
%TD.AperFunction*%
%TA.AperFunction,SMDPad,CuDef*%
G36*
X737769Y-2873605D02*
G01*
X739893Y-2873920D01*
X741975Y-2874442D01*
X743996Y-2875165D01*
X745937Y-2876083D01*
X747778Y-2877187D01*
X749502Y-2878465D01*
X751093Y-2879907D01*
X752535Y-2881498D01*
X753813Y-2883222D01*
X754917Y-2885063D01*
X755835Y-2887004D01*
X756558Y-2889025D01*
X757080Y-2891107D01*
X757395Y-2893231D01*
X757500Y-2895375D01*
X757500Y-2946625D01*
X757395Y-2948769D01*
X757080Y-2950893D01*
X756558Y-2952975D01*
X755835Y-2954996D01*
X754917Y-2956937D01*
X753813Y-2958778D01*
X752535Y-2960502D01*
X751093Y-2962093D01*
X749502Y-2963535D01*
X747778Y-2964813D01*
X745937Y-2965917D01*
X743996Y-2966835D01*
X741975Y-2967558D01*
X739893Y-2968080D01*
X737769Y-2968395D01*
X735625Y-2968500D01*
X691875Y-2968500D01*
X689731Y-2968395D01*
X687607Y-2968080D01*
X685525Y-2967558D01*
X683504Y-2966835D01*
X681563Y-2965917D01*
X679722Y-2964813D01*
X677998Y-2963535D01*
X676407Y-2962093D01*
X674965Y-2960502D01*
X673687Y-2958778D01*
X672583Y-2956937D01*
X671665Y-2954996D01*
X670942Y-2952975D01*
X670420Y-2950893D01*
X670105Y-2948769D01*
X670000Y-2946625D01*
X670000Y-2895375D01*
X670105Y-2893231D01*
X670420Y-2891107D01*
X670942Y-2889025D01*
X671665Y-2887004D01*
X672583Y-2885063D01*
X673687Y-2883222D01*
X674965Y-2881498D01*
X676407Y-2879907D01*
X677998Y-2878465D01*
X679722Y-2877187D01*
X681563Y-2876083D01*
X683504Y-2875165D01*
X685525Y-2874442D01*
X687607Y-2873920D01*
X689731Y-2873605D01*
X691875Y-2873500D01*
X735625Y-2873500D01*
X737769Y-2873605D01*
G37*
%TD.AperFunction*%
%TA.AperFunction,SMDPad,CuDef*%
G36*
X580269Y-2873605D02*
G01*
X582393Y-2873920D01*
X584475Y-2874442D01*
X586496Y-2875165D01*
X588437Y-2876083D01*
X590278Y-2877187D01*
X592002Y-2878465D01*
X593593Y-2879907D01*
X595035Y-2881498D01*
X596313Y-2883222D01*
X597417Y-2885063D01*
X598335Y-2887004D01*
X599058Y-2889025D01*
X599580Y-2891107D01*
X599895Y-2893231D01*
X600000Y-2895375D01*
X600000Y-2946625D01*
X599895Y-2948769D01*
X599580Y-2950893D01*
X599058Y-2952975D01*
X598335Y-2954996D01*
X597417Y-2956937D01*
X596313Y-2958778D01*
X595035Y-2960502D01*
X593593Y-2962093D01*
X592002Y-2963535D01*
X590278Y-2964813D01*
X588437Y-2965917D01*
X586496Y-2966835D01*
X584475Y-2967558D01*
X582393Y-2968080D01*
X580269Y-2968395D01*
X578125Y-2968500D01*
X534375Y-2968500D01*
X532231Y-2968395D01*
X530107Y-2968080D01*
X528025Y-2967558D01*
X526004Y-2966835D01*
X524063Y-2965917D01*
X522222Y-2964813D01*
X520498Y-2963535D01*
X518907Y-2962093D01*
X517465Y-2960502D01*
X516187Y-2958778D01*
X515083Y-2956937D01*
X514165Y-2954996D01*
X513442Y-2952975D01*
X512920Y-2950893D01*
X512605Y-2948769D01*
X512500Y-2946625D01*
X512500Y-2895375D01*
X512605Y-2893231D01*
X512920Y-2891107D01*
X513442Y-2889025D01*
X514165Y-2887004D01*
X515083Y-2885063D01*
X516187Y-2883222D01*
X517465Y-2881498D01*
X518907Y-2879907D01*
X520498Y-2878465D01*
X522222Y-2877187D01*
X524063Y-2876083D01*
X526004Y-2875165D01*
X528025Y-2874442D01*
X530107Y-2873920D01*
X532231Y-2873605D01*
X534375Y-2873500D01*
X578125Y-2873500D01*
X580269Y-2873605D01*
G37*
%TD.AperFunction*%
%TA.AperFunction,SMDPad,CuDef*%
G36*
X580269Y-3127605D02*
G01*
X582393Y-3127920D01*
X584475Y-3128442D01*
X586496Y-3129165D01*
X588437Y-3130083D01*
X590278Y-3131187D01*
X592002Y-3132465D01*
X593593Y-3133907D01*
X595035Y-3135498D01*
X596313Y-3137222D01*
X597417Y-3139063D01*
X598335Y-3141004D01*
X599058Y-3143025D01*
X599580Y-3145107D01*
X599895Y-3147231D01*
X600000Y-3149375D01*
X600000Y-3200625D01*
X599895Y-3202769D01*
X599580Y-3204893D01*
X599058Y-3206975D01*
X598335Y-3208996D01*
X597417Y-3210937D01*
X596313Y-3212778D01*
X595035Y-3214502D01*
X593593Y-3216093D01*
X592002Y-3217535D01*
X590278Y-3218813D01*
X588437Y-3219917D01*
X586496Y-3220835D01*
X584475Y-3221558D01*
X582393Y-3222080D01*
X580269Y-3222395D01*
X578125Y-3222500D01*
X534375Y-3222500D01*
X532231Y-3222395D01*
X530107Y-3222080D01*
X528025Y-3221558D01*
X526004Y-3220835D01*
X524063Y-3219917D01*
X522222Y-3218813D01*
X520498Y-3217535D01*
X518907Y-3216093D01*
X517465Y-3214502D01*
X516187Y-3212778D01*
X515083Y-3210937D01*
X514165Y-3208996D01*
X513442Y-3206975D01*
X512920Y-3204893D01*
X512605Y-3202769D01*
X512500Y-3200625D01*
X512500Y-3149375D01*
X512605Y-3147231D01*
X512920Y-3145107D01*
X513442Y-3143025D01*
X514165Y-3141004D01*
X515083Y-3139063D01*
X516187Y-3137222D01*
X517465Y-3135498D01*
X518907Y-3133907D01*
X520498Y-3132465D01*
X522222Y-3131187D01*
X524063Y-3130083D01*
X526004Y-3129165D01*
X528025Y-3128442D01*
X530107Y-3127920D01*
X532231Y-3127605D01*
X534375Y-3127500D01*
X578125Y-3127500D01*
X580269Y-3127605D01*
G37*
%TD.AperFunction*%
%TA.AperFunction,SMDPad,CuDef*%
G36*
X737769Y-3127605D02*
G01*
X739893Y-3127920D01*
X741975Y-3128442D01*
X743996Y-3129165D01*
X745937Y-3130083D01*
X747778Y-3131187D01*
X749502Y-3132465D01*
X751093Y-3133907D01*
X752535Y-3135498D01*
X753813Y-3137222D01*
X754917Y-3139063D01*
X755835Y-3141004D01*
X756558Y-3143025D01*
X757080Y-3145107D01*
X757395Y-3147231D01*
X757500Y-3149375D01*
X757500Y-3200625D01*
X757395Y-3202769D01*
X757080Y-3204893D01*
X756558Y-3206975D01*
X755835Y-3208996D01*
X754917Y-3210937D01*
X753813Y-3212778D01*
X752535Y-3214502D01*
X751093Y-3216093D01*
X749502Y-3217535D01*
X747778Y-3218813D01*
X745937Y-3219917D01*
X743996Y-3220835D01*
X741975Y-3221558D01*
X739893Y-3222080D01*
X737769Y-3222395D01*
X735625Y-3222500D01*
X691875Y-3222500D01*
X689731Y-3222395D01*
X687607Y-3222080D01*
X685525Y-3221558D01*
X683504Y-3220835D01*
X681563Y-3219917D01*
X679722Y-3218813D01*
X677998Y-3217535D01*
X676407Y-3216093D01*
X674965Y-3214502D01*
X673687Y-3212778D01*
X672583Y-3210937D01*
X671665Y-3208996D01*
X670942Y-3206975D01*
X670420Y-3204893D01*
X670105Y-3202769D01*
X670000Y-3200625D01*
X670000Y-3149375D01*
X670105Y-3147231D01*
X670420Y-3145107D01*
X670942Y-3143025D01*
X671665Y-3141004D01*
X672583Y-3139063D01*
X673687Y-3137222D01*
X674965Y-3135498D01*
X676407Y-3133907D01*
X677998Y-3132465D01*
X679722Y-3131187D01*
X681563Y-3130083D01*
X683504Y-3129165D01*
X685525Y-3128442D01*
X687607Y-3127920D01*
X689731Y-3127605D01*
X691875Y-3127500D01*
X735625Y-3127500D01*
X737769Y-3127605D01*
G37*
%TD.AperFunction*%
%TA.AperFunction,SMDPad,CuDef*%
G36*
X1154440Y-3113000D02*
G01*
X1154440Y-3115453D01*
X1153959Y-3120336D01*
X1153002Y-3125149D01*
X1151577Y-3129844D01*
X1149700Y-3134378D01*
X1147386Y-3138705D01*
X1144660Y-3142785D01*
X1141548Y-3146578D01*
X1138078Y-3150048D01*
X1134285Y-3153160D01*
X1130205Y-3155886D01*
X1125878Y-3158199D01*
X1121345Y-3160077D01*
X1116649Y-3161502D01*
X1111837Y-3162459D01*
X1106953Y-3162940D01*
X1104500Y-3162940D01*
X1104500Y-3163000D01*
X1054500Y-3163000D01*
X1054500Y-3162940D01*
X1052047Y-3162940D01*
X1047163Y-3162459D01*
X1042351Y-3161502D01*
X1037655Y-3160077D01*
X1033122Y-3158199D01*
X1028795Y-3155886D01*
X1024715Y-3153160D01*
X1020922Y-3150048D01*
X1017452Y-3146578D01*
X1014340Y-3142785D01*
X1011614Y-3138705D01*
X1009300Y-3134378D01*
X1007423Y-3129844D01*
X1005998Y-3125149D01*
X1005041Y-3120336D01*
X1004560Y-3115453D01*
X1004560Y-3113000D01*
X1004500Y-3113000D01*
X1004500Y-3063000D01*
X1154500Y-3063000D01*
X1154500Y-3113000D01*
X1154440Y-3113000D01*
G37*
%TD.AperFunction*%
%TA.AperFunction,SMDPad,CuDef*%
G36*
X1004500Y-3033000D02*
G01*
X1004500Y-2983000D01*
X1004560Y-2983000D01*
X1004560Y-2980547D01*
X1005041Y-2975663D01*
X1005998Y-2970851D01*
X1007423Y-2966155D01*
X1009300Y-2961622D01*
X1011614Y-2957295D01*
X1014340Y-2953215D01*
X1017452Y-2949422D01*
X1020922Y-2945952D01*
X1024715Y-2942840D01*
X1028795Y-2940114D01*
X1033122Y-2937800D01*
X1037655Y-2935923D01*
X1042351Y-2934498D01*
X1047163Y-2933541D01*
X1052047Y-2933060D01*
X1054500Y-2933060D01*
X1054500Y-2933000D01*
X1104500Y-2933000D01*
X1104500Y-2933060D01*
X1106953Y-2933060D01*
X1111837Y-2933541D01*
X1116649Y-2934498D01*
X1121345Y-2935923D01*
X1125878Y-2937800D01*
X1130205Y-2940114D01*
X1134285Y-2942840D01*
X1138078Y-2945952D01*
X1141548Y-2949422D01*
X1144660Y-2953215D01*
X1147386Y-2957295D01*
X1149700Y-2961622D01*
X1151577Y-2966155D01*
X1153002Y-2970851D01*
X1153959Y-2975663D01*
X1154440Y-2980547D01*
X1154440Y-2983000D01*
X1154500Y-2983000D01*
X1154500Y-3033000D01*
X1004500Y-3033000D01*
G37*
%TD.AperFunction*%
D14*
X1624000Y-3048000D03*
X1424000Y-3143000D03*
X1424000Y-2953000D03*
D15*
X0Y-254000D03*
X0Y-762000D03*
X0Y-508000D03*
X0Y-2540000D03*
X0Y-2286000D03*
X0Y-1778000D03*
X0Y-2032000D03*
X0Y-3556000D03*
X0Y-1524000D03*
X0Y-1016000D03*
X0Y-1270000D03*
X0Y-2794000D03*
X0Y-3302000D03*
X0Y-3048000D03*
X0Y0D03*
X2286000Y-3556000D03*
X2286000Y-3302000D03*
X2286000Y-3048000D03*
X2286000Y-2794000D03*
X2286000Y-2540000D03*
X2286000Y-2286000D03*
X2286000Y-2032000D03*
X2286000Y-1778000D03*
X2286000Y-1524000D03*
X2286000Y-1270000D03*
X2286000Y-1016000D03*
X2286000Y-762000D03*
X2286000Y-508000D03*
X2286000Y-254000D03*
D16*
X2286000Y0D03*
D17*
X1554500Y-3991500D03*
X1874500Y-3991500D03*
X1554500Y-3501500D03*
X1874500Y-3501500D03*
X983000Y-3991500D03*
X1303000Y-3991500D03*
X983000Y-3501500D03*
X1303000Y-3501500D03*
X411500Y-3991500D03*
X731500Y-3991500D03*
X411500Y-3501500D03*
X731500Y-3501500D03*
D18*
X596900Y-3746500D03*
X1117600Y-3746500D03*
X1689100Y-3302000D03*
X1117600Y-3302000D03*
X228600Y-2806700D03*
X431800Y-2286000D03*
X1130300Y-2286000D03*
X1651000Y-1397000D03*
X1651000Y-381000D03*
X546100Y-1866900D03*
X381000Y-1524000D03*
X622300Y-622300D03*
X431800Y-622300D03*
X241300Y-1270000D03*
X254000Y-622300D03*
X800100Y-622300D03*
X1409700Y-889000D03*
X1651000Y-2057400D03*
X546100Y317500D03*
X889000Y88900D03*
X2019300Y-4140200D03*
X1162050Y-127000D03*
X1536700Y177800D03*
X1727200Y-2667000D03*
X1130300Y-2070100D03*
X1333500Y127000D03*
X1079500Y-254000D03*
X888999Y-508000D03*
X711200Y88900D03*
X342900Y-101600D03*
X520700Y88900D03*
X1079500Y-762000D03*
X927100Y-1282700D03*
X1168400Y50800D03*
X1422400Y50800D03*
D19*
X1316350Y262250D02*
X1263000Y262250D01*
X1356350Y302250D02*
X1316350Y262250D01*
X1460500Y302250D02*
X1356350Y302250D01*
D20*
X411500Y-4107200D02*
X457200Y-4152900D01*
X990600Y-4152900D02*
X457200Y-4152900D01*
X1554500Y-3991500D02*
X1554500Y-4091500D01*
X1554500Y-4091500D02*
X1493100Y-4152900D01*
X1493100Y-4152900D02*
X990600Y-4152900D01*
X411500Y-3991500D02*
X411500Y-4107200D01*
X990600Y-4099100D02*
X990600Y-4152900D01*
X983000Y-3991500D02*
X983000Y-4091500D01*
X983000Y-4091500D02*
X990600Y-4099100D01*
X482600Y-3175000D02*
X556250Y-3175000D01*
X304800Y-3352800D02*
X482600Y-3175000D01*
X304800Y-3683000D02*
X304800Y-3352800D01*
X411500Y-3789700D02*
X304800Y-3683000D01*
X411500Y-3991500D02*
X411500Y-3789700D01*
X1554500Y-3991500D02*
X1554500Y-3893800D01*
X1554500Y-3893800D02*
X1689100Y-3759200D01*
X2142316Y-3556000D02*
X2286000Y-3556000D01*
X1689100Y-3759200D02*
X1939116Y-3759200D01*
X1939116Y-3759200D02*
X2142316Y-3556000D01*
D21*
X2159000Y-2667000D02*
X1727200Y-2667000D01*
X2286000Y-2540000D02*
X2159000Y-2667000D01*
X1687200Y-2627000D02*
X1170300Y-2110100D01*
X1727200Y-2667000D02*
X1687200Y-2627000D01*
X1170300Y-2110100D02*
X1130300Y-2070100D01*
X1183000Y262250D02*
X1183000Y188600D01*
X1183000Y188600D02*
X1244600Y127000D01*
X1244600Y127000D02*
X1333500Y127000D01*
D19*
X731500Y-3878600D02*
X731500Y-3991500D01*
X983000Y-3627100D02*
X731500Y-3878600D01*
X983000Y-3501500D02*
X983000Y-3627100D01*
X1303000Y-3872150D02*
X1303000Y-3991500D01*
X1554500Y-3620650D02*
X1303000Y-3872150D01*
X1554500Y-3501500D02*
X1554500Y-3620650D01*
X1119500Y-294000D02*
X1079500Y-254000D01*
X1511309Y-685809D02*
X1119500Y-294000D01*
X1511309Y-1790709D02*
X1511309Y-685809D01*
X2006600Y-2286000D02*
X1511309Y-1790709D01*
X1079500Y167000D02*
X1079500Y-254000D01*
X1103000Y190500D02*
X1079500Y167000D01*
X1103000Y262250D02*
X1103000Y190500D01*
X1054100Y-508000D02*
X888999Y-508000D01*
X1295400Y-749300D02*
X1054100Y-508000D01*
X1295400Y-1828800D02*
X1295400Y-749300D01*
X2006600Y-2540000D02*
X1295400Y-1828800D01*
X888999Y-190501D02*
X888999Y-508000D01*
X1023000Y-56500D02*
X888999Y-190501D01*
X1023000Y262250D02*
X1023000Y-56500D01*
X711200Y8900D02*
X711200Y88900D01*
X711200Y-1574800D02*
X711200Y8900D01*
X0Y-2286000D02*
X711200Y-1574800D01*
X342900Y-1435100D02*
X342900Y-101600D01*
X0Y-1778000D02*
X342900Y-1435100D01*
X0Y-2032000D02*
X516901Y-1515098D01*
X516901Y28533D02*
X520700Y32331D01*
X516901Y-1515098D02*
X516901Y28533D01*
X520700Y32331D02*
X520700Y88900D01*
X1424000Y-3143000D02*
X1288800Y-3143000D01*
X1258800Y-3113000D02*
X1288800Y-3143000D01*
X1079500Y-3113000D02*
X1258800Y-3113000D01*
X495300Y-3263900D02*
X411500Y-3347700D01*
X411500Y-3347700D02*
X411500Y-3501500D01*
X685800Y-3263900D02*
X495300Y-3263900D01*
X713750Y-3235950D02*
X685800Y-3263900D01*
X713750Y-3175000D02*
X713750Y-3235950D01*
X850900Y-3175000D02*
X711200Y-3175000D01*
X912900Y-3113000D02*
X850900Y-3175000D01*
X1079500Y-3113000D02*
X912900Y-3113000D01*
X1003300Y-2882900D02*
X965200Y-2921000D01*
X1143000Y-2882900D02*
X1003300Y-2882900D01*
X965200Y-2921000D02*
X723900Y-2921000D01*
X1213100Y-2953000D02*
X1143000Y-2882900D01*
X1424000Y-2953000D02*
X1213100Y-2953000D01*
X1079500Y-818568D02*
X1079500Y-762000D01*
X1079500Y-1778000D02*
X1079500Y-818568D01*
X556250Y-2301250D02*
X1079500Y-1778000D01*
X556250Y-2921000D02*
X556250Y-2301250D01*
X801600Y-2983000D02*
X1079500Y-2983000D01*
X774700Y-3009900D02*
X801600Y-2983000D01*
X571500Y-3009900D02*
X774700Y-3009900D01*
X556250Y-2994650D02*
X571500Y-3009900D01*
X556250Y-2921000D02*
X556250Y-2994650D01*
X0Y-2540000D02*
X927100Y-1612900D01*
X927100Y-1612900D02*
X927100Y-1339269D01*
X927100Y-1339269D02*
X927100Y-1282700D01*
X1168400Y50800D02*
X1422400Y50800D01*
D11*
G36*
X-2814Y591160D02*
G01*
X-33524Y570641D01*
X-59641Y544524D01*
X-80160Y513814D01*
X-94294Y479692D01*
X-101500Y443467D01*
X-101500Y406533D01*
X-94294Y370308D01*
X-80160Y336186D01*
X-59641Y305476D01*
X-33524Y279359D01*
X-2814Y258840D01*
X31308Y244706D01*
X67533Y237500D01*
X104467Y237500D01*
X140692Y244706D01*
X174814Y258840D01*
X205524Y279359D01*
X231641Y305476D01*
X252160Y336186D01*
X266294Y370308D01*
X273500Y406533D01*
X273500Y416000D01*
X750367Y416000D01*
X750898Y410609D01*
X752470Y405425D01*
X755024Y400648D01*
X758460Y396460D01*
X762648Y393024D01*
X767425Y390470D01*
X772609Y388898D01*
X773859Y388775D01*
X773128Y386365D01*
X772600Y381000D01*
X772600Y365412D01*
X772370Y365289D01*
X764868Y359132D01*
X758711Y351630D01*
X754136Y343071D01*
X751318Y333784D01*
X750367Y324125D01*
X750367Y280375D01*
X751318Y270717D01*
X754136Y261429D01*
X758711Y252870D01*
X764868Y245368D01*
X772370Y239211D01*
X772600Y239088D01*
X772600Y203200D01*
X773128Y197835D01*
X774693Y192676D01*
X777235Y187922D01*
X780655Y183755D01*
X784822Y180335D01*
X789576Y177793D01*
X794735Y176228D01*
X800100Y175700D01*
X983000Y175700D01*
X983000Y-39931D01*
X862105Y-160827D01*
X860578Y-162080D01*
X855580Y-168170D01*
X851865Y-175119D01*
X849578Y-182659D01*
X849578Y-182659D01*
X848806Y-190501D01*
X848999Y-192465D01*
X848999Y-453545D01*
X845971Y-455569D01*
X836569Y-464971D01*
X829182Y-476027D01*
X824093Y-488311D01*
X821499Y-501352D01*
X821499Y-514648D01*
X824093Y-527689D01*
X829182Y-539973D01*
X836569Y-551029D01*
X845971Y-560431D01*
X857026Y-567818D01*
X869310Y-572906D01*
X882351Y-575500D01*
X895648Y-575500D01*
X908688Y-572906D01*
X920973Y-567818D01*
X932028Y-560431D01*
X941430Y-551029D01*
X943454Y-548000D01*
X1037531Y-548000D01*
X1255400Y-765869D01*
X1255400Y-1826835D01*
X1255207Y-1828800D01*
X1255400Y-1830765D01*
X1255979Y-1836641D01*
X1258266Y-1844181D01*
X1261980Y-1851130D01*
X1266979Y-1857221D01*
X1268505Y-1858474D01*
X1903928Y-2493896D01*
X1898423Y-2507185D01*
X1894100Y-2528920D01*
X1894100Y-2551080D01*
X1898423Y-2572815D01*
X1906904Y-2593289D01*
X1919216Y-2611715D01*
X1927001Y-2619500D01*
X1775159Y-2619500D01*
X1770229Y-2614569D01*
X1759173Y-2607182D01*
X1746889Y-2602094D01*
X1733848Y-2599500D01*
X1726875Y-2599500D01*
X1722438Y-2595063D01*
X1722437Y-2595062D01*
X1205538Y-2078163D01*
X1205537Y-2078162D01*
X1197800Y-2070425D01*
X1197800Y-2063452D01*
X1195206Y-2050411D01*
X1190118Y-2038127D01*
X1182731Y-2027071D01*
X1173329Y-2017669D01*
X1162273Y-2010282D01*
X1149989Y-2005194D01*
X1136948Y-2002600D01*
X1123652Y-2002600D01*
X1110611Y-2005194D01*
X1098327Y-2010282D01*
X1087272Y-2017669D01*
X1077870Y-2027071D01*
X1070483Y-2038127D01*
X1065394Y-2050411D01*
X1062800Y-2063452D01*
X1062800Y-2076748D01*
X1065394Y-2089789D01*
X1070483Y-2102073D01*
X1077870Y-2113129D01*
X1087272Y-2122531D01*
X1098327Y-2129918D01*
X1110611Y-2135006D01*
X1123652Y-2137600D01*
X1130625Y-2137600D01*
X1138362Y-2145337D01*
X1138363Y-2145338D01*
X1655262Y-2662237D01*
X1655263Y-2662238D01*
X1659700Y-2666675D01*
X1659700Y-2673648D01*
X1662294Y-2686689D01*
X1667382Y-2698973D01*
X1674769Y-2710029D01*
X1684171Y-2719431D01*
X1695227Y-2726818D01*
X1707511Y-2731906D01*
X1720552Y-2734500D01*
X1733848Y-2734500D01*
X1746889Y-2731906D01*
X1759173Y-2726818D01*
X1770229Y-2719431D01*
X1775159Y-2714500D01*
X1927234Y-2714500D01*
X1914138Y-2729913D01*
X1903412Y-2749183D01*
X1896652Y-2770175D01*
X1895904Y-2773936D01*
X1901005Y-2791500D01*
X2004100Y-2791500D01*
X2004100Y-2789500D01*
X2009100Y-2789500D01*
X2009100Y-2791500D01*
X2112195Y-2791500D01*
X2117296Y-2773936D01*
X2116548Y-2770175D01*
X2109788Y-2749183D01*
X2099062Y-2729913D01*
X2085966Y-2714500D01*
X2156667Y-2714500D01*
X2159000Y-2714730D01*
X2161333Y-2714500D01*
X2168312Y-2713813D01*
X2177265Y-2711097D01*
X2185517Y-2706686D01*
X2192750Y-2700750D01*
X2194238Y-2698937D01*
X2234691Y-2658484D01*
X2248343Y-2664139D01*
X2262727Y-2667000D01*
X2248343Y-2669861D01*
X2224848Y-2679593D01*
X2203704Y-2693722D01*
X2185722Y-2711704D01*
X2171593Y-2732848D01*
X2161861Y-2756343D01*
X2156900Y-2781285D01*
X2156900Y-2806715D01*
X2161861Y-2831657D01*
X2171593Y-2855152D01*
X2185722Y-2876296D01*
X2203704Y-2894278D01*
X2224848Y-2908407D01*
X2248343Y-2918139D01*
X2262727Y-2921000D01*
X2248343Y-2923861D01*
X2224848Y-2933593D01*
X2203704Y-2947721D01*
X2185722Y-2965703D01*
X2171593Y-2986848D01*
X2161861Y-3010343D01*
X2156900Y-3035285D01*
X2156900Y-3060715D01*
X2161861Y-3085657D01*
X2171593Y-3109152D01*
X2185722Y-3130296D01*
X2203704Y-3148278D01*
X2224848Y-3162407D01*
X2248343Y-3172139D01*
X2261545Y-3174765D01*
X2238763Y-3181181D01*
X2216100Y-3192718D01*
X2211787Y-3195600D01*
X2200918Y-3213382D01*
X2286000Y-3298464D01*
X2371082Y-3213382D01*
X2360214Y-3195600D01*
X2338030Y-3183167D01*
X2313847Y-3175299D01*
X2310040Y-3174847D01*
X2323657Y-3172139D01*
X2347152Y-3162407D01*
X2368297Y-3148278D01*
X2386279Y-3130296D01*
X2400407Y-3109152D01*
X2410139Y-3085657D01*
X2415100Y-3060715D01*
X2415100Y-3035285D01*
X2410139Y-3010343D01*
X2400407Y-2986848D01*
X2386279Y-2965703D01*
X2368297Y-2947721D01*
X2347152Y-2933593D01*
X2323657Y-2923861D01*
X2309273Y-2921000D01*
X2323657Y-2918139D01*
X2347152Y-2908407D01*
X2368297Y-2894278D01*
X2386279Y-2876296D01*
X2400407Y-2855152D01*
X2410139Y-2831657D01*
X2415100Y-2806715D01*
X2415100Y-2781285D01*
X2410139Y-2756343D01*
X2400407Y-2732848D01*
X2386279Y-2711704D01*
X2368297Y-2693722D01*
X2347152Y-2679593D01*
X2323657Y-2669861D01*
X2309273Y-2667000D01*
X2323657Y-2664139D01*
X2347152Y-2654407D01*
X2368297Y-2640279D01*
X2386279Y-2622297D01*
X2400407Y-2601152D01*
X2410139Y-2577657D01*
X2415100Y-2552715D01*
X2415100Y-2527285D01*
X2410139Y-2502343D01*
X2400407Y-2478848D01*
X2386279Y-2457704D01*
X2368297Y-2439722D01*
X2347152Y-2425593D01*
X2323657Y-2415861D01*
X2310455Y-2413235D01*
X2333237Y-2406819D01*
X2355900Y-2395282D01*
X2360214Y-2392400D01*
X2371082Y-2374618D01*
X2286000Y-2289536D01*
X2200918Y-2374618D01*
X2211787Y-2392400D01*
X2233970Y-2404833D01*
X2258153Y-2412701D01*
X2261960Y-2413153D01*
X2248343Y-2415861D01*
X2224848Y-2425593D01*
X2203704Y-2439722D01*
X2185722Y-2457704D01*
X2171593Y-2478848D01*
X2161861Y-2502343D01*
X2156900Y-2527285D01*
X2156900Y-2552715D01*
X2161861Y-2577657D01*
X2167516Y-2591309D01*
X2139325Y-2619500D01*
X2086199Y-2619500D01*
X2093984Y-2611715D01*
X2106296Y-2593289D01*
X2114777Y-2572815D01*
X2119100Y-2551080D01*
X2119100Y-2528920D01*
X2114777Y-2507185D01*
X2106296Y-2486711D01*
X2093984Y-2468286D01*
X2078314Y-2452616D01*
X2059889Y-2440304D01*
X2039415Y-2431823D01*
X2017680Y-2427500D01*
X1995520Y-2427500D01*
X1973785Y-2431823D01*
X1960496Y-2437328D01*
X1335400Y-1812231D01*
X1335400Y-751263D01*
X1335593Y-749300D01*
X1335400Y-747336D01*
X1335400Y-747335D01*
X1334821Y-741459D01*
X1332534Y-733919D01*
X1328820Y-726970D01*
X1327093Y-724866D01*
X1325074Y-722405D01*
X1325073Y-722405D01*
X1323821Y-720879D01*
X1322295Y-719627D01*
X1083774Y-481105D01*
X1082521Y-479579D01*
X1076430Y-474580D01*
X1069481Y-470866D01*
X1061941Y-468579D01*
X1056065Y-468000D01*
X1056065Y-468000D01*
X1054100Y-467806D01*
X1052135Y-468000D01*
X943454Y-468000D01*
X941430Y-464971D01*
X932028Y-455569D01*
X928999Y-453546D01*
X928999Y-207069D01*
X1039500Y-96568D01*
X1039500Y-199545D01*
X1036471Y-201569D01*
X1027069Y-210971D01*
X1019682Y-222027D01*
X1014594Y-234311D01*
X1012000Y-247352D01*
X1012000Y-260648D01*
X1014594Y-273689D01*
X1019682Y-285973D01*
X1027069Y-297029D01*
X1036471Y-306431D01*
X1047527Y-313818D01*
X1059811Y-318906D01*
X1072852Y-321500D01*
X1086148Y-321500D01*
X1089721Y-320789D01*
X1092605Y-323673D01*
X1092606Y-323674D01*
X1471309Y-702378D01*
X1471309Y-1788745D01*
X1471116Y-1790709D01*
X1471309Y-1792674D01*
X1471888Y-1798550D01*
X1474175Y-1806090D01*
X1477889Y-1813039D01*
X1482888Y-1819130D01*
X1484414Y-1820383D01*
X1903928Y-2239896D01*
X1898423Y-2253185D01*
X1894100Y-2274920D01*
X1894100Y-2297080D01*
X1898423Y-2318815D01*
X1906904Y-2339289D01*
X1919216Y-2357715D01*
X1934885Y-2373384D01*
X1953311Y-2385696D01*
X1973785Y-2394177D01*
X1995520Y-2398500D01*
X2017680Y-2398500D01*
X2039415Y-2394177D01*
X2059889Y-2385696D01*
X2078314Y-2373384D01*
X2093984Y-2357715D01*
X2106296Y-2339289D01*
X2114777Y-2318815D01*
X2119100Y-2297080D01*
X2119100Y-2283406D01*
X2156301Y-2283406D01*
X2158287Y-2308759D01*
X2165181Y-2333237D01*
X2176718Y-2355900D01*
X2179601Y-2360214D01*
X2197382Y-2371082D01*
X2282465Y-2286000D01*
X2289536Y-2286000D01*
X2374618Y-2371082D01*
X2392400Y-2360214D01*
X2404833Y-2338030D01*
X2412701Y-2313847D01*
X2415699Y-2288594D01*
X2413713Y-2263241D01*
X2406819Y-2238763D01*
X2395282Y-2216100D01*
X2392400Y-2211787D01*
X2374618Y-2200918D01*
X2289536Y-2286000D01*
X2282465Y-2286000D01*
X2197382Y-2200918D01*
X2179601Y-2211787D01*
X2167167Y-2233970D01*
X2159299Y-2258153D01*
X2156301Y-2283406D01*
X2119100Y-2283406D01*
X2119100Y-2274920D01*
X2114777Y-2253185D01*
X2106296Y-2232711D01*
X2093984Y-2214286D01*
X2078314Y-2198616D01*
X2059889Y-2186304D01*
X2039415Y-2177823D01*
X2017680Y-2173500D01*
X1995520Y-2173500D01*
X1973785Y-2177823D01*
X1960496Y-2183328D01*
X1551309Y-1774141D01*
X1551309Y-687774D01*
X1551503Y-685809D01*
X1550730Y-677968D01*
X1548443Y-670428D01*
X1544729Y-663479D01*
X1540983Y-658914D01*
X1540982Y-658914D01*
X1539730Y-657388D01*
X1538204Y-656136D01*
X1149174Y-267105D01*
X1149174Y-267105D01*
X1146290Y-264221D01*
X1147000Y-260648D01*
X1147000Y-247352D01*
X1144406Y-234311D01*
X1139318Y-222027D01*
X1131931Y-210971D01*
X1122529Y-201569D01*
X1119500Y-199545D01*
X1119500Y4241D01*
X1125371Y-1631D01*
X1136427Y-9018D01*
X1148711Y-14106D01*
X1161752Y-16700D01*
X1175048Y-16700D01*
X1188089Y-14106D01*
X1200373Y-9018D01*
X1211429Y-1631D01*
X1220831Y7771D01*
X1222854Y10800D01*
X1367946Y10800D01*
X1369969Y7771D01*
X1379371Y-1631D01*
X1390427Y-9018D01*
X1402711Y-14106D01*
X1415752Y-16700D01*
X1429048Y-16700D01*
X1442089Y-14106D01*
X1454373Y-9018D01*
X1465429Y-1631D01*
X1474831Y7771D01*
X1482218Y18827D01*
X1487306Y31111D01*
X1489900Y44152D01*
X1489900Y57448D01*
X1487306Y70489D01*
X1482218Y82773D01*
X1474831Y93829D01*
X1467059Y101600D01*
X2156767Y101600D01*
X2156767Y-101600D01*
X2157298Y-106991D01*
X2158870Y-112175D01*
X2161424Y-116952D01*
X2164861Y-121139D01*
X2169048Y-124576D01*
X2173825Y-127130D01*
X2179009Y-128702D01*
X2184400Y-129233D01*
X2251501Y-129233D01*
X2248343Y-129861D01*
X2224848Y-139593D01*
X2203704Y-153722D01*
X2185722Y-171704D01*
X2171593Y-192848D01*
X2161861Y-216343D01*
X2156900Y-241285D01*
X2156900Y-266715D01*
X2161861Y-291657D01*
X2171593Y-315152D01*
X2185722Y-336297D01*
X2203704Y-354278D01*
X2224848Y-368407D01*
X2248343Y-378139D01*
X2262727Y-381000D01*
X2248343Y-383861D01*
X2224848Y-393593D01*
X2203704Y-407721D01*
X2185722Y-425703D01*
X2171593Y-446848D01*
X2161861Y-470343D01*
X2156900Y-495285D01*
X2156900Y-520715D01*
X2161861Y-545657D01*
X2171593Y-569152D01*
X2185722Y-590297D01*
X2203704Y-608279D01*
X2224848Y-622407D01*
X2248343Y-632139D01*
X2262727Y-635000D01*
X2248343Y-637861D01*
X2224848Y-647593D01*
X2203704Y-661722D01*
X2185722Y-679704D01*
X2171593Y-700848D01*
X2161861Y-724343D01*
X2156900Y-749285D01*
X2156900Y-774715D01*
X2161861Y-799657D01*
X2171593Y-823152D01*
X2185722Y-844296D01*
X2203704Y-862278D01*
X2224848Y-876407D01*
X2248343Y-886139D01*
X2262727Y-889000D01*
X2248343Y-891861D01*
X2224848Y-901593D01*
X2203704Y-915721D01*
X2185722Y-933703D01*
X2171593Y-954848D01*
X2161861Y-978343D01*
X2156900Y-1003285D01*
X2156900Y-1028715D01*
X2161861Y-1053657D01*
X2171593Y-1077152D01*
X2185722Y-1098297D01*
X2203704Y-1116279D01*
X2224848Y-1130407D01*
X2248343Y-1140139D01*
X2262727Y-1143000D01*
X2248343Y-1145861D01*
X2224848Y-1155593D01*
X2203704Y-1169722D01*
X2185722Y-1187704D01*
X2171593Y-1208848D01*
X2161861Y-1232343D01*
X2156900Y-1257285D01*
X2156900Y-1282715D01*
X2161861Y-1307657D01*
X2171593Y-1331152D01*
X2185722Y-1352297D01*
X2203704Y-1370279D01*
X2224848Y-1384407D01*
X2248343Y-1394139D01*
X2262727Y-1397000D01*
X2248343Y-1399861D01*
X2224848Y-1409593D01*
X2203704Y-1423721D01*
X2185722Y-1441703D01*
X2171593Y-1462848D01*
X2161861Y-1486343D01*
X2156900Y-1511285D01*
X2156900Y-1536715D01*
X2161861Y-1561657D01*
X2171593Y-1585152D01*
X2185722Y-1606296D01*
X2203704Y-1624278D01*
X2224848Y-1638407D01*
X2248343Y-1648139D01*
X2262727Y-1651000D01*
X2248343Y-1653861D01*
X2224848Y-1663593D01*
X2203704Y-1677721D01*
X2185722Y-1695703D01*
X2171593Y-1716848D01*
X2161861Y-1740343D01*
X2156900Y-1765285D01*
X2156900Y-1790715D01*
X2161861Y-1815657D01*
X2171593Y-1839152D01*
X2185722Y-1860296D01*
X2203704Y-1878278D01*
X2224848Y-1892407D01*
X2248343Y-1902139D01*
X2262727Y-1905000D01*
X2248343Y-1907861D01*
X2224848Y-1917593D01*
X2203704Y-1931721D01*
X2185722Y-1949703D01*
X2171593Y-1970848D01*
X2161861Y-1994343D01*
X2156900Y-2019285D01*
X2156900Y-2044715D01*
X2161861Y-2069657D01*
X2171593Y-2093152D01*
X2185722Y-2114297D01*
X2203704Y-2132279D01*
X2224848Y-2146407D01*
X2248343Y-2156139D01*
X2261545Y-2158765D01*
X2238763Y-2165181D01*
X2216100Y-2176718D01*
X2211787Y-2179601D01*
X2200918Y-2197382D01*
X2286000Y-2282465D01*
X2371082Y-2197382D01*
X2360214Y-2179601D01*
X2338030Y-2167167D01*
X2313847Y-2159299D01*
X2310040Y-2158847D01*
X2323657Y-2156139D01*
X2347152Y-2146407D01*
X2368297Y-2132279D01*
X2386279Y-2114297D01*
X2400407Y-2093152D01*
X2410139Y-2069657D01*
X2415100Y-2044715D01*
X2415100Y-2019285D01*
X2410139Y-1994343D01*
X2400407Y-1970848D01*
X2386279Y-1949703D01*
X2368297Y-1931721D01*
X2347152Y-1917593D01*
X2323657Y-1907861D01*
X2309273Y-1905000D01*
X2323657Y-1902139D01*
X2347152Y-1892407D01*
X2368297Y-1878278D01*
X2386279Y-1860296D01*
X2400407Y-1839152D01*
X2410139Y-1815657D01*
X2415100Y-1790715D01*
X2415100Y-1765285D01*
X2410139Y-1740343D01*
X2400407Y-1716848D01*
X2386279Y-1695703D01*
X2368297Y-1677721D01*
X2347152Y-1663593D01*
X2323657Y-1653861D01*
X2309273Y-1651000D01*
X2323657Y-1648139D01*
X2347152Y-1638407D01*
X2368297Y-1624278D01*
X2386279Y-1606296D01*
X2400407Y-1585152D01*
X2410139Y-1561657D01*
X2415100Y-1536715D01*
X2415100Y-1511285D01*
X2410139Y-1486343D01*
X2400407Y-1462848D01*
X2386279Y-1441703D01*
X2368297Y-1423721D01*
X2347152Y-1409593D01*
X2323657Y-1399861D01*
X2309273Y-1397000D01*
X2323657Y-1394139D01*
X2347152Y-1384407D01*
X2368297Y-1370279D01*
X2386279Y-1352297D01*
X2400407Y-1331152D01*
X2410139Y-1307657D01*
X2415100Y-1282715D01*
X2415100Y-1257285D01*
X2410139Y-1232343D01*
X2400407Y-1208848D01*
X2386279Y-1187704D01*
X2368297Y-1169722D01*
X2347152Y-1155593D01*
X2323657Y-1145861D01*
X2309273Y-1143000D01*
X2323657Y-1140139D01*
X2347152Y-1130407D01*
X2368297Y-1116279D01*
X2386279Y-1098297D01*
X2400407Y-1077152D01*
X2410139Y-1053657D01*
X2415100Y-1028715D01*
X2415100Y-1003285D01*
X2410139Y-978343D01*
X2400407Y-954848D01*
X2386279Y-933703D01*
X2368297Y-915721D01*
X2347152Y-901593D01*
X2323657Y-891861D01*
X2309273Y-889000D01*
X2323657Y-886139D01*
X2347152Y-876407D01*
X2368297Y-862278D01*
X2386279Y-844296D01*
X2400407Y-823152D01*
X2410139Y-799657D01*
X2415100Y-774715D01*
X2415100Y-749285D01*
X2410139Y-724343D01*
X2400407Y-700848D01*
X2386279Y-679704D01*
X2368297Y-661722D01*
X2347152Y-647593D01*
X2323657Y-637861D01*
X2309273Y-635000D01*
X2323657Y-632139D01*
X2347152Y-622407D01*
X2368297Y-608279D01*
X2386279Y-590297D01*
X2400407Y-569152D01*
X2410139Y-545657D01*
X2415100Y-520715D01*
X2415100Y-495285D01*
X2410139Y-470343D01*
X2400407Y-446848D01*
X2386279Y-425703D01*
X2368297Y-407721D01*
X2347152Y-393593D01*
X2323657Y-383861D01*
X2309273Y-381000D01*
X2323657Y-378139D01*
X2347152Y-368407D01*
X2368297Y-354278D01*
X2386279Y-336297D01*
X2400407Y-315152D01*
X2410139Y-291657D01*
X2415100Y-266715D01*
X2415100Y-241285D01*
X2410139Y-216343D01*
X2400407Y-192848D01*
X2386279Y-171704D01*
X2368297Y-153722D01*
X2347152Y-139593D01*
X2323657Y-129861D01*
X2320499Y-129233D01*
X2387600Y-129233D01*
X2392991Y-128702D01*
X2398175Y-127130D01*
X2402952Y-124576D01*
X2407140Y-121139D01*
X2410576Y-116952D01*
X2413130Y-112175D01*
X2414702Y-106991D01*
X2415233Y-101600D01*
X2415233Y101600D01*
X2414702Y106991D01*
X2413130Y112175D01*
X2410576Y116952D01*
X2407140Y121139D01*
X2402952Y124576D01*
X2398175Y127130D01*
X2392991Y128702D01*
X2387600Y129233D01*
X2184400Y129233D01*
X2179009Y128702D01*
X2173825Y127130D01*
X2169048Y124576D01*
X2164861Y121139D01*
X2161424Y116952D01*
X2158870Y112175D01*
X2157298Y106991D01*
X2156767Y101600D01*
X1467059Y101600D01*
X1465429Y103231D01*
X1454373Y110618D01*
X1442089Y115706D01*
X1429048Y118300D01*
X1415752Y118300D01*
X1402711Y115706D01*
X1399839Y114516D01*
X1401000Y120352D01*
X1401000Y133648D01*
X1398406Y146689D01*
X1393318Y158973D01*
X1385931Y170029D01*
X1376529Y179431D01*
X1365473Y186818D01*
X1353189Y191906D01*
X1340148Y194500D01*
X1326852Y194500D01*
X1313811Y191906D01*
X1301527Y186818D01*
X1290471Y179431D01*
X1285541Y174500D01*
X1264275Y174500D01*
X1244954Y193821D01*
X1246172Y197835D01*
X1246700Y203200D01*
X1246700Y208441D01*
X1253625Y208500D01*
X1260500Y215375D01*
X1260500Y259750D01*
X1265500Y259750D01*
X1265500Y215375D01*
X1272375Y208500D01*
X1288000Y208367D01*
X1293391Y208898D01*
X1298575Y210470D01*
X1303352Y213024D01*
X1307540Y216460D01*
X1310976Y220648D01*
X1313530Y225425D01*
X1315102Y230609D01*
X1315633Y236000D01*
X1315500Y252875D01*
X1309875Y258500D01*
X1385367Y258500D01*
X1385898Y253109D01*
X1387470Y247925D01*
X1390024Y243148D01*
X1393460Y238960D01*
X1397648Y235524D01*
X1402425Y232970D01*
X1407609Y231398D01*
X1413000Y230867D01*
X1451125Y231000D01*
X1458000Y237875D01*
X1458000Y299750D01*
X1463000Y299750D01*
X1463000Y237875D01*
X1469875Y231000D01*
X1508000Y230867D01*
X1513391Y231398D01*
X1518575Y232970D01*
X1523352Y235524D01*
X1527540Y238960D01*
X1530976Y243148D01*
X1533530Y247925D01*
X1535102Y253109D01*
X1535633Y258500D01*
X1535500Y292875D01*
X1528625Y299750D01*
X1463000Y299750D01*
X1458000Y299750D01*
X1392375Y299750D01*
X1385500Y292875D01*
X1385367Y258500D01*
X1309875Y258500D01*
X1308625Y259750D01*
X1265500Y259750D01*
X1260500Y259750D01*
X1258500Y259750D01*
X1258500Y264750D01*
X1260500Y264750D01*
X1260500Y309125D01*
X1265500Y309125D01*
X1265500Y264750D01*
X1308625Y264750D01*
X1315500Y271625D01*
X1315633Y288500D01*
X1315102Y293891D01*
X1313530Y299075D01*
X1310976Y303852D01*
X1307540Y308040D01*
X1303352Y311476D01*
X1298575Y314030D01*
X1293391Y315602D01*
X1288000Y316133D01*
X1272375Y316000D01*
X1265500Y309125D01*
X1260500Y309125D01*
X1255108Y314517D01*
X1294091Y353500D01*
X1386538Y353500D01*
X1385898Y351391D01*
X1385367Y346000D01*
X1385500Y311625D01*
X1392375Y304750D01*
X1458000Y304750D01*
X1458000Y306750D01*
X1463000Y306750D01*
X1463000Y304750D01*
X1528625Y304750D01*
X1535500Y311625D01*
X1535633Y346000D01*
X1535102Y351391D01*
X1534462Y353500D01*
X1536700Y353500D01*
X1542065Y354028D01*
X1547224Y355593D01*
X1551978Y358135D01*
X1556145Y361555D01*
X1559565Y365722D01*
X1562107Y370476D01*
X1563672Y375635D01*
X1564200Y381000D01*
X1564200Y533400D01*
X1563672Y538765D01*
X1562107Y543924D01*
X1559565Y548678D01*
X1556145Y552845D01*
X1551978Y556265D01*
X1547224Y558807D01*
X1542065Y560372D01*
X1536700Y560900D01*
X1219200Y560900D01*
X1213835Y560372D01*
X1208676Y558807D01*
X1203922Y556265D01*
X1200638Y553570D01*
X1192375Y553500D01*
X1185500Y546625D01*
X1185500Y502250D01*
X1187500Y502250D01*
X1187500Y497400D01*
X1178500Y497400D01*
X1178500Y502250D01*
X1180500Y502250D01*
X1180500Y546625D01*
X1173625Y553500D01*
X1161522Y553603D01*
X1158278Y556265D01*
X1153524Y558807D01*
X1148365Y560372D01*
X1143000Y560900D01*
X889000Y560900D01*
X883635Y560372D01*
X878476Y558807D01*
X873722Y556265D01*
X869555Y552845D01*
X866135Y548678D01*
X863593Y543924D01*
X862028Y538765D01*
X861500Y533400D01*
X861500Y531093D01*
X834875Y531000D01*
X828000Y524125D01*
X828000Y462250D01*
X830000Y462250D01*
X830000Y457250D01*
X828000Y457250D01*
X828000Y455250D01*
X823000Y455250D01*
X823000Y457250D01*
X757375Y457250D01*
X750500Y450375D01*
X750367Y416000D01*
X273500Y416000D01*
X273500Y443467D01*
X266294Y479692D01*
X256433Y503500D01*
X750367Y503500D01*
X750500Y469125D01*
X757375Y462250D01*
X823000Y462250D01*
X823000Y524125D01*
X816125Y531000D01*
X778000Y531133D01*
X772609Y530602D01*
X767425Y529030D01*
X762648Y526476D01*
X758460Y523040D01*
X755024Y518852D01*
X752470Y514075D01*
X750898Y508891D01*
X750367Y503500D01*
X256433Y503500D01*
X252160Y513814D01*
X231641Y544524D01*
X205524Y570641D01*
X174814Y591160D01*
X151033Y601011D01*
X2145967Y601011D01*
X2122186Y591160D01*
X2091476Y570641D01*
X2065359Y544524D01*
X2044840Y513814D01*
X2030706Y479692D01*
X2023500Y443467D01*
X2023500Y406533D01*
X2030706Y370308D01*
X2044840Y336186D01*
X2065359Y305476D01*
X2091476Y279359D01*
X2122186Y258840D01*
X2156308Y244706D01*
X2192533Y237500D01*
X2229467Y237500D01*
X2265692Y244706D01*
X2299815Y258840D01*
X2330524Y279359D01*
X2356641Y305476D01*
X2377160Y336186D01*
X2391294Y370308D01*
X2398500Y406533D01*
X2398500Y443467D01*
X2391294Y479692D01*
X2377160Y513814D01*
X2356641Y544524D01*
X2330524Y570641D01*
X2299815Y591160D01*
X2276033Y601011D01*
X2347862Y601011D01*
X2367630Y599073D01*
X2385069Y593808D01*
X2401154Y585255D01*
X2415270Y573742D01*
X2426882Y559706D01*
X2435546Y543681D01*
X2440933Y526280D01*
X2443000Y506611D01*
X2443000Y-4125862D01*
X2441062Y-4145630D01*
X2435797Y-4163069D01*
X2427244Y-4179153D01*
X2415731Y-4193270D01*
X2401694Y-4204882D01*
X2385671Y-4213546D01*
X2368269Y-4218933D01*
X2348601Y-4221000D01*
X-61862Y-4221000D01*
X-81630Y-4219062D01*
X-99069Y-4213797D01*
X-115153Y-4205244D01*
X-129270Y-4193731D01*
X-140882Y-4179694D01*
X-149546Y-4163671D01*
X-154933Y-4146268D01*
X-157000Y-4126601D01*
X-157000Y-3919533D01*
X-101500Y-3919533D01*
X-101500Y-3956467D01*
X-94294Y-3992692D01*
X-80160Y-4026814D01*
X-59641Y-4057524D01*
X-33524Y-4083641D01*
X-2814Y-4104160D01*
X31308Y-4118294D01*
X67533Y-4125500D01*
X104467Y-4125500D01*
X140692Y-4118294D01*
X174814Y-4104160D01*
X205524Y-4083641D01*
X231641Y-4057524D01*
X252160Y-4026814D01*
X266294Y-3992692D01*
X273500Y-3956467D01*
X273500Y-3919533D01*
X266294Y-3883308D01*
X252160Y-3849185D01*
X231641Y-3818476D01*
X205524Y-3792359D01*
X174814Y-3771840D01*
X140692Y-3757706D01*
X104467Y-3750500D01*
X67533Y-3750500D01*
X31308Y-3757706D01*
X-2814Y-3771840D01*
X-33524Y-3792359D01*
X-59641Y-3818476D01*
X-80160Y-3849185D01*
X-94294Y-3883308D01*
X-101500Y-3919533D01*
X-157000Y-3919533D01*
X-157000Y-3543285D01*
X-129100Y-3543285D01*
X-129100Y-3568715D01*
X-124139Y-3593657D01*
X-114407Y-3617152D01*
X-100278Y-3638296D01*
X-82297Y-3656278D01*
X-61152Y-3670407D01*
X-37657Y-3680139D01*
X-12715Y-3685100D01*
X12715Y-3685100D01*
X37657Y-3680139D01*
X61152Y-3670407D01*
X82297Y-3656278D01*
X100278Y-3638296D01*
X114407Y-3617152D01*
X124139Y-3593657D01*
X129100Y-3568715D01*
X129100Y-3543285D01*
X124139Y-3518343D01*
X114407Y-3494848D01*
X100278Y-3473703D01*
X82297Y-3455721D01*
X61152Y-3441593D01*
X37657Y-3431861D01*
X24455Y-3429235D01*
X47237Y-3422819D01*
X69900Y-3411282D01*
X74214Y-3408399D01*
X85082Y-3390618D01*
X0Y-3305535D01*
X-85082Y-3390618D01*
X-74214Y-3408399D01*
X-52030Y-3420833D01*
X-27847Y-3428701D01*
X-24040Y-3429153D01*
X-37657Y-3431861D01*
X-61152Y-3441593D01*
X-82297Y-3455721D01*
X-100278Y-3473703D01*
X-114407Y-3494848D01*
X-124139Y-3518343D01*
X-129100Y-3543285D01*
X-157000Y-3543285D01*
X-157000Y-3299406D01*
X-129699Y-3299406D01*
X-127713Y-3324759D01*
X-120819Y-3349237D01*
X-109282Y-3371900D01*
X-106399Y-3376213D01*
X-88618Y-3387082D01*
X-3535Y-3302000D01*
X3535Y-3302000D01*
X88618Y-3387082D01*
X106399Y-3376213D01*
X118833Y-3354030D01*
X119233Y-3352800D01*
X252046Y-3352800D01*
X252300Y-3355379D01*
X252300Y-3680422D01*
X252046Y-3683000D01*
X252300Y-3685578D01*
X252300Y-3685579D01*
X253060Y-3693292D01*
X256062Y-3703188D01*
X260937Y-3712309D01*
X267497Y-3720303D01*
X269501Y-3721947D01*
X359000Y-3811446D01*
X359000Y-3889113D01*
X356109Y-3889398D01*
X350925Y-3890970D01*
X346148Y-3893524D01*
X341961Y-3896960D01*
X338524Y-3901148D01*
X335970Y-3905925D01*
X334398Y-3911109D01*
X333867Y-3916500D01*
X333867Y-4066500D01*
X334398Y-4071891D01*
X335970Y-4077075D01*
X338524Y-4081852D01*
X341961Y-4086039D01*
X346148Y-4089476D01*
X350925Y-4092030D01*
X356109Y-4093602D01*
X359000Y-4093887D01*
X359000Y-4104621D01*
X358746Y-4107200D01*
X359760Y-4117492D01*
X362762Y-4127388D01*
X367637Y-4136508D01*
X367637Y-4136509D01*
X374197Y-4144503D01*
X376200Y-4146147D01*
X418253Y-4188199D01*
X419897Y-4190203D01*
X427891Y-4196763D01*
X437012Y-4201638D01*
X446908Y-4204640D01*
X454621Y-4205400D01*
X457200Y-4205654D01*
X459779Y-4205400D01*
X988021Y-4205400D01*
X990600Y-4205654D01*
X993179Y-4205400D01*
X1490522Y-4205400D01*
X1493100Y-4205654D01*
X1495678Y-4205400D01*
X1495679Y-4205400D01*
X1503392Y-4204640D01*
X1513288Y-4201638D01*
X1522409Y-4196763D01*
X1530403Y-4190203D01*
X1532047Y-4188199D01*
X1589799Y-4130447D01*
X1591803Y-4128803D01*
X1598363Y-4120809D01*
X1603238Y-4111688D01*
X1606240Y-4101792D01*
X1607000Y-4094079D01*
X1607000Y-4094078D01*
X1607019Y-4093885D01*
X1609891Y-4093602D01*
X1615075Y-4092030D01*
X1619852Y-4089476D01*
X1624039Y-4086039D01*
X1627476Y-4081852D01*
X1630030Y-4077075D01*
X1631602Y-4071891D01*
X1632133Y-4066500D01*
X1632133Y-3916500D01*
X1796867Y-3916500D01*
X1796867Y-4066500D01*
X1797398Y-4071891D01*
X1798970Y-4077075D01*
X1801524Y-4081852D01*
X1804960Y-4086039D01*
X1809148Y-4089476D01*
X1813925Y-4092030D01*
X1819109Y-4093602D01*
X1824500Y-4094133D01*
X1924500Y-4094133D01*
X1929891Y-4093602D01*
X1935075Y-4092030D01*
X1939852Y-4089476D01*
X1944039Y-4086039D01*
X1947476Y-4081852D01*
X1950030Y-4077075D01*
X1951602Y-4071891D01*
X1952133Y-4066500D01*
X1952133Y-3919533D01*
X2018500Y-3919533D01*
X2018500Y-3956467D01*
X2025706Y-3992692D01*
X2039840Y-4026814D01*
X2060359Y-4057524D01*
X2086476Y-4083641D01*
X2117186Y-4104160D01*
X2151308Y-4118294D01*
X2187533Y-4125500D01*
X2224467Y-4125500D01*
X2260692Y-4118294D01*
X2294815Y-4104160D01*
X2325524Y-4083641D01*
X2351641Y-4057524D01*
X2372160Y-4026814D01*
X2386294Y-3992692D01*
X2393500Y-3956467D01*
X2393500Y-3919533D01*
X2386294Y-3883308D01*
X2372160Y-3849185D01*
X2351641Y-3818476D01*
X2325524Y-3792359D01*
X2294815Y-3771840D01*
X2260692Y-3757706D01*
X2224467Y-3750500D01*
X2187533Y-3750500D01*
X2151308Y-3757706D01*
X2117186Y-3771840D01*
X2086476Y-3792359D01*
X2060359Y-3818476D01*
X2039840Y-3849185D01*
X2025706Y-3883308D01*
X2018500Y-3919533D01*
X1952133Y-3919533D01*
X1952133Y-3916500D01*
X1951602Y-3911109D01*
X1950030Y-3905925D01*
X1947476Y-3901148D01*
X1944039Y-3896960D01*
X1939852Y-3893524D01*
X1935075Y-3890970D01*
X1929891Y-3889398D01*
X1924500Y-3888867D01*
X1824500Y-3888867D01*
X1819109Y-3889398D01*
X1813925Y-3890970D01*
X1809148Y-3893524D01*
X1804960Y-3896960D01*
X1801524Y-3901148D01*
X1798970Y-3905925D01*
X1797398Y-3911109D01*
X1796867Y-3916500D01*
X1632133Y-3916500D01*
X1631602Y-3911109D01*
X1630030Y-3905925D01*
X1627476Y-3901148D01*
X1624736Y-3897810D01*
X1710846Y-3811700D01*
X1936538Y-3811700D01*
X1939116Y-3811954D01*
X1941694Y-3811700D01*
X1941695Y-3811700D01*
X1949408Y-3810940D01*
X1959304Y-3807938D01*
X1968425Y-3803063D01*
X1976419Y-3796503D01*
X1978063Y-3794499D01*
X2164062Y-3608500D01*
X2168009Y-3608500D01*
X2171593Y-3617152D01*
X2185722Y-3638296D01*
X2203704Y-3656278D01*
X2224848Y-3670407D01*
X2248343Y-3680139D01*
X2273285Y-3685100D01*
X2298715Y-3685100D01*
X2323657Y-3680139D01*
X2347152Y-3670407D01*
X2368297Y-3656278D01*
X2386279Y-3638296D01*
X2400407Y-3617152D01*
X2410139Y-3593657D01*
X2415100Y-3568715D01*
X2415100Y-3543285D01*
X2410139Y-3518343D01*
X2400407Y-3494848D01*
X2386279Y-3473703D01*
X2368297Y-3455721D01*
X2347152Y-3441593D01*
X2323657Y-3431861D01*
X2310455Y-3429235D01*
X2333237Y-3422819D01*
X2355900Y-3411282D01*
X2360214Y-3408399D01*
X2371082Y-3390618D01*
X2286000Y-3305535D01*
X2200918Y-3390618D01*
X2211787Y-3408399D01*
X2233970Y-3420833D01*
X2258153Y-3428701D01*
X2261960Y-3429153D01*
X2248343Y-3431861D01*
X2224848Y-3441593D01*
X2203704Y-3455721D01*
X2185722Y-3473703D01*
X2171593Y-3494848D01*
X2168009Y-3503500D01*
X2144894Y-3503500D01*
X2142316Y-3503246D01*
X2139738Y-3503500D01*
X2139737Y-3503500D01*
X2132024Y-3504260D01*
X2122128Y-3507262D01*
X2113007Y-3512137D01*
X2105013Y-3518697D01*
X2103369Y-3520700D01*
X1917370Y-3706700D01*
X1691678Y-3706700D01*
X1689100Y-3706446D01*
X1686522Y-3706700D01*
X1686521Y-3706700D01*
X1678808Y-3707460D01*
X1668912Y-3710462D01*
X1659791Y-3715337D01*
X1651797Y-3721897D01*
X1650153Y-3723900D01*
X1519200Y-3854853D01*
X1517197Y-3856497D01*
X1515553Y-3858500D01*
X1510637Y-3864491D01*
X1505762Y-3873612D01*
X1502760Y-3883508D01*
X1502210Y-3889093D01*
X1499109Y-3889398D01*
X1493925Y-3890970D01*
X1489148Y-3893524D01*
X1484960Y-3896960D01*
X1481524Y-3901148D01*
X1478970Y-3905925D01*
X1477398Y-3911109D01*
X1476867Y-3916500D01*
X1476867Y-4066500D01*
X1477398Y-4071891D01*
X1478970Y-4077075D01*
X1481524Y-4081852D01*
X1484960Y-4086039D01*
X1485375Y-4086379D01*
X1471354Y-4100400D01*
X1043226Y-4100400D01*
X1043354Y-4099100D01*
X1043100Y-4096522D01*
X1043100Y-4096521D01*
X1042684Y-4092300D01*
X1043575Y-4092030D01*
X1048352Y-4089476D01*
X1052540Y-4086039D01*
X1055976Y-4081852D01*
X1058530Y-4077075D01*
X1060102Y-4071891D01*
X1060633Y-4066500D01*
X1060633Y-3916500D01*
X1225367Y-3916500D01*
X1225367Y-4066500D01*
X1225898Y-4071891D01*
X1227470Y-4077075D01*
X1230024Y-4081852D01*
X1233461Y-4086039D01*
X1237648Y-4089476D01*
X1242425Y-4092030D01*
X1247609Y-4093602D01*
X1253000Y-4094133D01*
X1353000Y-4094133D01*
X1358391Y-4093602D01*
X1363575Y-4092030D01*
X1368352Y-4089476D01*
X1372540Y-4086039D01*
X1375976Y-4081852D01*
X1378530Y-4077075D01*
X1380102Y-4071891D01*
X1380633Y-4066500D01*
X1380633Y-3916500D01*
X1380102Y-3911109D01*
X1378530Y-3905925D01*
X1375976Y-3901148D01*
X1372540Y-3896960D01*
X1368352Y-3893524D01*
X1363575Y-3890970D01*
X1358391Y-3889398D01*
X1353000Y-3888867D01*
X1343000Y-3888867D01*
X1343000Y-3888718D01*
X1581395Y-3650323D01*
X1582921Y-3649071D01*
X1587920Y-3642980D01*
X1591634Y-3636031D01*
X1593921Y-3628491D01*
X1594500Y-3622615D01*
X1594500Y-3622614D01*
X1594693Y-3620650D01*
X1594500Y-3618686D01*
X1594500Y-3604133D01*
X1604500Y-3604133D01*
X1609891Y-3603602D01*
X1615075Y-3602030D01*
X1619852Y-3599476D01*
X1624039Y-3596039D01*
X1627476Y-3591852D01*
X1630030Y-3587075D01*
X1631602Y-3581891D01*
X1632133Y-3576500D01*
X1796867Y-3576500D01*
X1797398Y-3581891D01*
X1798970Y-3587075D01*
X1801524Y-3591852D01*
X1804960Y-3596040D01*
X1809148Y-3599476D01*
X1813925Y-3602030D01*
X1819109Y-3603602D01*
X1824500Y-3604133D01*
X1865125Y-3604000D01*
X1872000Y-3597125D01*
X1872000Y-3504000D01*
X1877000Y-3504000D01*
X1877000Y-3597125D01*
X1883875Y-3604000D01*
X1924500Y-3604133D01*
X1929891Y-3603602D01*
X1935075Y-3602030D01*
X1939852Y-3599476D01*
X1944040Y-3596040D01*
X1947476Y-3591852D01*
X1950030Y-3587075D01*
X1951602Y-3581891D01*
X1952133Y-3576500D01*
X1952000Y-3510875D01*
X1945125Y-3504000D01*
X1877000Y-3504000D01*
X1872000Y-3504000D01*
X1803875Y-3504000D01*
X1797000Y-3510875D01*
X1796867Y-3576500D01*
X1632133Y-3576500D01*
X1632133Y-3426500D01*
X1796867Y-3426500D01*
X1797000Y-3492125D01*
X1803875Y-3499000D01*
X1872000Y-3499000D01*
X1872000Y-3405875D01*
X1877000Y-3405875D01*
X1877000Y-3499000D01*
X1945125Y-3499000D01*
X1952000Y-3492125D01*
X1952133Y-3426500D01*
X1951602Y-3421109D01*
X1950030Y-3415925D01*
X1947476Y-3411148D01*
X1944040Y-3406960D01*
X1939852Y-3403524D01*
X1935075Y-3400970D01*
X1929891Y-3399398D01*
X1924500Y-3398867D01*
X1883875Y-3399000D01*
X1877000Y-3405875D01*
X1872000Y-3405875D01*
X1865125Y-3399000D01*
X1824500Y-3398867D01*
X1819109Y-3399398D01*
X1813925Y-3400970D01*
X1809148Y-3403524D01*
X1804960Y-3406960D01*
X1801524Y-3411148D01*
X1798970Y-3415925D01*
X1797398Y-3421109D01*
X1796867Y-3426500D01*
X1632133Y-3426500D01*
X1631602Y-3421109D01*
X1630030Y-3415925D01*
X1627476Y-3411148D01*
X1624039Y-3406960D01*
X1619852Y-3403524D01*
X1615075Y-3400970D01*
X1609891Y-3399398D01*
X1604500Y-3398867D01*
X1504500Y-3398867D01*
X1499109Y-3399398D01*
X1493925Y-3400970D01*
X1489148Y-3403524D01*
X1484960Y-3406960D01*
X1481524Y-3411148D01*
X1478970Y-3415925D01*
X1477398Y-3421109D01*
X1476867Y-3426500D01*
X1476867Y-3576500D01*
X1477398Y-3581891D01*
X1478970Y-3587075D01*
X1481524Y-3591852D01*
X1484960Y-3596039D01*
X1489148Y-3599476D01*
X1493925Y-3602030D01*
X1499109Y-3603602D01*
X1504500Y-3604133D01*
X1514448Y-3604133D01*
X1276105Y-3842476D01*
X1274579Y-3843729D01*
X1269580Y-3849820D01*
X1265866Y-3856769D01*
X1263579Y-3864309D01*
X1263579Y-3864309D01*
X1262807Y-3872150D01*
X1263000Y-3874115D01*
X1263000Y-3888867D01*
X1253000Y-3888867D01*
X1247609Y-3889398D01*
X1242425Y-3890970D01*
X1237648Y-3893524D01*
X1233461Y-3896960D01*
X1230024Y-3901148D01*
X1227470Y-3905925D01*
X1225898Y-3911109D01*
X1225367Y-3916500D01*
X1060633Y-3916500D01*
X1060102Y-3911109D01*
X1058530Y-3905925D01*
X1055976Y-3901148D01*
X1052540Y-3896960D01*
X1048352Y-3893524D01*
X1043575Y-3890970D01*
X1038391Y-3889398D01*
X1033000Y-3888867D01*
X933000Y-3888867D01*
X927609Y-3889398D01*
X922425Y-3890970D01*
X917648Y-3893524D01*
X913460Y-3896960D01*
X910024Y-3901148D01*
X907470Y-3905925D01*
X905898Y-3911109D01*
X905367Y-3916500D01*
X905367Y-4066500D01*
X905898Y-4071891D01*
X907470Y-4077075D01*
X910024Y-4081852D01*
X913460Y-4086039D01*
X917648Y-4089476D01*
X922425Y-4092030D01*
X927609Y-4093602D01*
X930481Y-4093885D01*
X931123Y-4100400D01*
X478946Y-4100400D01*
X470925Y-4092378D01*
X472075Y-4092030D01*
X476852Y-4089476D01*
X481039Y-4086039D01*
X484476Y-4081852D01*
X487030Y-4077075D01*
X488602Y-4071891D01*
X489133Y-4066500D01*
X489133Y-3916500D01*
X653867Y-3916500D01*
X653867Y-4066500D01*
X654398Y-4071891D01*
X655970Y-4077075D01*
X658524Y-4081852D01*
X661961Y-4086039D01*
X666148Y-4089476D01*
X670925Y-4092030D01*
X676109Y-4093602D01*
X681500Y-4094133D01*
X781500Y-4094133D01*
X786891Y-4093602D01*
X792075Y-4092030D01*
X796852Y-4089476D01*
X801039Y-4086039D01*
X804476Y-4081852D01*
X807030Y-4077075D01*
X808602Y-4071891D01*
X809133Y-4066500D01*
X809133Y-3916500D01*
X808602Y-3911109D01*
X807030Y-3905925D01*
X804476Y-3901148D01*
X801039Y-3896960D01*
X796852Y-3893524D01*
X792075Y-3890970D01*
X786891Y-3889398D01*
X781500Y-3888867D01*
X777801Y-3888867D01*
X1009895Y-3656773D01*
X1011421Y-3655521D01*
X1016420Y-3649430D01*
X1020134Y-3642481D01*
X1022421Y-3634941D01*
X1023000Y-3629065D01*
X1023000Y-3629064D01*
X1023193Y-3627100D01*
X1023000Y-3625136D01*
X1023000Y-3604133D01*
X1033000Y-3604133D01*
X1038391Y-3603602D01*
X1043575Y-3602030D01*
X1048352Y-3599476D01*
X1052540Y-3596039D01*
X1055976Y-3591852D01*
X1058530Y-3587075D01*
X1060102Y-3581891D01*
X1060633Y-3576500D01*
X1225367Y-3576500D01*
X1225898Y-3581891D01*
X1227470Y-3587075D01*
X1230024Y-3591852D01*
X1233460Y-3596040D01*
X1237648Y-3599476D01*
X1242425Y-3602030D01*
X1247609Y-3603602D01*
X1253000Y-3604133D01*
X1293625Y-3604000D01*
X1300500Y-3597125D01*
X1300500Y-3504000D01*
X1305500Y-3504000D01*
X1305500Y-3597125D01*
X1312375Y-3604000D01*
X1353000Y-3604133D01*
X1358391Y-3603602D01*
X1363575Y-3602030D01*
X1368352Y-3599476D01*
X1372540Y-3596040D01*
X1375976Y-3591852D01*
X1378530Y-3587075D01*
X1380102Y-3581891D01*
X1380633Y-3576500D01*
X1380500Y-3510875D01*
X1373625Y-3504000D01*
X1305500Y-3504000D01*
X1300500Y-3504000D01*
X1232375Y-3504000D01*
X1225500Y-3510875D01*
X1225367Y-3576500D01*
X1060633Y-3576500D01*
X1060633Y-3426500D01*
X1225367Y-3426500D01*
X1225500Y-3492125D01*
X1232375Y-3499000D01*
X1300500Y-3499000D01*
X1300500Y-3405875D01*
X1305500Y-3405875D01*
X1305500Y-3499000D01*
X1373625Y-3499000D01*
X1380500Y-3492125D01*
X1380633Y-3426500D01*
X1380102Y-3421109D01*
X1378530Y-3415925D01*
X1375976Y-3411148D01*
X1372540Y-3406960D01*
X1368352Y-3403524D01*
X1363575Y-3400970D01*
X1358391Y-3399398D01*
X1353000Y-3398867D01*
X1312375Y-3399000D01*
X1305500Y-3405875D01*
X1300500Y-3405875D01*
X1293625Y-3399000D01*
X1253000Y-3398867D01*
X1247609Y-3399398D01*
X1242425Y-3400970D01*
X1237648Y-3403524D01*
X1233460Y-3406960D01*
X1230024Y-3411148D01*
X1227470Y-3415925D01*
X1225898Y-3421109D01*
X1225367Y-3426500D01*
X1060633Y-3426500D01*
X1060102Y-3421109D01*
X1058530Y-3415925D01*
X1055976Y-3411148D01*
X1052540Y-3406960D01*
X1048352Y-3403524D01*
X1043575Y-3400970D01*
X1038391Y-3399398D01*
X1033000Y-3398867D01*
X933000Y-3398867D01*
X927609Y-3399398D01*
X922425Y-3400970D01*
X917648Y-3403524D01*
X913460Y-3406960D01*
X910024Y-3411148D01*
X907470Y-3415925D01*
X905898Y-3421109D01*
X905367Y-3426500D01*
X905367Y-3576500D01*
X905898Y-3581891D01*
X907470Y-3587075D01*
X910024Y-3591852D01*
X913460Y-3596039D01*
X917648Y-3599476D01*
X922425Y-3602030D01*
X927609Y-3603602D01*
X933000Y-3604133D01*
X943000Y-3604133D01*
X943000Y-3610531D01*
X704605Y-3848926D01*
X703079Y-3850179D01*
X698080Y-3856270D01*
X694366Y-3863219D01*
X692253Y-3870185D01*
X692079Y-3870759D01*
X691307Y-3878600D01*
X691500Y-3880565D01*
X691500Y-3888867D01*
X681500Y-3888867D01*
X676109Y-3889398D01*
X670925Y-3890970D01*
X666148Y-3893524D01*
X661961Y-3896960D01*
X658524Y-3901148D01*
X655970Y-3905925D01*
X654398Y-3911109D01*
X653867Y-3916500D01*
X489133Y-3916500D01*
X488602Y-3911109D01*
X487030Y-3905925D01*
X484476Y-3901148D01*
X481039Y-3896960D01*
X476852Y-3893524D01*
X472075Y-3890970D01*
X466891Y-3889398D01*
X464000Y-3889113D01*
X464000Y-3792278D01*
X464254Y-3789700D01*
X464000Y-3787122D01*
X464000Y-3787121D01*
X463240Y-3779408D01*
X460238Y-3769512D01*
X455363Y-3760391D01*
X454386Y-3759200D01*
X450447Y-3754400D01*
X450446Y-3754400D01*
X448803Y-3752397D01*
X446800Y-3750754D01*
X357300Y-3661254D01*
X357300Y-3603719D01*
X361500Y-3604133D01*
X461500Y-3604133D01*
X466891Y-3603602D01*
X472075Y-3602030D01*
X476852Y-3599476D01*
X481039Y-3596039D01*
X484476Y-3591852D01*
X487030Y-3587075D01*
X488602Y-3581891D01*
X489133Y-3576500D01*
X653867Y-3576500D01*
X654398Y-3581891D01*
X655970Y-3587075D01*
X658524Y-3591852D01*
X661960Y-3596040D01*
X666148Y-3599476D01*
X670925Y-3602030D01*
X676109Y-3603602D01*
X681500Y-3604133D01*
X722125Y-3604000D01*
X729000Y-3597125D01*
X729000Y-3504000D01*
X734000Y-3504000D01*
X734000Y-3597125D01*
X740875Y-3604000D01*
X781500Y-3604133D01*
X786891Y-3603602D01*
X792075Y-3602030D01*
X796852Y-3599476D01*
X801040Y-3596040D01*
X804476Y-3591852D01*
X807030Y-3587075D01*
X808602Y-3581891D01*
X809133Y-3576500D01*
X809000Y-3510875D01*
X802125Y-3504000D01*
X734000Y-3504000D01*
X729000Y-3504000D01*
X660875Y-3504000D01*
X654000Y-3510875D01*
X653867Y-3576500D01*
X489133Y-3576500D01*
X489133Y-3426500D01*
X653867Y-3426500D01*
X654000Y-3492125D01*
X660875Y-3499000D01*
X729000Y-3499000D01*
X729000Y-3405875D01*
X734000Y-3405875D01*
X734000Y-3499000D01*
X802125Y-3499000D01*
X809000Y-3492125D01*
X809133Y-3426500D01*
X808602Y-3421109D01*
X807030Y-3415925D01*
X804476Y-3411148D01*
X801040Y-3406960D01*
X796852Y-3403524D01*
X792075Y-3400970D01*
X786891Y-3399398D01*
X781500Y-3398867D01*
X740875Y-3399000D01*
X734000Y-3405875D01*
X729000Y-3405875D01*
X722125Y-3399000D01*
X681500Y-3398867D01*
X676109Y-3399398D01*
X670925Y-3400970D01*
X666148Y-3403524D01*
X661960Y-3406960D01*
X658524Y-3411148D01*
X655970Y-3415925D01*
X654398Y-3421109D01*
X653867Y-3426500D01*
X489133Y-3426500D01*
X488602Y-3421109D01*
X487030Y-3415925D01*
X484476Y-3411148D01*
X481039Y-3406960D01*
X476852Y-3403524D01*
X472075Y-3400970D01*
X466891Y-3399398D01*
X461500Y-3398867D01*
X451500Y-3398867D01*
X451500Y-3364268D01*
X511869Y-3303900D01*
X683835Y-3303900D01*
X685800Y-3304093D01*
X687765Y-3303900D01*
X687765Y-3303900D01*
X693641Y-3303321D01*
X701181Y-3301034D01*
X704227Y-3299406D01*
X2156301Y-3299406D01*
X2158287Y-3324759D01*
X2165181Y-3349237D01*
X2176718Y-3371900D01*
X2179601Y-3376213D01*
X2197382Y-3387082D01*
X2282465Y-3302000D01*
X2289536Y-3302000D01*
X2374618Y-3387082D01*
X2392400Y-3376213D01*
X2404833Y-3354030D01*
X2412701Y-3329847D01*
X2415699Y-3304594D01*
X2413713Y-3279241D01*
X2406819Y-3254763D01*
X2395282Y-3232100D01*
X2392400Y-3227786D01*
X2374618Y-3216918D01*
X2289536Y-3302000D01*
X2282465Y-3302000D01*
X2197382Y-3216918D01*
X2179601Y-3227786D01*
X2167167Y-3249970D01*
X2159299Y-3274153D01*
X2156301Y-3299406D01*
X704227Y-3299406D01*
X708130Y-3297320D01*
X714221Y-3292321D01*
X715474Y-3290795D01*
X740645Y-3265624D01*
X742171Y-3264371D01*
X747170Y-3258280D01*
X750884Y-3251331D01*
X752170Y-3247093D01*
X754571Y-3246364D01*
X763130Y-3241789D01*
X770632Y-3235632D01*
X776789Y-3228130D01*
X781364Y-3219571D01*
X782751Y-3215000D01*
X848935Y-3215000D01*
X850900Y-3215193D01*
X852865Y-3215000D01*
X852865Y-3215000D01*
X858741Y-3214421D01*
X866281Y-3212134D01*
X873230Y-3208420D01*
X879321Y-3203421D01*
X880574Y-3201895D01*
X929468Y-3153000D01*
X988148Y-3153000D01*
X992873Y-3160072D01*
X996310Y-3164259D01*
X1003241Y-3171190D01*
X1007428Y-3174627D01*
X1015578Y-3180072D01*
X1020356Y-3182626D01*
X1029411Y-3186377D01*
X1034595Y-3187949D01*
X1044208Y-3189861D01*
X1049599Y-3190392D01*
X1052055Y-3190392D01*
X1054500Y-3190633D01*
X1104500Y-3190633D01*
X1106945Y-3190392D01*
X1109401Y-3190392D01*
X1114792Y-3189861D01*
X1124405Y-3187949D01*
X1129589Y-3186377D01*
X1138644Y-3182626D01*
X1143422Y-3180072D01*
X1151572Y-3174627D01*
X1155759Y-3171190D01*
X1162690Y-3164259D01*
X1166127Y-3160072D01*
X1170852Y-3153000D01*
X1242232Y-3153000D01*
X1259127Y-3169895D01*
X1260379Y-3171421D01*
X1261905Y-3172673D01*
X1261905Y-3172673D01*
X1264285Y-3174627D01*
X1266470Y-3176420D01*
X1273419Y-3180134D01*
X1280959Y-3182421D01*
X1286835Y-3183000D01*
X1286836Y-3183000D01*
X1288800Y-3183193D01*
X1290764Y-3183000D01*
X1351367Y-3183000D01*
X1351898Y-3188391D01*
X1353470Y-3193575D01*
X1356024Y-3198352D01*
X1359461Y-3202539D01*
X1363648Y-3205976D01*
X1368425Y-3208530D01*
X1373609Y-3210102D01*
X1379000Y-3210633D01*
X1469000Y-3210633D01*
X1474391Y-3210102D01*
X1479575Y-3208530D01*
X1484352Y-3205976D01*
X1488539Y-3202539D01*
X1491976Y-3198352D01*
X1494530Y-3193575D01*
X1496102Y-3188391D01*
X1496633Y-3183000D01*
X1496633Y-3103000D01*
X1496102Y-3097609D01*
X1494530Y-3092425D01*
X1492164Y-3088000D01*
X1551367Y-3088000D01*
X1551898Y-3093391D01*
X1553470Y-3098575D01*
X1556024Y-3103352D01*
X1559460Y-3107540D01*
X1563648Y-3110976D01*
X1568425Y-3113530D01*
X1573609Y-3115102D01*
X1579000Y-3115633D01*
X1614625Y-3115500D01*
X1621500Y-3108625D01*
X1621500Y-3050500D01*
X1626500Y-3050500D01*
X1626500Y-3108625D01*
X1633375Y-3115500D01*
X1669000Y-3115633D01*
X1674391Y-3115102D01*
X1679575Y-3113530D01*
X1684352Y-3110976D01*
X1688540Y-3107540D01*
X1691976Y-3103352D01*
X1694530Y-3098575D01*
X1696102Y-3093391D01*
X1696633Y-3088000D01*
X1696500Y-3057375D01*
X1689625Y-3050500D01*
X1626500Y-3050500D01*
X1621500Y-3050500D01*
X1558375Y-3050500D01*
X1551500Y-3057375D01*
X1551367Y-3088000D01*
X1492164Y-3088000D01*
X1491976Y-3087648D01*
X1488539Y-3083460D01*
X1484352Y-3080024D01*
X1479575Y-3077470D01*
X1474391Y-3075898D01*
X1469000Y-3075367D01*
X1379000Y-3075367D01*
X1373609Y-3075898D01*
X1368425Y-3077470D01*
X1363648Y-3080024D01*
X1359461Y-3083460D01*
X1356024Y-3087648D01*
X1353470Y-3092425D01*
X1351898Y-3097609D01*
X1351367Y-3103000D01*
X1305369Y-3103000D01*
X1288474Y-3086105D01*
X1287221Y-3084579D01*
X1281130Y-3079580D01*
X1274181Y-3075866D01*
X1266641Y-3073579D01*
X1260765Y-3073000D01*
X1260765Y-3073000D01*
X1258800Y-3072806D01*
X1256835Y-3073000D01*
X1182133Y-3073000D01*
X1182133Y-3063000D01*
X1181602Y-3057609D01*
X1180030Y-3052425D01*
X1177664Y-3048000D01*
X1180030Y-3043575D01*
X1181602Y-3038391D01*
X1182133Y-3033000D01*
X1182133Y-2983000D01*
X1181892Y-2980555D01*
X1181892Y-2978361D01*
X1183426Y-2979895D01*
X1184679Y-2981421D01*
X1190770Y-2986420D01*
X1197719Y-2990134D01*
X1205259Y-2992421D01*
X1207560Y-2992648D01*
X1213100Y-2993193D01*
X1215065Y-2993000D01*
X1351367Y-2993000D01*
X1351898Y-2998391D01*
X1353470Y-3003575D01*
X1356024Y-3008352D01*
X1359461Y-3012539D01*
X1363648Y-3015976D01*
X1368425Y-3018530D01*
X1373609Y-3020102D01*
X1379000Y-3020633D01*
X1469000Y-3020633D01*
X1474391Y-3020102D01*
X1479575Y-3018530D01*
X1484352Y-3015976D01*
X1488539Y-3012539D01*
X1491976Y-3008352D01*
X1492164Y-3008000D01*
X1551367Y-3008000D01*
X1551500Y-3038625D01*
X1558375Y-3045500D01*
X1621500Y-3045500D01*
X1621500Y-2987375D01*
X1626500Y-2987375D01*
X1626500Y-3045500D01*
X1689625Y-3045500D01*
X1696500Y-3038625D01*
X1696633Y-3008000D01*
X1696102Y-3002609D01*
X1694530Y-2997425D01*
X1691976Y-2992648D01*
X1688540Y-2988460D01*
X1684352Y-2985024D01*
X1679575Y-2982470D01*
X1674391Y-2980898D01*
X1669000Y-2980367D01*
X1633375Y-2980500D01*
X1626500Y-2987375D01*
X1621500Y-2987375D01*
X1614625Y-2980500D01*
X1579000Y-2980367D01*
X1573609Y-2980898D01*
X1568425Y-2982470D01*
X1563648Y-2985024D01*
X1559460Y-2988460D01*
X1556024Y-2992648D01*
X1553470Y-2997425D01*
X1551898Y-3002609D01*
X1551367Y-3008000D01*
X1492164Y-3008000D01*
X1494530Y-3003575D01*
X1496102Y-2998391D01*
X1496633Y-2993000D01*
X1496633Y-2963000D01*
X1893967Y-2963000D01*
X1893967Y-3133000D01*
X1894498Y-3138391D01*
X1896070Y-3143575D01*
X1898624Y-3148352D01*
X1902060Y-3152539D01*
X1906248Y-3155976D01*
X1911025Y-3158530D01*
X1916209Y-3160102D01*
X1921600Y-3160633D01*
X2091600Y-3160633D01*
X2096991Y-3160102D01*
X2102175Y-3158530D01*
X2106952Y-3155976D01*
X2111140Y-3152539D01*
X2114576Y-3148352D01*
X2117130Y-3143575D01*
X2118702Y-3138391D01*
X2119233Y-3133000D01*
X2119233Y-2963000D01*
X2118702Y-2957609D01*
X2117130Y-2952425D01*
X2114576Y-2947648D01*
X2111140Y-2943460D01*
X2106952Y-2940024D01*
X2102175Y-2937470D01*
X2096991Y-2935898D01*
X2091600Y-2935367D01*
X1921600Y-2935367D01*
X1916209Y-2935898D01*
X1911025Y-2937470D01*
X1906248Y-2940024D01*
X1902060Y-2943460D01*
X1898624Y-2947648D01*
X1896070Y-2952425D01*
X1894498Y-2957609D01*
X1893967Y-2963000D01*
X1496633Y-2963000D01*
X1496633Y-2913000D01*
X1496102Y-2907609D01*
X1494530Y-2902425D01*
X1491976Y-2897648D01*
X1488539Y-2893460D01*
X1484352Y-2890024D01*
X1479575Y-2887470D01*
X1474391Y-2885898D01*
X1469000Y-2885367D01*
X1379000Y-2885367D01*
X1373609Y-2885898D01*
X1368425Y-2887470D01*
X1363648Y-2890024D01*
X1359461Y-2893460D01*
X1356024Y-2897648D01*
X1353470Y-2902425D01*
X1351898Y-2907609D01*
X1351367Y-2913000D01*
X1229669Y-2913000D01*
X1172674Y-2856005D01*
X1171421Y-2854479D01*
X1165330Y-2849480D01*
X1158381Y-2845766D01*
X1150841Y-2843479D01*
X1144965Y-2842900D01*
X1144965Y-2842900D01*
X1143000Y-2842706D01*
X1141035Y-2842900D01*
X1005263Y-2842900D01*
X1003300Y-2842707D01*
X1001336Y-2842900D01*
X1001335Y-2842900D01*
X995459Y-2843479D01*
X987919Y-2845766D01*
X980970Y-2849480D01*
X974879Y-2854479D01*
X973626Y-2856005D01*
X948631Y-2881000D01*
X782751Y-2881000D01*
X781364Y-2876429D01*
X776789Y-2867870D01*
X770632Y-2860368D01*
X763130Y-2854211D01*
X754571Y-2849636D01*
X745283Y-2846818D01*
X735625Y-2845867D01*
X691875Y-2845867D01*
X682217Y-2846818D01*
X672929Y-2849636D01*
X664370Y-2854211D01*
X656868Y-2860368D01*
X650711Y-2867870D01*
X646136Y-2876429D01*
X643318Y-2885716D01*
X642367Y-2895375D01*
X642367Y-2946625D01*
X643318Y-2956283D01*
X646136Y-2965571D01*
X648450Y-2969900D01*
X621551Y-2969900D01*
X623864Y-2965571D01*
X626682Y-2956283D01*
X627633Y-2946625D01*
X627633Y-2895375D01*
X626682Y-2885716D01*
X623864Y-2876429D01*
X619289Y-2867870D01*
X613132Y-2860368D01*
X605630Y-2854211D01*
X597071Y-2849636D01*
X596250Y-2849387D01*
X596250Y-2814064D01*
X1895904Y-2814064D01*
X1896652Y-2817825D01*
X1903412Y-2838817D01*
X1914138Y-2858087D01*
X1928418Y-2874894D01*
X1945702Y-2888592D01*
X1965326Y-2898655D01*
X1986536Y-2904696D01*
X2004100Y-2899597D01*
X2004100Y-2796500D01*
X2009100Y-2796500D01*
X2009100Y-2899597D01*
X2026664Y-2904696D01*
X2047874Y-2898655D01*
X2067498Y-2888592D01*
X2084782Y-2874894D01*
X2099062Y-2858087D01*
X2109788Y-2838817D01*
X2116548Y-2817825D01*
X2117296Y-2814064D01*
X2112195Y-2796500D01*
X2009100Y-2796500D01*
X2004100Y-2796500D01*
X1901005Y-2796500D01*
X1895904Y-2814064D01*
X596250Y-2814064D01*
X596250Y-2317819D01*
X1106395Y-1807673D01*
X1107921Y-1806421D01*
X1112920Y-1800330D01*
X1116634Y-1793381D01*
X1118921Y-1785841D01*
X1119500Y-1779965D01*
X1119500Y-1779964D01*
X1119693Y-1778000D01*
X1119500Y-1776036D01*
X1119500Y-816454D01*
X1122529Y-814430D01*
X1131931Y-805028D01*
X1139318Y-793973D01*
X1144406Y-781689D01*
X1147000Y-768648D01*
X1147000Y-755352D01*
X1144406Y-742311D01*
X1139318Y-730027D01*
X1131931Y-718971D01*
X1122529Y-709569D01*
X1111473Y-702182D01*
X1099189Y-697094D01*
X1086148Y-694500D01*
X1072852Y-694500D01*
X1059811Y-697094D01*
X1047527Y-702182D01*
X1036471Y-709569D01*
X1027069Y-718971D01*
X1019682Y-730027D01*
X1014594Y-742311D01*
X1012000Y-755352D01*
X1012000Y-768648D01*
X1014594Y-781689D01*
X1019682Y-793973D01*
X1027069Y-805028D01*
X1036471Y-814430D01*
X1039500Y-816454D01*
X1039500Y-820533D01*
X1039500Y-820534D01*
X1039500Y-1761431D01*
X529355Y-2271577D01*
X527829Y-2272829D01*
X526577Y-2274355D01*
X526577Y-2274355D01*
X522830Y-2278920D01*
X519116Y-2285869D01*
X516829Y-2293409D01*
X516056Y-2301250D01*
X516250Y-2303216D01*
X516250Y-2849387D01*
X515429Y-2849636D01*
X506870Y-2854211D01*
X499368Y-2860368D01*
X493211Y-2867870D01*
X488636Y-2876429D01*
X485818Y-2885716D01*
X484867Y-2895375D01*
X484867Y-2946625D01*
X485818Y-2956283D01*
X488636Y-2965571D01*
X493211Y-2974130D01*
X499368Y-2981632D01*
X506870Y-2987789D01*
X515429Y-2992364D01*
X516250Y-2992613D01*
X516250Y-2992684D01*
X516056Y-2994650D01*
X516829Y-3002491D01*
X519116Y-3010031D01*
X522830Y-3016980D01*
X526577Y-3021545D01*
X526577Y-3021545D01*
X527829Y-3023071D01*
X529355Y-3024323D01*
X541826Y-3036794D01*
X543079Y-3038321D01*
X549170Y-3043320D01*
X556119Y-3047034D01*
X560464Y-3048352D01*
X563659Y-3049321D01*
X571500Y-3050093D01*
X573465Y-3049900D01*
X772735Y-3049900D01*
X774700Y-3050093D01*
X776665Y-3049900D01*
X776665Y-3049900D01*
X782541Y-3049321D01*
X790081Y-3047034D01*
X797030Y-3043320D01*
X803121Y-3038321D01*
X804374Y-3036795D01*
X818168Y-3023000D01*
X976867Y-3023000D01*
X976867Y-3033000D01*
X977398Y-3038391D01*
X978970Y-3043575D01*
X981336Y-3048000D01*
X978970Y-3052425D01*
X977398Y-3057609D01*
X976867Y-3063000D01*
X976867Y-3073000D01*
X914863Y-3073000D01*
X912900Y-3072807D01*
X910936Y-3073000D01*
X910935Y-3073000D01*
X905059Y-3073579D01*
X897519Y-3075866D01*
X890570Y-3079580D01*
X884479Y-3084579D01*
X883226Y-3086105D01*
X834331Y-3135000D01*
X782751Y-3135000D01*
X781364Y-3130429D01*
X776789Y-3121870D01*
X770632Y-3114368D01*
X763130Y-3108211D01*
X754571Y-3103636D01*
X745283Y-3100818D01*
X735625Y-3099867D01*
X691875Y-3099867D01*
X682217Y-3100818D01*
X672929Y-3103636D01*
X664370Y-3108211D01*
X656868Y-3114368D01*
X650711Y-3121870D01*
X646136Y-3130429D01*
X643318Y-3139716D01*
X642367Y-3149375D01*
X642367Y-3200625D01*
X643318Y-3210283D01*
X646136Y-3219571D01*
X648450Y-3223900D01*
X621551Y-3223900D01*
X623864Y-3219571D01*
X626682Y-3210283D01*
X627633Y-3200625D01*
X627633Y-3149375D01*
X626682Y-3139716D01*
X623864Y-3130429D01*
X619289Y-3121870D01*
X613132Y-3114368D01*
X605630Y-3108211D01*
X597071Y-3103636D01*
X587784Y-3100818D01*
X578125Y-3099867D01*
X534375Y-3099867D01*
X524717Y-3100818D01*
X515429Y-3103636D01*
X506870Y-3108211D01*
X499368Y-3114368D01*
X493211Y-3121870D01*
X492874Y-3122500D01*
X485179Y-3122500D01*
X482600Y-3122246D01*
X480021Y-3122500D01*
X472308Y-3123260D01*
X462412Y-3126262D01*
X453291Y-3131137D01*
X445297Y-3137697D01*
X443653Y-3139700D01*
X269501Y-3313853D01*
X267497Y-3315497D01*
X265854Y-3317500D01*
X260937Y-3323491D01*
X256062Y-3332612D01*
X253060Y-3342508D01*
X252046Y-3352800D01*
X119233Y-3352800D01*
X126701Y-3329847D01*
X129699Y-3304594D01*
X127713Y-3279241D01*
X120819Y-3254763D01*
X109282Y-3232100D01*
X106399Y-3227786D01*
X88618Y-3216918D01*
X3535Y-3302000D01*
X-3535Y-3302000D01*
X-88618Y-3216918D01*
X-106399Y-3227786D01*
X-118833Y-3249970D01*
X-126701Y-3274153D01*
X-129699Y-3299406D01*
X-157000Y-3299406D01*
X-157000Y-1765285D01*
X-129100Y-1765285D01*
X-129100Y-1790715D01*
X-124139Y-1815657D01*
X-114407Y-1839152D01*
X-100278Y-1860296D01*
X-82297Y-1878278D01*
X-61152Y-1892407D01*
X-37657Y-1902139D01*
X-23273Y-1905000D01*
X-37657Y-1907861D01*
X-61152Y-1917593D01*
X-82297Y-1931721D01*
X-100278Y-1949703D01*
X-114407Y-1970848D01*
X-124139Y-1994343D01*
X-129100Y-2019285D01*
X-129100Y-2044715D01*
X-124139Y-2069657D01*
X-114407Y-2093152D01*
X-100278Y-2114297D01*
X-82297Y-2132279D01*
X-61152Y-2146407D01*
X-37657Y-2156139D01*
X-23273Y-2159000D01*
X-37657Y-2161861D01*
X-61152Y-2171593D01*
X-82297Y-2185722D01*
X-100278Y-2203704D01*
X-114407Y-2224848D01*
X-124139Y-2248343D01*
X-129100Y-2273285D01*
X-129100Y-2298715D01*
X-124139Y-2323657D01*
X-114407Y-2347152D01*
X-100278Y-2368297D01*
X-82297Y-2386279D01*
X-61152Y-2400407D01*
X-37657Y-2410139D01*
X-23273Y-2413000D01*
X-37657Y-2415861D01*
X-61152Y-2425593D01*
X-82297Y-2439722D01*
X-100278Y-2457704D01*
X-114407Y-2478848D01*
X-124139Y-2502343D01*
X-129100Y-2527285D01*
X-129100Y-2552715D01*
X-124139Y-2577657D01*
X-114407Y-2601152D01*
X-100278Y-2622297D01*
X-82297Y-2640279D01*
X-61152Y-2654407D01*
X-37657Y-2664139D01*
X-23273Y-2667000D01*
X-37657Y-2669861D01*
X-61152Y-2679593D01*
X-82297Y-2693722D01*
X-100278Y-2711704D01*
X-114407Y-2732848D01*
X-124139Y-2756343D01*
X-129100Y-2781285D01*
X-129100Y-2806715D01*
X-124139Y-2831657D01*
X-114407Y-2855152D01*
X-100278Y-2876296D01*
X-82297Y-2894278D01*
X-61152Y-2908407D01*
X-37657Y-2918139D01*
X-23273Y-2921000D01*
X-37657Y-2923861D01*
X-61152Y-2933593D01*
X-82297Y-2947721D01*
X-100278Y-2965703D01*
X-114407Y-2986848D01*
X-124139Y-3010343D01*
X-129100Y-3035285D01*
X-129100Y-3060715D01*
X-124139Y-3085657D01*
X-114407Y-3109152D01*
X-100278Y-3130296D01*
X-82297Y-3148278D01*
X-61152Y-3162407D01*
X-37657Y-3172139D01*
X-24455Y-3174765D01*
X-47237Y-3181181D01*
X-69900Y-3192718D01*
X-74214Y-3195600D01*
X-85082Y-3213382D01*
X0Y-3298464D01*
X85082Y-3213382D01*
X74214Y-3195600D01*
X52030Y-3183167D01*
X27847Y-3175299D01*
X24040Y-3174847D01*
X37657Y-3172139D01*
X61152Y-3162407D01*
X82297Y-3148278D01*
X100278Y-3130296D01*
X114407Y-3109152D01*
X124139Y-3085657D01*
X129100Y-3060715D01*
X129100Y-3035285D01*
X124139Y-3010343D01*
X114407Y-2986848D01*
X100278Y-2965703D01*
X82297Y-2947721D01*
X61152Y-2933593D01*
X37657Y-2923861D01*
X23273Y-2921000D01*
X37657Y-2918139D01*
X61152Y-2908407D01*
X82297Y-2894278D01*
X100278Y-2876296D01*
X114407Y-2855152D01*
X124139Y-2831657D01*
X129100Y-2806715D01*
X129100Y-2781285D01*
X124139Y-2756343D01*
X114407Y-2732848D01*
X100278Y-2711704D01*
X82297Y-2693722D01*
X61152Y-2679593D01*
X37657Y-2669861D01*
X23273Y-2667000D01*
X37657Y-2664139D01*
X61152Y-2654407D01*
X82297Y-2640279D01*
X100278Y-2622297D01*
X114407Y-2601152D01*
X124139Y-2577657D01*
X129100Y-2552715D01*
X129100Y-2527285D01*
X124139Y-2502343D01*
X115377Y-2481191D01*
X953995Y-1642573D01*
X955521Y-1641321D01*
X960520Y-1635230D01*
X964234Y-1628281D01*
X966522Y-1620741D01*
X967100Y-1614864D01*
X967100Y-1614864D01*
X967294Y-1612900D01*
X967100Y-1610935D01*
X967100Y-1337154D01*
X970129Y-1335131D01*
X979531Y-1325729D01*
X986918Y-1314673D01*
X992006Y-1302389D01*
X994600Y-1289348D01*
X994600Y-1276052D01*
X992006Y-1263011D01*
X986918Y-1250727D01*
X979531Y-1239671D01*
X970129Y-1230269D01*
X959074Y-1222882D01*
X946789Y-1217794D01*
X933749Y-1215200D01*
X920452Y-1215200D01*
X907411Y-1217794D01*
X895127Y-1222882D01*
X884072Y-1230269D01*
X874670Y-1239671D01*
X867283Y-1250727D01*
X862194Y-1263011D01*
X859600Y-1276052D01*
X859600Y-1289348D01*
X862194Y-1302389D01*
X867283Y-1314673D01*
X874670Y-1325729D01*
X884072Y-1335131D01*
X887100Y-1337154D01*
X887100Y-1341233D01*
X887100Y-1341234D01*
X887100Y-1596331D01*
X58809Y-2424623D01*
X37657Y-2415861D01*
X23273Y-2413000D01*
X37657Y-2410139D01*
X61152Y-2400407D01*
X82297Y-2386279D01*
X100278Y-2368297D01*
X114407Y-2347152D01*
X124139Y-2323657D01*
X129100Y-2298715D01*
X129100Y-2273285D01*
X124139Y-2248343D01*
X115377Y-2227191D01*
X738095Y-1604473D01*
X739621Y-1603221D01*
X744620Y-1597130D01*
X744620Y-1597130D01*
X748334Y-1590181D01*
X750621Y-1582641D01*
X751393Y-1574800D01*
X751200Y-1572835D01*
X751200Y34446D01*
X754229Y36469D01*
X763631Y45871D01*
X771018Y56927D01*
X776106Y69211D01*
X778700Y82252D01*
X778700Y95548D01*
X776106Y108589D01*
X771018Y120873D01*
X763631Y131929D01*
X754229Y141331D01*
X743173Y148718D01*
X730889Y153806D01*
X717848Y156400D01*
X704552Y156400D01*
X691511Y153806D01*
X679227Y148718D01*
X668171Y141331D01*
X658769Y131929D01*
X651382Y120873D01*
X646294Y108589D01*
X643700Y95548D01*
X643700Y82252D01*
X646294Y69211D01*
X651382Y56927D01*
X658769Y45871D01*
X668171Y36469D01*
X671200Y34446D01*
X671200Y6936D01*
X671200Y6935D01*
X671200Y-1558231D01*
X58809Y-2170623D01*
X37657Y-2161861D01*
X23273Y-2159000D01*
X37657Y-2156139D01*
X61152Y-2146407D01*
X82297Y-2132279D01*
X100278Y-2114297D01*
X114407Y-2093152D01*
X124139Y-2069657D01*
X129100Y-2044715D01*
X129100Y-2019285D01*
X124139Y-1994343D01*
X115377Y-1973191D01*
X543797Y-1544772D01*
X545323Y-1543520D01*
X550321Y-1537429D01*
X554036Y-1530480D01*
X556323Y-1522940D01*
X556902Y-1517063D01*
X556902Y-1517062D01*
X557095Y-1515099D01*
X556902Y-1513135D01*
X556902Y15205D01*
X557834Y16950D01*
X560121Y24490D01*
X560700Y30367D01*
X560700Y30367D01*
X560894Y32331D01*
X560700Y34296D01*
X560700Y34446D01*
X563729Y36469D01*
X573131Y45871D01*
X580518Y56927D01*
X585606Y69211D01*
X588200Y82252D01*
X588200Y95548D01*
X585606Y108589D01*
X580518Y120873D01*
X573131Y131929D01*
X563729Y141331D01*
X552673Y148718D01*
X540389Y153806D01*
X527348Y156400D01*
X514052Y156400D01*
X501011Y153806D01*
X488727Y148718D01*
X477671Y141331D01*
X468269Y131929D01*
X460882Y120873D01*
X455794Y108589D01*
X453200Y95548D01*
X453200Y82252D01*
X455794Y69211D01*
X460882Y56927D01*
X468269Y45871D01*
X477547Y36594D01*
X477480Y36374D01*
X476708Y28533D01*
X476902Y26567D01*
X476901Y-1498530D01*
X58809Y-1916623D01*
X37657Y-1907861D01*
X23273Y-1905000D01*
X37657Y-1902139D01*
X61152Y-1892407D01*
X82297Y-1878278D01*
X100278Y-1860296D01*
X114407Y-1839152D01*
X124139Y-1815657D01*
X129100Y-1790715D01*
X129100Y-1765285D01*
X124139Y-1740343D01*
X115377Y-1719191D01*
X369795Y-1464773D01*
X371321Y-1463521D01*
X376320Y-1457430D01*
X380034Y-1450481D01*
X382321Y-1442941D01*
X382900Y-1437065D01*
X382900Y-1437064D01*
X383093Y-1435100D01*
X382900Y-1433136D01*
X382900Y-156054D01*
X385929Y-154031D01*
X395331Y-144629D01*
X402718Y-133573D01*
X407806Y-121289D01*
X410400Y-108248D01*
X410400Y-94952D01*
X407806Y-81911D01*
X402718Y-69627D01*
X395331Y-58571D01*
X385929Y-49169D01*
X374873Y-41782D01*
X362589Y-36694D01*
X349548Y-34100D01*
X336252Y-34100D01*
X323211Y-36694D01*
X310927Y-41782D01*
X299871Y-49169D01*
X290469Y-58571D01*
X283082Y-69627D01*
X277994Y-81911D01*
X275400Y-94952D01*
X275400Y-108248D01*
X277994Y-121289D01*
X283082Y-133573D01*
X290469Y-144629D01*
X299871Y-154031D01*
X302900Y-156055D01*
X302900Y-1418531D01*
X58809Y-1662623D01*
X37657Y-1653861D01*
X24455Y-1651235D01*
X47237Y-1644819D01*
X69900Y-1633282D01*
X74214Y-1630399D01*
X85082Y-1612618D01*
X0Y-1527535D01*
X-85082Y-1612618D01*
X-74214Y-1630399D01*
X-52030Y-1642833D01*
X-27847Y-1650701D01*
X-24040Y-1651153D01*
X-37657Y-1653861D01*
X-61152Y-1663593D01*
X-82297Y-1677721D01*
X-100278Y-1695703D01*
X-114407Y-1716848D01*
X-124139Y-1740343D01*
X-129100Y-1765285D01*
X-157000Y-1765285D01*
X-157000Y-1521406D01*
X-129699Y-1521406D01*
X-127713Y-1546759D01*
X-120819Y-1571237D01*
X-109282Y-1593900D01*
X-106399Y-1598213D01*
X-88618Y-1609082D01*
X-3535Y-1524000D01*
X3535Y-1524000D01*
X88618Y-1609082D01*
X106399Y-1598213D01*
X118833Y-1576030D01*
X126701Y-1551847D01*
X129699Y-1526594D01*
X127713Y-1501241D01*
X120819Y-1476763D01*
X109282Y-1454100D01*
X106399Y-1449786D01*
X88618Y-1438918D01*
X3535Y-1524000D01*
X-3535Y-1524000D01*
X-88618Y-1438918D01*
X-106399Y-1449786D01*
X-118833Y-1471970D01*
X-126701Y-1496153D01*
X-129699Y-1521406D01*
X-157000Y-1521406D01*
X-157000Y12715D01*
X-129100Y12715D01*
X-129100Y-12715D01*
X-124139Y-37657D01*
X-114407Y-61152D01*
X-100278Y-82297D01*
X-82297Y-100278D01*
X-61152Y-114407D01*
X-37657Y-124139D01*
X-23273Y-127000D01*
X-37657Y-129861D01*
X-61152Y-139593D01*
X-82297Y-153722D01*
X-100278Y-171704D01*
X-114407Y-192848D01*
X-124139Y-216343D01*
X-129100Y-241285D01*
X-129100Y-266715D01*
X-124139Y-291657D01*
X-114407Y-315152D01*
X-100278Y-336297D01*
X-82297Y-354278D01*
X-61152Y-368407D01*
X-37657Y-378139D01*
X-23273Y-381000D01*
X-37657Y-383861D01*
X-61152Y-393593D01*
X-82297Y-407721D01*
X-100278Y-425703D01*
X-114407Y-446848D01*
X-124139Y-470343D01*
X-129100Y-495285D01*
X-129100Y-520715D01*
X-124139Y-545657D01*
X-114407Y-569152D01*
X-100278Y-590297D01*
X-82297Y-608279D01*
X-61152Y-622407D01*
X-37657Y-632139D01*
X-23273Y-635000D01*
X-37657Y-637861D01*
X-61152Y-647593D01*
X-82297Y-661722D01*
X-100278Y-679704D01*
X-114407Y-700848D01*
X-124139Y-724343D01*
X-129100Y-749285D01*
X-129100Y-774715D01*
X-124139Y-799657D01*
X-114407Y-823152D01*
X-100278Y-844296D01*
X-82297Y-862278D01*
X-61152Y-876407D01*
X-37657Y-886139D01*
X-23273Y-889000D01*
X-37657Y-891861D01*
X-61152Y-901593D01*
X-82297Y-915721D01*
X-100278Y-933703D01*
X-114407Y-954848D01*
X-124139Y-978343D01*
X-129100Y-1003285D01*
X-129100Y-1028715D01*
X-124139Y-1053657D01*
X-114407Y-1077152D01*
X-100278Y-1098297D01*
X-82297Y-1116279D01*
X-61152Y-1130407D01*
X-37657Y-1140139D01*
X-23273Y-1143000D01*
X-37657Y-1145861D01*
X-61152Y-1155593D01*
X-82297Y-1169722D01*
X-100278Y-1187704D01*
X-114407Y-1208848D01*
X-124139Y-1232343D01*
X-129100Y-1257285D01*
X-129100Y-1282715D01*
X-124139Y-1307657D01*
X-114407Y-1331152D01*
X-100278Y-1352297D01*
X-82297Y-1370279D01*
X-61152Y-1384407D01*
X-37657Y-1394139D01*
X-24455Y-1396765D01*
X-47237Y-1403181D01*
X-69900Y-1414718D01*
X-74214Y-1417600D01*
X-85082Y-1435382D01*
X0Y-1520464D01*
X85082Y-1435382D01*
X74214Y-1417600D01*
X52030Y-1405167D01*
X27847Y-1397299D01*
X24040Y-1396847D01*
X37657Y-1394139D01*
X61152Y-1384407D01*
X82297Y-1370279D01*
X100278Y-1352297D01*
X114407Y-1331152D01*
X124139Y-1307657D01*
X129100Y-1282715D01*
X129100Y-1257285D01*
X124139Y-1232343D01*
X114407Y-1208848D01*
X100278Y-1187704D01*
X82297Y-1169722D01*
X61152Y-1155593D01*
X37657Y-1145861D01*
X23273Y-1143000D01*
X37657Y-1140139D01*
X61152Y-1130407D01*
X82297Y-1116279D01*
X100278Y-1098297D01*
X114407Y-1077152D01*
X124139Y-1053657D01*
X129100Y-1028715D01*
X129100Y-1003285D01*
X124139Y-978343D01*
X114407Y-954848D01*
X100278Y-933703D01*
X82297Y-915721D01*
X61152Y-901593D01*
X37657Y-891861D01*
X23273Y-889000D01*
X37657Y-886139D01*
X61152Y-876407D01*
X82297Y-862278D01*
X100278Y-844296D01*
X114407Y-823152D01*
X124139Y-799657D01*
X129100Y-774715D01*
X129100Y-749285D01*
X124139Y-724343D01*
X114407Y-700848D01*
X100278Y-679704D01*
X82297Y-661722D01*
X61152Y-647593D01*
X37657Y-637861D01*
X23273Y-635000D01*
X37657Y-632139D01*
X61152Y-622407D01*
X82297Y-608279D01*
X100278Y-590297D01*
X114407Y-569152D01*
X124139Y-545657D01*
X129100Y-520715D01*
X129100Y-495285D01*
X124139Y-470343D01*
X114407Y-446848D01*
X100278Y-425703D01*
X82297Y-407721D01*
X61152Y-393593D01*
X37657Y-383861D01*
X23273Y-381000D01*
X37657Y-378139D01*
X61152Y-368407D01*
X82297Y-354278D01*
X100278Y-336297D01*
X114407Y-315152D01*
X124139Y-291657D01*
X129100Y-266715D01*
X129100Y-241285D01*
X124139Y-216343D01*
X114407Y-192848D01*
X100278Y-171704D01*
X82297Y-153722D01*
X61152Y-139593D01*
X37657Y-129861D01*
X23273Y-127000D01*
X37657Y-124139D01*
X61152Y-114407D01*
X82297Y-100278D01*
X100278Y-82297D01*
X114407Y-61152D01*
X124139Y-37657D01*
X129100Y-12715D01*
X129100Y12715D01*
X124139Y37657D01*
X114407Y61152D01*
X100278Y82297D01*
X82297Y100278D01*
X61152Y114407D01*
X37657Y124139D01*
X12715Y129100D01*
X-12715Y129100D01*
X-37657Y124139D01*
X-61152Y114407D01*
X-82297Y100278D01*
X-100278Y82297D01*
X-114407Y61152D01*
X-124139Y37657D01*
X-129100Y12715D01*
X-157000Y12715D01*
X-157000Y505873D01*
X-155062Y525641D01*
X-149797Y543080D01*
X-141244Y559165D01*
X-129731Y573281D01*
X-115695Y584893D01*
X-99670Y593557D01*
X-82269Y598944D01*
X-62601Y601011D01*
X20967Y601011D01*
X-2814Y591160D01*
G37*
X-2814Y591160D02*
X-33524Y570641D01*
X-59641Y544524D01*
X-80160Y513814D01*
X-94294Y479692D01*
X-101500Y443467D01*
X-101500Y406533D01*
X-94294Y370308D01*
X-80160Y336186D01*
X-59641Y305476D01*
X-33524Y279359D01*
X-2814Y258840D01*
X31308Y244706D01*
X67533Y237500D01*
X104467Y237500D01*
X140692Y244706D01*
X174814Y258840D01*
X205524Y279359D01*
X231641Y305476D01*
X252160Y336186D01*
X266294Y370308D01*
X273500Y406533D01*
X273500Y416000D01*
X750367Y416000D01*
X750898Y410609D01*
X752470Y405425D01*
X755024Y400648D01*
X758460Y396460D01*
X762648Y393024D01*
X767425Y390470D01*
X772609Y388898D01*
X773859Y388775D01*
X773128Y386365D01*
X772600Y381000D01*
X772600Y365412D01*
X772370Y365289D01*
X764868Y359132D01*
X758711Y351630D01*
X754136Y343071D01*
X751318Y333784D01*
X750367Y324125D01*
X750367Y280375D01*
X751318Y270717D01*
X754136Y261429D01*
X758711Y252870D01*
X764868Y245368D01*
X772370Y239211D01*
X772600Y239088D01*
X772600Y203200D01*
X773128Y197835D01*
X774693Y192676D01*
X777235Y187922D01*
X780655Y183755D01*
X784822Y180335D01*
X789576Y177793D01*
X794735Y176228D01*
X800100Y175700D01*
X983000Y175700D01*
X983000Y-39931D01*
X862105Y-160827D01*
X860578Y-162080D01*
X855580Y-168170D01*
X851865Y-175119D01*
X849578Y-182659D01*
X849578Y-182659D01*
X848806Y-190501D01*
X848999Y-192465D01*
X848999Y-453545D01*
X845971Y-455569D01*
X836569Y-464971D01*
X829182Y-476027D01*
X824093Y-488311D01*
X821499Y-501352D01*
X821499Y-514648D01*
X824093Y-527689D01*
X829182Y-539973D01*
X836569Y-551029D01*
X845971Y-560431D01*
X857026Y-567818D01*
X869310Y-572906D01*
X882351Y-575500D01*
X895648Y-575500D01*
X908688Y-572906D01*
X920973Y-567818D01*
X932028Y-560431D01*
X941430Y-551029D01*
X943454Y-548000D01*
X1037531Y-548000D01*
X1255400Y-765869D01*
X1255400Y-1826835D01*
X1255207Y-1828800D01*
X1255400Y-1830765D01*
X1255979Y-1836641D01*
X1258266Y-1844181D01*
X1261980Y-1851130D01*
X1266979Y-1857221D01*
X1268505Y-1858474D01*
X1903928Y-2493896D01*
X1898423Y-2507185D01*
X1894100Y-2528920D01*
X1894100Y-2551080D01*
X1898423Y-2572815D01*
X1906904Y-2593289D01*
X1919216Y-2611715D01*
X1927001Y-2619500D01*
X1775159Y-2619500D01*
X1770229Y-2614569D01*
X1759173Y-2607182D01*
X1746889Y-2602094D01*
X1733848Y-2599500D01*
X1726875Y-2599500D01*
X1722438Y-2595063D01*
X1722437Y-2595062D01*
X1205538Y-2078163D01*
X1205537Y-2078162D01*
X1197800Y-2070425D01*
X1197800Y-2063452D01*
X1195206Y-2050411D01*
X1190118Y-2038127D01*
X1182731Y-2027071D01*
X1173329Y-2017669D01*
X1162273Y-2010282D01*
X1149989Y-2005194D01*
X1136948Y-2002600D01*
X1123652Y-2002600D01*
X1110611Y-2005194D01*
X1098327Y-2010282D01*
X1087272Y-2017669D01*
X1077870Y-2027071D01*
X1070483Y-2038127D01*
X1065394Y-2050411D01*
X1062800Y-2063452D01*
X1062800Y-2076748D01*
X1065394Y-2089789D01*
X1070483Y-2102073D01*
X1077870Y-2113129D01*
X1087272Y-2122531D01*
X1098327Y-2129918D01*
X1110611Y-2135006D01*
X1123652Y-2137600D01*
X1130625Y-2137600D01*
X1138362Y-2145337D01*
X1138363Y-2145338D01*
X1655262Y-2662237D01*
X1655263Y-2662238D01*
X1659700Y-2666675D01*
X1659700Y-2673648D01*
X1662294Y-2686689D01*
X1667382Y-2698973D01*
X1674769Y-2710029D01*
X1684171Y-2719431D01*
X1695227Y-2726818D01*
X1707511Y-2731906D01*
X1720552Y-2734500D01*
X1733848Y-2734500D01*
X1746889Y-2731906D01*
X1759173Y-2726818D01*
X1770229Y-2719431D01*
X1775159Y-2714500D01*
X1927234Y-2714500D01*
X1914138Y-2729913D01*
X1903412Y-2749183D01*
X1896652Y-2770175D01*
X1895904Y-2773936D01*
X1901005Y-2791500D01*
X2004100Y-2791500D01*
X2004100Y-2789500D01*
X2009100Y-2789500D01*
X2009100Y-2791500D01*
X2112195Y-2791500D01*
X2117296Y-2773936D01*
X2116548Y-2770175D01*
X2109788Y-2749183D01*
X2099062Y-2729913D01*
X2085966Y-2714500D01*
X2156667Y-2714500D01*
X2159000Y-2714730D01*
X2161333Y-2714500D01*
X2168312Y-2713813D01*
X2177265Y-2711097D01*
X2185517Y-2706686D01*
X2192750Y-2700750D01*
X2194238Y-2698937D01*
X2234691Y-2658484D01*
X2248343Y-2664139D01*
X2262727Y-2667000D01*
X2248343Y-2669861D01*
X2224848Y-2679593D01*
X2203704Y-2693722D01*
X2185722Y-2711704D01*
X2171593Y-2732848D01*
X2161861Y-2756343D01*
X2156900Y-2781285D01*
X2156900Y-2806715D01*
X2161861Y-2831657D01*
X2171593Y-2855152D01*
X2185722Y-2876296D01*
X2203704Y-2894278D01*
X2224848Y-2908407D01*
X2248343Y-2918139D01*
X2262727Y-2921000D01*
X2248343Y-2923861D01*
X2224848Y-2933593D01*
X2203704Y-2947721D01*
X2185722Y-2965703D01*
X2171593Y-2986848D01*
X2161861Y-3010343D01*
X2156900Y-3035285D01*
X2156900Y-3060715D01*
X2161861Y-3085657D01*
X2171593Y-3109152D01*
X2185722Y-3130296D01*
X2203704Y-3148278D01*
X2224848Y-3162407D01*
X2248343Y-3172139D01*
X2261545Y-3174765D01*
X2238763Y-3181181D01*
X2216100Y-3192718D01*
X2211787Y-3195600D01*
X2200918Y-3213382D01*
X2286000Y-3298464D01*
X2371082Y-3213382D01*
X2360214Y-3195600D01*
X2338030Y-3183167D01*
X2313847Y-3175299D01*
X2310040Y-3174847D01*
X2323657Y-3172139D01*
X2347152Y-3162407D01*
X2368297Y-3148278D01*
X2386279Y-3130296D01*
X2400407Y-3109152D01*
X2410139Y-3085657D01*
X2415100Y-3060715D01*
X2415100Y-3035285D01*
X2410139Y-3010343D01*
X2400407Y-2986848D01*
X2386279Y-2965703D01*
X2368297Y-2947721D01*
X2347152Y-2933593D01*
X2323657Y-2923861D01*
X2309273Y-2921000D01*
X2323657Y-2918139D01*
X2347152Y-2908407D01*
X2368297Y-2894278D01*
X2386279Y-2876296D01*
X2400407Y-2855152D01*
X2410139Y-2831657D01*
X2415100Y-2806715D01*
X2415100Y-2781285D01*
X2410139Y-2756343D01*
X2400407Y-2732848D01*
X2386279Y-2711704D01*
X2368297Y-2693722D01*
X2347152Y-2679593D01*
X2323657Y-2669861D01*
X2309273Y-2667000D01*
X2323657Y-2664139D01*
X2347152Y-2654407D01*
X2368297Y-2640279D01*
X2386279Y-2622297D01*
X2400407Y-2601152D01*
X2410139Y-2577657D01*
X2415100Y-2552715D01*
X2415100Y-2527285D01*
X2410139Y-2502343D01*
X2400407Y-2478848D01*
X2386279Y-2457704D01*
X2368297Y-2439722D01*
X2347152Y-2425593D01*
X2323657Y-2415861D01*
X2310455Y-2413235D01*
X2333237Y-2406819D01*
X2355900Y-2395282D01*
X2360214Y-2392400D01*
X2371082Y-2374618D01*
X2286000Y-2289536D01*
X2200918Y-2374618D01*
X2211787Y-2392400D01*
X2233970Y-2404833D01*
X2258153Y-2412701D01*
X2261960Y-2413153D01*
X2248343Y-2415861D01*
X2224848Y-2425593D01*
X2203704Y-2439722D01*
X2185722Y-2457704D01*
X2171593Y-2478848D01*
X2161861Y-2502343D01*
X2156900Y-2527285D01*
X2156900Y-2552715D01*
X2161861Y-2577657D01*
X2167516Y-2591309D01*
X2139325Y-2619500D01*
X2086199Y-2619500D01*
X2093984Y-2611715D01*
X2106296Y-2593289D01*
X2114777Y-2572815D01*
X2119100Y-2551080D01*
X2119100Y-2528920D01*
X2114777Y-2507185D01*
X2106296Y-2486711D01*
X2093984Y-2468286D01*
X2078314Y-2452616D01*
X2059889Y-2440304D01*
X2039415Y-2431823D01*
X2017680Y-2427500D01*
X1995520Y-2427500D01*
X1973785Y-2431823D01*
X1960496Y-2437328D01*
X1335400Y-1812231D01*
X1335400Y-751263D01*
X1335593Y-749300D01*
X1335400Y-747336D01*
X1335400Y-747335D01*
X1334821Y-741459D01*
X1332534Y-733919D01*
X1328820Y-726970D01*
X1327093Y-724866D01*
X1325074Y-722405D01*
X1325073Y-722405D01*
X1323821Y-720879D01*
X1322295Y-719627D01*
X1083774Y-481105D01*
X1082521Y-479579D01*
X1076430Y-474580D01*
X1069481Y-470866D01*
X1061941Y-468579D01*
X1056065Y-468000D01*
X1056065Y-468000D01*
X1054100Y-467806D01*
X1052135Y-468000D01*
X943454Y-468000D01*
X941430Y-464971D01*
X932028Y-455569D01*
X928999Y-453546D01*
X928999Y-207069D01*
X1039500Y-96568D01*
X1039500Y-199545D01*
X1036471Y-201569D01*
X1027069Y-210971D01*
X1019682Y-222027D01*
X1014594Y-234311D01*
X1012000Y-247352D01*
X1012000Y-260648D01*
X1014594Y-273689D01*
X1019682Y-285973D01*
X1027069Y-297029D01*
X1036471Y-306431D01*
X1047527Y-313818D01*
X1059811Y-318906D01*
X1072852Y-321500D01*
X1086148Y-321500D01*
X1089721Y-320789D01*
X1092605Y-323673D01*
X1092606Y-323674D01*
X1471309Y-702378D01*
X1471309Y-1788745D01*
X1471116Y-1790709D01*
X1471309Y-1792674D01*
X1471888Y-1798550D01*
X1474175Y-1806090D01*
X1477889Y-1813039D01*
X1482888Y-1819130D01*
X1484414Y-1820383D01*
X1903928Y-2239896D01*
X1898423Y-2253185D01*
X1894100Y-2274920D01*
X1894100Y-2297080D01*
X1898423Y-2318815D01*
X1906904Y-2339289D01*
X1919216Y-2357715D01*
X1934885Y-2373384D01*
X1953311Y-2385696D01*
X1973785Y-2394177D01*
X1995520Y-2398500D01*
X2017680Y-2398500D01*
X2039415Y-2394177D01*
X2059889Y-2385696D01*
X2078314Y-2373384D01*
X2093984Y-2357715D01*
X2106296Y-2339289D01*
X2114777Y-2318815D01*
X2119100Y-2297080D01*
X2119100Y-2283406D01*
X2156301Y-2283406D01*
X2158287Y-2308759D01*
X2165181Y-2333237D01*
X2176718Y-2355900D01*
X2179601Y-2360214D01*
X2197382Y-2371082D01*
X2282465Y-2286000D01*
X2289536Y-2286000D01*
X2374618Y-2371082D01*
X2392400Y-2360214D01*
X2404833Y-2338030D01*
X2412701Y-2313847D01*
X2415699Y-2288594D01*
X2413713Y-2263241D01*
X2406819Y-2238763D01*
X2395282Y-2216100D01*
X2392400Y-2211787D01*
X2374618Y-2200918D01*
X2289536Y-2286000D01*
X2282465Y-2286000D01*
X2197382Y-2200918D01*
X2179601Y-2211787D01*
X2167167Y-2233970D01*
X2159299Y-2258153D01*
X2156301Y-2283406D01*
X2119100Y-2283406D01*
X2119100Y-2274920D01*
X2114777Y-2253185D01*
X2106296Y-2232711D01*
X2093984Y-2214286D01*
X2078314Y-2198616D01*
X2059889Y-2186304D01*
X2039415Y-2177823D01*
X2017680Y-2173500D01*
X1995520Y-2173500D01*
X1973785Y-2177823D01*
X1960496Y-2183328D01*
X1551309Y-1774141D01*
X1551309Y-687774D01*
X1551503Y-685809D01*
X1550730Y-677968D01*
X1548443Y-670428D01*
X1544729Y-663479D01*
X1540983Y-658914D01*
X1540982Y-658914D01*
X1539730Y-657388D01*
X1538204Y-656136D01*
X1149174Y-267105D01*
X1149174Y-267105D01*
X1146290Y-264221D01*
X1147000Y-260648D01*
X1147000Y-247352D01*
X1144406Y-234311D01*
X1139318Y-222027D01*
X1131931Y-210971D01*
X1122529Y-201569D01*
X1119500Y-199545D01*
X1119500Y4241D01*
X1125371Y-1631D01*
X1136427Y-9018D01*
X1148711Y-14106D01*
X1161752Y-16700D01*
X1175048Y-16700D01*
X1188089Y-14106D01*
X1200373Y-9018D01*
X1211429Y-1631D01*
X1220831Y7771D01*
X1222854Y10800D01*
X1367946Y10800D01*
X1369969Y7771D01*
X1379371Y-1631D01*
X1390427Y-9018D01*
X1402711Y-14106D01*
X1415752Y-16700D01*
X1429048Y-16700D01*
X1442089Y-14106D01*
X1454373Y-9018D01*
X1465429Y-1631D01*
X1474831Y7771D01*
X1482218Y18827D01*
X1487306Y31111D01*
X1489900Y44152D01*
X1489900Y57448D01*
X1487306Y70489D01*
X1482218Y82773D01*
X1474831Y93829D01*
X1467059Y101600D01*
X2156767Y101600D01*
X2156767Y-101600D01*
X2157298Y-106991D01*
X2158870Y-112175D01*
X2161424Y-116952D01*
X2164861Y-121139D01*
X2169048Y-124576D01*
X2173825Y-127130D01*
X2179009Y-128702D01*
X2184400Y-129233D01*
X2251501Y-129233D01*
X2248343Y-129861D01*
X2224848Y-139593D01*
X2203704Y-153722D01*
X2185722Y-171704D01*
X2171593Y-192848D01*
X2161861Y-216343D01*
X2156900Y-241285D01*
X2156900Y-266715D01*
X2161861Y-291657D01*
X2171593Y-315152D01*
X2185722Y-336297D01*
X2203704Y-354278D01*
X2224848Y-368407D01*
X2248343Y-378139D01*
X2262727Y-381000D01*
X2248343Y-383861D01*
X2224848Y-393593D01*
X2203704Y-407721D01*
X2185722Y-425703D01*
X2171593Y-446848D01*
X2161861Y-470343D01*
X2156900Y-495285D01*
X2156900Y-520715D01*
X2161861Y-545657D01*
X2171593Y-569152D01*
X2185722Y-590297D01*
X2203704Y-608279D01*
X2224848Y-622407D01*
X2248343Y-632139D01*
X2262727Y-635000D01*
X2248343Y-637861D01*
X2224848Y-647593D01*
X2203704Y-661722D01*
X2185722Y-679704D01*
X2171593Y-700848D01*
X2161861Y-724343D01*
X2156900Y-749285D01*
X2156900Y-774715D01*
X2161861Y-799657D01*
X2171593Y-823152D01*
X2185722Y-844296D01*
X2203704Y-862278D01*
X2224848Y-876407D01*
X2248343Y-886139D01*
X2262727Y-889000D01*
X2248343Y-891861D01*
X2224848Y-901593D01*
X2203704Y-915721D01*
X2185722Y-933703D01*
X2171593Y-954848D01*
X2161861Y-978343D01*
X2156900Y-1003285D01*
X2156900Y-1028715D01*
X2161861Y-1053657D01*
X2171593Y-1077152D01*
X2185722Y-1098297D01*
X2203704Y-1116279D01*
X2224848Y-1130407D01*
X2248343Y-1140139D01*
X2262727Y-1143000D01*
X2248343Y-1145861D01*
X2224848Y-1155593D01*
X2203704Y-1169722D01*
X2185722Y-1187704D01*
X2171593Y-1208848D01*
X2161861Y-1232343D01*
X2156900Y-1257285D01*
X2156900Y-1282715D01*
X2161861Y-1307657D01*
X2171593Y-1331152D01*
X2185722Y-1352297D01*
X2203704Y-1370279D01*
X2224848Y-1384407D01*
X2248343Y-1394139D01*
X2262727Y-1397000D01*
X2248343Y-1399861D01*
X2224848Y-1409593D01*
X2203704Y-1423721D01*
X2185722Y-1441703D01*
X2171593Y-1462848D01*
X2161861Y-1486343D01*
X2156900Y-1511285D01*
X2156900Y-1536715D01*
X2161861Y-1561657D01*
X2171593Y-1585152D01*
X2185722Y-1606296D01*
X2203704Y-1624278D01*
X2224848Y-1638407D01*
X2248343Y-1648139D01*
X2262727Y-1651000D01*
X2248343Y-1653861D01*
X2224848Y-1663593D01*
X2203704Y-1677721D01*
X2185722Y-1695703D01*
X2171593Y-1716848D01*
X2161861Y-1740343D01*
X2156900Y-1765285D01*
X2156900Y-1790715D01*
X2161861Y-1815657D01*
X2171593Y-1839152D01*
X2185722Y-1860296D01*
X2203704Y-1878278D01*
X2224848Y-1892407D01*
X2248343Y-1902139D01*
X2262727Y-1905000D01*
X2248343Y-1907861D01*
X2224848Y-1917593D01*
X2203704Y-1931721D01*
X2185722Y-1949703D01*
X2171593Y-1970848D01*
X2161861Y-1994343D01*
X2156900Y-2019285D01*
X2156900Y-2044715D01*
X2161861Y-2069657D01*
X2171593Y-2093152D01*
X2185722Y-2114297D01*
X2203704Y-2132279D01*
X2224848Y-2146407D01*
X2248343Y-2156139D01*
X2261545Y-2158765D01*
X2238763Y-2165181D01*
X2216100Y-2176718D01*
X2211787Y-2179601D01*
X2200918Y-2197382D01*
X2286000Y-2282465D01*
X2371082Y-2197382D01*
X2360214Y-2179601D01*
X2338030Y-2167167D01*
X2313847Y-2159299D01*
X2310040Y-2158847D01*
X2323657Y-2156139D01*
X2347152Y-2146407D01*
X2368297Y-2132279D01*
X2386279Y-2114297D01*
X2400407Y-2093152D01*
X2410139Y-2069657D01*
X2415100Y-2044715D01*
X2415100Y-2019285D01*
X2410139Y-1994343D01*
X2400407Y-1970848D01*
X2386279Y-1949703D01*
X2368297Y-1931721D01*
X2347152Y-1917593D01*
X2323657Y-1907861D01*
X2309273Y-1905000D01*
X2323657Y-1902139D01*
X2347152Y-1892407D01*
X2368297Y-1878278D01*
X2386279Y-1860296D01*
X2400407Y-1839152D01*
X2410139Y-1815657D01*
X2415100Y-1790715D01*
X2415100Y-1765285D01*
X2410139Y-1740343D01*
X2400407Y-1716848D01*
X2386279Y-1695703D01*
X2368297Y-1677721D01*
X2347152Y-1663593D01*
X2323657Y-1653861D01*
X2309273Y-1651000D01*
X2323657Y-1648139D01*
X2347152Y-1638407D01*
X2368297Y-1624278D01*
X2386279Y-1606296D01*
X2400407Y-1585152D01*
X2410139Y-1561657D01*
X2415100Y-1536715D01*
X2415100Y-1511285D01*
X2410139Y-1486343D01*
X2400407Y-1462848D01*
X2386279Y-1441703D01*
X2368297Y-1423721D01*
X2347152Y-1409593D01*
X2323657Y-1399861D01*
X2309273Y-1397000D01*
X2323657Y-1394139D01*
X2347152Y-1384407D01*
X2368297Y-1370279D01*
X2386279Y-1352297D01*
X2400407Y-1331152D01*
X2410139Y-1307657D01*
X2415100Y-1282715D01*
X2415100Y-1257285D01*
X2410139Y-1232343D01*
X2400407Y-1208848D01*
X2386279Y-1187704D01*
X2368297Y-1169722D01*
X2347152Y-1155593D01*
X2323657Y-1145861D01*
X2309273Y-1143000D01*
X2323657Y-1140139D01*
X2347152Y-1130407D01*
X2368297Y-1116279D01*
X2386279Y-1098297D01*
X2400407Y-1077152D01*
X2410139Y-1053657D01*
X2415100Y-1028715D01*
X2415100Y-1003285D01*
X2410139Y-978343D01*
X2400407Y-954848D01*
X2386279Y-933703D01*
X2368297Y-915721D01*
X2347152Y-901593D01*
X2323657Y-891861D01*
X2309273Y-889000D01*
X2323657Y-886139D01*
X2347152Y-876407D01*
X2368297Y-862278D01*
X2386279Y-844296D01*
X2400407Y-823152D01*
X2410139Y-799657D01*
X2415100Y-774715D01*
X2415100Y-749285D01*
X2410139Y-724343D01*
X2400407Y-700848D01*
X2386279Y-679704D01*
X2368297Y-661722D01*
X2347152Y-647593D01*
X2323657Y-637861D01*
X2309273Y-635000D01*
X2323657Y-632139D01*
X2347152Y-622407D01*
X2368297Y-608279D01*
X2386279Y-590297D01*
X2400407Y-569152D01*
X2410139Y-545657D01*
X2415100Y-520715D01*
X2415100Y-495285D01*
X2410139Y-470343D01*
X2400407Y-446848D01*
X2386279Y-425703D01*
X2368297Y-407721D01*
X2347152Y-393593D01*
X2323657Y-383861D01*
X2309273Y-381000D01*
X2323657Y-378139D01*
X2347152Y-368407D01*
X2368297Y-354278D01*
X2386279Y-336297D01*
X2400407Y-315152D01*
X2410139Y-291657D01*
X2415100Y-266715D01*
X2415100Y-241285D01*
X2410139Y-216343D01*
X2400407Y-192848D01*
X2386279Y-171704D01*
X2368297Y-153722D01*
X2347152Y-139593D01*
X2323657Y-129861D01*
X2320499Y-129233D01*
X2387600Y-129233D01*
X2392991Y-128702D01*
X2398175Y-127130D01*
X2402952Y-124576D01*
X2407140Y-121139D01*
X2410576Y-116952D01*
X2413130Y-112175D01*
X2414702Y-106991D01*
X2415233Y-101600D01*
X2415233Y101600D01*
X2414702Y106991D01*
X2413130Y112175D01*
X2410576Y116952D01*
X2407140Y121139D01*
X2402952Y124576D01*
X2398175Y127130D01*
X2392991Y128702D01*
X2387600Y129233D01*
X2184400Y129233D01*
X2179009Y128702D01*
X2173825Y127130D01*
X2169048Y124576D01*
X2164861Y121139D01*
X2161424Y116952D01*
X2158870Y112175D01*
X2157298Y106991D01*
X2156767Y101600D01*
X1467059Y101600D01*
X1465429Y103231D01*
X1454373Y110618D01*
X1442089Y115706D01*
X1429048Y118300D01*
X1415752Y118300D01*
X1402711Y115706D01*
X1399839Y114516D01*
X1401000Y120352D01*
X1401000Y133648D01*
X1398406Y146689D01*
X1393318Y158973D01*
X1385931Y170029D01*
X1376529Y179431D01*
X1365473Y186818D01*
X1353189Y191906D01*
X1340148Y194500D01*
X1326852Y194500D01*
X1313811Y191906D01*
X1301527Y186818D01*
X1290471Y179431D01*
X1285541Y174500D01*
X1264275Y174500D01*
X1244954Y193821D01*
X1246172Y197835D01*
X1246700Y203200D01*
X1246700Y208441D01*
X1253625Y208500D01*
X1260500Y215375D01*
X1260500Y259750D01*
X1265500Y259750D01*
X1265500Y215375D01*
X1272375Y208500D01*
X1288000Y208367D01*
X1293391Y208898D01*
X1298575Y210470D01*
X1303352Y213024D01*
X1307540Y216460D01*
X1310976Y220648D01*
X1313530Y225425D01*
X1315102Y230609D01*
X1315633Y236000D01*
X1315500Y252875D01*
X1309875Y258500D01*
X1385367Y258500D01*
X1385898Y253109D01*
X1387470Y247925D01*
X1390024Y243148D01*
X1393460Y238960D01*
X1397648Y235524D01*
X1402425Y232970D01*
X1407609Y231398D01*
X1413000Y230867D01*
X1451125Y231000D01*
X1458000Y237875D01*
X1458000Y299750D01*
X1463000Y299750D01*
X1463000Y237875D01*
X1469875Y231000D01*
X1508000Y230867D01*
X1513391Y231398D01*
X1518575Y232970D01*
X1523352Y235524D01*
X1527540Y238960D01*
X1530976Y243148D01*
X1533530Y247925D01*
X1535102Y253109D01*
X1535633Y258500D01*
X1535500Y292875D01*
X1528625Y299750D01*
X1463000Y299750D01*
X1458000Y299750D01*
X1392375Y299750D01*
X1385500Y292875D01*
X1385367Y258500D01*
X1309875Y258500D01*
X1308625Y259750D01*
X1265500Y259750D01*
X1260500Y259750D01*
X1258500Y259750D01*
X1258500Y264750D01*
X1260500Y264750D01*
X1260500Y309125D01*
X1265500Y309125D01*
X1265500Y264750D01*
X1308625Y264750D01*
X1315500Y271625D01*
X1315633Y288500D01*
X1315102Y293891D01*
X1313530Y299075D01*
X1310976Y303852D01*
X1307540Y308040D01*
X1303352Y311476D01*
X1298575Y314030D01*
X1293391Y315602D01*
X1288000Y316133D01*
X1272375Y316000D01*
X1265500Y309125D01*
X1260500Y309125D01*
X1255108Y314517D01*
X1294091Y353500D01*
X1386538Y353500D01*
X1385898Y351391D01*
X1385367Y346000D01*
X1385500Y311625D01*
X1392375Y304750D01*
X1458000Y304750D01*
X1458000Y306750D01*
X1463000Y306750D01*
X1463000Y304750D01*
X1528625Y304750D01*
X1535500Y311625D01*
X1535633Y346000D01*
X1535102Y351391D01*
X1534462Y353500D01*
X1536700Y353500D01*
X1542065Y354028D01*
X1547224Y355593D01*
X1551978Y358135D01*
X1556145Y361555D01*
X1559565Y365722D01*
X1562107Y370476D01*
X1563672Y375635D01*
X1564200Y381000D01*
X1564200Y533400D01*
X1563672Y538765D01*
X1562107Y543924D01*
X1559565Y548678D01*
X1556145Y552845D01*
X1551978Y556265D01*
X1547224Y558807D01*
X1542065Y560372D01*
X1536700Y560900D01*
X1219200Y560900D01*
X1213835Y560372D01*
X1208676Y558807D01*
X1203922Y556265D01*
X1200638Y553570D01*
X1192375Y553500D01*
X1185500Y546625D01*
X1185500Y502250D01*
X1187500Y502250D01*
X1187500Y497400D01*
X1178500Y497400D01*
X1178500Y502250D01*
X1180500Y502250D01*
X1180500Y546625D01*
X1173625Y553500D01*
X1161522Y553603D01*
X1158278Y556265D01*
X1153524Y558807D01*
X1148365Y560372D01*
X1143000Y560900D01*
X889000Y560900D01*
X883635Y560372D01*
X878476Y558807D01*
X873722Y556265D01*
X869555Y552845D01*
X866135Y548678D01*
X863593Y543924D01*
X862028Y538765D01*
X861500Y533400D01*
X861500Y531093D01*
X834875Y531000D01*
X828000Y524125D01*
X828000Y462250D01*
X830000Y462250D01*
X830000Y457250D01*
X828000Y457250D01*
X828000Y455250D01*
X823000Y455250D01*
X823000Y457250D01*
X757375Y457250D01*
X750500Y450375D01*
X750367Y416000D01*
X273500Y416000D01*
X273500Y443467D01*
X266294Y479692D01*
X256433Y503500D01*
X750367Y503500D01*
X750500Y469125D01*
X757375Y462250D01*
X823000Y462250D01*
X823000Y524125D01*
X816125Y531000D01*
X778000Y531133D01*
X772609Y530602D01*
X767425Y529030D01*
X762648Y526476D01*
X758460Y523040D01*
X755024Y518852D01*
X752470Y514075D01*
X750898Y508891D01*
X750367Y503500D01*
X256433Y503500D01*
X252160Y513814D01*
X231641Y544524D01*
X205524Y570641D01*
X174814Y591160D01*
X151033Y601011D01*
X2145967Y601011D01*
X2122186Y591160D01*
X2091476Y570641D01*
X2065359Y544524D01*
X2044840Y513814D01*
X2030706Y479692D01*
X2023500Y443467D01*
X2023500Y406533D01*
X2030706Y370308D01*
X2044840Y336186D01*
X2065359Y305476D01*
X2091476Y279359D01*
X2122186Y258840D01*
X2156308Y244706D01*
X2192533Y237500D01*
X2229467Y237500D01*
X2265692Y244706D01*
X2299815Y258840D01*
X2330524Y279359D01*
X2356641Y305476D01*
X2377160Y336186D01*
X2391294Y370308D01*
X2398500Y406533D01*
X2398500Y443467D01*
X2391294Y479692D01*
X2377160Y513814D01*
X2356641Y544524D01*
X2330524Y570641D01*
X2299815Y591160D01*
X2276033Y601011D01*
X2347862Y601011D01*
X2367630Y599073D01*
X2385069Y593808D01*
X2401154Y585255D01*
X2415270Y573742D01*
X2426882Y559706D01*
X2435546Y543681D01*
X2440933Y526280D01*
X2443000Y506611D01*
X2443000Y-4125862D01*
X2441062Y-4145630D01*
X2435797Y-4163069D01*
X2427244Y-4179153D01*
X2415731Y-4193270D01*
X2401694Y-4204882D01*
X2385671Y-4213546D01*
X2368269Y-4218933D01*
X2348601Y-4221000D01*
X-61862Y-4221000D01*
X-81630Y-4219062D01*
X-99069Y-4213797D01*
X-115153Y-4205244D01*
X-129270Y-4193731D01*
X-140882Y-4179694D01*
X-149546Y-4163671D01*
X-154933Y-4146268D01*
X-157000Y-4126601D01*
X-157000Y-3919533D01*
X-101500Y-3919533D01*
X-101500Y-3956467D01*
X-94294Y-3992692D01*
X-80160Y-4026814D01*
X-59641Y-4057524D01*
X-33524Y-4083641D01*
X-2814Y-4104160D01*
X31308Y-4118294D01*
X67533Y-4125500D01*
X104467Y-4125500D01*
X140692Y-4118294D01*
X174814Y-4104160D01*
X205524Y-4083641D01*
X231641Y-4057524D01*
X252160Y-4026814D01*
X266294Y-3992692D01*
X273500Y-3956467D01*
X273500Y-3919533D01*
X266294Y-3883308D01*
X252160Y-3849185D01*
X231641Y-3818476D01*
X205524Y-3792359D01*
X174814Y-3771840D01*
X140692Y-3757706D01*
X104467Y-3750500D01*
X67533Y-3750500D01*
X31308Y-3757706D01*
X-2814Y-3771840D01*
X-33524Y-3792359D01*
X-59641Y-3818476D01*
X-80160Y-3849185D01*
X-94294Y-3883308D01*
X-101500Y-3919533D01*
X-157000Y-3919533D01*
X-157000Y-3543285D01*
X-129100Y-3543285D01*
X-129100Y-3568715D01*
X-124139Y-3593657D01*
X-114407Y-3617152D01*
X-100278Y-3638296D01*
X-82297Y-3656278D01*
X-61152Y-3670407D01*
X-37657Y-3680139D01*
X-12715Y-3685100D01*
X12715Y-3685100D01*
X37657Y-3680139D01*
X61152Y-3670407D01*
X82297Y-3656278D01*
X100278Y-3638296D01*
X114407Y-3617152D01*
X124139Y-3593657D01*
X129100Y-3568715D01*
X129100Y-3543285D01*
X124139Y-3518343D01*
X114407Y-3494848D01*
X100278Y-3473703D01*
X82297Y-3455721D01*
X61152Y-3441593D01*
X37657Y-3431861D01*
X24455Y-3429235D01*
X47237Y-3422819D01*
X69900Y-3411282D01*
X74214Y-3408399D01*
X85082Y-3390618D01*
X0Y-3305535D01*
X-85082Y-3390618D01*
X-74214Y-3408399D01*
X-52030Y-3420833D01*
X-27847Y-3428701D01*
X-24040Y-3429153D01*
X-37657Y-3431861D01*
X-61152Y-3441593D01*
X-82297Y-3455721D01*
X-100278Y-3473703D01*
X-114407Y-3494848D01*
X-124139Y-3518343D01*
X-129100Y-3543285D01*
X-157000Y-3543285D01*
X-157000Y-3299406D01*
X-129699Y-3299406D01*
X-127713Y-3324759D01*
X-120819Y-3349237D01*
X-109282Y-3371900D01*
X-106399Y-3376213D01*
X-88618Y-3387082D01*
X-3535Y-3302000D01*
X3535Y-3302000D01*
X88618Y-3387082D01*
X106399Y-3376213D01*
X118833Y-3354030D01*
X119233Y-3352800D01*
X252046Y-3352800D01*
X252300Y-3355379D01*
X252300Y-3680422D01*
X252046Y-3683000D01*
X252300Y-3685578D01*
X252300Y-3685579D01*
X253060Y-3693292D01*
X256062Y-3703188D01*
X260937Y-3712309D01*
X267497Y-3720303D01*
X269501Y-3721947D01*
X359000Y-3811446D01*
X359000Y-3889113D01*
X356109Y-3889398D01*
X350925Y-3890970D01*
X346148Y-3893524D01*
X341961Y-3896960D01*
X338524Y-3901148D01*
X335970Y-3905925D01*
X334398Y-3911109D01*
X333867Y-3916500D01*
X333867Y-4066500D01*
X334398Y-4071891D01*
X335970Y-4077075D01*
X338524Y-4081852D01*
X341961Y-4086039D01*
X346148Y-4089476D01*
X350925Y-4092030D01*
X356109Y-4093602D01*
X359000Y-4093887D01*
X359000Y-4104621D01*
X358746Y-4107200D01*
X359760Y-4117492D01*
X362762Y-4127388D01*
X367637Y-4136508D01*
X367637Y-4136509D01*
X374197Y-4144503D01*
X376200Y-4146147D01*
X418253Y-4188199D01*
X419897Y-4190203D01*
X427891Y-4196763D01*
X437012Y-4201638D01*
X446908Y-4204640D01*
X454621Y-4205400D01*
X457200Y-4205654D01*
X459779Y-4205400D01*
X988021Y-4205400D01*
X990600Y-4205654D01*
X993179Y-4205400D01*
X1490522Y-4205400D01*
X1493100Y-4205654D01*
X1495678Y-4205400D01*
X1495679Y-4205400D01*
X1503392Y-4204640D01*
X1513288Y-4201638D01*
X1522409Y-4196763D01*
X1530403Y-4190203D01*
X1532047Y-4188199D01*
X1589799Y-4130447D01*
X1591803Y-4128803D01*
X1598363Y-4120809D01*
X1603238Y-4111688D01*
X1606240Y-4101792D01*
X1607000Y-4094079D01*
X1607000Y-4094078D01*
X1607019Y-4093885D01*
X1609891Y-4093602D01*
X1615075Y-4092030D01*
X1619852Y-4089476D01*
X1624039Y-4086039D01*
X1627476Y-4081852D01*
X1630030Y-4077075D01*
X1631602Y-4071891D01*
X1632133Y-4066500D01*
X1632133Y-3916500D01*
X1796867Y-3916500D01*
X1796867Y-4066500D01*
X1797398Y-4071891D01*
X1798970Y-4077075D01*
X1801524Y-4081852D01*
X1804960Y-4086039D01*
X1809148Y-4089476D01*
X1813925Y-4092030D01*
X1819109Y-4093602D01*
X1824500Y-4094133D01*
X1924500Y-4094133D01*
X1929891Y-4093602D01*
X1935075Y-4092030D01*
X1939852Y-4089476D01*
X1944039Y-4086039D01*
X1947476Y-4081852D01*
X1950030Y-4077075D01*
X1951602Y-4071891D01*
X1952133Y-4066500D01*
X1952133Y-3919533D01*
X2018500Y-3919533D01*
X2018500Y-3956467D01*
X2025706Y-3992692D01*
X2039840Y-4026814D01*
X2060359Y-4057524D01*
X2086476Y-4083641D01*
X2117186Y-4104160D01*
X2151308Y-4118294D01*
X2187533Y-4125500D01*
X2224467Y-4125500D01*
X2260692Y-4118294D01*
X2294815Y-4104160D01*
X2325524Y-4083641D01*
X2351641Y-4057524D01*
X2372160Y-4026814D01*
X2386294Y-3992692D01*
X2393500Y-3956467D01*
X2393500Y-3919533D01*
X2386294Y-3883308D01*
X2372160Y-3849185D01*
X2351641Y-3818476D01*
X2325524Y-3792359D01*
X2294815Y-3771840D01*
X2260692Y-3757706D01*
X2224467Y-3750500D01*
X2187533Y-3750500D01*
X2151308Y-3757706D01*
X2117186Y-3771840D01*
X2086476Y-3792359D01*
X2060359Y-3818476D01*
X2039840Y-3849185D01*
X2025706Y-3883308D01*
X2018500Y-3919533D01*
X1952133Y-3919533D01*
X1952133Y-3916500D01*
X1951602Y-3911109D01*
X1950030Y-3905925D01*
X1947476Y-3901148D01*
X1944039Y-3896960D01*
X1939852Y-3893524D01*
X1935075Y-3890970D01*
X1929891Y-3889398D01*
X1924500Y-3888867D01*
X1824500Y-3888867D01*
X1819109Y-3889398D01*
X1813925Y-3890970D01*
X1809148Y-3893524D01*
X1804960Y-3896960D01*
X1801524Y-3901148D01*
X1798970Y-3905925D01*
X1797398Y-3911109D01*
X1796867Y-3916500D01*
X1632133Y-3916500D01*
X1631602Y-3911109D01*
X1630030Y-3905925D01*
X1627476Y-3901148D01*
X1624736Y-3897810D01*
X1710846Y-3811700D01*
X1936538Y-3811700D01*
X1939116Y-3811954D01*
X1941694Y-3811700D01*
X1941695Y-3811700D01*
X1949408Y-3810940D01*
X1959304Y-3807938D01*
X1968425Y-3803063D01*
X1976419Y-3796503D01*
X1978063Y-3794499D01*
X2164062Y-3608500D01*
X2168009Y-3608500D01*
X2171593Y-3617152D01*
X2185722Y-3638296D01*
X2203704Y-3656278D01*
X2224848Y-3670407D01*
X2248343Y-3680139D01*
X2273285Y-3685100D01*
X2298715Y-3685100D01*
X2323657Y-3680139D01*
X2347152Y-3670407D01*
X2368297Y-3656278D01*
X2386279Y-3638296D01*
X2400407Y-3617152D01*
X2410139Y-3593657D01*
X2415100Y-3568715D01*
X2415100Y-3543285D01*
X2410139Y-3518343D01*
X2400407Y-3494848D01*
X2386279Y-3473703D01*
X2368297Y-3455721D01*
X2347152Y-3441593D01*
X2323657Y-3431861D01*
X2310455Y-3429235D01*
X2333237Y-3422819D01*
X2355900Y-3411282D01*
X2360214Y-3408399D01*
X2371082Y-3390618D01*
X2286000Y-3305535D01*
X2200918Y-3390618D01*
X2211787Y-3408399D01*
X2233970Y-3420833D01*
X2258153Y-3428701D01*
X2261960Y-3429153D01*
X2248343Y-3431861D01*
X2224848Y-3441593D01*
X2203704Y-3455721D01*
X2185722Y-3473703D01*
X2171593Y-3494848D01*
X2168009Y-3503500D01*
X2144894Y-3503500D01*
X2142316Y-3503246D01*
X2139738Y-3503500D01*
X2139737Y-3503500D01*
X2132024Y-3504260D01*
X2122128Y-3507262D01*
X2113007Y-3512137D01*
X2105013Y-3518697D01*
X2103369Y-3520700D01*
X1917370Y-3706700D01*
X1691678Y-3706700D01*
X1689100Y-3706446D01*
X1686522Y-3706700D01*
X1686521Y-3706700D01*
X1678808Y-3707460D01*
X1668912Y-3710462D01*
X1659791Y-3715337D01*
X1651797Y-3721897D01*
X1650153Y-3723900D01*
X1519200Y-3854853D01*
X1517197Y-3856497D01*
X1515553Y-3858500D01*
X1510637Y-3864491D01*
X1505762Y-3873612D01*
X1502760Y-3883508D01*
X1502210Y-3889093D01*
X1499109Y-3889398D01*
X1493925Y-3890970D01*
X1489148Y-3893524D01*
X1484960Y-3896960D01*
X1481524Y-3901148D01*
X1478970Y-3905925D01*
X1477398Y-3911109D01*
X1476867Y-3916500D01*
X1476867Y-4066500D01*
X1477398Y-4071891D01*
X1478970Y-4077075D01*
X1481524Y-4081852D01*
X1484960Y-4086039D01*
X1485375Y-4086379D01*
X1471354Y-4100400D01*
X1043226Y-4100400D01*
X1043354Y-4099100D01*
X1043100Y-4096522D01*
X1043100Y-4096521D01*
X1042684Y-4092300D01*
X1043575Y-4092030D01*
X1048352Y-4089476D01*
X1052540Y-4086039D01*
X1055976Y-4081852D01*
X1058530Y-4077075D01*
X1060102Y-4071891D01*
X1060633Y-4066500D01*
X1060633Y-3916500D01*
X1225367Y-3916500D01*
X1225367Y-4066500D01*
X1225898Y-4071891D01*
X1227470Y-4077075D01*
X1230024Y-4081852D01*
X1233461Y-4086039D01*
X1237648Y-4089476D01*
X1242425Y-4092030D01*
X1247609Y-4093602D01*
X1253000Y-4094133D01*
X1353000Y-4094133D01*
X1358391Y-4093602D01*
X1363575Y-4092030D01*
X1368352Y-4089476D01*
X1372540Y-4086039D01*
X1375976Y-4081852D01*
X1378530Y-4077075D01*
X1380102Y-4071891D01*
X1380633Y-4066500D01*
X1380633Y-3916500D01*
X1380102Y-3911109D01*
X1378530Y-3905925D01*
X1375976Y-3901148D01*
X1372540Y-3896960D01*
X1368352Y-3893524D01*
X1363575Y-3890970D01*
X1358391Y-3889398D01*
X1353000Y-3888867D01*
X1343000Y-3888867D01*
X1343000Y-3888718D01*
X1581395Y-3650323D01*
X1582921Y-3649071D01*
X1587920Y-3642980D01*
X1591634Y-3636031D01*
X1593921Y-3628491D01*
X1594500Y-3622615D01*
X1594500Y-3622614D01*
X1594693Y-3620650D01*
X1594500Y-3618686D01*
X1594500Y-3604133D01*
X1604500Y-3604133D01*
X1609891Y-3603602D01*
X1615075Y-3602030D01*
X1619852Y-3599476D01*
X1624039Y-3596039D01*
X1627476Y-3591852D01*
X1630030Y-3587075D01*
X1631602Y-3581891D01*
X1632133Y-3576500D01*
X1796867Y-3576500D01*
X1797398Y-3581891D01*
X1798970Y-3587075D01*
X1801524Y-3591852D01*
X1804960Y-3596040D01*
X1809148Y-3599476D01*
X1813925Y-3602030D01*
X1819109Y-3603602D01*
X1824500Y-3604133D01*
X1865125Y-3604000D01*
X1872000Y-3597125D01*
X1872000Y-3504000D01*
X1877000Y-3504000D01*
X1877000Y-3597125D01*
X1883875Y-3604000D01*
X1924500Y-3604133D01*
X1929891Y-3603602D01*
X1935075Y-3602030D01*
X1939852Y-3599476D01*
X1944040Y-3596040D01*
X1947476Y-3591852D01*
X1950030Y-3587075D01*
X1951602Y-3581891D01*
X1952133Y-3576500D01*
X1952000Y-3510875D01*
X1945125Y-3504000D01*
X1877000Y-3504000D01*
X1872000Y-3504000D01*
X1803875Y-3504000D01*
X1797000Y-3510875D01*
X1796867Y-3576500D01*
X1632133Y-3576500D01*
X1632133Y-3426500D01*
X1796867Y-3426500D01*
X1797000Y-3492125D01*
X1803875Y-3499000D01*
X1872000Y-3499000D01*
X1872000Y-3405875D01*
X1877000Y-3405875D01*
X1877000Y-3499000D01*
X1945125Y-3499000D01*
X1952000Y-3492125D01*
X1952133Y-3426500D01*
X1951602Y-3421109D01*
X1950030Y-3415925D01*
X1947476Y-3411148D01*
X1944040Y-3406960D01*
X1939852Y-3403524D01*
X1935075Y-3400970D01*
X1929891Y-3399398D01*
X1924500Y-3398867D01*
X1883875Y-3399000D01*
X1877000Y-3405875D01*
X1872000Y-3405875D01*
X1865125Y-3399000D01*
X1824500Y-3398867D01*
X1819109Y-3399398D01*
X1813925Y-3400970D01*
X1809148Y-3403524D01*
X1804960Y-3406960D01*
X1801524Y-3411148D01*
X1798970Y-3415925D01*
X1797398Y-3421109D01*
X1796867Y-3426500D01*
X1632133Y-3426500D01*
X1631602Y-3421109D01*
X1630030Y-3415925D01*
X1627476Y-3411148D01*
X1624039Y-3406960D01*
X1619852Y-3403524D01*
X1615075Y-3400970D01*
X1609891Y-3399398D01*
X1604500Y-3398867D01*
X1504500Y-3398867D01*
X1499109Y-3399398D01*
X1493925Y-3400970D01*
X1489148Y-3403524D01*
X1484960Y-3406960D01*
X1481524Y-3411148D01*
X1478970Y-3415925D01*
X1477398Y-3421109D01*
X1476867Y-3426500D01*
X1476867Y-3576500D01*
X1477398Y-3581891D01*
X1478970Y-3587075D01*
X1481524Y-3591852D01*
X1484960Y-3596039D01*
X1489148Y-3599476D01*
X1493925Y-3602030D01*
X1499109Y-3603602D01*
X1504500Y-3604133D01*
X1514448Y-3604133D01*
X1276105Y-3842476D01*
X1274579Y-3843729D01*
X1269580Y-3849820D01*
X1265866Y-3856769D01*
X1263579Y-3864309D01*
X1263579Y-3864309D01*
X1262807Y-3872150D01*
X1263000Y-3874115D01*
X1263000Y-3888867D01*
X1253000Y-3888867D01*
X1247609Y-3889398D01*
X1242425Y-3890970D01*
X1237648Y-3893524D01*
X1233461Y-3896960D01*
X1230024Y-3901148D01*
X1227470Y-3905925D01*
X1225898Y-3911109D01*
X1225367Y-3916500D01*
X1060633Y-3916500D01*
X1060102Y-3911109D01*
X1058530Y-3905925D01*
X1055976Y-3901148D01*
X1052540Y-3896960D01*
X1048352Y-3893524D01*
X1043575Y-3890970D01*
X1038391Y-3889398D01*
X1033000Y-3888867D01*
X933000Y-3888867D01*
X927609Y-3889398D01*
X922425Y-3890970D01*
X917648Y-3893524D01*
X913460Y-3896960D01*
X910024Y-3901148D01*
X907470Y-3905925D01*
X905898Y-3911109D01*
X905367Y-3916500D01*
X905367Y-4066500D01*
X905898Y-4071891D01*
X907470Y-4077075D01*
X910024Y-4081852D01*
X913460Y-4086039D01*
X917648Y-4089476D01*
X922425Y-4092030D01*
X927609Y-4093602D01*
X930481Y-4093885D01*
X931123Y-4100400D01*
X478946Y-4100400D01*
X470925Y-4092378D01*
X472075Y-4092030D01*
X476852Y-4089476D01*
X481039Y-4086039D01*
X484476Y-4081852D01*
X487030Y-4077075D01*
X488602Y-4071891D01*
X489133Y-4066500D01*
X489133Y-3916500D01*
X653867Y-3916500D01*
X653867Y-4066500D01*
X654398Y-4071891D01*
X655970Y-4077075D01*
X658524Y-4081852D01*
X661961Y-4086039D01*
X666148Y-4089476D01*
X670925Y-4092030D01*
X676109Y-4093602D01*
X681500Y-4094133D01*
X781500Y-4094133D01*
X786891Y-4093602D01*
X792075Y-4092030D01*
X796852Y-4089476D01*
X801039Y-4086039D01*
X804476Y-4081852D01*
X807030Y-4077075D01*
X808602Y-4071891D01*
X809133Y-4066500D01*
X809133Y-3916500D01*
X808602Y-3911109D01*
X807030Y-3905925D01*
X804476Y-3901148D01*
X801039Y-3896960D01*
X796852Y-3893524D01*
X792075Y-3890970D01*
X786891Y-3889398D01*
X781500Y-3888867D01*
X777801Y-3888867D01*
X1009895Y-3656773D01*
X1011421Y-3655521D01*
X1016420Y-3649430D01*
X1020134Y-3642481D01*
X1022421Y-3634941D01*
X1023000Y-3629065D01*
X1023000Y-3629064D01*
X1023193Y-3627100D01*
X1023000Y-3625136D01*
X1023000Y-3604133D01*
X1033000Y-3604133D01*
X1038391Y-3603602D01*
X1043575Y-3602030D01*
X1048352Y-3599476D01*
X1052540Y-3596039D01*
X1055976Y-3591852D01*
X1058530Y-3587075D01*
X1060102Y-3581891D01*
X1060633Y-3576500D01*
X1225367Y-3576500D01*
X1225898Y-3581891D01*
X1227470Y-3587075D01*
X1230024Y-3591852D01*
X1233460Y-3596040D01*
X1237648Y-3599476D01*
X1242425Y-3602030D01*
X1247609Y-3603602D01*
X1253000Y-3604133D01*
X1293625Y-3604000D01*
X1300500Y-3597125D01*
X1300500Y-3504000D01*
X1305500Y-3504000D01*
X1305500Y-3597125D01*
X1312375Y-3604000D01*
X1353000Y-3604133D01*
X1358391Y-3603602D01*
X1363575Y-3602030D01*
X1368352Y-3599476D01*
X1372540Y-3596040D01*
X1375976Y-3591852D01*
X1378530Y-3587075D01*
X1380102Y-3581891D01*
X1380633Y-3576500D01*
X1380500Y-3510875D01*
X1373625Y-3504000D01*
X1305500Y-3504000D01*
X1300500Y-3504000D01*
X1232375Y-3504000D01*
X1225500Y-3510875D01*
X1225367Y-3576500D01*
X1060633Y-3576500D01*
X1060633Y-3426500D01*
X1225367Y-3426500D01*
X1225500Y-3492125D01*
X1232375Y-3499000D01*
X1300500Y-3499000D01*
X1300500Y-3405875D01*
X1305500Y-3405875D01*
X1305500Y-3499000D01*
X1373625Y-3499000D01*
X1380500Y-3492125D01*
X1380633Y-3426500D01*
X1380102Y-3421109D01*
X1378530Y-3415925D01*
X1375976Y-3411148D01*
X1372540Y-3406960D01*
X1368352Y-3403524D01*
X1363575Y-3400970D01*
X1358391Y-3399398D01*
X1353000Y-3398867D01*
X1312375Y-3399000D01*
X1305500Y-3405875D01*
X1300500Y-3405875D01*
X1293625Y-3399000D01*
X1253000Y-3398867D01*
X1247609Y-3399398D01*
X1242425Y-3400970D01*
X1237648Y-3403524D01*
X1233460Y-3406960D01*
X1230024Y-3411148D01*
X1227470Y-3415925D01*
X1225898Y-3421109D01*
X1225367Y-3426500D01*
X1060633Y-3426500D01*
X1060102Y-3421109D01*
X1058530Y-3415925D01*
X1055976Y-3411148D01*
X1052540Y-3406960D01*
X1048352Y-3403524D01*
X1043575Y-3400970D01*
X1038391Y-3399398D01*
X1033000Y-3398867D01*
X933000Y-3398867D01*
X927609Y-3399398D01*
X922425Y-3400970D01*
X917648Y-3403524D01*
X913460Y-3406960D01*
X910024Y-3411148D01*
X907470Y-3415925D01*
X905898Y-3421109D01*
X905367Y-3426500D01*
X905367Y-3576500D01*
X905898Y-3581891D01*
X907470Y-3587075D01*
X910024Y-3591852D01*
X913460Y-3596039D01*
X917648Y-3599476D01*
X922425Y-3602030D01*
X927609Y-3603602D01*
X933000Y-3604133D01*
X943000Y-3604133D01*
X943000Y-3610531D01*
X704605Y-3848926D01*
X703079Y-3850179D01*
X698080Y-3856270D01*
X694366Y-3863219D01*
X692253Y-3870185D01*
X692079Y-3870759D01*
X691307Y-3878600D01*
X691500Y-3880565D01*
X691500Y-3888867D01*
X681500Y-3888867D01*
X676109Y-3889398D01*
X670925Y-3890970D01*
X666148Y-3893524D01*
X661961Y-3896960D01*
X658524Y-3901148D01*
X655970Y-3905925D01*
X654398Y-3911109D01*
X653867Y-3916500D01*
X489133Y-3916500D01*
X488602Y-3911109D01*
X487030Y-3905925D01*
X484476Y-3901148D01*
X481039Y-3896960D01*
X476852Y-3893524D01*
X472075Y-3890970D01*
X466891Y-3889398D01*
X464000Y-3889113D01*
X464000Y-3792278D01*
X464254Y-3789700D01*
X464000Y-3787122D01*
X464000Y-3787121D01*
X463240Y-3779408D01*
X460238Y-3769512D01*
X455363Y-3760391D01*
X454386Y-3759200D01*
X450447Y-3754400D01*
X450446Y-3754400D01*
X448803Y-3752397D01*
X446800Y-3750754D01*
X357300Y-3661254D01*
X357300Y-3603719D01*
X361500Y-3604133D01*
X461500Y-3604133D01*
X466891Y-3603602D01*
X472075Y-3602030D01*
X476852Y-3599476D01*
X481039Y-3596039D01*
X484476Y-3591852D01*
X487030Y-3587075D01*
X488602Y-3581891D01*
X489133Y-3576500D01*
X653867Y-3576500D01*
X654398Y-3581891D01*
X655970Y-3587075D01*
X658524Y-3591852D01*
X661960Y-3596040D01*
X666148Y-3599476D01*
X670925Y-3602030D01*
X676109Y-3603602D01*
X681500Y-3604133D01*
X722125Y-3604000D01*
X729000Y-3597125D01*
X729000Y-3504000D01*
X734000Y-3504000D01*
X734000Y-3597125D01*
X740875Y-3604000D01*
X781500Y-3604133D01*
X786891Y-3603602D01*
X792075Y-3602030D01*
X796852Y-3599476D01*
X801040Y-3596040D01*
X804476Y-3591852D01*
X807030Y-3587075D01*
X808602Y-3581891D01*
X809133Y-3576500D01*
X809000Y-3510875D01*
X802125Y-3504000D01*
X734000Y-3504000D01*
X729000Y-3504000D01*
X660875Y-3504000D01*
X654000Y-3510875D01*
X653867Y-3576500D01*
X489133Y-3576500D01*
X489133Y-3426500D01*
X653867Y-3426500D01*
X654000Y-3492125D01*
X660875Y-3499000D01*
X729000Y-3499000D01*
X729000Y-3405875D01*
X734000Y-3405875D01*
X734000Y-3499000D01*
X802125Y-3499000D01*
X809000Y-3492125D01*
X809133Y-3426500D01*
X808602Y-3421109D01*
X807030Y-3415925D01*
X804476Y-3411148D01*
X801040Y-3406960D01*
X796852Y-3403524D01*
X792075Y-3400970D01*
X786891Y-3399398D01*
X781500Y-3398867D01*
X740875Y-3399000D01*
X734000Y-3405875D01*
X729000Y-3405875D01*
X722125Y-3399000D01*
X681500Y-3398867D01*
X676109Y-3399398D01*
X670925Y-3400970D01*
X666148Y-3403524D01*
X661960Y-3406960D01*
X658524Y-3411148D01*
X655970Y-3415925D01*
X654398Y-3421109D01*
X653867Y-3426500D01*
X489133Y-3426500D01*
X488602Y-3421109D01*
X487030Y-3415925D01*
X484476Y-3411148D01*
X481039Y-3406960D01*
X476852Y-3403524D01*
X472075Y-3400970D01*
X466891Y-3399398D01*
X461500Y-3398867D01*
X451500Y-3398867D01*
X451500Y-3364268D01*
X511869Y-3303900D01*
X683835Y-3303900D01*
X685800Y-3304093D01*
X687765Y-3303900D01*
X687765Y-3303900D01*
X693641Y-3303321D01*
X701181Y-3301034D01*
X704227Y-3299406D01*
X2156301Y-3299406D01*
X2158287Y-3324759D01*
X2165181Y-3349237D01*
X2176718Y-3371900D01*
X2179601Y-3376213D01*
X2197382Y-3387082D01*
X2282465Y-3302000D01*
X2289536Y-3302000D01*
X2374618Y-3387082D01*
X2392400Y-3376213D01*
X2404833Y-3354030D01*
X2412701Y-3329847D01*
X2415699Y-3304594D01*
X2413713Y-3279241D01*
X2406819Y-3254763D01*
X2395282Y-3232100D01*
X2392400Y-3227786D01*
X2374618Y-3216918D01*
X2289536Y-3302000D01*
X2282465Y-3302000D01*
X2197382Y-3216918D01*
X2179601Y-3227786D01*
X2167167Y-3249970D01*
X2159299Y-3274153D01*
X2156301Y-3299406D01*
X704227Y-3299406D01*
X708130Y-3297320D01*
X714221Y-3292321D01*
X715474Y-3290795D01*
X740645Y-3265624D01*
X742171Y-3264371D01*
X747170Y-3258280D01*
X750884Y-3251331D01*
X752170Y-3247093D01*
X754571Y-3246364D01*
X763130Y-3241789D01*
X770632Y-3235632D01*
X776789Y-3228130D01*
X781364Y-3219571D01*
X782751Y-3215000D01*
X848935Y-3215000D01*
X850900Y-3215193D01*
X852865Y-3215000D01*
X852865Y-3215000D01*
X858741Y-3214421D01*
X866281Y-3212134D01*
X873230Y-3208420D01*
X879321Y-3203421D01*
X880574Y-3201895D01*
X929468Y-3153000D01*
X988148Y-3153000D01*
X992873Y-3160072D01*
X996310Y-3164259D01*
X1003241Y-3171190D01*
X1007428Y-3174627D01*
X1015578Y-3180072D01*
X1020356Y-3182626D01*
X1029411Y-3186377D01*
X1034595Y-3187949D01*
X1044208Y-3189861D01*
X1049599Y-3190392D01*
X1052055Y-3190392D01*
X1054500Y-3190633D01*
X1104500Y-3190633D01*
X1106945Y-3190392D01*
X1109401Y-3190392D01*
X1114792Y-3189861D01*
X1124405Y-3187949D01*
X1129589Y-3186377D01*
X1138644Y-3182626D01*
X1143422Y-3180072D01*
X1151572Y-3174627D01*
X1155759Y-3171190D01*
X1162690Y-3164259D01*
X1166127Y-3160072D01*
X1170852Y-3153000D01*
X1242232Y-3153000D01*
X1259127Y-3169895D01*
X1260379Y-3171421D01*
X1261905Y-3172673D01*
X1261905Y-3172673D01*
X1264285Y-3174627D01*
X1266470Y-3176420D01*
X1273419Y-3180134D01*
X1280959Y-3182421D01*
X1286835Y-3183000D01*
X1286836Y-3183000D01*
X1288800Y-3183193D01*
X1290764Y-3183000D01*
X1351367Y-3183000D01*
X1351898Y-3188391D01*
X1353470Y-3193575D01*
X1356024Y-3198352D01*
X1359461Y-3202539D01*
X1363648Y-3205976D01*
X1368425Y-3208530D01*
X1373609Y-3210102D01*
X1379000Y-3210633D01*
X1469000Y-3210633D01*
X1474391Y-3210102D01*
X1479575Y-3208530D01*
X1484352Y-3205976D01*
X1488539Y-3202539D01*
X1491976Y-3198352D01*
X1494530Y-3193575D01*
X1496102Y-3188391D01*
X1496633Y-3183000D01*
X1496633Y-3103000D01*
X1496102Y-3097609D01*
X1494530Y-3092425D01*
X1492164Y-3088000D01*
X1551367Y-3088000D01*
X1551898Y-3093391D01*
X1553470Y-3098575D01*
X1556024Y-3103352D01*
X1559460Y-3107540D01*
X1563648Y-3110976D01*
X1568425Y-3113530D01*
X1573609Y-3115102D01*
X1579000Y-3115633D01*
X1614625Y-3115500D01*
X1621500Y-3108625D01*
X1621500Y-3050500D01*
X1626500Y-3050500D01*
X1626500Y-3108625D01*
X1633375Y-3115500D01*
X1669000Y-3115633D01*
X1674391Y-3115102D01*
X1679575Y-3113530D01*
X1684352Y-3110976D01*
X1688540Y-3107540D01*
X1691976Y-3103352D01*
X1694530Y-3098575D01*
X1696102Y-3093391D01*
X1696633Y-3088000D01*
X1696500Y-3057375D01*
X1689625Y-3050500D01*
X1626500Y-3050500D01*
X1621500Y-3050500D01*
X1558375Y-3050500D01*
X1551500Y-3057375D01*
X1551367Y-3088000D01*
X1492164Y-3088000D01*
X1491976Y-3087648D01*
X1488539Y-3083460D01*
X1484352Y-3080024D01*
X1479575Y-3077470D01*
X1474391Y-3075898D01*
X1469000Y-3075367D01*
X1379000Y-3075367D01*
X1373609Y-3075898D01*
X1368425Y-3077470D01*
X1363648Y-3080024D01*
X1359461Y-3083460D01*
X1356024Y-3087648D01*
X1353470Y-3092425D01*
X1351898Y-3097609D01*
X1351367Y-3103000D01*
X1305369Y-3103000D01*
X1288474Y-3086105D01*
X1287221Y-3084579D01*
X1281130Y-3079580D01*
X1274181Y-3075866D01*
X1266641Y-3073579D01*
X1260765Y-3073000D01*
X1260765Y-3073000D01*
X1258800Y-3072806D01*
X1256835Y-3073000D01*
X1182133Y-3073000D01*
X1182133Y-3063000D01*
X1181602Y-3057609D01*
X1180030Y-3052425D01*
X1177664Y-3048000D01*
X1180030Y-3043575D01*
X1181602Y-3038391D01*
X1182133Y-3033000D01*
X1182133Y-2983000D01*
X1181892Y-2980555D01*
X1181892Y-2978361D01*
X1183426Y-2979895D01*
X1184679Y-2981421D01*
X1190770Y-2986420D01*
X1197719Y-2990134D01*
X1205259Y-2992421D01*
X1207560Y-2992648D01*
X1213100Y-2993193D01*
X1215065Y-2993000D01*
X1351367Y-2993000D01*
X1351898Y-2998391D01*
X1353470Y-3003575D01*
X1356024Y-3008352D01*
X1359461Y-3012539D01*
X1363648Y-3015976D01*
X1368425Y-3018530D01*
X1373609Y-3020102D01*
X1379000Y-3020633D01*
X1469000Y-3020633D01*
X1474391Y-3020102D01*
X1479575Y-3018530D01*
X1484352Y-3015976D01*
X1488539Y-3012539D01*
X1491976Y-3008352D01*
X1492164Y-3008000D01*
X1551367Y-3008000D01*
X1551500Y-3038625D01*
X1558375Y-3045500D01*
X1621500Y-3045500D01*
X1621500Y-2987375D01*
X1626500Y-2987375D01*
X1626500Y-3045500D01*
X1689625Y-3045500D01*
X1696500Y-3038625D01*
X1696633Y-3008000D01*
X1696102Y-3002609D01*
X1694530Y-2997425D01*
X1691976Y-2992648D01*
X1688540Y-2988460D01*
X1684352Y-2985024D01*
X1679575Y-2982470D01*
X1674391Y-2980898D01*
X1669000Y-2980367D01*
X1633375Y-2980500D01*
X1626500Y-2987375D01*
X1621500Y-2987375D01*
X1614625Y-2980500D01*
X1579000Y-2980367D01*
X1573609Y-2980898D01*
X1568425Y-2982470D01*
X1563648Y-2985024D01*
X1559460Y-2988460D01*
X1556024Y-2992648D01*
X1553470Y-2997425D01*
X1551898Y-3002609D01*
X1551367Y-3008000D01*
X1492164Y-3008000D01*
X1494530Y-3003575D01*
X1496102Y-2998391D01*
X1496633Y-2993000D01*
X1496633Y-2963000D01*
X1893967Y-2963000D01*
X1893967Y-3133000D01*
X1894498Y-3138391D01*
X1896070Y-3143575D01*
X1898624Y-3148352D01*
X1902060Y-3152539D01*
X1906248Y-3155976D01*
X1911025Y-3158530D01*
X1916209Y-3160102D01*
X1921600Y-3160633D01*
X2091600Y-3160633D01*
X2096991Y-3160102D01*
X2102175Y-3158530D01*
X2106952Y-3155976D01*
X2111140Y-3152539D01*
X2114576Y-3148352D01*
X2117130Y-3143575D01*
X2118702Y-3138391D01*
X2119233Y-3133000D01*
X2119233Y-2963000D01*
X2118702Y-2957609D01*
X2117130Y-2952425D01*
X2114576Y-2947648D01*
X2111140Y-2943460D01*
X2106952Y-2940024D01*
X2102175Y-2937470D01*
X2096991Y-2935898D01*
X2091600Y-2935367D01*
X1921600Y-2935367D01*
X1916209Y-2935898D01*
X1911025Y-2937470D01*
X1906248Y-2940024D01*
X1902060Y-2943460D01*
X1898624Y-2947648D01*
X1896070Y-2952425D01*
X1894498Y-2957609D01*
X1893967Y-2963000D01*
X1496633Y-2963000D01*
X1496633Y-2913000D01*
X1496102Y-2907609D01*
X1494530Y-2902425D01*
X1491976Y-2897648D01*
X1488539Y-2893460D01*
X1484352Y-2890024D01*
X1479575Y-2887470D01*
X1474391Y-2885898D01*
X1469000Y-2885367D01*
X1379000Y-2885367D01*
X1373609Y-2885898D01*
X1368425Y-2887470D01*
X1363648Y-2890024D01*
X1359461Y-2893460D01*
X1356024Y-2897648D01*
X1353470Y-2902425D01*
X1351898Y-2907609D01*
X1351367Y-2913000D01*
X1229669Y-2913000D01*
X1172674Y-2856005D01*
X1171421Y-2854479D01*
X1165330Y-2849480D01*
X1158381Y-2845766D01*
X1150841Y-2843479D01*
X1144965Y-2842900D01*
X1144965Y-2842900D01*
X1143000Y-2842706D01*
X1141035Y-2842900D01*
X1005263Y-2842900D01*
X1003300Y-2842707D01*
X1001336Y-2842900D01*
X1001335Y-2842900D01*
X995459Y-2843479D01*
X987919Y-2845766D01*
X980970Y-2849480D01*
X974879Y-2854479D01*
X973626Y-2856005D01*
X948631Y-2881000D01*
X782751Y-2881000D01*
X781364Y-2876429D01*
X776789Y-2867870D01*
X770632Y-2860368D01*
X763130Y-2854211D01*
X754571Y-2849636D01*
X745283Y-2846818D01*
X735625Y-2845867D01*
X691875Y-2845867D01*
X682217Y-2846818D01*
X672929Y-2849636D01*
X664370Y-2854211D01*
X656868Y-2860368D01*
X650711Y-2867870D01*
X646136Y-2876429D01*
X643318Y-2885716D01*
X642367Y-2895375D01*
X642367Y-2946625D01*
X643318Y-2956283D01*
X646136Y-2965571D01*
X648450Y-2969900D01*
X621551Y-2969900D01*
X623864Y-2965571D01*
X626682Y-2956283D01*
X627633Y-2946625D01*
X627633Y-2895375D01*
X626682Y-2885716D01*
X623864Y-2876429D01*
X619289Y-2867870D01*
X613132Y-2860368D01*
X605630Y-2854211D01*
X597071Y-2849636D01*
X596250Y-2849387D01*
X596250Y-2814064D01*
X1895904Y-2814064D01*
X1896652Y-2817825D01*
X1903412Y-2838817D01*
X1914138Y-2858087D01*
X1928418Y-2874894D01*
X1945702Y-2888592D01*
X1965326Y-2898655D01*
X1986536Y-2904696D01*
X2004100Y-2899597D01*
X2004100Y-2796500D01*
X2009100Y-2796500D01*
X2009100Y-2899597D01*
X2026664Y-2904696D01*
X2047874Y-2898655D01*
X2067498Y-2888592D01*
X2084782Y-2874894D01*
X2099062Y-2858087D01*
X2109788Y-2838817D01*
X2116548Y-2817825D01*
X2117296Y-2814064D01*
X2112195Y-2796500D01*
X2009100Y-2796500D01*
X2004100Y-2796500D01*
X1901005Y-2796500D01*
X1895904Y-2814064D01*
X596250Y-2814064D01*
X596250Y-2317819D01*
X1106395Y-1807673D01*
X1107921Y-1806421D01*
X1112920Y-1800330D01*
X1116634Y-1793381D01*
X1118921Y-1785841D01*
X1119500Y-1779965D01*
X1119500Y-1779964D01*
X1119693Y-1778000D01*
X1119500Y-1776036D01*
X1119500Y-816454D01*
X1122529Y-814430D01*
X1131931Y-805028D01*
X1139318Y-793973D01*
X1144406Y-781689D01*
X1147000Y-768648D01*
X1147000Y-755352D01*
X1144406Y-742311D01*
X1139318Y-730027D01*
X1131931Y-718971D01*
X1122529Y-709569D01*
X1111473Y-702182D01*
X1099189Y-697094D01*
X1086148Y-694500D01*
X1072852Y-694500D01*
X1059811Y-697094D01*
X1047527Y-702182D01*
X1036471Y-709569D01*
X1027069Y-718971D01*
X1019682Y-730027D01*
X1014594Y-742311D01*
X1012000Y-755352D01*
X1012000Y-768648D01*
X1014594Y-781689D01*
X1019682Y-793973D01*
X1027069Y-805028D01*
X1036471Y-814430D01*
X1039500Y-816454D01*
X1039500Y-820533D01*
X1039500Y-820534D01*
X1039500Y-1761431D01*
X529355Y-2271577D01*
X527829Y-2272829D01*
X526577Y-2274355D01*
X526577Y-2274355D01*
X522830Y-2278920D01*
X519116Y-2285869D01*
X516829Y-2293409D01*
X516056Y-2301250D01*
X516250Y-2303216D01*
X516250Y-2849387D01*
X515429Y-2849636D01*
X506870Y-2854211D01*
X499368Y-2860368D01*
X493211Y-2867870D01*
X488636Y-2876429D01*
X485818Y-2885716D01*
X484867Y-2895375D01*
X484867Y-2946625D01*
X485818Y-2956283D01*
X488636Y-2965571D01*
X493211Y-2974130D01*
X499368Y-2981632D01*
X506870Y-2987789D01*
X515429Y-2992364D01*
X516250Y-2992613D01*
X516250Y-2992684D01*
X516056Y-2994650D01*
X516829Y-3002491D01*
X519116Y-3010031D01*
X522830Y-3016980D01*
X526577Y-3021545D01*
X526577Y-3021545D01*
X527829Y-3023071D01*
X529355Y-3024323D01*
X541826Y-3036794D01*
X543079Y-3038321D01*
X549170Y-3043320D01*
X556119Y-3047034D01*
X560464Y-3048352D01*
X563659Y-3049321D01*
X571500Y-3050093D01*
X573465Y-3049900D01*
X772735Y-3049900D01*
X774700Y-3050093D01*
X776665Y-3049900D01*
X776665Y-3049900D01*
X782541Y-3049321D01*
X790081Y-3047034D01*
X797030Y-3043320D01*
X803121Y-3038321D01*
X804374Y-3036795D01*
X818168Y-3023000D01*
X976867Y-3023000D01*
X976867Y-3033000D01*
X977398Y-3038391D01*
X978970Y-3043575D01*
X981336Y-3048000D01*
X978970Y-3052425D01*
X977398Y-3057609D01*
X976867Y-3063000D01*
X976867Y-3073000D01*
X914863Y-3073000D01*
X912900Y-3072807D01*
X910936Y-3073000D01*
X910935Y-3073000D01*
X905059Y-3073579D01*
X897519Y-3075866D01*
X890570Y-3079580D01*
X884479Y-3084579D01*
X883226Y-3086105D01*
X834331Y-3135000D01*
X782751Y-3135000D01*
X781364Y-3130429D01*
X776789Y-3121870D01*
X770632Y-3114368D01*
X763130Y-3108211D01*
X754571Y-3103636D01*
X745283Y-3100818D01*
X735625Y-3099867D01*
X691875Y-3099867D01*
X682217Y-3100818D01*
X672929Y-3103636D01*
X664370Y-3108211D01*
X656868Y-3114368D01*
X650711Y-3121870D01*
X646136Y-3130429D01*
X643318Y-3139716D01*
X642367Y-3149375D01*
X642367Y-3200625D01*
X643318Y-3210283D01*
X646136Y-3219571D01*
X648450Y-3223900D01*
X621551Y-3223900D01*
X623864Y-3219571D01*
X626682Y-3210283D01*
X627633Y-3200625D01*
X627633Y-3149375D01*
X626682Y-3139716D01*
X623864Y-3130429D01*
X619289Y-3121870D01*
X613132Y-3114368D01*
X605630Y-3108211D01*
X597071Y-3103636D01*
X587784Y-3100818D01*
X578125Y-3099867D01*
X534375Y-3099867D01*
X524717Y-3100818D01*
X515429Y-3103636D01*
X506870Y-3108211D01*
X499368Y-3114368D01*
X493211Y-3121870D01*
X492874Y-3122500D01*
X485179Y-3122500D01*
X482600Y-3122246D01*
X480021Y-3122500D01*
X472308Y-3123260D01*
X462412Y-3126262D01*
X453291Y-3131137D01*
X445297Y-3137697D01*
X443653Y-3139700D01*
X269501Y-3313853D01*
X267497Y-3315497D01*
X265854Y-3317500D01*
X260937Y-3323491D01*
X256062Y-3332612D01*
X253060Y-3342508D01*
X252046Y-3352800D01*
X119233Y-3352800D01*
X126701Y-3329847D01*
X129699Y-3304594D01*
X127713Y-3279241D01*
X120819Y-3254763D01*
X109282Y-3232100D01*
X106399Y-3227786D01*
X88618Y-3216918D01*
X3535Y-3302000D01*
X-3535Y-3302000D01*
X-88618Y-3216918D01*
X-106399Y-3227786D01*
X-118833Y-3249970D01*
X-126701Y-3274153D01*
X-129699Y-3299406D01*
X-157000Y-3299406D01*
X-157000Y-1765285D01*
X-129100Y-1765285D01*
X-129100Y-1790715D01*
X-124139Y-1815657D01*
X-114407Y-1839152D01*
X-100278Y-1860296D01*
X-82297Y-1878278D01*
X-61152Y-1892407D01*
X-37657Y-1902139D01*
X-23273Y-1905000D01*
X-37657Y-1907861D01*
X-61152Y-1917593D01*
X-82297Y-1931721D01*
X-100278Y-1949703D01*
X-114407Y-1970848D01*
X-124139Y-1994343D01*
X-129100Y-2019285D01*
X-129100Y-2044715D01*
X-124139Y-2069657D01*
X-114407Y-2093152D01*
X-100278Y-2114297D01*
X-82297Y-2132279D01*
X-61152Y-2146407D01*
X-37657Y-2156139D01*
X-23273Y-2159000D01*
X-37657Y-2161861D01*
X-61152Y-2171593D01*
X-82297Y-2185722D01*
X-100278Y-2203704D01*
X-114407Y-2224848D01*
X-124139Y-2248343D01*
X-129100Y-2273285D01*
X-129100Y-2298715D01*
X-124139Y-2323657D01*
X-114407Y-2347152D01*
X-100278Y-2368297D01*
X-82297Y-2386279D01*
X-61152Y-2400407D01*
X-37657Y-2410139D01*
X-23273Y-2413000D01*
X-37657Y-2415861D01*
X-61152Y-2425593D01*
X-82297Y-2439722D01*
X-100278Y-2457704D01*
X-114407Y-2478848D01*
X-124139Y-2502343D01*
X-129100Y-2527285D01*
X-129100Y-2552715D01*
X-124139Y-2577657D01*
X-114407Y-2601152D01*
X-100278Y-2622297D01*
X-82297Y-2640279D01*
X-61152Y-2654407D01*
X-37657Y-2664139D01*
X-23273Y-2667000D01*
X-37657Y-2669861D01*
X-61152Y-2679593D01*
X-82297Y-2693722D01*
X-100278Y-2711704D01*
X-114407Y-2732848D01*
X-124139Y-2756343D01*
X-129100Y-2781285D01*
X-129100Y-2806715D01*
X-124139Y-2831657D01*
X-114407Y-2855152D01*
X-100278Y-2876296D01*
X-82297Y-2894278D01*
X-61152Y-2908407D01*
X-37657Y-2918139D01*
X-23273Y-2921000D01*
X-37657Y-2923861D01*
X-61152Y-2933593D01*
X-82297Y-2947721D01*
X-100278Y-2965703D01*
X-114407Y-2986848D01*
X-124139Y-3010343D01*
X-129100Y-3035285D01*
X-129100Y-3060715D01*
X-124139Y-3085657D01*
X-114407Y-3109152D01*
X-100278Y-3130296D01*
X-82297Y-3148278D01*
X-61152Y-3162407D01*
X-37657Y-3172139D01*
X-24455Y-3174765D01*
X-47237Y-3181181D01*
X-69900Y-3192718D01*
X-74214Y-3195600D01*
X-85082Y-3213382D01*
X0Y-3298464D01*
X85082Y-3213382D01*
X74214Y-3195600D01*
X52030Y-3183167D01*
X27847Y-3175299D01*
X24040Y-3174847D01*
X37657Y-3172139D01*
X61152Y-3162407D01*
X82297Y-3148278D01*
X100278Y-3130296D01*
X114407Y-3109152D01*
X124139Y-3085657D01*
X129100Y-3060715D01*
X129100Y-3035285D01*
X124139Y-3010343D01*
X114407Y-2986848D01*
X100278Y-2965703D01*
X82297Y-2947721D01*
X61152Y-2933593D01*
X37657Y-2923861D01*
X23273Y-2921000D01*
X37657Y-2918139D01*
X61152Y-2908407D01*
X82297Y-2894278D01*
X100278Y-2876296D01*
X114407Y-2855152D01*
X124139Y-2831657D01*
X129100Y-2806715D01*
X129100Y-2781285D01*
X124139Y-2756343D01*
X114407Y-2732848D01*
X100278Y-2711704D01*
X82297Y-2693722D01*
X61152Y-2679593D01*
X37657Y-2669861D01*
X23273Y-2667000D01*
X37657Y-2664139D01*
X61152Y-2654407D01*
X82297Y-2640279D01*
X100278Y-2622297D01*
X114407Y-2601152D01*
X124139Y-2577657D01*
X129100Y-2552715D01*
X129100Y-2527285D01*
X124139Y-2502343D01*
X115377Y-2481191D01*
X953995Y-1642573D01*
X955521Y-1641321D01*
X960520Y-1635230D01*
X964234Y-1628281D01*
X966522Y-1620741D01*
X967100Y-1614864D01*
X967100Y-1614864D01*
X967294Y-1612900D01*
X967100Y-1610935D01*
X967100Y-1337154D01*
X970129Y-1335131D01*
X979531Y-1325729D01*
X986918Y-1314673D01*
X992006Y-1302389D01*
X994600Y-1289348D01*
X994600Y-1276052D01*
X992006Y-1263011D01*
X986918Y-1250727D01*
X979531Y-1239671D01*
X970129Y-1230269D01*
X959074Y-1222882D01*
X946789Y-1217794D01*
X933749Y-1215200D01*
X920452Y-1215200D01*
X907411Y-1217794D01*
X895127Y-1222882D01*
X884072Y-1230269D01*
X874670Y-1239671D01*
X867283Y-1250727D01*
X862194Y-1263011D01*
X859600Y-1276052D01*
X859600Y-1289348D01*
X862194Y-1302389D01*
X867283Y-1314673D01*
X874670Y-1325729D01*
X884072Y-1335131D01*
X887100Y-1337154D01*
X887100Y-1341233D01*
X887100Y-1341234D01*
X887100Y-1596331D01*
X58809Y-2424623D01*
X37657Y-2415861D01*
X23273Y-2413000D01*
X37657Y-2410139D01*
X61152Y-2400407D01*
X82297Y-2386279D01*
X100278Y-2368297D01*
X114407Y-2347152D01*
X124139Y-2323657D01*
X129100Y-2298715D01*
X129100Y-2273285D01*
X124139Y-2248343D01*
X115377Y-2227191D01*
X738095Y-1604473D01*
X739621Y-1603221D01*
X744620Y-1597130D01*
X744620Y-1597130D01*
X748334Y-1590181D01*
X750621Y-1582641D01*
X751393Y-1574800D01*
X751200Y-1572835D01*
X751200Y34446D01*
X754229Y36469D01*
X763631Y45871D01*
X771018Y56927D01*
X776106Y69211D01*
X778700Y82252D01*
X778700Y95548D01*
X776106Y108589D01*
X771018Y120873D01*
X763631Y131929D01*
X754229Y141331D01*
X743173Y148718D01*
X730889Y153806D01*
X717848Y156400D01*
X704552Y156400D01*
X691511Y153806D01*
X679227Y148718D01*
X668171Y141331D01*
X658769Y131929D01*
X651382Y120873D01*
X646294Y108589D01*
X643700Y95548D01*
X643700Y82252D01*
X646294Y69211D01*
X651382Y56927D01*
X658769Y45871D01*
X668171Y36469D01*
X671200Y34446D01*
X671200Y6936D01*
X671200Y6935D01*
X671200Y-1558231D01*
X58809Y-2170623D01*
X37657Y-2161861D01*
X23273Y-2159000D01*
X37657Y-2156139D01*
X61152Y-2146407D01*
X82297Y-2132279D01*
X100278Y-2114297D01*
X114407Y-2093152D01*
X124139Y-2069657D01*
X129100Y-2044715D01*
X129100Y-2019285D01*
X124139Y-1994343D01*
X115377Y-1973191D01*
X543797Y-1544772D01*
X545323Y-1543520D01*
X550321Y-1537429D01*
X554036Y-1530480D01*
X556323Y-1522940D01*
X556902Y-1517063D01*
X556902Y-1517062D01*
X557095Y-1515099D01*
X556902Y-1513135D01*
X556902Y15205D01*
X557834Y16950D01*
X560121Y24490D01*
X560700Y30367D01*
X560700Y30367D01*
X560894Y32331D01*
X560700Y34296D01*
X560700Y34446D01*
X563729Y36469D01*
X573131Y45871D01*
X580518Y56927D01*
X585606Y69211D01*
X588200Y82252D01*
X588200Y95548D01*
X585606Y108589D01*
X580518Y120873D01*
X573131Y131929D01*
X563729Y141331D01*
X552673Y148718D01*
X540389Y153806D01*
X527348Y156400D01*
X514052Y156400D01*
X501011Y153806D01*
X488727Y148718D01*
X477671Y141331D01*
X468269Y131929D01*
X460882Y120873D01*
X455794Y108589D01*
X453200Y95548D01*
X453200Y82252D01*
X455794Y69211D01*
X460882Y56927D01*
X468269Y45871D01*
X477547Y36594D01*
X477480Y36374D01*
X476708Y28533D01*
X476902Y26567D01*
X476901Y-1498530D01*
X58809Y-1916623D01*
X37657Y-1907861D01*
X23273Y-1905000D01*
X37657Y-1902139D01*
X61152Y-1892407D01*
X82297Y-1878278D01*
X100278Y-1860296D01*
X114407Y-1839152D01*
X124139Y-1815657D01*
X129100Y-1790715D01*
X129100Y-1765285D01*
X124139Y-1740343D01*
X115377Y-1719191D01*
X369795Y-1464773D01*
X371321Y-1463521D01*
X376320Y-1457430D01*
X380034Y-1450481D01*
X382321Y-1442941D01*
X382900Y-1437065D01*
X382900Y-1437064D01*
X383093Y-1435100D01*
X382900Y-1433136D01*
X382900Y-156054D01*
X385929Y-154031D01*
X395331Y-144629D01*
X402718Y-133573D01*
X407806Y-121289D01*
X410400Y-108248D01*
X410400Y-94952D01*
X407806Y-81911D01*
X402718Y-69627D01*
X395331Y-58571D01*
X385929Y-49169D01*
X374873Y-41782D01*
X362589Y-36694D01*
X349548Y-34100D01*
X336252Y-34100D01*
X323211Y-36694D01*
X310927Y-41782D01*
X299871Y-49169D01*
X290469Y-58571D01*
X283082Y-69627D01*
X277994Y-81911D01*
X275400Y-94952D01*
X275400Y-108248D01*
X277994Y-121289D01*
X283082Y-133573D01*
X290469Y-144629D01*
X299871Y-154031D01*
X302900Y-156055D01*
X302900Y-1418531D01*
X58809Y-1662623D01*
X37657Y-1653861D01*
X24455Y-1651235D01*
X47237Y-1644819D01*
X69900Y-1633282D01*
X74214Y-1630399D01*
X85082Y-1612618D01*
X0Y-1527535D01*
X-85082Y-1612618D01*
X-74214Y-1630399D01*
X-52030Y-1642833D01*
X-27847Y-1650701D01*
X-24040Y-1651153D01*
X-37657Y-1653861D01*
X-61152Y-1663593D01*
X-82297Y-1677721D01*
X-100278Y-1695703D01*
X-114407Y-1716848D01*
X-124139Y-1740343D01*
X-129100Y-1765285D01*
X-157000Y-1765285D01*
X-157000Y-1521406D01*
X-129699Y-1521406D01*
X-127713Y-1546759D01*
X-120819Y-1571237D01*
X-109282Y-1593900D01*
X-106399Y-1598213D01*
X-88618Y-1609082D01*
X-3535Y-1524000D01*
X3535Y-1524000D01*
X88618Y-1609082D01*
X106399Y-1598213D01*
X118833Y-1576030D01*
X126701Y-1551847D01*
X129699Y-1526594D01*
X127713Y-1501241D01*
X120819Y-1476763D01*
X109282Y-1454100D01*
X106399Y-1449786D01*
X88618Y-1438918D01*
X3535Y-1524000D01*
X-3535Y-1524000D01*
X-88618Y-1438918D01*
X-106399Y-1449786D01*
X-118833Y-1471970D01*
X-126701Y-1496153D01*
X-129699Y-1521406D01*
X-157000Y-1521406D01*
X-157000Y12715D01*
X-129100Y12715D01*
X-129100Y-12715D01*
X-124139Y-37657D01*
X-114407Y-61152D01*
X-100278Y-82297D01*
X-82297Y-100278D01*
X-61152Y-114407D01*
X-37657Y-124139D01*
X-23273Y-127000D01*
X-37657Y-129861D01*
X-61152Y-139593D01*
X-82297Y-153722D01*
X-100278Y-171704D01*
X-114407Y-192848D01*
X-124139Y-216343D01*
X-129100Y-241285D01*
X-129100Y-266715D01*
X-124139Y-291657D01*
X-114407Y-315152D01*
X-100278Y-336297D01*
X-82297Y-354278D01*
X-61152Y-368407D01*
X-37657Y-378139D01*
X-23273Y-381000D01*
X-37657Y-383861D01*
X-61152Y-393593D01*
X-82297Y-407721D01*
X-100278Y-425703D01*
X-114407Y-446848D01*
X-124139Y-470343D01*
X-129100Y-495285D01*
X-129100Y-520715D01*
X-124139Y-545657D01*
X-114407Y-569152D01*
X-100278Y-590297D01*
X-82297Y-608279D01*
X-61152Y-622407D01*
X-37657Y-632139D01*
X-23273Y-635000D01*
X-37657Y-637861D01*
X-61152Y-647593D01*
X-82297Y-661722D01*
X-100278Y-679704D01*
X-114407Y-700848D01*
X-124139Y-724343D01*
X-129100Y-749285D01*
X-129100Y-774715D01*
X-124139Y-799657D01*
X-114407Y-823152D01*
X-100278Y-844296D01*
X-82297Y-862278D01*
X-61152Y-876407D01*
X-37657Y-886139D01*
X-23273Y-889000D01*
X-37657Y-891861D01*
X-61152Y-901593D01*
X-82297Y-915721D01*
X-100278Y-933703D01*
X-114407Y-954848D01*
X-124139Y-978343D01*
X-129100Y-1003285D01*
X-129100Y-1028715D01*
X-124139Y-1053657D01*
X-114407Y-1077152D01*
X-100278Y-1098297D01*
X-82297Y-1116279D01*
X-61152Y-1130407D01*
X-37657Y-1140139D01*
X-23273Y-1143000D01*
X-37657Y-1145861D01*
X-61152Y-1155593D01*
X-82297Y-1169722D01*
X-100278Y-1187704D01*
X-114407Y-1208848D01*
X-124139Y-1232343D01*
X-129100Y-1257285D01*
X-129100Y-1282715D01*
X-124139Y-1307657D01*
X-114407Y-1331152D01*
X-100278Y-1352297D01*
X-82297Y-1370279D01*
X-61152Y-1384407D01*
X-37657Y-1394139D01*
X-24455Y-1396765D01*
X-47237Y-1403181D01*
X-69900Y-1414718D01*
X-74214Y-1417600D01*
X-85082Y-1435382D01*
X0Y-1520464D01*
X85082Y-1435382D01*
X74214Y-1417600D01*
X52030Y-1405167D01*
X27847Y-1397299D01*
X24040Y-1396847D01*
X37657Y-1394139D01*
X61152Y-1384407D01*
X82297Y-1370279D01*
X100278Y-1352297D01*
X114407Y-1331152D01*
X124139Y-1307657D01*
X129100Y-1282715D01*
X129100Y-1257285D01*
X124139Y-1232343D01*
X114407Y-1208848D01*
X100278Y-1187704D01*
X82297Y-1169722D01*
X61152Y-1155593D01*
X37657Y-1145861D01*
X23273Y-1143000D01*
X37657Y-1140139D01*
X61152Y-1130407D01*
X82297Y-1116279D01*
X100278Y-1098297D01*
X114407Y-1077152D01*
X124139Y-1053657D01*
X129100Y-1028715D01*
X129100Y-1003285D01*
X124139Y-978343D01*
X114407Y-954848D01*
X100278Y-933703D01*
X82297Y-915721D01*
X61152Y-901593D01*
X37657Y-891861D01*
X23273Y-889000D01*
X37657Y-886139D01*
X61152Y-876407D01*
X82297Y-862278D01*
X100278Y-844296D01*
X114407Y-823152D01*
X124139Y-799657D01*
X129100Y-774715D01*
X129100Y-749285D01*
X124139Y-724343D01*
X114407Y-700848D01*
X100278Y-679704D01*
X82297Y-661722D01*
X61152Y-647593D01*
X37657Y-637861D01*
X23273Y-635000D01*
X37657Y-632139D01*
X61152Y-622407D01*
X82297Y-608279D01*
X100278Y-590297D01*
X114407Y-569152D01*
X124139Y-545657D01*
X129100Y-520715D01*
X129100Y-495285D01*
X124139Y-470343D01*
X114407Y-446848D01*
X100278Y-425703D01*
X82297Y-407721D01*
X61152Y-393593D01*
X37657Y-383861D01*
X23273Y-381000D01*
X37657Y-378139D01*
X61152Y-368407D01*
X82297Y-354278D01*
X100278Y-336297D01*
X114407Y-315152D01*
X124139Y-291657D01*
X129100Y-266715D01*
X129100Y-241285D01*
X124139Y-216343D01*
X114407Y-192848D01*
X100278Y-171704D01*
X82297Y-153722D01*
X61152Y-139593D01*
X37657Y-129861D01*
X23273Y-127000D01*
X37657Y-124139D01*
X61152Y-114407D01*
X82297Y-100278D01*
X100278Y-82297D01*
X114407Y-61152D01*
X124139Y-37657D01*
X129100Y-12715D01*
X129100Y12715D01*
X124139Y37657D01*
X114407Y61152D01*
X100278Y82297D01*
X82297Y100278D01*
X61152Y114407D01*
X37657Y124139D01*
X12715Y129100D01*
X-12715Y129100D01*
X-37657Y124139D01*
X-61152Y114407D01*
X-82297Y100278D01*
X-100278Y82297D01*
X-114407Y61152D01*
X-124139Y37657D01*
X-129100Y12715D01*
X-157000Y12715D01*
X-157000Y505873D01*
X-155062Y525641D01*
X-149797Y543080D01*
X-141244Y559165D01*
X-129731Y573281D01*
X-115695Y584893D01*
X-99670Y593557D01*
X-82269Y598944D01*
X-62601Y601011D01*
X20967Y601011D01*
X-2814Y591160D01*
D22*
G36*
X963000Y511000D02*
G01*
X971750Y502250D01*
X1020500Y502250D01*
X1020500Y504250D01*
X1025500Y504250D01*
X1025500Y502250D01*
X1100500Y502250D01*
X1100500Y504250D01*
X1105500Y504250D01*
X1105500Y502250D01*
X1107500Y502250D01*
X1107500Y497250D01*
X1105500Y497250D01*
X1105500Y447250D01*
X1114250Y438500D01*
X1128000Y438331D01*
X1134861Y439006D01*
X1141459Y441008D01*
X1147539Y444258D01*
X1151888Y447827D01*
X1154180Y446601D01*
X1162180Y444174D01*
X1170500Y443355D01*
X1195500Y443355D01*
X1203820Y444174D01*
X1211820Y446601D01*
X1214112Y447827D01*
X1218461Y444258D01*
X1224541Y441008D01*
X1231139Y439006D01*
X1238000Y438331D01*
X1251750Y438500D01*
X1260500Y447250D01*
X1260500Y497250D01*
X1265500Y497250D01*
X1265500Y447250D01*
X1274250Y438500D01*
X1288000Y438331D01*
X1294861Y439006D01*
X1301459Y441008D01*
X1307539Y444258D01*
X1312869Y448631D01*
X1317242Y453961D01*
X1320492Y460041D01*
X1322494Y466639D01*
X1323169Y473500D01*
X1323000Y488500D01*
X1314250Y497250D01*
X1265500Y497250D01*
X1260500Y497250D01*
X1258500Y497250D01*
X1258500Y502250D01*
X1260500Y502250D01*
X1260500Y504250D01*
X1265500Y504250D01*
X1265500Y502250D01*
X1314250Y502250D01*
X1323000Y511000D01*
X1323140Y523400D01*
X1384054Y523400D01*
X1383758Y523039D01*
X1380508Y516959D01*
X1378506Y510361D01*
X1377831Y503500D01*
X1378000Y471000D01*
X1386750Y462250D01*
X1458000Y462250D01*
X1458000Y464250D01*
X1463000Y464250D01*
X1463000Y462250D01*
X1465000Y462250D01*
X1465000Y457250D01*
X1463000Y457250D01*
X1463000Y455250D01*
X1458000Y455250D01*
X1458000Y457250D01*
X1386750Y457250D01*
X1378000Y448500D01*
X1377831Y416000D01*
X1378506Y409139D01*
X1380508Y402541D01*
X1383758Y396461D01*
X1388132Y391131D01*
X1388292Y391000D01*
X1282700Y391000D01*
X1280749Y390808D01*
X1278873Y390239D01*
X1277144Y389315D01*
X1275629Y388071D01*
X1212129Y324571D01*
X1211136Y323361D01*
X1208000Y323669D01*
X1194250Y323500D01*
X1185500Y314750D01*
X1185500Y264750D01*
X1187500Y264750D01*
X1187500Y259750D01*
X1185500Y259750D01*
X1185500Y257750D01*
X1180500Y257750D01*
X1180500Y259750D01*
X1178500Y259750D01*
X1178500Y264750D01*
X1180500Y264750D01*
X1180500Y314750D01*
X1171750Y323500D01*
X1158000Y323669D01*
X1151139Y322994D01*
X1144541Y320992D01*
X1138461Y317742D01*
X1134112Y314173D01*
X1131820Y315399D01*
X1123820Y317826D01*
X1115500Y318645D01*
X1090500Y318645D01*
X1082180Y317826D01*
X1074180Y315399D01*
X1066808Y311458D01*
X1063000Y308333D01*
X1059192Y311458D01*
X1051820Y315399D01*
X1043820Y317826D01*
X1035500Y318645D01*
X1010500Y318645D01*
X1002180Y317826D01*
X994180Y315399D01*
X986808Y311458D01*
X980345Y306155D01*
X975042Y299692D01*
X971101Y292320D01*
X968674Y284320D01*
X967855Y276000D01*
X967855Y248500D01*
X968674Y240180D01*
X971101Y232180D01*
X975042Y224808D01*
X980345Y218345D01*
X980500Y218218D01*
X980500Y213200D01*
X810100Y213200D01*
X810100Y223481D01*
X814250Y223500D01*
X823000Y232250D01*
X823000Y299750D01*
X828000Y299750D01*
X828000Y232250D01*
X836750Y223500D01*
X873000Y223331D01*
X879861Y224006D01*
X886459Y226008D01*
X892539Y229258D01*
X897868Y233631D01*
X902242Y238961D01*
X905492Y245041D01*
X907494Y251639D01*
X908169Y258500D01*
X908000Y291000D01*
X899250Y299750D01*
X828000Y299750D01*
X823000Y299750D01*
X821000Y299750D01*
X821000Y304750D01*
X823000Y304750D01*
X823000Y306750D01*
X828000Y306750D01*
X828000Y304750D01*
X899250Y304750D01*
X908000Y313500D01*
X908169Y346000D01*
X907494Y352861D01*
X905492Y359459D01*
X902242Y365539D01*
X897868Y370868D01*
X895105Y373136D01*
X896071Y373929D01*
X897315Y375444D01*
X898239Y377173D01*
X898808Y379049D01*
X899000Y381000D01*
X899000Y417621D01*
X899185Y417968D01*
X902145Y427726D01*
X903145Y437875D01*
X903145Y473500D01*
X962831Y473500D01*
X963506Y466639D01*
X965508Y460041D01*
X968758Y453961D01*
X973131Y448631D01*
X978461Y444258D01*
X984541Y441008D01*
X991139Y439006D01*
X998000Y438331D01*
X1011750Y438500D01*
X1020500Y447250D01*
X1020500Y497250D01*
X1025500Y497250D01*
X1025500Y447250D01*
X1034250Y438500D01*
X1048000Y438331D01*
X1054861Y439006D01*
X1061459Y441008D01*
X1063000Y441831D01*
X1064541Y441008D01*
X1071139Y439006D01*
X1078000Y438331D01*
X1091750Y438500D01*
X1100500Y447250D01*
X1100500Y497250D01*
X1025500Y497250D01*
X1020500Y497250D01*
X971750Y497250D01*
X963000Y488500D01*
X962831Y473500D01*
X903145Y473500D01*
X903145Y481625D01*
X902145Y491774D01*
X899185Y501532D01*
X899000Y501879D01*
X899000Y523400D01*
X962860Y523400D01*
X963000Y511000D01*
G37*
X963000Y511000D02*
X971750Y502250D01*
X1020500Y502250D01*
X1020500Y504250D01*
X1025500Y504250D01*
X1025500Y502250D01*
X1100500Y502250D01*
X1100500Y504250D01*
X1105500Y504250D01*
X1105500Y502250D01*
X1107500Y502250D01*
X1107500Y497250D01*
X1105500Y497250D01*
X1105500Y447250D01*
X1114250Y438500D01*
X1128000Y438331D01*
X1134861Y439006D01*
X1141459Y441008D01*
X1147539Y444258D01*
X1151888Y447827D01*
X1154180Y446601D01*
X1162180Y444174D01*
X1170500Y443355D01*
X1195500Y443355D01*
X1203820Y444174D01*
X1211820Y446601D01*
X1214112Y447827D01*
X1218461Y444258D01*
X1224541Y441008D01*
X1231139Y439006D01*
X1238000Y438331D01*
X1251750Y438500D01*
X1260500Y447250D01*
X1260500Y497250D01*
X1265500Y497250D01*
X1265500Y447250D01*
X1274250Y438500D01*
X1288000Y438331D01*
X1294861Y439006D01*
X1301459Y441008D01*
X1307539Y444258D01*
X1312869Y448631D01*
X1317242Y453961D01*
X1320492Y460041D01*
X1322494Y466639D01*
X1323169Y473500D01*
X1323000Y488500D01*
X1314250Y497250D01*
X1265500Y497250D01*
X1260500Y497250D01*
X1258500Y497250D01*
X1258500Y502250D01*
X1260500Y502250D01*
X1260500Y504250D01*
X1265500Y504250D01*
X1265500Y502250D01*
X1314250Y502250D01*
X1323000Y511000D01*
X1323140Y523400D01*
X1384054Y523400D01*
X1383758Y523039D01*
X1380508Y516959D01*
X1378506Y510361D01*
X1377831Y503500D01*
X1378000Y471000D01*
X1386750Y462250D01*
X1458000Y462250D01*
X1458000Y464250D01*
X1463000Y464250D01*
X1463000Y462250D01*
X1465000Y462250D01*
X1465000Y457250D01*
X1463000Y457250D01*
X1463000Y455250D01*
X1458000Y455250D01*
X1458000Y457250D01*
X1386750Y457250D01*
X1378000Y448500D01*
X1377831Y416000D01*
X1378506Y409139D01*
X1380508Y402541D01*
X1383758Y396461D01*
X1388132Y391131D01*
X1388292Y391000D01*
X1282700Y391000D01*
X1280749Y390808D01*
X1278873Y390239D01*
X1277144Y389315D01*
X1275629Y388071D01*
X1212129Y324571D01*
X1211136Y323361D01*
X1208000Y323669D01*
X1194250Y323500D01*
X1185500Y314750D01*
X1185500Y264750D01*
X1187500Y264750D01*
X1187500Y259750D01*
X1185500Y259750D01*
X1185500Y257750D01*
X1180500Y257750D01*
X1180500Y259750D01*
X1178500Y259750D01*
X1178500Y264750D01*
X1180500Y264750D01*
X1180500Y314750D01*
X1171750Y323500D01*
X1158000Y323669D01*
X1151139Y322994D01*
X1144541Y320992D01*
X1138461Y317742D01*
X1134112Y314173D01*
X1131820Y315399D01*
X1123820Y317826D01*
X1115500Y318645D01*
X1090500Y318645D01*
X1082180Y317826D01*
X1074180Y315399D01*
X1066808Y311458D01*
X1063000Y308333D01*
X1059192Y311458D01*
X1051820Y315399D01*
X1043820Y317826D01*
X1035500Y318645D01*
X1010500Y318645D01*
X1002180Y317826D01*
X994180Y315399D01*
X986808Y311458D01*
X980345Y306155D01*
X975042Y299692D01*
X971101Y292320D01*
X968674Y284320D01*
X967855Y276000D01*
X967855Y248500D01*
X968674Y240180D01*
X971101Y232180D01*
X975042Y224808D01*
X980345Y218345D01*
X980500Y218218D01*
X980500Y213200D01*
X810100Y213200D01*
X810100Y223481D01*
X814250Y223500D01*
X823000Y232250D01*
X823000Y299750D01*
X828000Y299750D01*
X828000Y232250D01*
X836750Y223500D01*
X873000Y223331D01*
X879861Y224006D01*
X886459Y226008D01*
X892539Y229258D01*
X897868Y233631D01*
X902242Y238961D01*
X905492Y245041D01*
X907494Y251639D01*
X908169Y258500D01*
X908000Y291000D01*
X899250Y299750D01*
X828000Y299750D01*
X823000Y299750D01*
X821000Y299750D01*
X821000Y304750D01*
X823000Y304750D01*
X823000Y306750D01*
X828000Y306750D01*
X828000Y304750D01*
X899250Y304750D01*
X908000Y313500D01*
X908169Y346000D01*
X907494Y352861D01*
X905492Y359459D01*
X902242Y365539D01*
X897868Y370868D01*
X895105Y373136D01*
X896071Y373929D01*
X897315Y375444D01*
X898239Y377173D01*
X898808Y379049D01*
X899000Y381000D01*
X899000Y417621D01*
X899185Y417968D01*
X902145Y427726D01*
X903145Y437875D01*
X903145Y473500D01*
X962831Y473500D01*
X963506Y466639D01*
X965508Y460041D01*
X968758Y453961D01*
X973131Y448631D01*
X978461Y444258D01*
X984541Y441008D01*
X991139Y439006D01*
X998000Y438331D01*
X1011750Y438500D01*
X1020500Y447250D01*
X1020500Y497250D01*
X1025500Y497250D01*
X1025500Y447250D01*
X1034250Y438500D01*
X1048000Y438331D01*
X1054861Y439006D01*
X1061459Y441008D01*
X1063000Y441831D01*
X1064541Y441008D01*
X1071139Y439006D01*
X1078000Y438331D01*
X1091750Y438500D01*
X1100500Y447250D01*
X1100500Y497250D01*
X1025500Y497250D01*
X1020500Y497250D01*
X971750Y497250D01*
X963000Y488500D01*
X962831Y473500D01*
X903145Y473500D01*
X903145Y481625D01*
X902145Y491774D01*
X899185Y501532D01*
X899000Y501879D01*
X899000Y523400D01*
X962860Y523400D01*
X963000Y511000D01*
D23*
X596900Y-3746500D03*
X1117600Y-3746500D03*
X1689100Y-3302000D03*
X1117600Y-3302000D03*
X228600Y-2806700D03*
X431800Y-2286000D03*
X1130300Y-2286000D03*
X1651000Y-1397000D03*
X1651000Y-381000D03*
X546100Y-1866900D03*
X381000Y-1524000D03*
X622300Y-622300D03*
X431800Y-622300D03*
X241300Y-1270000D03*
X254000Y-622300D03*
X800100Y-622300D03*
X1409700Y-889000D03*
X1651000Y-2057400D03*
X546100Y317500D03*
X889000Y88900D03*
X2019300Y-4140200D03*
X1162050Y-127000D03*
X1536700Y177800D03*
X1727200Y-2667000D03*
X1130300Y-2070100D03*
X1333500Y127000D03*
X1079500Y-254000D03*
X888999Y-508000D03*
X711200Y88900D03*
X342900Y-101600D03*
X520700Y88900D03*
X1079500Y-762000D03*
X927100Y-1282700D03*
X1168400Y50800D03*
X1422400Y50800D03*
X2006600Y-2286000D03*
X2006600Y-2540000D03*
X2006600Y-2794000D03*
X2006600Y-3048000D03*
X2211000Y425000D03*
X86000Y425000D03*
X86000Y-3938000D03*
X2206000Y-3938000D03*
X0Y-254000D03*
X0Y-762000D03*
X0Y-508000D03*
X0Y-2540000D03*
X0Y-2286000D03*
X0Y-1778000D03*
X0Y-2032000D03*
X0Y-3556000D03*
X0Y-1524000D03*
X0Y-1016000D03*
X0Y-1270000D03*
X0Y-2794000D03*
X0Y-3302000D03*
X0Y-3048000D03*
X0Y0D03*
X2286000Y-3556000D03*
X2286000Y-3302000D03*
X2286000Y-3048000D03*
X2286000Y-2794000D03*
X2286000Y-2540000D03*
X2286000Y-2286000D03*
X2286000Y-2032000D03*
X2286000Y-1778000D03*
X2286000Y-1524000D03*
X2286000Y-1270000D03*
X2286000Y-1016000D03*
X2286000Y-762000D03*
X2286000Y-508000D03*
X2286000Y-254000D03*
X2286000Y0D03*
M02*
