%TF.GenerationSoftware,KiCad,Pcbnew,5.1.5+dfsg1-2~bpo10+1*%
%TF.CreationDate,Date%
%TF.ProjectId,CO2,434f322e-6b69-4636-9164-5f7063625858,rev?*%
%TF.SameCoordinates,Original*%
%TF.FileFunction,Soldermask,Bot*%
%TF.FilePolarity,Negative*%
%FSLAX45Y45*%
G04 Gerber Fmt 4.5, Leading zero omitted, Abs format (unit mm)*
G04 Created by KiCad*
%MOMM*%
%LPD*%
G04 APERTURE LIST*
%ADD10C,0.120000*%
%ADD11C,0.150000*%
G04 APERTURE END LIST*
D10*
X-63500Y-4254500D02*
G75*
G02X-190500Y-4127500I0J127000D01*
G01*
X2476500Y-4127500D02*
G75*
G02X2349500Y-4254500I-127000J0D01*
G01*
X-190500Y507511D02*
G75*
G02X-63500Y634511I127000J0D01*
G01*
X2349500Y634511D02*
G75*
G02X2476500Y507511I0J-127000D01*
G01*
X2476500Y-4127500D02*
X2476500Y508000D01*
X-63500Y-4254500D02*
X2349500Y-4254500D01*
X-190500Y508000D02*
X-190500Y-4127500D01*
X2349500Y634511D02*
X-63500Y634511D01*
D11*
G36*
X1173207Y-3847008D02*
G01*
X1177573Y-3848332D01*
X1181596Y-3850483D01*
X1185123Y-3853377D01*
X1188017Y-3856904D01*
X1190168Y-3860927D01*
X1191492Y-3865293D01*
X1192000Y-3870447D01*
X1192000Y-4202553D01*
X1191492Y-4207707D01*
X1190168Y-4212073D01*
X1188017Y-4216096D01*
X1185123Y-4219623D01*
X1181596Y-4222517D01*
X1177573Y-4224668D01*
X1173207Y-4225992D01*
X1168053Y-4226500D01*
X1025947Y-4226500D01*
X1020793Y-4225992D01*
X1016427Y-4224668D01*
X1012404Y-4222517D01*
X1008877Y-4219623D01*
X1005983Y-4216096D01*
X1003832Y-4212073D01*
X1002508Y-4207707D01*
X1002000Y-4202553D01*
X1002000Y-3870447D01*
X1002508Y-3865293D01*
X1003832Y-3860927D01*
X1005983Y-3856904D01*
X1008877Y-3853377D01*
X1012404Y-3850483D01*
X1016427Y-3848332D01*
X1020793Y-3847008D01*
X1025947Y-3846500D01*
X1168053Y-3846500D01*
X1173207Y-3847008D01*
G37*
G36*
X503207Y-3847008D02*
G01*
X507573Y-3848332D01*
X511596Y-3850483D01*
X515123Y-3853377D01*
X518017Y-3856904D01*
X520168Y-3860927D01*
X521492Y-3865293D01*
X522000Y-3870447D01*
X522000Y-4202553D01*
X521492Y-4207707D01*
X520168Y-4212073D01*
X518017Y-4216096D01*
X515123Y-4219623D01*
X511596Y-4222517D01*
X507573Y-4224668D01*
X503207Y-4225992D01*
X498053Y-4226500D01*
X355947Y-4226500D01*
X350793Y-4225992D01*
X346427Y-4224668D01*
X342404Y-4222517D01*
X338877Y-4219623D01*
X335983Y-4216096D01*
X333832Y-4212073D01*
X332508Y-4207707D01*
X332000Y-4202553D01*
X332000Y-3870447D01*
X332508Y-3865293D01*
X333832Y-3860927D01*
X335983Y-3856904D01*
X338877Y-3853377D01*
X342404Y-3850483D01*
X346427Y-3848332D01*
X350793Y-3847008D01*
X355947Y-3846500D01*
X498053Y-3846500D01*
X503207Y-3847008D01*
G37*
G36*
X2241116Y-3761459D02*
G01*
X2258504Y-3764917D01*
X2291262Y-3778486D01*
X2320743Y-3798185D01*
X2345815Y-3823257D01*
X2364912Y-3851837D01*
X2365514Y-3852738D01*
X2366772Y-3855775D01*
X2379083Y-3885496D01*
X2379083Y-3885496D01*
X2386000Y-3920271D01*
X2386000Y-3955729D01*
X2382541Y-3973116D01*
X2379083Y-3990504D01*
X2365514Y-4023262D01*
X2345815Y-4052743D01*
X2320743Y-4077815D01*
X2291262Y-4097514D01*
X2258504Y-4111083D01*
X2241116Y-4114541D01*
X2223729Y-4118000D01*
X2188271Y-4118000D01*
X2170884Y-4114541D01*
X2153496Y-4111083D01*
X2120738Y-4097514D01*
X2091257Y-4077815D01*
X2066185Y-4052743D01*
X2046486Y-4023262D01*
X2032917Y-3990504D01*
X2029459Y-3973116D01*
X2026000Y-3955729D01*
X2026000Y-3920271D01*
X2032917Y-3885496D01*
X2032917Y-3885496D01*
X2045228Y-3855775D01*
X2046486Y-3852738D01*
X2047088Y-3851837D01*
X2066185Y-3823257D01*
X2091257Y-3798185D01*
X2120738Y-3778486D01*
X2153496Y-3764917D01*
X2170884Y-3761459D01*
X2188271Y-3758000D01*
X2223729Y-3758000D01*
X2241116Y-3761459D01*
G37*
G36*
X121116Y-3761459D02*
G01*
X138504Y-3764917D01*
X171262Y-3778486D01*
X200743Y-3798185D01*
X225815Y-3823257D01*
X244912Y-3851837D01*
X245514Y-3852738D01*
X246772Y-3855775D01*
X259083Y-3885496D01*
X259083Y-3885496D01*
X266000Y-3920271D01*
X266000Y-3955729D01*
X262541Y-3973116D01*
X259083Y-3990504D01*
X245514Y-4023262D01*
X225815Y-4052743D01*
X200743Y-4077815D01*
X171262Y-4097514D01*
X138504Y-4111083D01*
X121116Y-4114541D01*
X103729Y-4118000D01*
X68271Y-4118000D01*
X50884Y-4114541D01*
X33496Y-4111083D01*
X738Y-4097514D01*
X-28743Y-4077815D01*
X-53815Y-4052743D01*
X-73514Y-4023262D01*
X-87083Y-3990504D01*
X-90541Y-3973116D01*
X-94000Y-3955729D01*
X-94000Y-3920271D01*
X-87083Y-3885496D01*
X-87083Y-3885496D01*
X-74772Y-3855775D01*
X-73514Y-3852738D01*
X-72912Y-3851837D01*
X-53815Y-3823257D01*
X-28743Y-3798185D01*
X738Y-3778486D01*
X33496Y-3764917D01*
X50884Y-3761459D01*
X68271Y-3758000D01*
X103729Y-3758000D01*
X121116Y-3761459D01*
G37*
G36*
X1424862Y-3933552D02*
G01*
X1429658Y-3935007D01*
X1434078Y-3937369D01*
X1437952Y-3940548D01*
X1441131Y-3944422D01*
X1443493Y-3948841D01*
X1444948Y-3953638D01*
X1445500Y-3959239D01*
X1445500Y-4041761D01*
X1444948Y-4047362D01*
X1443493Y-4052158D01*
X1441131Y-4056578D01*
X1437952Y-4060452D01*
X1434078Y-4063631D01*
X1429658Y-4065993D01*
X1424862Y-4067448D01*
X1419261Y-4068000D01*
X1344239Y-4068000D01*
X1338638Y-4067448D01*
X1333842Y-4065993D01*
X1329422Y-4063631D01*
X1325548Y-4060452D01*
X1322369Y-4056578D01*
X1320007Y-4052158D01*
X1318552Y-4047362D01*
X1318000Y-4041761D01*
X1318000Y-3959239D01*
X1318552Y-3953638D01*
X1320007Y-3948841D01*
X1322369Y-3944422D01*
X1325548Y-3940548D01*
X1329422Y-3937369D01*
X1333842Y-3935007D01*
X1338638Y-3933552D01*
X1344239Y-3933000D01*
X1419261Y-3933000D01*
X1424862Y-3933552D01*
G37*
G36*
X1805862Y-3933552D02*
G01*
X1810658Y-3935007D01*
X1815078Y-3937369D01*
X1818952Y-3940548D01*
X1822131Y-3944422D01*
X1824493Y-3948841D01*
X1825948Y-3953638D01*
X1826500Y-3959239D01*
X1826500Y-4041761D01*
X1825948Y-4047362D01*
X1824493Y-4052158D01*
X1822131Y-4056578D01*
X1818952Y-4060452D01*
X1815078Y-4063631D01*
X1810658Y-4065993D01*
X1805862Y-4067448D01*
X1800261Y-4068000D01*
X1725239Y-4068000D01*
X1719638Y-4067448D01*
X1714841Y-4065993D01*
X1710422Y-4063631D01*
X1706548Y-4060452D01*
X1703369Y-4056578D01*
X1701007Y-4052158D01*
X1699552Y-4047362D01*
X1699000Y-4041761D01*
X1699000Y-3959239D01*
X1699552Y-3953638D01*
X1701007Y-3948841D01*
X1703369Y-3944422D01*
X1706548Y-3940548D01*
X1710422Y-3937369D01*
X1714841Y-3935007D01*
X1719638Y-3933552D01*
X1725239Y-3933000D01*
X1800261Y-3933000D01*
X1805862Y-3933552D01*
G37*
G36*
X1963362Y-3933552D02*
G01*
X1968158Y-3935007D01*
X1972578Y-3937369D01*
X1976452Y-3940548D01*
X1979631Y-3944422D01*
X1981993Y-3948841D01*
X1983448Y-3953638D01*
X1984000Y-3959239D01*
X1984000Y-4041761D01*
X1983448Y-4047362D01*
X1981993Y-4052158D01*
X1979631Y-4056578D01*
X1976452Y-4060452D01*
X1972578Y-4063631D01*
X1968158Y-4065993D01*
X1963362Y-4067448D01*
X1957761Y-4068000D01*
X1882739Y-4068000D01*
X1877138Y-4067448D01*
X1872341Y-4065993D01*
X1867922Y-4063631D01*
X1864048Y-4060452D01*
X1860869Y-4056578D01*
X1858507Y-4052158D01*
X1857052Y-4047362D01*
X1856500Y-4041761D01*
X1856500Y-3959239D01*
X1857052Y-3953638D01*
X1858507Y-3948841D01*
X1860869Y-3944422D01*
X1864048Y-3940548D01*
X1867922Y-3937369D01*
X1872341Y-3935007D01*
X1877138Y-3933552D01*
X1882739Y-3933000D01*
X1957761Y-3933000D01*
X1963362Y-3933552D01*
G37*
G36*
X1582362Y-3933552D02*
G01*
X1587158Y-3935007D01*
X1591578Y-3937369D01*
X1595452Y-3940548D01*
X1598631Y-3944422D01*
X1600993Y-3948841D01*
X1602448Y-3953638D01*
X1603000Y-3959239D01*
X1603000Y-4041761D01*
X1602448Y-4047362D01*
X1600993Y-4052158D01*
X1598631Y-4056578D01*
X1595452Y-4060452D01*
X1591578Y-4063631D01*
X1587158Y-4065993D01*
X1582362Y-4067448D01*
X1576761Y-4068000D01*
X1501739Y-4068000D01*
X1496138Y-4067448D01*
X1491341Y-4065993D01*
X1486922Y-4063631D01*
X1483048Y-4060452D01*
X1479869Y-4056578D01*
X1477507Y-4052158D01*
X1476052Y-4047362D01*
X1475500Y-4041761D01*
X1475500Y-3959239D01*
X1476052Y-3953638D01*
X1477507Y-3948841D01*
X1479869Y-3944422D01*
X1483048Y-3940548D01*
X1486922Y-3937369D01*
X1491341Y-3935007D01*
X1496138Y-3933552D01*
X1501739Y-3933000D01*
X1576761Y-3933000D01*
X1582362Y-3933552D01*
G37*
G36*
X1834000Y-3703500D02*
G01*
X1688000Y-3703500D01*
X1688000Y-3598500D01*
X1834000Y-3598500D01*
X1834000Y-3703500D01*
G37*
G36*
X1614000Y-3703500D02*
G01*
X1468000Y-3703500D01*
X1468000Y-3408500D01*
X1614000Y-3408500D01*
X1614000Y-3703500D01*
G37*
G36*
X2015362Y-3571552D02*
G01*
X2020158Y-3573007D01*
X2024578Y-3575369D01*
X2028452Y-3578548D01*
X2031631Y-3582422D01*
X2033993Y-3586841D01*
X2035448Y-3591638D01*
X2036000Y-3597239D01*
X2036000Y-3672261D01*
X2035448Y-3677862D01*
X2033993Y-3682658D01*
X2031631Y-3687078D01*
X2028452Y-3690952D01*
X2024578Y-3694131D01*
X2020158Y-3696493D01*
X2015362Y-3697948D01*
X2009761Y-3698500D01*
X1927239Y-3698500D01*
X1921638Y-3697948D01*
X1916841Y-3696493D01*
X1912422Y-3694131D01*
X1908548Y-3690952D01*
X1905369Y-3687078D01*
X1903007Y-3682658D01*
X1901552Y-3677862D01*
X1901000Y-3672261D01*
X1901000Y-3597239D01*
X1901552Y-3591638D01*
X1903007Y-3586841D01*
X1905369Y-3582422D01*
X1908548Y-3578548D01*
X1912422Y-3575369D01*
X1916841Y-3573007D01*
X1921638Y-3571552D01*
X1927239Y-3571000D01*
X2009761Y-3571000D01*
X2015362Y-3571552D01*
G37*
G36*
X1380362Y-3571552D02*
G01*
X1385159Y-3573007D01*
X1389578Y-3575369D01*
X1393452Y-3578548D01*
X1396631Y-3582422D01*
X1398993Y-3586841D01*
X1400448Y-3591638D01*
X1401000Y-3597239D01*
X1401000Y-3672261D01*
X1400448Y-3677862D01*
X1398993Y-3682658D01*
X1396631Y-3687078D01*
X1393452Y-3690952D01*
X1389578Y-3694131D01*
X1385159Y-3696493D01*
X1380362Y-3697948D01*
X1374761Y-3698500D01*
X1292239Y-3698500D01*
X1286638Y-3697948D01*
X1281842Y-3696493D01*
X1277422Y-3694131D01*
X1273548Y-3690952D01*
X1270369Y-3687078D01*
X1268007Y-3682658D01*
X1266552Y-3677862D01*
X1266000Y-3672261D01*
X1266000Y-3597239D01*
X1266552Y-3591638D01*
X1268007Y-3586841D01*
X1270369Y-3582422D01*
X1273548Y-3578548D01*
X1277422Y-3575369D01*
X1281842Y-3573007D01*
X1286638Y-3571552D01*
X1292239Y-3571000D01*
X1374761Y-3571000D01*
X1380362Y-3571552D01*
G37*
G36*
X35469Y116927D02*
G01*
X57599Y107761D01*
X57599Y107760D01*
X77516Y94453D01*
X94453Y77516D01*
X107760Y57599D01*
X107761Y57599D01*
X116927Y35469D01*
X121600Y11977D01*
X121600Y-11977D01*
X116927Y-35469D01*
X107761Y-57599D01*
X107760Y-57599D01*
X94453Y-77516D01*
X77516Y-94453D01*
X57599Y-107760D01*
X57599Y-107761D01*
X57599Y-107761D01*
X39032Y-115452D01*
X36870Y-116607D01*
X34976Y-118161D01*
X33422Y-120055D01*
X32267Y-122216D01*
X31555Y-124561D01*
X31315Y-127000D01*
X31555Y-129439D01*
X32267Y-131784D01*
X33422Y-133945D01*
X34976Y-135839D01*
X36871Y-137393D01*
X39032Y-138548D01*
X57599Y-146239D01*
X57599Y-146240D01*
X77516Y-159547D01*
X94453Y-176484D01*
X107760Y-196401D01*
X107761Y-196401D01*
X116927Y-218531D01*
X121600Y-242023D01*
X121600Y-265977D01*
X116927Y-289469D01*
X107761Y-311599D01*
X107760Y-311599D01*
X94453Y-331516D01*
X77516Y-348453D01*
X57599Y-361760D01*
X57599Y-361761D01*
X57599Y-361761D01*
X39032Y-369452D01*
X36870Y-370607D01*
X34976Y-372161D01*
X33422Y-374055D01*
X32267Y-376216D01*
X31555Y-378561D01*
X31315Y-381000D01*
X31555Y-383439D01*
X32267Y-385783D01*
X33422Y-387945D01*
X34976Y-389839D01*
X36871Y-391393D01*
X39032Y-392548D01*
X57599Y-400239D01*
X57599Y-400239D01*
X77516Y-413547D01*
X94453Y-430484D01*
X107760Y-450401D01*
X107761Y-450401D01*
X116927Y-472531D01*
X121600Y-496023D01*
X121600Y-519977D01*
X116927Y-543469D01*
X107761Y-565599D01*
X107760Y-565599D01*
X94453Y-585516D01*
X77516Y-602453D01*
X57599Y-615761D01*
X57599Y-615761D01*
X57599Y-615761D01*
X39032Y-623452D01*
X36870Y-624607D01*
X34976Y-626161D01*
X33422Y-628056D01*
X32267Y-630217D01*
X31555Y-632561D01*
X31315Y-635000D01*
X31555Y-637439D01*
X32267Y-639784D01*
X33422Y-641945D01*
X34976Y-643839D01*
X36871Y-645393D01*
X39032Y-646548D01*
X57599Y-654239D01*
X57599Y-654240D01*
X77516Y-667547D01*
X94453Y-684485D01*
X107760Y-704401D01*
X107761Y-704401D01*
X116927Y-726531D01*
X121600Y-750023D01*
X121600Y-773977D01*
X116927Y-797469D01*
X107761Y-819599D01*
X107760Y-819599D01*
X94453Y-839515D01*
X77516Y-856453D01*
X57599Y-869760D01*
X57599Y-869761D01*
X57599Y-869761D01*
X39032Y-877452D01*
X36870Y-878607D01*
X34976Y-880161D01*
X33422Y-882055D01*
X32267Y-884216D01*
X31555Y-886561D01*
X31315Y-889000D01*
X31555Y-891439D01*
X32267Y-893783D01*
X33422Y-895945D01*
X34976Y-897839D01*
X36871Y-899393D01*
X39032Y-900548D01*
X57599Y-908239D01*
X57599Y-908239D01*
X77516Y-921547D01*
X94453Y-938484D01*
X107760Y-958401D01*
X107761Y-958401D01*
X116927Y-980531D01*
X121600Y-1004023D01*
X121600Y-1027977D01*
X116927Y-1051469D01*
X107761Y-1073599D01*
X107760Y-1073599D01*
X94453Y-1093516D01*
X77516Y-1110453D01*
X57599Y-1123761D01*
X57599Y-1123761D01*
X57599Y-1123761D01*
X39032Y-1131452D01*
X36870Y-1132607D01*
X34976Y-1134161D01*
X33422Y-1136056D01*
X32267Y-1138217D01*
X31555Y-1140561D01*
X31315Y-1143000D01*
X31555Y-1145439D01*
X32267Y-1147784D01*
X33422Y-1149945D01*
X34976Y-1151839D01*
X36871Y-1153393D01*
X39032Y-1154548D01*
X57599Y-1162239D01*
X57599Y-1162240D01*
X77516Y-1175547D01*
X94453Y-1192485D01*
X107760Y-1212401D01*
X107761Y-1212401D01*
X116927Y-1234531D01*
X121600Y-1258023D01*
X121600Y-1281977D01*
X116927Y-1305469D01*
X107761Y-1327599D01*
X107760Y-1327599D01*
X94453Y-1347516D01*
X77516Y-1364453D01*
X57599Y-1377761D01*
X57599Y-1377761D01*
X57599Y-1377761D01*
X39032Y-1385452D01*
X36870Y-1386607D01*
X34976Y-1388161D01*
X33422Y-1390056D01*
X32267Y-1392217D01*
X31555Y-1394561D01*
X31315Y-1397000D01*
X31555Y-1399439D01*
X32267Y-1401783D01*
X33422Y-1403945D01*
X34976Y-1405839D01*
X36871Y-1407393D01*
X39032Y-1408548D01*
X57599Y-1416239D01*
X57599Y-1416239D01*
X77516Y-1429547D01*
X94453Y-1446484D01*
X106122Y-1463948D01*
X107761Y-1466401D01*
X116927Y-1488531D01*
X121600Y-1512023D01*
X121600Y-1535977D01*
X116927Y-1559469D01*
X108301Y-1580294D01*
X107760Y-1581599D01*
X94453Y-1601515D01*
X77516Y-1618453D01*
X57599Y-1631760D01*
X57599Y-1631761D01*
X57599Y-1631761D01*
X39032Y-1639452D01*
X36870Y-1640607D01*
X34976Y-1642161D01*
X33422Y-1644055D01*
X32267Y-1646216D01*
X31555Y-1648561D01*
X31315Y-1651000D01*
X31555Y-1653439D01*
X32267Y-1655783D01*
X33422Y-1657945D01*
X34976Y-1659839D01*
X36871Y-1661393D01*
X39032Y-1662548D01*
X57599Y-1670239D01*
X57599Y-1670239D01*
X77516Y-1683547D01*
X94453Y-1700484D01*
X101523Y-1711066D01*
X107761Y-1720401D01*
X116927Y-1742531D01*
X121600Y-1766023D01*
X121600Y-1789977D01*
X116927Y-1813469D01*
X111018Y-1827736D01*
X107760Y-1835599D01*
X94453Y-1855515D01*
X77516Y-1872453D01*
X57599Y-1885760D01*
X57599Y-1885761D01*
X57599Y-1885761D01*
X39032Y-1893452D01*
X36870Y-1894607D01*
X34976Y-1896161D01*
X33422Y-1898055D01*
X32267Y-1900216D01*
X31555Y-1902561D01*
X31315Y-1905000D01*
X31555Y-1907439D01*
X32267Y-1909783D01*
X33422Y-1911945D01*
X34976Y-1913839D01*
X36871Y-1915393D01*
X39032Y-1916548D01*
X57599Y-1924239D01*
X57599Y-1924239D01*
X77516Y-1937547D01*
X94453Y-1954484D01*
X101523Y-1965066D01*
X107761Y-1974401D01*
X116927Y-1996531D01*
X121600Y-2020023D01*
X121600Y-2043977D01*
X116927Y-2067469D01*
X111018Y-2081736D01*
X107760Y-2089599D01*
X94453Y-2109516D01*
X77516Y-2126453D01*
X57599Y-2139761D01*
X57599Y-2139761D01*
X57599Y-2139761D01*
X39032Y-2147452D01*
X36870Y-2148607D01*
X34976Y-2150161D01*
X33422Y-2152056D01*
X32267Y-2154217D01*
X31555Y-2156561D01*
X31315Y-2159000D01*
X31555Y-2161439D01*
X32267Y-2163784D01*
X33422Y-2165945D01*
X34976Y-2167839D01*
X36871Y-2169393D01*
X39032Y-2170548D01*
X57599Y-2178239D01*
X57599Y-2178240D01*
X77516Y-2191547D01*
X94453Y-2208485D01*
X101523Y-2219067D01*
X107761Y-2228401D01*
X116927Y-2250531D01*
X121600Y-2274023D01*
X121600Y-2297977D01*
X116927Y-2321469D01*
X111018Y-2335736D01*
X107760Y-2343599D01*
X94453Y-2363516D01*
X77516Y-2380453D01*
X57599Y-2393761D01*
X57599Y-2393761D01*
X57599Y-2393761D01*
X39032Y-2401452D01*
X36870Y-2402607D01*
X34976Y-2404161D01*
X33422Y-2406056D01*
X32267Y-2408217D01*
X31555Y-2410561D01*
X31315Y-2413000D01*
X31555Y-2415439D01*
X32267Y-2417784D01*
X33422Y-2419945D01*
X34976Y-2421839D01*
X36871Y-2423393D01*
X39032Y-2424548D01*
X57021Y-2432000D01*
X57599Y-2432240D01*
X77516Y-2445547D01*
X94453Y-2462485D01*
X101523Y-2473067D01*
X107761Y-2482401D01*
X116927Y-2504531D01*
X121600Y-2528023D01*
X121600Y-2551977D01*
X116927Y-2575469D01*
X111018Y-2589736D01*
X107760Y-2597599D01*
X94453Y-2617516D01*
X77516Y-2634453D01*
X57599Y-2647761D01*
X57599Y-2647761D01*
X57599Y-2647761D01*
X39032Y-2655452D01*
X36870Y-2656607D01*
X34976Y-2658161D01*
X33422Y-2660056D01*
X32267Y-2662217D01*
X31555Y-2664561D01*
X31315Y-2667000D01*
X31555Y-2669439D01*
X32267Y-2671784D01*
X33422Y-2673945D01*
X34976Y-2675839D01*
X36871Y-2677393D01*
X39032Y-2678548D01*
X57599Y-2686239D01*
X57599Y-2686240D01*
X77516Y-2699547D01*
X94453Y-2716485D01*
X107456Y-2735945D01*
X107761Y-2736401D01*
X116927Y-2758531D01*
X121600Y-2782023D01*
X121600Y-2805977D01*
X116927Y-2829469D01*
X109927Y-2846369D01*
X107760Y-2851599D01*
X94453Y-2871515D01*
X77516Y-2888453D01*
X57599Y-2901760D01*
X57599Y-2901761D01*
X57599Y-2901761D01*
X39032Y-2909452D01*
X36870Y-2910607D01*
X34976Y-2912161D01*
X33422Y-2914055D01*
X32267Y-2916216D01*
X31555Y-2918561D01*
X31315Y-2921000D01*
X31555Y-2923439D01*
X32267Y-2925783D01*
X33422Y-2927945D01*
X34976Y-2929839D01*
X36871Y-2931393D01*
X39032Y-2932548D01*
X57599Y-2940239D01*
X57599Y-2940239D01*
X77516Y-2953547D01*
X94453Y-2970484D01*
X107760Y-2990401D01*
X107761Y-2990401D01*
X116927Y-3012531D01*
X121600Y-3036023D01*
X121600Y-3059977D01*
X116927Y-3083469D01*
X112099Y-3095125D01*
X107760Y-3105599D01*
X94453Y-3125515D01*
X77516Y-3142453D01*
X57599Y-3155760D01*
X57599Y-3155761D01*
X57599Y-3155761D01*
X39032Y-3163452D01*
X36870Y-3164607D01*
X34976Y-3166161D01*
X33422Y-3168055D01*
X32267Y-3170216D01*
X31555Y-3172561D01*
X31315Y-3175000D01*
X31555Y-3177439D01*
X32267Y-3179783D01*
X33422Y-3181945D01*
X34976Y-3183839D01*
X36871Y-3185393D01*
X39032Y-3186548D01*
X57599Y-3194239D01*
X57599Y-3194239D01*
X77516Y-3207547D01*
X94453Y-3224484D01*
X107760Y-3244401D01*
X107761Y-3244401D01*
X116927Y-3266531D01*
X121600Y-3290023D01*
X121600Y-3313977D01*
X116927Y-3337469D01*
X107761Y-3359599D01*
X107760Y-3359599D01*
X94453Y-3379515D01*
X77516Y-3396453D01*
X57599Y-3409760D01*
X57599Y-3409761D01*
X57599Y-3409761D01*
X39032Y-3417452D01*
X36870Y-3418607D01*
X34976Y-3420161D01*
X33422Y-3422055D01*
X32267Y-3424216D01*
X31555Y-3426561D01*
X31315Y-3429000D01*
X31555Y-3431439D01*
X32267Y-3433783D01*
X33422Y-3435945D01*
X34976Y-3437839D01*
X36871Y-3439393D01*
X39032Y-3440548D01*
X57599Y-3448239D01*
X57599Y-3448239D01*
X77516Y-3461547D01*
X94453Y-3478484D01*
X107760Y-3498401D01*
X107761Y-3498401D01*
X116927Y-3520531D01*
X121600Y-3544023D01*
X121600Y-3567977D01*
X116927Y-3591469D01*
X109873Y-3608500D01*
X107760Y-3613599D01*
X94453Y-3633515D01*
X77516Y-3650453D01*
X57599Y-3663760D01*
X57599Y-3663761D01*
X57599Y-3663761D01*
X35469Y-3672927D01*
X11977Y-3677600D01*
X-11977Y-3677600D01*
X-35469Y-3672927D01*
X-57599Y-3663761D01*
X-57599Y-3663761D01*
X-57599Y-3663760D01*
X-77516Y-3650453D01*
X-94453Y-3633515D01*
X-107760Y-3613599D01*
X-109873Y-3608500D01*
X-116927Y-3591469D01*
X-121600Y-3567977D01*
X-121600Y-3544023D01*
X-116927Y-3520531D01*
X-107761Y-3498401D01*
X-107760Y-3498401D01*
X-94453Y-3478484D01*
X-77516Y-3461547D01*
X-57599Y-3448239D01*
X-57599Y-3448239D01*
X-39032Y-3440548D01*
X-36870Y-3439393D01*
X-34976Y-3437839D01*
X-33422Y-3435944D01*
X-32267Y-3433783D01*
X-31555Y-3431439D01*
X-31315Y-3429000D01*
X-31555Y-3426561D01*
X-32267Y-3424216D01*
X-33422Y-3422055D01*
X-34976Y-3420161D01*
X-36871Y-3418607D01*
X-39032Y-3417452D01*
X-57599Y-3409761D01*
X-57599Y-3409761D01*
X-57599Y-3409760D01*
X-77516Y-3396453D01*
X-94453Y-3379515D01*
X-107760Y-3359599D01*
X-107761Y-3359599D01*
X-116927Y-3337469D01*
X-121600Y-3313977D01*
X-121600Y-3290023D01*
X-116927Y-3266531D01*
X-107761Y-3244401D01*
X-107760Y-3244401D01*
X-94453Y-3224484D01*
X-77516Y-3207547D01*
X-57599Y-3194239D01*
X-57599Y-3194239D01*
X-39032Y-3186548D01*
X-36870Y-3185393D01*
X-34976Y-3183839D01*
X-33422Y-3181944D01*
X-32267Y-3179783D01*
X-31555Y-3177439D01*
X-31315Y-3175000D01*
X-31555Y-3172561D01*
X-32267Y-3170216D01*
X-33422Y-3168055D01*
X-34976Y-3166161D01*
X-36871Y-3164607D01*
X-39032Y-3163452D01*
X-57599Y-3155761D01*
X-57599Y-3155761D01*
X-57599Y-3155760D01*
X-77516Y-3142453D01*
X-94453Y-3125515D01*
X-107760Y-3105599D01*
X-112099Y-3095125D01*
X-116927Y-3083469D01*
X-121600Y-3059977D01*
X-121600Y-3036023D01*
X-116927Y-3012531D01*
X-107761Y-2990401D01*
X-107760Y-2990401D01*
X-94453Y-2970484D01*
X-77516Y-2953547D01*
X-57599Y-2940239D01*
X-57599Y-2940239D01*
X-39032Y-2932548D01*
X-36870Y-2931393D01*
X-34976Y-2929839D01*
X-33422Y-2927944D01*
X-32267Y-2925783D01*
X-31555Y-2923439D01*
X-31315Y-2921000D01*
X-31555Y-2918561D01*
X-32267Y-2916216D01*
X-33422Y-2914055D01*
X-34976Y-2912161D01*
X-36871Y-2910607D01*
X-39032Y-2909452D01*
X-57599Y-2901761D01*
X-57599Y-2901761D01*
X-57599Y-2901760D01*
X-77516Y-2888453D01*
X-94453Y-2871515D01*
X-107760Y-2851599D01*
X-109927Y-2846369D01*
X-116927Y-2829469D01*
X-121600Y-2805977D01*
X-121600Y-2782023D01*
X-116927Y-2758531D01*
X-107761Y-2736401D01*
X-107456Y-2735945D01*
X-94453Y-2716485D01*
X-77516Y-2699547D01*
X-57599Y-2686240D01*
X-57599Y-2686239D01*
X-39032Y-2678548D01*
X-36870Y-2677393D01*
X-34976Y-2675839D01*
X-33422Y-2673945D01*
X-32267Y-2671784D01*
X-31555Y-2669439D01*
X-31315Y-2667000D01*
X-31555Y-2664561D01*
X-32267Y-2662217D01*
X-33422Y-2660055D01*
X-34976Y-2658161D01*
X-36871Y-2656607D01*
X-39032Y-2655452D01*
X-57599Y-2647761D01*
X-57599Y-2647761D01*
X-57599Y-2647761D01*
X-77516Y-2634453D01*
X-94453Y-2617516D01*
X-107760Y-2597599D01*
X-111018Y-2589736D01*
X-116927Y-2575469D01*
X-121600Y-2551977D01*
X-121600Y-2528023D01*
X-116927Y-2504531D01*
X-107761Y-2482401D01*
X-101523Y-2473067D01*
X-94453Y-2462485D01*
X-77516Y-2445547D01*
X-57599Y-2432240D01*
X-57021Y-2432000D01*
X-39032Y-2424548D01*
X-36870Y-2423393D01*
X-34976Y-2421839D01*
X-33422Y-2419945D01*
X-32267Y-2417784D01*
X-31555Y-2415439D01*
X-31315Y-2413000D01*
X-31555Y-2410561D01*
X-32267Y-2408217D01*
X-33422Y-2406055D01*
X-34976Y-2404161D01*
X-36871Y-2402607D01*
X-39032Y-2401452D01*
X-57599Y-2393761D01*
X-57599Y-2393761D01*
X-57599Y-2393761D01*
X-77516Y-2380453D01*
X-94453Y-2363516D01*
X-107760Y-2343599D01*
X-111018Y-2335736D01*
X-116927Y-2321469D01*
X-121600Y-2297977D01*
X-121600Y-2274023D01*
X-116927Y-2250531D01*
X-107761Y-2228401D01*
X-101523Y-2219067D01*
X-94453Y-2208485D01*
X-77516Y-2191547D01*
X-57599Y-2178240D01*
X-57599Y-2178239D01*
X-39032Y-2170548D01*
X-36870Y-2169393D01*
X-34976Y-2167839D01*
X-33422Y-2165945D01*
X-32267Y-2163784D01*
X-31555Y-2161439D01*
X-31315Y-2159000D01*
X-31555Y-2156561D01*
X-32267Y-2154217D01*
X-33422Y-2152055D01*
X-34976Y-2150161D01*
X-36871Y-2148607D01*
X-39032Y-2147452D01*
X-57599Y-2139761D01*
X-57599Y-2139761D01*
X-57599Y-2139761D01*
X-77516Y-2126453D01*
X-94453Y-2109516D01*
X-107760Y-2089599D01*
X-111018Y-2081736D01*
X-116927Y-2067469D01*
X-121600Y-2043977D01*
X-121600Y-2020023D01*
X-116927Y-1996531D01*
X-107761Y-1974401D01*
X-101523Y-1965066D01*
X-94453Y-1954484D01*
X-77516Y-1937547D01*
X-57599Y-1924239D01*
X-57599Y-1924239D01*
X-39032Y-1916548D01*
X-36870Y-1915393D01*
X-34976Y-1913839D01*
X-33422Y-1911944D01*
X-32267Y-1909783D01*
X-31555Y-1907439D01*
X-31315Y-1905000D01*
X-31555Y-1902561D01*
X-32267Y-1900216D01*
X-33422Y-1898055D01*
X-34976Y-1896161D01*
X-36871Y-1894607D01*
X-39032Y-1893452D01*
X-57599Y-1885761D01*
X-57599Y-1885761D01*
X-57599Y-1885760D01*
X-77516Y-1872453D01*
X-94453Y-1855515D01*
X-107760Y-1835599D01*
X-111018Y-1827736D01*
X-116927Y-1813469D01*
X-121600Y-1789977D01*
X-121600Y-1766023D01*
X-116927Y-1742531D01*
X-107761Y-1720401D01*
X-101523Y-1711066D01*
X-94453Y-1700484D01*
X-77516Y-1683547D01*
X-57599Y-1670239D01*
X-57599Y-1670239D01*
X-39032Y-1662548D01*
X-36870Y-1661393D01*
X-34976Y-1659839D01*
X-33422Y-1657944D01*
X-32267Y-1655783D01*
X-31555Y-1653439D01*
X-31315Y-1651000D01*
X-31555Y-1648561D01*
X-32267Y-1646216D01*
X-33422Y-1644055D01*
X-34976Y-1642161D01*
X-36871Y-1640607D01*
X-39032Y-1639452D01*
X-57599Y-1631761D01*
X-57599Y-1631761D01*
X-57599Y-1631760D01*
X-77516Y-1618453D01*
X-94453Y-1601515D01*
X-107760Y-1581599D01*
X-108301Y-1580294D01*
X-116927Y-1559469D01*
X-121600Y-1535977D01*
X-121600Y-1512023D01*
X-116927Y-1488531D01*
X-107761Y-1466401D01*
X-106122Y-1463948D01*
X-94453Y-1446484D01*
X-77516Y-1429547D01*
X-57599Y-1416239D01*
X-57599Y-1416239D01*
X-39032Y-1408548D01*
X-36870Y-1407393D01*
X-34976Y-1405839D01*
X-33422Y-1403944D01*
X-32267Y-1401783D01*
X-31555Y-1399439D01*
X-31315Y-1397000D01*
X-31555Y-1394561D01*
X-32267Y-1392217D01*
X-33422Y-1390055D01*
X-34976Y-1388161D01*
X-36871Y-1386607D01*
X-39032Y-1385452D01*
X-57599Y-1377761D01*
X-57599Y-1377761D01*
X-57599Y-1377761D01*
X-77516Y-1364453D01*
X-94453Y-1347516D01*
X-107760Y-1327599D01*
X-107761Y-1327599D01*
X-116927Y-1305469D01*
X-121600Y-1281977D01*
X-121600Y-1258023D01*
X-116927Y-1234531D01*
X-107761Y-1212401D01*
X-107760Y-1212401D01*
X-94453Y-1192485D01*
X-77516Y-1175547D01*
X-57599Y-1162240D01*
X-57599Y-1162239D01*
X-39032Y-1154548D01*
X-36870Y-1153393D01*
X-34976Y-1151839D01*
X-33422Y-1149945D01*
X-32267Y-1147784D01*
X-31555Y-1145439D01*
X-31315Y-1143000D01*
X-31555Y-1140561D01*
X-32267Y-1138217D01*
X-33422Y-1136055D01*
X-34976Y-1134161D01*
X-36871Y-1132607D01*
X-39032Y-1131452D01*
X-57599Y-1123761D01*
X-57599Y-1123761D01*
X-57599Y-1123761D01*
X-77516Y-1110453D01*
X-94453Y-1093516D01*
X-107760Y-1073599D01*
X-107761Y-1073599D01*
X-116927Y-1051469D01*
X-121600Y-1027977D01*
X-121600Y-1004023D01*
X-116927Y-980531D01*
X-107761Y-958401D01*
X-107760Y-958401D01*
X-94453Y-938484D01*
X-77516Y-921547D01*
X-57599Y-908239D01*
X-57599Y-908239D01*
X-39032Y-900548D01*
X-36870Y-899393D01*
X-34976Y-897839D01*
X-33422Y-895944D01*
X-32267Y-893783D01*
X-31555Y-891439D01*
X-31315Y-889000D01*
X-31555Y-886561D01*
X-32267Y-884216D01*
X-33422Y-882055D01*
X-34976Y-880161D01*
X-36871Y-878607D01*
X-39032Y-877452D01*
X-57599Y-869761D01*
X-57599Y-869761D01*
X-57599Y-869760D01*
X-77516Y-856453D01*
X-94453Y-839515D01*
X-107760Y-819599D01*
X-107761Y-819599D01*
X-116927Y-797469D01*
X-121600Y-773977D01*
X-121600Y-750023D01*
X-116927Y-726531D01*
X-107761Y-704401D01*
X-107760Y-704401D01*
X-94453Y-684485D01*
X-77516Y-667547D01*
X-57599Y-654240D01*
X-57599Y-654239D01*
X-39032Y-646548D01*
X-36870Y-645393D01*
X-34976Y-643839D01*
X-33422Y-641945D01*
X-32267Y-639784D01*
X-31555Y-637439D01*
X-31315Y-635000D01*
X-31555Y-632561D01*
X-32267Y-630217D01*
X-33422Y-628055D01*
X-34976Y-626161D01*
X-36871Y-624607D01*
X-39032Y-623452D01*
X-57599Y-615761D01*
X-57599Y-615761D01*
X-57599Y-615761D01*
X-77516Y-602453D01*
X-94453Y-585516D01*
X-107760Y-565599D01*
X-107761Y-565599D01*
X-116927Y-543469D01*
X-121600Y-519977D01*
X-121600Y-496023D01*
X-116927Y-472531D01*
X-107761Y-450401D01*
X-107760Y-450401D01*
X-94453Y-430484D01*
X-77516Y-413547D01*
X-57599Y-400239D01*
X-57599Y-400239D01*
X-39032Y-392548D01*
X-36870Y-391393D01*
X-34976Y-389839D01*
X-33422Y-387944D01*
X-32267Y-385783D01*
X-31555Y-383439D01*
X-31315Y-381000D01*
X-31555Y-378561D01*
X-32267Y-376216D01*
X-33422Y-374055D01*
X-34976Y-372161D01*
X-36871Y-370607D01*
X-39032Y-369452D01*
X-57599Y-361761D01*
X-57599Y-361761D01*
X-57599Y-361760D01*
X-77516Y-348453D01*
X-94453Y-331516D01*
X-107760Y-311599D01*
X-107761Y-311599D01*
X-116927Y-289469D01*
X-121600Y-265977D01*
X-121600Y-242023D01*
X-116927Y-218531D01*
X-107761Y-196401D01*
X-107760Y-196401D01*
X-94453Y-176484D01*
X-77516Y-159547D01*
X-57599Y-146240D01*
X-57599Y-146239D01*
X-39032Y-138548D01*
X-36870Y-137393D01*
X-34976Y-135839D01*
X-33422Y-133945D01*
X-32267Y-131784D01*
X-31555Y-129439D01*
X-31315Y-127000D01*
X-31555Y-124561D01*
X-32267Y-122216D01*
X-33422Y-120055D01*
X-34976Y-118161D01*
X-36871Y-116607D01*
X-39032Y-115452D01*
X-57599Y-107761D01*
X-57599Y-107761D01*
X-57599Y-107760D01*
X-77516Y-94453D01*
X-94453Y-77516D01*
X-107760Y-57599D01*
X-107761Y-57599D01*
X-116927Y-35469D01*
X-121600Y-11977D01*
X-121600Y11977D01*
X-116927Y35469D01*
X-107761Y57599D01*
X-107760Y57599D01*
X-94453Y77516D01*
X-77516Y94453D01*
X-57599Y107760D01*
X-57599Y107761D01*
X-35469Y116927D01*
X-11977Y121600D01*
X11977Y121600D01*
X35469Y116927D01*
G37*
G36*
X2407600Y-121600D02*
G01*
X2346956Y-121600D01*
X2344517Y-121840D01*
X2342172Y-122551D01*
X2340011Y-123707D01*
X2338117Y-125261D01*
X2336562Y-127155D01*
X2335407Y-129316D01*
X2334696Y-131661D01*
X2334456Y-134100D01*
X2334696Y-136539D01*
X2335407Y-138883D01*
X2336562Y-141045D01*
X2338117Y-142939D01*
X2340011Y-144493D01*
X2342172Y-145648D01*
X2343599Y-146239D01*
X2343599Y-146240D01*
X2363516Y-159547D01*
X2380453Y-176484D01*
X2393761Y-196401D01*
X2393761Y-196401D01*
X2402927Y-218531D01*
X2407600Y-242023D01*
X2407600Y-265977D01*
X2402927Y-289469D01*
X2393761Y-311599D01*
X2393761Y-311599D01*
X2380453Y-331516D01*
X2363516Y-348453D01*
X2343599Y-361760D01*
X2343599Y-361761D01*
X2343599Y-361761D01*
X2325032Y-369452D01*
X2322870Y-370607D01*
X2320976Y-372161D01*
X2319422Y-374055D01*
X2318267Y-376216D01*
X2317555Y-378561D01*
X2317315Y-381000D01*
X2317555Y-383439D01*
X2318267Y-385783D01*
X2319422Y-387945D01*
X2320976Y-389839D01*
X2322871Y-391393D01*
X2325032Y-392548D01*
X2343599Y-400239D01*
X2343599Y-400239D01*
X2363516Y-413547D01*
X2380453Y-430484D01*
X2393761Y-450401D01*
X2393761Y-450401D01*
X2402927Y-472531D01*
X2407600Y-496023D01*
X2407600Y-519977D01*
X2402927Y-543469D01*
X2393761Y-565599D01*
X2393761Y-565599D01*
X2380453Y-585516D01*
X2363516Y-602453D01*
X2343599Y-615761D01*
X2343599Y-615761D01*
X2343599Y-615761D01*
X2325032Y-623452D01*
X2322870Y-624607D01*
X2320976Y-626161D01*
X2319422Y-628056D01*
X2318267Y-630217D01*
X2317555Y-632561D01*
X2317315Y-635000D01*
X2317555Y-637439D01*
X2318267Y-639784D01*
X2319422Y-641945D01*
X2320976Y-643839D01*
X2322871Y-645393D01*
X2325032Y-646548D01*
X2343599Y-654239D01*
X2343599Y-654240D01*
X2363516Y-667547D01*
X2380453Y-684485D01*
X2393761Y-704401D01*
X2393761Y-704401D01*
X2402927Y-726531D01*
X2407600Y-750023D01*
X2407600Y-773977D01*
X2402927Y-797469D01*
X2393761Y-819599D01*
X2393761Y-819599D01*
X2380453Y-839515D01*
X2363516Y-856453D01*
X2343599Y-869760D01*
X2343599Y-869761D01*
X2343599Y-869761D01*
X2325032Y-877452D01*
X2322870Y-878607D01*
X2320976Y-880161D01*
X2319422Y-882055D01*
X2318267Y-884216D01*
X2317555Y-886561D01*
X2317315Y-889000D01*
X2317555Y-891439D01*
X2318267Y-893783D01*
X2319422Y-895945D01*
X2320976Y-897839D01*
X2322871Y-899393D01*
X2325032Y-900548D01*
X2343599Y-908239D01*
X2343599Y-908239D01*
X2363516Y-921547D01*
X2380453Y-938484D01*
X2393761Y-958401D01*
X2393761Y-958401D01*
X2402927Y-980531D01*
X2407600Y-1004023D01*
X2407600Y-1027977D01*
X2402927Y-1051469D01*
X2393761Y-1073599D01*
X2393761Y-1073599D01*
X2380453Y-1093516D01*
X2363516Y-1110453D01*
X2343599Y-1123761D01*
X2343599Y-1123761D01*
X2343599Y-1123761D01*
X2325032Y-1131452D01*
X2322870Y-1132607D01*
X2320976Y-1134161D01*
X2319422Y-1136056D01*
X2318267Y-1138217D01*
X2317555Y-1140561D01*
X2317315Y-1143000D01*
X2317555Y-1145439D01*
X2318267Y-1147784D01*
X2319422Y-1149945D01*
X2320976Y-1151839D01*
X2322871Y-1153393D01*
X2325032Y-1154548D01*
X2343599Y-1162239D01*
X2343599Y-1162240D01*
X2363516Y-1175547D01*
X2380453Y-1192485D01*
X2393761Y-1212401D01*
X2393761Y-1212401D01*
X2402927Y-1234531D01*
X2407600Y-1258023D01*
X2407600Y-1281977D01*
X2402927Y-1305469D01*
X2393761Y-1327599D01*
X2393761Y-1327599D01*
X2380453Y-1347516D01*
X2363516Y-1364453D01*
X2343599Y-1377761D01*
X2343599Y-1377761D01*
X2343599Y-1377761D01*
X2325032Y-1385452D01*
X2322870Y-1386607D01*
X2320976Y-1388161D01*
X2319422Y-1390056D01*
X2318267Y-1392217D01*
X2317555Y-1394561D01*
X2317315Y-1397000D01*
X2317555Y-1399439D01*
X2318267Y-1401783D01*
X2319422Y-1403945D01*
X2320976Y-1405839D01*
X2322871Y-1407393D01*
X2325032Y-1408548D01*
X2343599Y-1416239D01*
X2343599Y-1416239D01*
X2363516Y-1429547D01*
X2380453Y-1446484D01*
X2392122Y-1463948D01*
X2393761Y-1466401D01*
X2402927Y-1488531D01*
X2407600Y-1512023D01*
X2407600Y-1535977D01*
X2402927Y-1559469D01*
X2394301Y-1580294D01*
X2393761Y-1581599D01*
X2380453Y-1601515D01*
X2363516Y-1618453D01*
X2343599Y-1631760D01*
X2343599Y-1631761D01*
X2343599Y-1631761D01*
X2325032Y-1639452D01*
X2322870Y-1640607D01*
X2320976Y-1642161D01*
X2319422Y-1644055D01*
X2318267Y-1646216D01*
X2317555Y-1648561D01*
X2317315Y-1651000D01*
X2317555Y-1653439D01*
X2318267Y-1655783D01*
X2319422Y-1657945D01*
X2320976Y-1659839D01*
X2322871Y-1661393D01*
X2325032Y-1662548D01*
X2343599Y-1670239D01*
X2343599Y-1670239D01*
X2363516Y-1683547D01*
X2380453Y-1700484D01*
X2387524Y-1711066D01*
X2393761Y-1720401D01*
X2402927Y-1742531D01*
X2407600Y-1766023D01*
X2407600Y-1789977D01*
X2402927Y-1813469D01*
X2397018Y-1827736D01*
X2393761Y-1835599D01*
X2380453Y-1855515D01*
X2363516Y-1872453D01*
X2343599Y-1885760D01*
X2343599Y-1885761D01*
X2343599Y-1885761D01*
X2325032Y-1893452D01*
X2322870Y-1894607D01*
X2320976Y-1896161D01*
X2319422Y-1898055D01*
X2318267Y-1900216D01*
X2317555Y-1902561D01*
X2317315Y-1905000D01*
X2317555Y-1907439D01*
X2318267Y-1909783D01*
X2319422Y-1911945D01*
X2320976Y-1913839D01*
X2322871Y-1915393D01*
X2325032Y-1916548D01*
X2343599Y-1924239D01*
X2343599Y-1924239D01*
X2363516Y-1937547D01*
X2380453Y-1954484D01*
X2387524Y-1965066D01*
X2393761Y-1974401D01*
X2402927Y-1996531D01*
X2407600Y-2020023D01*
X2407600Y-2043977D01*
X2402927Y-2067469D01*
X2397018Y-2081736D01*
X2393761Y-2089599D01*
X2380453Y-2109516D01*
X2363516Y-2126453D01*
X2343599Y-2139761D01*
X2343599Y-2139761D01*
X2343599Y-2139761D01*
X2325032Y-2147452D01*
X2322870Y-2148607D01*
X2320976Y-2150161D01*
X2319422Y-2152056D01*
X2318267Y-2154217D01*
X2317555Y-2156561D01*
X2317315Y-2159000D01*
X2317555Y-2161439D01*
X2318267Y-2163784D01*
X2319422Y-2165945D01*
X2320976Y-2167839D01*
X2322871Y-2169393D01*
X2325032Y-2170548D01*
X2343599Y-2178239D01*
X2343599Y-2178240D01*
X2363516Y-2191547D01*
X2380453Y-2208485D01*
X2387524Y-2219067D01*
X2393761Y-2228401D01*
X2402927Y-2250531D01*
X2407600Y-2274023D01*
X2407600Y-2297977D01*
X2402927Y-2321469D01*
X2397018Y-2335736D01*
X2393761Y-2343599D01*
X2380453Y-2363516D01*
X2363516Y-2380453D01*
X2343599Y-2393761D01*
X2343599Y-2393761D01*
X2343599Y-2393761D01*
X2325032Y-2401452D01*
X2322870Y-2402607D01*
X2320976Y-2404161D01*
X2319422Y-2406056D01*
X2318267Y-2408217D01*
X2317555Y-2410561D01*
X2317315Y-2413000D01*
X2317555Y-2415439D01*
X2318267Y-2417784D01*
X2319422Y-2419945D01*
X2320976Y-2421839D01*
X2322871Y-2423393D01*
X2325032Y-2424548D01*
X2343021Y-2432000D01*
X2343599Y-2432240D01*
X2363516Y-2445547D01*
X2380453Y-2462485D01*
X2387524Y-2473067D01*
X2393761Y-2482401D01*
X2402927Y-2504531D01*
X2407600Y-2528023D01*
X2407600Y-2551977D01*
X2402927Y-2575469D01*
X2397018Y-2589736D01*
X2393761Y-2597599D01*
X2380453Y-2617516D01*
X2363516Y-2634453D01*
X2343599Y-2647761D01*
X2343599Y-2647761D01*
X2343599Y-2647761D01*
X2325032Y-2655452D01*
X2322870Y-2656607D01*
X2320976Y-2658161D01*
X2319422Y-2660056D01*
X2318267Y-2662217D01*
X2317555Y-2664561D01*
X2317315Y-2667000D01*
X2317555Y-2669439D01*
X2318267Y-2671784D01*
X2319422Y-2673945D01*
X2320976Y-2675839D01*
X2322871Y-2677393D01*
X2325032Y-2678548D01*
X2343599Y-2686239D01*
X2343599Y-2686240D01*
X2363516Y-2699547D01*
X2380453Y-2716485D01*
X2393456Y-2735945D01*
X2393761Y-2736401D01*
X2402927Y-2758531D01*
X2407600Y-2782023D01*
X2407600Y-2805977D01*
X2402927Y-2829469D01*
X2395927Y-2846369D01*
X2393761Y-2851599D01*
X2380453Y-2871515D01*
X2363516Y-2888453D01*
X2343599Y-2901760D01*
X2343599Y-2901761D01*
X2343599Y-2901761D01*
X2325032Y-2909452D01*
X2322870Y-2910607D01*
X2320976Y-2912161D01*
X2319422Y-2914055D01*
X2318267Y-2916216D01*
X2317555Y-2918561D01*
X2317315Y-2921000D01*
X2317555Y-2923439D01*
X2318267Y-2925783D01*
X2319422Y-2927945D01*
X2320976Y-2929839D01*
X2322871Y-2931393D01*
X2325032Y-2932548D01*
X2343599Y-2940239D01*
X2343599Y-2940239D01*
X2363516Y-2953547D01*
X2380453Y-2970484D01*
X2393761Y-2990401D01*
X2393761Y-2990401D01*
X2402927Y-3012531D01*
X2407600Y-3036023D01*
X2407600Y-3059977D01*
X2402927Y-3083469D01*
X2398099Y-3095125D01*
X2393761Y-3105599D01*
X2380453Y-3125515D01*
X2363516Y-3142453D01*
X2343599Y-3155760D01*
X2343599Y-3155761D01*
X2343599Y-3155761D01*
X2325032Y-3163452D01*
X2322870Y-3164607D01*
X2320976Y-3166161D01*
X2319422Y-3168055D01*
X2318267Y-3170216D01*
X2317555Y-3172561D01*
X2317315Y-3175000D01*
X2317555Y-3177439D01*
X2318267Y-3179783D01*
X2319422Y-3181945D01*
X2320976Y-3183839D01*
X2322871Y-3185393D01*
X2325032Y-3186548D01*
X2343599Y-3194239D01*
X2343599Y-3194239D01*
X2363516Y-3207547D01*
X2380453Y-3224484D01*
X2393761Y-3244401D01*
X2393761Y-3244401D01*
X2402927Y-3266531D01*
X2407600Y-3290023D01*
X2407600Y-3313977D01*
X2402927Y-3337469D01*
X2393761Y-3359599D01*
X2393761Y-3359599D01*
X2380453Y-3379515D01*
X2363516Y-3396453D01*
X2343599Y-3409760D01*
X2343599Y-3409761D01*
X2343599Y-3409761D01*
X2325032Y-3417452D01*
X2322870Y-3418607D01*
X2320976Y-3420161D01*
X2319422Y-3422055D01*
X2318267Y-3424216D01*
X2317555Y-3426561D01*
X2317315Y-3429000D01*
X2317555Y-3431439D01*
X2318267Y-3433783D01*
X2319422Y-3435945D01*
X2320976Y-3437839D01*
X2322871Y-3439393D01*
X2325032Y-3440548D01*
X2343599Y-3448239D01*
X2343599Y-3448239D01*
X2363516Y-3461547D01*
X2380453Y-3478484D01*
X2393761Y-3498401D01*
X2393761Y-3498401D01*
X2402927Y-3520531D01*
X2407600Y-3544023D01*
X2407600Y-3567977D01*
X2402927Y-3591469D01*
X2395873Y-3608500D01*
X2393761Y-3613599D01*
X2380453Y-3633515D01*
X2363516Y-3650453D01*
X2343599Y-3663760D01*
X2343599Y-3663761D01*
X2343599Y-3663761D01*
X2321469Y-3672927D01*
X2297977Y-3677600D01*
X2274023Y-3677600D01*
X2250531Y-3672927D01*
X2228401Y-3663761D01*
X2228401Y-3663761D01*
X2228401Y-3663760D01*
X2208485Y-3650453D01*
X2191547Y-3633515D01*
X2178240Y-3613599D01*
X2176127Y-3608500D01*
X2169073Y-3591469D01*
X2164400Y-3567977D01*
X2164400Y-3544023D01*
X2169073Y-3520531D01*
X2178239Y-3498401D01*
X2178240Y-3498401D01*
X2191547Y-3478484D01*
X2208485Y-3461547D01*
X2228401Y-3448239D01*
X2228401Y-3448239D01*
X2246969Y-3440548D01*
X2249130Y-3439393D01*
X2251024Y-3437839D01*
X2252578Y-3435944D01*
X2253733Y-3433783D01*
X2254445Y-3431439D01*
X2254685Y-3429000D01*
X2254445Y-3426561D01*
X2253733Y-3424216D01*
X2252578Y-3422055D01*
X2251024Y-3420161D01*
X2249130Y-3418607D01*
X2246969Y-3417452D01*
X2228401Y-3409761D01*
X2228401Y-3409761D01*
X2228401Y-3409760D01*
X2208485Y-3396453D01*
X2191547Y-3379515D01*
X2178240Y-3359599D01*
X2178239Y-3359599D01*
X2169073Y-3337469D01*
X2164400Y-3313977D01*
X2164400Y-3290023D01*
X2169073Y-3266531D01*
X2178239Y-3244401D01*
X2178240Y-3244401D01*
X2191547Y-3224484D01*
X2208485Y-3207547D01*
X2228401Y-3194239D01*
X2228401Y-3194239D01*
X2246969Y-3186548D01*
X2249130Y-3185393D01*
X2251024Y-3183839D01*
X2252578Y-3181944D01*
X2253733Y-3179783D01*
X2254445Y-3177439D01*
X2254685Y-3175000D01*
X2254445Y-3172561D01*
X2253733Y-3170216D01*
X2252578Y-3168055D01*
X2251024Y-3166161D01*
X2249130Y-3164607D01*
X2246969Y-3163452D01*
X2228401Y-3155761D01*
X2228401Y-3155761D01*
X2228401Y-3155760D01*
X2208485Y-3142453D01*
X2191547Y-3125515D01*
X2178240Y-3105599D01*
X2173901Y-3095125D01*
X2169073Y-3083469D01*
X2164400Y-3059977D01*
X2164400Y-3036023D01*
X2169073Y-3012531D01*
X2178239Y-2990401D01*
X2178240Y-2990401D01*
X2191547Y-2970484D01*
X2208485Y-2953547D01*
X2228401Y-2940239D01*
X2228401Y-2940239D01*
X2246969Y-2932548D01*
X2249130Y-2931393D01*
X2251024Y-2929839D01*
X2252578Y-2927944D01*
X2253733Y-2925783D01*
X2254445Y-2923439D01*
X2254685Y-2921000D01*
X2254445Y-2918561D01*
X2253733Y-2916216D01*
X2252578Y-2914055D01*
X2251024Y-2912161D01*
X2249130Y-2910607D01*
X2246969Y-2909452D01*
X2228401Y-2901761D01*
X2228401Y-2901761D01*
X2228401Y-2901760D01*
X2208485Y-2888453D01*
X2191547Y-2871515D01*
X2178240Y-2851599D01*
X2176073Y-2846369D01*
X2169073Y-2829469D01*
X2164400Y-2805977D01*
X2164400Y-2782023D01*
X2169073Y-2758531D01*
X2178239Y-2736401D01*
X2178544Y-2735945D01*
X2191547Y-2716485D01*
X2208485Y-2699547D01*
X2228401Y-2686240D01*
X2228401Y-2686239D01*
X2246969Y-2678548D01*
X2249130Y-2677393D01*
X2251024Y-2675839D01*
X2252578Y-2673945D01*
X2253733Y-2671784D01*
X2254445Y-2669439D01*
X2254685Y-2667000D01*
X2254445Y-2664561D01*
X2253733Y-2662217D01*
X2252578Y-2660055D01*
X2251024Y-2658161D01*
X2249130Y-2656607D01*
X2246969Y-2655452D01*
X2228401Y-2647761D01*
X2228401Y-2647761D01*
X2228401Y-2647761D01*
X2208485Y-2634453D01*
X2191547Y-2617516D01*
X2178240Y-2597599D01*
X2174982Y-2589736D01*
X2169073Y-2575469D01*
X2164400Y-2551977D01*
X2164400Y-2528023D01*
X2169073Y-2504531D01*
X2178239Y-2482401D01*
X2184477Y-2473067D01*
X2191547Y-2462485D01*
X2208485Y-2445547D01*
X2228401Y-2432240D01*
X2228979Y-2432000D01*
X2246969Y-2424548D01*
X2249130Y-2423393D01*
X2251024Y-2421839D01*
X2252578Y-2419945D01*
X2253733Y-2417784D01*
X2254445Y-2415439D01*
X2254685Y-2413000D01*
X2254445Y-2410561D01*
X2253733Y-2408217D01*
X2252578Y-2406055D01*
X2251024Y-2404161D01*
X2249130Y-2402607D01*
X2246969Y-2401452D01*
X2228401Y-2393761D01*
X2228401Y-2393761D01*
X2228401Y-2393761D01*
X2208485Y-2380453D01*
X2191547Y-2363516D01*
X2178240Y-2343599D01*
X2174982Y-2335736D01*
X2169073Y-2321469D01*
X2164400Y-2297977D01*
X2164400Y-2274023D01*
X2169073Y-2250531D01*
X2178239Y-2228401D01*
X2184477Y-2219067D01*
X2191547Y-2208485D01*
X2208485Y-2191547D01*
X2228401Y-2178240D01*
X2228401Y-2178239D01*
X2246969Y-2170548D01*
X2249130Y-2169393D01*
X2251024Y-2167839D01*
X2252578Y-2165945D01*
X2253733Y-2163784D01*
X2254445Y-2161439D01*
X2254685Y-2159000D01*
X2254445Y-2156561D01*
X2253733Y-2154217D01*
X2252578Y-2152055D01*
X2251024Y-2150161D01*
X2249130Y-2148607D01*
X2246969Y-2147452D01*
X2228401Y-2139761D01*
X2228401Y-2139761D01*
X2228401Y-2139761D01*
X2208485Y-2126453D01*
X2191547Y-2109516D01*
X2178240Y-2089599D01*
X2174982Y-2081736D01*
X2169073Y-2067469D01*
X2164400Y-2043977D01*
X2164400Y-2020023D01*
X2169073Y-1996531D01*
X2178239Y-1974401D01*
X2184477Y-1965066D01*
X2191547Y-1954484D01*
X2208485Y-1937547D01*
X2228401Y-1924239D01*
X2228401Y-1924239D01*
X2246969Y-1916548D01*
X2249130Y-1915393D01*
X2251024Y-1913839D01*
X2252578Y-1911944D01*
X2253733Y-1909783D01*
X2254445Y-1907439D01*
X2254685Y-1905000D01*
X2254445Y-1902561D01*
X2253733Y-1900216D01*
X2252578Y-1898055D01*
X2251024Y-1896161D01*
X2249130Y-1894607D01*
X2246969Y-1893452D01*
X2228401Y-1885761D01*
X2228401Y-1885761D01*
X2228401Y-1885760D01*
X2208485Y-1872453D01*
X2191547Y-1855515D01*
X2178240Y-1835599D01*
X2174982Y-1827736D01*
X2169073Y-1813469D01*
X2164400Y-1789977D01*
X2164400Y-1766023D01*
X2169073Y-1742531D01*
X2178239Y-1720401D01*
X2184477Y-1711066D01*
X2191547Y-1700484D01*
X2208485Y-1683547D01*
X2228401Y-1670239D01*
X2228401Y-1670239D01*
X2246969Y-1662548D01*
X2249130Y-1661393D01*
X2251024Y-1659839D01*
X2252578Y-1657944D01*
X2253733Y-1655783D01*
X2254445Y-1653439D01*
X2254685Y-1651000D01*
X2254445Y-1648561D01*
X2253733Y-1646216D01*
X2252578Y-1644055D01*
X2251024Y-1642161D01*
X2249130Y-1640607D01*
X2246969Y-1639452D01*
X2228401Y-1631761D01*
X2228401Y-1631761D01*
X2228401Y-1631760D01*
X2208485Y-1618453D01*
X2191547Y-1601515D01*
X2178240Y-1581599D01*
X2177699Y-1580294D01*
X2169073Y-1559469D01*
X2164400Y-1535977D01*
X2164400Y-1512023D01*
X2169073Y-1488531D01*
X2178239Y-1466401D01*
X2179878Y-1463948D01*
X2191547Y-1446484D01*
X2208485Y-1429547D01*
X2228401Y-1416239D01*
X2228401Y-1416239D01*
X2246969Y-1408548D01*
X2249130Y-1407393D01*
X2251024Y-1405839D01*
X2252578Y-1403944D01*
X2253733Y-1401783D01*
X2254445Y-1399439D01*
X2254685Y-1397000D01*
X2254445Y-1394561D01*
X2253733Y-1392217D01*
X2252578Y-1390055D01*
X2251024Y-1388161D01*
X2249130Y-1386607D01*
X2246969Y-1385452D01*
X2228401Y-1377761D01*
X2228401Y-1377761D01*
X2228401Y-1377761D01*
X2208485Y-1364453D01*
X2191547Y-1347516D01*
X2178240Y-1327599D01*
X2178239Y-1327599D01*
X2169073Y-1305469D01*
X2164400Y-1281977D01*
X2164400Y-1258023D01*
X2169073Y-1234531D01*
X2178239Y-1212401D01*
X2178240Y-1212401D01*
X2191547Y-1192485D01*
X2208485Y-1175547D01*
X2228401Y-1162240D01*
X2228401Y-1162239D01*
X2246969Y-1154548D01*
X2249130Y-1153393D01*
X2251024Y-1151839D01*
X2252578Y-1149945D01*
X2253733Y-1147784D01*
X2254445Y-1145439D01*
X2254685Y-1143000D01*
X2254445Y-1140561D01*
X2253733Y-1138217D01*
X2252578Y-1136055D01*
X2251024Y-1134161D01*
X2249130Y-1132607D01*
X2246969Y-1131452D01*
X2228401Y-1123761D01*
X2228401Y-1123761D01*
X2228401Y-1123761D01*
X2208485Y-1110453D01*
X2191547Y-1093516D01*
X2178240Y-1073599D01*
X2178239Y-1073599D01*
X2169073Y-1051469D01*
X2164400Y-1027977D01*
X2164400Y-1004023D01*
X2169073Y-980531D01*
X2178239Y-958401D01*
X2178240Y-958401D01*
X2191547Y-938484D01*
X2208485Y-921547D01*
X2228401Y-908239D01*
X2228401Y-908239D01*
X2246969Y-900548D01*
X2249130Y-899393D01*
X2251024Y-897839D01*
X2252578Y-895944D01*
X2253733Y-893783D01*
X2254445Y-891439D01*
X2254685Y-889000D01*
X2254445Y-886561D01*
X2253733Y-884216D01*
X2252578Y-882055D01*
X2251024Y-880161D01*
X2249130Y-878607D01*
X2246969Y-877452D01*
X2228401Y-869761D01*
X2228401Y-869761D01*
X2228401Y-869760D01*
X2208485Y-856453D01*
X2191547Y-839515D01*
X2178240Y-819599D01*
X2178239Y-819599D01*
X2169073Y-797469D01*
X2164400Y-773977D01*
X2164400Y-750023D01*
X2169073Y-726531D01*
X2178239Y-704401D01*
X2178240Y-704401D01*
X2191547Y-684485D01*
X2208485Y-667547D01*
X2228401Y-654240D01*
X2228401Y-654239D01*
X2246969Y-646548D01*
X2249130Y-645393D01*
X2251024Y-643839D01*
X2252578Y-641945D01*
X2253733Y-639784D01*
X2254445Y-637439D01*
X2254685Y-635000D01*
X2254445Y-632561D01*
X2253733Y-630217D01*
X2252578Y-628055D01*
X2251024Y-626161D01*
X2249130Y-624607D01*
X2246969Y-623452D01*
X2228401Y-615761D01*
X2228401Y-615761D01*
X2228401Y-615761D01*
X2208485Y-602453D01*
X2191547Y-585516D01*
X2178240Y-565599D01*
X2178239Y-565599D01*
X2169073Y-543469D01*
X2164400Y-519977D01*
X2164400Y-496023D01*
X2169073Y-472531D01*
X2178239Y-450401D01*
X2178240Y-450401D01*
X2191547Y-430484D01*
X2208485Y-413547D01*
X2228401Y-400239D01*
X2228401Y-400239D01*
X2246969Y-392548D01*
X2249130Y-391393D01*
X2251024Y-389839D01*
X2252578Y-387944D01*
X2253733Y-385783D01*
X2254445Y-383439D01*
X2254685Y-381000D01*
X2254445Y-378561D01*
X2253733Y-376216D01*
X2252578Y-374055D01*
X2251024Y-372161D01*
X2249130Y-370607D01*
X2246969Y-369452D01*
X2228401Y-361761D01*
X2228401Y-361761D01*
X2228401Y-361760D01*
X2208485Y-348453D01*
X2191547Y-331516D01*
X2178240Y-311599D01*
X2178239Y-311599D01*
X2169073Y-289469D01*
X2164400Y-265977D01*
X2164400Y-242023D01*
X2169073Y-218531D01*
X2178239Y-196401D01*
X2178240Y-196401D01*
X2191547Y-176484D01*
X2208485Y-159547D01*
X2228401Y-146240D01*
X2228401Y-146239D01*
X2229828Y-145648D01*
X2231989Y-144493D01*
X2233883Y-142939D01*
X2235438Y-141044D01*
X2236593Y-138883D01*
X2237304Y-136539D01*
X2237544Y-134100D01*
X2237304Y-131661D01*
X2236593Y-129316D01*
X2235438Y-127155D01*
X2233883Y-125261D01*
X2231989Y-123707D01*
X2229828Y-122551D01*
X2227483Y-121840D01*
X2225045Y-121600D01*
X2164400Y-121600D01*
X2164400Y121600D01*
X2407600Y121600D01*
X2407600Y-121600D01*
G37*
G36*
X908847Y-3267112D02*
G01*
X914229Y-3268744D01*
X919189Y-3271396D01*
X923537Y-3274963D01*
X927104Y-3279311D01*
X929756Y-3284271D01*
X931388Y-3289653D01*
X932000Y-3295864D01*
X932000Y-3627136D01*
X931388Y-3633347D01*
X929756Y-3638729D01*
X927104Y-3643689D01*
X923537Y-3648037D01*
X919189Y-3651604D01*
X914229Y-3654256D01*
X908847Y-3655888D01*
X902636Y-3656500D01*
X821364Y-3656500D01*
X815153Y-3655888D01*
X809771Y-3654256D01*
X804811Y-3651604D01*
X800463Y-3648037D01*
X796896Y-3643689D01*
X794244Y-3638729D01*
X792612Y-3633347D01*
X792000Y-3627136D01*
X792000Y-3295864D01*
X792612Y-3289653D01*
X794244Y-3284271D01*
X796896Y-3279311D01*
X800463Y-3274963D01*
X804811Y-3271396D01*
X809771Y-3268744D01*
X815153Y-3267112D01*
X821364Y-3266500D01*
X902636Y-3266500D01*
X908847Y-3267112D01*
G37*
G36*
X708847Y-3267112D02*
G01*
X714229Y-3268744D01*
X719189Y-3271396D01*
X723537Y-3274963D01*
X727104Y-3279311D01*
X729756Y-3284271D01*
X731388Y-3289653D01*
X732000Y-3295864D01*
X732000Y-3627136D01*
X731388Y-3633347D01*
X729756Y-3638729D01*
X727104Y-3643689D01*
X723537Y-3648037D01*
X719189Y-3651604D01*
X714229Y-3654256D01*
X708847Y-3655888D01*
X702636Y-3656500D01*
X621364Y-3656500D01*
X615153Y-3655888D01*
X609771Y-3654256D01*
X604811Y-3651604D01*
X600463Y-3648037D01*
X596896Y-3643689D01*
X594244Y-3638729D01*
X592612Y-3633347D01*
X592000Y-3627136D01*
X592000Y-3295864D01*
X592612Y-3289653D01*
X594244Y-3284271D01*
X596896Y-3279311D01*
X600463Y-3274963D01*
X604811Y-3271396D01*
X609771Y-3268744D01*
X615153Y-3267112D01*
X621364Y-3266500D01*
X702636Y-3266500D01*
X708847Y-3267112D01*
G37*
G36*
X1380362Y-3414052D02*
G01*
X1385159Y-3415507D01*
X1389578Y-3417869D01*
X1393452Y-3421048D01*
X1396631Y-3424922D01*
X1398993Y-3429341D01*
X1400448Y-3434138D01*
X1401000Y-3439739D01*
X1401000Y-3514761D01*
X1400448Y-3520362D01*
X1398993Y-3525158D01*
X1396631Y-3529578D01*
X1393452Y-3533452D01*
X1389578Y-3536631D01*
X1385159Y-3538993D01*
X1380362Y-3540448D01*
X1374761Y-3541000D01*
X1292239Y-3541000D01*
X1286638Y-3540448D01*
X1281842Y-3538993D01*
X1277422Y-3536631D01*
X1273548Y-3533452D01*
X1270369Y-3529578D01*
X1268007Y-3525158D01*
X1266552Y-3520362D01*
X1266000Y-3514761D01*
X1266000Y-3439739D01*
X1266552Y-3434138D01*
X1268007Y-3429341D01*
X1270369Y-3424922D01*
X1273548Y-3421048D01*
X1277422Y-3417869D01*
X1281842Y-3415507D01*
X1286638Y-3414052D01*
X1292239Y-3413500D01*
X1374761Y-3413500D01*
X1380362Y-3414052D01*
G37*
G36*
X2015362Y-3414052D02*
G01*
X2020158Y-3415507D01*
X2024578Y-3417869D01*
X2028452Y-3421048D01*
X2031631Y-3424922D01*
X2033993Y-3429341D01*
X2035448Y-3434138D01*
X2036000Y-3439739D01*
X2036000Y-3514761D01*
X2035448Y-3520362D01*
X2033993Y-3525158D01*
X2031631Y-3529578D01*
X2028452Y-3533452D01*
X2024578Y-3536631D01*
X2020158Y-3538993D01*
X2015362Y-3540448D01*
X2009761Y-3541000D01*
X1927239Y-3541000D01*
X1921638Y-3540448D01*
X1916841Y-3538993D01*
X1912422Y-3536631D01*
X1908548Y-3533452D01*
X1905369Y-3529578D01*
X1903007Y-3525158D01*
X1901552Y-3520362D01*
X1901000Y-3514761D01*
X1901000Y-3439739D01*
X1901552Y-3434138D01*
X1903007Y-3429341D01*
X1905369Y-3424922D01*
X1908548Y-3421048D01*
X1912422Y-3417869D01*
X1916841Y-3415507D01*
X1921638Y-3414052D01*
X1927239Y-3413500D01*
X2009761Y-3413500D01*
X2015362Y-3414052D01*
G37*
G36*
X1834000Y-3513500D02*
G01*
X1688000Y-3513500D01*
X1688000Y-3408500D01*
X1834000Y-3408500D01*
X1834000Y-3513500D01*
G37*
G36*
X909500Y-3167500D02*
G01*
X614500Y-3167500D01*
X614500Y-3021500D01*
X909500Y-3021500D01*
X909500Y-3167500D01*
G37*
G36*
X2111600Y-3153000D02*
G01*
X1901600Y-3153000D01*
X1901600Y-2943000D01*
X2111600Y-2943000D01*
X2111600Y-3153000D01*
G37*
G36*
X1126362Y-3000052D02*
G01*
X1131159Y-3001507D01*
X1135578Y-3003869D01*
X1139452Y-3007048D01*
X1142631Y-3010922D01*
X1144993Y-3015341D01*
X1146448Y-3020138D01*
X1147000Y-3025739D01*
X1147000Y-3100761D01*
X1146448Y-3106362D01*
X1144993Y-3111158D01*
X1142631Y-3115578D01*
X1139452Y-3119452D01*
X1135578Y-3122631D01*
X1131159Y-3124993D01*
X1126362Y-3126448D01*
X1120761Y-3127000D01*
X1038239Y-3127000D01*
X1032638Y-3126448D01*
X1027841Y-3124993D01*
X1023422Y-3122631D01*
X1019548Y-3119452D01*
X1016369Y-3115578D01*
X1014007Y-3111158D01*
X1012552Y-3106362D01*
X1012000Y-3100761D01*
X1012000Y-3025739D01*
X1012552Y-3020138D01*
X1014007Y-3015341D01*
X1016369Y-3010922D01*
X1019548Y-3007048D01*
X1023422Y-3003869D01*
X1027841Y-3001507D01*
X1032638Y-3000052D01*
X1038239Y-2999500D01*
X1120761Y-2999500D01*
X1126362Y-3000052D01*
G37*
G36*
X1380362Y-3000052D02*
G01*
X1385159Y-3001507D01*
X1389578Y-3003869D01*
X1393452Y-3007048D01*
X1396631Y-3010922D01*
X1398993Y-3015341D01*
X1400448Y-3020138D01*
X1401000Y-3025739D01*
X1401000Y-3100761D01*
X1400448Y-3106362D01*
X1398993Y-3111158D01*
X1396631Y-3115578D01*
X1393452Y-3119452D01*
X1389578Y-3122631D01*
X1385159Y-3124993D01*
X1380362Y-3126448D01*
X1374761Y-3127000D01*
X1292239Y-3127000D01*
X1286638Y-3126448D01*
X1281842Y-3124993D01*
X1277422Y-3122631D01*
X1273548Y-3119452D01*
X1270369Y-3115578D01*
X1268007Y-3111158D01*
X1266552Y-3106362D01*
X1266000Y-3100761D01*
X1266000Y-3025739D01*
X1266552Y-3020138D01*
X1268007Y-3015341D01*
X1270369Y-3010922D01*
X1273548Y-3007048D01*
X1277422Y-3003869D01*
X1281842Y-3001507D01*
X1286638Y-3000052D01*
X1292239Y-2999500D01*
X1374761Y-2999500D01*
X1380362Y-3000052D01*
G37*
G36*
X427862Y-3000052D02*
G01*
X432658Y-3001507D01*
X437078Y-3003869D01*
X440952Y-3007048D01*
X444131Y-3010922D01*
X446493Y-3015341D01*
X447948Y-3020138D01*
X448500Y-3025739D01*
X448500Y-3100761D01*
X447948Y-3106362D01*
X446493Y-3111158D01*
X444131Y-3115578D01*
X440952Y-3119452D01*
X437078Y-3122631D01*
X432658Y-3124993D01*
X427862Y-3126448D01*
X422261Y-3127000D01*
X339739Y-3127000D01*
X334138Y-3126448D01*
X329342Y-3124993D01*
X324922Y-3122631D01*
X321048Y-3119452D01*
X317869Y-3115578D01*
X315507Y-3111158D01*
X314052Y-3106362D01*
X313500Y-3100761D01*
X313500Y-3025739D01*
X314052Y-3020138D01*
X315507Y-3015341D01*
X317869Y-3010922D01*
X321048Y-3007048D01*
X324922Y-3003869D01*
X329342Y-3001507D01*
X334138Y-3000052D01*
X339739Y-2999500D01*
X422261Y-2999500D01*
X427862Y-3000052D01*
G37*
G36*
X1634362Y-3000052D02*
G01*
X1639158Y-3001507D01*
X1643578Y-3003869D01*
X1647452Y-3007048D01*
X1650631Y-3010922D01*
X1652993Y-3015341D01*
X1654448Y-3020138D01*
X1655000Y-3025739D01*
X1655000Y-3100761D01*
X1654448Y-3106362D01*
X1652993Y-3111158D01*
X1650631Y-3115578D01*
X1647452Y-3119452D01*
X1643578Y-3122631D01*
X1639158Y-3124993D01*
X1634362Y-3126448D01*
X1628761Y-3127000D01*
X1546239Y-3127000D01*
X1540638Y-3126448D01*
X1535841Y-3124993D01*
X1531422Y-3122631D01*
X1527548Y-3119452D01*
X1524369Y-3115578D01*
X1522007Y-3111158D01*
X1520552Y-3106362D01*
X1520000Y-3100761D01*
X1520000Y-3025739D01*
X1520552Y-3020138D01*
X1522007Y-3015341D01*
X1524369Y-3010922D01*
X1527548Y-3007048D01*
X1531422Y-3003869D01*
X1535841Y-3001507D01*
X1540638Y-3000052D01*
X1546239Y-2999500D01*
X1628761Y-2999500D01*
X1634362Y-3000052D01*
G37*
G36*
X1126362Y-2842552D02*
G01*
X1131159Y-2844007D01*
X1135578Y-2846369D01*
X1139452Y-2849548D01*
X1142631Y-2853422D01*
X1144993Y-2857841D01*
X1146448Y-2862638D01*
X1147000Y-2868239D01*
X1147000Y-2943261D01*
X1146448Y-2948862D01*
X1144993Y-2953658D01*
X1142631Y-2958078D01*
X1139452Y-2961952D01*
X1135578Y-2965131D01*
X1131159Y-2967493D01*
X1126362Y-2968948D01*
X1120761Y-2969500D01*
X1038239Y-2969500D01*
X1032638Y-2968948D01*
X1027841Y-2967493D01*
X1023422Y-2965131D01*
X1019548Y-2961952D01*
X1016369Y-2958078D01*
X1014007Y-2953658D01*
X1012552Y-2948862D01*
X1012000Y-2943261D01*
X1012000Y-2868239D01*
X1012552Y-2862638D01*
X1014007Y-2857841D01*
X1016369Y-2853422D01*
X1019548Y-2849548D01*
X1023422Y-2846369D01*
X1027841Y-2844007D01*
X1032638Y-2842552D01*
X1038239Y-2842000D01*
X1120761Y-2842000D01*
X1126362Y-2842552D01*
G37*
G36*
X1380362Y-2842552D02*
G01*
X1385159Y-2844007D01*
X1389578Y-2846369D01*
X1393452Y-2849548D01*
X1396631Y-2853422D01*
X1398993Y-2857841D01*
X1400448Y-2862638D01*
X1401000Y-2868239D01*
X1401000Y-2943261D01*
X1400448Y-2948862D01*
X1398993Y-2953658D01*
X1396631Y-2958078D01*
X1393452Y-2961952D01*
X1389578Y-2965131D01*
X1385159Y-2967493D01*
X1380362Y-2968948D01*
X1374761Y-2969500D01*
X1292239Y-2969500D01*
X1286638Y-2968948D01*
X1281842Y-2967493D01*
X1277422Y-2965131D01*
X1273548Y-2961952D01*
X1270369Y-2958078D01*
X1268007Y-2953658D01*
X1266552Y-2948862D01*
X1266000Y-2943261D01*
X1266000Y-2868239D01*
X1266552Y-2862638D01*
X1268007Y-2857841D01*
X1270369Y-2853422D01*
X1273548Y-2849548D01*
X1277422Y-2846369D01*
X1281842Y-2844007D01*
X1286638Y-2842552D01*
X1292239Y-2842000D01*
X1374761Y-2842000D01*
X1380362Y-2842552D01*
G37*
G36*
X427862Y-2842552D02*
G01*
X432658Y-2844007D01*
X437078Y-2846369D01*
X440952Y-2849548D01*
X444131Y-2853422D01*
X446493Y-2857841D01*
X447948Y-2862638D01*
X448500Y-2868239D01*
X448500Y-2943261D01*
X447948Y-2948862D01*
X446493Y-2953658D01*
X444131Y-2958078D01*
X440952Y-2961952D01*
X437078Y-2965131D01*
X432658Y-2967493D01*
X427862Y-2968948D01*
X422261Y-2969500D01*
X339739Y-2969500D01*
X334138Y-2968948D01*
X329342Y-2967493D01*
X324922Y-2965131D01*
X321048Y-2961952D01*
X317869Y-2958078D01*
X315507Y-2953658D01*
X314052Y-2948862D01*
X313500Y-2943261D01*
X313500Y-2868239D01*
X314052Y-2862638D01*
X315507Y-2857841D01*
X317869Y-2853422D01*
X321048Y-2849548D01*
X324922Y-2846369D01*
X329342Y-2844007D01*
X334138Y-2842552D01*
X339739Y-2842000D01*
X422261Y-2842000D01*
X427862Y-2842552D01*
G37*
G36*
X1634362Y-2842552D02*
G01*
X1639158Y-2844007D01*
X1643578Y-2846369D01*
X1647452Y-2849548D01*
X1650631Y-2853422D01*
X1652993Y-2857841D01*
X1654448Y-2862638D01*
X1655000Y-2868239D01*
X1655000Y-2943261D01*
X1654448Y-2948862D01*
X1652993Y-2953658D01*
X1650631Y-2958078D01*
X1647452Y-2961952D01*
X1643578Y-2965131D01*
X1639158Y-2967493D01*
X1634362Y-2968948D01*
X1628761Y-2969500D01*
X1546239Y-2969500D01*
X1540638Y-2968948D01*
X1535841Y-2967493D01*
X1531422Y-2965131D01*
X1527548Y-2961952D01*
X1524369Y-2958078D01*
X1522007Y-2953658D01*
X1520552Y-2948862D01*
X1520000Y-2943261D01*
X1520000Y-2868239D01*
X1520552Y-2862638D01*
X1522007Y-2857841D01*
X1524369Y-2853422D01*
X1527548Y-2849548D01*
X1531422Y-2846369D01*
X1535841Y-2844007D01*
X1540638Y-2842552D01*
X1546239Y-2842000D01*
X1628761Y-2842000D01*
X1634362Y-2842552D01*
G37*
G36*
X719500Y-2947500D02*
G01*
X614500Y-2947500D01*
X614500Y-2801500D01*
X719500Y-2801500D01*
X719500Y-2947500D01*
G37*
G36*
X909500Y-2947500D02*
G01*
X804500Y-2947500D01*
X804500Y-2801500D01*
X909500Y-2801500D01*
X909500Y-2947500D01*
G37*
G36*
X2019469Y-2689503D02*
G01*
X2037227Y-2693035D01*
X2056336Y-2700950D01*
X2073534Y-2712441D01*
X2088159Y-2727066D01*
X2099650Y-2744264D01*
X2107565Y-2763373D01*
X2111600Y-2783658D01*
X2111600Y-2804342D01*
X2107565Y-2824627D01*
X2099650Y-2843736D01*
X2088159Y-2860934D01*
X2073534Y-2875559D01*
X2056336Y-2887050D01*
X2037227Y-2894965D01*
X2019469Y-2898497D01*
X2016942Y-2899000D01*
X1996258Y-2899000D01*
X1993731Y-2898497D01*
X1975973Y-2894965D01*
X1956864Y-2887050D01*
X1939666Y-2875559D01*
X1925041Y-2860934D01*
X1913550Y-2843736D01*
X1905635Y-2824627D01*
X1901600Y-2804342D01*
X1901600Y-2783658D01*
X1905635Y-2763373D01*
X1913550Y-2744264D01*
X1925041Y-2727066D01*
X1939666Y-2712441D01*
X1956864Y-2700950D01*
X1975973Y-2693035D01*
X1993731Y-2689503D01*
X1996258Y-2689000D01*
X2016942Y-2689000D01*
X2019469Y-2689503D01*
G37*
G36*
X359884Y-2524468D02*
G01*
X363859Y-2525673D01*
X367682Y-2527717D01*
X369420Y-2528878D01*
X371684Y-2529816D01*
X374087Y-2530294D01*
X376538Y-2530294D01*
X378941Y-2529816D01*
X381205Y-2528878D01*
X381843Y-2528451D01*
X386684Y-2525864D01*
X391128Y-2524516D01*
X396364Y-2524000D01*
X467636Y-2524000D01*
X472871Y-2524516D01*
X477315Y-2525864D01*
X481108Y-2527891D01*
X483371Y-2528828D01*
X485775Y-2529306D01*
X488225Y-2529306D01*
X490629Y-2528828D01*
X492892Y-2527891D01*
X496685Y-2525864D01*
X501128Y-2524516D01*
X506364Y-2524000D01*
X577636Y-2524000D01*
X582872Y-2524516D01*
X587315Y-2525864D01*
X591108Y-2527891D01*
X593372Y-2528828D01*
X595775Y-2529306D01*
X598225Y-2529306D01*
X600629Y-2528828D01*
X602892Y-2527891D01*
X606685Y-2525864D01*
X611129Y-2524516D01*
X616364Y-2524000D01*
X687636Y-2524000D01*
X692872Y-2524516D01*
X697315Y-2525864D01*
X701108Y-2527891D01*
X703371Y-2528828D01*
X705775Y-2529306D01*
X708225Y-2529306D01*
X710629Y-2528828D01*
X712892Y-2527891D01*
X716685Y-2525864D01*
X721128Y-2524516D01*
X726364Y-2524000D01*
X797636Y-2524000D01*
X802871Y-2524516D01*
X807315Y-2525864D01*
X811108Y-2527891D01*
X813371Y-2528828D01*
X815775Y-2529306D01*
X818225Y-2529306D01*
X820629Y-2528828D01*
X822892Y-2527891D01*
X826685Y-2525864D01*
X831128Y-2524516D01*
X836364Y-2524000D01*
X907636Y-2524000D01*
X912871Y-2524516D01*
X917315Y-2525864D01*
X921108Y-2527891D01*
X923371Y-2528828D01*
X925775Y-2529306D01*
X928225Y-2529306D01*
X930629Y-2528828D01*
X932892Y-2527891D01*
X936685Y-2525864D01*
X941128Y-2524516D01*
X946364Y-2524000D01*
X1017636Y-2524000D01*
X1022871Y-2524516D01*
X1027315Y-2525864D01*
X1031108Y-2527891D01*
X1033371Y-2528828D01*
X1035775Y-2529306D01*
X1038225Y-2529306D01*
X1040629Y-2528828D01*
X1042892Y-2527891D01*
X1046685Y-2525864D01*
X1051129Y-2524516D01*
X1056364Y-2524000D01*
X1127636Y-2524000D01*
X1132872Y-2524516D01*
X1137316Y-2525864D01*
X1142157Y-2528451D01*
X1142795Y-2528878D01*
X1145059Y-2529816D01*
X1147462Y-2530294D01*
X1149913Y-2530294D01*
X1152316Y-2529816D01*
X1154580Y-2528878D01*
X1156318Y-2527717D01*
X1160141Y-2525673D01*
X1164116Y-2524468D01*
X1168864Y-2524000D01*
X1235136Y-2524000D01*
X1239884Y-2524468D01*
X1243859Y-2525673D01*
X1247522Y-2527632D01*
X1250733Y-2530267D01*
X1253369Y-2533478D01*
X1255327Y-2537141D01*
X1256532Y-2541116D01*
X1257000Y-2545864D01*
X1257000Y-2722136D01*
X1256532Y-2726884D01*
X1255327Y-2730859D01*
X1253369Y-2734522D01*
X1250733Y-2737733D01*
X1247522Y-2740369D01*
X1243859Y-2742327D01*
X1239884Y-2743532D01*
X1235136Y-2744000D01*
X1168864Y-2744000D01*
X1164116Y-2743532D01*
X1160141Y-2742327D01*
X1156318Y-2740283D01*
X1154580Y-2739122D01*
X1152316Y-2738184D01*
X1149913Y-2737706D01*
X1147462Y-2737706D01*
X1145059Y-2738184D01*
X1142795Y-2739122D01*
X1142157Y-2739549D01*
X1137316Y-2742136D01*
X1132872Y-2743484D01*
X1127636Y-2744000D01*
X1056364Y-2744000D01*
X1051129Y-2743484D01*
X1046685Y-2742136D01*
X1042892Y-2740109D01*
X1040628Y-2739172D01*
X1038225Y-2738694D01*
X1035775Y-2738694D01*
X1033371Y-2739172D01*
X1031108Y-2740109D01*
X1027315Y-2742136D01*
X1022871Y-2743484D01*
X1017636Y-2744000D01*
X946364Y-2744000D01*
X941128Y-2743484D01*
X936685Y-2742136D01*
X932892Y-2740109D01*
X930628Y-2739172D01*
X928225Y-2738694D01*
X925775Y-2738694D01*
X923371Y-2739172D01*
X921108Y-2740109D01*
X917315Y-2742136D01*
X912871Y-2743484D01*
X907636Y-2744000D01*
X836364Y-2744000D01*
X831128Y-2743484D01*
X826685Y-2742136D01*
X822892Y-2740109D01*
X820628Y-2739172D01*
X818225Y-2738694D01*
X815775Y-2738694D01*
X813371Y-2739172D01*
X811108Y-2740109D01*
X807315Y-2742136D01*
X802871Y-2743484D01*
X797636Y-2744000D01*
X726364Y-2744000D01*
X721128Y-2743484D01*
X716685Y-2742136D01*
X712892Y-2740109D01*
X710628Y-2739172D01*
X708225Y-2738694D01*
X705775Y-2738694D01*
X703371Y-2739172D01*
X701108Y-2740109D01*
X697315Y-2742136D01*
X692872Y-2743484D01*
X687636Y-2744000D01*
X616364Y-2744000D01*
X611129Y-2743484D01*
X606685Y-2742136D01*
X602892Y-2740109D01*
X600629Y-2739172D01*
X598225Y-2738694D01*
X595775Y-2738694D01*
X593371Y-2739172D01*
X591108Y-2740109D01*
X587315Y-2742136D01*
X582872Y-2743484D01*
X577636Y-2744000D01*
X506364Y-2744000D01*
X501128Y-2743484D01*
X496685Y-2742136D01*
X492892Y-2740109D01*
X490628Y-2739172D01*
X488225Y-2738694D01*
X485775Y-2738694D01*
X483371Y-2739172D01*
X481108Y-2740109D01*
X477315Y-2742136D01*
X472871Y-2743484D01*
X467636Y-2744000D01*
X396364Y-2744000D01*
X391128Y-2743484D01*
X386684Y-2742136D01*
X381843Y-2739549D01*
X381205Y-2739122D01*
X378941Y-2738184D01*
X376538Y-2737706D01*
X374087Y-2737706D01*
X371684Y-2738184D01*
X369420Y-2739122D01*
X367682Y-2740283D01*
X363859Y-2742327D01*
X359884Y-2743532D01*
X355136Y-2744000D01*
X288864Y-2744000D01*
X284116Y-2743532D01*
X280141Y-2742327D01*
X276478Y-2740369D01*
X273267Y-2737733D01*
X270632Y-2734522D01*
X268673Y-2730859D01*
X267468Y-2726884D01*
X267000Y-2722136D01*
X267000Y-2545864D01*
X267468Y-2541116D01*
X268673Y-2537141D01*
X270632Y-2533478D01*
X273267Y-2530267D01*
X276478Y-2527632D01*
X280141Y-2525673D01*
X284116Y-2524468D01*
X288864Y-2524000D01*
X355136Y-2524000D01*
X359884Y-2524468D01*
G37*
G36*
X2019469Y-2435503D02*
G01*
X2037227Y-2439035D01*
X2056336Y-2446950D01*
X2073534Y-2458441D01*
X2088159Y-2473066D01*
X2099650Y-2490264D01*
X2107565Y-2509373D01*
X2111600Y-2529658D01*
X2111600Y-2550342D01*
X2107565Y-2570627D01*
X2099650Y-2589736D01*
X2088159Y-2606934D01*
X2073534Y-2621559D01*
X2056336Y-2633050D01*
X2037227Y-2640965D01*
X2019469Y-2644497D01*
X2016942Y-2645000D01*
X1996258Y-2645000D01*
X1993731Y-2644497D01*
X1975973Y-2640965D01*
X1956864Y-2633050D01*
X1939666Y-2621559D01*
X1925041Y-2606934D01*
X1913550Y-2589736D01*
X1905635Y-2570627D01*
X1901600Y-2550342D01*
X1901600Y-2529658D01*
X1905635Y-2509373D01*
X1913550Y-2490264D01*
X1925041Y-2473066D01*
X1939666Y-2458441D01*
X1956864Y-2446950D01*
X1975973Y-2439035D01*
X1993731Y-2435503D01*
X1996258Y-2435000D01*
X2016942Y-2435000D01*
X2019469Y-2435503D01*
G37*
G36*
X1701500Y-2274500D02*
G01*
X1504000Y-2274500D01*
X1501561Y-2274740D01*
X1499216Y-2275452D01*
X1497055Y-2276607D01*
X1495161Y-2278161D01*
X1493607Y-2280055D01*
X1492451Y-2282216D01*
X1491740Y-2284561D01*
X1491500Y-2287000D01*
X1491500Y-2412000D01*
X1491740Y-2414439D01*
X1492451Y-2416784D01*
X1493607Y-2418945D01*
X1495161Y-2420839D01*
X1497055Y-2422393D01*
X1499216Y-2423549D01*
X1501561Y-2424260D01*
X1504000Y-2424500D01*
X1701500Y-2424500D01*
X1701500Y-2569500D01*
X1441500Y-2569500D01*
X1441500Y-2432000D01*
X1441260Y-2429561D01*
X1440548Y-2427216D01*
X1439393Y-2425055D01*
X1437839Y-2423161D01*
X1435945Y-2421607D01*
X1433784Y-2420452D01*
X1431439Y-2419740D01*
X1429000Y-2419500D01*
X1346500Y-2419500D01*
X1346500Y-2279500D01*
X1429000Y-2279500D01*
X1431439Y-2279260D01*
X1433784Y-2278549D01*
X1435945Y-2277393D01*
X1437839Y-2275839D01*
X1439393Y-2273945D01*
X1440548Y-2271784D01*
X1441260Y-2269439D01*
X1441500Y-2267000D01*
X1441500Y-2129500D01*
X1701500Y-2129500D01*
X1701500Y-2274500D01*
G37*
G36*
X2019469Y-2181503D02*
G01*
X2037227Y-2185035D01*
X2056336Y-2192950D01*
X2073534Y-2204441D01*
X2088159Y-2219066D01*
X2099650Y-2236264D01*
X2107565Y-2255373D01*
X2110829Y-2271784D01*
X2111559Y-2275452D01*
X2111600Y-2275658D01*
X2111600Y-2296342D01*
X2107565Y-2316627D01*
X2099650Y-2335736D01*
X2088159Y-2352934D01*
X2073534Y-2367559D01*
X2056336Y-2379050D01*
X2037227Y-2386965D01*
X2019469Y-2390497D01*
X2016942Y-2391000D01*
X1996258Y-2391000D01*
X1993731Y-2390497D01*
X1975973Y-2386965D01*
X1956864Y-2379050D01*
X1939666Y-2367559D01*
X1925041Y-2352934D01*
X1913550Y-2335736D01*
X1905635Y-2316627D01*
X1901600Y-2296342D01*
X1901600Y-2275658D01*
X1901641Y-2275452D01*
X1902371Y-2271784D01*
X1905635Y-2255373D01*
X1913550Y-2236264D01*
X1925041Y-2219066D01*
X1939666Y-2204441D01*
X1956864Y-2192950D01*
X1975973Y-2185035D01*
X1993731Y-2181503D01*
X1996258Y-2181000D01*
X2016942Y-2181000D01*
X2019469Y-2181503D01*
G37*
G36*
X2019469Y-1927503D02*
G01*
X2037227Y-1931035D01*
X2056336Y-1938950D01*
X2073534Y-1950441D01*
X2088159Y-1965066D01*
X2099650Y-1982264D01*
X2107565Y-2001373D01*
X2111600Y-2021658D01*
X2111600Y-2042342D01*
X2107565Y-2062627D01*
X2099650Y-2081736D01*
X2088159Y-2098934D01*
X2073534Y-2113559D01*
X2056336Y-2125050D01*
X2037227Y-2132965D01*
X2019469Y-2136497D01*
X2016942Y-2137000D01*
X1996258Y-2137000D01*
X1993731Y-2136497D01*
X1975973Y-2132965D01*
X1956864Y-2125050D01*
X1939666Y-2113559D01*
X1925041Y-2098934D01*
X1913550Y-2081736D01*
X1905635Y-2062627D01*
X1901600Y-2042342D01*
X1901600Y-2021658D01*
X1905635Y-2001373D01*
X1913550Y-1982264D01*
X1925041Y-1965066D01*
X1939666Y-1950441D01*
X1956864Y-1938950D01*
X1975973Y-1931035D01*
X1993731Y-1927503D01*
X1996258Y-1927000D01*
X2016942Y-1927000D01*
X2019469Y-1927503D01*
G37*
G36*
X1670000Y-1695500D02*
G01*
X1670240Y-1697939D01*
X1670951Y-1700284D01*
X1672107Y-1702445D01*
X1673661Y-1704339D01*
X1675555Y-1705893D01*
X1677716Y-1707048D01*
X1680061Y-1707760D01*
X1682500Y-1708000D01*
X1765000Y-1708000D01*
X1765000Y-1848000D01*
X1682500Y-1848000D01*
X1680061Y-1848240D01*
X1677716Y-1848951D01*
X1675555Y-1850107D01*
X1673661Y-1851661D01*
X1672107Y-1853555D01*
X1670951Y-1855716D01*
X1670240Y-1858061D01*
X1670000Y-1860500D01*
X1670000Y-1998000D01*
X1410000Y-1998000D01*
X1410000Y-1853000D01*
X1607500Y-1853000D01*
X1609939Y-1852760D01*
X1612284Y-1852048D01*
X1614445Y-1850893D01*
X1616339Y-1849339D01*
X1617893Y-1847445D01*
X1619048Y-1845284D01*
X1619760Y-1842939D01*
X1620000Y-1840500D01*
X1620000Y-1715500D01*
X1619760Y-1713061D01*
X1619048Y-1710716D01*
X1617893Y-1708555D01*
X1616339Y-1706661D01*
X1614445Y-1705107D01*
X1612284Y-1703951D01*
X1609939Y-1703240D01*
X1607500Y-1703000D01*
X1410000Y-1703000D01*
X1410000Y-1558000D01*
X1670000Y-1558000D01*
X1670000Y-1695500D01*
G37*
G36*
X2019469Y-1673503D02*
G01*
X2037227Y-1677035D01*
X2056336Y-1684950D01*
X2073534Y-1696441D01*
X2088159Y-1711066D01*
X2099650Y-1728264D01*
X2107565Y-1747373D01*
X2111600Y-1767658D01*
X2111600Y-1788342D01*
X2107565Y-1808627D01*
X2099650Y-1827736D01*
X2088159Y-1844934D01*
X2073534Y-1859559D01*
X2056336Y-1871050D01*
X2037227Y-1878965D01*
X2019469Y-1882497D01*
X2016942Y-1883000D01*
X1996258Y-1883000D01*
X1993731Y-1882497D01*
X1975973Y-1878965D01*
X1956864Y-1871050D01*
X1939666Y-1859559D01*
X1925041Y-1844934D01*
X1913550Y-1827736D01*
X1905635Y-1808627D01*
X1901600Y-1788342D01*
X1901600Y-1767658D01*
X1905635Y-1747373D01*
X1913550Y-1728264D01*
X1925041Y-1711066D01*
X1939666Y-1696441D01*
X1956864Y-1684950D01*
X1975973Y-1677035D01*
X1993731Y-1673503D01*
X1996258Y-1673000D01*
X2016942Y-1673000D01*
X2019469Y-1673503D01*
G37*
G36*
X359884Y-1574468D02*
G01*
X363859Y-1575673D01*
X367682Y-1577717D01*
X369420Y-1578878D01*
X371684Y-1579816D01*
X374087Y-1580294D01*
X376538Y-1580294D01*
X378941Y-1579816D01*
X381205Y-1578878D01*
X381843Y-1578451D01*
X386684Y-1575864D01*
X391128Y-1574516D01*
X396364Y-1574000D01*
X467636Y-1574000D01*
X472871Y-1574516D01*
X477315Y-1575864D01*
X481108Y-1577891D01*
X483371Y-1578828D01*
X485775Y-1579306D01*
X488225Y-1579306D01*
X490629Y-1578828D01*
X492892Y-1577891D01*
X496685Y-1575864D01*
X501128Y-1574516D01*
X506364Y-1574000D01*
X577636Y-1574000D01*
X582872Y-1574516D01*
X587315Y-1575864D01*
X591108Y-1577891D01*
X593372Y-1578828D01*
X595775Y-1579306D01*
X598225Y-1579306D01*
X600629Y-1578828D01*
X602892Y-1577891D01*
X606685Y-1575864D01*
X611129Y-1574516D01*
X616364Y-1574000D01*
X687636Y-1574000D01*
X692872Y-1574516D01*
X697315Y-1575864D01*
X701108Y-1577891D01*
X703371Y-1578828D01*
X705775Y-1579306D01*
X708225Y-1579306D01*
X710629Y-1578828D01*
X712892Y-1577891D01*
X716685Y-1575864D01*
X721128Y-1574516D01*
X726364Y-1574000D01*
X797636Y-1574000D01*
X802871Y-1574516D01*
X807315Y-1575864D01*
X811108Y-1577891D01*
X813371Y-1578828D01*
X815775Y-1579306D01*
X818225Y-1579306D01*
X820629Y-1578828D01*
X822892Y-1577891D01*
X826685Y-1575864D01*
X831128Y-1574516D01*
X836364Y-1574000D01*
X907636Y-1574000D01*
X912871Y-1574516D01*
X917315Y-1575864D01*
X921108Y-1577891D01*
X923371Y-1578828D01*
X925775Y-1579306D01*
X928225Y-1579306D01*
X930629Y-1578828D01*
X932892Y-1577891D01*
X936685Y-1575864D01*
X941128Y-1574516D01*
X946364Y-1574000D01*
X1017636Y-1574000D01*
X1022871Y-1574516D01*
X1027315Y-1575864D01*
X1031108Y-1577891D01*
X1033371Y-1578828D01*
X1035775Y-1579306D01*
X1038225Y-1579306D01*
X1040629Y-1578828D01*
X1042892Y-1577891D01*
X1046685Y-1575864D01*
X1051129Y-1574516D01*
X1056364Y-1574000D01*
X1127636Y-1574000D01*
X1132872Y-1574516D01*
X1137316Y-1575864D01*
X1142157Y-1578451D01*
X1142795Y-1578878D01*
X1145059Y-1579816D01*
X1147462Y-1580294D01*
X1149913Y-1580294D01*
X1152316Y-1579816D01*
X1154580Y-1578878D01*
X1156318Y-1577717D01*
X1160141Y-1575673D01*
X1164116Y-1574468D01*
X1168864Y-1574000D01*
X1235136Y-1574000D01*
X1239884Y-1574468D01*
X1243859Y-1575673D01*
X1247522Y-1577631D01*
X1250733Y-1580267D01*
X1253369Y-1583478D01*
X1255327Y-1587141D01*
X1256532Y-1591116D01*
X1257000Y-1595864D01*
X1257000Y-1772136D01*
X1256532Y-1776884D01*
X1255327Y-1780859D01*
X1253369Y-1784522D01*
X1250733Y-1787733D01*
X1247522Y-1790368D01*
X1243859Y-1792327D01*
X1239884Y-1793532D01*
X1235136Y-1794000D01*
X1168864Y-1794000D01*
X1164116Y-1793532D01*
X1160141Y-1792327D01*
X1156318Y-1790283D01*
X1154580Y-1789122D01*
X1152316Y-1788184D01*
X1149913Y-1787706D01*
X1147462Y-1787706D01*
X1145059Y-1788184D01*
X1142795Y-1789122D01*
X1142157Y-1789549D01*
X1137316Y-1792136D01*
X1132872Y-1793484D01*
X1127636Y-1794000D01*
X1056364Y-1794000D01*
X1051129Y-1793484D01*
X1046685Y-1792136D01*
X1042892Y-1790109D01*
X1040628Y-1789172D01*
X1038225Y-1788694D01*
X1035775Y-1788694D01*
X1033371Y-1789172D01*
X1031108Y-1790109D01*
X1027315Y-1792136D01*
X1022871Y-1793484D01*
X1017636Y-1794000D01*
X946364Y-1794000D01*
X941128Y-1793484D01*
X936685Y-1792136D01*
X932892Y-1790109D01*
X930628Y-1789172D01*
X928225Y-1788694D01*
X925775Y-1788694D01*
X923371Y-1789172D01*
X921108Y-1790109D01*
X917315Y-1792136D01*
X912871Y-1793484D01*
X907636Y-1794000D01*
X836364Y-1794000D01*
X831128Y-1793484D01*
X826685Y-1792136D01*
X822892Y-1790109D01*
X820628Y-1789172D01*
X818225Y-1788694D01*
X815775Y-1788694D01*
X813371Y-1789172D01*
X811108Y-1790109D01*
X807315Y-1792136D01*
X802871Y-1793484D01*
X797636Y-1794000D01*
X726364Y-1794000D01*
X721128Y-1793484D01*
X716685Y-1792136D01*
X712892Y-1790109D01*
X710628Y-1789172D01*
X708225Y-1788694D01*
X705775Y-1788694D01*
X703371Y-1789172D01*
X701108Y-1790109D01*
X697315Y-1792136D01*
X692872Y-1793484D01*
X687636Y-1794000D01*
X616364Y-1794000D01*
X611129Y-1793484D01*
X606685Y-1792136D01*
X602892Y-1790109D01*
X600629Y-1789172D01*
X598225Y-1788694D01*
X595775Y-1788694D01*
X593371Y-1789172D01*
X591108Y-1790109D01*
X587315Y-1792136D01*
X582872Y-1793484D01*
X577636Y-1794000D01*
X506364Y-1794000D01*
X501128Y-1793484D01*
X496685Y-1792136D01*
X492892Y-1790109D01*
X490628Y-1789172D01*
X488225Y-1788694D01*
X485775Y-1788694D01*
X483371Y-1789172D01*
X481108Y-1790109D01*
X477315Y-1792136D01*
X472871Y-1793484D01*
X467636Y-1794000D01*
X396364Y-1794000D01*
X391128Y-1793484D01*
X386684Y-1792136D01*
X381843Y-1789549D01*
X381205Y-1789122D01*
X378941Y-1788184D01*
X376538Y-1787706D01*
X374087Y-1787706D01*
X371684Y-1788184D01*
X369420Y-1789122D01*
X367682Y-1790283D01*
X363859Y-1792327D01*
X359884Y-1793532D01*
X355136Y-1794000D01*
X288864Y-1794000D01*
X284116Y-1793532D01*
X280141Y-1792327D01*
X276478Y-1790368D01*
X273267Y-1787733D01*
X270632Y-1784522D01*
X268673Y-1780859D01*
X267468Y-1776884D01*
X267000Y-1772136D01*
X267000Y-1595864D01*
X267468Y-1591116D01*
X268673Y-1587141D01*
X270632Y-1583478D01*
X273267Y-1580267D01*
X276478Y-1577631D01*
X280141Y-1575673D01*
X284116Y-1574468D01*
X288864Y-1574000D01*
X355136Y-1574000D01*
X359884Y-1574468D01*
G37*
G36*
X281862Y-1330052D02*
G01*
X286659Y-1331507D01*
X291078Y-1333869D01*
X294952Y-1337048D01*
X298131Y-1340922D01*
X300493Y-1345342D01*
X301948Y-1350138D01*
X302500Y-1355739D01*
X302500Y-1438261D01*
X301948Y-1443862D01*
X300493Y-1448658D01*
X298131Y-1453078D01*
X294952Y-1456952D01*
X291078Y-1460131D01*
X286659Y-1462493D01*
X281862Y-1463948D01*
X276261Y-1464500D01*
X201239Y-1464500D01*
X195638Y-1463948D01*
X190841Y-1462493D01*
X186422Y-1460131D01*
X182548Y-1456952D01*
X179369Y-1453078D01*
X177007Y-1448658D01*
X175552Y-1443862D01*
X175000Y-1438261D01*
X175000Y-1355739D01*
X175552Y-1350138D01*
X177007Y-1345342D01*
X179369Y-1340922D01*
X182548Y-1337048D01*
X186422Y-1333869D01*
X190841Y-1331507D01*
X195638Y-1330052D01*
X201239Y-1329500D01*
X276261Y-1329500D01*
X281862Y-1330052D01*
G37*
G36*
X1391862Y-1330052D02*
G01*
X1396659Y-1331507D01*
X1401078Y-1333869D01*
X1404952Y-1337048D01*
X1408131Y-1340922D01*
X1410493Y-1345342D01*
X1411948Y-1350138D01*
X1412500Y-1355739D01*
X1412500Y-1438261D01*
X1411948Y-1443862D01*
X1410493Y-1448658D01*
X1408131Y-1453078D01*
X1404952Y-1456952D01*
X1401078Y-1460131D01*
X1396659Y-1462493D01*
X1391862Y-1463948D01*
X1386261Y-1464500D01*
X1311239Y-1464500D01*
X1305638Y-1463948D01*
X1300842Y-1462493D01*
X1296422Y-1460131D01*
X1292548Y-1456952D01*
X1289369Y-1453078D01*
X1287007Y-1448658D01*
X1285552Y-1443862D01*
X1285000Y-1438261D01*
X1285000Y-1355739D01*
X1285552Y-1350138D01*
X1287007Y-1345342D01*
X1289369Y-1340922D01*
X1292548Y-1337048D01*
X1296422Y-1333869D01*
X1300842Y-1331507D01*
X1305638Y-1330052D01*
X1311239Y-1329500D01*
X1386261Y-1329500D01*
X1391862Y-1330052D01*
G37*
G36*
X916862Y-1330052D02*
G01*
X921658Y-1331507D01*
X926078Y-1333869D01*
X929952Y-1337048D01*
X933131Y-1340922D01*
X935493Y-1345342D01*
X936948Y-1350138D01*
X937500Y-1355739D01*
X937500Y-1438261D01*
X936948Y-1443862D01*
X935493Y-1448658D01*
X933131Y-1453078D01*
X929952Y-1456952D01*
X926078Y-1460131D01*
X921658Y-1462493D01*
X916862Y-1463948D01*
X911261Y-1464500D01*
X836239Y-1464500D01*
X830638Y-1463948D01*
X825841Y-1462493D01*
X821422Y-1460131D01*
X817548Y-1456952D01*
X814369Y-1453078D01*
X812007Y-1448658D01*
X810552Y-1443862D01*
X810000Y-1438261D01*
X810000Y-1355739D01*
X810552Y-1350138D01*
X812007Y-1345342D01*
X814369Y-1340922D01*
X817548Y-1337048D01*
X821422Y-1333869D01*
X825841Y-1331507D01*
X830638Y-1330052D01*
X836239Y-1329500D01*
X911261Y-1329500D01*
X916862Y-1330052D01*
G37*
G36*
X756862Y-1330052D02*
G01*
X761658Y-1331507D01*
X766078Y-1333869D01*
X769952Y-1337048D01*
X773131Y-1340922D01*
X775493Y-1345342D01*
X776948Y-1350138D01*
X777500Y-1355739D01*
X777500Y-1438261D01*
X776948Y-1443862D01*
X775493Y-1448658D01*
X773131Y-1453078D01*
X769952Y-1456952D01*
X766078Y-1460131D01*
X761658Y-1462493D01*
X756862Y-1463948D01*
X751261Y-1464500D01*
X676239Y-1464500D01*
X670638Y-1463948D01*
X665842Y-1462493D01*
X661422Y-1460131D01*
X657548Y-1456952D01*
X654369Y-1453078D01*
X652007Y-1448658D01*
X650552Y-1443862D01*
X650000Y-1438261D01*
X650000Y-1355739D01*
X650552Y-1350138D01*
X652007Y-1345342D01*
X654369Y-1340922D01*
X657548Y-1337048D01*
X661422Y-1333869D01*
X665842Y-1331507D01*
X670638Y-1330052D01*
X676239Y-1329500D01*
X751261Y-1329500D01*
X756862Y-1330052D01*
G37*
G36*
X599362Y-1330052D02*
G01*
X604159Y-1331507D01*
X608578Y-1333869D01*
X612452Y-1337048D01*
X615631Y-1340922D01*
X617993Y-1345342D01*
X619448Y-1350138D01*
X620000Y-1355739D01*
X620000Y-1438261D01*
X619448Y-1443862D01*
X617993Y-1448658D01*
X615631Y-1453078D01*
X612452Y-1456952D01*
X608578Y-1460131D01*
X604159Y-1462493D01*
X599362Y-1463948D01*
X593761Y-1464500D01*
X518739Y-1464500D01*
X513138Y-1463948D01*
X508341Y-1462493D01*
X503922Y-1460131D01*
X500048Y-1456952D01*
X496869Y-1453078D01*
X494507Y-1448658D01*
X493052Y-1443862D01*
X492500Y-1438261D01*
X492500Y-1355739D01*
X493052Y-1350138D01*
X494507Y-1345342D01*
X496869Y-1340922D01*
X500048Y-1337048D01*
X503922Y-1333869D01*
X508341Y-1331507D01*
X513138Y-1330052D01*
X518739Y-1329500D01*
X593761Y-1329500D01*
X599362Y-1330052D01*
G37*
G36*
X439362Y-1330052D02*
G01*
X444158Y-1331507D01*
X448578Y-1333869D01*
X452452Y-1337048D01*
X455631Y-1340922D01*
X457993Y-1345342D01*
X459448Y-1350138D01*
X460000Y-1355739D01*
X460000Y-1438261D01*
X459448Y-1443862D01*
X457993Y-1448658D01*
X455631Y-1453078D01*
X452452Y-1456952D01*
X448578Y-1460131D01*
X444158Y-1462493D01*
X439362Y-1463948D01*
X433761Y-1464500D01*
X358739Y-1464500D01*
X353138Y-1463948D01*
X348342Y-1462493D01*
X343922Y-1460131D01*
X340048Y-1456952D01*
X336869Y-1453078D01*
X334507Y-1448658D01*
X333052Y-1443862D01*
X332500Y-1438261D01*
X332500Y-1355739D01*
X333052Y-1350138D01*
X334507Y-1345342D01*
X336869Y-1340922D01*
X340048Y-1337048D01*
X343922Y-1333869D01*
X348342Y-1331507D01*
X353138Y-1330052D01*
X358739Y-1329500D01*
X433761Y-1329500D01*
X439362Y-1330052D01*
G37*
G36*
X1074362Y-1330052D02*
G01*
X1079159Y-1331507D01*
X1083578Y-1333869D01*
X1087452Y-1337048D01*
X1090631Y-1340922D01*
X1092993Y-1345342D01*
X1094448Y-1350138D01*
X1095000Y-1355739D01*
X1095000Y-1438261D01*
X1094448Y-1443862D01*
X1092993Y-1448658D01*
X1090631Y-1453078D01*
X1087452Y-1456952D01*
X1083578Y-1460131D01*
X1079159Y-1462493D01*
X1074362Y-1463948D01*
X1068761Y-1464500D01*
X993739Y-1464500D01*
X988138Y-1463948D01*
X983341Y-1462493D01*
X978922Y-1460131D01*
X975048Y-1456952D01*
X971869Y-1453078D01*
X969507Y-1448658D01*
X968052Y-1443862D01*
X967500Y-1438261D01*
X967500Y-1355739D01*
X968052Y-1350138D01*
X969507Y-1345342D01*
X971869Y-1340922D01*
X975048Y-1337048D01*
X978922Y-1333869D01*
X983341Y-1331507D01*
X988138Y-1330052D01*
X993739Y-1329500D01*
X1068761Y-1329500D01*
X1074362Y-1330052D01*
G37*
G36*
X1234362Y-1330052D02*
G01*
X1239159Y-1331507D01*
X1243578Y-1333869D01*
X1247452Y-1337048D01*
X1250631Y-1340922D01*
X1252993Y-1345342D01*
X1254448Y-1350138D01*
X1255000Y-1355739D01*
X1255000Y-1438261D01*
X1254448Y-1443862D01*
X1252993Y-1448658D01*
X1250631Y-1453078D01*
X1247452Y-1456952D01*
X1243578Y-1460131D01*
X1239159Y-1462493D01*
X1234362Y-1463948D01*
X1228761Y-1464500D01*
X1153739Y-1464500D01*
X1148138Y-1463948D01*
X1143342Y-1462493D01*
X1138922Y-1460131D01*
X1135048Y-1456952D01*
X1131869Y-1453078D01*
X1129507Y-1448658D01*
X1128052Y-1443862D01*
X1127500Y-1438261D01*
X1127500Y-1355739D01*
X1128052Y-1350138D01*
X1129507Y-1345342D01*
X1131869Y-1340922D01*
X1135048Y-1337048D01*
X1138922Y-1333869D01*
X1143342Y-1331507D01*
X1148138Y-1330052D01*
X1153739Y-1329500D01*
X1228761Y-1329500D01*
X1234362Y-1330052D01*
G37*
G36*
X1313000Y-1237500D02*
G01*
X1173000Y-1237500D01*
X1173000Y-997500D01*
X1313000Y-997500D01*
X1313000Y-1237500D01*
G37*
G36*
X913000Y-1237500D02*
G01*
X773000Y-1237500D01*
X773000Y-997500D01*
X913000Y-997500D01*
X913000Y-1237500D01*
G37*
G36*
X1113000Y-1237500D02*
G01*
X973000Y-1237500D01*
X973000Y-997500D01*
X1113000Y-997500D01*
X1113000Y-1237500D01*
G37*
G36*
X513000Y-1237500D02*
G01*
X373000Y-1237500D01*
X373000Y-997500D01*
X513000Y-997500D01*
X513000Y-1237500D01*
G37*
G36*
X1913000Y-1237500D02*
G01*
X1773000Y-1237500D01*
X1773000Y-997500D01*
X1913000Y-997500D01*
X1913000Y-1237500D01*
G37*
G36*
X1713000Y-1237500D02*
G01*
X1573000Y-1237500D01*
X1573000Y-997500D01*
X1713000Y-997500D01*
X1713000Y-1237500D01*
G37*
G36*
X1513000Y-1237500D02*
G01*
X1373000Y-1237500D01*
X1373000Y-997500D01*
X1513000Y-997500D01*
X1513000Y-1237500D01*
G37*
G36*
X713000Y-1237500D02*
G01*
X573000Y-1237500D01*
X573000Y-997500D01*
X713000Y-997500D01*
X713000Y-1237500D01*
G37*
G36*
X116297Y602500D02*
G01*
X138504Y598083D01*
X171262Y584514D01*
X200743Y564815D01*
X225815Y539743D01*
X245514Y510262D01*
X259083Y477504D01*
X266000Y442728D01*
X266000Y407272D01*
X259083Y372496D01*
X245514Y339738D01*
X225815Y310257D01*
X200743Y285185D01*
X171262Y265486D01*
X138504Y251917D01*
X121116Y248459D01*
X103729Y245000D01*
X68271Y245000D01*
X50884Y248459D01*
X33496Y251917D01*
X738Y265486D01*
X-28743Y285185D01*
X-53815Y310257D01*
X-73514Y339738D01*
X-87083Y372496D01*
X-94000Y407272D01*
X-94000Y442728D01*
X-87083Y477504D01*
X-73514Y510262D01*
X-53815Y539743D01*
X-28743Y564815D01*
X738Y584514D01*
X33496Y598083D01*
X55703Y602500D01*
X68271Y605000D01*
X103729Y605000D01*
X116297Y602500D01*
G37*
G36*
X2241297Y602500D02*
G01*
X2263504Y598083D01*
X2296262Y584514D01*
X2325743Y564815D01*
X2350815Y539743D01*
X2370514Y510262D01*
X2384083Y477504D01*
X2391000Y442728D01*
X2391000Y407272D01*
X2384083Y372496D01*
X2370514Y339738D01*
X2350815Y310257D01*
X2325743Y285185D01*
X2296262Y265486D01*
X2263504Y251917D01*
X2246116Y248459D01*
X2228729Y245000D01*
X2193271Y245000D01*
X2175884Y248459D01*
X2158496Y251917D01*
X2125738Y265486D01*
X2096257Y285185D01*
X2071185Y310257D01*
X2051486Y339738D01*
X2037917Y372496D01*
X2031000Y407272D01*
X2031000Y442728D01*
X2037917Y477504D01*
X2051486Y510262D01*
X2071185Y539743D01*
X2096257Y564815D01*
X2125738Y584514D01*
X2158496Y598083D01*
X2180703Y602500D01*
X2193271Y605000D01*
X2228729Y605000D01*
X2241297Y602500D01*
G37*
G36*
X513000Y362500D02*
G01*
X373000Y362500D01*
X373000Y602500D01*
X513000Y602500D01*
X513000Y362500D01*
G37*
G36*
X713000Y362500D02*
G01*
X573000Y362500D01*
X573000Y602500D01*
X713000Y602500D01*
X713000Y362500D01*
G37*
G36*
X913000Y362500D02*
G01*
X773000Y362500D01*
X773000Y602500D01*
X913000Y602500D01*
X913000Y362500D01*
G37*
G36*
X1113000Y362500D02*
G01*
X973000Y362500D01*
X973000Y602500D01*
X1113000Y602500D01*
X1113000Y362500D01*
G37*
G36*
X1313000Y362500D02*
G01*
X1173000Y362500D01*
X1173000Y602500D01*
X1313000Y602500D01*
X1313000Y362500D01*
G37*
G36*
X1513000Y362500D02*
G01*
X1373000Y362500D01*
X1373000Y602500D01*
X1513000Y602500D01*
X1513000Y362500D01*
G37*
G36*
X1913000Y362500D02*
G01*
X1773000Y362500D01*
X1773000Y602500D01*
X1913000Y602500D01*
X1913000Y362500D01*
G37*
G36*
X1713000Y362500D02*
G01*
X1573000Y362500D01*
X1573000Y602500D01*
X1713000Y602500D01*
X1713000Y362500D01*
G37*
M02*
