%TF.GenerationSoftware,KiCad,Pcbnew,5.1.5+dfsg1-2~bpo10+1*%
%TF.CreationDate,2020-10-10T09:04:37+00:00*%
%TF.ProjectId,CO2,434f322e-6b69-4636-9164-5f7063625858,rev?*%
%TF.SameCoordinates,Original*%
%TF.FileFunction,Other,Fab,Top*%
%FSLAX45Y45*%
G04 Gerber Fmt 4.5, Leading zero omitted, Abs format (unit mm)*
G04 Created by KiCad (PCBNEW 5.1.5+dfsg1-2~bpo10+1) date 2020-10-10 09:04:37*
%MOMM*%
%LPD*%
G04 APERTURE LIST*
%ADD10C,0.120000*%
%ADD11C,0.100000*%
%ADD12C,0.110000*%
%ADD13C,0.150000*%
%ADD14C,0.060000*%
%ADD15C,0.075000*%
G04 APERTURE END LIST*
D10*
X-63500Y-4254500D02*
G75*
G02X-190500Y-4127500I0J127000D01*
G01*
X2476500Y-4127500D02*
G75*
G02X2349500Y-4254500I-127000J0D01*
G01*
X-190500Y507511D02*
G75*
G02X-63500Y634511I127000J0D01*
G01*
X2349500Y634511D02*
G75*
G02X2476500Y507511I0J-127000D01*
G01*
X2476500Y-4127500D02*
X2476500Y508000D01*
X-63500Y-4254500D02*
X2349500Y-4254500D01*
X-190500Y508000D02*
X-190500Y-4127500D01*
X2349500Y634511D02*
X-63500Y634511D01*
D11*
X1293000Y306000D02*
X1218000Y231000D01*
X1293000Y531000D02*
X1293000Y306000D01*
X993000Y531000D02*
X1293000Y531000D01*
X993000Y231000D02*
X993000Y531000D01*
X1218000Y231000D02*
X993000Y231000D01*
X2133600Y-3111500D02*
X2070100Y-3175000D01*
X2133600Y-2159000D02*
X2133600Y-3111500D01*
X1879600Y-2159000D02*
X2133600Y-2159000D01*
X1879600Y-3175000D02*
X1879600Y-2159000D01*
X2070100Y-3175000D02*
X1879600Y-3175000D01*
X785500Y301000D02*
X785500Y461000D01*
X865500Y301000D02*
X785500Y301000D01*
X865500Y461000D02*
X865500Y301000D01*
X785500Y461000D02*
X865500Y461000D01*
X1500500Y461000D02*
X1500500Y301000D01*
X1420500Y461000D02*
X1500500Y461000D01*
X1420500Y301000D02*
X1420500Y461000D01*
X1500500Y301000D02*
X1420500Y301000D01*
X715000Y-2961000D02*
X555000Y-2961000D01*
X715000Y-2881000D02*
X715000Y-2961000D01*
X555000Y-2881000D02*
X715000Y-2881000D01*
X555000Y-2961000D02*
X555000Y-2881000D01*
X555000Y-3135000D02*
X715000Y-3135000D01*
X555000Y-3215000D02*
X555000Y-3135000D01*
X715000Y-3215000D02*
X555000Y-3215000D01*
X715000Y-3135000D02*
X715000Y-3215000D01*
X1454000Y-3200000D02*
X1594000Y-3200000D01*
X1594000Y-2896000D02*
X1594000Y-3200000D01*
X1454000Y-2953000D02*
X1509000Y-2896000D01*
X1509000Y-2896000D02*
X1594000Y-2896000D01*
X1454000Y-2953000D02*
X1454000Y-3198000D01*
X1914500Y-3746500D02*
G75*
G03X1914500Y-3746500I-200000J0D01*
G01*
X1464500Y-3496500D02*
X1464500Y-3996500D01*
X1964500Y-3496500D02*
X1464500Y-3496500D01*
X1964500Y-3996500D02*
X1964500Y-3496500D01*
X1464500Y-3996500D02*
X1964500Y-3996500D01*
X1864500Y-3496500D02*
X1964500Y-3596500D01*
X1343000Y-3746500D02*
G75*
G03X1343000Y-3746500I-200000J0D01*
G01*
X893000Y-3496500D02*
X893000Y-3996500D01*
X1393000Y-3496500D02*
X893000Y-3496500D01*
X1393000Y-3996500D02*
X1393000Y-3496500D01*
X893000Y-3996500D02*
X1393000Y-3996500D01*
X1293000Y-3496500D02*
X1393000Y-3596500D01*
X771500Y-3746500D02*
G75*
G03X771500Y-3746500I-200000J0D01*
G01*
X321500Y-3496500D02*
X321500Y-3996500D01*
X821500Y-3496500D02*
X321500Y-3496500D01*
X821500Y-3996500D02*
X821500Y-3496500D01*
X321500Y-3996500D02*
X821500Y-3996500D01*
X721500Y-3496500D02*
X821500Y-3596500D01*
D12*
X1085857Y422071D02*
X1085857Y361357D01*
X1089429Y354214D01*
X1093000Y350643D01*
X1100143Y347072D01*
X1114429Y347072D01*
X1121571Y350643D01*
X1125143Y354214D01*
X1128714Y361357D01*
X1128714Y422071D01*
X1196571Y422071D02*
X1182286Y422071D01*
X1175143Y418500D01*
X1171571Y414929D01*
X1164429Y404214D01*
X1160857Y389929D01*
X1160857Y361357D01*
X1164429Y354214D01*
X1168000Y350643D01*
X1175143Y347072D01*
X1189429Y347072D01*
X1196571Y350643D01*
X1200143Y354214D01*
X1203714Y361357D01*
X1203714Y379214D01*
X1200143Y386357D01*
X1196571Y389929D01*
X1189429Y393500D01*
X1175143Y393500D01*
X1168000Y389929D01*
X1164429Y386357D01*
X1160857Y379214D01*
D13*
X1951838Y-2700333D02*
X2023267Y-2700333D01*
X2037552Y-2705095D01*
X2047076Y-2714619D01*
X2051838Y-2728905D01*
X2051838Y-2738429D01*
X1961362Y-2657476D02*
X1956600Y-2652714D01*
X1951838Y-2643190D01*
X1951838Y-2619381D01*
X1956600Y-2609857D01*
X1961362Y-2605095D01*
X1970886Y-2600333D01*
X1980409Y-2600333D01*
X1994695Y-2605095D01*
X2051838Y-2662238D01*
X2051838Y-2600333D01*
D14*
X839786Y374333D02*
X841690Y372429D01*
X843595Y366714D01*
X843595Y362905D01*
X841690Y357190D01*
X837881Y353381D01*
X834071Y351476D01*
X826452Y349571D01*
X820738Y349571D01*
X813119Y351476D01*
X809309Y353381D01*
X805500Y357190D01*
X803595Y362905D01*
X803595Y366714D01*
X805500Y372429D01*
X807405Y374333D01*
X803595Y387667D02*
X803595Y414333D01*
X843595Y397190D01*
X1474786Y374333D02*
X1476690Y372429D01*
X1478595Y366714D01*
X1478595Y362905D01*
X1476690Y357190D01*
X1472881Y353381D01*
X1469071Y351476D01*
X1461452Y349571D01*
X1455738Y349571D01*
X1448119Y351476D01*
X1444309Y353381D01*
X1440500Y357190D01*
X1438595Y362905D01*
X1438595Y366714D01*
X1440500Y372429D01*
X1442405Y374333D01*
X1438595Y408619D02*
X1438595Y401000D01*
X1440500Y397190D01*
X1442405Y395286D01*
X1448119Y391476D01*
X1455738Y389571D01*
X1470976Y389571D01*
X1474786Y391476D01*
X1476690Y393381D01*
X1478595Y397190D01*
X1478595Y404810D01*
X1476690Y408619D01*
X1474786Y410524D01*
X1470976Y412429D01*
X1461452Y412429D01*
X1457643Y410524D01*
X1455738Y408619D01*
X1453833Y404810D01*
X1453833Y397190D01*
X1455738Y393381D01*
X1457643Y391476D01*
X1461452Y389571D01*
X628333Y-2939095D02*
X615000Y-2920048D01*
X605476Y-2939095D02*
X605476Y-2899095D01*
X620714Y-2899095D01*
X624524Y-2901000D01*
X626429Y-2902905D01*
X628333Y-2906714D01*
X628333Y-2912428D01*
X626429Y-2916238D01*
X624524Y-2918143D01*
X620714Y-2920048D01*
X605476Y-2920048D01*
X662619Y-2899095D02*
X655000Y-2899095D01*
X651190Y-2901000D01*
X649286Y-2902905D01*
X645476Y-2908619D01*
X643571Y-2916238D01*
X643571Y-2931476D01*
X645476Y-2935286D01*
X647381Y-2937190D01*
X651190Y-2939095D01*
X658810Y-2939095D01*
X662619Y-2937190D01*
X664524Y-2935286D01*
X666429Y-2931476D01*
X666429Y-2921952D01*
X664524Y-2918143D01*
X662619Y-2916238D01*
X658810Y-2914333D01*
X651190Y-2914333D01*
X647381Y-2916238D01*
X645476Y-2918143D01*
X643571Y-2921952D01*
X628333Y-3193095D02*
X615000Y-3174048D01*
X605476Y-3193095D02*
X605476Y-3153095D01*
X620714Y-3153095D01*
X624524Y-3155000D01*
X626429Y-3156905D01*
X628333Y-3160714D01*
X628333Y-3166428D01*
X626429Y-3170238D01*
X624524Y-3172143D01*
X620714Y-3174048D01*
X605476Y-3174048D01*
X664524Y-3153095D02*
X645476Y-3153095D01*
X643571Y-3172143D01*
X645476Y-3170238D01*
X649286Y-3168333D01*
X658810Y-3168333D01*
X662619Y-3170238D01*
X664524Y-3172143D01*
X666429Y-3175952D01*
X666429Y-3185476D01*
X664524Y-3189286D01*
X662619Y-3191190D01*
X658810Y-3193095D01*
X649286Y-3193095D01*
X645476Y-3191190D01*
X643571Y-3189286D01*
D15*
X1551381Y-3052762D02*
X1549000Y-3057524D01*
X1544238Y-3062286D01*
X1537095Y-3069428D01*
X1534714Y-3074190D01*
X1534714Y-3078952D01*
X1546619Y-3076571D02*
X1544238Y-3081333D01*
X1539476Y-3086095D01*
X1529952Y-3088476D01*
X1513286Y-3088476D01*
X1503762Y-3086095D01*
X1499000Y-3081333D01*
X1496619Y-3076571D01*
X1496619Y-3067048D01*
X1499000Y-3062286D01*
X1503762Y-3057524D01*
X1513286Y-3055143D01*
X1529952Y-3055143D01*
X1539476Y-3057524D01*
X1544238Y-3062286D01*
X1546619Y-3067048D01*
X1546619Y-3076571D01*
X1546619Y-3007524D02*
X1546619Y-3036095D01*
X1546619Y-3021809D02*
X1496619Y-3021809D01*
X1503762Y-3026571D01*
X1508524Y-3031333D01*
X1510905Y-3036095D01*
D13*
X1623690Y-3805548D02*
X1543690Y-3805548D01*
X1543690Y-3786500D01*
X1547500Y-3775071D01*
X1555119Y-3767452D01*
X1562738Y-3763643D01*
X1577976Y-3759833D01*
X1589405Y-3759833D01*
X1604643Y-3763643D01*
X1612262Y-3767452D01*
X1619881Y-3775071D01*
X1623690Y-3786500D01*
X1623690Y-3805548D01*
X1543690Y-3733167D02*
X1543690Y-3683643D01*
X1574167Y-3710309D01*
X1574167Y-3698881D01*
X1577976Y-3691262D01*
X1581786Y-3687452D01*
X1589405Y-3683643D01*
X1608452Y-3683643D01*
X1616071Y-3687452D01*
X1619881Y-3691262D01*
X1623690Y-3698881D01*
X1623690Y-3721738D01*
X1619881Y-3729357D01*
X1616071Y-3733167D01*
X1052190Y-3805548D02*
X972190Y-3805548D01*
X972190Y-3786500D01*
X976000Y-3775071D01*
X983619Y-3767452D01*
X991238Y-3763643D01*
X1006476Y-3759833D01*
X1017905Y-3759833D01*
X1033143Y-3763643D01*
X1040762Y-3767452D01*
X1048381Y-3775071D01*
X1052190Y-3786500D01*
X1052190Y-3805548D01*
X979809Y-3729357D02*
X976000Y-3725548D01*
X972190Y-3717928D01*
X972190Y-3698881D01*
X976000Y-3691262D01*
X979809Y-3687452D01*
X987428Y-3683643D01*
X995048Y-3683643D01*
X1006476Y-3687452D01*
X1052190Y-3733167D01*
X1052190Y-3683643D01*
X480690Y-3805548D02*
X400690Y-3805548D01*
X400690Y-3786500D01*
X404500Y-3775071D01*
X412119Y-3767452D01*
X419738Y-3763643D01*
X434976Y-3759833D01*
X446405Y-3759833D01*
X461643Y-3763643D01*
X469262Y-3767452D01*
X476881Y-3775071D01*
X480690Y-3786500D01*
X480690Y-3805548D01*
X480690Y-3683643D02*
X480690Y-3729357D01*
X480690Y-3706500D02*
X400690Y-3706500D01*
X412119Y-3714119D01*
X419738Y-3721738D01*
X423548Y-3729357D01*
M02*
