M48
METRIC
T1C0.400
T2C1.000
T3C1.016
%
G90
G05
T1
X2.286Y-28.067
X2.413Y-12.7
X2.54Y-6.223
X3.175Y3.302
X3.429Y-1.016
X3.81Y-15.24
X4.318Y-6.223
X4.318Y-22.86
X5.207Y0.889
X5.461Y-18.669
X5.969Y-37.465
X6.223Y-6.223
X7.112Y0.889
X8.001Y-6.223
X8.89Y-5.08
X8.89Y0.889
X9.271Y-12.827
X10.795Y-1.016
X10.795Y-7.62
X10.795Y-2.54
X11.176Y-33.02
X11.176Y-37.465
X11.303Y-22.86
X11.303Y-20.701
X12.065Y-8.89
X13.97Y2.413
X14.097Y-8.89
X16.51Y-3.81
X16.51Y-13.97
X16.51Y-20.574
X16.891Y-33.02
X17.272Y-26.67
X20.193Y-41.402
T2
X20.066Y-17.78
X20.066Y-20.32
X20.066Y-22.86
X20.066Y-25.4
X20.066Y-27.94
X20.066Y-30.48
T3
X0.0Y0.0
X0.0Y-2.54
X0.0Y-5.08
X0.0Y-7.62
X0.0Y-10.16
X0.0Y-12.7
X0.0Y-15.24
X0.0Y-17.78
X0.0Y-20.32
X0.0Y-22.86
X0.0Y-25.4
X0.0Y-27.94
X0.0Y-30.48
X0.0Y-33.02
X0.0Y-35.56
X22.86Y0.0
X22.86Y-2.54
X22.86Y-5.08
X22.86Y-7.62
X22.86Y-10.16
X22.86Y-12.7
X22.86Y-15.24
X22.86Y-17.78
X22.86Y-20.32
X22.86Y-22.86
X22.86Y-25.4
X22.86Y-27.94
X22.86Y-30.48
X22.86Y-33.02
X22.86Y-35.56
T0
M30
