%TF.GenerationSoftware,KiCad,Pcbnew,5.1.5+dfsg1-2~bpo10+1*%
%TF.CreationDate,Date%
%TF.ProjectId,CO2,434f322e-6b69-4636-9164-5f7063625858,rev?*%
%TF.SameCoordinates,Original*%
%TF.FileFunction,OtherDrawing,Comment*%
%FSLAX45Y45*%
G04 Gerber Fmt 4.5, Leading zero omitted, Abs format (unit mm)*
G04 Created by KiCad*
%MOMM*%
%LPD*%
G04 APERTURE LIST*
%ADD10C,0.120000*%
%ADD11C,0.150000*%
G04 APERTURE END LIST*
D10*
X-63500Y-4254500D02*
G75*
G02X-190500Y-4127500I0J127000D01*
G01*
X2476500Y-4127500D02*
G75*
G02X2349500Y-4254500I-127000J0D01*
G01*
D11*
X-190500Y-3238500D02*
X-190500Y317500D01*
X2159000Y-3238500D02*
X-190500Y-3238500D01*
X2159000Y317500D02*
X2159000Y-3238500D01*
X-190500Y317500D02*
X2159000Y317500D01*
X728714Y1445238D02*
X733476Y1450000D01*
X743000Y1454762D01*
X766809Y1454762D01*
X776333Y1450000D01*
X781095Y1445238D01*
X785857Y1435714D01*
X785857Y1426190D01*
X781095Y1411905D01*
X723952Y1354762D01*
X785857Y1354762D01*
X871571Y1454762D02*
X852524Y1454762D01*
X843000Y1450000D01*
X838238Y1445238D01*
X828714Y1430952D01*
X823952Y1411905D01*
X823952Y1373810D01*
X828714Y1364286D01*
X833476Y1359524D01*
X843000Y1354762D01*
X862048Y1354762D01*
X871571Y1359524D01*
X876333Y1364286D01*
X881095Y1373810D01*
X881095Y1397619D01*
X876333Y1407143D01*
X871571Y1411905D01*
X862048Y1416667D01*
X843000Y1416667D01*
X833476Y1411905D01*
X828714Y1407143D01*
X823952Y1397619D01*
X928714Y1359524D02*
X928714Y1354762D01*
X923952Y1345238D01*
X919190Y1340476D01*
X1014428Y1454762D02*
X995381Y1454762D01*
X985857Y1450000D01*
X981095Y1445238D01*
X971571Y1430952D01*
X966809Y1411905D01*
X966809Y1373810D01*
X971571Y1364286D01*
X976333Y1359524D01*
X985857Y1354762D01*
X1004905Y1354762D01*
X1014428Y1359524D01*
X1019190Y1364286D01*
X1023952Y1373810D01*
X1023952Y1397619D01*
X1019190Y1407143D01*
X1014428Y1411905D01*
X1004905Y1416667D01*
X985857Y1416667D01*
X976333Y1411905D01*
X971571Y1407143D01*
X966809Y1397619D01*
X1057286Y1454762D02*
X1123952Y1454762D01*
X1081095Y1354762D01*
X1181095Y1454762D02*
X1190619Y1454762D01*
X1200143Y1450000D01*
X1204905Y1445238D01*
X1209667Y1435714D01*
X1214429Y1416667D01*
X1214429Y1392857D01*
X1209667Y1373810D01*
X1204905Y1364286D01*
X1200143Y1359524D01*
X1190619Y1354762D01*
X1181095Y1354762D01*
X1171571Y1359524D01*
X1166810Y1364286D01*
X1162048Y1373810D01*
X1157286Y1392857D01*
X1157286Y1416667D01*
X1162048Y1435714D01*
X1166810Y1445238D01*
X1171571Y1450000D01*
X1181095Y1454762D01*
X1333476Y1354762D02*
X1333476Y1421429D01*
X1333476Y1411905D02*
X1338238Y1416667D01*
X1347762Y1421429D01*
X1362048Y1421429D01*
X1371571Y1416667D01*
X1376333Y1407143D01*
X1376333Y1354762D01*
X1376333Y1407143D02*
X1381095Y1416667D01*
X1390619Y1421429D01*
X1404905Y1421429D01*
X1414428Y1416667D01*
X1419190Y1407143D01*
X1419190Y1354762D01*
X1466809Y1354762D02*
X1466809Y1421429D01*
X1466809Y1411905D02*
X1471571Y1416667D01*
X1481095Y1421429D01*
X1495381Y1421429D01*
X1504905Y1416667D01*
X1509667Y1407143D01*
X1509667Y1354762D01*
X1509667Y1407143D02*
X1514428Y1416667D01*
X1523952Y1421429D01*
X1538238Y1421429D01*
X1547762Y1416667D01*
X1552524Y1407143D01*
X1552524Y1354762D01*
X-190500Y1270000D02*
X2476500Y1270000D01*
X-190500Y508000D02*
X-190500Y1328642D01*
X2476500Y508000D02*
X2476500Y1328642D01*
X2476500Y1270000D02*
X2363850Y1211358D01*
X2476500Y1270000D02*
X2363850Y1328642D01*
X-190500Y1270000D02*
X-77850Y1211358D01*
X-190500Y1270000D02*
X-77850Y1328642D01*
X3326428Y-1443328D02*
X3259762Y-1443328D01*
X3364524Y-1419518D02*
X3293095Y-1395709D01*
X3293095Y-1457613D01*
X3316905Y-1509994D02*
X3321667Y-1500471D01*
X3326428Y-1495709D01*
X3335952Y-1490947D01*
X3340714Y-1490947D01*
X3350238Y-1495709D01*
X3355000Y-1500471D01*
X3359762Y-1509994D01*
X3359762Y-1529042D01*
X3355000Y-1538566D01*
X3350238Y-1543328D01*
X3340714Y-1548090D01*
X3335952Y-1548090D01*
X3326428Y-1543328D01*
X3321667Y-1538566D01*
X3316905Y-1529042D01*
X3316905Y-1509994D01*
X3312143Y-1500471D01*
X3307381Y-1495709D01*
X3297857Y-1490947D01*
X3278809Y-1490947D01*
X3269286Y-1495709D01*
X3264524Y-1500471D01*
X3259762Y-1509994D01*
X3259762Y-1529042D01*
X3264524Y-1538566D01*
X3269286Y-1543328D01*
X3278809Y-1548090D01*
X3297857Y-1548090D01*
X3307381Y-1543328D01*
X3312143Y-1538566D01*
X3316905Y-1529042D01*
X3264524Y-1595709D02*
X3259762Y-1595709D01*
X3250238Y-1590947D01*
X3245476Y-1586185D01*
X3316905Y-1652852D02*
X3321667Y-1643328D01*
X3326428Y-1638566D01*
X3335952Y-1633804D01*
X3340714Y-1633804D01*
X3350238Y-1638566D01*
X3355000Y-1643328D01*
X3359762Y-1652852D01*
X3359762Y-1671899D01*
X3355000Y-1681423D01*
X3350238Y-1686185D01*
X3340714Y-1690947D01*
X3335952Y-1690947D01*
X3326428Y-1686185D01*
X3321667Y-1681423D01*
X3316905Y-1671899D01*
X3316905Y-1652852D01*
X3312143Y-1643328D01*
X3307381Y-1638566D01*
X3297857Y-1633804D01*
X3278809Y-1633804D01*
X3269286Y-1638566D01*
X3264524Y-1643328D01*
X3259762Y-1652852D01*
X3259762Y-1671899D01*
X3264524Y-1681423D01*
X3269286Y-1686185D01*
X3278809Y-1690947D01*
X3297857Y-1690947D01*
X3307381Y-1686185D01*
X3312143Y-1681423D01*
X3316905Y-1671899D01*
X3259762Y-1738566D02*
X3259762Y-1757613D01*
X3264524Y-1767137D01*
X3269286Y-1771899D01*
X3283571Y-1781423D01*
X3302619Y-1786185D01*
X3340714Y-1786185D01*
X3350238Y-1781423D01*
X3355000Y-1776661D01*
X3359762Y-1767137D01*
X3359762Y-1748090D01*
X3355000Y-1738566D01*
X3350238Y-1733804D01*
X3340714Y-1729042D01*
X3316905Y-1729042D01*
X3307381Y-1733804D01*
X3302619Y-1738566D01*
X3297857Y-1748090D01*
X3297857Y-1767137D01*
X3302619Y-1776661D01*
X3307381Y-1781423D01*
X3316905Y-1786185D01*
X3359762Y-1848090D02*
X3359762Y-1857613D01*
X3355000Y-1867137D01*
X3350238Y-1871899D01*
X3340714Y-1876661D01*
X3321667Y-1881423D01*
X3297857Y-1881423D01*
X3278809Y-1876661D01*
X3269286Y-1871899D01*
X3264524Y-1867137D01*
X3259762Y-1857613D01*
X3259762Y-1848090D01*
X3264524Y-1838566D01*
X3269286Y-1833804D01*
X3278809Y-1829042D01*
X3297857Y-1824280D01*
X3321667Y-1824280D01*
X3340714Y-1829042D01*
X3350238Y-1833804D01*
X3355000Y-1838566D01*
X3359762Y-1848090D01*
X3259762Y-2000471D02*
X3326428Y-2000471D01*
X3316905Y-2000471D02*
X3321667Y-2005232D01*
X3326428Y-2014756D01*
X3326428Y-2029042D01*
X3321667Y-2038566D01*
X3312143Y-2043328D01*
X3259762Y-2043328D01*
X3312143Y-2043328D02*
X3321667Y-2048090D01*
X3326428Y-2057613D01*
X3326428Y-2071899D01*
X3321667Y-2081423D01*
X3312143Y-2086185D01*
X3259762Y-2086185D01*
X3259762Y-2133804D02*
X3326428Y-2133804D01*
X3316905Y-2133804D02*
X3321667Y-2138566D01*
X3326428Y-2148090D01*
X3326428Y-2162375D01*
X3321667Y-2171899D01*
X3312143Y-2176661D01*
X3259762Y-2176661D01*
X3312143Y-2176661D02*
X3321667Y-2181423D01*
X3326428Y-2190947D01*
X3326428Y-2205233D01*
X3321667Y-2214756D01*
X3312143Y-2219518D01*
X3259762Y-2219518D01*
X3175000Y634511D02*
X3175000Y-4254500D01*
X2349500Y634511D02*
X3233642Y634511D01*
X2349500Y-4254500D02*
X3233642Y-4254500D01*
X3175000Y-4254500D02*
X3116358Y-4141850D01*
X3175000Y-4254500D02*
X3233642Y-4141850D01*
X3175000Y634511D02*
X3116358Y521861D01*
X3175000Y634511D02*
X3233642Y521861D01*
D10*
X-190500Y507511D02*
G75*
G02X-63500Y634511I127000J0D01*
G01*
X2349500Y634511D02*
G75*
G02X2476500Y507511I0J-127000D01*
G01*
X2476500Y-4127500D02*
X2476500Y508000D01*
X-63500Y-4254500D02*
X2349500Y-4254500D01*
X-190500Y508000D02*
X-190500Y-4127500D01*
X2349500Y634511D02*
X-63500Y634511D01*
M02*
