%TF.GenerationSoftware,KiCad,Pcbnew,5.1.5+dfsg1-2~bpo10+1*%
%TF.CreationDate,Date%
%TF.ProjectId,CO2,434f322e-6b69-4636-9164-5f7063625858,rev?*%
%TF.SameCoordinates,Original*%
%TF.FileFunction,Other,Comment*%
%FSLAX45Y45*%
G04 Gerber Fmt 4.5, Leading zero omitted, Abs format (unit mm)*
G04 Created by KiCad*
%MOMM*%
%LPD*%
G04 APERTURE LIST*
%ADD10C,2.000000*%
%ADD11C,0.120000*%
G04 APERTURE END LIST*
D10*
X-7249939Y-8271654D02*
X-8098467Y-7423126D01*
X-7896436Y-7221096D01*
X-7734812Y-7140284D01*
X-7573187Y-7140284D01*
X-7451969Y-7180690D01*
X-7249939Y-7301908D01*
X-7128720Y-7423126D01*
X-7007502Y-7625157D01*
X-6967096Y-7746375D01*
X-6967096Y-7908000D01*
X-7047908Y-8069624D01*
X-7249939Y-8271654D01*
X-7088314Y-6412974D02*
X-6926690Y-6251349D01*
X-6805472Y-6210943D01*
X-6643847Y-6210943D01*
X-6441817Y-6332162D01*
X-6158974Y-6615004D01*
X-6037756Y-6817035D01*
X-6037756Y-6978659D01*
X-6078162Y-7099878D01*
X-6239786Y-7261502D01*
X-6361004Y-7301908D01*
X-6522629Y-7301908D01*
X-6724659Y-7180690D01*
X-7007502Y-6897847D01*
X-7128720Y-6695817D01*
X-7128720Y-6534192D01*
X-7088314Y-6412974D01*
X-4865979Y-5887694D02*
X-5714507Y-5039166D01*
X-4381106Y-5402821D01*
X-5229634Y-4554293D01*
X-4663948Y-3988608D02*
X-4502324Y-3826983D01*
X-4381106Y-3786577D01*
X-4219481Y-3786577D01*
X-4017451Y-3907796D01*
X-3734608Y-4190638D01*
X-3613390Y-4392669D01*
X-3613390Y-4554293D01*
X-3653796Y-4675512D01*
X-3815420Y-4837136D01*
X-3936638Y-4877542D01*
X-4098263Y-4877542D01*
X-4300293Y-4756324D01*
X-4583136Y-4473481D01*
X-4704354Y-4271451D01*
X-4704354Y-4109826D01*
X-4663948Y-3988608D01*
X-4057857Y-3382516D02*
X-3572983Y-2897643D01*
X-2966892Y-3988608D02*
X-3815420Y-3140080D01*
X-2643643Y-1968303D02*
X-1956739Y-2655206D01*
X-1835521Y-2695613D01*
X-1754709Y-2695613D01*
X-1633491Y-2655206D01*
X-1471866Y-2493582D01*
X-1431460Y-2372364D01*
X-1431460Y-2291552D01*
X-1471866Y-2170333D01*
X-2158770Y-1483429D01*
X-986993Y-1927897D02*
X-825368Y-1847084D01*
X-623338Y-1645054D01*
X-582932Y-1523835D01*
X-582932Y-1443023D01*
X-623338Y-1321805D01*
X-704150Y-1240993D01*
X-825368Y-1200587D01*
X-906181Y-1200587D01*
X-1027399Y-1240993D01*
X-1229430Y-1362211D01*
X-1350648Y-1402617D01*
X-1431460Y-1402617D01*
X-1552678Y-1362211D01*
X-1633491Y-1281399D01*
X-1673897Y-1160181D01*
X-1673897Y-1079368D01*
X-1633491Y-958150D01*
X-1431460Y-756120D01*
X-1269836Y-675307D01*
X-542526Y-675307D02*
X-259683Y-392465D01*
X306002Y-715713D02*
X-98059Y-1119775D01*
X-946587Y-271246D01*
X-542526Y132815D01*
X346408Y1021749D02*
X831282Y1506622D01*
X1437373Y415657D02*
X588845Y1264186D01*
X1962652Y940937D02*
X1114124Y1789465D01*
X1518185Y1385404D02*
X2003059Y1870277D01*
X2447526Y1425810D02*
X1598998Y2274338D01*
X2851587Y1829871D02*
X2003059Y2678399D01*
X3174835Y2233932D02*
X3336460Y2314744D01*
X3538490Y2516775D01*
X3578897Y2637993D01*
X3578897Y2718805D01*
X3538490Y2840023D01*
X3457678Y2920836D01*
X3336460Y2961242D01*
X3255648Y2961242D01*
X3134429Y2920836D01*
X2932399Y2799617D01*
X2811181Y2759211D01*
X2730368Y2759211D01*
X2609150Y2799617D01*
X2528338Y2880429D01*
X2487932Y3001648D01*
X2487932Y3082460D01*
X2528338Y3203678D01*
X2730368Y3405709D01*
X2891993Y3486521D01*
X4710267Y3688552D02*
X3861739Y4537080D01*
X4063770Y4739110D01*
X4225394Y4819922D01*
X4387019Y4819922D01*
X4508237Y4779516D01*
X4710267Y4658298D01*
X4831486Y4537080D01*
X4952704Y4335049D01*
X4993110Y4213831D01*
X4993110Y4052206D01*
X4912298Y3890582D01*
X4710267Y3688552D01*
X5114328Y4981547D02*
X5397171Y5264390D01*
X5962857Y4941141D02*
X5558796Y4537080D01*
X4710267Y5385608D01*
X5114328Y5789669D01*
X6245699Y5304796D02*
X6407324Y5385608D01*
X6609354Y5587638D01*
X6649760Y5708857D01*
X6649760Y5789669D01*
X6609354Y5910887D01*
X6528542Y5991699D01*
X6407324Y6032105D01*
X6326511Y6032105D01*
X6205293Y5991699D01*
X6003263Y5870481D01*
X5882044Y5830075D01*
X5801232Y5830075D01*
X5680014Y5870481D01*
X5599202Y5951293D01*
X5558796Y6072512D01*
X5558796Y6153324D01*
X5599202Y6274542D01*
X5801232Y6476573D01*
X5962857Y6557385D01*
X7134633Y6112918D02*
X6286105Y6961446D01*
X7175040Y7769568D02*
X7053821Y7729162D01*
X6932603Y7607943D01*
X6851791Y7446319D01*
X6851791Y7284695D01*
X6892197Y7163476D01*
X7013415Y6961446D01*
X7134633Y6840227D01*
X7336664Y6719009D01*
X7457882Y6678603D01*
X7619507Y6678603D01*
X7781131Y6759415D01*
X7861943Y6840227D01*
X7942756Y7001852D01*
X7942756Y7082664D01*
X7659913Y7365507D01*
X7498288Y7203882D01*
X8387223Y7365507D02*
X7538694Y8214035D01*
X8872096Y7850380D01*
X8023568Y8698908D01*
X9841842Y8981751D02*
X9922655Y8981751D01*
X9922655Y8900939D01*
X9841842Y8900939D01*
X9841842Y8981751D01*
X9922655Y8900939D01*
X9599406Y9224188D02*
X9074126Y9668655D01*
X9074126Y9749467D01*
X9154939Y9749467D01*
X9599406Y9224188D01*
X9074126Y9749467D01*
D11*
X-63500Y-4254500D02*
G75*
G02X-190500Y-4127500I0J127000D01*
G01*
X2476500Y-4127500D02*
G75*
G02X2349500Y-4254500I-127000J0D01*
G01*
X-190500Y507511D02*
G75*
G02X-63500Y634511I127000J0D01*
G01*
X2349500Y634511D02*
G75*
G02X2476500Y507511I0J-127000D01*
G01*
X2476500Y-4127500D02*
X2476500Y508000D01*
X-63500Y-4254500D02*
X2349500Y-4254500D01*
X-190500Y508000D02*
X-190500Y-4127500D01*
X2349500Y634511D02*
X-63500Y634511D01*
M02*
