%TF.GenerationSoftware,KiCad,Pcbnew,5.1.5+dfsg1-2~bpo10+1*%
%TF.CreationDate,2020-10-04T09:49:28+00:00*%
%TF.ProjectId,PWR,5057522e-6b69-4636-9164-5f7063625858,rev?*%
%TF.SameCoordinates,Original*%
%TF.FileFunction,Legend,Top*%
%TF.FilePolarity,Positive*%
%FSLAX45Y45*%
G04 Gerber Fmt 4.5, Leading zero omitted, Abs format (unit mm)*
G04 Created by KiCad (PCBNEW 5.1.5+dfsg1-2~bpo10+1) date 2020-10-04 09:49:28*
%MOMM*%
%LPD*%
G04 APERTURE LIST*
%ADD10C,0.250000*%
%ADD11C,0.120000*%
%ADD12C,0.010000*%
%ADD13C,0.150000*%
%ADD14O,2.000000X2.000000*%
%ADD15R,2.000000X2.000000*%
%ADD16R,2.100000X2.100000*%
%ADD17C,2.100000*%
%ADD18C,2.432000*%
%ADD19R,2.432000X2.432000*%
%ADD20O,2.100000X2.100000*%
%ADD21C,2.700000*%
%ADD22R,2.400000X2.700000*%
%ADD23C,2.000000*%
%ADD24O,2.305000X2.400000*%
%ADD25R,2.305000X2.400000*%
%ADD26C,3.000000*%
%ADD27R,3.000000X3.000000*%
G04 APERTURE END LIST*
D10*
X613571Y1074905D02*
X680238Y1074905D01*
X623095Y1074905D02*
X618333Y1079667D01*
X613571Y1089191D01*
X613571Y1103476D01*
X618333Y1113000D01*
X627857Y1117762D01*
X680238Y1117762D01*
X675476Y1203476D02*
X680238Y1193952D01*
X680238Y1174905D01*
X675476Y1165381D01*
X665952Y1160619D01*
X627857Y1160619D01*
X618333Y1165381D01*
X613571Y1174905D01*
X613571Y1193952D01*
X618333Y1203476D01*
X627857Y1208238D01*
X637381Y1208238D01*
X646905Y1160619D01*
X680238Y1251095D02*
X613571Y1251095D01*
X632619Y1251095D02*
X623095Y1255857D01*
X618333Y1260619D01*
X613571Y1270143D01*
X613571Y1279667D01*
X680238Y1355857D02*
X580238Y1355857D01*
X675476Y1355857D02*
X680238Y1346333D01*
X680238Y1327286D01*
X675476Y1317762D01*
X670714Y1313000D01*
X661190Y1308238D01*
X632619Y1308238D01*
X623095Y1313000D01*
X618333Y1317762D01*
X613571Y1327286D01*
X613571Y1346333D01*
X618333Y1355857D01*
X613571Y1393952D02*
X680238Y1417762D01*
X613571Y1441571D02*
X680238Y1417762D01*
X704048Y1408238D01*
X708809Y1403476D01*
X713571Y1393952D01*
X675476Y1474905D02*
X680238Y1484429D01*
X680238Y1503476D01*
X675476Y1513000D01*
X665952Y1517762D01*
X661190Y1517762D01*
X651667Y1513000D01*
X646905Y1503476D01*
X646905Y1489190D01*
X642143Y1479667D01*
X632619Y1474905D01*
X627857Y1474905D01*
X618333Y1479667D01*
X613571Y1489190D01*
X613571Y1503476D01*
X618333Y1513000D01*
X675476Y1603476D02*
X680238Y1593952D01*
X680238Y1574905D01*
X675476Y1565381D01*
X670714Y1560619D01*
X661190Y1555857D01*
X632619Y1555857D01*
X623095Y1560619D01*
X618333Y1565381D01*
X613571Y1574905D01*
X613571Y1593952D01*
X618333Y1603476D01*
X680238Y1660619D02*
X675476Y1651095D01*
X670714Y1646333D01*
X661190Y1641571D01*
X632619Y1641571D01*
X623095Y1646333D01*
X618333Y1651095D01*
X613571Y1660619D01*
X613571Y1674905D01*
X618333Y1684429D01*
X623095Y1689190D01*
X632619Y1693952D01*
X661190Y1693952D01*
X670714Y1689190D01*
X675476Y1684429D01*
X680238Y1674905D01*
X680238Y1660619D01*
X613571Y1779667D02*
X680238Y1779667D01*
X613571Y1736810D02*
X665952Y1736810D01*
X675476Y1741571D01*
X680238Y1751095D01*
X680238Y1765381D01*
X675476Y1774905D01*
X670714Y1779667D01*
X613571Y1813000D02*
X613571Y1851095D01*
X580238Y1827286D02*
X665952Y1827286D01*
X675476Y1832048D01*
X680238Y1841571D01*
X680238Y1851095D01*
X670714Y1884429D02*
X675476Y1889190D01*
X680238Y1884429D01*
X675476Y1879667D01*
X670714Y1884429D01*
X680238Y1884429D01*
X613571Y1974905D02*
X694524Y1974905D01*
X704048Y1970143D01*
X708809Y1965381D01*
X713571Y1955857D01*
X713571Y1941571D01*
X708809Y1932048D01*
X675476Y1974905D02*
X680238Y1965381D01*
X680238Y1946333D01*
X675476Y1936810D01*
X670714Y1932048D01*
X661190Y1927286D01*
X632619Y1927286D01*
X623095Y1932048D01*
X618333Y1936810D01*
X613571Y1946333D01*
X613571Y1965381D01*
X618333Y1974905D01*
X680238Y2022524D02*
X613571Y2022524D01*
X580238Y2022524D02*
X585000Y2017762D01*
X589762Y2022524D01*
X585000Y2027286D01*
X580238Y2022524D01*
X589762Y2022524D01*
X613571Y2055857D02*
X613571Y2093952D01*
X580238Y2070143D02*
X665952Y2070143D01*
X675476Y2074905D01*
X680238Y2084429D01*
X680238Y2093952D01*
X680238Y2127286D02*
X580238Y2127286D01*
X680238Y2170143D02*
X627857Y2170143D01*
X618333Y2165381D01*
X613571Y2155857D01*
X613571Y2141572D01*
X618333Y2132048D01*
X623095Y2127286D01*
X613571Y2260619D02*
X680238Y2260619D01*
X613571Y2217762D02*
X665952Y2217762D01*
X675476Y2222524D01*
X680238Y2232048D01*
X680238Y2246333D01*
X675476Y2255857D01*
X670714Y2260619D01*
X680238Y2308238D02*
X580238Y2308238D01*
X618333Y2308238D02*
X613571Y2317762D01*
X613571Y2336810D01*
X618333Y2346333D01*
X623095Y2351095D01*
X632619Y2355857D01*
X661190Y2355857D01*
X670714Y2351095D01*
X675476Y2346333D01*
X680238Y2336810D01*
X680238Y2317762D01*
X675476Y2308238D01*
X670714Y2398714D02*
X675476Y2403476D01*
X680238Y2398714D01*
X675476Y2393952D01*
X670714Y2398714D01*
X680238Y2398714D01*
X680238Y2446333D02*
X613571Y2446333D01*
X580238Y2446333D02*
X585000Y2441572D01*
X589762Y2446333D01*
X585000Y2451095D01*
X580238Y2446333D01*
X589762Y2446333D01*
X680238Y2508238D02*
X675476Y2498714D01*
X670714Y2493952D01*
X661190Y2489191D01*
X632619Y2489191D01*
X623095Y2493952D01*
X618333Y2498714D01*
X613571Y2508238D01*
X613571Y2522524D01*
X618333Y2532048D01*
X623095Y2536810D01*
X632619Y2541572D01*
X661190Y2541572D01*
X670714Y2536810D01*
X675476Y2532048D01*
X680238Y2522524D01*
X680238Y2508238D01*
X575476Y2655857D02*
X704048Y2570143D01*
X680238Y2689191D02*
X580238Y2689191D01*
X680238Y2746333D01*
X580238Y2746333D01*
X680238Y2808238D02*
X675476Y2798714D01*
X670714Y2793952D01*
X661190Y2789191D01*
X632619Y2789191D01*
X623095Y2793952D01*
X618333Y2798714D01*
X613571Y2808238D01*
X613571Y2822524D01*
X618333Y2832048D01*
X623095Y2836810D01*
X632619Y2841571D01*
X661190Y2841571D01*
X670714Y2836810D01*
X675476Y2832048D01*
X680238Y2822524D01*
X680238Y2808238D01*
X680238Y2927286D02*
X580238Y2927286D01*
X675476Y2927286D02*
X680238Y2917762D01*
X680238Y2898714D01*
X675476Y2889190D01*
X670714Y2884429D01*
X661190Y2879667D01*
X632619Y2879667D01*
X623095Y2884429D01*
X618333Y2889190D01*
X613571Y2898714D01*
X613571Y2917762D01*
X618333Y2927286D01*
X675476Y3013000D02*
X680238Y3003476D01*
X680238Y2984429D01*
X675476Y2974905D01*
X665952Y2970143D01*
X627857Y2970143D01*
X618333Y2974905D01*
X613571Y2984429D01*
X613571Y3003476D01*
X618333Y3013000D01*
X627857Y3017762D01*
X637381Y3017762D01*
X646905Y2970143D01*
X680238Y3060619D02*
X580238Y3060619D01*
X651667Y3093952D01*
X580238Y3127286D01*
X680238Y3127286D01*
X670714Y3232048D02*
X675476Y3227286D01*
X680238Y3213000D01*
X680238Y3203476D01*
X675476Y3189190D01*
X665952Y3179667D01*
X656429Y3174905D01*
X637381Y3170143D01*
X623095Y3170143D01*
X604048Y3174905D01*
X594524Y3179667D01*
X585000Y3189190D01*
X580238Y3203476D01*
X580238Y3213000D01*
X585000Y3227286D01*
X589762Y3232048D01*
X580238Y3274905D02*
X661190Y3274905D01*
X670714Y3279667D01*
X675476Y3284429D01*
X680238Y3293952D01*
X680238Y3313000D01*
X675476Y3322524D01*
X670714Y3327286D01*
X661190Y3332048D01*
X580238Y3332048D01*
X575476Y3451095D02*
X704048Y3365381D01*
X680238Y3484429D02*
X580238Y3484429D01*
X580238Y3522524D01*
X585000Y3532048D01*
X589762Y3536810D01*
X599286Y3541571D01*
X613571Y3541571D01*
X623095Y3536810D01*
X627857Y3532048D01*
X632619Y3522524D01*
X632619Y3484429D01*
X580238Y3574905D02*
X680238Y3598714D01*
X608810Y3617762D01*
X680238Y3636810D01*
X580238Y3660619D01*
X680238Y3755857D02*
X632619Y3722524D01*
X680238Y3698714D02*
X580238Y3698714D01*
X580238Y3736810D01*
X585000Y3746333D01*
X589762Y3751095D01*
X599286Y3755857D01*
X613571Y3755857D01*
X623095Y3751095D01*
X627857Y3746333D01*
X632619Y3736810D01*
X632619Y3698714D01*
D11*
X2476500Y-508000D02*
G75*
G02X2349500Y-635000I-127000J0D01*
G01*
X-190500Y4572000D02*
G75*
G02X-63500Y4699000I127000J0D01*
G01*
X-63500Y-635000D02*
G75*
G02X-190500Y-508000I0J127000D01*
G01*
X2349500Y4699000D02*
G75*
G02X2476500Y4572000I0J-127000D01*
G01*
X-190500Y4572000D02*
X-190500Y-508000D01*
X2349500Y4699000D02*
X-63500Y4699000D01*
X2476500Y-508000D02*
X2476500Y4572000D01*
X-63500Y-635000D02*
X2349500Y-635000D01*
X2300000Y2676500D02*
X2300000Y2076500D01*
X23000Y2773500D02*
X23000Y-620500D01*
X2267000Y2773500D02*
X2267000Y-620500D01*
X2267000Y-620500D02*
X23000Y-620500D01*
X23000Y2773500D02*
X2267000Y2773500D01*
D12*
G36*
X1227649Y1378392D02*
G01*
X1231224Y1388703D01*
X1236851Y1398302D01*
X1244529Y1406875D01*
X1254257Y1414107D01*
X1260389Y1417355D01*
X1268966Y1420167D01*
X1278868Y1421529D01*
X1289047Y1421379D01*
X1298271Y1419703D01*
X1309543Y1415124D01*
X1319321Y1408483D01*
X1327412Y1400119D01*
X1333623Y1390369D01*
X1337763Y1379570D01*
X1339640Y1368060D01*
X1339060Y1356177D01*
X1337821Y1350319D01*
X1333380Y1338903D01*
X1326603Y1328764D01*
X1317700Y1320146D01*
X1306879Y1313293D01*
X1305697Y1312714D01*
X1301263Y1310710D01*
X1297528Y1309451D01*
X1293588Y1308768D01*
X1288538Y1308490D01*
X1283043Y1308443D01*
X1276442Y1308520D01*
X1271669Y1308865D01*
X1267810Y1309652D01*
X1263951Y1311056D01*
X1260143Y1312788D01*
X1249333Y1319250D01*
X1240580Y1327207D01*
X1233884Y1336344D01*
X1229244Y1346346D01*
X1226658Y1356899D01*
X1226127Y1367686D01*
X1227649Y1378392D01*
G37*
X1227649Y1378392D02*
X1231224Y1388703D01*
X1236851Y1398302D01*
X1244529Y1406875D01*
X1254257Y1414107D01*
X1260389Y1417355D01*
X1268966Y1420167D01*
X1278868Y1421529D01*
X1289047Y1421379D01*
X1298271Y1419703D01*
X1309543Y1415124D01*
X1319321Y1408483D01*
X1327412Y1400119D01*
X1333623Y1390369D01*
X1337763Y1379570D01*
X1339640Y1368060D01*
X1339060Y1356177D01*
X1337821Y1350319D01*
X1333380Y1338903D01*
X1326603Y1328764D01*
X1317700Y1320146D01*
X1306879Y1313293D01*
X1305697Y1312714D01*
X1301263Y1310710D01*
X1297528Y1309451D01*
X1293588Y1308768D01*
X1288538Y1308490D01*
X1283043Y1308443D01*
X1276442Y1308520D01*
X1271669Y1308865D01*
X1267810Y1309652D01*
X1263951Y1311056D01*
X1260143Y1312788D01*
X1249333Y1319250D01*
X1240580Y1327207D01*
X1233884Y1336344D01*
X1229244Y1346346D01*
X1226658Y1356899D01*
X1226127Y1367686D01*
X1227649Y1378392D01*
G36*
X1319683Y2335227D02*
G01*
X1319730Y2346904D01*
X1319755Y2350873D01*
X1320114Y2405449D01*
X1529492Y2406135D01*
X1557884Y2406226D01*
X1583664Y2406306D01*
X1606965Y2406382D01*
X1627919Y2406457D01*
X1646662Y2406538D01*
X1663325Y2406629D01*
X1678042Y2406735D01*
X1690948Y2406862D01*
X1702174Y2407016D01*
X1711854Y2407200D01*
X1720123Y2407420D01*
X1727112Y2407682D01*
X1732956Y2407991D01*
X1737787Y2408351D01*
X1741740Y2408768D01*
X1744947Y2409247D01*
X1747542Y2409793D01*
X1749659Y2410412D01*
X1751430Y2411108D01*
X1752989Y2411887D01*
X1754469Y2412754D01*
X1756004Y2413714D01*
X1757728Y2414772D01*
X1758095Y2414988D01*
X1764303Y2418627D01*
X1763943Y2366043D01*
X1763584Y2313459D01*
X1752033Y2312773D01*
X1746490Y2312399D01*
X1743285Y2312010D01*
X1742013Y2311481D01*
X1742270Y2310690D01*
X1743002Y2310027D01*
X1745671Y2307137D01*
X1749102Y2302428D01*
X1752885Y2296562D01*
X1756609Y2290203D01*
X1759865Y2284015D01*
X1762008Y2279263D01*
X1765528Y2268132D01*
X1768022Y2255360D01*
X1769394Y2241890D01*
X1769549Y2228666D01*
X1768391Y2216631D01*
X1768357Y2216433D01*
X1764225Y2199964D01*
X1757641Y2184548D01*
X1748747Y2170333D01*
X1737685Y2157468D01*
X1724596Y2146101D01*
X1709622Y2136381D01*
X1692903Y2128457D01*
X1680519Y2124143D01*
X1670158Y2121298D01*
X1660125Y2119188D01*
X1649811Y2117749D01*
X1638606Y2116916D01*
X1625900Y2116625D01*
X1615525Y2116754D01*
X1615525Y2218065D01*
X1632922Y2218544D01*
X1647889Y2220057D01*
X1660560Y2222649D01*
X1671066Y2226366D01*
X1679541Y2231257D01*
X1686117Y2237366D01*
X1690766Y2244418D01*
X1692501Y2248087D01*
X1693542Y2251270D01*
X1694018Y2254818D01*
X1694060Y2259584D01*
X1693875Y2264719D01*
X1692984Y2274817D01*
X1691240Y2282804D01*
X1690366Y2285314D01*
X1687786Y2291045D01*
X1684545Y2297090D01*
X1682923Y2299730D01*
X1678420Y2306595D01*
X1535698Y2306595D01*
X1531172Y2299043D01*
X1526057Y2288512D01*
X1523032Y2277753D01*
X1522079Y2267158D01*
X1523181Y2257122D01*
X1526318Y2248039D01*
X1531474Y2240301D01*
X1533949Y2237804D01*
X1542058Y2231786D01*
X1551873Y2226915D01*
X1563564Y2223150D01*
X1577298Y2220451D01*
X1593244Y2218778D01*
X1611570Y2218088D01*
X1615525Y2218065D01*
X1615525Y2116754D01*
X1611207Y2116807D01*
X1588605Y2117965D01*
X1568219Y2120292D01*
X1549751Y2123850D01*
X1532905Y2128701D01*
X1517383Y2134906D01*
X1512781Y2137120D01*
X1497774Y2146039D01*
X1484438Y2156816D01*
X1472988Y2169199D01*
X1463639Y2182934D01*
X1456607Y2197768D01*
X1453706Y2206660D01*
X1451984Y2215393D01*
X1450959Y2225901D01*
X1450632Y2237303D01*
X1451001Y2248718D01*
X1452066Y2259265D01*
X1453737Y2267733D01*
X1457014Y2277813D01*
X1461228Y2287582D01*
X1465952Y2296130D01*
X1469158Y2300679D01*
X1471542Y2303817D01*
X1472994Y2306014D01*
X1473200Y2306514D01*
X1471872Y2306669D01*
X1468066Y2306814D01*
X1462052Y2306944D01*
X1454097Y2307058D01*
X1444471Y2307152D01*
X1433442Y2307223D01*
X1421278Y2307267D01*
X1408888Y2307281D01*
X1393020Y2307273D01*
X1379641Y2307234D01*
X1368496Y2307140D01*
X1359330Y2306968D01*
X1351885Y2306696D01*
X1345908Y2306300D01*
X1341140Y2305757D01*
X1337327Y2305044D01*
X1334213Y2304138D01*
X1331542Y2303017D01*
X1329058Y2301656D01*
X1326504Y2300033D01*
X1326188Y2299824D01*
X1322881Y2297731D01*
X1320607Y2296467D01*
X1320127Y2296297D01*
X1319976Y2297622D01*
X1319853Y2301400D01*
X1319760Y2307342D01*
X1319699Y2315154D01*
X1319673Y2324547D01*
X1319683Y2335227D01*
G37*
X1319683Y2335227D02*
X1319730Y2346904D01*
X1319755Y2350873D01*
X1320114Y2405449D01*
X1529492Y2406135D01*
X1557884Y2406226D01*
X1583664Y2406306D01*
X1606965Y2406382D01*
X1627919Y2406457D01*
X1646662Y2406538D01*
X1663325Y2406629D01*
X1678042Y2406735D01*
X1690948Y2406862D01*
X1702174Y2407016D01*
X1711854Y2407200D01*
X1720123Y2407420D01*
X1727112Y2407682D01*
X1732956Y2407991D01*
X1737787Y2408351D01*
X1741740Y2408768D01*
X1744947Y2409247D01*
X1747542Y2409793D01*
X1749659Y2410412D01*
X1751430Y2411108D01*
X1752989Y2411887D01*
X1754469Y2412754D01*
X1756004Y2413714D01*
X1757728Y2414772D01*
X1758095Y2414988D01*
X1764303Y2418627D01*
X1763943Y2366043D01*
X1763584Y2313459D01*
X1752033Y2312773D01*
X1746490Y2312399D01*
X1743285Y2312010D01*
X1742013Y2311481D01*
X1742270Y2310690D01*
X1743002Y2310027D01*
X1745671Y2307137D01*
X1749102Y2302428D01*
X1752885Y2296562D01*
X1756609Y2290203D01*
X1759865Y2284015D01*
X1762008Y2279263D01*
X1765528Y2268132D01*
X1768022Y2255360D01*
X1769394Y2241890D01*
X1769549Y2228666D01*
X1768391Y2216631D01*
X1768357Y2216433D01*
X1764225Y2199964D01*
X1757641Y2184548D01*
X1748747Y2170333D01*
X1737685Y2157468D01*
X1724596Y2146101D01*
X1709622Y2136381D01*
X1692903Y2128457D01*
X1680519Y2124143D01*
X1670158Y2121298D01*
X1660125Y2119188D01*
X1649811Y2117749D01*
X1638606Y2116916D01*
X1625900Y2116625D01*
X1615525Y2116754D01*
X1615525Y2218065D01*
X1632922Y2218544D01*
X1647889Y2220057D01*
X1660560Y2222649D01*
X1671066Y2226366D01*
X1679541Y2231257D01*
X1686117Y2237366D01*
X1690766Y2244418D01*
X1692501Y2248087D01*
X1693542Y2251270D01*
X1694018Y2254818D01*
X1694060Y2259584D01*
X1693875Y2264719D01*
X1692984Y2274817D01*
X1691240Y2282804D01*
X1690366Y2285314D01*
X1687786Y2291045D01*
X1684545Y2297090D01*
X1682923Y2299730D01*
X1678420Y2306595D01*
X1535698Y2306595D01*
X1531172Y2299043D01*
X1526057Y2288512D01*
X1523032Y2277753D01*
X1522079Y2267158D01*
X1523181Y2257122D01*
X1526318Y2248039D01*
X1531474Y2240301D01*
X1533949Y2237804D01*
X1542058Y2231786D01*
X1551873Y2226915D01*
X1563564Y2223150D01*
X1577298Y2220451D01*
X1593244Y2218778D01*
X1611570Y2218088D01*
X1615525Y2218065D01*
X1615525Y2116754D01*
X1611207Y2116807D01*
X1588605Y2117965D01*
X1568219Y2120292D01*
X1549751Y2123850D01*
X1532905Y2128701D01*
X1517383Y2134906D01*
X1512781Y2137120D01*
X1497774Y2146039D01*
X1484438Y2156816D01*
X1472988Y2169199D01*
X1463639Y2182934D01*
X1456607Y2197768D01*
X1453706Y2206660D01*
X1451984Y2215393D01*
X1450959Y2225901D01*
X1450632Y2237303D01*
X1451001Y2248718D01*
X1452066Y2259265D01*
X1453737Y2267733D01*
X1457014Y2277813D01*
X1461228Y2287582D01*
X1465952Y2296130D01*
X1469158Y2300679D01*
X1471542Y2303817D01*
X1472994Y2306014D01*
X1473200Y2306514D01*
X1471872Y2306669D01*
X1468066Y2306814D01*
X1462052Y2306944D01*
X1454097Y2307058D01*
X1444471Y2307152D01*
X1433442Y2307223D01*
X1421278Y2307267D01*
X1408888Y2307281D01*
X1393020Y2307273D01*
X1379641Y2307234D01*
X1368496Y2307140D01*
X1359330Y2306968D01*
X1351885Y2306696D01*
X1345908Y2306300D01*
X1341140Y2305757D01*
X1337327Y2305044D01*
X1334213Y2304138D01*
X1331542Y2303017D01*
X1329058Y2301656D01*
X1326504Y2300033D01*
X1326188Y2299824D01*
X1322881Y2297731D01*
X1320607Y2296467D01*
X1320127Y2296297D01*
X1319976Y2297622D01*
X1319853Y2301400D01*
X1319760Y2307342D01*
X1319699Y2315154D01*
X1319673Y2324547D01*
X1319683Y2335227D01*
G36*
X1450423Y1967750D02*
G01*
X1450938Y1974553D01*
X1453527Y1994016D01*
X1457657Y2011253D01*
X1463385Y2026347D01*
X1470767Y2039382D01*
X1479861Y2050443D01*
X1490722Y2059613D01*
X1503408Y2066977D01*
X1517135Y2072354D01*
X1521514Y2073719D01*
X1525614Y2074907D01*
X1529657Y2075933D01*
X1533863Y2076811D01*
X1538453Y2077555D01*
X1543648Y2078178D01*
X1549668Y2078695D01*
X1556735Y2079120D01*
X1565069Y2079466D01*
X1574890Y2079748D01*
X1586420Y2079980D01*
X1599880Y2080176D01*
X1615489Y2080349D01*
X1633469Y2080514D01*
X1647568Y2080632D01*
X1744362Y2081427D01*
X1753677Y2086576D01*
X1758164Y2089014D01*
X1761650Y2090828D01*
X1763505Y2091693D01*
X1763631Y2091724D01*
X1763775Y2090401D01*
X1763907Y2086633D01*
X1764025Y2080718D01*
X1764124Y2072959D01*
X1764200Y2063654D01*
X1764250Y2053103D01*
X1764270Y2041608D01*
X1764270Y2040238D01*
X1764270Y1988751D01*
X1752600Y1988751D01*
X1747326Y1988663D01*
X1743293Y1988429D01*
X1741130Y1988092D01*
X1740930Y1987943D01*
X1741768Y1986580D01*
X1743969Y1983776D01*
X1747060Y1980130D01*
X1747132Y1980048D01*
X1752084Y1973396D01*
X1757057Y1964995D01*
X1761563Y1955794D01*
X1765111Y1946742D01*
X1766324Y1942757D01*
X1767864Y1934825D01*
X1768846Y1925093D01*
X1769258Y1914452D01*
X1769084Y1903791D01*
X1768311Y1894002D01*
X1767198Y1887151D01*
X1762265Y1870352D01*
X1755234Y1855228D01*
X1746193Y1841878D01*
X1735229Y1830401D01*
X1722430Y1820894D01*
X1707882Y1813456D01*
X1699054Y1810247D01*
X1690474Y1808236D01*
X1680174Y1806904D01*
X1669103Y1806287D01*
X1667492Y1806307D01*
X1667492Y1899165D01*
X1675718Y1899935D01*
X1682555Y1902499D01*
X1688897Y1907238D01*
X1690757Y1909058D01*
X1695785Y1915528D01*
X1699006Y1923007D01*
X1700565Y1931966D01*
X1700680Y1941401D01*
X1699922Y1950350D01*
X1698439Y1957202D01*
X1697325Y1960177D01*
X1694290Y1965541D01*
X1690022Y1971223D01*
X1685232Y1976408D01*
X1680630Y1980278D01*
X1678942Y1981305D01*
X1676578Y1982104D01*
X1672817Y1982672D01*
X1667298Y1983036D01*
X1659664Y1983221D01*
X1652398Y1983259D01*
X1643927Y1983233D01*
X1637802Y1983129D01*
X1633623Y1982904D01*
X1630990Y1982521D01*
X1629503Y1981936D01*
X1628764Y1981112D01*
X1628646Y1980857D01*
X1628283Y1978640D01*
X1627987Y1974268D01*
X1627783Y1968331D01*
X1627698Y1961420D01*
X1627698Y1959919D01*
X1627846Y1950680D01*
X1628284Y1943543D01*
X1629074Y1937872D01*
X1630227Y1933187D01*
X1634621Y1921567D01*
X1640024Y1912454D01*
X1646522Y1905770D01*
X1654200Y1901436D01*
X1663147Y1899373D01*
X1667492Y1899165D01*
X1667492Y1806307D01*
X1658213Y1806424D01*
X1648454Y1807353D01*
X1644510Y1808078D01*
X1629870Y1812704D01*
X1616399Y1819738D01*
X1604228Y1829048D01*
X1593485Y1840501D01*
X1584299Y1853964D01*
X1576800Y1869304D01*
X1572246Y1882346D01*
X1569853Y1891062D01*
X1567994Y1899400D01*
X1566608Y1907898D01*
X1565635Y1917096D01*
X1565014Y1927536D01*
X1564685Y1939757D01*
X1564592Y1950805D01*
X1564503Y1983568D01*
X1554655Y1982940D01*
X1543969Y1981158D01*
X1534785Y1977367D01*
X1527331Y1971728D01*
X1521836Y1964403D01*
X1519155Y1957953D01*
X1517465Y1948712D01*
X1517223Y1937711D01*
X1518338Y1925466D01*
X1520721Y1912491D01*
X1524283Y1899304D01*
X1528934Y1886420D01*
X1533188Y1877057D01*
X1535373Y1872552D01*
X1536898Y1869116D01*
X1537494Y1867368D01*
X1537475Y1867273D01*
X1536141Y1866670D01*
X1532607Y1865164D01*
X1527210Y1862898D01*
X1520290Y1860011D01*
X1512184Y1856648D01*
X1503912Y1853228D01*
X1470780Y1839559D01*
X1469183Y1849282D01*
X1468382Y1853496D01*
X1467036Y1859832D01*
X1465268Y1867746D01*
X1463200Y1876695D01*
X1460953Y1886137D01*
X1460040Y1889897D01*
X1456267Y1906164D01*
X1453439Y1920405D01*
X1451497Y1933153D01*
X1450385Y1944938D01*
X1450046Y1956294D01*
X1450423Y1967750D01*
G37*
X1450423Y1967750D02*
X1450938Y1974553D01*
X1453527Y1994016D01*
X1457657Y2011253D01*
X1463385Y2026347D01*
X1470767Y2039382D01*
X1479861Y2050443D01*
X1490722Y2059613D01*
X1503408Y2066977D01*
X1517135Y2072354D01*
X1521514Y2073719D01*
X1525614Y2074907D01*
X1529657Y2075933D01*
X1533863Y2076811D01*
X1538453Y2077555D01*
X1543648Y2078178D01*
X1549668Y2078695D01*
X1556735Y2079120D01*
X1565069Y2079466D01*
X1574890Y2079748D01*
X1586420Y2079980D01*
X1599880Y2080176D01*
X1615489Y2080349D01*
X1633469Y2080514D01*
X1647568Y2080632D01*
X1744362Y2081427D01*
X1753677Y2086576D01*
X1758164Y2089014D01*
X1761650Y2090828D01*
X1763505Y2091693D01*
X1763631Y2091724D01*
X1763775Y2090401D01*
X1763907Y2086633D01*
X1764025Y2080718D01*
X1764124Y2072959D01*
X1764200Y2063654D01*
X1764250Y2053103D01*
X1764270Y2041608D01*
X1764270Y2040238D01*
X1764270Y1988751D01*
X1752600Y1988751D01*
X1747326Y1988663D01*
X1743293Y1988429D01*
X1741130Y1988092D01*
X1740930Y1987943D01*
X1741768Y1986580D01*
X1743969Y1983776D01*
X1747060Y1980130D01*
X1747132Y1980048D01*
X1752084Y1973396D01*
X1757057Y1964995D01*
X1761563Y1955794D01*
X1765111Y1946742D01*
X1766324Y1942757D01*
X1767864Y1934825D01*
X1768846Y1925093D01*
X1769258Y1914452D01*
X1769084Y1903791D01*
X1768311Y1894002D01*
X1767198Y1887151D01*
X1762265Y1870352D01*
X1755234Y1855228D01*
X1746193Y1841878D01*
X1735229Y1830401D01*
X1722430Y1820894D01*
X1707882Y1813456D01*
X1699054Y1810247D01*
X1690474Y1808236D01*
X1680174Y1806904D01*
X1669103Y1806287D01*
X1667492Y1806307D01*
X1667492Y1899165D01*
X1675718Y1899935D01*
X1682555Y1902499D01*
X1688897Y1907238D01*
X1690757Y1909058D01*
X1695785Y1915528D01*
X1699006Y1923007D01*
X1700565Y1931966D01*
X1700680Y1941401D01*
X1699922Y1950350D01*
X1698439Y1957202D01*
X1697325Y1960177D01*
X1694290Y1965541D01*
X1690022Y1971223D01*
X1685232Y1976408D01*
X1680630Y1980278D01*
X1678942Y1981305D01*
X1676578Y1982104D01*
X1672817Y1982672D01*
X1667298Y1983036D01*
X1659664Y1983221D01*
X1652398Y1983259D01*
X1643927Y1983233D01*
X1637802Y1983129D01*
X1633623Y1982904D01*
X1630990Y1982521D01*
X1629503Y1981936D01*
X1628764Y1981112D01*
X1628646Y1980857D01*
X1628283Y1978640D01*
X1627987Y1974268D01*
X1627783Y1968331D01*
X1627698Y1961420D01*
X1627698Y1959919D01*
X1627846Y1950680D01*
X1628284Y1943543D01*
X1629074Y1937872D01*
X1630227Y1933187D01*
X1634621Y1921567D01*
X1640024Y1912454D01*
X1646522Y1905770D01*
X1654200Y1901436D01*
X1663147Y1899373D01*
X1667492Y1899165D01*
X1667492Y1806307D01*
X1658213Y1806424D01*
X1648454Y1807353D01*
X1644510Y1808078D01*
X1629870Y1812704D01*
X1616399Y1819738D01*
X1604228Y1829048D01*
X1593485Y1840501D01*
X1584299Y1853964D01*
X1576800Y1869304D01*
X1572246Y1882346D01*
X1569853Y1891062D01*
X1567994Y1899400D01*
X1566608Y1907898D01*
X1565635Y1917096D01*
X1565014Y1927536D01*
X1564685Y1939757D01*
X1564592Y1950805D01*
X1564503Y1983568D01*
X1554655Y1982940D01*
X1543969Y1981158D01*
X1534785Y1977367D01*
X1527331Y1971728D01*
X1521836Y1964403D01*
X1519155Y1957953D01*
X1517465Y1948712D01*
X1517223Y1937711D01*
X1518338Y1925466D01*
X1520721Y1912491D01*
X1524283Y1899304D01*
X1528934Y1886420D01*
X1533188Y1877057D01*
X1535373Y1872552D01*
X1536898Y1869116D01*
X1537494Y1867368D01*
X1537475Y1867273D01*
X1536141Y1866670D01*
X1532607Y1865164D01*
X1527210Y1862898D01*
X1520290Y1860011D01*
X1512184Y1856648D01*
X1503912Y1853228D01*
X1470780Y1839559D01*
X1469183Y1849282D01*
X1468382Y1853496D01*
X1467036Y1859832D01*
X1465268Y1867746D01*
X1463200Y1876695D01*
X1460953Y1886137D01*
X1460040Y1889897D01*
X1456267Y1906164D01*
X1453439Y1920405D01*
X1451497Y1933153D01*
X1450385Y1944938D01*
X1450046Y1956294D01*
X1450423Y1967750D01*
G36*
X1340050Y1694996D02*
G01*
X1341671Y1709801D01*
X1344572Y1724145D01*
X1348905Y1738611D01*
X1354820Y1753782D01*
X1362470Y1770243D01*
X1363952Y1773207D01*
X1367303Y1780010D01*
X1370321Y1786426D01*
X1372717Y1791821D01*
X1374202Y1795564D01*
X1374390Y1796139D01*
X1376040Y1801649D01*
X1411920Y1776985D01*
X1420689Y1770955D01*
X1428701Y1765442D01*
X1435684Y1760634D01*
X1441365Y1756717D01*
X1445472Y1753879D01*
X1447735Y1752309D01*
X1448093Y1752054D01*
X1447344Y1751017D01*
X1445092Y1748466D01*
X1441746Y1744856D01*
X1439855Y1742864D01*
X1430878Y1731577D01*
X1424056Y1718901D01*
X1420319Y1707978D01*
X1419146Y1701421D01*
X1418431Y1693212D01*
X1418187Y1684314D01*
X1418429Y1675696D01*
X1419168Y1668320D01*
X1419735Y1665378D01*
X1424298Y1652113D01*
X1431266Y1640161D01*
X1440626Y1629528D01*
X1452365Y1620225D01*
X1466470Y1612260D01*
X1482929Y1605643D01*
X1501728Y1600381D01*
X1517822Y1597253D01*
X1524926Y1596437D01*
X1534105Y1595881D01*
X1544697Y1595580D01*
X1556043Y1595528D01*
X1567485Y1595720D01*
X1578362Y1596150D01*
X1588014Y1596814D01*
X1595783Y1597705D01*
X1596982Y1597898D01*
X1616289Y1602150D01*
X1633377Y1607943D01*
X1648322Y1615313D01*
X1661201Y1624295D01*
X1668164Y1630671D01*
X1677617Y1642129D01*
X1684625Y1654694D01*
X1689148Y1668156D01*
X1691148Y1682301D01*
X1690588Y1696918D01*
X1687430Y1711795D01*
X1684339Y1720591D01*
X1678151Y1732763D01*
X1669273Y1745308D01*
X1663269Y1752335D01*
X1659795Y1756281D01*
X1657245Y1759381D01*
X1656017Y1761146D01*
X1655979Y1761365D01*
X1657235Y1762152D01*
X1660552Y1764193D01*
X1665646Y1767313D01*
X1672233Y1771339D01*
X1680029Y1776096D01*
X1688749Y1781410D01*
X1693607Y1784369D01*
X1730721Y1806965D01*
X1744664Y1778753D01*
X1749672Y1768552D01*
X1753621Y1760289D01*
X1756707Y1753458D01*
X1759127Y1747554D01*
X1761076Y1742071D01*
X1762750Y1736506D01*
X1764346Y1730352D01*
X1765748Y1724454D01*
X1766833Y1719211D01*
X1767653Y1713729D01*
X1768253Y1707457D01*
X1768679Y1699848D01*
X1768977Y1690352D01*
X1769105Y1683951D01*
X1769193Y1674819D01*
X1769149Y1666063D01*
X1768985Y1658261D01*
X1768715Y1651994D01*
X1768350Y1647841D01*
X1768314Y1647595D01*
X1763649Y1626030D01*
X1756573Y1605779D01*
X1747091Y1586849D01*
X1735209Y1569248D01*
X1720930Y1552982D01*
X1704259Y1538058D01*
X1689443Y1527250D01*
X1670050Y1515743D01*
X1649570Y1506442D01*
X1627838Y1499301D01*
X1604691Y1494276D01*
X1579964Y1491320D01*
X1554856Y1490389D01*
X1530567Y1491155D01*
X1508157Y1493561D01*
X1487248Y1497685D01*
X1467461Y1503603D01*
X1448420Y1511390D01*
X1446447Y1512320D01*
X1428006Y1522565D01*
X1410458Y1535147D01*
X1394165Y1549711D01*
X1379491Y1565900D01*
X1366800Y1583358D01*
X1357491Y1599624D01*
X1350199Y1616057D01*
X1344917Y1632525D01*
X1341502Y1649665D01*
X1339808Y1668115D01*
X1339558Y1679146D01*
X1340050Y1694996D01*
G37*
X1340050Y1694996D02*
X1341671Y1709801D01*
X1344572Y1724145D01*
X1348905Y1738611D01*
X1354820Y1753782D01*
X1362470Y1770243D01*
X1363952Y1773207D01*
X1367303Y1780010D01*
X1370321Y1786426D01*
X1372717Y1791821D01*
X1374202Y1795564D01*
X1374390Y1796139D01*
X1376040Y1801649D01*
X1411920Y1776985D01*
X1420689Y1770955D01*
X1428701Y1765442D01*
X1435684Y1760634D01*
X1441365Y1756717D01*
X1445472Y1753879D01*
X1447735Y1752309D01*
X1448093Y1752054D01*
X1447344Y1751017D01*
X1445092Y1748466D01*
X1441746Y1744856D01*
X1439855Y1742864D01*
X1430878Y1731577D01*
X1424056Y1718901D01*
X1420319Y1707978D01*
X1419146Y1701421D01*
X1418431Y1693212D01*
X1418187Y1684314D01*
X1418429Y1675696D01*
X1419168Y1668320D01*
X1419735Y1665378D01*
X1424298Y1652113D01*
X1431266Y1640161D01*
X1440626Y1629528D01*
X1452365Y1620225D01*
X1466470Y1612260D01*
X1482929Y1605643D01*
X1501728Y1600381D01*
X1517822Y1597253D01*
X1524926Y1596437D01*
X1534105Y1595881D01*
X1544697Y1595580D01*
X1556043Y1595528D01*
X1567485Y1595720D01*
X1578362Y1596150D01*
X1588014Y1596814D01*
X1595783Y1597705D01*
X1596982Y1597898D01*
X1616289Y1602150D01*
X1633377Y1607943D01*
X1648322Y1615313D01*
X1661201Y1624295D01*
X1668164Y1630671D01*
X1677617Y1642129D01*
X1684625Y1654694D01*
X1689148Y1668156D01*
X1691148Y1682301D01*
X1690588Y1696918D01*
X1687430Y1711795D01*
X1684339Y1720591D01*
X1678151Y1732763D01*
X1669273Y1745308D01*
X1663269Y1752335D01*
X1659795Y1756281D01*
X1657245Y1759381D01*
X1656017Y1761146D01*
X1655979Y1761365D01*
X1657235Y1762152D01*
X1660552Y1764193D01*
X1665646Y1767313D01*
X1672233Y1771339D01*
X1680029Y1776096D01*
X1688749Y1781410D01*
X1693607Y1784369D01*
X1730721Y1806965D01*
X1744664Y1778753D01*
X1749672Y1768552D01*
X1753621Y1760289D01*
X1756707Y1753458D01*
X1759127Y1747554D01*
X1761076Y1742071D01*
X1762750Y1736506D01*
X1764346Y1730352D01*
X1765748Y1724454D01*
X1766833Y1719211D01*
X1767653Y1713729D01*
X1768253Y1707457D01*
X1768679Y1699848D01*
X1768977Y1690352D01*
X1769105Y1683951D01*
X1769193Y1674819D01*
X1769149Y1666063D01*
X1768985Y1658261D01*
X1768715Y1651994D01*
X1768350Y1647841D01*
X1768314Y1647595D01*
X1763649Y1626030D01*
X1756573Y1605779D01*
X1747091Y1586849D01*
X1735209Y1569248D01*
X1720930Y1552982D01*
X1704259Y1538058D01*
X1689443Y1527250D01*
X1670050Y1515743D01*
X1649570Y1506442D01*
X1627838Y1499301D01*
X1604691Y1494276D01*
X1579964Y1491320D01*
X1554856Y1490389D01*
X1530567Y1491155D01*
X1508157Y1493561D01*
X1487248Y1497685D01*
X1467461Y1503603D01*
X1448420Y1511390D01*
X1446447Y1512320D01*
X1428006Y1522565D01*
X1410458Y1535147D01*
X1394165Y1549711D01*
X1379491Y1565900D01*
X1366800Y1583358D01*
X1357491Y1599624D01*
X1350199Y1616057D01*
X1344917Y1632525D01*
X1341502Y1649665D01*
X1339808Y1668115D01*
X1339558Y1679146D01*
X1340050Y1694996D01*
G36*
X1271369Y1055426D02*
G01*
X1271373Y1081878D01*
X1271373Y1094191D01*
X1271373Y1291281D01*
X1282991Y1291281D01*
X1297129Y1292521D01*
X1310168Y1296264D01*
X1322186Y1302542D01*
X1333260Y1311391D01*
X1336251Y1314384D01*
X1344735Y1325153D01*
X1350922Y1337028D01*
X1354816Y1349654D01*
X1356419Y1362680D01*
X1355734Y1375754D01*
X1352764Y1388521D01*
X1347512Y1400630D01*
X1339980Y1411729D01*
X1335436Y1416713D01*
X1324295Y1426002D01*
X1312044Y1432813D01*
X1298822Y1437087D01*
X1284769Y1438765D01*
X1283387Y1438788D01*
X1271373Y1438876D01*
X1271373Y1444156D01*
X1272009Y1448840D01*
X1273556Y1453118D01*
X1273715Y1453401D01*
X1274217Y1454367D01*
X1274607Y1455255D01*
X1275001Y1456066D01*
X1275511Y1456806D01*
X1276251Y1457475D01*
X1277335Y1458079D01*
X1278877Y1458620D01*
X1280991Y1459101D01*
X1283790Y1459525D01*
X1287388Y1459897D01*
X1291899Y1460218D01*
X1297436Y1460492D01*
X1304114Y1460723D01*
X1312045Y1460913D01*
X1321345Y1461066D01*
X1332126Y1461185D01*
X1344502Y1461273D01*
X1358587Y1461333D01*
X1374495Y1461369D01*
X1392340Y1461383D01*
X1412234Y1461380D01*
X1434293Y1461362D01*
X1458629Y1461332D01*
X1485357Y1461294D01*
X1514590Y1461251D01*
X1546442Y1461205D01*
X1550323Y1461200D01*
X1582378Y1461160D01*
X1611801Y1461125D01*
X1638706Y1461093D01*
X1663205Y1461060D01*
X1685414Y1461022D01*
X1705445Y1460976D01*
X1723412Y1460917D01*
X1739429Y1460843D01*
X1753610Y1460749D01*
X1766068Y1460633D01*
X1776917Y1460489D01*
X1786271Y1460316D01*
X1794243Y1460108D01*
X1800947Y1459862D01*
X1806497Y1459576D01*
X1811007Y1459244D01*
X1814589Y1458864D01*
X1817359Y1458431D01*
X1819429Y1457942D01*
X1820914Y1457394D01*
X1821926Y1456783D01*
X1822580Y1456105D01*
X1822989Y1455356D01*
X1823268Y1454533D01*
X1823529Y1453633D01*
X1823886Y1452650D01*
X1823995Y1452411D01*
X1824240Y1451656D01*
X1824464Y1450394D01*
X1824670Y1448514D01*
X1824857Y1445905D01*
X1825027Y1442458D01*
X1825180Y1438061D01*
X1825318Y1432606D01*
X1825440Y1425981D01*
X1825548Y1418077D01*
X1825643Y1408784D01*
X1825725Y1397990D01*
X1825795Y1385586D01*
X1825854Y1371462D01*
X1825902Y1355508D01*
X1825942Y1337613D01*
X1825972Y1317667D01*
X1825995Y1295560D01*
X1826011Y1271181D01*
X1826020Y1244421D01*
X1826024Y1215170D01*
X1826024Y1183316D01*
X1826023Y1172998D01*
X1826018Y1140438D01*
X1826009Y1110512D01*
X1825996Y1083109D01*
X1825978Y1058118D01*
X1825955Y1035426D01*
X1825924Y1014923D01*
X1825886Y996496D01*
X1825839Y980035D01*
X1825783Y965427D01*
X1825716Y952562D01*
X1825639Y941328D01*
X1825549Y931613D01*
X1825446Y923305D01*
X1825330Y916294D01*
X1825199Y910467D01*
X1825052Y905713D01*
X1824890Y901921D01*
X1824709Y898979D01*
X1824511Y896775D01*
X1824294Y895199D01*
X1824056Y894138D01*
X1823839Y893560D01*
X1823406Y892532D01*
X1823086Y891588D01*
X1822766Y890724D01*
X1822334Y889938D01*
X1821674Y889225D01*
X1820675Y888582D01*
X1819221Y888005D01*
X1817200Y887491D01*
X1814498Y887036D01*
X1811002Y886636D01*
X1806598Y886289D01*
X1801172Y885990D01*
X1794612Y885735D01*
X1786802Y885522D01*
X1777631Y885347D01*
X1766984Y885205D01*
X1762897Y885168D01*
X1762897Y921812D01*
X1762897Y1051327D01*
X1759122Y1048835D01*
X1755242Y1046355D01*
X1751547Y1044256D01*
X1747779Y1042506D01*
X1743679Y1041077D01*
X1738988Y1039938D01*
X1733449Y1039059D01*
X1726802Y1038410D01*
X1718788Y1037962D01*
X1709150Y1037685D01*
X1697629Y1037549D01*
X1683966Y1037523D01*
X1667902Y1037579D01*
X1661938Y1037611D01*
X1598004Y1037967D01*
X1653145Y1078470D01*
X1668788Y1089945D01*
X1682409Y1099886D01*
X1694189Y1108401D01*
X1704308Y1115598D01*
X1712948Y1121583D01*
X1720287Y1126465D01*
X1726508Y1130351D01*
X1731789Y1133347D01*
X1736312Y1135561D01*
X1740258Y1137101D01*
X1743806Y1138073D01*
X1747137Y1138586D01*
X1750431Y1138747D01*
X1753870Y1138662D01*
X1754302Y1138641D01*
X1762903Y1138195D01*
X1762897Y1280131D01*
X1752252Y1269574D01*
X1749341Y1266709D01*
X1746508Y1263991D01*
X1743597Y1261301D01*
X1740452Y1258520D01*
X1736917Y1255528D01*
X1732835Y1252205D01*
X1728051Y1248434D01*
X1722408Y1244094D01*
X1715749Y1239066D01*
X1707919Y1233231D01*
X1698762Y1226470D01*
X1688120Y1218663D01*
X1675839Y1209691D01*
X1661760Y1199435D01*
X1645730Y1187776D01*
X1632580Y1178219D01*
X1616060Y1166225D01*
X1601615Y1155762D01*
X1589109Y1146735D01*
X1578405Y1139050D01*
X1569365Y1132611D01*
X1561853Y1127324D01*
X1555730Y1123094D01*
X1550861Y1119826D01*
X1547107Y1117426D01*
X1544332Y1115799D01*
X1542399Y1114849D01*
X1541170Y1114483D01*
X1540524Y1114593D01*
X1538805Y1115928D01*
X1535165Y1118813D01*
X1529822Y1123076D01*
X1522992Y1128542D01*
X1514890Y1135036D01*
X1505734Y1142384D01*
X1495739Y1150413D01*
X1485122Y1158949D01*
X1474100Y1167816D01*
X1462888Y1176841D01*
X1456724Y1181806D01*
X1456724Y1305063D01*
X1465992Y1310185D01*
X1475259Y1315308D01*
X1744362Y1315308D01*
X1753630Y1310185D01*
X1762897Y1305063D01*
X1762897Y1365660D01*
X1762893Y1380127D01*
X1762874Y1392076D01*
X1762831Y1401736D01*
X1762754Y1409336D01*
X1762633Y1415104D01*
X1762459Y1419270D01*
X1762223Y1422061D01*
X1761915Y1423706D01*
X1761525Y1424435D01*
X1761044Y1424474D01*
X1760462Y1424054D01*
X1760457Y1424050D01*
X1757953Y1422319D01*
X1753881Y1420026D01*
X1749817Y1418002D01*
X1741616Y1414162D01*
X1456724Y1413379D01*
X1456724Y1305063D01*
X1456724Y1181806D01*
X1451702Y1185851D01*
X1440760Y1194670D01*
X1430278Y1203125D01*
X1420471Y1211041D01*
X1411557Y1218244D01*
X1403750Y1224561D01*
X1397269Y1229817D01*
X1392329Y1233838D01*
X1389449Y1236200D01*
X1378678Y1245371D01*
X1368958Y1254194D01*
X1360608Y1262360D01*
X1353945Y1269559D01*
X1349860Y1274668D01*
X1345514Y1280709D01*
X1345514Y1141770D01*
X1353667Y1141809D01*
X1359661Y1141421D01*
X1365218Y1139961D01*
X1370486Y1137701D01*
X1373462Y1136232D01*
X1376410Y1134653D01*
X1379528Y1132819D01*
X1383009Y1130586D01*
X1387051Y1127809D01*
X1391849Y1124345D01*
X1397598Y1120049D01*
X1404494Y1114777D01*
X1412734Y1108385D01*
X1422512Y1100728D01*
X1434025Y1091662D01*
X1447469Y1081043D01*
X1448986Y1079843D01*
X1501941Y1037967D01*
X1443292Y1037562D01*
X1425725Y1037480D01*
X1410853Y1037498D01*
X1398627Y1037615D01*
X1388999Y1037833D01*
X1381918Y1038153D01*
X1377337Y1038574D01*
X1376468Y1038716D01*
X1367314Y1040941D01*
X1359061Y1043856D01*
X1352425Y1047182D01*
X1349611Y1049180D01*
X1345514Y1052628D01*
X1345514Y987209D01*
X1345527Y971603D01*
X1345570Y958553D01*
X1345649Y947869D01*
X1345768Y939360D01*
X1345932Y932836D01*
X1346146Y928108D01*
X1346416Y924984D01*
X1346746Y923275D01*
X1347142Y922791D01*
X1347230Y922825D01*
X1349323Y924211D01*
X1352641Y926527D01*
X1354319Y927725D01*
X1355994Y928963D01*
X1357492Y930076D01*
X1358959Y931071D01*
X1360545Y931955D01*
X1362396Y932734D01*
X1364659Y933416D01*
X1367481Y934008D01*
X1371011Y934517D01*
X1375396Y934950D01*
X1380782Y935313D01*
X1387318Y935614D01*
X1395150Y935860D01*
X1404427Y936058D01*
X1415295Y936214D01*
X1427901Y936337D01*
X1442394Y936432D01*
X1458921Y936507D01*
X1477628Y936569D01*
X1498663Y936625D01*
X1522175Y936681D01*
X1543774Y936734D01*
X1567853Y936784D01*
X1590827Y936810D01*
X1612549Y936813D01*
X1632872Y936793D01*
X1651650Y936751D01*
X1668734Y936688D01*
X1683980Y936604D01*
X1697240Y936501D01*
X1708368Y936378D01*
X1717216Y936237D01*
X1723637Y936077D01*
X1727486Y935901D01*
X1727893Y935868D01*
X1737225Y934653D01*
X1744719Y932757D01*
X1751259Y929870D01*
X1757729Y925681D01*
X1758435Y925157D01*
X1762897Y921812D01*
X1762897Y885168D01*
X1754748Y885095D01*
X1740809Y885011D01*
X1725054Y884950D01*
X1707369Y884909D01*
X1687641Y884885D01*
X1665756Y884873D01*
X1641601Y884870D01*
X1615061Y884873D01*
X1586025Y884878D01*
X1554377Y884881D01*
X1548095Y884881D01*
X1516114Y884883D01*
X1486766Y884889D01*
X1459939Y884900D01*
X1435520Y884917D01*
X1413396Y884940D01*
X1393454Y884972D01*
X1375582Y885011D01*
X1359667Y885061D01*
X1345597Y885120D01*
X1333258Y885191D01*
X1322538Y885274D01*
X1313324Y885369D01*
X1305504Y885479D01*
X1298964Y885603D01*
X1293593Y885742D01*
X1289277Y885898D01*
X1285904Y886071D01*
X1283361Y886263D01*
X1281535Y886473D01*
X1280313Y886703D01*
X1279584Y886954D01*
X1279566Y886964D01*
X1278452Y887481D01*
X1277443Y887911D01*
X1276535Y888388D01*
X1275721Y889042D01*
X1274998Y890006D01*
X1274359Y891413D01*
X1273799Y893394D01*
X1273313Y896081D01*
X1272897Y899607D01*
X1272544Y904103D01*
X1272249Y909703D01*
X1272008Y916537D01*
X1271814Y924739D01*
X1271664Y934439D01*
X1271551Y945772D01*
X1271470Y958868D01*
X1271417Y973859D01*
X1271385Y990879D01*
X1271370Y1010058D01*
X1271366Y1031530D01*
X1271369Y1055426D01*
G37*
X1271369Y1055426D02*
X1271373Y1081878D01*
X1271373Y1094191D01*
X1271373Y1291281D01*
X1282991Y1291281D01*
X1297129Y1292521D01*
X1310168Y1296264D01*
X1322186Y1302542D01*
X1333260Y1311391D01*
X1336251Y1314384D01*
X1344735Y1325153D01*
X1350922Y1337028D01*
X1354816Y1349654D01*
X1356419Y1362680D01*
X1355734Y1375754D01*
X1352764Y1388521D01*
X1347512Y1400630D01*
X1339980Y1411729D01*
X1335436Y1416713D01*
X1324295Y1426002D01*
X1312044Y1432813D01*
X1298822Y1437087D01*
X1284769Y1438765D01*
X1283387Y1438788D01*
X1271373Y1438876D01*
X1271373Y1444156D01*
X1272009Y1448840D01*
X1273556Y1453118D01*
X1273715Y1453401D01*
X1274217Y1454367D01*
X1274607Y1455255D01*
X1275001Y1456066D01*
X1275511Y1456806D01*
X1276251Y1457475D01*
X1277335Y1458079D01*
X1278877Y1458620D01*
X1280991Y1459101D01*
X1283790Y1459525D01*
X1287388Y1459897D01*
X1291899Y1460218D01*
X1297436Y1460492D01*
X1304114Y1460723D01*
X1312045Y1460913D01*
X1321345Y1461066D01*
X1332126Y1461185D01*
X1344502Y1461273D01*
X1358587Y1461333D01*
X1374495Y1461369D01*
X1392340Y1461383D01*
X1412234Y1461380D01*
X1434293Y1461362D01*
X1458629Y1461332D01*
X1485357Y1461294D01*
X1514590Y1461251D01*
X1546442Y1461205D01*
X1550323Y1461200D01*
X1582378Y1461160D01*
X1611801Y1461125D01*
X1638706Y1461093D01*
X1663205Y1461060D01*
X1685414Y1461022D01*
X1705445Y1460976D01*
X1723412Y1460917D01*
X1739429Y1460843D01*
X1753610Y1460749D01*
X1766068Y1460633D01*
X1776917Y1460489D01*
X1786271Y1460316D01*
X1794243Y1460108D01*
X1800947Y1459862D01*
X1806497Y1459576D01*
X1811007Y1459244D01*
X1814589Y1458864D01*
X1817359Y1458431D01*
X1819429Y1457942D01*
X1820914Y1457394D01*
X1821926Y1456783D01*
X1822580Y1456105D01*
X1822989Y1455356D01*
X1823268Y1454533D01*
X1823529Y1453633D01*
X1823886Y1452650D01*
X1823995Y1452411D01*
X1824240Y1451656D01*
X1824464Y1450394D01*
X1824670Y1448514D01*
X1824857Y1445905D01*
X1825027Y1442458D01*
X1825180Y1438061D01*
X1825318Y1432606D01*
X1825440Y1425981D01*
X1825548Y1418077D01*
X1825643Y1408784D01*
X1825725Y1397990D01*
X1825795Y1385586D01*
X1825854Y1371462D01*
X1825902Y1355508D01*
X1825942Y1337613D01*
X1825972Y1317667D01*
X1825995Y1295560D01*
X1826011Y1271181D01*
X1826020Y1244421D01*
X1826024Y1215170D01*
X1826024Y1183316D01*
X1826023Y1172998D01*
X1826018Y1140438D01*
X1826009Y1110512D01*
X1825996Y1083109D01*
X1825978Y1058118D01*
X1825955Y1035426D01*
X1825924Y1014923D01*
X1825886Y996496D01*
X1825839Y980035D01*
X1825783Y965427D01*
X1825716Y952562D01*
X1825639Y941328D01*
X1825549Y931613D01*
X1825446Y923305D01*
X1825330Y916294D01*
X1825199Y910467D01*
X1825052Y905713D01*
X1824890Y901921D01*
X1824709Y898979D01*
X1824511Y896775D01*
X1824294Y895199D01*
X1824056Y894138D01*
X1823839Y893560D01*
X1823406Y892532D01*
X1823086Y891588D01*
X1822766Y890724D01*
X1822334Y889938D01*
X1821674Y889225D01*
X1820675Y888582D01*
X1819221Y888005D01*
X1817200Y887491D01*
X1814498Y887036D01*
X1811002Y886636D01*
X1806598Y886289D01*
X1801172Y885990D01*
X1794612Y885735D01*
X1786802Y885522D01*
X1777631Y885347D01*
X1766984Y885205D01*
X1762897Y885168D01*
X1762897Y921812D01*
X1762897Y1051327D01*
X1759122Y1048835D01*
X1755242Y1046355D01*
X1751547Y1044256D01*
X1747779Y1042506D01*
X1743679Y1041077D01*
X1738988Y1039938D01*
X1733449Y1039059D01*
X1726802Y1038410D01*
X1718788Y1037962D01*
X1709150Y1037685D01*
X1697629Y1037549D01*
X1683966Y1037523D01*
X1667902Y1037579D01*
X1661938Y1037611D01*
X1598004Y1037967D01*
X1653145Y1078470D01*
X1668788Y1089945D01*
X1682409Y1099886D01*
X1694189Y1108401D01*
X1704308Y1115598D01*
X1712948Y1121583D01*
X1720287Y1126465D01*
X1726508Y1130351D01*
X1731789Y1133347D01*
X1736312Y1135561D01*
X1740258Y1137101D01*
X1743806Y1138073D01*
X1747137Y1138586D01*
X1750431Y1138747D01*
X1753870Y1138662D01*
X1754302Y1138641D01*
X1762903Y1138195D01*
X1762897Y1280131D01*
X1752252Y1269574D01*
X1749341Y1266709D01*
X1746508Y1263991D01*
X1743597Y1261301D01*
X1740452Y1258520D01*
X1736917Y1255528D01*
X1732835Y1252205D01*
X1728051Y1248434D01*
X1722408Y1244094D01*
X1715749Y1239066D01*
X1707919Y1233231D01*
X1698762Y1226470D01*
X1688120Y1218663D01*
X1675839Y1209691D01*
X1661760Y1199435D01*
X1645730Y1187776D01*
X1632580Y1178219D01*
X1616060Y1166225D01*
X1601615Y1155762D01*
X1589109Y1146735D01*
X1578405Y1139050D01*
X1569365Y1132611D01*
X1561853Y1127324D01*
X1555730Y1123094D01*
X1550861Y1119826D01*
X1547107Y1117426D01*
X1544332Y1115799D01*
X1542399Y1114849D01*
X1541170Y1114483D01*
X1540524Y1114593D01*
X1538805Y1115928D01*
X1535165Y1118813D01*
X1529822Y1123076D01*
X1522992Y1128542D01*
X1514890Y1135036D01*
X1505734Y1142384D01*
X1495739Y1150413D01*
X1485122Y1158949D01*
X1474100Y1167816D01*
X1462888Y1176841D01*
X1456724Y1181806D01*
X1456724Y1305063D01*
X1465992Y1310185D01*
X1475259Y1315308D01*
X1744362Y1315308D01*
X1753630Y1310185D01*
X1762897Y1305063D01*
X1762897Y1365660D01*
X1762893Y1380127D01*
X1762874Y1392076D01*
X1762831Y1401736D01*
X1762754Y1409336D01*
X1762633Y1415104D01*
X1762459Y1419270D01*
X1762223Y1422061D01*
X1761915Y1423706D01*
X1761525Y1424435D01*
X1761044Y1424474D01*
X1760462Y1424054D01*
X1760457Y1424050D01*
X1757953Y1422319D01*
X1753881Y1420026D01*
X1749817Y1418002D01*
X1741616Y1414162D01*
X1456724Y1413379D01*
X1456724Y1305063D01*
X1456724Y1181806D01*
X1451702Y1185851D01*
X1440760Y1194670D01*
X1430278Y1203125D01*
X1420471Y1211041D01*
X1411557Y1218244D01*
X1403750Y1224561D01*
X1397269Y1229817D01*
X1392329Y1233838D01*
X1389449Y1236200D01*
X1378678Y1245371D01*
X1368958Y1254194D01*
X1360608Y1262360D01*
X1353945Y1269559D01*
X1349860Y1274668D01*
X1345514Y1280709D01*
X1345514Y1141770D01*
X1353667Y1141809D01*
X1359661Y1141421D01*
X1365218Y1139961D01*
X1370486Y1137701D01*
X1373462Y1136232D01*
X1376410Y1134653D01*
X1379528Y1132819D01*
X1383009Y1130586D01*
X1387051Y1127809D01*
X1391849Y1124345D01*
X1397598Y1120049D01*
X1404494Y1114777D01*
X1412734Y1108385D01*
X1422512Y1100728D01*
X1434025Y1091662D01*
X1447469Y1081043D01*
X1448986Y1079843D01*
X1501941Y1037967D01*
X1443292Y1037562D01*
X1425725Y1037480D01*
X1410853Y1037498D01*
X1398627Y1037615D01*
X1388999Y1037833D01*
X1381918Y1038153D01*
X1377337Y1038574D01*
X1376468Y1038716D01*
X1367314Y1040941D01*
X1359061Y1043856D01*
X1352425Y1047182D01*
X1349611Y1049180D01*
X1345514Y1052628D01*
X1345514Y987209D01*
X1345527Y971603D01*
X1345570Y958553D01*
X1345649Y947869D01*
X1345768Y939360D01*
X1345932Y932836D01*
X1346146Y928108D01*
X1346416Y924984D01*
X1346746Y923275D01*
X1347142Y922791D01*
X1347230Y922825D01*
X1349323Y924211D01*
X1352641Y926527D01*
X1354319Y927725D01*
X1355994Y928963D01*
X1357492Y930076D01*
X1358959Y931071D01*
X1360545Y931955D01*
X1362396Y932734D01*
X1364659Y933416D01*
X1367481Y934008D01*
X1371011Y934517D01*
X1375396Y934950D01*
X1380782Y935313D01*
X1387318Y935614D01*
X1395150Y935860D01*
X1404427Y936058D01*
X1415295Y936214D01*
X1427901Y936337D01*
X1442394Y936432D01*
X1458921Y936507D01*
X1477628Y936569D01*
X1498663Y936625D01*
X1522175Y936681D01*
X1543774Y936734D01*
X1567853Y936784D01*
X1590827Y936810D01*
X1612549Y936813D01*
X1632872Y936793D01*
X1651650Y936751D01*
X1668734Y936688D01*
X1683980Y936604D01*
X1697240Y936501D01*
X1708368Y936378D01*
X1717216Y936237D01*
X1723637Y936077D01*
X1727486Y935901D01*
X1727893Y935868D01*
X1737225Y934653D01*
X1744719Y932757D01*
X1751259Y929870D01*
X1757729Y925681D01*
X1758435Y925157D01*
X1762897Y921812D01*
X1762897Y885168D01*
X1754748Y885095D01*
X1740809Y885011D01*
X1725054Y884950D01*
X1707369Y884909D01*
X1687641Y884885D01*
X1665756Y884873D01*
X1641601Y884870D01*
X1615061Y884873D01*
X1586025Y884878D01*
X1554377Y884881D01*
X1548095Y884881D01*
X1516114Y884883D01*
X1486766Y884889D01*
X1459939Y884900D01*
X1435520Y884917D01*
X1413396Y884940D01*
X1393454Y884972D01*
X1375582Y885011D01*
X1359667Y885061D01*
X1345597Y885120D01*
X1333258Y885191D01*
X1322538Y885274D01*
X1313324Y885369D01*
X1305504Y885479D01*
X1298964Y885603D01*
X1293593Y885742D01*
X1289277Y885898D01*
X1285904Y886071D01*
X1283361Y886263D01*
X1281535Y886473D01*
X1280313Y886703D01*
X1279584Y886954D01*
X1279566Y886964D01*
X1278452Y887481D01*
X1277443Y887911D01*
X1276535Y888388D01*
X1275721Y889042D01*
X1274998Y890006D01*
X1274359Y891413D01*
X1273799Y893394D01*
X1273313Y896081D01*
X1272897Y899607D01*
X1272544Y904103D01*
X1272249Y909703D01*
X1272008Y916537D01*
X1271814Y924739D01*
X1271664Y934439D01*
X1271551Y945772D01*
X1271470Y958868D01*
X1271417Y973859D01*
X1271385Y990879D01*
X1271370Y1010058D01*
X1271366Y1031530D01*
X1271369Y1055426D01*
D11*
X957900Y3165500D02*
X957900Y3316500D01*
X1328000Y3165500D02*
X1328000Y3316500D01*
X1655000Y3316500D02*
X631000Y3316500D01*
X631000Y3165500D02*
X631000Y3629600D01*
X1655000Y3165500D02*
X1655000Y3629600D01*
X1655000Y3629600D02*
X631000Y3629600D01*
X1655000Y3165500D02*
X631000Y3165500D01*
X97000Y3637500D02*
X147000Y3637500D01*
X97000Y3711500D02*
X97000Y3637500D01*
X1782300Y4025200D02*
X1777600Y4020600D01*
X2012000Y4255000D02*
X2008500Y4251400D01*
X1801600Y4003600D02*
X1798100Y4000100D01*
X2032500Y4234400D02*
X2027800Y4229800D01*
X1274300Y4025200D02*
X1269600Y4020600D01*
X1504000Y4255000D02*
X1500500Y4251400D01*
X1293600Y4003600D02*
X1290100Y4000100D01*
X1524500Y4234400D02*
X1519800Y4229800D01*
X766300Y4025200D02*
X761600Y4020600D01*
X996000Y4255000D02*
X992500Y4251400D01*
X785600Y4003600D02*
X782100Y4000100D01*
X1016500Y4234400D02*
X1011800Y4229800D01*
X2165000Y4653600D02*
X2165000Y3661500D01*
X121000Y4653600D02*
X121000Y3661500D01*
X121000Y3661500D02*
X2165000Y3661500D01*
X121000Y4653600D02*
X2165000Y4653600D01*
X121000Y4357600D02*
X2165000Y4357600D01*
X121000Y3867500D02*
X2165000Y3867500D01*
X121000Y3717500D02*
X2165000Y3717500D01*
X2073000Y4127500D02*
G75*
G03X2073000Y4127500I-168000J0D01*
G01*
X1565000Y4127500D02*
G75*
G03X1565000Y4127500I-168000J0D01*
G01*
X1057000Y4127500D02*
G75*
G03X1057000Y4127500I-168000J0D01*
G01*
X383880Y3959475D02*
G75*
G02X312600Y3974000I-2881J168025D01*
G01*
X227457Y4059196D02*
G75*
G02X227500Y4195900I153543J68304D01*
G01*
X312696Y4281043D02*
G75*
G02X449400Y4281000I68304J-153543D01*
G01*
X534543Y4195804D02*
G75*
G02X534500Y4059100I-153543J-68304D01*
G01*
X449332Y3974024D02*
G75*
G02X381000Y3959500I-68332J153476D01*
G01*
D12*
G36*
X1270893Y436581D02*
G01*
X1315356Y444963D01*
X1328105Y475892D01*
X1340855Y506821D01*
X1315625Y543925D01*
X1308600Y554316D01*
X1302327Y563709D01*
X1297094Y571665D01*
X1293186Y577747D01*
X1290889Y581516D01*
X1290394Y582542D01*
X1291668Y584391D01*
X1295188Y588342D01*
X1300506Y593952D01*
X1307172Y600779D01*
X1314735Y608379D01*
X1322747Y616309D01*
X1330757Y624128D01*
X1338316Y631391D01*
X1344975Y637656D01*
X1350282Y642480D01*
X1353789Y645421D01*
X1354962Y646124D01*
X1357126Y645112D01*
X1361866Y642276D01*
X1368719Y637913D01*
X1377222Y632322D01*
X1386909Y625801D01*
X1392435Y622022D01*
X1402525Y615134D01*
X1411630Y609014D01*
X1419297Y603958D01*
X1425073Y600263D01*
X1428504Y598226D01*
X1429225Y597920D01*
X1431275Y598614D01*
X1436051Y600505D01*
X1442883Y603309D01*
X1451099Y606739D01*
X1460027Y610511D01*
X1468996Y614339D01*
X1477334Y617937D01*
X1484369Y621021D01*
X1489431Y623304D01*
X1491847Y624502D01*
X1491942Y624572D01*
X1492404Y626453D01*
X1493433Y631462D01*
X1494929Y639079D01*
X1496790Y648787D01*
X1498916Y660064D01*
X1500142Y666644D01*
X1502436Y678695D01*
X1504619Y689580D01*
X1506572Y698748D01*
X1508175Y705648D01*
X1509308Y709730D01*
X1509667Y710551D01*
X1512101Y711355D01*
X1517596Y712003D01*
X1525511Y712497D01*
X1535203Y712836D01*
X1546029Y713022D01*
X1557346Y713054D01*
X1568513Y712933D01*
X1578887Y712659D01*
X1587824Y712233D01*
X1594683Y711655D01*
X1598820Y710927D01*
X1599681Y710489D01*
X1600713Y707876D01*
X1602189Y702339D01*
X1603935Y694611D01*
X1605778Y685423D01*
X1606374Y682216D01*
X1609207Y666752D01*
X1611488Y654538D01*
X1613308Y645167D01*
X1614758Y638238D01*
X1615929Y633347D01*
X1616911Y630090D01*
X1617796Y628063D01*
X1618672Y626863D01*
X1618846Y626695D01*
X1621637Y625018D01*
X1627069Y622461D01*
X1634478Y619279D01*
X1643196Y615726D01*
X1652561Y612058D01*
X1661905Y608531D01*
X1670565Y605400D01*
X1677874Y602919D01*
X1683168Y601345D01*
X1685781Y600933D01*
X1685873Y600968D01*
X1688009Y602364D01*
X1692708Y605532D01*
X1699483Y610139D01*
X1707842Y615852D01*
X1717298Y622337D01*
X1719985Y624184D01*
X1729727Y630770D01*
X1738616Y636565D01*
X1746141Y641254D01*
X1751792Y644521D01*
X1755058Y646050D01*
X1755459Y646124D01*
X1757568Y644839D01*
X1761746Y641289D01*
X1767544Y635929D01*
X1774513Y629217D01*
X1782204Y621609D01*
X1790168Y613560D01*
X1797956Y605529D01*
X1805119Y597970D01*
X1811207Y591341D01*
X1815772Y586097D01*
X1818365Y582696D01*
X1818788Y581755D01*
X1817791Y579564D01*
X1815102Y575080D01*
X1811174Y569032D01*
X1808012Y564379D01*
X1802210Y555948D01*
X1795378Y545963D01*
X1788558Y535947D01*
X1784907Y530563D01*
X1772580Y512337D01*
X1780852Y497038D01*
X1784476Y490068D01*
X1787293Y484141D01*
X1788899Y480131D01*
X1789123Y479110D01*
X1787472Y477883D01*
X1782808Y475461D01*
X1775561Y472026D01*
X1766161Y467759D01*
X1755037Y462839D01*
X1742621Y457449D01*
X1729343Y451768D01*
X1715633Y445978D01*
X1701920Y440259D01*
X1688636Y434792D01*
X1676210Y429758D01*
X1665072Y425338D01*
X1655654Y421712D01*
X1648384Y419061D01*
X1643694Y417566D01*
X1642083Y417325D01*
X1640029Y419231D01*
X1636693Y423404D01*
X1632770Y428971D01*
X1632460Y429438D01*
X1620942Y443826D01*
X1607505Y455428D01*
X1592578Y464143D01*
X1576591Y469870D01*
X1559974Y472509D01*
X1543155Y471958D01*
X1526565Y468119D01*
X1510634Y460889D01*
X1507149Y458763D01*
X1493074Y447700D01*
X1481771Y434630D01*
X1473300Y420006D01*
X1467719Y404281D01*
X1465087Y387906D01*
X1465463Y371333D01*
X1468905Y355016D01*
X1475472Y339407D01*
X1485223Y324957D01*
X1489181Y320487D01*
X1501570Y309111D01*
X1514612Y300822D01*
X1529231Y295136D01*
X1543709Y291969D01*
X1559986Y291187D01*
X1576344Y293794D01*
X1592230Y299525D01*
X1607091Y308114D01*
X1620373Y319299D01*
X1631526Y332812D01*
X1632701Y334588D01*
X1636551Y340215D01*
X1639886Y344492D01*
X1642016Y346537D01*
X1642083Y346567D01*
X1644387Y346128D01*
X1649616Y344388D01*
X1657339Y341527D01*
X1667127Y337727D01*
X1678549Y333167D01*
X1691176Y328030D01*
X1704577Y322496D01*
X1718322Y316746D01*
X1731981Y310960D01*
X1745124Y305320D01*
X1757320Y300006D01*
X1768141Y295199D01*
X1777155Y291080D01*
X1783932Y287830D01*
X1788043Y285630D01*
X1789123Y284744D01*
X1788282Y282036D01*
X1786027Y276970D01*
X1782761Y270418D01*
X1780852Y266816D01*
X1772580Y251517D01*
X1784907Y233291D01*
X1791223Y223987D01*
X1798173Y213801D01*
X1804716Y204256D01*
X1808012Y199475D01*
X1812527Y192750D01*
X1816106Y187056D01*
X1818294Y183135D01*
X1818756Y181862D01*
X1817508Y180008D01*
X1814025Y175906D01*
X1808668Y169953D01*
X1801798Y162546D01*
X1793778Y154084D01*
X1788629Y148732D01*
X1779429Y139368D01*
X1771200Y131276D01*
X1764294Y124782D01*
X1759064Y120214D01*
X1755862Y117899D01*
X1755212Y117677D01*
X1752739Y118708D01*
X1747740Y121556D01*
X1740721Y125906D01*
X1732187Y131442D01*
X1722646Y137848D01*
X1719985Y139670D01*
X1710317Y146307D01*
X1701612Y152262D01*
X1694359Y157202D01*
X1689049Y160793D01*
X1686170Y162702D01*
X1685873Y162886D01*
X1683578Y162611D01*
X1678534Y161146D01*
X1671404Y158749D01*
X1662855Y155673D01*
X1653551Y152176D01*
X1644157Y148511D01*
X1635340Y144934D01*
X1627763Y141701D01*
X1622093Y139066D01*
X1618994Y137286D01*
X1618846Y137159D01*
X1617960Y136071D01*
X1617084Y134232D01*
X1616128Y131239D01*
X1615000Y126690D01*
X1613609Y120179D01*
X1611866Y111304D01*
X1609680Y99661D01*
X1606959Y84846D01*
X1606374Y81638D01*
X1604537Y72131D01*
X1602740Y63843D01*
X1601157Y57507D01*
X1599960Y53854D01*
X1599681Y53364D01*
X1597207Y52557D01*
X1591679Y51901D01*
X1583739Y51397D01*
X1574030Y51044D01*
X1563194Y50844D01*
X1551874Y50796D01*
X1540713Y50902D01*
X1530353Y51162D01*
X1521437Y51575D01*
X1514607Y52144D01*
X1510507Y52867D01*
X1509667Y53303D01*
X1508821Y55730D01*
X1507443Y61257D01*
X1505655Y69334D01*
X1503575Y79409D01*
X1501322Y90932D01*
X1500142Y97210D01*
X1497915Y109121D01*
X1495898Y119743D01*
X1494191Y128557D01*
X1492897Y135043D01*
X1492115Y138683D01*
X1491942Y139282D01*
X1489989Y140294D01*
X1485284Y142434D01*
X1478500Y145416D01*
X1470309Y148956D01*
X1461383Y152767D01*
X1452393Y156565D01*
X1444013Y160064D01*
X1436915Y162979D01*
X1431769Y165026D01*
X1429250Y165918D01*
X1429140Y165934D01*
X1427152Y164923D01*
X1422578Y162088D01*
X1415872Y157728D01*
X1407488Y152139D01*
X1397883Y145621D01*
X1392365Y141832D01*
X1382248Y134928D01*
X1373063Y128795D01*
X1365274Y123734D01*
X1359347Y120043D01*
X1355745Y118022D01*
X1354938Y117730D01*
X1353058Y118985D01*
X1349046Y122454D01*
X1343349Y127694D01*
X1336419Y134262D01*
X1328703Y141714D01*
X1320653Y149609D01*
X1312716Y157502D01*
X1305344Y164950D01*
X1298985Y171511D01*
X1294089Y176740D01*
X1291106Y180196D01*
X1290394Y181352D01*
X1291395Y183235D01*
X1294208Y187737D01*
X1298545Y194421D01*
X1304122Y202850D01*
X1310651Y212586D01*
X1315625Y219929D01*
X1340855Y257033D01*
X1315356Y318891D01*
X1270893Y327273D01*
X1226431Y335655D01*
X1226431Y428199D01*
X1270893Y436581D01*
G37*
X1270893Y436581D02*
X1315356Y444963D01*
X1328105Y475892D01*
X1340855Y506821D01*
X1315625Y543925D01*
X1308600Y554316D01*
X1302327Y563709D01*
X1297094Y571665D01*
X1293186Y577747D01*
X1290889Y581516D01*
X1290394Y582542D01*
X1291668Y584391D01*
X1295188Y588342D01*
X1300506Y593952D01*
X1307172Y600779D01*
X1314735Y608379D01*
X1322747Y616309D01*
X1330757Y624128D01*
X1338316Y631391D01*
X1344975Y637656D01*
X1350282Y642480D01*
X1353789Y645421D01*
X1354962Y646124D01*
X1357126Y645112D01*
X1361866Y642276D01*
X1368719Y637913D01*
X1377222Y632322D01*
X1386909Y625801D01*
X1392435Y622022D01*
X1402525Y615134D01*
X1411630Y609014D01*
X1419297Y603958D01*
X1425073Y600263D01*
X1428504Y598226D01*
X1429225Y597920D01*
X1431275Y598614D01*
X1436051Y600505D01*
X1442883Y603309D01*
X1451099Y606739D01*
X1460027Y610511D01*
X1468996Y614339D01*
X1477334Y617937D01*
X1484369Y621021D01*
X1489431Y623304D01*
X1491847Y624502D01*
X1491942Y624572D01*
X1492404Y626453D01*
X1493433Y631462D01*
X1494929Y639079D01*
X1496790Y648787D01*
X1498916Y660064D01*
X1500142Y666644D01*
X1502436Y678695D01*
X1504619Y689580D01*
X1506572Y698748D01*
X1508175Y705648D01*
X1509308Y709730D01*
X1509667Y710551D01*
X1512101Y711355D01*
X1517596Y712003D01*
X1525511Y712497D01*
X1535203Y712836D01*
X1546029Y713022D01*
X1557346Y713054D01*
X1568513Y712933D01*
X1578887Y712659D01*
X1587824Y712233D01*
X1594683Y711655D01*
X1598820Y710927D01*
X1599681Y710489D01*
X1600713Y707876D01*
X1602189Y702339D01*
X1603935Y694611D01*
X1605778Y685423D01*
X1606374Y682216D01*
X1609207Y666752D01*
X1611488Y654538D01*
X1613308Y645167D01*
X1614758Y638238D01*
X1615929Y633347D01*
X1616911Y630090D01*
X1617796Y628063D01*
X1618672Y626863D01*
X1618846Y626695D01*
X1621637Y625018D01*
X1627069Y622461D01*
X1634478Y619279D01*
X1643196Y615726D01*
X1652561Y612058D01*
X1661905Y608531D01*
X1670565Y605400D01*
X1677874Y602919D01*
X1683168Y601345D01*
X1685781Y600933D01*
X1685873Y600968D01*
X1688009Y602364D01*
X1692708Y605532D01*
X1699483Y610139D01*
X1707842Y615852D01*
X1717298Y622337D01*
X1719985Y624184D01*
X1729727Y630770D01*
X1738616Y636565D01*
X1746141Y641254D01*
X1751792Y644521D01*
X1755058Y646050D01*
X1755459Y646124D01*
X1757568Y644839D01*
X1761746Y641289D01*
X1767544Y635929D01*
X1774513Y629217D01*
X1782204Y621609D01*
X1790168Y613560D01*
X1797956Y605529D01*
X1805119Y597970D01*
X1811207Y591341D01*
X1815772Y586097D01*
X1818365Y582696D01*
X1818788Y581755D01*
X1817791Y579564D01*
X1815102Y575080D01*
X1811174Y569032D01*
X1808012Y564379D01*
X1802210Y555948D01*
X1795378Y545963D01*
X1788558Y535947D01*
X1784907Y530563D01*
X1772580Y512337D01*
X1780852Y497038D01*
X1784476Y490068D01*
X1787293Y484141D01*
X1788899Y480131D01*
X1789123Y479110D01*
X1787472Y477883D01*
X1782808Y475461D01*
X1775561Y472026D01*
X1766161Y467759D01*
X1755037Y462839D01*
X1742621Y457449D01*
X1729343Y451768D01*
X1715633Y445978D01*
X1701920Y440259D01*
X1688636Y434792D01*
X1676210Y429758D01*
X1665072Y425338D01*
X1655654Y421712D01*
X1648384Y419061D01*
X1643694Y417566D01*
X1642083Y417325D01*
X1640029Y419231D01*
X1636693Y423404D01*
X1632770Y428971D01*
X1632460Y429438D01*
X1620942Y443826D01*
X1607505Y455428D01*
X1592578Y464143D01*
X1576591Y469870D01*
X1559974Y472509D01*
X1543155Y471958D01*
X1526565Y468119D01*
X1510634Y460889D01*
X1507149Y458763D01*
X1493074Y447700D01*
X1481771Y434630D01*
X1473300Y420006D01*
X1467719Y404281D01*
X1465087Y387906D01*
X1465463Y371333D01*
X1468905Y355016D01*
X1475472Y339407D01*
X1485223Y324957D01*
X1489181Y320487D01*
X1501570Y309111D01*
X1514612Y300822D01*
X1529231Y295136D01*
X1543709Y291969D01*
X1559986Y291187D01*
X1576344Y293794D01*
X1592230Y299525D01*
X1607091Y308114D01*
X1620373Y319299D01*
X1631526Y332812D01*
X1632701Y334588D01*
X1636551Y340215D01*
X1639886Y344492D01*
X1642016Y346537D01*
X1642083Y346567D01*
X1644387Y346128D01*
X1649616Y344388D01*
X1657339Y341527D01*
X1667127Y337727D01*
X1678549Y333167D01*
X1691176Y328030D01*
X1704577Y322496D01*
X1718322Y316746D01*
X1731981Y310960D01*
X1745124Y305320D01*
X1757320Y300006D01*
X1768141Y295199D01*
X1777155Y291080D01*
X1783932Y287830D01*
X1788043Y285630D01*
X1789123Y284744D01*
X1788282Y282036D01*
X1786027Y276970D01*
X1782761Y270418D01*
X1780852Y266816D01*
X1772580Y251517D01*
X1784907Y233291D01*
X1791223Y223987D01*
X1798173Y213801D01*
X1804716Y204256D01*
X1808012Y199475D01*
X1812527Y192750D01*
X1816106Y187056D01*
X1818294Y183135D01*
X1818756Y181862D01*
X1817508Y180008D01*
X1814025Y175906D01*
X1808668Y169953D01*
X1801798Y162546D01*
X1793778Y154084D01*
X1788629Y148732D01*
X1779429Y139368D01*
X1771200Y131276D01*
X1764294Y124782D01*
X1759064Y120214D01*
X1755862Y117899D01*
X1755212Y117677D01*
X1752739Y118708D01*
X1747740Y121556D01*
X1740721Y125906D01*
X1732187Y131442D01*
X1722646Y137848D01*
X1719985Y139670D01*
X1710317Y146307D01*
X1701612Y152262D01*
X1694359Y157202D01*
X1689049Y160793D01*
X1686170Y162702D01*
X1685873Y162886D01*
X1683578Y162611D01*
X1678534Y161146D01*
X1671404Y158749D01*
X1662855Y155673D01*
X1653551Y152176D01*
X1644157Y148511D01*
X1635340Y144934D01*
X1627763Y141701D01*
X1622093Y139066D01*
X1618994Y137286D01*
X1618846Y137159D01*
X1617960Y136071D01*
X1617084Y134232D01*
X1616128Y131239D01*
X1615000Y126690D01*
X1613609Y120179D01*
X1611866Y111304D01*
X1609680Y99661D01*
X1606959Y84846D01*
X1606374Y81638D01*
X1604537Y72131D01*
X1602740Y63843D01*
X1601157Y57507D01*
X1599960Y53854D01*
X1599681Y53364D01*
X1597207Y52557D01*
X1591679Y51901D01*
X1583739Y51397D01*
X1574030Y51044D01*
X1563194Y50844D01*
X1551874Y50796D01*
X1540713Y50902D01*
X1530353Y51162D01*
X1521437Y51575D01*
X1514607Y52144D01*
X1510507Y52867D01*
X1509667Y53303D01*
X1508821Y55730D01*
X1507443Y61257D01*
X1505655Y69334D01*
X1503575Y79409D01*
X1501322Y90932D01*
X1500142Y97210D01*
X1497915Y109121D01*
X1495898Y119743D01*
X1494191Y128557D01*
X1492897Y135043D01*
X1492115Y138683D01*
X1491942Y139282D01*
X1489989Y140294D01*
X1485284Y142434D01*
X1478500Y145416D01*
X1470309Y148956D01*
X1461383Y152767D01*
X1452393Y156565D01*
X1444013Y160064D01*
X1436915Y162979D01*
X1431769Y165026D01*
X1429250Y165918D01*
X1429140Y165934D01*
X1427152Y164923D01*
X1422578Y162088D01*
X1415872Y157728D01*
X1407488Y152139D01*
X1397883Y145621D01*
X1392365Y141832D01*
X1382248Y134928D01*
X1373063Y128795D01*
X1365274Y123734D01*
X1359347Y120043D01*
X1355745Y118022D01*
X1354938Y117730D01*
X1353058Y118985D01*
X1349046Y122454D01*
X1343349Y127694D01*
X1336419Y134262D01*
X1328703Y141714D01*
X1320653Y149609D01*
X1312716Y157502D01*
X1305344Y164950D01*
X1298985Y171511D01*
X1294089Y176740D01*
X1291106Y180196D01*
X1290394Y181352D01*
X1291395Y183235D01*
X1294208Y187737D01*
X1298545Y194421D01*
X1304122Y202850D01*
X1310651Y212586D01*
X1315625Y219929D01*
X1340855Y257033D01*
X1315356Y318891D01*
X1270893Y327273D01*
X1226431Y335655D01*
X1226431Y428199D01*
X1270893Y436581D01*
D13*
X2026428Y3093238D02*
X2026428Y2993238D01*
X1988333Y2993238D01*
X1978809Y2998000D01*
X1974048Y3002762D01*
X1969286Y3012286D01*
X1969286Y3026571D01*
X1974048Y3036095D01*
X1978809Y3040857D01*
X1988333Y3045619D01*
X2026428Y3045619D01*
X1931190Y3088476D02*
X1916905Y3093238D01*
X1893095Y3093238D01*
X1883571Y3088476D01*
X1878809Y3083714D01*
X1874048Y3074190D01*
X1874048Y3064667D01*
X1878809Y3055143D01*
X1883571Y3050381D01*
X1893095Y3045619D01*
X1912143Y3040857D01*
X1921667Y3036095D01*
X1926428Y3031333D01*
X1931190Y3021810D01*
X1931190Y3012286D01*
X1926428Y3002762D01*
X1921667Y2998000D01*
X1912143Y2993238D01*
X1888333Y2993238D01*
X1874048Y2998000D01*
X1778809Y3093238D02*
X1835952Y3093238D01*
X1807381Y3093238D02*
X1807381Y2993238D01*
X1816905Y3007524D01*
X1826428Y3017048D01*
X1835952Y3021810D01*
X1787524Y3547262D02*
X1797048Y3542500D01*
X1806571Y3532976D01*
X1820857Y3518690D01*
X1830381Y3513929D01*
X1839905Y3513929D01*
X1835143Y3537738D02*
X1844667Y3532976D01*
X1854190Y3523452D01*
X1858952Y3504405D01*
X1858952Y3471071D01*
X1854190Y3452024D01*
X1844667Y3442500D01*
X1835143Y3437738D01*
X1816095Y3437738D01*
X1806571Y3442500D01*
X1797048Y3452024D01*
X1792286Y3471071D01*
X1792286Y3504405D01*
X1797048Y3523452D01*
X1806571Y3532976D01*
X1816095Y3537738D01*
X1835143Y3537738D01*
X1697048Y3537738D02*
X1754190Y3537738D01*
X1725619Y3537738D02*
X1725619Y3437738D01*
X1735143Y3452024D01*
X1744667Y3461548D01*
X1754190Y3466310D01*
X33333Y4072738D02*
X33333Y4144167D01*
X38095Y4158452D01*
X47619Y4167976D01*
X61905Y4172738D01*
X71429Y4172738D01*
X-66667Y4172738D02*
X-9524Y4172738D01*
X-38095Y4172738D02*
X-38095Y4072738D01*
X-28571Y4087024D01*
X-19048Y4096548D01*
X-9524Y4101310D01*
%LPC*%
D14*
X1397000Y0D03*
X1905000Y762000D03*
X1651000Y0D03*
X1651000Y762000D03*
X1905000Y0D03*
D15*
X1397000Y762000D03*
D16*
X2286000Y-317500D03*
D17*
X889000Y-317500D03*
D18*
X2286000Y254000D03*
X2286000Y762000D03*
X2286000Y508000D03*
X2286000Y2540000D03*
X2286000Y2286000D03*
X2286000Y1778000D03*
X2286000Y2032000D03*
X2286000Y3556000D03*
X2286000Y1524000D03*
X2286000Y1016000D03*
X2286000Y1270000D03*
X2286000Y2794000D03*
X2286000Y3302000D03*
X2286000Y3048000D03*
X2286000Y0D03*
X0Y3556000D03*
X0Y3302000D03*
X0Y3048000D03*
X0Y2794000D03*
X0Y2540000D03*
X0Y2286000D03*
X0Y2032000D03*
X0Y1778000D03*
X0Y1524000D03*
X0Y1270000D03*
X0Y1016000D03*
X0Y762000D03*
X0Y508000D03*
X0Y254000D03*
D19*
X0Y0D03*
D20*
X381000Y-317500D03*
D16*
X635000Y-317500D03*
D21*
X1145000Y-323500D03*
X385000Y2476500D03*
D22*
X1905000Y2476500D03*
D21*
X1905000Y-323500D03*
D14*
X1905000Y2032000D03*
D23*
X1905000Y1016000D03*
X635000Y1397000D03*
D14*
X1651000Y1397000D03*
X889000Y2794000D03*
D23*
X1905000Y2794000D03*
D14*
X381000Y1143000D03*
D23*
X381000Y2159000D03*
D14*
X1397000Y3048000D03*
D23*
X381000Y3048000D03*
D15*
X1397000Y1778000D03*
D14*
X889000Y2540000D03*
X889000Y1778000D03*
X1397000Y2540000D03*
X889000Y762000D03*
X381000Y0D03*
X635000Y762000D03*
X635000Y0D03*
X381000Y762000D03*
D15*
X889000Y0D03*
D24*
X889000Y3492500D03*
X1143000Y3492500D03*
D25*
X1397000Y3492500D03*
D26*
X1905000Y4127500D03*
X1397000Y4127500D03*
X889000Y4127500D03*
D27*
X381000Y4127500D03*
M02*
