%TF.GenerationSoftware,KiCad,Pcbnew,5.1.5+dfsg1-2~bpo10+1*%
%TF.CreationDate,2020-10-04T09:49:28+00:00*%
%TF.ProjectId,PWR,5057522e-6b69-4636-9164-5f7063625858,rev?*%
%TF.SameCoordinates,Original*%
%TF.FileFunction,Legend,Bot*%
%TF.FilePolarity,Positive*%
%FSLAX45Y45*%
G04 Gerber Fmt 4.5, Leading zero omitted, Abs format (unit mm)*
G04 Created by KiCad (PCBNEW 5.1.5+dfsg1-2~bpo10+1) date 2020-10-04 09:49:28*
%MOMM*%
%LPD*%
G04 APERTURE LIST*
%ADD10C,0.300000*%
%ADD11C,0.120000*%
%ADD12C,0.150000*%
%ADD13O,2.000000X2.000000*%
%ADD14R,2.000000X2.000000*%
%ADD15R,2.100000X2.100000*%
%ADD16C,2.100000*%
%ADD17C,2.432000*%
%ADD18R,2.432000X2.432000*%
%ADD19O,2.100000X2.100000*%
%ADD20C,2.700000*%
%ADD21R,2.400000X2.700000*%
%ADD22C,2.000000*%
%ADD23O,2.305000X2.400000*%
%ADD24R,2.305000X2.400000*%
%ADD25C,3.000000*%
%ADD26R,3.000000X3.000000*%
G04 APERTURE END LIST*
D10*
X85857Y3864286D02*
X85857Y3744286D01*
X114428Y3744286D01*
X131571Y3750000D01*
X143000Y3761429D01*
X148714Y3772857D01*
X154429Y3795714D01*
X154429Y3812857D01*
X148714Y3835714D01*
X143000Y3847143D01*
X131571Y3858571D01*
X114428Y3864286D01*
X85857Y3864286D01*
X200143Y3830000D02*
X257286Y3830000D01*
X188714Y3864286D02*
X228714Y3744286D01*
X268714Y3864286D01*
X308714Y3864286D02*
X308714Y3744286D01*
X377286Y3864286D01*
X377286Y3744286D01*
X497286Y3750000D02*
X485857Y3744286D01*
X468714Y3744286D01*
X451571Y3750000D01*
X440143Y3761429D01*
X434428Y3772857D01*
X428714Y3795714D01*
X428714Y3812857D01*
X434428Y3835714D01*
X440143Y3847143D01*
X451571Y3858571D01*
X468714Y3864286D01*
X480143Y3864286D01*
X497286Y3858571D01*
X503000Y3852857D01*
X503000Y3812857D01*
X480143Y3812857D01*
X554429Y3801429D02*
X594429Y3801429D01*
X611571Y3864286D02*
X554429Y3864286D01*
X554429Y3744286D01*
X611571Y3744286D01*
X731571Y3864286D02*
X691571Y3807143D01*
X663000Y3864286D02*
X663000Y3744286D01*
X708714Y3744286D01*
X720143Y3750000D01*
X725857Y3755714D01*
X731571Y3767143D01*
X731571Y3784286D01*
X725857Y3795714D01*
X720143Y3801429D01*
X708714Y3807143D01*
X663000Y3807143D01*
X783000Y3852857D02*
X788714Y3858571D01*
X783000Y3864286D01*
X777286Y3858571D01*
X783000Y3852857D01*
X783000Y3864286D01*
X783000Y3790000D02*
X788714Y3795714D01*
X783000Y3801429D01*
X777286Y3795714D01*
X783000Y3790000D01*
X783000Y3801429D01*
X931571Y3864286D02*
X931571Y3744286D01*
X931571Y3801429D02*
X1000143Y3801429D01*
X1000143Y3864286D02*
X1000143Y3744286D01*
X1057286Y3864286D02*
X1057286Y3744286D01*
X1177286Y3750000D02*
X1165857Y3744286D01*
X1148714Y3744286D01*
X1131571Y3750000D01*
X1120143Y3761429D01*
X1114429Y3772857D01*
X1108714Y3795714D01*
X1108714Y3812857D01*
X1114429Y3835714D01*
X1120143Y3847143D01*
X1131571Y3858571D01*
X1148714Y3864286D01*
X1160143Y3864286D01*
X1177286Y3858571D01*
X1183000Y3852857D01*
X1183000Y3812857D01*
X1160143Y3812857D01*
X1234429Y3864286D02*
X1234429Y3744286D01*
X1234429Y3801429D02*
X1303000Y3801429D01*
X1303000Y3864286D02*
X1303000Y3744286D01*
X1434428Y3744286D02*
X1474428Y3864286D01*
X1514428Y3744286D01*
X1577286Y3744286D02*
X1600143Y3744286D01*
X1611571Y3750000D01*
X1623000Y3761429D01*
X1628714Y3784286D01*
X1628714Y3824286D01*
X1623000Y3847143D01*
X1611571Y3858571D01*
X1600143Y3864286D01*
X1577286Y3864286D01*
X1565857Y3858571D01*
X1554428Y3847143D01*
X1548714Y3824286D01*
X1548714Y3784286D01*
X1554428Y3761429D01*
X1565857Y3750000D01*
X1577286Y3744286D01*
X1737286Y3864286D02*
X1680143Y3864286D01*
X1680143Y3744286D01*
X1760143Y3744286D02*
X1828714Y3744286D01*
X1794428Y3864286D02*
X1794428Y3744286D01*
X1863000Y3830000D02*
X1920143Y3830000D01*
X1851571Y3864286D02*
X1891571Y3744286D01*
X1931571Y3864286D01*
X2034428Y3750000D02*
X2023000Y3744286D01*
X2005857Y3744286D01*
X1988714Y3750000D01*
X1977286Y3761429D01*
X1971571Y3772857D01*
X1965857Y3795714D01*
X1965857Y3812857D01*
X1971571Y3835714D01*
X1977286Y3847143D01*
X1988714Y3858571D01*
X2005857Y3864286D01*
X2017286Y3864286D01*
X2034428Y3858571D01*
X2040143Y3852857D01*
X2040143Y3812857D01*
X2017286Y3812857D01*
X2091571Y3801429D02*
X2131571Y3801429D01*
X2148714Y3864286D02*
X2091571Y3864286D01*
X2091571Y3744286D01*
X2148714Y3744286D01*
X2200143Y3852857D02*
X2205857Y3858571D01*
X2200143Y3864286D01*
X2194429Y3858571D01*
X2200143Y3852857D01*
X2200143Y3864286D01*
X2200143Y3818571D02*
X2194429Y3750000D01*
X2200143Y3744286D01*
X2205857Y3750000D01*
X2200143Y3818571D01*
X2200143Y3744286D01*
X1859286Y4580881D02*
X1859286Y4420881D01*
X1950714Y4580881D01*
X1950714Y4420881D01*
X1355095Y4580881D02*
X1355095Y4420881D01*
X1393190Y4420881D01*
X1416048Y4428500D01*
X1431286Y4443738D01*
X1438905Y4458976D01*
X1446524Y4489452D01*
X1446524Y4512310D01*
X1438905Y4542786D01*
X1431286Y4558024D01*
X1416048Y4573262D01*
X1393190Y4580881D01*
X1355095Y4580881D01*
X843286Y4580881D02*
X843286Y4420881D01*
X934714Y4580881D01*
X934714Y4420881D01*
X430524Y4580881D02*
X354333Y4580881D01*
X354333Y4420881D01*
D11*
X2476500Y-508000D02*
G75*
G02X2349500Y-635000I-127000J0D01*
G01*
X-190500Y4572000D02*
G75*
G02X-63500Y4699000I127000J0D01*
G01*
X-63500Y-635000D02*
G75*
G02X-190500Y-508000I0J127000D01*
G01*
X2349500Y4699000D02*
G75*
G02X2476500Y4572000I0J-127000D01*
G01*
X-190500Y4572000D02*
X-190500Y-508000D01*
X2349500Y4699000D02*
X-63500Y4699000D01*
X2476500Y-508000D02*
X2476500Y4572000D01*
X-63500Y-635000D02*
X2349500Y-635000D01*
X1264000Y116000D02*
X1264000Y281000D01*
X2038000Y116000D02*
X1264000Y116000D01*
X2038000Y646000D02*
X2038000Y116000D01*
X1264000Y646000D02*
X2038000Y646000D01*
X1264000Y481000D02*
X1264000Y646000D01*
X1264000Y281000D02*
G75*
G03X1264000Y481000I0J100000D01*
G01*
X2153000Y-450500D02*
X2286000Y-450500D01*
X2153000Y-317500D02*
X2153000Y-450500D01*
X2153000Y-190500D02*
X2419000Y-190500D01*
X2419000Y-190500D02*
X2419000Y-184500D01*
X2153000Y-190500D02*
X2153000Y-184500D01*
X2153000Y-184500D02*
X2419000Y-184500D01*
X756000Y-450500D02*
X889000Y-450500D01*
X756000Y-317500D02*
X756000Y-450500D01*
X756000Y-190500D02*
X1022000Y-190500D01*
X1022000Y-190500D02*
X1022000Y-184500D01*
X756000Y-190500D02*
X756000Y-184500D01*
X756000Y-184500D02*
X1022000Y-184500D01*
X127000Y-127000D02*
X-127000Y-127000D01*
X2413000Y3683000D02*
X2413000Y-127000D01*
X2413000Y-127000D02*
X2159000Y-127000D01*
X2159000Y-127000D02*
X2159000Y3683000D01*
X2159000Y3683000D02*
X2413000Y3683000D01*
X127000Y127000D02*
X-127000Y127000D01*
X127000Y3683000D02*
X127000Y-127000D01*
X-127000Y3683000D02*
X127000Y3683000D01*
X-127000Y-127000D02*
X-127000Y3683000D01*
X768000Y-317500D02*
X768000Y-184500D01*
X768000Y-184500D02*
X635000Y-184500D01*
X508000Y-184500D02*
X248000Y-184500D01*
X248000Y-450500D02*
X248000Y-184500D01*
X508000Y-450500D02*
X248000Y-450500D01*
X508000Y-450500D02*
X508000Y-184500D01*
X1905000Y1928000D02*
X1905000Y1851000D01*
X1905000Y1120000D02*
X1905000Y1197000D01*
X2042000Y1851000D02*
X2042000Y1197000D01*
X1768000Y1851000D02*
X2042000Y1851000D01*
X1768000Y1197000D02*
X1768000Y1851000D01*
X2042000Y1197000D02*
X1768000Y1197000D01*
X816000Y1260000D02*
X816000Y1534000D01*
X816000Y1534000D02*
X1470000Y1534000D01*
X1470000Y1534000D02*
X1470000Y1260000D01*
X1470000Y1260000D02*
X816000Y1260000D01*
X739000Y1397000D02*
X816000Y1397000D01*
X1547000Y1397000D02*
X1470000Y1397000D01*
X993000Y2794000D02*
X1070000Y2794000D01*
X1801000Y2794000D02*
X1724000Y2794000D01*
X1070000Y2931000D02*
X1724000Y2931000D01*
X1070000Y2657000D02*
X1070000Y2931000D01*
X1724000Y2657000D02*
X1070000Y2657000D01*
X1724000Y2931000D02*
X1724000Y2657000D01*
X381000Y1247000D02*
X381000Y1324000D01*
X381000Y2055000D02*
X381000Y1978000D01*
X244000Y1324000D02*
X244000Y1978000D01*
X518000Y1324000D02*
X244000Y1324000D01*
X518000Y1978000D02*
X518000Y1324000D01*
X244000Y1978000D02*
X518000Y1978000D01*
X1293000Y3048000D02*
X1216000Y3048000D01*
X485000Y3048000D02*
X562000Y3048000D01*
X1216000Y2911000D02*
X562000Y2911000D01*
X1216000Y3185000D02*
X1216000Y2911000D01*
X562000Y3185000D02*
X1216000Y3185000D01*
X562000Y2911000D02*
X562000Y3185000D01*
X1587000Y2259000D02*
G75*
G03X1587000Y2059000I0J-100000D01*
G01*
X1587000Y2059000D02*
X1587000Y1882000D01*
X1587000Y1882000D02*
X727000Y1882000D01*
X727000Y1882000D02*
X727000Y2436000D01*
X727000Y2436000D02*
X1587000Y2436000D01*
X1587000Y2436000D02*
X1587000Y2259000D01*
X1022000Y646000D02*
X1022000Y481000D01*
X248000Y646000D02*
X1022000Y646000D01*
X248000Y116000D02*
X248000Y646000D01*
X1022000Y116000D02*
X248000Y116000D01*
X1022000Y281000D02*
X1022000Y116000D01*
X1022000Y481000D02*
G75*
G03X1022000Y281000I0J-100000D01*
G01*
D12*
X1574809Y961238D02*
X1574809Y1042190D01*
X1579571Y1051714D01*
X1584333Y1056476D01*
X1593857Y1061238D01*
X1612905Y1061238D01*
X1622428Y1056476D01*
X1627190Y1051714D01*
X1631952Y1042190D01*
X1631952Y961238D01*
X1674809Y970762D02*
X1679571Y966000D01*
X1689095Y961238D01*
X1712905Y961238D01*
X1722428Y966000D01*
X1727190Y970762D01*
X1731952Y980286D01*
X1731952Y989810D01*
X1727190Y1004095D01*
X1670048Y1061238D01*
X1731952Y1061238D01*
X-76191Y-308762D02*
X-76191Y-227809D01*
X-71429Y-218286D01*
X-66667Y-213524D01*
X-57143Y-208762D01*
X-38095Y-208762D01*
X-28571Y-213524D01*
X-23810Y-218286D01*
X-19048Y-227809D01*
X-19048Y-308762D01*
X19048Y-308762D02*
X80952Y-308762D01*
X47619Y-270667D01*
X61905Y-270667D01*
X71429Y-265905D01*
X76190Y-261143D01*
X80952Y-251619D01*
X80952Y-227809D01*
X76190Y-218286D01*
X71429Y-213524D01*
X61905Y-208762D01*
X33333Y-208762D01*
X23809Y-213524D01*
X19048Y-218286D01*
X1634333Y1696238D02*
X1601000Y1648619D01*
X1577190Y1696238D02*
X1577190Y1596238D01*
X1615286Y1596238D01*
X1624809Y1601000D01*
X1629571Y1605762D01*
X1634333Y1615286D01*
X1634333Y1629571D01*
X1629571Y1639095D01*
X1624809Y1643857D01*
X1615286Y1648619D01*
X1577190Y1648619D01*
X1724809Y1596238D02*
X1677190Y1596238D01*
X1672428Y1643857D01*
X1677190Y1639095D01*
X1686714Y1634333D01*
X1710524Y1634333D01*
X1720048Y1639095D01*
X1724809Y1643857D01*
X1729571Y1653381D01*
X1729571Y1677190D01*
X1724809Y1686714D01*
X1720048Y1691476D01*
X1710524Y1696238D01*
X1686714Y1696238D01*
X1677190Y1691476D01*
X1672428Y1686714D01*
X426238Y1413667D02*
X378619Y1447000D01*
X426238Y1470810D02*
X326238Y1470810D01*
X326238Y1432714D01*
X331000Y1423190D01*
X335762Y1418429D01*
X345286Y1413667D01*
X359571Y1413667D01*
X369095Y1418429D01*
X373857Y1423190D01*
X378619Y1432714D01*
X378619Y1470810D01*
X359571Y1327952D02*
X426238Y1327952D01*
X321476Y1351762D02*
X392905Y1375572D01*
X392905Y1313667D01*
X1888333Y3093238D02*
X1855000Y3045619D01*
X1831190Y3093238D02*
X1831190Y2993238D01*
X1869286Y2993238D01*
X1878809Y2998000D01*
X1883571Y3002762D01*
X1888333Y3012286D01*
X1888333Y3026571D01*
X1883571Y3036095D01*
X1878809Y3040857D01*
X1869286Y3045619D01*
X1831190Y3045619D01*
X1921667Y2993238D02*
X1983571Y2993238D01*
X1950238Y3031333D01*
X1964524Y3031333D01*
X1974048Y3036095D01*
X1978809Y3040857D01*
X1983571Y3050381D01*
X1983571Y3074190D01*
X1978809Y3083714D01*
X1974048Y3088476D01*
X1964524Y3093238D01*
X1935952Y3093238D01*
X1926428Y3088476D01*
X1921667Y3083714D01*
X618333Y1696238D02*
X585000Y1648619D01*
X561190Y1696238D02*
X561190Y1596238D01*
X599286Y1596238D01*
X608810Y1601000D01*
X613571Y1605762D01*
X618333Y1615286D01*
X618333Y1629571D01*
X613571Y1639095D01*
X608810Y1643857D01*
X599286Y1648619D01*
X561190Y1648619D01*
X656429Y1605762D02*
X661190Y1601000D01*
X670714Y1596238D01*
X694524Y1596238D01*
X704048Y1601000D01*
X708809Y1605762D01*
X713571Y1615286D01*
X713571Y1624810D01*
X708809Y1639095D01*
X651667Y1696238D01*
X713571Y1696238D01*
X364333Y2839238D02*
X331000Y2791619D01*
X307190Y2839238D02*
X307190Y2739238D01*
X345286Y2739238D01*
X354809Y2744000D01*
X359571Y2748762D01*
X364333Y2758286D01*
X364333Y2772572D01*
X359571Y2782095D01*
X354809Y2786857D01*
X345286Y2791619D01*
X307190Y2791619D01*
X459571Y2839238D02*
X402428Y2839238D01*
X431000Y2839238D02*
X431000Y2739238D01*
X421476Y2753524D01*
X411952Y2763048D01*
X402428Y2767810D01*
X1069190Y1696238D02*
X1069190Y1596238D01*
X1093000Y1596238D01*
X1107286Y1601000D01*
X1116810Y1610524D01*
X1121571Y1620048D01*
X1126333Y1639095D01*
X1126333Y1653381D01*
X1121571Y1672429D01*
X1116810Y1681952D01*
X1107286Y1691476D01*
X1093000Y1696238D01*
X1069190Y1696238D01*
X1221571Y1696238D02*
X1164429Y1696238D01*
X1193000Y1696238D02*
X1193000Y1596238D01*
X1183476Y1610524D01*
X1173952Y1620048D01*
X1164429Y1624810D01*
X558810Y961238D02*
X558810Y1042190D01*
X563571Y1051714D01*
X568333Y1056476D01*
X577857Y1061238D01*
X596905Y1061238D01*
X606429Y1056476D01*
X611190Y1051714D01*
X615952Y1042190D01*
X615952Y961238D01*
X715952Y1061238D02*
X658810Y1061238D01*
X687381Y1061238D02*
X687381Y961238D01*
X677857Y975524D01*
X668333Y985048D01*
X658810Y989810D01*
%LPC*%
D13*
X1397000Y0D03*
X1905000Y762000D03*
X1651000Y0D03*
X1651000Y762000D03*
X1905000Y0D03*
D14*
X1397000Y762000D03*
D15*
X2286000Y-317500D03*
D16*
X889000Y-317500D03*
D17*
X2286000Y254000D03*
X2286000Y762000D03*
X2286000Y508000D03*
X2286000Y2540000D03*
X2286000Y2286000D03*
X2286000Y1778000D03*
X2286000Y2032000D03*
X2286000Y3556000D03*
X2286000Y1524000D03*
X2286000Y1016000D03*
X2286000Y1270000D03*
X2286000Y2794000D03*
X2286000Y3302000D03*
X2286000Y3048000D03*
X2286000Y0D03*
X0Y3556000D03*
X0Y3302000D03*
X0Y3048000D03*
X0Y2794000D03*
X0Y2540000D03*
X0Y2286000D03*
X0Y2032000D03*
X0Y1778000D03*
X0Y1524000D03*
X0Y1270000D03*
X0Y1016000D03*
X0Y762000D03*
X0Y508000D03*
X0Y254000D03*
D18*
X0Y0D03*
D19*
X381000Y-317500D03*
D15*
X635000Y-317500D03*
D20*
X1145000Y-323500D03*
X385000Y2476500D03*
D21*
X1905000Y2476500D03*
D20*
X1905000Y-323500D03*
D13*
X1905000Y2032000D03*
D22*
X1905000Y1016000D03*
X635000Y1397000D03*
D13*
X1651000Y1397000D03*
X889000Y2794000D03*
D22*
X1905000Y2794000D03*
D13*
X381000Y1143000D03*
D22*
X381000Y2159000D03*
D13*
X1397000Y3048000D03*
D22*
X381000Y3048000D03*
D14*
X1397000Y1778000D03*
D13*
X889000Y2540000D03*
X889000Y1778000D03*
X1397000Y2540000D03*
X889000Y762000D03*
X381000Y0D03*
X635000Y762000D03*
X635000Y0D03*
X381000Y762000D03*
D14*
X889000Y0D03*
D23*
X889000Y3492500D03*
X1143000Y3492500D03*
D24*
X1397000Y3492500D03*
D25*
X1905000Y4127500D03*
X1397000Y4127500D03*
X889000Y4127500D03*
D26*
X381000Y4127500D03*
M02*
