M48
METRIC
T1C0.760
T2C0.800
T3C1.000
T4C1.016
T5C1.100
T6C1.300
%
G90
G05
T1
X11.45Y-3.235
X19.05Y-3.235
T2
X19.05Y20.32
X19.05Y10.16
X13.97Y7.62
X13.97Y0.0
X16.51Y7.62
X16.51Y0.0
X19.05Y7.62
X19.05Y0.0
X8.89Y25.4
X8.89Y17.78
X13.97Y25.4
X13.97Y17.78
X3.81Y7.62
X3.81Y0.0
X6.35Y7.62
X6.35Y0.0
X8.89Y7.62
X8.89Y0.0
X6.35Y13.97
X16.51Y13.97
X3.85Y24.765
X19.05Y24.765
X3.81Y21.59
X3.81Y11.43
X8.89Y27.94
X19.05Y27.94
X3.81Y30.48
X13.97Y30.48
T3
X22.86Y-3.175
X3.81Y-3.175
X6.35Y-3.175
X8.89Y-3.175
T4
X0.0Y35.56
X0.0Y33.02
X0.0Y30.48
X0.0Y27.94
X0.0Y25.4
X0.0Y22.86
X0.0Y20.32
X0.0Y17.78
X0.0Y15.24
X0.0Y12.7
X0.0Y10.16
X0.0Y7.62
X0.0Y5.08
X0.0Y2.54
X0.0Y0.0
X22.86Y35.56
X22.86Y33.02
X22.86Y30.48
X22.86Y27.94
X22.86Y25.4
X22.86Y22.86
X22.86Y20.32
X22.86Y17.78
X22.86Y15.24
X22.86Y12.7
X22.86Y10.16
X22.86Y7.62
X22.86Y5.08
X22.86Y2.54
X22.86Y0.0
T5
X8.89Y34.925
X11.43Y34.925
X13.97Y34.925
T6
X3.81Y41.275
X8.89Y41.275
X13.97Y41.275
X19.05Y41.275
T0
M30
