%TF.GenerationSoftware,KiCad,Pcbnew,5.1.5+dfsg1-2~bpo10+1*%
%TF.CreationDate,2020-10-04T09:49:28+00:00*%
%TF.ProjectId,PWR,5057522e-6b69-4636-9164-5f7063625858,rev?*%
%TF.SameCoordinates,Original*%
%TF.FileFunction,Plated,1,2,PTH,Drill*%
%TF.FilePolarity,Positive*%
%FSLAX46Y46*%
G04 Gerber Fmt 4.6, Leading zero omitted, Abs format (unit mm)*
G04 Created by KiCad (PCBNEW 5.1.5+dfsg1-2~bpo10+1) date 2020-10-04 09:49:28*
%MOMM*%
%LPD*%
G04 APERTURE LIST*
%TA.AperFunction,ComponentDrill*%
%ADD10C,0.760000*%
%TD*%
%TA.AperFunction,ComponentDrill*%
%ADD11C,0.800000*%
%TD*%
%TA.AperFunction,ComponentDrill*%
%ADD12C,1.000000*%
%TD*%
%TA.AperFunction,ComponentDrill*%
%ADD13C,1.016000*%
%TD*%
%TA.AperFunction,ComponentDrill*%
%ADD14C,1.100000*%
%TD*%
%TA.AperFunction,ComponentDrill*%
%ADD15C,1.300000*%
%TD*%
G04 APERTURE END LIST*
D10*
%TO.C,PS1*%
X11450000Y-3235000D03*
X19050000Y-3235000D03*
D11*
%TO.C,R5*%
X19050000Y20320000D03*
X19050000Y10160000D03*
%TO.C,U2*%
X13970000Y7620000D03*
X13970000Y0D03*
X16510000Y7620000D03*
X16510000Y0D03*
X19050000Y7620000D03*
X19050000Y0D03*
%TO.C,D1*%
X8890000Y25400000D03*
X8890000Y17780000D03*
X13970000Y25400000D03*
X13970000Y17780000D03*
%TO.C,U1*%
X3810000Y7620000D03*
X3810000Y0D03*
X6350000Y7620000D03*
X6350000Y0D03*
X8890000Y7620000D03*
X8890000Y0D03*
%TO.C,R4*%
X6350000Y13970000D03*
X16510000Y13970000D03*
%TO.C,PS1*%
X3850000Y24765000D03*
X19050000Y24765000D03*
%TO.C,R2*%
X3810000Y21590000D03*
X3810000Y11430000D03*
%TO.C,R3*%
X8890000Y27940000D03*
X19050000Y27940000D03*
%TO.C,R1*%
X3810000Y30480000D03*
X13970000Y30480000D03*
D12*
%TO.C,J2*%
X22860000Y-3175000D03*
%TO.C,J3*%
X3810000Y-3175000D03*
X6350000Y-3175000D03*
%TO.C,J5*%
X8890000Y-3175000D03*
D13*
%TO.C,U3*%
X0Y35560000D03*
X0Y33020000D03*
X0Y30480000D03*
X0Y27940000D03*
X0Y25400000D03*
X0Y22860000D03*
X0Y20320000D03*
X0Y17780000D03*
X0Y15240000D03*
X0Y12700000D03*
X0Y10160000D03*
X0Y7620000D03*
X0Y5080000D03*
X0Y2540000D03*
X0Y0D03*
X22860000Y35560000D03*
X22860000Y33020000D03*
X22860000Y30480000D03*
X22860000Y27940000D03*
X22860000Y25400000D03*
X22860000Y22860000D03*
X22860000Y20320000D03*
X22860000Y17780000D03*
X22860000Y15240000D03*
X22860000Y12700000D03*
X22860000Y10160000D03*
X22860000Y7620000D03*
X22860000Y5080000D03*
X22860000Y2540000D03*
X22860000Y0D03*
D14*
%TO.C,Q1*%
X8890000Y34925000D03*
X11430000Y34925000D03*
X13970000Y34925000D03*
D15*
%TO.C,J1*%
X3810000Y41275000D03*
X8890000Y41275000D03*
X13970000Y41275000D03*
X19050000Y41275000D03*
M02*
