%TF.GenerationSoftware,KiCad,Pcbnew,5.1.5+dfsg1-2~bpo10+1*%
%TF.CreationDate,2020-10-04T09:49:28+00:00*%
%TF.ProjectId,PWR,5057522e-6b69-4636-9164-5f7063625858,rev?*%
%TF.SameCoordinates,Original*%
%TF.FileFunction,Other,Fab,Top*%
%FSLAX45Y45*%
G04 Gerber Fmt 4.5, Leading zero omitted, Abs format (unit mm)*
G04 Created by KiCad (PCBNEW 5.1.5+dfsg1-2~bpo10+1) date 2020-10-04 09:49:28*
%MOMM*%
%LPD*%
G04 APERTURE LIST*
%ADD10C,0.120000*%
%ADD11C,0.100000*%
%ADD12C,0.150000*%
G04 APERTURE END LIST*
D10*
X2476500Y-508000D02*
G75*
G02X2349500Y-635000I-127000J0D01*
G01*
X-190500Y4572000D02*
G75*
G02X-63500Y4699000I127000J0D01*
G01*
X-63500Y-635000D02*
G75*
G02X-190500Y-508000I0J127000D01*
G01*
X2349500Y4699000D02*
G75*
G02X2476500Y4572000I0J-127000D01*
G01*
X-190500Y4572000D02*
X-190500Y-508000D01*
X2349500Y4699000D02*
X-63500Y4699000D01*
X2476500Y-508000D02*
X2476500Y4572000D01*
X-63500Y-635000D02*
X2349500Y-635000D01*
D11*
X2255000Y2376500D02*
X2155000Y2476500D01*
X2155000Y2476500D02*
X2255000Y2576500D01*
X2255000Y2576500D02*
X2255000Y2761500D01*
X2255000Y2376500D02*
X2255000Y-608500D01*
X35000Y2761500D02*
X2255000Y2761500D01*
X35000Y-608500D02*
X2255000Y-608500D01*
X35000Y2761500D02*
X35000Y-608500D01*
X958000Y3177500D02*
X958000Y3304500D01*
X1328000Y3177500D02*
X1328000Y3304500D01*
X1643000Y3304500D02*
X643000Y3304500D01*
X643000Y3177500D02*
X1643000Y3177500D01*
X643000Y3617500D02*
X643000Y3177500D01*
X1643000Y3617500D02*
X643000Y3617500D01*
X1643000Y3177500D02*
X1643000Y3617500D01*
X2000500Y4241300D02*
X1791300Y4032000D01*
X2018800Y4223000D02*
X1809600Y4013700D01*
X1492500Y4241300D02*
X1283300Y4032000D01*
X1510800Y4223000D02*
X1301600Y4013700D01*
X984500Y4241300D02*
X775300Y4032000D01*
X1002800Y4223000D02*
X793600Y4013700D01*
X476500Y4241300D02*
X267200Y4032000D01*
X494800Y4223000D02*
X285500Y4013700D01*
X127000Y4357500D02*
X2159000Y4357500D01*
X127000Y3867500D02*
X2159000Y3867500D01*
X127000Y3717500D02*
X2159000Y3717500D01*
X127000Y3717500D02*
X127000Y4647500D01*
X177000Y3667500D02*
X127000Y3717500D01*
X2159000Y3667500D02*
X177000Y3667500D01*
X2159000Y4647500D02*
X2159000Y3667500D01*
X127000Y4647500D02*
X2159000Y4647500D01*
X2055000Y4127500D02*
G75*
G03X2055000Y4127500I-150000J0D01*
G01*
X1547000Y4127500D02*
G75*
G03X1547000Y4127500I-150000J0D01*
G01*
X1039000Y4127500D02*
G75*
G03X1039000Y4127500I-150000J0D01*
G01*
X531000Y4127500D02*
G75*
G03X531000Y4127500I-150000J0D01*
G01*
D12*
X1036571Y1097762D02*
X1036571Y1197762D01*
X1074667Y1197762D01*
X1084190Y1193000D01*
X1088952Y1188238D01*
X1093714Y1178714D01*
X1093714Y1164429D01*
X1088952Y1154905D01*
X1084190Y1150143D01*
X1074667Y1145381D01*
X1036571Y1145381D01*
X1131810Y1102524D02*
X1146095Y1097762D01*
X1169905Y1097762D01*
X1179429Y1102524D01*
X1184190Y1107286D01*
X1188952Y1116810D01*
X1188952Y1126333D01*
X1184190Y1135857D01*
X1179429Y1140619D01*
X1169905Y1145381D01*
X1150857Y1150143D01*
X1141333Y1154905D01*
X1136571Y1159667D01*
X1131810Y1169191D01*
X1131810Y1178714D01*
X1136571Y1188238D01*
X1141333Y1193000D01*
X1150857Y1197762D01*
X1174667Y1197762D01*
X1188952Y1193000D01*
X1284190Y1097762D02*
X1227048Y1097762D01*
X1255619Y1097762D02*
X1255619Y1197762D01*
X1246095Y1183476D01*
X1236571Y1173952D01*
X1227048Y1169191D01*
X1832762Y3482976D02*
X1828000Y3473452D01*
X1818476Y3463929D01*
X1804190Y3449643D01*
X1799428Y3440119D01*
X1799428Y3430595D01*
X1823238Y3435357D02*
X1818476Y3425833D01*
X1808952Y3416310D01*
X1789905Y3411548D01*
X1756571Y3411548D01*
X1737524Y3416310D01*
X1728000Y3425833D01*
X1723238Y3435357D01*
X1723238Y3454405D01*
X1728000Y3463929D01*
X1737524Y3473452D01*
X1756571Y3478214D01*
X1789905Y3478214D01*
X1808952Y3473452D01*
X1818476Y3463929D01*
X1823238Y3454405D01*
X1823238Y3435357D01*
X1823238Y3573452D02*
X1823238Y3516310D01*
X1823238Y3544881D02*
X1723238Y3544881D01*
X1737524Y3535357D01*
X1747048Y3525833D01*
X1751809Y3516310D01*
X-33333Y4182262D02*
X-33333Y4110833D01*
X-38095Y4096548D01*
X-47619Y4087024D01*
X-61905Y4082262D01*
X-71429Y4082262D01*
X66667Y4082262D02*
X9524Y4082262D01*
X38095Y4082262D02*
X38095Y4182262D01*
X28571Y4167976D01*
X19048Y4158452D01*
X9524Y4153690D01*
M02*
