%TF.GenerationSoftware,KiCad,Pcbnew,5.1.5+dfsg1-2~bpo10+1*%
%TF.CreationDate,2020-10-04T09:49:28+00:00*%
%TF.ProjectId,PWR,5057522e-6b69-4636-9164-5f7063625858,rev?*%
%TF.SameCoordinates,Original*%
%TF.FileFunction,Soldermask,Top*%
%TF.FilePolarity,Negative*%
%FSLAX45Y45*%
G04 Gerber Fmt 4.5, Leading zero omitted, Abs format (unit mm)*
G04 Created by KiCad (PCBNEW 5.1.5+dfsg1-2~bpo10+1) date 2020-10-04 09:49:28*
%MOMM*%
%LPD*%
G04 APERTURE LIST*
%ADD10C,0.120000*%
%ADD11C,0.150000*%
G04 APERTURE END LIST*
D10*
X2476500Y-508000D02*
G75*
G02X2349500Y-635000I-127000J0D01*
G01*
X-190500Y4572000D02*
G75*
G02X-63500Y4699000I127000J0D01*
G01*
X-63500Y-635000D02*
G75*
G02X-190500Y-508000I0J127000D01*
G01*
X2349500Y4699000D02*
G75*
G02X2476500Y4572000I0J-127000D01*
G01*
X-190500Y4572000D02*
X-190500Y-508000D01*
X2349500Y4699000D02*
X-63500Y4699000D01*
X2476500Y-508000D02*
X2476500Y4572000D01*
X-63500Y-635000D02*
X2349500Y-635000D01*
D11*
G36*
X1184378Y-193688D02*
G01*
X1208946Y-203864D01*
X1208947Y-203865D01*
X1220077Y-211302D01*
X1231057Y-218639D01*
X1249861Y-237443D01*
X1264636Y-259554D01*
X1274812Y-284122D01*
X1280000Y-310204D01*
X1280000Y-336797D01*
X1274812Y-362878D01*
X1273007Y-367236D01*
X1264635Y-387446D01*
X1249861Y-409557D01*
X1231058Y-428361D01*
X1208947Y-443135D01*
X1208946Y-443135D01*
X1208946Y-443135D01*
X1184378Y-453312D01*
X1158297Y-458500D01*
X1131704Y-458500D01*
X1105622Y-453312D01*
X1081054Y-443135D01*
X1081054Y-443135D01*
X1081054Y-443135D01*
X1058943Y-428361D01*
X1040139Y-409557D01*
X1025365Y-387446D01*
X1016993Y-367236D01*
X1015188Y-362878D01*
X1013062Y-352189D01*
X1012350Y-349844D01*
X1011195Y-347683D01*
X1009641Y-345789D01*
X1007747Y-344235D01*
X1005586Y-343079D01*
X1003241Y-342368D01*
X1000802Y-342128D01*
X998363Y-342368D01*
X996019Y-343079D01*
X993857Y-344235D01*
X991963Y-345789D01*
X990409Y-347683D01*
X989254Y-349843D01*
X982050Y-367236D01*
X970559Y-384434D01*
X955934Y-399059D01*
X938736Y-410550D01*
X919627Y-418465D01*
X901869Y-421997D01*
X899342Y-422500D01*
X878658Y-422500D01*
X876131Y-421997D01*
X858373Y-418465D01*
X839264Y-410550D01*
X822066Y-399059D01*
X807441Y-384434D01*
X795950Y-367236D01*
X788035Y-348127D01*
X784000Y-327842D01*
X784000Y-307158D01*
X788035Y-286873D01*
X795950Y-267764D01*
X807441Y-250566D01*
X822066Y-235941D01*
X839264Y-224450D01*
X858373Y-216535D01*
X876131Y-213003D01*
X878658Y-212500D01*
X899342Y-212500D01*
X901869Y-213003D01*
X919627Y-216535D01*
X938736Y-224450D01*
X955934Y-235941D01*
X970559Y-250566D01*
X982050Y-267764D01*
X989965Y-286873D01*
X990043Y-287267D01*
X990754Y-289611D01*
X991909Y-291772D01*
X993464Y-293666D01*
X995358Y-295221D01*
X997519Y-296376D01*
X999864Y-297087D01*
X1002303Y-297327D01*
X1004741Y-297087D01*
X1007086Y-296376D01*
X1009247Y-295221D01*
X1011141Y-293666D01*
X1012696Y-291772D01*
X1013851Y-289611D01*
X1014562Y-287266D01*
X1015188Y-284122D01*
X1025364Y-259554D01*
X1040139Y-237443D01*
X1058943Y-218639D01*
X1069923Y-211302D01*
X1081054Y-203865D01*
X1081054Y-203864D01*
X1105622Y-193688D01*
X1131704Y-188500D01*
X1158297Y-188500D01*
X1184378Y-193688D01*
G37*
G36*
X1944378Y-193688D02*
G01*
X1968946Y-203864D01*
X1968946Y-203865D01*
X1980077Y-211302D01*
X1991057Y-218639D01*
X2009861Y-237443D01*
X2024635Y-259554D01*
X2034812Y-284122D01*
X2040000Y-310204D01*
X2040000Y-336797D01*
X2034812Y-362878D01*
X2033007Y-367236D01*
X2024635Y-387446D01*
X2009861Y-409557D01*
X1991057Y-428361D01*
X1968946Y-443135D01*
X1968946Y-443135D01*
X1968946Y-443135D01*
X1944378Y-453312D01*
X1918296Y-458500D01*
X1891703Y-458500D01*
X1865622Y-453312D01*
X1841054Y-443135D01*
X1841054Y-443135D01*
X1841053Y-443135D01*
X1818942Y-428361D01*
X1800139Y-409557D01*
X1785365Y-387446D01*
X1776993Y-367236D01*
X1775188Y-362878D01*
X1770000Y-336797D01*
X1770000Y-310204D01*
X1775188Y-284122D01*
X1785364Y-259554D01*
X1800139Y-237443D01*
X1818943Y-218639D01*
X1829923Y-211302D01*
X1841053Y-203865D01*
X1841054Y-203864D01*
X1865622Y-193688D01*
X1891703Y-188500D01*
X1918296Y-188500D01*
X1944378Y-193688D01*
G37*
G36*
X740000Y-422500D02*
G01*
X530000Y-422500D01*
X530000Y-212500D01*
X740000Y-212500D01*
X740000Y-422500D01*
G37*
G36*
X393869Y-213003D02*
G01*
X411627Y-216535D01*
X430736Y-224450D01*
X447934Y-235941D01*
X462559Y-250566D01*
X474050Y-267764D01*
X481965Y-286873D01*
X486000Y-307158D01*
X486000Y-327842D01*
X481965Y-348127D01*
X474050Y-367236D01*
X462559Y-384434D01*
X447934Y-399059D01*
X430736Y-410550D01*
X411627Y-418465D01*
X393869Y-421997D01*
X391342Y-422500D01*
X370658Y-422500D01*
X368131Y-421997D01*
X350373Y-418465D01*
X331264Y-410550D01*
X314066Y-399059D01*
X299441Y-384434D01*
X287950Y-367236D01*
X280035Y-348127D01*
X276000Y-327842D01*
X276000Y-307158D01*
X280035Y-286873D01*
X287950Y-267764D01*
X299441Y-250566D01*
X314066Y-235941D01*
X331264Y-224450D01*
X350373Y-216535D01*
X368131Y-213003D01*
X370658Y-212500D01*
X391342Y-212500D01*
X393869Y-213003D01*
G37*
G36*
X2391000Y-422500D02*
G01*
X2181000Y-422500D01*
X2181000Y-212500D01*
X2391000Y-212500D01*
X2391000Y-422500D01*
G37*
G36*
X35469Y3672927D02*
G01*
X57599Y3663761D01*
X57599Y3663760D01*
X77516Y3650453D01*
X94453Y3633515D01*
X107760Y3613599D01*
X107761Y3613599D01*
X116927Y3591469D01*
X121600Y3567977D01*
X121600Y3544023D01*
X116927Y3520531D01*
X109629Y3502911D01*
X107760Y3498401D01*
X94453Y3478484D01*
X77516Y3461547D01*
X57599Y3448239D01*
X57599Y3448239D01*
X57599Y3448239D01*
X39032Y3440548D01*
X36870Y3439393D01*
X34976Y3437839D01*
X33422Y3435944D01*
X32267Y3433783D01*
X31555Y3431439D01*
X31315Y3429000D01*
X31555Y3426561D01*
X32267Y3424216D01*
X33422Y3422055D01*
X34976Y3420161D01*
X36871Y3418607D01*
X39032Y3417452D01*
X57599Y3409761D01*
X57599Y3409760D01*
X77516Y3396453D01*
X94453Y3379515D01*
X107760Y3359599D01*
X107761Y3359599D01*
X116927Y3337469D01*
X121600Y3313977D01*
X121600Y3290023D01*
X116927Y3266531D01*
X107761Y3244401D01*
X107760Y3244401D01*
X94453Y3224484D01*
X77516Y3207547D01*
X57599Y3194239D01*
X57599Y3194239D01*
X57599Y3194239D01*
X39032Y3186548D01*
X36870Y3185393D01*
X34976Y3183839D01*
X33422Y3181944D01*
X32267Y3179783D01*
X31555Y3177439D01*
X31315Y3175000D01*
X31555Y3172561D01*
X32267Y3170216D01*
X33422Y3168055D01*
X34976Y3166161D01*
X36871Y3164607D01*
X39032Y3163452D01*
X57599Y3155761D01*
X57599Y3155760D01*
X77516Y3142453D01*
X94453Y3125515D01*
X107760Y3105599D01*
X107761Y3105599D01*
X116927Y3083469D01*
X121600Y3059977D01*
X121600Y3036023D01*
X116927Y3012531D01*
X111999Y3000632D01*
X107760Y2990401D01*
X94453Y2970484D01*
X77516Y2953547D01*
X57599Y2940239D01*
X57599Y2940239D01*
X57599Y2940239D01*
X39032Y2932548D01*
X36870Y2931393D01*
X34976Y2929839D01*
X33422Y2927944D01*
X32267Y2925783D01*
X31555Y2923439D01*
X31315Y2921000D01*
X31555Y2918561D01*
X32267Y2916216D01*
X33422Y2914055D01*
X34976Y2912161D01*
X36871Y2910607D01*
X39032Y2909452D01*
X57599Y2901761D01*
X57599Y2901760D01*
X77516Y2888453D01*
X94453Y2871515D01*
X107760Y2851599D01*
X107761Y2851599D01*
X116927Y2829469D01*
X121600Y2805977D01*
X121600Y2782023D01*
X116927Y2758531D01*
X111999Y2746632D01*
X107760Y2736401D01*
X94453Y2716485D01*
X77516Y2699547D01*
X57599Y2686240D01*
X57599Y2686239D01*
X57599Y2686239D01*
X39032Y2678548D01*
X36870Y2677393D01*
X34976Y2675839D01*
X33422Y2673945D01*
X32267Y2671784D01*
X31555Y2669439D01*
X31315Y2667000D01*
X31555Y2664561D01*
X32267Y2662217D01*
X33422Y2660055D01*
X34976Y2658161D01*
X36871Y2656607D01*
X39032Y2655452D01*
X57599Y2647761D01*
X57599Y2647761D01*
X77516Y2634453D01*
X94453Y2617516D01*
X107760Y2597599D01*
X107761Y2597599D01*
X116927Y2575469D01*
X121600Y2551977D01*
X121600Y2528023D01*
X116927Y2504531D01*
X107761Y2482401D01*
X107760Y2482401D01*
X94453Y2462485D01*
X77516Y2445547D01*
X57599Y2432240D01*
X57599Y2432239D01*
X57599Y2432239D01*
X39032Y2424548D01*
X36870Y2423393D01*
X34976Y2421839D01*
X33422Y2419945D01*
X32267Y2417784D01*
X31555Y2415439D01*
X31315Y2413000D01*
X31555Y2410561D01*
X32267Y2408217D01*
X33422Y2406055D01*
X34976Y2404161D01*
X36871Y2402607D01*
X39032Y2401452D01*
X57599Y2393761D01*
X57599Y2393761D01*
X77516Y2380453D01*
X94453Y2363516D01*
X98897Y2356865D01*
X107761Y2343599D01*
X116927Y2321469D01*
X121600Y2297977D01*
X121600Y2274023D01*
X116927Y2250531D01*
X107761Y2228401D01*
X107760Y2228401D01*
X94453Y2208485D01*
X77516Y2191547D01*
X57599Y2178240D01*
X57599Y2178239D01*
X57599Y2178239D01*
X39032Y2170548D01*
X36870Y2169393D01*
X34976Y2167839D01*
X33422Y2165945D01*
X32267Y2163784D01*
X31555Y2161439D01*
X31315Y2159000D01*
X31555Y2156561D01*
X32267Y2154217D01*
X33422Y2152055D01*
X34976Y2150161D01*
X36871Y2148607D01*
X39032Y2147452D01*
X57599Y2139761D01*
X57599Y2139761D01*
X77516Y2126453D01*
X94453Y2109516D01*
X103982Y2095254D01*
X107761Y2089599D01*
X116927Y2067469D01*
X121600Y2043977D01*
X121600Y2020023D01*
X116927Y1996531D01*
X111999Y1984632D01*
X107760Y1974401D01*
X94453Y1954484D01*
X77516Y1937547D01*
X57599Y1924239D01*
X57599Y1924239D01*
X57599Y1924239D01*
X39032Y1916548D01*
X36870Y1915393D01*
X34976Y1913839D01*
X33422Y1911944D01*
X32267Y1909783D01*
X31555Y1907439D01*
X31315Y1905000D01*
X31555Y1902561D01*
X32267Y1900216D01*
X33422Y1898055D01*
X34976Y1896161D01*
X36871Y1894607D01*
X39032Y1893452D01*
X57599Y1885761D01*
X57599Y1885760D01*
X77516Y1872453D01*
X94453Y1855515D01*
X107760Y1835599D01*
X107761Y1835599D01*
X116927Y1813469D01*
X121600Y1789977D01*
X121600Y1766023D01*
X116927Y1742531D01*
X111999Y1730632D01*
X107760Y1720401D01*
X94453Y1700484D01*
X77516Y1683547D01*
X57599Y1670239D01*
X57599Y1670239D01*
X57599Y1670239D01*
X39032Y1662548D01*
X36870Y1661393D01*
X34976Y1659839D01*
X33422Y1657944D01*
X32267Y1655783D01*
X31555Y1653439D01*
X31315Y1651000D01*
X31555Y1648561D01*
X32267Y1646216D01*
X33422Y1644055D01*
X34976Y1642161D01*
X36871Y1640607D01*
X39032Y1639452D01*
X57599Y1631761D01*
X57599Y1631760D01*
X77516Y1618453D01*
X94453Y1601515D01*
X107760Y1581599D01*
X107761Y1581599D01*
X116927Y1559469D01*
X121600Y1535977D01*
X121600Y1512023D01*
X116927Y1488531D01*
X107761Y1466401D01*
X107760Y1466401D01*
X94453Y1446484D01*
X77516Y1429547D01*
X57599Y1416239D01*
X57599Y1416239D01*
X57599Y1416239D01*
X39032Y1408548D01*
X36870Y1407393D01*
X34976Y1405839D01*
X33422Y1403944D01*
X32267Y1401783D01*
X31555Y1399439D01*
X31315Y1397000D01*
X31555Y1394561D01*
X32267Y1392217D01*
X33422Y1390055D01*
X34976Y1388161D01*
X36871Y1386607D01*
X39032Y1385452D01*
X57599Y1377761D01*
X57599Y1377761D01*
X77516Y1364453D01*
X94453Y1347516D01*
X103982Y1333254D01*
X107761Y1327599D01*
X116927Y1305469D01*
X121600Y1281977D01*
X121600Y1258023D01*
X116927Y1234531D01*
X107761Y1212401D01*
X107760Y1212401D01*
X94453Y1192485D01*
X77516Y1175547D01*
X57599Y1162240D01*
X57599Y1162239D01*
X57599Y1162239D01*
X39032Y1154548D01*
X36870Y1153393D01*
X34976Y1151839D01*
X33422Y1149945D01*
X32267Y1147784D01*
X31555Y1145439D01*
X31315Y1143000D01*
X31555Y1140561D01*
X32267Y1138217D01*
X33422Y1136055D01*
X34976Y1134161D01*
X36871Y1132607D01*
X39032Y1131452D01*
X57599Y1123761D01*
X57599Y1123761D01*
X77516Y1110453D01*
X94453Y1093516D01*
X103982Y1079254D01*
X107761Y1073599D01*
X116927Y1051469D01*
X121600Y1027977D01*
X121600Y1004023D01*
X116927Y980531D01*
X111999Y968632D01*
X107760Y958401D01*
X94453Y938484D01*
X77516Y921547D01*
X57599Y908239D01*
X57599Y908239D01*
X57599Y908239D01*
X39032Y900548D01*
X36870Y899393D01*
X34976Y897839D01*
X33422Y895944D01*
X32267Y893783D01*
X31555Y891439D01*
X31315Y889000D01*
X31555Y886561D01*
X32267Y884216D01*
X33422Y882055D01*
X34976Y880161D01*
X36871Y878607D01*
X39032Y877452D01*
X57599Y869761D01*
X57599Y869760D01*
X77516Y856453D01*
X94453Y839515D01*
X107760Y819599D01*
X107761Y819599D01*
X116927Y797469D01*
X121600Y773977D01*
X121600Y750023D01*
X116927Y726531D01*
X111999Y714632D01*
X107760Y704401D01*
X94453Y684485D01*
X77516Y667547D01*
X57599Y654240D01*
X57599Y654239D01*
X57599Y654239D01*
X39032Y646548D01*
X36870Y645393D01*
X34976Y643839D01*
X33422Y641945D01*
X32267Y639784D01*
X31555Y637439D01*
X31315Y635000D01*
X31555Y632561D01*
X32267Y630217D01*
X33422Y628055D01*
X34976Y626161D01*
X36871Y624607D01*
X39032Y623452D01*
X57599Y615761D01*
X57599Y615761D01*
X77516Y602453D01*
X94453Y585516D01*
X107760Y565599D01*
X107761Y565599D01*
X116927Y543469D01*
X121600Y519977D01*
X121600Y496023D01*
X116927Y472531D01*
X107761Y450401D01*
X107760Y450401D01*
X94453Y430484D01*
X77516Y413547D01*
X57599Y400239D01*
X57599Y400239D01*
X57599Y400239D01*
X39032Y392548D01*
X36870Y391393D01*
X34976Y389839D01*
X33422Y387944D01*
X32267Y385783D01*
X31555Y383439D01*
X31315Y381000D01*
X31555Y378561D01*
X32267Y376216D01*
X33422Y374055D01*
X34976Y372161D01*
X36871Y370607D01*
X39032Y369452D01*
X57599Y361761D01*
X57599Y361760D01*
X77516Y348453D01*
X94453Y331516D01*
X107760Y311599D01*
X107761Y311599D01*
X116927Y289469D01*
X121600Y265977D01*
X121600Y242023D01*
X116927Y218531D01*
X107761Y196401D01*
X107760Y196401D01*
X94453Y176484D01*
X77516Y159547D01*
X57599Y146240D01*
X57599Y146239D01*
X57599Y146239D01*
X56172Y145648D01*
X54011Y144493D01*
X52117Y142939D01*
X50562Y141044D01*
X49407Y138883D01*
X48696Y136539D01*
X48456Y134100D01*
X48696Y131661D01*
X49407Y129316D01*
X50562Y127155D01*
X52117Y125261D01*
X54011Y123707D01*
X56172Y122551D01*
X58517Y121840D01*
X60955Y121600D01*
X121600Y121600D01*
X121600Y-121600D01*
X-121600Y-121600D01*
X-121600Y121600D01*
X-60955Y121600D01*
X-58517Y121840D01*
X-56172Y122551D01*
X-54011Y123707D01*
X-52117Y125261D01*
X-50562Y127155D01*
X-49407Y129316D01*
X-48696Y131661D01*
X-48456Y134100D01*
X-48696Y136539D01*
X-49407Y138883D01*
X-50562Y141045D01*
X-52117Y142939D01*
X-54011Y144493D01*
X-56172Y145648D01*
X-57599Y146239D01*
X-57599Y146239D01*
X-57599Y146240D01*
X-77516Y159547D01*
X-94453Y176484D01*
X-107760Y196401D01*
X-107761Y196401D01*
X-116927Y218531D01*
X-121600Y242023D01*
X-121600Y265977D01*
X-116927Y289469D01*
X-107761Y311599D01*
X-107760Y311599D01*
X-94453Y331516D01*
X-77516Y348453D01*
X-57599Y361760D01*
X-57599Y361761D01*
X-39032Y369452D01*
X-36870Y370607D01*
X-34976Y372161D01*
X-33422Y374055D01*
X-32267Y376216D01*
X-31555Y378561D01*
X-31315Y381000D01*
X-31555Y383439D01*
X-32267Y385783D01*
X-33422Y387945D01*
X-34976Y389839D01*
X-36871Y391393D01*
X-39032Y392548D01*
X-57599Y400239D01*
X-57599Y400239D01*
X-57599Y400239D01*
X-77516Y413547D01*
X-94453Y430484D01*
X-107760Y450401D01*
X-107761Y450401D01*
X-116927Y472531D01*
X-121600Y496023D01*
X-121600Y519977D01*
X-116927Y543469D01*
X-107761Y565599D01*
X-107760Y565599D01*
X-94453Y585516D01*
X-77516Y602453D01*
X-57599Y615761D01*
X-57599Y615761D01*
X-39032Y623452D01*
X-36870Y624607D01*
X-34976Y626161D01*
X-33422Y628056D01*
X-32267Y630217D01*
X-31555Y632561D01*
X-31315Y635000D01*
X-31555Y637439D01*
X-32267Y639784D01*
X-33422Y641945D01*
X-34976Y643839D01*
X-36871Y645393D01*
X-39032Y646548D01*
X-57599Y654239D01*
X-57599Y654239D01*
X-57599Y654240D01*
X-77516Y667547D01*
X-94453Y684485D01*
X-107760Y704401D01*
X-111999Y714632D01*
X-116927Y726531D01*
X-121600Y750023D01*
X-121600Y773977D01*
X-116927Y797469D01*
X-107761Y819599D01*
X-107760Y819599D01*
X-94453Y839515D01*
X-77516Y856453D01*
X-57599Y869760D01*
X-57599Y869761D01*
X-39032Y877452D01*
X-36870Y878607D01*
X-34976Y880161D01*
X-33422Y882055D01*
X-32267Y884216D01*
X-31555Y886561D01*
X-31315Y889000D01*
X-31555Y891439D01*
X-32267Y893783D01*
X-33422Y895945D01*
X-34976Y897839D01*
X-36871Y899393D01*
X-39032Y900548D01*
X-57599Y908239D01*
X-57599Y908239D01*
X-57599Y908239D01*
X-77516Y921547D01*
X-94453Y938484D01*
X-107760Y958401D01*
X-111999Y968632D01*
X-116927Y980531D01*
X-121600Y1004023D01*
X-121600Y1027977D01*
X-116927Y1051469D01*
X-107761Y1073599D01*
X-103982Y1079254D01*
X-94453Y1093516D01*
X-77516Y1110453D01*
X-57599Y1123761D01*
X-57599Y1123761D01*
X-39032Y1131452D01*
X-36870Y1132607D01*
X-34976Y1134161D01*
X-33422Y1136056D01*
X-32267Y1138217D01*
X-31555Y1140561D01*
X-31315Y1143000D01*
X-31555Y1145439D01*
X-32267Y1147784D01*
X-33422Y1149945D01*
X-34976Y1151839D01*
X-36871Y1153393D01*
X-39032Y1154548D01*
X-57599Y1162239D01*
X-57599Y1162239D01*
X-57599Y1162240D01*
X-77516Y1175547D01*
X-94453Y1192485D01*
X-107760Y1212401D01*
X-107761Y1212401D01*
X-116927Y1234531D01*
X-121600Y1258023D01*
X-121600Y1281977D01*
X-116927Y1305469D01*
X-107761Y1327599D01*
X-103982Y1333254D01*
X-94453Y1347516D01*
X-77516Y1364453D01*
X-57599Y1377761D01*
X-57599Y1377761D01*
X-39032Y1385452D01*
X-36870Y1386607D01*
X-34976Y1388161D01*
X-33422Y1390056D01*
X-32267Y1392217D01*
X-31555Y1394561D01*
X-31315Y1397000D01*
X-31555Y1399439D01*
X-32267Y1401783D01*
X-33422Y1403945D01*
X-34976Y1405839D01*
X-36871Y1407393D01*
X-39032Y1408548D01*
X-57599Y1416239D01*
X-57599Y1416239D01*
X-57599Y1416239D01*
X-77516Y1429547D01*
X-94453Y1446484D01*
X-107760Y1466401D01*
X-107761Y1466401D01*
X-116927Y1488531D01*
X-121600Y1512023D01*
X-121600Y1535977D01*
X-116927Y1559469D01*
X-107761Y1581599D01*
X-107760Y1581599D01*
X-94453Y1601515D01*
X-77516Y1618453D01*
X-57599Y1631760D01*
X-57599Y1631761D01*
X-39032Y1639452D01*
X-36870Y1640607D01*
X-34976Y1642161D01*
X-33422Y1644055D01*
X-32267Y1646216D01*
X-31555Y1648561D01*
X-31315Y1651000D01*
X-31555Y1653439D01*
X-32267Y1655783D01*
X-33422Y1657945D01*
X-34976Y1659839D01*
X-36871Y1661393D01*
X-39032Y1662548D01*
X-57599Y1670239D01*
X-57599Y1670239D01*
X-57599Y1670239D01*
X-77516Y1683547D01*
X-94453Y1700484D01*
X-107760Y1720401D01*
X-111999Y1730632D01*
X-116927Y1742531D01*
X-121600Y1766023D01*
X-121600Y1789977D01*
X-116927Y1813469D01*
X-107761Y1835599D01*
X-107760Y1835599D01*
X-94453Y1855515D01*
X-77516Y1872453D01*
X-57599Y1885760D01*
X-57599Y1885761D01*
X-39032Y1893452D01*
X-36870Y1894607D01*
X-34976Y1896161D01*
X-33422Y1898055D01*
X-32267Y1900216D01*
X-31555Y1902561D01*
X-31315Y1905000D01*
X-31555Y1907439D01*
X-32267Y1909783D01*
X-33422Y1911945D01*
X-34976Y1913839D01*
X-36871Y1915393D01*
X-39032Y1916548D01*
X-57599Y1924239D01*
X-57599Y1924239D01*
X-57599Y1924239D01*
X-77516Y1937547D01*
X-94453Y1954484D01*
X-107760Y1974401D01*
X-111999Y1984632D01*
X-116927Y1996531D01*
X-121600Y2020023D01*
X-121600Y2043977D01*
X-116927Y2067469D01*
X-107761Y2089599D01*
X-103982Y2095254D01*
X-94453Y2109516D01*
X-77516Y2126453D01*
X-57599Y2139761D01*
X-57599Y2139761D01*
X-39032Y2147452D01*
X-36870Y2148607D01*
X-34976Y2150161D01*
X-33422Y2152056D01*
X-32267Y2154217D01*
X-31555Y2156561D01*
X-31315Y2159000D01*
X-31555Y2161439D01*
X-32267Y2163784D01*
X-33422Y2165945D01*
X-34976Y2167839D01*
X-36871Y2169393D01*
X-39032Y2170548D01*
X-57599Y2178239D01*
X-57599Y2178239D01*
X-57599Y2178240D01*
X-77516Y2191547D01*
X-94453Y2208485D01*
X-107760Y2228401D01*
X-107761Y2228401D01*
X-116927Y2250531D01*
X-121600Y2274023D01*
X-121600Y2297977D01*
X-116927Y2321469D01*
X-107761Y2343599D01*
X-98897Y2356865D01*
X-94453Y2363516D01*
X-77516Y2380453D01*
X-57599Y2393761D01*
X-57599Y2393761D01*
X-39032Y2401452D01*
X-36870Y2402607D01*
X-34976Y2404161D01*
X-33422Y2406056D01*
X-32267Y2408217D01*
X-31555Y2410561D01*
X-31315Y2413000D01*
X-31555Y2415439D01*
X-32267Y2417784D01*
X-33422Y2419945D01*
X-34976Y2421839D01*
X-36871Y2423393D01*
X-39032Y2424548D01*
X-57599Y2432239D01*
X-57599Y2432239D01*
X-57599Y2432240D01*
X-77516Y2445547D01*
X-94453Y2462485D01*
X-107760Y2482401D01*
X-107761Y2482401D01*
X-116927Y2504531D01*
X-121600Y2528023D01*
X-121600Y2551977D01*
X-116927Y2575469D01*
X-107761Y2597599D01*
X-107760Y2597599D01*
X-94453Y2617516D01*
X-77516Y2634453D01*
X-57599Y2647761D01*
X-57599Y2647761D01*
X-39032Y2655452D01*
X-36870Y2656607D01*
X-34976Y2658161D01*
X-33422Y2660056D01*
X-32267Y2662217D01*
X-31555Y2664561D01*
X-31315Y2667000D01*
X-31555Y2669439D01*
X-32267Y2671784D01*
X-33422Y2673945D01*
X-34976Y2675839D01*
X-36871Y2677393D01*
X-39032Y2678548D01*
X-57599Y2686239D01*
X-57599Y2686239D01*
X-57599Y2686240D01*
X-77516Y2699547D01*
X-94453Y2716485D01*
X-107760Y2736401D01*
X-111999Y2746632D01*
X-116927Y2758531D01*
X-121600Y2782023D01*
X-121600Y2805977D01*
X-116927Y2829469D01*
X-107761Y2851599D01*
X-107760Y2851599D01*
X-94453Y2871515D01*
X-77516Y2888453D01*
X-57599Y2901760D01*
X-57599Y2901761D01*
X-39032Y2909452D01*
X-36870Y2910607D01*
X-34976Y2912161D01*
X-33422Y2914055D01*
X-32267Y2916216D01*
X-31555Y2918561D01*
X-31315Y2921000D01*
X-31555Y2923439D01*
X-32267Y2925783D01*
X-33422Y2927945D01*
X-34976Y2929839D01*
X-36871Y2931393D01*
X-39032Y2932548D01*
X-57599Y2940239D01*
X-57599Y2940239D01*
X-57599Y2940239D01*
X-77516Y2953547D01*
X-94453Y2970484D01*
X-107760Y2990401D01*
X-111999Y3000632D01*
X-116927Y3012531D01*
X-121600Y3036023D01*
X-121600Y3059977D01*
X-116927Y3083469D01*
X-107761Y3105599D01*
X-107760Y3105599D01*
X-94453Y3125515D01*
X-77516Y3142453D01*
X-57599Y3155760D01*
X-57599Y3155761D01*
X-39032Y3163452D01*
X-36870Y3164607D01*
X-34976Y3166161D01*
X-33422Y3168055D01*
X-32267Y3170216D01*
X-31555Y3172561D01*
X-31315Y3175000D01*
X-31555Y3177439D01*
X-32267Y3179783D01*
X-33422Y3181945D01*
X-34976Y3183839D01*
X-36871Y3185393D01*
X-39032Y3186548D01*
X-57599Y3194239D01*
X-57599Y3194239D01*
X-57599Y3194239D01*
X-77516Y3207547D01*
X-94453Y3224484D01*
X-107760Y3244401D01*
X-107761Y3244401D01*
X-116927Y3266531D01*
X-121600Y3290023D01*
X-121600Y3313977D01*
X-116927Y3337469D01*
X-107761Y3359599D01*
X-107760Y3359599D01*
X-94453Y3379515D01*
X-77516Y3396453D01*
X-57599Y3409760D01*
X-57599Y3409761D01*
X-39032Y3417452D01*
X-36870Y3418607D01*
X-34976Y3420161D01*
X-33422Y3422055D01*
X-32267Y3424216D01*
X-31555Y3426561D01*
X-31315Y3429000D01*
X-31555Y3431439D01*
X-32267Y3433783D01*
X-33422Y3435945D01*
X-34976Y3437839D01*
X-36871Y3439393D01*
X-39032Y3440548D01*
X-57599Y3448239D01*
X-57599Y3448239D01*
X-57599Y3448239D01*
X-77516Y3461547D01*
X-94453Y3478484D01*
X-107760Y3498401D01*
X-109629Y3502911D01*
X-116927Y3520531D01*
X-121600Y3544023D01*
X-121600Y3567977D01*
X-116927Y3591469D01*
X-107761Y3613599D01*
X-107760Y3613599D01*
X-94453Y3633515D01*
X-77516Y3650453D01*
X-57599Y3663760D01*
X-57599Y3663761D01*
X-35469Y3672927D01*
X-11977Y3677600D01*
X11977Y3677600D01*
X35469Y3672927D01*
G37*
G36*
X2321469Y3672927D02*
G01*
X2343599Y3663761D01*
X2343599Y3663760D01*
X2363516Y3650453D01*
X2380453Y3633515D01*
X2393761Y3613599D01*
X2393761Y3613599D01*
X2402927Y3591469D01*
X2407600Y3567977D01*
X2407600Y3544023D01*
X2402927Y3520531D01*
X2395629Y3502911D01*
X2393761Y3498401D01*
X2380453Y3478484D01*
X2363516Y3461547D01*
X2343599Y3448239D01*
X2343599Y3448239D01*
X2343599Y3448239D01*
X2325032Y3440548D01*
X2322870Y3439393D01*
X2320976Y3437839D01*
X2319422Y3435944D01*
X2318267Y3433783D01*
X2317555Y3431439D01*
X2317315Y3429000D01*
X2317555Y3426561D01*
X2318267Y3424216D01*
X2319422Y3422055D01*
X2320976Y3420161D01*
X2322871Y3418607D01*
X2325032Y3417452D01*
X2343599Y3409761D01*
X2343599Y3409760D01*
X2363516Y3396453D01*
X2380453Y3379515D01*
X2393761Y3359599D01*
X2393761Y3359599D01*
X2402927Y3337469D01*
X2407600Y3313977D01*
X2407600Y3290023D01*
X2402927Y3266531D01*
X2393761Y3244401D01*
X2393761Y3244401D01*
X2380453Y3224484D01*
X2363516Y3207547D01*
X2343599Y3194239D01*
X2343599Y3194239D01*
X2343599Y3194239D01*
X2325032Y3186548D01*
X2322870Y3185393D01*
X2320976Y3183839D01*
X2319422Y3181944D01*
X2318267Y3179783D01*
X2317555Y3177439D01*
X2317315Y3175000D01*
X2317555Y3172561D01*
X2318267Y3170216D01*
X2319422Y3168055D01*
X2320976Y3166161D01*
X2322871Y3164607D01*
X2325032Y3163452D01*
X2343599Y3155761D01*
X2343599Y3155760D01*
X2363516Y3142453D01*
X2380453Y3125515D01*
X2393761Y3105599D01*
X2393761Y3105599D01*
X2402927Y3083469D01*
X2407600Y3059977D01*
X2407600Y3036023D01*
X2402927Y3012531D01*
X2397999Y3000632D01*
X2393761Y2990401D01*
X2380453Y2970484D01*
X2363516Y2953547D01*
X2343599Y2940239D01*
X2343599Y2940239D01*
X2343599Y2940239D01*
X2325032Y2932548D01*
X2322870Y2931393D01*
X2320976Y2929839D01*
X2319422Y2927944D01*
X2318267Y2925783D01*
X2317555Y2923439D01*
X2317315Y2921000D01*
X2317555Y2918561D01*
X2318267Y2916216D01*
X2319422Y2914055D01*
X2320976Y2912161D01*
X2322871Y2910607D01*
X2325032Y2909452D01*
X2343599Y2901761D01*
X2343599Y2901760D01*
X2363516Y2888453D01*
X2380453Y2871515D01*
X2393761Y2851599D01*
X2393761Y2851599D01*
X2402927Y2829469D01*
X2407600Y2805977D01*
X2407600Y2782023D01*
X2402927Y2758531D01*
X2397999Y2746632D01*
X2393761Y2736401D01*
X2380453Y2716485D01*
X2363516Y2699547D01*
X2343599Y2686240D01*
X2343599Y2686239D01*
X2343599Y2686239D01*
X2325032Y2678548D01*
X2322870Y2677393D01*
X2320976Y2675839D01*
X2319422Y2673945D01*
X2318267Y2671784D01*
X2317555Y2669439D01*
X2317315Y2667000D01*
X2317555Y2664561D01*
X2318267Y2662217D01*
X2319422Y2660055D01*
X2320976Y2658161D01*
X2322871Y2656607D01*
X2325032Y2655452D01*
X2343599Y2647761D01*
X2343599Y2647761D01*
X2363516Y2634453D01*
X2380453Y2617516D01*
X2393761Y2597599D01*
X2393761Y2597599D01*
X2402927Y2575469D01*
X2407600Y2551977D01*
X2407600Y2528023D01*
X2402927Y2504531D01*
X2393761Y2482401D01*
X2393761Y2482401D01*
X2380453Y2462485D01*
X2363516Y2445547D01*
X2343599Y2432240D01*
X2343599Y2432239D01*
X2343599Y2432239D01*
X2325032Y2424548D01*
X2322870Y2423393D01*
X2320976Y2421839D01*
X2319422Y2419945D01*
X2318267Y2417784D01*
X2317555Y2415439D01*
X2317315Y2413000D01*
X2317555Y2410561D01*
X2318267Y2408217D01*
X2319422Y2406055D01*
X2320976Y2404161D01*
X2322871Y2402607D01*
X2325032Y2401452D01*
X2343599Y2393761D01*
X2343599Y2393761D01*
X2363516Y2380453D01*
X2380453Y2363516D01*
X2384897Y2356865D01*
X2393761Y2343599D01*
X2402927Y2321469D01*
X2407600Y2297977D01*
X2407600Y2274023D01*
X2402927Y2250531D01*
X2393761Y2228401D01*
X2393761Y2228401D01*
X2380453Y2208485D01*
X2363516Y2191547D01*
X2343599Y2178240D01*
X2343599Y2178239D01*
X2343599Y2178239D01*
X2325032Y2170548D01*
X2322870Y2169393D01*
X2320976Y2167839D01*
X2319422Y2165945D01*
X2318267Y2163784D01*
X2317555Y2161439D01*
X2317315Y2159000D01*
X2317555Y2156561D01*
X2318267Y2154217D01*
X2319422Y2152055D01*
X2320976Y2150161D01*
X2322871Y2148607D01*
X2325032Y2147452D01*
X2343599Y2139761D01*
X2343599Y2139761D01*
X2363516Y2126453D01*
X2380453Y2109516D01*
X2389982Y2095254D01*
X2393761Y2089599D01*
X2402927Y2067469D01*
X2407600Y2043977D01*
X2407600Y2020023D01*
X2402927Y1996531D01*
X2397999Y1984632D01*
X2393761Y1974401D01*
X2380453Y1954484D01*
X2363516Y1937547D01*
X2343599Y1924239D01*
X2343599Y1924239D01*
X2343599Y1924239D01*
X2325032Y1916548D01*
X2322870Y1915393D01*
X2320976Y1913839D01*
X2319422Y1911944D01*
X2318267Y1909783D01*
X2317555Y1907439D01*
X2317315Y1905000D01*
X2317555Y1902561D01*
X2318267Y1900216D01*
X2319422Y1898055D01*
X2320976Y1896161D01*
X2322871Y1894607D01*
X2325032Y1893452D01*
X2343599Y1885761D01*
X2343599Y1885760D01*
X2363516Y1872453D01*
X2380453Y1855515D01*
X2393761Y1835599D01*
X2393761Y1835599D01*
X2402927Y1813469D01*
X2407600Y1789977D01*
X2407600Y1766023D01*
X2402927Y1742531D01*
X2397999Y1730632D01*
X2393761Y1720401D01*
X2380453Y1700484D01*
X2363516Y1683547D01*
X2343599Y1670239D01*
X2343599Y1670239D01*
X2343599Y1670239D01*
X2325032Y1662548D01*
X2322870Y1661393D01*
X2320976Y1659839D01*
X2319422Y1657944D01*
X2318267Y1655783D01*
X2317555Y1653439D01*
X2317315Y1651000D01*
X2317555Y1648561D01*
X2318267Y1646216D01*
X2319422Y1644055D01*
X2320976Y1642161D01*
X2322871Y1640607D01*
X2325032Y1639452D01*
X2343599Y1631761D01*
X2343599Y1631760D01*
X2363516Y1618453D01*
X2380453Y1601515D01*
X2393761Y1581599D01*
X2393761Y1581599D01*
X2402927Y1559469D01*
X2407600Y1535977D01*
X2407600Y1512023D01*
X2402927Y1488531D01*
X2393761Y1466401D01*
X2393761Y1466401D01*
X2380453Y1446484D01*
X2363516Y1429547D01*
X2343599Y1416239D01*
X2343599Y1416239D01*
X2343599Y1416239D01*
X2325032Y1408548D01*
X2322870Y1407393D01*
X2320976Y1405839D01*
X2319422Y1403944D01*
X2318267Y1401783D01*
X2317555Y1399439D01*
X2317315Y1397000D01*
X2317555Y1394561D01*
X2318267Y1392217D01*
X2319422Y1390055D01*
X2320976Y1388161D01*
X2322871Y1386607D01*
X2325032Y1385452D01*
X2343599Y1377761D01*
X2343599Y1377761D01*
X2363516Y1364453D01*
X2380453Y1347516D01*
X2389982Y1333254D01*
X2393761Y1327599D01*
X2402927Y1305469D01*
X2407600Y1281977D01*
X2407600Y1258023D01*
X2402927Y1234531D01*
X2393761Y1212401D01*
X2393761Y1212401D01*
X2380453Y1192485D01*
X2363516Y1175547D01*
X2343599Y1162240D01*
X2343599Y1162239D01*
X2343599Y1162239D01*
X2325032Y1154548D01*
X2322870Y1153393D01*
X2320976Y1151839D01*
X2319422Y1149945D01*
X2318267Y1147784D01*
X2317555Y1145439D01*
X2317315Y1143000D01*
X2317555Y1140561D01*
X2318267Y1138217D01*
X2319422Y1136055D01*
X2320976Y1134161D01*
X2322871Y1132607D01*
X2325032Y1131452D01*
X2343599Y1123761D01*
X2343599Y1123761D01*
X2363516Y1110453D01*
X2380453Y1093516D01*
X2389982Y1079254D01*
X2393761Y1073599D01*
X2402927Y1051469D01*
X2407600Y1027977D01*
X2407600Y1004023D01*
X2402927Y980531D01*
X2397999Y968632D01*
X2393761Y958401D01*
X2380453Y938484D01*
X2363516Y921547D01*
X2343599Y908239D01*
X2343599Y908239D01*
X2343599Y908239D01*
X2325032Y900548D01*
X2322870Y899393D01*
X2320976Y897839D01*
X2319422Y895944D01*
X2318267Y893783D01*
X2317555Y891439D01*
X2317315Y889000D01*
X2317555Y886561D01*
X2318267Y884216D01*
X2319422Y882055D01*
X2320976Y880161D01*
X2322871Y878607D01*
X2325032Y877452D01*
X2343599Y869761D01*
X2343599Y869760D01*
X2363516Y856453D01*
X2380453Y839515D01*
X2393761Y819599D01*
X2393761Y819599D01*
X2402927Y797469D01*
X2407600Y773977D01*
X2407600Y750023D01*
X2402927Y726531D01*
X2397999Y714632D01*
X2393761Y704401D01*
X2380453Y684485D01*
X2363516Y667547D01*
X2343599Y654240D01*
X2343599Y654239D01*
X2343599Y654239D01*
X2325032Y646548D01*
X2322870Y645393D01*
X2320976Y643839D01*
X2319422Y641945D01*
X2318267Y639784D01*
X2317555Y637439D01*
X2317315Y635000D01*
X2317555Y632561D01*
X2318267Y630217D01*
X2319422Y628055D01*
X2320976Y626161D01*
X2322871Y624607D01*
X2325032Y623452D01*
X2343599Y615761D01*
X2343599Y615761D01*
X2363516Y602453D01*
X2380453Y585516D01*
X2393761Y565599D01*
X2393761Y565599D01*
X2402927Y543469D01*
X2407600Y519977D01*
X2407600Y496023D01*
X2402927Y472531D01*
X2393761Y450401D01*
X2393761Y450401D01*
X2380453Y430484D01*
X2363516Y413547D01*
X2343599Y400239D01*
X2343599Y400239D01*
X2343599Y400239D01*
X2325032Y392548D01*
X2322870Y391393D01*
X2320976Y389839D01*
X2319422Y387944D01*
X2318267Y385783D01*
X2317555Y383439D01*
X2317315Y381000D01*
X2317555Y378561D01*
X2318267Y376216D01*
X2319422Y374055D01*
X2320976Y372161D01*
X2322871Y370607D01*
X2325032Y369452D01*
X2343599Y361761D01*
X2343599Y361760D01*
X2363516Y348453D01*
X2380453Y331516D01*
X2393761Y311599D01*
X2393761Y311599D01*
X2402927Y289469D01*
X2407600Y265977D01*
X2407600Y242023D01*
X2402927Y218531D01*
X2393761Y196401D01*
X2393761Y196401D01*
X2380453Y176484D01*
X2363516Y159547D01*
X2343599Y146240D01*
X2343599Y146239D01*
X2343599Y146239D01*
X2325032Y138548D01*
X2322870Y137393D01*
X2320976Y135839D01*
X2319422Y133945D01*
X2318267Y131784D01*
X2317555Y129439D01*
X2317315Y127000D01*
X2317555Y124561D01*
X2318267Y122216D01*
X2319422Y120055D01*
X2320976Y118161D01*
X2322871Y116607D01*
X2325032Y115452D01*
X2343599Y107761D01*
X2343599Y107760D01*
X2363516Y94453D01*
X2380453Y77516D01*
X2393761Y57599D01*
X2393761Y57599D01*
X2402927Y35469D01*
X2407600Y11977D01*
X2407600Y-11977D01*
X2402927Y-35469D01*
X2397999Y-47368D01*
X2393761Y-57599D01*
X2380453Y-77516D01*
X2363516Y-94453D01*
X2343599Y-107760D01*
X2343599Y-107761D01*
X2343599Y-107761D01*
X2321469Y-116927D01*
X2297977Y-121600D01*
X2274023Y-121600D01*
X2250531Y-116927D01*
X2228401Y-107761D01*
X2228401Y-107761D01*
X2228401Y-107760D01*
X2208485Y-94453D01*
X2191547Y-77516D01*
X2178240Y-57599D01*
X2174001Y-47368D01*
X2169073Y-35469D01*
X2164400Y-11977D01*
X2164400Y11977D01*
X2169073Y35469D01*
X2178239Y57599D01*
X2178240Y57599D01*
X2191547Y77516D01*
X2208485Y94453D01*
X2228401Y107760D01*
X2228401Y107761D01*
X2246969Y115452D01*
X2249130Y116607D01*
X2251024Y118161D01*
X2252578Y120055D01*
X2253733Y122216D01*
X2254445Y124561D01*
X2254685Y127000D01*
X2254445Y129439D01*
X2253733Y131784D01*
X2252578Y133945D01*
X2251024Y135839D01*
X2249130Y137393D01*
X2246969Y138548D01*
X2228401Y146239D01*
X2228401Y146239D01*
X2228401Y146240D01*
X2208485Y159547D01*
X2191547Y176484D01*
X2178240Y196401D01*
X2178239Y196401D01*
X2169073Y218531D01*
X2164400Y242023D01*
X2164400Y265977D01*
X2169073Y289469D01*
X2178239Y311599D01*
X2178240Y311599D01*
X2191547Y331516D01*
X2208485Y348453D01*
X2228401Y361760D01*
X2228401Y361761D01*
X2246969Y369452D01*
X2249130Y370607D01*
X2251024Y372161D01*
X2252578Y374055D01*
X2253733Y376216D01*
X2254445Y378561D01*
X2254685Y381000D01*
X2254445Y383439D01*
X2253733Y385783D01*
X2252578Y387945D01*
X2251024Y389839D01*
X2249130Y391393D01*
X2246969Y392548D01*
X2228401Y400239D01*
X2228401Y400239D01*
X2228401Y400239D01*
X2208485Y413547D01*
X2191547Y430484D01*
X2178240Y450401D01*
X2178239Y450401D01*
X2169073Y472531D01*
X2164400Y496023D01*
X2164400Y519977D01*
X2169073Y543469D01*
X2178239Y565599D01*
X2178240Y565599D01*
X2191547Y585516D01*
X2208485Y602453D01*
X2228401Y615761D01*
X2228401Y615761D01*
X2246969Y623452D01*
X2249130Y624607D01*
X2251024Y626161D01*
X2252578Y628056D01*
X2253733Y630217D01*
X2254445Y632561D01*
X2254685Y635000D01*
X2254445Y637439D01*
X2253733Y639784D01*
X2252578Y641945D01*
X2251024Y643839D01*
X2249130Y645393D01*
X2246969Y646548D01*
X2228401Y654239D01*
X2228401Y654239D01*
X2228401Y654240D01*
X2208485Y667547D01*
X2191547Y684485D01*
X2178240Y704401D01*
X2174001Y714632D01*
X2169073Y726531D01*
X2164400Y750023D01*
X2164400Y773977D01*
X2169073Y797469D01*
X2178239Y819599D01*
X2178240Y819599D01*
X2191547Y839515D01*
X2208485Y856453D01*
X2228401Y869760D01*
X2228401Y869761D01*
X2246969Y877452D01*
X2249130Y878607D01*
X2251024Y880161D01*
X2252578Y882055D01*
X2253733Y884216D01*
X2254445Y886561D01*
X2254685Y889000D01*
X2254445Y891439D01*
X2253733Y893783D01*
X2252578Y895945D01*
X2251024Y897839D01*
X2249130Y899393D01*
X2246969Y900548D01*
X2228401Y908239D01*
X2228401Y908239D01*
X2228401Y908239D01*
X2208485Y921547D01*
X2191547Y938484D01*
X2178240Y958401D01*
X2174001Y968632D01*
X2169073Y980531D01*
X2164400Y1004023D01*
X2164400Y1027977D01*
X2169073Y1051469D01*
X2178239Y1073599D01*
X2182018Y1079254D01*
X2191547Y1093516D01*
X2208485Y1110453D01*
X2228401Y1123761D01*
X2228401Y1123761D01*
X2246969Y1131452D01*
X2249130Y1132607D01*
X2251024Y1134161D01*
X2252578Y1136056D01*
X2253733Y1138217D01*
X2254445Y1140561D01*
X2254685Y1143000D01*
X2254445Y1145439D01*
X2253733Y1147784D01*
X2252578Y1149945D01*
X2251024Y1151839D01*
X2249130Y1153393D01*
X2246969Y1154548D01*
X2228401Y1162239D01*
X2228401Y1162239D01*
X2228401Y1162240D01*
X2208485Y1175547D01*
X2191547Y1192485D01*
X2178240Y1212401D01*
X2178239Y1212401D01*
X2169073Y1234531D01*
X2164400Y1258023D01*
X2164400Y1281977D01*
X2169073Y1305469D01*
X2178239Y1327599D01*
X2182018Y1333254D01*
X2191547Y1347516D01*
X2208485Y1364453D01*
X2228401Y1377761D01*
X2228401Y1377761D01*
X2246969Y1385452D01*
X2249130Y1386607D01*
X2251024Y1388161D01*
X2252578Y1390056D01*
X2253733Y1392217D01*
X2254445Y1394561D01*
X2254685Y1397000D01*
X2254445Y1399439D01*
X2253733Y1401783D01*
X2252578Y1403945D01*
X2251024Y1405839D01*
X2249130Y1407393D01*
X2246969Y1408548D01*
X2228401Y1416239D01*
X2228401Y1416239D01*
X2228401Y1416239D01*
X2208485Y1429547D01*
X2191547Y1446484D01*
X2178240Y1466401D01*
X2178239Y1466401D01*
X2169073Y1488531D01*
X2164400Y1512023D01*
X2164400Y1535977D01*
X2169073Y1559469D01*
X2178239Y1581599D01*
X2178240Y1581599D01*
X2191547Y1601515D01*
X2208485Y1618453D01*
X2228401Y1631760D01*
X2228401Y1631761D01*
X2246969Y1639452D01*
X2249130Y1640607D01*
X2251024Y1642161D01*
X2252578Y1644055D01*
X2253733Y1646216D01*
X2254445Y1648561D01*
X2254685Y1651000D01*
X2254445Y1653439D01*
X2253733Y1655783D01*
X2252578Y1657945D01*
X2251024Y1659839D01*
X2249130Y1661393D01*
X2246969Y1662548D01*
X2228401Y1670239D01*
X2228401Y1670239D01*
X2228401Y1670239D01*
X2208485Y1683547D01*
X2191547Y1700484D01*
X2178240Y1720401D01*
X2174001Y1730632D01*
X2169073Y1742531D01*
X2164400Y1766023D01*
X2164400Y1789977D01*
X2169073Y1813469D01*
X2178239Y1835599D01*
X2178240Y1835599D01*
X2191547Y1855515D01*
X2208485Y1872453D01*
X2228401Y1885760D01*
X2228401Y1885761D01*
X2246969Y1893452D01*
X2249130Y1894607D01*
X2251024Y1896161D01*
X2252578Y1898055D01*
X2253733Y1900216D01*
X2254445Y1902561D01*
X2254685Y1905000D01*
X2254445Y1907439D01*
X2253733Y1909783D01*
X2252578Y1911945D01*
X2251024Y1913839D01*
X2249130Y1915393D01*
X2246969Y1916548D01*
X2228401Y1924239D01*
X2228401Y1924239D01*
X2228401Y1924239D01*
X2208485Y1937547D01*
X2191547Y1954484D01*
X2178240Y1974401D01*
X2174001Y1984632D01*
X2169073Y1996531D01*
X2164400Y2020023D01*
X2164400Y2043977D01*
X2169073Y2067469D01*
X2178239Y2089599D01*
X2182018Y2095254D01*
X2191547Y2109516D01*
X2208485Y2126453D01*
X2228401Y2139761D01*
X2228401Y2139761D01*
X2246969Y2147452D01*
X2249130Y2148607D01*
X2251024Y2150161D01*
X2252578Y2152056D01*
X2253733Y2154217D01*
X2254445Y2156561D01*
X2254685Y2159000D01*
X2254445Y2161439D01*
X2253733Y2163784D01*
X2252578Y2165945D01*
X2251024Y2167839D01*
X2249130Y2169393D01*
X2246969Y2170548D01*
X2228401Y2178239D01*
X2228401Y2178239D01*
X2228401Y2178240D01*
X2208485Y2191547D01*
X2191547Y2208485D01*
X2178240Y2228401D01*
X2178239Y2228401D01*
X2169073Y2250531D01*
X2164400Y2274023D01*
X2164400Y2297977D01*
X2169073Y2321469D01*
X2178239Y2343599D01*
X2187103Y2356865D01*
X2191547Y2363516D01*
X2208485Y2380453D01*
X2228401Y2393761D01*
X2228401Y2393761D01*
X2246969Y2401452D01*
X2249130Y2402607D01*
X2251024Y2404161D01*
X2252578Y2406056D01*
X2253733Y2408217D01*
X2254445Y2410561D01*
X2254685Y2413000D01*
X2254445Y2415439D01*
X2253733Y2417784D01*
X2252578Y2419945D01*
X2251024Y2421839D01*
X2249130Y2423393D01*
X2246969Y2424548D01*
X2228401Y2432239D01*
X2228401Y2432239D01*
X2228401Y2432240D01*
X2208485Y2445547D01*
X2191547Y2462485D01*
X2178240Y2482401D01*
X2178239Y2482401D01*
X2169073Y2504531D01*
X2164400Y2528023D01*
X2164400Y2551977D01*
X2169073Y2575469D01*
X2178239Y2597599D01*
X2178240Y2597599D01*
X2191547Y2617516D01*
X2208485Y2634453D01*
X2228401Y2647761D01*
X2228401Y2647761D01*
X2246969Y2655452D01*
X2249130Y2656607D01*
X2251024Y2658161D01*
X2252578Y2660056D01*
X2253733Y2662217D01*
X2254445Y2664561D01*
X2254685Y2667000D01*
X2254445Y2669439D01*
X2253733Y2671784D01*
X2252578Y2673945D01*
X2251024Y2675839D01*
X2249130Y2677393D01*
X2246969Y2678548D01*
X2228401Y2686239D01*
X2228401Y2686239D01*
X2228401Y2686240D01*
X2208485Y2699547D01*
X2191547Y2716485D01*
X2178240Y2736401D01*
X2174001Y2746632D01*
X2169073Y2758531D01*
X2164400Y2782023D01*
X2164400Y2805977D01*
X2169073Y2829469D01*
X2178239Y2851599D01*
X2178240Y2851599D01*
X2191547Y2871515D01*
X2208485Y2888453D01*
X2228401Y2901760D01*
X2228401Y2901761D01*
X2246969Y2909452D01*
X2249130Y2910607D01*
X2251024Y2912161D01*
X2252578Y2914055D01*
X2253733Y2916216D01*
X2254445Y2918561D01*
X2254685Y2921000D01*
X2254445Y2923439D01*
X2253733Y2925783D01*
X2252578Y2927945D01*
X2251024Y2929839D01*
X2249130Y2931393D01*
X2246969Y2932548D01*
X2228401Y2940239D01*
X2228401Y2940239D01*
X2228401Y2940239D01*
X2208485Y2953547D01*
X2191547Y2970484D01*
X2178240Y2990401D01*
X2174001Y3000632D01*
X2169073Y3012531D01*
X2164400Y3036023D01*
X2164400Y3059977D01*
X2169073Y3083469D01*
X2178239Y3105599D01*
X2178240Y3105599D01*
X2191547Y3125515D01*
X2208485Y3142453D01*
X2228401Y3155760D01*
X2228401Y3155761D01*
X2246969Y3163452D01*
X2249130Y3164607D01*
X2251024Y3166161D01*
X2252578Y3168055D01*
X2253733Y3170216D01*
X2254445Y3172561D01*
X2254685Y3175000D01*
X2254445Y3177439D01*
X2253733Y3179783D01*
X2252578Y3181945D01*
X2251024Y3183839D01*
X2249130Y3185393D01*
X2246969Y3186548D01*
X2228401Y3194239D01*
X2228401Y3194239D01*
X2228401Y3194239D01*
X2208485Y3207547D01*
X2191547Y3224484D01*
X2178240Y3244401D01*
X2178239Y3244401D01*
X2169073Y3266531D01*
X2164400Y3290023D01*
X2164400Y3313977D01*
X2169073Y3337469D01*
X2178239Y3359599D01*
X2178240Y3359599D01*
X2191547Y3379515D01*
X2208485Y3396453D01*
X2228401Y3409760D01*
X2228401Y3409761D01*
X2246969Y3417452D01*
X2249130Y3418607D01*
X2251024Y3420161D01*
X2252578Y3422055D01*
X2253733Y3424216D01*
X2254445Y3426561D01*
X2254685Y3429000D01*
X2254445Y3431439D01*
X2253733Y3433783D01*
X2252578Y3435945D01*
X2251024Y3437839D01*
X2249130Y3439393D01*
X2246969Y3440548D01*
X2228401Y3448239D01*
X2228401Y3448239D01*
X2228401Y3448239D01*
X2208485Y3461547D01*
X2191547Y3478484D01*
X2178240Y3498401D01*
X2176371Y3502911D01*
X2169073Y3520531D01*
X2164400Y3544023D01*
X2164400Y3567977D01*
X2169073Y3591469D01*
X2178239Y3613599D01*
X2178240Y3613599D01*
X2191547Y3633515D01*
X2208485Y3650453D01*
X2228401Y3663760D01*
X2228401Y3663761D01*
X2250531Y3672927D01*
X2274023Y3677600D01*
X2297977Y3677600D01*
X2321469Y3672927D01*
G37*
G36*
X403729Y97438D02*
G01*
X410169Y96157D01*
X428368Y88619D01*
X444746Y77675D01*
X458675Y63746D01*
X469619Y47368D01*
X477157Y29169D01*
X477157Y29169D01*
X481000Y9849D01*
X481000Y-9849D01*
X480577Y-11977D01*
X477157Y-29169D01*
X469619Y-47368D01*
X458675Y-63746D01*
X444746Y-77675D01*
X428368Y-88619D01*
X410169Y-96157D01*
X403729Y-97438D01*
X390849Y-100000D01*
X371151Y-100000D01*
X358271Y-97438D01*
X351831Y-96157D01*
X333632Y-88619D01*
X317254Y-77675D01*
X303325Y-63746D01*
X292381Y-47368D01*
X284843Y-29169D01*
X281423Y-11977D01*
X281000Y-9849D01*
X281000Y9849D01*
X284843Y29169D01*
X284843Y29169D01*
X292381Y47368D01*
X303325Y63746D01*
X317254Y77675D01*
X333632Y88619D01*
X351831Y96157D01*
X358271Y97438D01*
X371151Y100000D01*
X390849Y100000D01*
X403729Y97438D01*
G37*
G36*
X657729Y97438D02*
G01*
X664169Y96157D01*
X682368Y88619D01*
X698746Y77675D01*
X712675Y63746D01*
X723619Y47368D01*
X731157Y29169D01*
X731157Y29169D01*
X735000Y9849D01*
X735000Y-9849D01*
X734577Y-11977D01*
X731157Y-29169D01*
X723619Y-47368D01*
X712675Y-63746D01*
X698746Y-77675D01*
X682368Y-88619D01*
X664169Y-96157D01*
X657729Y-97438D01*
X644849Y-100000D01*
X625151Y-100000D01*
X612271Y-97438D01*
X605831Y-96157D01*
X587632Y-88619D01*
X571254Y-77675D01*
X557325Y-63746D01*
X546381Y-47368D01*
X538843Y-29169D01*
X535423Y-11977D01*
X535000Y-9849D01*
X535000Y9849D01*
X538843Y29169D01*
X538843Y29169D01*
X546381Y47368D01*
X557325Y63746D01*
X571254Y77675D01*
X587632Y88619D01*
X605831Y96157D01*
X612271Y97438D01*
X625151Y100000D01*
X644849Y100000D01*
X657729Y97438D01*
G37*
G36*
X989000Y-100000D02*
G01*
X789000Y-100000D01*
X789000Y100000D01*
X989000Y100000D01*
X989000Y-100000D01*
G37*
G36*
X1419729Y97438D02*
G01*
X1426169Y96157D01*
X1444368Y88619D01*
X1460746Y77675D01*
X1474675Y63746D01*
X1485619Y47368D01*
X1493157Y29169D01*
X1493157Y29169D01*
X1497000Y9849D01*
X1497000Y-9849D01*
X1496577Y-11977D01*
X1493157Y-29169D01*
X1485619Y-47368D01*
X1474675Y-63746D01*
X1460746Y-77675D01*
X1444368Y-88619D01*
X1426169Y-96157D01*
X1419729Y-97438D01*
X1406849Y-100000D01*
X1387151Y-100000D01*
X1374271Y-97438D01*
X1367831Y-96157D01*
X1349632Y-88619D01*
X1333254Y-77675D01*
X1319325Y-63746D01*
X1308381Y-47368D01*
X1300843Y-29169D01*
X1297423Y-11977D01*
X1297000Y-9849D01*
X1297000Y9849D01*
X1300843Y29169D01*
X1300843Y29169D01*
X1308381Y47368D01*
X1319325Y63746D01*
X1333254Y77675D01*
X1349632Y88619D01*
X1367831Y96157D01*
X1374271Y97438D01*
X1387151Y100000D01*
X1406849Y100000D01*
X1419729Y97438D01*
G37*
G36*
X1673729Y97438D02*
G01*
X1680169Y96157D01*
X1698368Y88619D01*
X1714746Y77675D01*
X1728675Y63746D01*
X1739619Y47368D01*
X1747157Y29169D01*
X1747157Y29169D01*
X1751000Y9849D01*
X1751000Y-9849D01*
X1750577Y-11977D01*
X1747157Y-29169D01*
X1739619Y-47368D01*
X1728675Y-63746D01*
X1714746Y-77675D01*
X1698368Y-88619D01*
X1680169Y-96157D01*
X1673729Y-97438D01*
X1660849Y-100000D01*
X1641151Y-100000D01*
X1628271Y-97438D01*
X1621831Y-96157D01*
X1603632Y-88619D01*
X1587254Y-77675D01*
X1573325Y-63746D01*
X1562381Y-47368D01*
X1554843Y-29169D01*
X1551423Y-11977D01*
X1551000Y-9849D01*
X1551000Y9849D01*
X1554843Y29169D01*
X1554843Y29169D01*
X1562381Y47368D01*
X1573325Y63746D01*
X1587254Y77675D01*
X1603632Y88619D01*
X1621831Y96157D01*
X1628271Y97438D01*
X1641151Y100000D01*
X1660849Y100000D01*
X1673729Y97438D01*
G37*
G36*
X1927729Y97438D02*
G01*
X1934169Y96157D01*
X1952368Y88619D01*
X1968746Y77675D01*
X1982675Y63746D01*
X1993619Y47368D01*
X2001157Y29169D01*
X2001157Y29169D01*
X2005000Y9849D01*
X2005000Y-9849D01*
X2004577Y-11977D01*
X2001157Y-29169D01*
X1993619Y-47368D01*
X1982675Y-63746D01*
X1968746Y-77675D01*
X1952368Y-88619D01*
X1934169Y-96157D01*
X1927729Y-97438D01*
X1914849Y-100000D01*
X1895151Y-100000D01*
X1882271Y-97438D01*
X1875831Y-96157D01*
X1857632Y-88619D01*
X1841254Y-77675D01*
X1827325Y-63746D01*
X1816381Y-47368D01*
X1808843Y-29169D01*
X1805423Y-11977D01*
X1805000Y-9849D01*
X1805000Y9849D01*
X1808843Y29169D01*
X1808843Y29169D01*
X1816381Y47368D01*
X1827325Y63746D01*
X1841254Y77675D01*
X1857632Y88619D01*
X1875831Y96157D01*
X1882271Y97438D01*
X1895151Y100000D01*
X1914849Y100000D01*
X1927729Y97438D01*
G37*
G36*
X1927729Y859438D02*
G01*
X1934169Y858157D01*
X1952368Y850619D01*
X1968746Y839675D01*
X1982675Y825746D01*
X1993619Y809368D01*
X2001157Y791169D01*
X2001157Y791169D01*
X2005000Y771849D01*
X2005000Y752151D01*
X2004577Y750023D01*
X2001157Y732831D01*
X1993619Y714632D01*
X1982675Y698254D01*
X1968746Y684325D01*
X1952368Y673381D01*
X1934169Y665843D01*
X1927729Y664562D01*
X1914849Y662000D01*
X1895151Y662000D01*
X1882271Y664562D01*
X1875831Y665843D01*
X1857632Y673381D01*
X1841254Y684325D01*
X1827325Y698254D01*
X1816381Y714632D01*
X1808843Y732831D01*
X1805423Y750023D01*
X1805000Y752151D01*
X1805000Y771849D01*
X1808843Y791169D01*
X1808843Y791169D01*
X1816381Y809368D01*
X1827325Y825746D01*
X1841254Y839675D01*
X1857632Y850619D01*
X1875831Y858157D01*
X1882271Y859438D01*
X1895151Y862000D01*
X1914849Y862000D01*
X1927729Y859438D01*
G37*
G36*
X1673729Y859438D02*
G01*
X1680169Y858157D01*
X1698368Y850619D01*
X1714746Y839675D01*
X1728675Y825746D01*
X1739619Y809368D01*
X1747157Y791169D01*
X1747157Y791169D01*
X1751000Y771849D01*
X1751000Y752151D01*
X1750577Y750023D01*
X1747157Y732831D01*
X1739619Y714632D01*
X1728675Y698254D01*
X1714746Y684325D01*
X1698368Y673381D01*
X1680169Y665843D01*
X1673729Y664562D01*
X1660849Y662000D01*
X1641151Y662000D01*
X1628271Y664562D01*
X1621831Y665843D01*
X1603632Y673381D01*
X1587254Y684325D01*
X1573325Y698254D01*
X1562381Y714632D01*
X1554843Y732831D01*
X1551423Y750023D01*
X1551000Y752151D01*
X1551000Y771849D01*
X1554843Y791169D01*
X1554843Y791169D01*
X1562381Y809368D01*
X1573325Y825746D01*
X1587254Y839675D01*
X1603632Y850619D01*
X1621831Y858157D01*
X1628271Y859438D01*
X1641151Y862000D01*
X1660849Y862000D01*
X1673729Y859438D01*
G37*
G36*
X403729Y859438D02*
G01*
X410169Y858157D01*
X428368Y850619D01*
X444746Y839675D01*
X458675Y825746D01*
X469619Y809368D01*
X477157Y791169D01*
X477157Y791169D01*
X481000Y771849D01*
X481000Y752151D01*
X480577Y750023D01*
X477157Y732831D01*
X469619Y714632D01*
X458675Y698254D01*
X444746Y684325D01*
X428368Y673381D01*
X410169Y665843D01*
X403729Y664562D01*
X390849Y662000D01*
X371151Y662000D01*
X358271Y664562D01*
X351831Y665843D01*
X333632Y673381D01*
X317254Y684325D01*
X303325Y698254D01*
X292381Y714632D01*
X284843Y732831D01*
X281423Y750023D01*
X281000Y752151D01*
X281000Y771849D01*
X284843Y791169D01*
X284843Y791169D01*
X292381Y809368D01*
X303325Y825746D01*
X317254Y839675D01*
X333632Y850619D01*
X351831Y858157D01*
X358271Y859438D01*
X371151Y862000D01*
X390849Y862000D01*
X403729Y859438D01*
G37*
G36*
X657729Y859438D02*
G01*
X664169Y858157D01*
X682368Y850619D01*
X698746Y839675D01*
X712675Y825746D01*
X723619Y809368D01*
X731157Y791169D01*
X731157Y791169D01*
X735000Y771849D01*
X735000Y752151D01*
X734577Y750023D01*
X731157Y732831D01*
X723619Y714632D01*
X712675Y698254D01*
X698746Y684325D01*
X682368Y673381D01*
X664169Y665843D01*
X657729Y664562D01*
X644849Y662000D01*
X625151Y662000D01*
X612271Y664562D01*
X605831Y665843D01*
X587632Y673381D01*
X571254Y684325D01*
X557325Y698254D01*
X546381Y714632D01*
X538843Y732831D01*
X535423Y750023D01*
X535000Y752151D01*
X535000Y771849D01*
X538843Y791169D01*
X538843Y791169D01*
X546381Y809368D01*
X557325Y825746D01*
X571254Y839675D01*
X587632Y850619D01*
X605831Y858157D01*
X612271Y859438D01*
X625151Y862000D01*
X644849Y862000D01*
X657729Y859438D01*
G37*
G36*
X911729Y859438D02*
G01*
X918169Y858157D01*
X936368Y850619D01*
X952746Y839675D01*
X966675Y825746D01*
X977619Y809368D01*
X985157Y791169D01*
X985157Y791169D01*
X989000Y771849D01*
X989000Y752151D01*
X988577Y750023D01*
X985157Y732831D01*
X977619Y714632D01*
X966675Y698254D01*
X952746Y684325D01*
X936368Y673381D01*
X918169Y665843D01*
X911729Y664562D01*
X898849Y662000D01*
X879151Y662000D01*
X866271Y664562D01*
X859831Y665843D01*
X841632Y673381D01*
X825254Y684325D01*
X811325Y698254D01*
X800381Y714632D01*
X792843Y732831D01*
X789423Y750023D01*
X789000Y752151D01*
X789000Y771849D01*
X792843Y791169D01*
X792843Y791169D01*
X800381Y809368D01*
X811325Y825746D01*
X825254Y839675D01*
X841632Y850619D01*
X859831Y858157D01*
X866271Y859438D01*
X879151Y862000D01*
X898849Y862000D01*
X911729Y859438D01*
G37*
G36*
X1497000Y662000D02*
G01*
X1297000Y662000D01*
X1297000Y862000D01*
X1497000Y862000D01*
X1497000Y662000D01*
G37*
G36*
X1927729Y1113438D02*
G01*
X1934169Y1112157D01*
X1952368Y1104619D01*
X1968746Y1093675D01*
X1982675Y1079746D01*
X1993619Y1063368D01*
X2000464Y1046843D01*
X2001157Y1045169D01*
X2005000Y1025849D01*
X2005000Y1006151D01*
X2004577Y1004023D01*
X2001157Y986831D01*
X1993619Y968632D01*
X1982675Y952254D01*
X1968746Y938325D01*
X1952368Y927381D01*
X1934169Y919843D01*
X1927729Y918562D01*
X1914849Y916000D01*
X1895151Y916000D01*
X1882271Y918562D01*
X1875831Y919843D01*
X1857632Y927381D01*
X1841254Y938325D01*
X1827325Y952254D01*
X1816381Y968632D01*
X1808843Y986831D01*
X1805423Y1004023D01*
X1805000Y1006151D01*
X1805000Y1025849D01*
X1808843Y1045169D01*
X1809536Y1046843D01*
X1816381Y1063368D01*
X1827325Y1079746D01*
X1841254Y1093675D01*
X1857632Y1104619D01*
X1875831Y1112157D01*
X1882271Y1113438D01*
X1895151Y1116000D01*
X1914849Y1116000D01*
X1927729Y1113438D01*
G37*
G36*
X403729Y1240438D02*
G01*
X410169Y1239157D01*
X428368Y1231619D01*
X444746Y1220675D01*
X458675Y1206746D01*
X469619Y1190368D01*
X477157Y1172169D01*
X481000Y1152849D01*
X481000Y1133151D01*
X477157Y1113831D01*
X469619Y1095632D01*
X458675Y1079254D01*
X444746Y1065325D01*
X428368Y1054381D01*
X410169Y1046843D01*
X403729Y1045562D01*
X390849Y1043000D01*
X371151Y1043000D01*
X358271Y1045562D01*
X351831Y1046843D01*
X333632Y1054381D01*
X317254Y1065325D01*
X303325Y1079254D01*
X292381Y1095632D01*
X284843Y1113831D01*
X281000Y1133151D01*
X281000Y1152849D01*
X284843Y1172169D01*
X292381Y1190368D01*
X303325Y1206746D01*
X317254Y1220675D01*
X333632Y1231619D01*
X351831Y1239157D01*
X358271Y1240438D01*
X371151Y1243000D01*
X390849Y1243000D01*
X403729Y1240438D01*
G37*
G36*
X1673729Y1494438D02*
G01*
X1680169Y1493157D01*
X1698368Y1485619D01*
X1714746Y1474675D01*
X1728675Y1460746D01*
X1739619Y1444368D01*
X1747157Y1426169D01*
X1751000Y1406849D01*
X1751000Y1387151D01*
X1747157Y1367831D01*
X1739619Y1349632D01*
X1728675Y1333254D01*
X1714746Y1319325D01*
X1698368Y1308381D01*
X1680169Y1300843D01*
X1673729Y1299562D01*
X1660849Y1297000D01*
X1641151Y1297000D01*
X1628271Y1299562D01*
X1621831Y1300843D01*
X1603632Y1308381D01*
X1587254Y1319325D01*
X1573325Y1333254D01*
X1562381Y1349632D01*
X1554843Y1367831D01*
X1551000Y1387151D01*
X1551000Y1406849D01*
X1554843Y1426169D01*
X1562381Y1444368D01*
X1573325Y1460746D01*
X1587254Y1474675D01*
X1603632Y1485619D01*
X1621831Y1493157D01*
X1628271Y1494438D01*
X1641151Y1497000D01*
X1660849Y1497000D01*
X1673729Y1494438D01*
G37*
G36*
X657729Y1494438D02*
G01*
X664169Y1493157D01*
X682368Y1485619D01*
X698746Y1474675D01*
X712675Y1460746D01*
X723619Y1444368D01*
X731157Y1426169D01*
X735000Y1406849D01*
X735000Y1387151D01*
X731157Y1367831D01*
X723619Y1349632D01*
X712675Y1333254D01*
X698746Y1319325D01*
X682368Y1308381D01*
X664169Y1300843D01*
X657729Y1299562D01*
X644849Y1297000D01*
X625151Y1297000D01*
X612271Y1299562D01*
X605831Y1300843D01*
X587632Y1308381D01*
X571254Y1319325D01*
X557325Y1333254D01*
X546381Y1349632D01*
X538843Y1367831D01*
X535000Y1387151D01*
X535000Y1406849D01*
X538843Y1426169D01*
X546381Y1444368D01*
X557325Y1460746D01*
X571254Y1474675D01*
X587632Y1485619D01*
X605831Y1493157D01*
X612271Y1494438D01*
X625151Y1497000D01*
X644849Y1497000D01*
X657729Y1494438D01*
G37*
G36*
X1497000Y1678000D02*
G01*
X1297000Y1678000D01*
X1297000Y1878000D01*
X1497000Y1878000D01*
X1497000Y1678000D01*
G37*
G36*
X911729Y1875438D02*
G01*
X918169Y1874157D01*
X936368Y1866619D01*
X952746Y1855675D01*
X966675Y1841746D01*
X977619Y1825368D01*
X985157Y1807169D01*
X985157Y1807169D01*
X989000Y1787849D01*
X989000Y1768151D01*
X988577Y1766023D01*
X985157Y1748831D01*
X977619Y1730632D01*
X966675Y1714254D01*
X952746Y1700325D01*
X936368Y1689381D01*
X918169Y1681843D01*
X911729Y1680562D01*
X898849Y1678000D01*
X879151Y1678000D01*
X866271Y1680562D01*
X859831Y1681843D01*
X841632Y1689381D01*
X825254Y1700325D01*
X811325Y1714254D01*
X800381Y1730632D01*
X792843Y1748831D01*
X789423Y1766023D01*
X789000Y1768151D01*
X789000Y1787849D01*
X792843Y1807169D01*
X792843Y1807169D01*
X800381Y1825368D01*
X811325Y1841746D01*
X825254Y1855675D01*
X841632Y1866619D01*
X859831Y1874157D01*
X866271Y1875438D01*
X879151Y1878000D01*
X898849Y1878000D01*
X911729Y1875438D01*
G37*
G36*
X1927729Y2129438D02*
G01*
X1934169Y2128157D01*
X1952368Y2120619D01*
X1968746Y2109675D01*
X1982675Y2095746D01*
X1993619Y2079368D01*
X2000464Y2062843D01*
X2001157Y2061169D01*
X2005000Y2041849D01*
X2005000Y2022151D01*
X2004577Y2020023D01*
X2001157Y2002831D01*
X1993619Y1984632D01*
X1982675Y1968254D01*
X1968746Y1954325D01*
X1952368Y1943381D01*
X1934169Y1935843D01*
X1927729Y1934562D01*
X1914849Y1932000D01*
X1895151Y1932000D01*
X1882271Y1934562D01*
X1875831Y1935843D01*
X1857632Y1943381D01*
X1841254Y1954325D01*
X1827325Y1968254D01*
X1816381Y1984632D01*
X1808843Y2002831D01*
X1805423Y2020023D01*
X1805000Y2022151D01*
X1805000Y2041849D01*
X1808843Y2061169D01*
X1809536Y2062843D01*
X1816381Y2079368D01*
X1827325Y2095746D01*
X1841254Y2109675D01*
X1857632Y2120619D01*
X1875831Y2128157D01*
X1882271Y2129438D01*
X1895151Y2132000D01*
X1914849Y2132000D01*
X1927729Y2129438D01*
G37*
G36*
X403729Y2256438D02*
G01*
X410169Y2255157D01*
X428368Y2247619D01*
X444746Y2236675D01*
X458675Y2222746D01*
X469619Y2206368D01*
X477157Y2188169D01*
X481000Y2168849D01*
X481000Y2149151D01*
X477157Y2129831D01*
X469619Y2111632D01*
X458675Y2095254D01*
X444746Y2081325D01*
X428368Y2070381D01*
X410169Y2062843D01*
X403729Y2061562D01*
X390849Y2059000D01*
X371151Y2059000D01*
X358271Y2061562D01*
X351831Y2062843D01*
X333632Y2070381D01*
X317254Y2081325D01*
X303325Y2095254D01*
X292381Y2111632D01*
X284843Y2129831D01*
X281000Y2149151D01*
X281000Y2168849D01*
X284843Y2188169D01*
X292381Y2206368D01*
X303325Y2222746D01*
X317254Y2236675D01*
X333632Y2247619D01*
X351831Y2255157D01*
X358271Y2256438D01*
X371151Y2259000D01*
X390849Y2259000D01*
X403729Y2256438D01*
G37*
G36*
X2025000Y2341500D02*
G01*
X1785000Y2341500D01*
X1785000Y2611500D01*
X2025000Y2611500D01*
X2025000Y2341500D01*
G37*
G36*
X424378Y2606312D02*
G01*
X445413Y2597599D01*
X448946Y2596135D01*
X460077Y2588698D01*
X471057Y2581361D01*
X489861Y2562557D01*
X504635Y2540446D01*
X514812Y2515878D01*
X520000Y2489797D01*
X520000Y2463204D01*
X514812Y2437122D01*
X504635Y2412554D01*
X504635Y2412554D01*
X489861Y2390443D01*
X471057Y2371639D01*
X448946Y2356865D01*
X448946Y2356865D01*
X448946Y2356865D01*
X424378Y2346688D01*
X398296Y2341500D01*
X371703Y2341500D01*
X345622Y2346688D01*
X321054Y2356865D01*
X321054Y2356865D01*
X321054Y2356865D01*
X298943Y2371639D01*
X280139Y2390443D01*
X265365Y2412554D01*
X265365Y2412554D01*
X255188Y2437122D01*
X250000Y2463204D01*
X250000Y2489797D01*
X255188Y2515878D01*
X265365Y2540446D01*
X280139Y2562557D01*
X298943Y2581361D01*
X309923Y2588698D01*
X321054Y2596135D01*
X324587Y2597599D01*
X345622Y2606312D01*
X371703Y2611500D01*
X398296Y2611500D01*
X424378Y2606312D01*
G37*
G36*
X1419729Y2637438D02*
G01*
X1426169Y2636157D01*
X1444368Y2628619D01*
X1460746Y2617675D01*
X1474675Y2603746D01*
X1485619Y2587368D01*
X1493157Y2569169D01*
X1493157Y2569169D01*
X1497000Y2549849D01*
X1497000Y2530151D01*
X1496577Y2528023D01*
X1493157Y2510831D01*
X1485619Y2492632D01*
X1474675Y2476254D01*
X1460746Y2462325D01*
X1444368Y2451381D01*
X1426169Y2443843D01*
X1419729Y2442562D01*
X1406849Y2440000D01*
X1387151Y2440000D01*
X1374271Y2442562D01*
X1367831Y2443843D01*
X1349632Y2451381D01*
X1333254Y2462325D01*
X1319325Y2476254D01*
X1308381Y2492632D01*
X1300843Y2510831D01*
X1297423Y2528023D01*
X1297000Y2530151D01*
X1297000Y2549849D01*
X1300843Y2569169D01*
X1300843Y2569169D01*
X1308381Y2587368D01*
X1319325Y2603746D01*
X1333254Y2617675D01*
X1349632Y2628619D01*
X1367831Y2636157D01*
X1374271Y2637438D01*
X1387151Y2640000D01*
X1406849Y2640000D01*
X1419729Y2637438D01*
G37*
G36*
X911729Y2637438D02*
G01*
X918169Y2636157D01*
X936368Y2628619D01*
X952746Y2617675D01*
X966675Y2603746D01*
X977619Y2587368D01*
X985157Y2569169D01*
X985157Y2569169D01*
X989000Y2549849D01*
X989000Y2530151D01*
X988577Y2528023D01*
X985157Y2510831D01*
X977619Y2492632D01*
X966675Y2476254D01*
X952746Y2462325D01*
X936368Y2451381D01*
X918169Y2443843D01*
X911729Y2442562D01*
X898849Y2440000D01*
X879151Y2440000D01*
X866271Y2442562D01*
X859831Y2443843D01*
X841632Y2451381D01*
X825254Y2462325D01*
X811325Y2476254D01*
X800381Y2492632D01*
X792843Y2510831D01*
X789423Y2528023D01*
X789000Y2530151D01*
X789000Y2549849D01*
X792843Y2569169D01*
X792843Y2569169D01*
X800381Y2587368D01*
X811325Y2603746D01*
X825254Y2617675D01*
X841632Y2628619D01*
X859831Y2636157D01*
X866271Y2637438D01*
X879151Y2640000D01*
X898849Y2640000D01*
X911729Y2637438D01*
G37*
G36*
X911729Y2891438D02*
G01*
X918169Y2890157D01*
X936368Y2882619D01*
X952746Y2871675D01*
X966675Y2857746D01*
X977619Y2841368D01*
X985157Y2823169D01*
X985157Y2823169D01*
X989000Y2803849D01*
X989000Y2784151D01*
X988577Y2782023D01*
X985157Y2764831D01*
X977619Y2746632D01*
X966675Y2730254D01*
X952746Y2716325D01*
X936368Y2705381D01*
X918169Y2697843D01*
X911729Y2696562D01*
X898849Y2694000D01*
X879151Y2694000D01*
X866271Y2696562D01*
X859831Y2697843D01*
X841632Y2705381D01*
X825254Y2716325D01*
X811325Y2730254D01*
X800381Y2746632D01*
X792843Y2764831D01*
X789423Y2782023D01*
X789000Y2784151D01*
X789000Y2803849D01*
X792843Y2823169D01*
X792843Y2823169D01*
X800381Y2841368D01*
X811325Y2857746D01*
X825254Y2871675D01*
X841632Y2882619D01*
X859831Y2890157D01*
X866271Y2891438D01*
X879151Y2894000D01*
X898849Y2894000D01*
X911729Y2891438D01*
G37*
G36*
X1927729Y2891438D02*
G01*
X1934169Y2890157D01*
X1952368Y2882619D01*
X1968746Y2871675D01*
X1982675Y2857746D01*
X1993619Y2841368D01*
X2001157Y2823169D01*
X2001157Y2823169D01*
X2005000Y2803849D01*
X2005000Y2784151D01*
X2004577Y2782023D01*
X2001157Y2764831D01*
X1993619Y2746632D01*
X1982675Y2730254D01*
X1968746Y2716325D01*
X1952368Y2705381D01*
X1934169Y2697843D01*
X1927729Y2696562D01*
X1914849Y2694000D01*
X1895151Y2694000D01*
X1882271Y2696562D01*
X1875831Y2697843D01*
X1857632Y2705381D01*
X1841254Y2716325D01*
X1827325Y2730254D01*
X1816381Y2746632D01*
X1808843Y2764831D01*
X1805423Y2782023D01*
X1805000Y2784151D01*
X1805000Y2803849D01*
X1808843Y2823169D01*
X1808843Y2823169D01*
X1816381Y2841368D01*
X1827325Y2857746D01*
X1841254Y2871675D01*
X1857632Y2882619D01*
X1875831Y2890157D01*
X1882271Y2891438D01*
X1895151Y2894000D01*
X1914849Y2894000D01*
X1927729Y2891438D01*
G37*
G36*
X1419729Y3145438D02*
G01*
X1426169Y3144157D01*
X1444368Y3136619D01*
X1460746Y3125675D01*
X1474675Y3111746D01*
X1485619Y3095368D01*
X1493157Y3077169D01*
X1493157Y3077169D01*
X1497000Y3057849D01*
X1497000Y3038151D01*
X1496577Y3036023D01*
X1493157Y3018831D01*
X1485619Y3000632D01*
X1474675Y2984254D01*
X1460746Y2970325D01*
X1444368Y2959381D01*
X1426169Y2951843D01*
X1419729Y2950562D01*
X1406849Y2948000D01*
X1387151Y2948000D01*
X1374271Y2950562D01*
X1367831Y2951843D01*
X1349632Y2959381D01*
X1333254Y2970325D01*
X1319325Y2984254D01*
X1308381Y3000632D01*
X1300843Y3018831D01*
X1297423Y3036023D01*
X1297000Y3038151D01*
X1297000Y3057849D01*
X1300843Y3077169D01*
X1300843Y3077169D01*
X1308381Y3095368D01*
X1319325Y3111746D01*
X1333254Y3125675D01*
X1349632Y3136619D01*
X1367831Y3144157D01*
X1374271Y3145438D01*
X1387151Y3148000D01*
X1406849Y3148000D01*
X1419729Y3145438D01*
G37*
G36*
X403729Y3145438D02*
G01*
X410169Y3144157D01*
X428368Y3136619D01*
X444746Y3125675D01*
X458675Y3111746D01*
X469619Y3095368D01*
X477157Y3077169D01*
X477157Y3077169D01*
X481000Y3057849D01*
X481000Y3038151D01*
X480577Y3036023D01*
X477157Y3018831D01*
X469619Y3000632D01*
X458675Y2984254D01*
X444746Y2970325D01*
X428368Y2959381D01*
X410169Y2951843D01*
X403729Y2950562D01*
X390849Y2948000D01*
X371151Y2948000D01*
X358271Y2950562D01*
X351831Y2951843D01*
X333632Y2959381D01*
X317254Y2970325D01*
X303325Y2984254D01*
X292381Y3000632D01*
X284843Y3018831D01*
X281423Y3036023D01*
X281000Y3038151D01*
X281000Y3057849D01*
X284843Y3077169D01*
X284843Y3077169D01*
X292381Y3095368D01*
X303325Y3111746D01*
X317254Y3125675D01*
X333632Y3136619D01*
X351831Y3144157D01*
X358271Y3145438D01*
X371151Y3148000D01*
X390849Y3148000D01*
X403729Y3145438D01*
G37*
G36*
X1165593Y3610832D02*
G01*
X1187318Y3604242D01*
X1187318Y3604242D01*
X1205284Y3594639D01*
X1207339Y3593540D01*
X1209863Y3591469D01*
X1224888Y3579138D01*
X1234048Y3567977D01*
X1239291Y3561589D01*
X1239291Y3561589D01*
X1249992Y3541568D01*
X1249992Y3541567D01*
X1256582Y3519843D01*
X1256582Y3519843D01*
X1256810Y3517528D01*
X1257289Y3515124D01*
X1258226Y3512861D01*
X1259588Y3510823D01*
X1261320Y3509090D01*
X1263358Y3507729D01*
X1265622Y3506791D01*
X1268025Y3506313D01*
X1270475Y3506313D01*
X1272879Y3506791D01*
X1275143Y3507729D01*
X1277180Y3509090D01*
X1278913Y3510823D01*
X1280274Y3512861D01*
X1281212Y3515124D01*
X1281750Y3518753D01*
X1281750Y3612500D01*
X1512250Y3612500D01*
X1512250Y3372500D01*
X1281750Y3372500D01*
X1281750Y3466247D01*
X1281510Y3468685D01*
X1280799Y3471030D01*
X1279643Y3473191D01*
X1278089Y3475086D01*
X1276195Y3476640D01*
X1274034Y3477795D01*
X1271689Y3478507D01*
X1269250Y3478747D01*
X1266812Y3478507D01*
X1264467Y3477795D01*
X1262306Y3476640D01*
X1260411Y3475086D01*
X1258857Y3473191D01*
X1257702Y3471030D01*
X1256810Y3467472D01*
X1256582Y3465157D01*
X1249992Y3443432D01*
X1243582Y3431439D01*
X1239291Y3423411D01*
X1236624Y3420161D01*
X1224888Y3405862D01*
X1213424Y3396453D01*
X1207339Y3391459D01*
X1207339Y3391459D01*
X1187318Y3380758D01*
X1187318Y3380758D01*
X1165593Y3374168D01*
X1143000Y3371942D01*
X1120407Y3374168D01*
X1098682Y3380758D01*
X1098682Y3380758D01*
X1078661Y3391459D01*
X1078661Y3391459D01*
X1074089Y3395211D01*
X1061112Y3405862D01*
X1046710Y3423411D01*
X1046709Y3423411D01*
X1043722Y3429000D01*
X1036008Y3443432D01*
X1036008Y3443432D01*
X1029418Y3465157D01*
X1028440Y3475086D01*
X1027962Y3477489D01*
X1027024Y3479753D01*
X1025662Y3481791D01*
X1023930Y3483523D01*
X1021892Y3484885D01*
X1019628Y3485822D01*
X1017225Y3486300D01*
X1014775Y3486300D01*
X1012371Y3485822D01*
X1010108Y3484885D01*
X1008070Y3483523D01*
X1006337Y3481790D01*
X1004976Y3479753D01*
X1004038Y3477489D01*
X1003560Y3475086D01*
X1002582Y3465157D01*
X995992Y3443432D01*
X989581Y3431439D01*
X985290Y3423411D01*
X982624Y3420161D01*
X970888Y3405862D01*
X959424Y3396453D01*
X953339Y3391459D01*
X953339Y3391459D01*
X933318Y3380758D01*
X933317Y3380758D01*
X911593Y3374168D01*
X889000Y3371942D01*
X866407Y3374168D01*
X844682Y3380758D01*
X844682Y3380758D01*
X824661Y3391459D01*
X824661Y3391459D01*
X820089Y3395211D01*
X807112Y3405862D01*
X792710Y3423411D01*
X792709Y3423411D01*
X789722Y3429000D01*
X782008Y3443432D01*
X782008Y3443432D01*
X775418Y3465157D01*
X774203Y3477489D01*
X773750Y3482088D01*
X773750Y3502912D01*
X775418Y3519843D01*
X775626Y3520531D01*
X782008Y3541568D01*
X782008Y3541568D01*
X782008Y3541568D01*
X792709Y3561589D01*
X792709Y3561589D01*
X807112Y3579138D01*
X824661Y3593540D01*
X826716Y3594639D01*
X844682Y3604242D01*
X844682Y3604242D01*
X866407Y3610832D01*
X889000Y3613058D01*
X911593Y3610832D01*
X933318Y3604242D01*
X933318Y3604242D01*
X951284Y3594639D01*
X953339Y3593540D01*
X955863Y3591469D01*
X970888Y3579138D01*
X980048Y3567977D01*
X985290Y3561589D01*
X985291Y3561589D01*
X995992Y3541568D01*
X995992Y3541567D01*
X1002582Y3519843D01*
X1002582Y3519843D01*
X1003560Y3509914D01*
X1004038Y3507511D01*
X1004976Y3505247D01*
X1006337Y3503209D01*
X1008070Y3501477D01*
X1010108Y3500115D01*
X1012371Y3499178D01*
X1014775Y3498700D01*
X1017225Y3498700D01*
X1019629Y3499178D01*
X1021892Y3500115D01*
X1023930Y3501477D01*
X1025663Y3503209D01*
X1027024Y3505247D01*
X1027962Y3507511D01*
X1028440Y3509914D01*
X1029418Y3519843D01*
X1029626Y3520531D01*
X1036008Y3541568D01*
X1036008Y3541568D01*
X1036008Y3541568D01*
X1046709Y3561589D01*
X1046709Y3561589D01*
X1061112Y3579138D01*
X1078661Y3593540D01*
X1080716Y3594639D01*
X1098682Y3604242D01*
X1098683Y3604242D01*
X1120407Y3610832D01*
X1143000Y3613058D01*
X1165593Y3610832D01*
G37*
G36*
X531000Y3977500D02*
G01*
X231000Y3977500D01*
X231000Y4277500D01*
X531000Y4277500D01*
X531000Y3977500D01*
G37*
G36*
X932753Y4271736D02*
G01*
X960051Y4260428D01*
X960052Y4260428D01*
X972419Y4252165D01*
X984619Y4244013D01*
X1005513Y4223119D01*
X1021928Y4198552D01*
X1033236Y4171253D01*
X1039000Y4142274D01*
X1039000Y4112726D01*
X1033236Y4083747D01*
X1021928Y4056448D01*
X1021928Y4056448D01*
X1005513Y4031881D01*
X984619Y4010987D01*
X960052Y3994572D01*
X960052Y3994572D01*
X960051Y3994572D01*
X932753Y3983264D01*
X903774Y3977500D01*
X874226Y3977500D01*
X845247Y3983264D01*
X817948Y3994572D01*
X817948Y3994572D01*
X817948Y3994572D01*
X793381Y4010987D01*
X772487Y4031881D01*
X756072Y4056448D01*
X756072Y4056448D01*
X744764Y4083747D01*
X739000Y4112726D01*
X739000Y4142274D01*
X744764Y4171253D01*
X756072Y4198552D01*
X772487Y4223119D01*
X793381Y4244013D01*
X805581Y4252165D01*
X817948Y4260428D01*
X817948Y4260428D01*
X845247Y4271736D01*
X874226Y4277500D01*
X903774Y4277500D01*
X932753Y4271736D01*
G37*
G36*
X1440753Y4271736D02*
G01*
X1468051Y4260428D01*
X1468052Y4260428D01*
X1480419Y4252165D01*
X1492619Y4244013D01*
X1513513Y4223119D01*
X1529928Y4198552D01*
X1541236Y4171253D01*
X1547000Y4142274D01*
X1547000Y4112726D01*
X1541236Y4083747D01*
X1529928Y4056448D01*
X1529928Y4056448D01*
X1513513Y4031881D01*
X1492619Y4010987D01*
X1468052Y3994572D01*
X1468052Y3994572D01*
X1468051Y3994572D01*
X1440753Y3983264D01*
X1411774Y3977500D01*
X1382226Y3977500D01*
X1353247Y3983264D01*
X1325949Y3994572D01*
X1325948Y3994572D01*
X1325948Y3994572D01*
X1301381Y4010987D01*
X1280487Y4031881D01*
X1264072Y4056448D01*
X1264072Y4056448D01*
X1252764Y4083747D01*
X1247000Y4112726D01*
X1247000Y4142274D01*
X1252764Y4171253D01*
X1264072Y4198552D01*
X1280487Y4223119D01*
X1301381Y4244013D01*
X1313581Y4252165D01*
X1325948Y4260428D01*
X1325949Y4260428D01*
X1353247Y4271736D01*
X1382226Y4277500D01*
X1411774Y4277500D01*
X1440753Y4271736D01*
G37*
G36*
X1948753Y4271736D02*
G01*
X1976051Y4260428D01*
X1976052Y4260428D01*
X1988419Y4252165D01*
X2000619Y4244013D01*
X2021513Y4223119D01*
X2037928Y4198552D01*
X2049236Y4171253D01*
X2055000Y4142274D01*
X2055000Y4112726D01*
X2049236Y4083747D01*
X2037928Y4056448D01*
X2037928Y4056448D01*
X2021513Y4031881D01*
X2000619Y4010987D01*
X1976052Y3994572D01*
X1976052Y3994572D01*
X1976051Y3994572D01*
X1948753Y3983264D01*
X1919774Y3977500D01*
X1890226Y3977500D01*
X1861247Y3983264D01*
X1833948Y3994572D01*
X1833948Y3994572D01*
X1833948Y3994572D01*
X1809381Y4010987D01*
X1788487Y4031881D01*
X1772072Y4056448D01*
X1772072Y4056448D01*
X1760764Y4083747D01*
X1755000Y4112726D01*
X1755000Y4142274D01*
X1760764Y4171253D01*
X1772072Y4198552D01*
X1788487Y4223119D01*
X1809381Y4244013D01*
X1821581Y4252165D01*
X1833948Y4260428D01*
X1833948Y4260428D01*
X1861247Y4271736D01*
X1890226Y4277500D01*
X1919774Y4277500D01*
X1948753Y4271736D01*
G37*
M02*
