%TF.GenerationSoftware,KiCad,Pcbnew,5.1.5+dfsg1-2~bpo10+1*%
%TF.CreationDate,2020-10-04T09:49:28+00:00*%
%TF.ProjectId,PWR,5057522e-6b69-4636-9164-5f7063625858,rev?*%
%TF.SameCoordinates,Original*%
%TF.FileFunction,Copper,L1,Top*%
%TF.FilePolarity,Positive*%
%FSLAX45Y45*%
G04 Gerber Fmt 4.5, Leading zero omitted, Abs format (unit mm)*
G04 Created by KiCad (PCBNEW 5.1.5+dfsg1-2~bpo10+1) date 2020-10-04 09:49:28*
%MOMM*%
%LPD*%
G04 APERTURE LIST*
%ADD10C,0.120000*%
%ADD11O,1.600000X1.600000*%
%ADD12R,1.600000X1.600000*%
%ADD13R,1.700000X1.700000*%
%ADD14C,1.700000*%
%ADD15C,2.032000*%
%ADD16R,2.032000X2.032000*%
%ADD17O,1.700000X1.700000*%
%ADD18C,2.300000*%
%ADD19R,2.000000X2.300000*%
%ADD20C,1.600000*%
%ADD21O,1.905000X2.000000*%
%ADD22R,1.905000X2.000000*%
%ADD23C,2.600000*%
%ADD24R,2.600000X2.600000*%
%ADD25C,1.000000*%
%ADD26C,0.250000*%
%ADD27C,0.350000*%
G04 APERTURE END LIST*
D10*
X2476500Y-508000D02*
G75*
G02X2349500Y-635000I-127000J0D01*
G01*
X-190500Y4572000D02*
G75*
G02X-63500Y4699000I127000J0D01*
G01*
X-63500Y-635000D02*
G75*
G02X-190500Y-508000I0J127000D01*
G01*
X2349500Y4699000D02*
G75*
G02X2476500Y4572000I0J-127000D01*
G01*
X-190500Y4572000D02*
X-190500Y-508000D01*
X2349500Y4699000D02*
X-63500Y4699000D01*
X2476500Y-508000D02*
X2476500Y4572000D01*
X-63500Y-635000D02*
X2349500Y-635000D01*
D11*
X1397000Y0D03*
X1905000Y762000D03*
X1651000Y0D03*
X1651000Y762000D03*
X1905000Y0D03*
D12*
X1397000Y762000D03*
D13*
X2286000Y-317500D03*
D14*
X889000Y-317500D03*
D15*
X2286000Y254000D03*
X2286000Y762000D03*
X2286000Y508000D03*
X2286000Y2540000D03*
X2286000Y2286000D03*
X2286000Y1778000D03*
X2286000Y2032000D03*
X2286000Y3556000D03*
X2286000Y1524000D03*
X2286000Y1016000D03*
X2286000Y1270000D03*
X2286000Y2794000D03*
X2286000Y3302000D03*
X2286000Y3048000D03*
X2286000Y0D03*
X0Y3556000D03*
X0Y3302000D03*
X0Y3048000D03*
X0Y2794000D03*
X0Y2540000D03*
X0Y2286000D03*
X0Y2032000D03*
X0Y1778000D03*
X0Y1524000D03*
X0Y1270000D03*
X0Y1016000D03*
X0Y762000D03*
X0Y508000D03*
X0Y254000D03*
D16*
X0Y0D03*
D17*
X381000Y-317500D03*
D13*
X635000Y-317500D03*
D18*
X1145000Y-323500D03*
X385000Y2476500D03*
D19*
X1905000Y2476500D03*
D18*
X1905000Y-323500D03*
D11*
X1905000Y2032000D03*
D20*
X1905000Y1016000D03*
X635000Y1397000D03*
D11*
X1651000Y1397000D03*
X889000Y2794000D03*
D20*
X1905000Y2794000D03*
D11*
X381000Y1143000D03*
D20*
X381000Y2159000D03*
D11*
X1397000Y3048000D03*
D20*
X381000Y3048000D03*
D12*
X1397000Y1778000D03*
D11*
X889000Y2540000D03*
X889000Y1778000D03*
X1397000Y2540000D03*
X889000Y762000D03*
X381000Y0D03*
X635000Y762000D03*
X635000Y0D03*
X381000Y762000D03*
D12*
X889000Y0D03*
D21*
X889000Y3492500D03*
X1143000Y3492500D03*
D22*
X1397000Y3492500D03*
D23*
X1905000Y4127500D03*
X1397000Y4127500D03*
X889000Y4127500D03*
D24*
X381000Y4127500D03*
D25*
X1397000Y762000D02*
X1397000Y1778000D01*
X889000Y-317500D02*
X1016000Y-317500D01*
X1016000Y-317500D02*
X1143000Y-317500D01*
X1905000Y2032000D02*
X1143000Y2032000D01*
X1143000Y2032000D02*
X1143000Y2921000D01*
X1143000Y2921000D02*
X508000Y3556000D01*
X508000Y3556000D02*
X0Y3556000D01*
X1145000Y-188500D02*
X1145000Y-323500D01*
X1143000Y1016000D02*
X1143000Y-186500D01*
X1143000Y-186500D02*
X1145000Y-188500D01*
X1143000Y1016000D02*
X1143000Y2032000D01*
D26*
G36*
X2158535Y3660608D02*
G01*
X2140577Y3633730D01*
X2128206Y3603866D01*
X2121900Y3572162D01*
X2121900Y3539838D01*
X2128206Y3508134D01*
X2140577Y3478269D01*
X2158535Y3451392D01*
X2181392Y3428535D01*
X2191745Y3421618D01*
X2189660Y3416017D01*
X2286000Y3319678D01*
X2382340Y3416017D01*
X2380255Y3421618D01*
X2390608Y3428535D01*
X2413465Y3451392D01*
X2431424Y3478269D01*
X2433000Y3482076D01*
X2433000Y3376118D01*
X2426366Y3388531D01*
X2400017Y3398340D01*
X2303678Y3302000D01*
X2400017Y3205660D01*
X2426366Y3215469D01*
X2433000Y3229056D01*
X2433000Y3121924D01*
X2431424Y3125730D01*
X2413465Y3152608D01*
X2390608Y3175465D01*
X2380255Y3182382D01*
X2382340Y3187983D01*
X2286000Y3284322D01*
X2189660Y3187983D01*
X2191745Y3182382D01*
X2181392Y3175465D01*
X2158535Y3152608D01*
X2140577Y3125730D01*
X2128206Y3095866D01*
X2121900Y3064162D01*
X2121900Y3031838D01*
X2128206Y3000134D01*
X2140577Y2970269D01*
X2158535Y2943392D01*
X2180928Y2921000D01*
X2158535Y2898608D01*
X2140577Y2871730D01*
X2128206Y2841866D01*
X2121900Y2810162D01*
X2121900Y2777838D01*
X2128206Y2746134D01*
X2140577Y2716270D01*
X2158535Y2689392D01*
X2180928Y2667000D01*
X2158535Y2644608D01*
X2140577Y2617731D01*
X2128206Y2587866D01*
X2121900Y2556162D01*
X2121900Y2523838D01*
X2128206Y2492134D01*
X2140577Y2462270D01*
X2158535Y2435392D01*
X2180928Y2413000D01*
X2158535Y2390608D01*
X2140577Y2363731D01*
X2128206Y2333866D01*
X2121900Y2302162D01*
X2121900Y2269838D01*
X2128206Y2238134D01*
X2140577Y2208270D01*
X2158535Y2181392D01*
X2180928Y2159000D01*
X2158535Y2136608D01*
X2140577Y2109731D01*
X2128206Y2079866D01*
X2121900Y2048162D01*
X2121900Y2015838D01*
X2128206Y1984134D01*
X2140577Y1954269D01*
X2158535Y1927392D01*
X2180928Y1905000D01*
X2158535Y1882608D01*
X2140577Y1855730D01*
X2128206Y1825866D01*
X2121900Y1794162D01*
X2121900Y1761838D01*
X2128206Y1730134D01*
X2140577Y1700269D01*
X2158535Y1673392D01*
X2181392Y1650535D01*
X2191745Y1643618D01*
X2189660Y1638017D01*
X2286000Y1541678D01*
X2382340Y1638017D01*
X2380255Y1643618D01*
X2390608Y1650535D01*
X2413465Y1673392D01*
X2431424Y1700269D01*
X2433000Y1704075D01*
X2433000Y1598118D01*
X2426366Y1610531D01*
X2400017Y1620340D01*
X2303678Y1524000D01*
X2400017Y1427660D01*
X2426366Y1437469D01*
X2433000Y1451056D01*
X2433000Y1343925D01*
X2431424Y1347731D01*
X2413465Y1374608D01*
X2390608Y1397465D01*
X2380255Y1404382D01*
X2382340Y1409983D01*
X2286000Y1506322D01*
X2189660Y1409983D01*
X2191745Y1404382D01*
X2181392Y1397465D01*
X2158535Y1374608D01*
X2140577Y1347731D01*
X2128206Y1317866D01*
X2121900Y1286162D01*
X2121900Y1253838D01*
X2128206Y1222134D01*
X2140577Y1192270D01*
X2158535Y1165392D01*
X2180928Y1143000D01*
X2158535Y1120608D01*
X2140577Y1093731D01*
X2128206Y1063866D01*
X2121900Y1032162D01*
X2121900Y999838D01*
X2128206Y968134D01*
X2140577Y938269D01*
X2158535Y911392D01*
X2180928Y889000D01*
X2158535Y866608D01*
X2140577Y839730D01*
X2128206Y809866D01*
X2121900Y778162D01*
X2121900Y745838D01*
X2128206Y714134D01*
X2140577Y684270D01*
X2158535Y657392D01*
X2180928Y635000D01*
X2158535Y612608D01*
X2140577Y585731D01*
X2128206Y555866D01*
X2121900Y524162D01*
X2121900Y491838D01*
X2128206Y460134D01*
X2140577Y430269D01*
X2158535Y403392D01*
X2180928Y381000D01*
X2158535Y358608D01*
X2140577Y331731D01*
X2128206Y301866D01*
X2121900Y270162D01*
X2121900Y237838D01*
X2128206Y206134D01*
X2140577Y176269D01*
X2158535Y149392D01*
X2180928Y127000D01*
X2158535Y104608D01*
X2140577Y77731D01*
X2128206Y47866D01*
X2121900Y16162D01*
X2121900Y-16162D01*
X2128206Y-47866D01*
X2140577Y-77731D01*
X2158535Y-104608D01*
X2181392Y-127465D01*
X2208270Y-145424D01*
X2238134Y-157794D01*
X2269838Y-164100D01*
X2302162Y-164100D01*
X2333866Y-157794D01*
X2363731Y-145424D01*
X2390608Y-127465D01*
X2413465Y-104608D01*
X2431424Y-77731D01*
X2433000Y-73925D01*
X2433000Y-224353D01*
X2432596Y-220248D01*
X2429022Y-208467D01*
X2423218Y-197609D01*
X2415408Y-188092D01*
X2405891Y-180282D01*
X2395033Y-174478D01*
X2383252Y-170904D01*
X2371000Y-169698D01*
X2201000Y-169698D01*
X2188748Y-170904D01*
X2176967Y-174478D01*
X2166109Y-180282D01*
X2156592Y-188092D01*
X2148782Y-197609D01*
X2142978Y-208467D01*
X2139404Y-220248D01*
X2138198Y-232500D01*
X2138198Y-402500D01*
X2139404Y-414752D01*
X2142978Y-426533D01*
X2148782Y-437391D01*
X2156592Y-446908D01*
X2166109Y-454718D01*
X2176967Y-460522D01*
X2188748Y-464096D01*
X2201000Y-465302D01*
X2371000Y-465302D01*
X2383252Y-464096D01*
X2395033Y-460522D01*
X2405891Y-454718D01*
X2415408Y-446908D01*
X2423218Y-437391D01*
X2429022Y-426533D01*
X2432596Y-414752D01*
X2433000Y-410647D01*
X2433000Y-505872D01*
X2431205Y-524178D01*
X2426507Y-539740D01*
X2418875Y-554093D01*
X2408601Y-566690D01*
X2396076Y-577052D01*
X2381777Y-584783D01*
X2366248Y-589590D01*
X2348078Y-591500D01*
X-61372Y-591500D01*
X-79678Y-589705D01*
X-95240Y-585007D01*
X-109593Y-577375D01*
X-122190Y-567101D01*
X-132552Y-554576D01*
X-140283Y-540277D01*
X-145090Y-524748D01*
X-147000Y-506577D01*
X-147000Y-302973D01*
X233500Y-302973D01*
X233500Y-332028D01*
X239168Y-360524D01*
X250287Y-387367D01*
X266429Y-411526D01*
X286974Y-432071D01*
X311133Y-448213D01*
X337976Y-459332D01*
X366472Y-465000D01*
X395527Y-465000D01*
X424024Y-459332D01*
X450867Y-448213D01*
X475026Y-432071D01*
X489321Y-417775D01*
X491978Y-426533D01*
X497782Y-437391D01*
X505592Y-446908D01*
X515109Y-454718D01*
X525967Y-460522D01*
X537748Y-464096D01*
X550000Y-465302D01*
X606875Y-465000D01*
X622500Y-449375D01*
X622500Y-330000D01*
X620500Y-330000D01*
X620500Y-305000D01*
X622500Y-305000D01*
X622500Y-185625D01*
X606875Y-170000D01*
X550000Y-169698D01*
X537748Y-170904D01*
X525967Y-174478D01*
X515109Y-180282D01*
X505592Y-188092D01*
X497782Y-197609D01*
X491978Y-208467D01*
X489321Y-217225D01*
X475026Y-202929D01*
X450867Y-186787D01*
X424024Y-175668D01*
X395527Y-170000D01*
X366472Y-170000D01*
X337976Y-175668D01*
X311133Y-186787D01*
X286974Y-202929D01*
X266429Y-223474D01*
X250287Y-247632D01*
X239168Y-274476D01*
X233500Y-302973D01*
X-147000Y-302973D01*
X-147000Y-144799D01*
X-146008Y-146008D01*
X-136491Y-153818D01*
X-125633Y-159622D01*
X-113852Y-163196D01*
X-101600Y-164402D01*
X101600Y-164402D01*
X113852Y-163196D01*
X125633Y-159622D01*
X136491Y-153818D01*
X146008Y-146008D01*
X153818Y-136491D01*
X159622Y-125633D01*
X163196Y-113852D01*
X164402Y-101600D01*
X164402Y14035D01*
X238500Y14035D01*
X238500Y-14035D01*
X243976Y-41566D01*
X254718Y-67499D01*
X270313Y-90838D01*
X290162Y-110687D01*
X313501Y-126282D01*
X339434Y-137024D01*
X366965Y-142500D01*
X395035Y-142500D01*
X422566Y-137024D01*
X448499Y-126282D01*
X471838Y-110687D01*
X491687Y-90838D01*
X507282Y-67499D01*
X508444Y-64693D01*
X520498Y-84827D01*
X539247Y-105536D01*
X561676Y-122188D01*
X586923Y-134145D01*
X600448Y-138248D01*
X622500Y-126258D01*
X622500Y-12500D01*
X620500Y-12500D01*
X620500Y12500D01*
X622500Y12500D01*
X622500Y126258D01*
X600448Y138248D01*
X586923Y134145D01*
X561676Y122188D01*
X539247Y105536D01*
X520498Y84827D01*
X508444Y64693D01*
X507282Y67499D01*
X491687Y90838D01*
X471838Y110687D01*
X448499Y126282D01*
X422566Y137024D01*
X395035Y142500D01*
X366965Y142500D01*
X339434Y137024D01*
X313501Y126282D01*
X290162Y110687D01*
X270313Y90838D01*
X254718Y67499D01*
X243976Y41566D01*
X238500Y14035D01*
X164402Y14035D01*
X164402Y101600D01*
X163196Y113852D01*
X159622Y125633D01*
X153818Y136491D01*
X146008Y146008D01*
X136491Y153818D01*
X132019Y156209D01*
X145424Y176269D01*
X157794Y206134D01*
X164100Y237838D01*
X164100Y270162D01*
X157794Y301866D01*
X145424Y331731D01*
X127465Y358608D01*
X105072Y381000D01*
X127465Y403392D01*
X145424Y430269D01*
X157794Y460134D01*
X164100Y491838D01*
X164100Y524162D01*
X157794Y555866D01*
X145424Y585731D01*
X127465Y612608D01*
X105072Y635000D01*
X127465Y657392D01*
X145424Y684270D01*
X157794Y714134D01*
X164100Y745838D01*
X164100Y778162D01*
X157794Y809866D01*
X145424Y839730D01*
X127465Y866608D01*
X105072Y889000D01*
X127465Y911392D01*
X145424Y938269D01*
X157794Y968134D01*
X164100Y999838D01*
X164100Y1032162D01*
X157794Y1063866D01*
X145424Y1093731D01*
X127465Y1120608D01*
X105072Y1143000D01*
X119107Y1157035D01*
X238500Y1157035D01*
X238500Y1128965D01*
X243976Y1101434D01*
X254718Y1075501D01*
X270313Y1052162D01*
X290162Y1032313D01*
X313501Y1016718D01*
X339434Y1005976D01*
X366965Y1000500D01*
X395035Y1000500D01*
X422566Y1005976D01*
X448499Y1016718D01*
X471838Y1032313D01*
X491687Y1052162D01*
X507282Y1075501D01*
X518024Y1101434D01*
X523500Y1128965D01*
X523500Y1157035D01*
X518024Y1184566D01*
X507282Y1210499D01*
X491687Y1233839D01*
X471838Y1253687D01*
X448499Y1269282D01*
X422566Y1280024D01*
X395035Y1285500D01*
X366965Y1285500D01*
X339434Y1280024D01*
X313501Y1269282D01*
X290162Y1253687D01*
X270313Y1233839D01*
X254718Y1210499D01*
X243976Y1184566D01*
X238500Y1157035D01*
X119107Y1157035D01*
X127465Y1165392D01*
X145424Y1192270D01*
X157794Y1222134D01*
X164100Y1253838D01*
X164100Y1286162D01*
X157794Y1317866D01*
X145424Y1347731D01*
X127465Y1374608D01*
X105072Y1397000D01*
X119107Y1411035D01*
X492500Y1411035D01*
X492500Y1382965D01*
X497976Y1355434D01*
X508718Y1329501D01*
X524313Y1306162D01*
X544162Y1286313D01*
X567501Y1270718D01*
X593434Y1259976D01*
X620965Y1254500D01*
X649035Y1254500D01*
X676566Y1259976D01*
X702499Y1270718D01*
X725838Y1286313D01*
X745687Y1306162D01*
X761282Y1329501D01*
X772024Y1355434D01*
X777500Y1382965D01*
X777500Y1411035D01*
X772024Y1438566D01*
X761282Y1464499D01*
X745687Y1487838D01*
X725838Y1507687D01*
X702499Y1523282D01*
X676566Y1534024D01*
X649035Y1539500D01*
X620965Y1539500D01*
X593434Y1534024D01*
X567501Y1523282D01*
X544162Y1507687D01*
X524313Y1487838D01*
X508718Y1464499D01*
X497976Y1438566D01*
X492500Y1411035D01*
X119107Y1411035D01*
X127465Y1419392D01*
X145424Y1446269D01*
X157794Y1476134D01*
X164100Y1507838D01*
X164100Y1540162D01*
X157794Y1571866D01*
X145424Y1601730D01*
X127465Y1628608D01*
X105072Y1651000D01*
X127465Y1673392D01*
X145424Y1700269D01*
X157794Y1730134D01*
X164100Y1761838D01*
X164100Y1794162D01*
X157794Y1825866D01*
X145424Y1855730D01*
X127465Y1882608D01*
X105072Y1905000D01*
X127465Y1927392D01*
X145424Y1954269D01*
X157794Y1984134D01*
X164100Y2015838D01*
X164100Y2048162D01*
X157794Y2079866D01*
X145424Y2109731D01*
X127465Y2136608D01*
X104608Y2159465D01*
X94255Y2166382D01*
X96340Y2171983D01*
X0Y2268322D01*
X-96340Y2171983D01*
X-94255Y2166382D01*
X-104608Y2159465D01*
X-127465Y2136608D01*
X-145424Y2109731D01*
X-147000Y2105925D01*
X-147000Y2211882D01*
X-140366Y2199469D01*
X-114017Y2189660D01*
X-17678Y2286000D01*
X17678Y2286000D01*
X114017Y2189660D01*
X140366Y2199469D01*
X154550Y2228516D01*
X162795Y2259772D01*
X164784Y2292035D01*
X160440Y2324067D01*
X149931Y2354636D01*
X140366Y2372531D01*
X114017Y2382340D01*
X17678Y2286000D01*
X-17678Y2286000D01*
X-114017Y2382340D01*
X-140366Y2372531D01*
X-147000Y2358944D01*
X-147000Y2466076D01*
X-145424Y2462270D01*
X-127465Y2435392D01*
X-104608Y2412535D01*
X-94255Y2405618D01*
X-96340Y2400017D01*
X0Y2303678D01*
X96340Y2400017D01*
X94255Y2405618D01*
X104608Y2412535D01*
X127465Y2435392D01*
X145424Y2462270D01*
X157500Y2491425D01*
X157500Y2454093D01*
X166243Y2410141D01*
X183392Y2368738D01*
X208289Y2331477D01*
X239977Y2299789D01*
X245717Y2295954D01*
X231475Y2281712D01*
X210409Y2250183D01*
X195898Y2215150D01*
X188500Y2177960D01*
X188500Y2140040D01*
X195898Y2102850D01*
X210409Y2067817D01*
X231475Y2036288D01*
X258288Y2009475D01*
X289817Y1988409D01*
X324850Y1973898D01*
X362040Y1966500D01*
X399960Y1966500D01*
X437150Y1973898D01*
X472183Y1988409D01*
X503712Y2009475D01*
X530525Y2036288D01*
X551591Y2067817D01*
X566102Y2102850D01*
X573500Y2140040D01*
X573500Y2177960D01*
X566102Y2215150D01*
X551591Y2250183D01*
X530525Y2281712D01*
X519487Y2292749D01*
X530023Y2299789D01*
X561711Y2331477D01*
X586608Y2368738D01*
X603757Y2410141D01*
X612500Y2454093D01*
X612500Y2498907D01*
X603757Y2542859D01*
X586608Y2584262D01*
X561711Y2621523D01*
X530023Y2653211D01*
X492762Y2678108D01*
X451359Y2695257D01*
X407407Y2704000D01*
X362593Y2704000D01*
X318641Y2695257D01*
X277238Y2678108D01*
X239977Y2653211D01*
X208289Y2621523D01*
X183392Y2584262D01*
X166243Y2542859D01*
X164100Y2532087D01*
X164100Y2556162D01*
X157794Y2587866D01*
X145424Y2617731D01*
X127465Y2644608D01*
X105072Y2667000D01*
X127465Y2689392D01*
X145424Y2716270D01*
X157794Y2746134D01*
X164100Y2777838D01*
X164100Y2810162D01*
X157794Y2841866D01*
X145424Y2871730D01*
X127465Y2898608D01*
X105072Y2921000D01*
X127465Y2943392D01*
X145424Y2970269D01*
X157794Y3000134D01*
X164100Y3031838D01*
X164100Y3064162D01*
X163544Y3066960D01*
X188500Y3066960D01*
X188500Y3029040D01*
X195898Y2991850D01*
X210409Y2956817D01*
X231475Y2925288D01*
X258288Y2898475D01*
X289817Y2877409D01*
X324850Y2862898D01*
X362040Y2855500D01*
X399960Y2855500D01*
X437150Y2862898D01*
X472183Y2877409D01*
X503712Y2898475D01*
X530525Y2925288D01*
X551591Y2956817D01*
X566102Y2991850D01*
X573500Y3029040D01*
X573500Y3066960D01*
X566102Y3104150D01*
X551591Y3139183D01*
X530525Y3170712D01*
X503712Y3197524D01*
X472183Y3218591D01*
X437150Y3233102D01*
X399960Y3240500D01*
X362040Y3240500D01*
X324850Y3233102D01*
X289817Y3218591D01*
X258288Y3197524D01*
X231475Y3170712D01*
X210409Y3139183D01*
X195898Y3104150D01*
X188500Y3066960D01*
X163544Y3066960D01*
X157794Y3095866D01*
X145424Y3125730D01*
X127465Y3152608D01*
X104608Y3175465D01*
X94255Y3182382D01*
X96340Y3187983D01*
X0Y3284322D01*
X-96340Y3187983D01*
X-94255Y3182382D01*
X-104608Y3175465D01*
X-127465Y3152608D01*
X-145424Y3125730D01*
X-147000Y3121924D01*
X-147000Y3227882D01*
X-140366Y3215469D01*
X-114017Y3205660D01*
X-17678Y3302000D01*
X17678Y3302000D01*
X114017Y3205660D01*
X140366Y3215469D01*
X154550Y3244516D01*
X162795Y3275772D01*
X164784Y3308035D01*
X160440Y3340067D01*
X149931Y3370636D01*
X140366Y3388531D01*
X114017Y3398340D01*
X17678Y3302000D01*
X-17678Y3302000D01*
X-114017Y3398340D01*
X-140366Y3388531D01*
X-147000Y3374944D01*
X-147000Y3482075D01*
X-145424Y3478269D01*
X-127465Y3451392D01*
X-104608Y3428535D01*
X-94255Y3421618D01*
X-96340Y3416017D01*
X0Y3319678D01*
X96340Y3416017D01*
X94255Y3421618D01*
X104608Y3428535D01*
X119572Y3443500D01*
X461401Y3443500D01*
X920994Y2983907D01*
X907960Y2986500D01*
X870040Y2986500D01*
X832850Y2979102D01*
X797817Y2964591D01*
X766288Y2943524D01*
X739475Y2916712D01*
X718409Y2885183D01*
X703898Y2850150D01*
X696500Y2812960D01*
X696500Y2775040D01*
X703898Y2737850D01*
X718409Y2702817D01*
X739475Y2671288D01*
X743764Y2667000D01*
X739475Y2662712D01*
X718409Y2631183D01*
X703898Y2596150D01*
X696500Y2558960D01*
X696500Y2521040D01*
X703898Y2483850D01*
X718409Y2448817D01*
X739475Y2417288D01*
X766288Y2390476D01*
X797817Y2369409D01*
X832850Y2354898D01*
X870040Y2347500D01*
X907960Y2347500D01*
X945150Y2354898D01*
X980183Y2369409D01*
X1011712Y2390476D01*
X1030500Y2409264D01*
X1030500Y2037526D01*
X1029956Y2032000D01*
X1030500Y2026473D01*
X1030500Y1797062D01*
X1026024Y1819566D01*
X1015282Y1845499D01*
X999687Y1868838D01*
X979838Y1888687D01*
X956499Y1904282D01*
X930566Y1915024D01*
X903035Y1920500D01*
X874965Y1920500D01*
X847434Y1915024D01*
X821501Y1904282D01*
X798161Y1888687D01*
X778313Y1868838D01*
X762718Y1845499D01*
X751976Y1819566D01*
X746500Y1792035D01*
X746500Y1763965D01*
X751976Y1736434D01*
X762718Y1710501D01*
X778313Y1687161D01*
X798161Y1667313D01*
X821501Y1651718D01*
X847434Y1640976D01*
X874965Y1635500D01*
X903035Y1635500D01*
X930566Y1640976D01*
X956499Y1651718D01*
X979838Y1667313D01*
X999687Y1687161D01*
X1015282Y1710501D01*
X1026024Y1736434D01*
X1030500Y1758938D01*
X1030500Y1021526D01*
X1030500Y781062D01*
X1026024Y803566D01*
X1015282Y829499D01*
X999687Y852838D01*
X979838Y872687D01*
X956499Y888282D01*
X930566Y899024D01*
X903035Y904500D01*
X874965Y904500D01*
X847434Y899024D01*
X821501Y888282D01*
X798161Y872687D01*
X778313Y852838D01*
X762718Y829499D01*
X762000Y827765D01*
X761282Y829499D01*
X745687Y852838D01*
X725838Y872687D01*
X702499Y888282D01*
X676566Y899024D01*
X649035Y904500D01*
X620965Y904500D01*
X593434Y899024D01*
X567501Y888282D01*
X544162Y872687D01*
X524313Y852838D01*
X508718Y829499D01*
X508000Y827765D01*
X507282Y829499D01*
X491687Y852838D01*
X471838Y872687D01*
X448499Y888282D01*
X422566Y899024D01*
X395035Y904500D01*
X366965Y904500D01*
X339434Y899024D01*
X313501Y888282D01*
X290162Y872687D01*
X270313Y852838D01*
X254718Y829499D01*
X243976Y803566D01*
X238500Y776035D01*
X238500Y747965D01*
X243976Y720434D01*
X254718Y694501D01*
X270313Y671162D01*
X290162Y651313D01*
X313501Y635718D01*
X339434Y624976D01*
X366965Y619500D01*
X395035Y619500D01*
X422566Y624976D01*
X448499Y635718D01*
X471838Y651313D01*
X491687Y671162D01*
X507282Y694501D01*
X508000Y696235D01*
X508718Y694501D01*
X524313Y671162D01*
X544162Y651313D01*
X567501Y635718D01*
X593434Y624976D01*
X620965Y619500D01*
X649035Y619500D01*
X676566Y624976D01*
X702499Y635718D01*
X725838Y651313D01*
X745687Y671162D01*
X761282Y694501D01*
X762000Y696235D01*
X762718Y694501D01*
X778313Y671162D01*
X798161Y651313D01*
X821501Y635718D01*
X847434Y624976D01*
X874965Y619500D01*
X903035Y619500D01*
X930566Y624976D01*
X956499Y635718D01*
X979838Y651313D01*
X999687Y671162D01*
X1015282Y694501D01*
X1026024Y720434D01*
X1030500Y742938D01*
X1030500Y92567D01*
X1027022Y104033D01*
X1021218Y114891D01*
X1013408Y124408D01*
X1003891Y132218D01*
X993033Y138022D01*
X981252Y141596D01*
X969000Y142802D01*
X809000Y142802D01*
X796748Y141596D01*
X784967Y138022D01*
X774109Y132218D01*
X764592Y124408D01*
X756782Y114891D01*
X750978Y104033D01*
X747404Y92252D01*
X746951Y87645D01*
X730753Y105536D01*
X708324Y122188D01*
X683077Y134145D01*
X669552Y138248D01*
X647500Y126258D01*
X647500Y12500D01*
X649500Y12500D01*
X649500Y-12500D01*
X647500Y-12500D01*
X647500Y-126258D01*
X669552Y-138248D01*
X683077Y-134145D01*
X708324Y-122188D01*
X730753Y-105536D01*
X746951Y-87645D01*
X747404Y-92252D01*
X750978Y-104033D01*
X756782Y-114891D01*
X764592Y-124408D01*
X774109Y-132218D01*
X784967Y-138022D01*
X796748Y-141596D01*
X809000Y-142802D01*
X969000Y-142802D01*
X981252Y-141596D01*
X993033Y-138022D01*
X1003891Y-132218D01*
X1013408Y-124408D01*
X1021218Y-114891D01*
X1027022Y-104033D01*
X1030500Y-92567D01*
X1030500Y-180973D01*
X1029956Y-186500D01*
X1030047Y-187430D01*
X1012477Y-205000D01*
X985096Y-205000D01*
X983026Y-202929D01*
X958867Y-186787D01*
X932024Y-175668D01*
X903527Y-170000D01*
X874472Y-170000D01*
X845976Y-175668D01*
X819132Y-186787D01*
X794974Y-202929D01*
X780679Y-217225D01*
X778022Y-208467D01*
X772218Y-197609D01*
X764408Y-188092D01*
X754891Y-180282D01*
X744033Y-174478D01*
X732252Y-170904D01*
X720000Y-169698D01*
X663125Y-170000D01*
X647500Y-185625D01*
X647500Y-305000D01*
X649500Y-305000D01*
X649500Y-330000D01*
X647500Y-330000D01*
X647500Y-449375D01*
X663125Y-465000D01*
X720000Y-465302D01*
X732252Y-464096D01*
X744033Y-460522D01*
X754891Y-454718D01*
X764408Y-446908D01*
X772218Y-437391D01*
X778022Y-426533D01*
X780679Y-417775D01*
X794974Y-432071D01*
X819132Y-448213D01*
X845976Y-459332D01*
X874472Y-465000D01*
X903527Y-465000D01*
X932024Y-459332D01*
X958867Y-448213D01*
X983026Y-432071D01*
X985096Y-430000D01*
X1002684Y-430000D01*
X1007127Y-436650D01*
X1031850Y-461373D01*
X1060922Y-480798D01*
X1093225Y-494179D01*
X1127518Y-501000D01*
X1162482Y-501000D01*
X1196775Y-494179D01*
X1229078Y-480798D01*
X1258150Y-461373D01*
X1272454Y-447069D01*
X1799109Y-447069D01*
X1810534Y-474788D01*
X1841864Y-490310D01*
X1875620Y-499422D01*
X1910505Y-501774D01*
X1945179Y-497274D01*
X1978309Y-486097D01*
X1999466Y-474788D01*
X2010891Y-447069D01*
X1905000Y-341178D01*
X1799109Y-447069D01*
X1272454Y-447069D01*
X1282873Y-436650D01*
X1302298Y-407578D01*
X1315679Y-375275D01*
X1322500Y-340982D01*
X1322500Y-329005D01*
X1726726Y-329005D01*
X1731226Y-363679D01*
X1742403Y-396809D01*
X1753712Y-417966D01*
X1781431Y-429391D01*
X1887322Y-323500D01*
X1922678Y-323500D01*
X2028569Y-429391D01*
X2056288Y-417966D01*
X2071810Y-386636D01*
X2080922Y-352880D01*
X2083274Y-317995D01*
X2078774Y-283321D01*
X2067597Y-250191D01*
X2056288Y-229034D01*
X2028569Y-217609D01*
X1922678Y-323500D01*
X1887322Y-323500D01*
X1781431Y-217609D01*
X1753712Y-229034D01*
X1738190Y-260364D01*
X1729078Y-294120D01*
X1726726Y-329005D01*
X1322500Y-329005D01*
X1322500Y-306018D01*
X1315679Y-271725D01*
X1302298Y-239422D01*
X1282873Y-210350D01*
X1272454Y-199931D01*
X1799109Y-199931D01*
X1905000Y-305822D01*
X2010891Y-199931D01*
X1999466Y-172212D01*
X1968136Y-156690D01*
X1934380Y-147578D01*
X1899495Y-145226D01*
X1864821Y-149726D01*
X1831691Y-160903D01*
X1810534Y-172212D01*
X1799109Y-199931D01*
X1272454Y-199931D01*
X1258150Y-185627D01*
X1257734Y-185349D01*
X1257500Y-182974D01*
X1257500Y-182974D01*
X1255872Y-166446D01*
X1255500Y-165219D01*
X1255500Y-19062D01*
X1259976Y-41566D01*
X1270718Y-67499D01*
X1286313Y-90838D01*
X1306162Y-110687D01*
X1329501Y-126282D01*
X1355434Y-137024D01*
X1382965Y-142500D01*
X1411035Y-142500D01*
X1438566Y-137024D01*
X1464499Y-126282D01*
X1487838Y-110687D01*
X1507687Y-90838D01*
X1523282Y-67499D01*
X1524000Y-65765D01*
X1524718Y-67499D01*
X1540313Y-90838D01*
X1560161Y-110687D01*
X1583501Y-126282D01*
X1609434Y-137024D01*
X1636965Y-142500D01*
X1665035Y-142500D01*
X1692566Y-137024D01*
X1718499Y-126282D01*
X1741838Y-110687D01*
X1761687Y-90838D01*
X1777282Y-67499D01*
X1778444Y-64693D01*
X1790498Y-84827D01*
X1809247Y-105536D01*
X1831676Y-122188D01*
X1856923Y-134145D01*
X1870448Y-138248D01*
X1892500Y-126258D01*
X1892500Y-12500D01*
X1917500Y-12500D01*
X1917500Y-126258D01*
X1939552Y-138248D01*
X1953077Y-134145D01*
X1978324Y-122188D01*
X2000753Y-105536D01*
X2019502Y-84827D01*
X2033851Y-60859D01*
X2043248Y-34552D01*
X2031326Y-12500D01*
X1917500Y-12500D01*
X1892500Y-12500D01*
X1890500Y-12500D01*
X1890500Y12500D01*
X1892500Y12500D01*
X1892500Y126258D01*
X1917500Y126258D01*
X1917500Y12500D01*
X2031326Y12500D01*
X2043248Y34552D01*
X2033851Y60859D01*
X2019502Y84827D01*
X2000753Y105536D01*
X1978324Y122188D01*
X1953077Y134145D01*
X1939552Y138248D01*
X1917500Y126258D01*
X1892500Y126258D01*
X1870448Y138248D01*
X1856923Y134145D01*
X1831676Y122188D01*
X1809247Y105536D01*
X1790498Y84827D01*
X1778444Y64693D01*
X1777282Y67499D01*
X1761687Y90838D01*
X1741838Y110687D01*
X1718499Y126282D01*
X1692566Y137024D01*
X1665035Y142500D01*
X1636965Y142500D01*
X1609434Y137024D01*
X1583501Y126282D01*
X1560161Y110687D01*
X1540313Y90838D01*
X1524718Y67499D01*
X1524000Y65765D01*
X1523282Y67499D01*
X1507687Y90838D01*
X1487838Y110687D01*
X1464499Y126282D01*
X1438566Y137024D01*
X1411035Y142500D01*
X1382965Y142500D01*
X1355434Y137024D01*
X1329501Y126282D01*
X1306162Y110687D01*
X1286313Y90838D01*
X1270718Y67499D01*
X1259976Y41566D01*
X1255500Y19062D01*
X1255500Y669432D01*
X1258978Y657967D01*
X1264782Y647109D01*
X1272592Y637592D01*
X1282109Y629782D01*
X1292967Y623978D01*
X1304748Y620404D01*
X1317000Y619198D01*
X1477000Y619198D01*
X1489252Y620404D01*
X1501033Y623978D01*
X1511891Y629782D01*
X1521408Y637592D01*
X1529218Y647109D01*
X1535022Y657967D01*
X1538596Y669748D01*
X1538938Y673220D01*
X1540313Y671162D01*
X1560161Y651313D01*
X1583501Y635718D01*
X1609434Y624976D01*
X1636965Y619500D01*
X1665035Y619500D01*
X1692566Y624976D01*
X1718499Y635718D01*
X1741838Y651313D01*
X1761687Y671162D01*
X1777282Y694501D01*
X1778000Y696235D01*
X1778718Y694501D01*
X1794313Y671162D01*
X1814161Y651313D01*
X1837501Y635718D01*
X1863434Y624976D01*
X1890965Y619500D01*
X1919035Y619500D01*
X1946566Y624976D01*
X1972499Y635718D01*
X1995838Y651313D01*
X2015687Y671162D01*
X2031282Y694501D01*
X2042024Y720434D01*
X2047500Y747965D01*
X2047500Y776035D01*
X2042024Y803566D01*
X2031282Y829499D01*
X2015687Y852838D01*
X1995838Y872687D01*
X1972499Y888282D01*
X1970765Y889000D01*
X1972499Y889718D01*
X1995838Y905313D01*
X2015687Y925161D01*
X2031282Y948501D01*
X2042024Y974434D01*
X2047500Y1001965D01*
X2047500Y1030035D01*
X2042024Y1057566D01*
X2031282Y1083499D01*
X2015687Y1106839D01*
X1995838Y1126687D01*
X1972499Y1142282D01*
X1946566Y1153024D01*
X1919035Y1158500D01*
X1890965Y1158500D01*
X1863434Y1153024D01*
X1837501Y1142282D01*
X1814161Y1126687D01*
X1794313Y1106839D01*
X1778718Y1083499D01*
X1767976Y1057566D01*
X1762500Y1030035D01*
X1762500Y1001965D01*
X1767976Y974434D01*
X1778718Y948501D01*
X1794313Y925161D01*
X1814161Y905313D01*
X1837501Y889718D01*
X1839235Y889000D01*
X1837501Y888282D01*
X1814161Y872687D01*
X1794313Y852838D01*
X1778718Y829499D01*
X1778000Y827765D01*
X1777282Y829499D01*
X1761687Y852838D01*
X1741838Y872687D01*
X1718499Y888282D01*
X1692566Y899024D01*
X1665035Y904500D01*
X1636965Y904500D01*
X1609434Y899024D01*
X1583501Y888282D01*
X1560161Y872687D01*
X1540313Y852838D01*
X1538938Y850780D01*
X1538596Y854252D01*
X1535022Y866033D01*
X1529218Y876891D01*
X1521408Y886408D01*
X1511891Y894218D01*
X1509500Y895496D01*
X1509500Y1377938D01*
X1513976Y1355434D01*
X1524718Y1329501D01*
X1540313Y1306162D01*
X1560161Y1286313D01*
X1583501Y1270718D01*
X1609434Y1259976D01*
X1636965Y1254500D01*
X1665035Y1254500D01*
X1692566Y1259976D01*
X1718499Y1270718D01*
X1741838Y1286313D01*
X1761687Y1306162D01*
X1777282Y1329501D01*
X1788024Y1355434D01*
X1793500Y1382965D01*
X1793500Y1411035D01*
X1788024Y1438566D01*
X1777282Y1464499D01*
X1761687Y1487838D01*
X1741838Y1507687D01*
X1726457Y1517965D01*
X2121217Y1517965D01*
X2125560Y1485933D01*
X2136070Y1455364D01*
X2145635Y1437469D01*
X2171983Y1427660D01*
X2268322Y1524000D01*
X2171983Y1620340D01*
X2145635Y1610531D01*
X2131450Y1581484D01*
X2123205Y1550228D01*
X2121217Y1517965D01*
X1726457Y1517965D01*
X1718499Y1523282D01*
X1692566Y1534024D01*
X1665035Y1539500D01*
X1636965Y1539500D01*
X1609434Y1534024D01*
X1583501Y1523282D01*
X1560161Y1507687D01*
X1540313Y1487838D01*
X1524718Y1464499D01*
X1513976Y1438566D01*
X1509500Y1416062D01*
X1509500Y1644504D01*
X1511891Y1645782D01*
X1521408Y1653592D01*
X1529218Y1663109D01*
X1535022Y1673967D01*
X1538596Y1685748D01*
X1539802Y1698000D01*
X1539802Y1858000D01*
X1538596Y1870252D01*
X1535022Y1882033D01*
X1529218Y1892891D01*
X1521408Y1902408D01*
X1511891Y1910218D01*
X1501033Y1916022D01*
X1489568Y1919500D01*
X1816875Y1919500D01*
X1837501Y1905718D01*
X1863434Y1894976D01*
X1890965Y1889500D01*
X1919035Y1889500D01*
X1946566Y1894976D01*
X1972499Y1905718D01*
X1995838Y1921313D01*
X2015687Y1941161D01*
X2031282Y1964501D01*
X2042024Y1990434D01*
X2047500Y2017965D01*
X2047500Y2046035D01*
X2042024Y2073566D01*
X2031282Y2099499D01*
X2015687Y2122839D01*
X1995838Y2142687D01*
X1972499Y2158282D01*
X1946566Y2169024D01*
X1919035Y2174500D01*
X1890965Y2174500D01*
X1863434Y2169024D01*
X1837501Y2158282D01*
X1816875Y2144500D01*
X1255500Y2144500D01*
X1255500Y2409264D01*
X1274288Y2390476D01*
X1305817Y2369409D01*
X1340850Y2354898D01*
X1378040Y2347500D01*
X1415960Y2347500D01*
X1453150Y2354898D01*
X1488183Y2369409D01*
X1519712Y2390476D01*
X1546524Y2417288D01*
X1567591Y2448817D01*
X1582102Y2483850D01*
X1589500Y2521040D01*
X1589500Y2558960D01*
X1583027Y2591500D01*
X1691956Y2591500D01*
X1691956Y2361500D01*
X1694128Y2339446D01*
X1700561Y2318240D01*
X1711007Y2298696D01*
X1725066Y2281566D01*
X1742196Y2267507D01*
X1761740Y2257061D01*
X1782946Y2250628D01*
X1805000Y2248456D01*
X2005000Y2248456D01*
X2027054Y2250628D01*
X2048260Y2257061D01*
X2067804Y2267507D01*
X2084934Y2281566D01*
X2098993Y2298696D01*
X2109439Y2318240D01*
X2115872Y2339446D01*
X2118044Y2361500D01*
X2118044Y2591500D01*
X2115872Y2613554D01*
X2109439Y2634760D01*
X2098993Y2654304D01*
X2084934Y2671434D01*
X2067804Y2685493D01*
X2065013Y2686985D01*
X2075591Y2702817D01*
X2090102Y2737850D01*
X2097500Y2775040D01*
X2097500Y2812960D01*
X2090102Y2850150D01*
X2075591Y2885183D01*
X2054524Y2916712D01*
X2027712Y2943524D01*
X1996183Y2964591D01*
X1961150Y2979102D01*
X1923960Y2986500D01*
X1886040Y2986500D01*
X1848850Y2979102D01*
X1813817Y2964591D01*
X1782288Y2943524D01*
X1755475Y2916712D01*
X1734409Y2885183D01*
X1719898Y2850150D01*
X1712500Y2812960D01*
X1712500Y2775040D01*
X1719898Y2737850D01*
X1734409Y2702817D01*
X1744987Y2686985D01*
X1742196Y2685493D01*
X1725066Y2671434D01*
X1711007Y2654304D01*
X1700561Y2634760D01*
X1694128Y2613554D01*
X1691956Y2591500D01*
X1583027Y2591500D01*
X1582102Y2596150D01*
X1567591Y2631183D01*
X1546524Y2662712D01*
X1519712Y2689525D01*
X1488183Y2710591D01*
X1453150Y2725102D01*
X1415960Y2732500D01*
X1378040Y2732500D01*
X1340850Y2725102D01*
X1305817Y2710591D01*
X1274288Y2689525D01*
X1255500Y2670736D01*
X1255500Y2915474D01*
X1255661Y2917103D01*
X1274288Y2898475D01*
X1305817Y2877409D01*
X1340850Y2862898D01*
X1378040Y2855500D01*
X1415960Y2855500D01*
X1453150Y2862898D01*
X1488183Y2877409D01*
X1519712Y2898475D01*
X1546524Y2925288D01*
X1567591Y2956817D01*
X1582102Y2991850D01*
X1589500Y3029040D01*
X1589500Y3066960D01*
X1582102Y3104150D01*
X1567591Y3139183D01*
X1546524Y3170712D01*
X1519712Y3197524D01*
X1488183Y3218591D01*
X1453150Y3233102D01*
X1415960Y3240500D01*
X1378040Y3240500D01*
X1340850Y3233102D01*
X1305817Y3218591D01*
X1274288Y3197524D01*
X1247476Y3170712D01*
X1226409Y3139183D01*
X1211898Y3104150D01*
X1204500Y3066960D01*
X1204500Y3029040D01*
X1207093Y3016006D01*
X893426Y3329673D01*
X919924Y3332283D01*
X949660Y3341303D01*
X977065Y3355951D01*
X980259Y3358572D01*
X995388Y3340138D01*
X1027022Y3314176D01*
X1063113Y3294885D01*
X1102274Y3283006D01*
X1143000Y3278995D01*
X1183726Y3283006D01*
X1222887Y3294885D01*
X1235285Y3301512D01*
X1238946Y3298507D01*
X1258490Y3288061D01*
X1279696Y3281628D01*
X1301750Y3279456D01*
X1492250Y3279456D01*
X1514304Y3281628D01*
X1535510Y3288061D01*
X1550297Y3295965D01*
X2121217Y3295965D01*
X2125560Y3263933D01*
X2136070Y3233364D01*
X2145635Y3215469D01*
X2171983Y3205660D01*
X2268322Y3302000D01*
X2171983Y3398340D01*
X2145635Y3388531D01*
X2131450Y3359484D01*
X2123205Y3328228D01*
X2121217Y3295965D01*
X1550297Y3295965D01*
X1555054Y3298507D01*
X1572184Y3312566D01*
X1586243Y3329696D01*
X1596689Y3349240D01*
X1603122Y3370446D01*
X1605294Y3392500D01*
X1605294Y3592500D01*
X1603122Y3614554D01*
X1596689Y3635760D01*
X1586243Y3655304D01*
X1573772Y3670500D01*
X2168428Y3670500D01*
X2158535Y3660608D01*
G37*
X2158535Y3660608D02*
X2140577Y3633730D01*
X2128206Y3603866D01*
X2121900Y3572162D01*
X2121900Y3539838D01*
X2128206Y3508134D01*
X2140577Y3478269D01*
X2158535Y3451392D01*
X2181392Y3428535D01*
X2191745Y3421618D01*
X2189660Y3416017D01*
X2286000Y3319678D01*
X2382340Y3416017D01*
X2380255Y3421618D01*
X2390608Y3428535D01*
X2413465Y3451392D01*
X2431424Y3478269D01*
X2433000Y3482076D01*
X2433000Y3376118D01*
X2426366Y3388531D01*
X2400017Y3398340D01*
X2303678Y3302000D01*
X2400017Y3205660D01*
X2426366Y3215469D01*
X2433000Y3229056D01*
X2433000Y3121924D01*
X2431424Y3125730D01*
X2413465Y3152608D01*
X2390608Y3175465D01*
X2380255Y3182382D01*
X2382340Y3187983D01*
X2286000Y3284322D01*
X2189660Y3187983D01*
X2191745Y3182382D01*
X2181392Y3175465D01*
X2158535Y3152608D01*
X2140577Y3125730D01*
X2128206Y3095866D01*
X2121900Y3064162D01*
X2121900Y3031838D01*
X2128206Y3000134D01*
X2140577Y2970269D01*
X2158535Y2943392D01*
X2180928Y2921000D01*
X2158535Y2898608D01*
X2140577Y2871730D01*
X2128206Y2841866D01*
X2121900Y2810162D01*
X2121900Y2777838D01*
X2128206Y2746134D01*
X2140577Y2716270D01*
X2158535Y2689392D01*
X2180928Y2667000D01*
X2158535Y2644608D01*
X2140577Y2617731D01*
X2128206Y2587866D01*
X2121900Y2556162D01*
X2121900Y2523838D01*
X2128206Y2492134D01*
X2140577Y2462270D01*
X2158535Y2435392D01*
X2180928Y2413000D01*
X2158535Y2390608D01*
X2140577Y2363731D01*
X2128206Y2333866D01*
X2121900Y2302162D01*
X2121900Y2269838D01*
X2128206Y2238134D01*
X2140577Y2208270D01*
X2158535Y2181392D01*
X2180928Y2159000D01*
X2158535Y2136608D01*
X2140577Y2109731D01*
X2128206Y2079866D01*
X2121900Y2048162D01*
X2121900Y2015838D01*
X2128206Y1984134D01*
X2140577Y1954269D01*
X2158535Y1927392D01*
X2180928Y1905000D01*
X2158535Y1882608D01*
X2140577Y1855730D01*
X2128206Y1825866D01*
X2121900Y1794162D01*
X2121900Y1761838D01*
X2128206Y1730134D01*
X2140577Y1700269D01*
X2158535Y1673392D01*
X2181392Y1650535D01*
X2191745Y1643618D01*
X2189660Y1638017D01*
X2286000Y1541678D01*
X2382340Y1638017D01*
X2380255Y1643618D01*
X2390608Y1650535D01*
X2413465Y1673392D01*
X2431424Y1700269D01*
X2433000Y1704075D01*
X2433000Y1598118D01*
X2426366Y1610531D01*
X2400017Y1620340D01*
X2303678Y1524000D01*
X2400017Y1427660D01*
X2426366Y1437469D01*
X2433000Y1451056D01*
X2433000Y1343925D01*
X2431424Y1347731D01*
X2413465Y1374608D01*
X2390608Y1397465D01*
X2380255Y1404382D01*
X2382340Y1409983D01*
X2286000Y1506322D01*
X2189660Y1409983D01*
X2191745Y1404382D01*
X2181392Y1397465D01*
X2158535Y1374608D01*
X2140577Y1347731D01*
X2128206Y1317866D01*
X2121900Y1286162D01*
X2121900Y1253838D01*
X2128206Y1222134D01*
X2140577Y1192270D01*
X2158535Y1165392D01*
X2180928Y1143000D01*
X2158535Y1120608D01*
X2140577Y1093731D01*
X2128206Y1063866D01*
X2121900Y1032162D01*
X2121900Y999838D01*
X2128206Y968134D01*
X2140577Y938269D01*
X2158535Y911392D01*
X2180928Y889000D01*
X2158535Y866608D01*
X2140577Y839730D01*
X2128206Y809866D01*
X2121900Y778162D01*
X2121900Y745838D01*
X2128206Y714134D01*
X2140577Y684270D01*
X2158535Y657392D01*
X2180928Y635000D01*
X2158535Y612608D01*
X2140577Y585731D01*
X2128206Y555866D01*
X2121900Y524162D01*
X2121900Y491838D01*
X2128206Y460134D01*
X2140577Y430269D01*
X2158535Y403392D01*
X2180928Y381000D01*
X2158535Y358608D01*
X2140577Y331731D01*
X2128206Y301866D01*
X2121900Y270162D01*
X2121900Y237838D01*
X2128206Y206134D01*
X2140577Y176269D01*
X2158535Y149392D01*
X2180928Y127000D01*
X2158535Y104608D01*
X2140577Y77731D01*
X2128206Y47866D01*
X2121900Y16162D01*
X2121900Y-16162D01*
X2128206Y-47866D01*
X2140577Y-77731D01*
X2158535Y-104608D01*
X2181392Y-127465D01*
X2208270Y-145424D01*
X2238134Y-157794D01*
X2269838Y-164100D01*
X2302162Y-164100D01*
X2333866Y-157794D01*
X2363731Y-145424D01*
X2390608Y-127465D01*
X2413465Y-104608D01*
X2431424Y-77731D01*
X2433000Y-73925D01*
X2433000Y-224353D01*
X2432596Y-220248D01*
X2429022Y-208467D01*
X2423218Y-197609D01*
X2415408Y-188092D01*
X2405891Y-180282D01*
X2395033Y-174478D01*
X2383252Y-170904D01*
X2371000Y-169698D01*
X2201000Y-169698D01*
X2188748Y-170904D01*
X2176967Y-174478D01*
X2166109Y-180282D01*
X2156592Y-188092D01*
X2148782Y-197609D01*
X2142978Y-208467D01*
X2139404Y-220248D01*
X2138198Y-232500D01*
X2138198Y-402500D01*
X2139404Y-414752D01*
X2142978Y-426533D01*
X2148782Y-437391D01*
X2156592Y-446908D01*
X2166109Y-454718D01*
X2176967Y-460522D01*
X2188748Y-464096D01*
X2201000Y-465302D01*
X2371000Y-465302D01*
X2383252Y-464096D01*
X2395033Y-460522D01*
X2405891Y-454718D01*
X2415408Y-446908D01*
X2423218Y-437391D01*
X2429022Y-426533D01*
X2432596Y-414752D01*
X2433000Y-410647D01*
X2433000Y-505872D01*
X2431205Y-524178D01*
X2426507Y-539740D01*
X2418875Y-554093D01*
X2408601Y-566690D01*
X2396076Y-577052D01*
X2381777Y-584783D01*
X2366248Y-589590D01*
X2348078Y-591500D01*
X-61372Y-591500D01*
X-79678Y-589705D01*
X-95240Y-585007D01*
X-109593Y-577375D01*
X-122190Y-567101D01*
X-132552Y-554576D01*
X-140283Y-540277D01*
X-145090Y-524748D01*
X-147000Y-506577D01*
X-147000Y-302973D01*
X233500Y-302973D01*
X233500Y-332028D01*
X239168Y-360524D01*
X250287Y-387367D01*
X266429Y-411526D01*
X286974Y-432071D01*
X311133Y-448213D01*
X337976Y-459332D01*
X366472Y-465000D01*
X395527Y-465000D01*
X424024Y-459332D01*
X450867Y-448213D01*
X475026Y-432071D01*
X489321Y-417775D01*
X491978Y-426533D01*
X497782Y-437391D01*
X505592Y-446908D01*
X515109Y-454718D01*
X525967Y-460522D01*
X537748Y-464096D01*
X550000Y-465302D01*
X606875Y-465000D01*
X622500Y-449375D01*
X622500Y-330000D01*
X620500Y-330000D01*
X620500Y-305000D01*
X622500Y-305000D01*
X622500Y-185625D01*
X606875Y-170000D01*
X550000Y-169698D01*
X537748Y-170904D01*
X525967Y-174478D01*
X515109Y-180282D01*
X505592Y-188092D01*
X497782Y-197609D01*
X491978Y-208467D01*
X489321Y-217225D01*
X475026Y-202929D01*
X450867Y-186787D01*
X424024Y-175668D01*
X395527Y-170000D01*
X366472Y-170000D01*
X337976Y-175668D01*
X311133Y-186787D01*
X286974Y-202929D01*
X266429Y-223474D01*
X250287Y-247632D01*
X239168Y-274476D01*
X233500Y-302973D01*
X-147000Y-302973D01*
X-147000Y-144799D01*
X-146008Y-146008D01*
X-136491Y-153818D01*
X-125633Y-159622D01*
X-113852Y-163196D01*
X-101600Y-164402D01*
X101600Y-164402D01*
X113852Y-163196D01*
X125633Y-159622D01*
X136491Y-153818D01*
X146008Y-146008D01*
X153818Y-136491D01*
X159622Y-125633D01*
X163196Y-113852D01*
X164402Y-101600D01*
X164402Y14035D01*
X238500Y14035D01*
X238500Y-14035D01*
X243976Y-41566D01*
X254718Y-67499D01*
X270313Y-90838D01*
X290162Y-110687D01*
X313501Y-126282D01*
X339434Y-137024D01*
X366965Y-142500D01*
X395035Y-142500D01*
X422566Y-137024D01*
X448499Y-126282D01*
X471838Y-110687D01*
X491687Y-90838D01*
X507282Y-67499D01*
X508444Y-64693D01*
X520498Y-84827D01*
X539247Y-105536D01*
X561676Y-122188D01*
X586923Y-134145D01*
X600448Y-138248D01*
X622500Y-126258D01*
X622500Y-12500D01*
X620500Y-12500D01*
X620500Y12500D01*
X622500Y12500D01*
X622500Y126258D01*
X600448Y138248D01*
X586923Y134145D01*
X561676Y122188D01*
X539247Y105536D01*
X520498Y84827D01*
X508444Y64693D01*
X507282Y67499D01*
X491687Y90838D01*
X471838Y110687D01*
X448499Y126282D01*
X422566Y137024D01*
X395035Y142500D01*
X366965Y142500D01*
X339434Y137024D01*
X313501Y126282D01*
X290162Y110687D01*
X270313Y90838D01*
X254718Y67499D01*
X243976Y41566D01*
X238500Y14035D01*
X164402Y14035D01*
X164402Y101600D01*
X163196Y113852D01*
X159622Y125633D01*
X153818Y136491D01*
X146008Y146008D01*
X136491Y153818D01*
X132019Y156209D01*
X145424Y176269D01*
X157794Y206134D01*
X164100Y237838D01*
X164100Y270162D01*
X157794Y301866D01*
X145424Y331731D01*
X127465Y358608D01*
X105072Y381000D01*
X127465Y403392D01*
X145424Y430269D01*
X157794Y460134D01*
X164100Y491838D01*
X164100Y524162D01*
X157794Y555866D01*
X145424Y585731D01*
X127465Y612608D01*
X105072Y635000D01*
X127465Y657392D01*
X145424Y684270D01*
X157794Y714134D01*
X164100Y745838D01*
X164100Y778162D01*
X157794Y809866D01*
X145424Y839730D01*
X127465Y866608D01*
X105072Y889000D01*
X127465Y911392D01*
X145424Y938269D01*
X157794Y968134D01*
X164100Y999838D01*
X164100Y1032162D01*
X157794Y1063866D01*
X145424Y1093731D01*
X127465Y1120608D01*
X105072Y1143000D01*
X119107Y1157035D01*
X238500Y1157035D01*
X238500Y1128965D01*
X243976Y1101434D01*
X254718Y1075501D01*
X270313Y1052162D01*
X290162Y1032313D01*
X313501Y1016718D01*
X339434Y1005976D01*
X366965Y1000500D01*
X395035Y1000500D01*
X422566Y1005976D01*
X448499Y1016718D01*
X471838Y1032313D01*
X491687Y1052162D01*
X507282Y1075501D01*
X518024Y1101434D01*
X523500Y1128965D01*
X523500Y1157035D01*
X518024Y1184566D01*
X507282Y1210499D01*
X491687Y1233839D01*
X471838Y1253687D01*
X448499Y1269282D01*
X422566Y1280024D01*
X395035Y1285500D01*
X366965Y1285500D01*
X339434Y1280024D01*
X313501Y1269282D01*
X290162Y1253687D01*
X270313Y1233839D01*
X254718Y1210499D01*
X243976Y1184566D01*
X238500Y1157035D01*
X119107Y1157035D01*
X127465Y1165392D01*
X145424Y1192270D01*
X157794Y1222134D01*
X164100Y1253838D01*
X164100Y1286162D01*
X157794Y1317866D01*
X145424Y1347731D01*
X127465Y1374608D01*
X105072Y1397000D01*
X119107Y1411035D01*
X492500Y1411035D01*
X492500Y1382965D01*
X497976Y1355434D01*
X508718Y1329501D01*
X524313Y1306162D01*
X544162Y1286313D01*
X567501Y1270718D01*
X593434Y1259976D01*
X620965Y1254500D01*
X649035Y1254500D01*
X676566Y1259976D01*
X702499Y1270718D01*
X725838Y1286313D01*
X745687Y1306162D01*
X761282Y1329501D01*
X772024Y1355434D01*
X777500Y1382965D01*
X777500Y1411035D01*
X772024Y1438566D01*
X761282Y1464499D01*
X745687Y1487838D01*
X725838Y1507687D01*
X702499Y1523282D01*
X676566Y1534024D01*
X649035Y1539500D01*
X620965Y1539500D01*
X593434Y1534024D01*
X567501Y1523282D01*
X544162Y1507687D01*
X524313Y1487838D01*
X508718Y1464499D01*
X497976Y1438566D01*
X492500Y1411035D01*
X119107Y1411035D01*
X127465Y1419392D01*
X145424Y1446269D01*
X157794Y1476134D01*
X164100Y1507838D01*
X164100Y1540162D01*
X157794Y1571866D01*
X145424Y1601730D01*
X127465Y1628608D01*
X105072Y1651000D01*
X127465Y1673392D01*
X145424Y1700269D01*
X157794Y1730134D01*
X164100Y1761838D01*
X164100Y1794162D01*
X157794Y1825866D01*
X145424Y1855730D01*
X127465Y1882608D01*
X105072Y1905000D01*
X127465Y1927392D01*
X145424Y1954269D01*
X157794Y1984134D01*
X164100Y2015838D01*
X164100Y2048162D01*
X157794Y2079866D01*
X145424Y2109731D01*
X127465Y2136608D01*
X104608Y2159465D01*
X94255Y2166382D01*
X96340Y2171983D01*
X0Y2268322D01*
X-96340Y2171983D01*
X-94255Y2166382D01*
X-104608Y2159465D01*
X-127465Y2136608D01*
X-145424Y2109731D01*
X-147000Y2105925D01*
X-147000Y2211882D01*
X-140366Y2199469D01*
X-114017Y2189660D01*
X-17678Y2286000D01*
X17678Y2286000D01*
X114017Y2189660D01*
X140366Y2199469D01*
X154550Y2228516D01*
X162795Y2259772D01*
X164784Y2292035D01*
X160440Y2324067D01*
X149931Y2354636D01*
X140366Y2372531D01*
X114017Y2382340D01*
X17678Y2286000D01*
X-17678Y2286000D01*
X-114017Y2382340D01*
X-140366Y2372531D01*
X-147000Y2358944D01*
X-147000Y2466076D01*
X-145424Y2462270D01*
X-127465Y2435392D01*
X-104608Y2412535D01*
X-94255Y2405618D01*
X-96340Y2400017D01*
X0Y2303678D01*
X96340Y2400017D01*
X94255Y2405618D01*
X104608Y2412535D01*
X127465Y2435392D01*
X145424Y2462270D01*
X157500Y2491425D01*
X157500Y2454093D01*
X166243Y2410141D01*
X183392Y2368738D01*
X208289Y2331477D01*
X239977Y2299789D01*
X245717Y2295954D01*
X231475Y2281712D01*
X210409Y2250183D01*
X195898Y2215150D01*
X188500Y2177960D01*
X188500Y2140040D01*
X195898Y2102850D01*
X210409Y2067817D01*
X231475Y2036288D01*
X258288Y2009475D01*
X289817Y1988409D01*
X324850Y1973898D01*
X362040Y1966500D01*
X399960Y1966500D01*
X437150Y1973898D01*
X472183Y1988409D01*
X503712Y2009475D01*
X530525Y2036288D01*
X551591Y2067817D01*
X566102Y2102850D01*
X573500Y2140040D01*
X573500Y2177960D01*
X566102Y2215150D01*
X551591Y2250183D01*
X530525Y2281712D01*
X519487Y2292749D01*
X530023Y2299789D01*
X561711Y2331477D01*
X586608Y2368738D01*
X603757Y2410141D01*
X612500Y2454093D01*
X612500Y2498907D01*
X603757Y2542859D01*
X586608Y2584262D01*
X561711Y2621523D01*
X530023Y2653211D01*
X492762Y2678108D01*
X451359Y2695257D01*
X407407Y2704000D01*
X362593Y2704000D01*
X318641Y2695257D01*
X277238Y2678108D01*
X239977Y2653211D01*
X208289Y2621523D01*
X183392Y2584262D01*
X166243Y2542859D01*
X164100Y2532087D01*
X164100Y2556162D01*
X157794Y2587866D01*
X145424Y2617731D01*
X127465Y2644608D01*
X105072Y2667000D01*
X127465Y2689392D01*
X145424Y2716270D01*
X157794Y2746134D01*
X164100Y2777838D01*
X164100Y2810162D01*
X157794Y2841866D01*
X145424Y2871730D01*
X127465Y2898608D01*
X105072Y2921000D01*
X127465Y2943392D01*
X145424Y2970269D01*
X157794Y3000134D01*
X164100Y3031838D01*
X164100Y3064162D01*
X163544Y3066960D01*
X188500Y3066960D01*
X188500Y3029040D01*
X195898Y2991850D01*
X210409Y2956817D01*
X231475Y2925288D01*
X258288Y2898475D01*
X289817Y2877409D01*
X324850Y2862898D01*
X362040Y2855500D01*
X399960Y2855500D01*
X437150Y2862898D01*
X472183Y2877409D01*
X503712Y2898475D01*
X530525Y2925288D01*
X551591Y2956817D01*
X566102Y2991850D01*
X573500Y3029040D01*
X573500Y3066960D01*
X566102Y3104150D01*
X551591Y3139183D01*
X530525Y3170712D01*
X503712Y3197524D01*
X472183Y3218591D01*
X437150Y3233102D01*
X399960Y3240500D01*
X362040Y3240500D01*
X324850Y3233102D01*
X289817Y3218591D01*
X258288Y3197524D01*
X231475Y3170712D01*
X210409Y3139183D01*
X195898Y3104150D01*
X188500Y3066960D01*
X163544Y3066960D01*
X157794Y3095866D01*
X145424Y3125730D01*
X127465Y3152608D01*
X104608Y3175465D01*
X94255Y3182382D01*
X96340Y3187983D01*
X0Y3284322D01*
X-96340Y3187983D01*
X-94255Y3182382D01*
X-104608Y3175465D01*
X-127465Y3152608D01*
X-145424Y3125730D01*
X-147000Y3121924D01*
X-147000Y3227882D01*
X-140366Y3215469D01*
X-114017Y3205660D01*
X-17678Y3302000D01*
X17678Y3302000D01*
X114017Y3205660D01*
X140366Y3215469D01*
X154550Y3244516D01*
X162795Y3275772D01*
X164784Y3308035D01*
X160440Y3340067D01*
X149931Y3370636D01*
X140366Y3388531D01*
X114017Y3398340D01*
X17678Y3302000D01*
X-17678Y3302000D01*
X-114017Y3398340D01*
X-140366Y3388531D01*
X-147000Y3374944D01*
X-147000Y3482075D01*
X-145424Y3478269D01*
X-127465Y3451392D01*
X-104608Y3428535D01*
X-94255Y3421618D01*
X-96340Y3416017D01*
X0Y3319678D01*
X96340Y3416017D01*
X94255Y3421618D01*
X104608Y3428535D01*
X119572Y3443500D01*
X461401Y3443500D01*
X920994Y2983907D01*
X907960Y2986500D01*
X870040Y2986500D01*
X832850Y2979102D01*
X797817Y2964591D01*
X766288Y2943524D01*
X739475Y2916712D01*
X718409Y2885183D01*
X703898Y2850150D01*
X696500Y2812960D01*
X696500Y2775040D01*
X703898Y2737850D01*
X718409Y2702817D01*
X739475Y2671288D01*
X743764Y2667000D01*
X739475Y2662712D01*
X718409Y2631183D01*
X703898Y2596150D01*
X696500Y2558960D01*
X696500Y2521040D01*
X703898Y2483850D01*
X718409Y2448817D01*
X739475Y2417288D01*
X766288Y2390476D01*
X797817Y2369409D01*
X832850Y2354898D01*
X870040Y2347500D01*
X907960Y2347500D01*
X945150Y2354898D01*
X980183Y2369409D01*
X1011712Y2390476D01*
X1030500Y2409264D01*
X1030500Y2037526D01*
X1029956Y2032000D01*
X1030500Y2026473D01*
X1030500Y1797062D01*
X1026024Y1819566D01*
X1015282Y1845499D01*
X999687Y1868838D01*
X979838Y1888687D01*
X956499Y1904282D01*
X930566Y1915024D01*
X903035Y1920500D01*
X874965Y1920500D01*
X847434Y1915024D01*
X821501Y1904282D01*
X798161Y1888687D01*
X778313Y1868838D01*
X762718Y1845499D01*
X751976Y1819566D01*
X746500Y1792035D01*
X746500Y1763965D01*
X751976Y1736434D01*
X762718Y1710501D01*
X778313Y1687161D01*
X798161Y1667313D01*
X821501Y1651718D01*
X847434Y1640976D01*
X874965Y1635500D01*
X903035Y1635500D01*
X930566Y1640976D01*
X956499Y1651718D01*
X979838Y1667313D01*
X999687Y1687161D01*
X1015282Y1710501D01*
X1026024Y1736434D01*
X1030500Y1758938D01*
X1030500Y1021526D01*
X1030500Y781062D01*
X1026024Y803566D01*
X1015282Y829499D01*
X999687Y852838D01*
X979838Y872687D01*
X956499Y888282D01*
X930566Y899024D01*
X903035Y904500D01*
X874965Y904500D01*
X847434Y899024D01*
X821501Y888282D01*
X798161Y872687D01*
X778313Y852838D01*
X762718Y829499D01*
X762000Y827765D01*
X761282Y829499D01*
X745687Y852838D01*
X725838Y872687D01*
X702499Y888282D01*
X676566Y899024D01*
X649035Y904500D01*
X620965Y904500D01*
X593434Y899024D01*
X567501Y888282D01*
X544162Y872687D01*
X524313Y852838D01*
X508718Y829499D01*
X508000Y827765D01*
X507282Y829499D01*
X491687Y852838D01*
X471838Y872687D01*
X448499Y888282D01*
X422566Y899024D01*
X395035Y904500D01*
X366965Y904500D01*
X339434Y899024D01*
X313501Y888282D01*
X290162Y872687D01*
X270313Y852838D01*
X254718Y829499D01*
X243976Y803566D01*
X238500Y776035D01*
X238500Y747965D01*
X243976Y720434D01*
X254718Y694501D01*
X270313Y671162D01*
X290162Y651313D01*
X313501Y635718D01*
X339434Y624976D01*
X366965Y619500D01*
X395035Y619500D01*
X422566Y624976D01*
X448499Y635718D01*
X471838Y651313D01*
X491687Y671162D01*
X507282Y694501D01*
X508000Y696235D01*
X508718Y694501D01*
X524313Y671162D01*
X544162Y651313D01*
X567501Y635718D01*
X593434Y624976D01*
X620965Y619500D01*
X649035Y619500D01*
X676566Y624976D01*
X702499Y635718D01*
X725838Y651313D01*
X745687Y671162D01*
X761282Y694501D01*
X762000Y696235D01*
X762718Y694501D01*
X778313Y671162D01*
X798161Y651313D01*
X821501Y635718D01*
X847434Y624976D01*
X874965Y619500D01*
X903035Y619500D01*
X930566Y624976D01*
X956499Y635718D01*
X979838Y651313D01*
X999687Y671162D01*
X1015282Y694501D01*
X1026024Y720434D01*
X1030500Y742938D01*
X1030500Y92567D01*
X1027022Y104033D01*
X1021218Y114891D01*
X1013408Y124408D01*
X1003891Y132218D01*
X993033Y138022D01*
X981252Y141596D01*
X969000Y142802D01*
X809000Y142802D01*
X796748Y141596D01*
X784967Y138022D01*
X774109Y132218D01*
X764592Y124408D01*
X756782Y114891D01*
X750978Y104033D01*
X747404Y92252D01*
X746951Y87645D01*
X730753Y105536D01*
X708324Y122188D01*
X683077Y134145D01*
X669552Y138248D01*
X647500Y126258D01*
X647500Y12500D01*
X649500Y12500D01*
X649500Y-12500D01*
X647500Y-12500D01*
X647500Y-126258D01*
X669552Y-138248D01*
X683077Y-134145D01*
X708324Y-122188D01*
X730753Y-105536D01*
X746951Y-87645D01*
X747404Y-92252D01*
X750978Y-104033D01*
X756782Y-114891D01*
X764592Y-124408D01*
X774109Y-132218D01*
X784967Y-138022D01*
X796748Y-141596D01*
X809000Y-142802D01*
X969000Y-142802D01*
X981252Y-141596D01*
X993033Y-138022D01*
X1003891Y-132218D01*
X1013408Y-124408D01*
X1021218Y-114891D01*
X1027022Y-104033D01*
X1030500Y-92567D01*
X1030500Y-180973D01*
X1029956Y-186500D01*
X1030047Y-187430D01*
X1012477Y-205000D01*
X985096Y-205000D01*
X983026Y-202929D01*
X958867Y-186787D01*
X932024Y-175668D01*
X903527Y-170000D01*
X874472Y-170000D01*
X845976Y-175668D01*
X819132Y-186787D01*
X794974Y-202929D01*
X780679Y-217225D01*
X778022Y-208467D01*
X772218Y-197609D01*
X764408Y-188092D01*
X754891Y-180282D01*
X744033Y-174478D01*
X732252Y-170904D01*
X720000Y-169698D01*
X663125Y-170000D01*
X647500Y-185625D01*
X647500Y-305000D01*
X649500Y-305000D01*
X649500Y-330000D01*
X647500Y-330000D01*
X647500Y-449375D01*
X663125Y-465000D01*
X720000Y-465302D01*
X732252Y-464096D01*
X744033Y-460522D01*
X754891Y-454718D01*
X764408Y-446908D01*
X772218Y-437391D01*
X778022Y-426533D01*
X780679Y-417775D01*
X794974Y-432071D01*
X819132Y-448213D01*
X845976Y-459332D01*
X874472Y-465000D01*
X903527Y-465000D01*
X932024Y-459332D01*
X958867Y-448213D01*
X983026Y-432071D01*
X985096Y-430000D01*
X1002684Y-430000D01*
X1007127Y-436650D01*
X1031850Y-461373D01*
X1060922Y-480798D01*
X1093225Y-494179D01*
X1127518Y-501000D01*
X1162482Y-501000D01*
X1196775Y-494179D01*
X1229078Y-480798D01*
X1258150Y-461373D01*
X1272454Y-447069D01*
X1799109Y-447069D01*
X1810534Y-474788D01*
X1841864Y-490310D01*
X1875620Y-499422D01*
X1910505Y-501774D01*
X1945179Y-497274D01*
X1978309Y-486097D01*
X1999466Y-474788D01*
X2010891Y-447069D01*
X1905000Y-341178D01*
X1799109Y-447069D01*
X1272454Y-447069D01*
X1282873Y-436650D01*
X1302298Y-407578D01*
X1315679Y-375275D01*
X1322500Y-340982D01*
X1322500Y-329005D01*
X1726726Y-329005D01*
X1731226Y-363679D01*
X1742403Y-396809D01*
X1753712Y-417966D01*
X1781431Y-429391D01*
X1887322Y-323500D01*
X1922678Y-323500D01*
X2028569Y-429391D01*
X2056288Y-417966D01*
X2071810Y-386636D01*
X2080922Y-352880D01*
X2083274Y-317995D01*
X2078774Y-283321D01*
X2067597Y-250191D01*
X2056288Y-229034D01*
X2028569Y-217609D01*
X1922678Y-323500D01*
X1887322Y-323500D01*
X1781431Y-217609D01*
X1753712Y-229034D01*
X1738190Y-260364D01*
X1729078Y-294120D01*
X1726726Y-329005D01*
X1322500Y-329005D01*
X1322500Y-306018D01*
X1315679Y-271725D01*
X1302298Y-239422D01*
X1282873Y-210350D01*
X1272454Y-199931D01*
X1799109Y-199931D01*
X1905000Y-305822D01*
X2010891Y-199931D01*
X1999466Y-172212D01*
X1968136Y-156690D01*
X1934380Y-147578D01*
X1899495Y-145226D01*
X1864821Y-149726D01*
X1831691Y-160903D01*
X1810534Y-172212D01*
X1799109Y-199931D01*
X1272454Y-199931D01*
X1258150Y-185627D01*
X1257734Y-185349D01*
X1257500Y-182974D01*
X1257500Y-182974D01*
X1255872Y-166446D01*
X1255500Y-165219D01*
X1255500Y-19062D01*
X1259976Y-41566D01*
X1270718Y-67499D01*
X1286313Y-90838D01*
X1306162Y-110687D01*
X1329501Y-126282D01*
X1355434Y-137024D01*
X1382965Y-142500D01*
X1411035Y-142500D01*
X1438566Y-137024D01*
X1464499Y-126282D01*
X1487838Y-110687D01*
X1507687Y-90838D01*
X1523282Y-67499D01*
X1524000Y-65765D01*
X1524718Y-67499D01*
X1540313Y-90838D01*
X1560161Y-110687D01*
X1583501Y-126282D01*
X1609434Y-137024D01*
X1636965Y-142500D01*
X1665035Y-142500D01*
X1692566Y-137024D01*
X1718499Y-126282D01*
X1741838Y-110687D01*
X1761687Y-90838D01*
X1777282Y-67499D01*
X1778444Y-64693D01*
X1790498Y-84827D01*
X1809247Y-105536D01*
X1831676Y-122188D01*
X1856923Y-134145D01*
X1870448Y-138248D01*
X1892500Y-126258D01*
X1892500Y-12500D01*
X1917500Y-12500D01*
X1917500Y-126258D01*
X1939552Y-138248D01*
X1953077Y-134145D01*
X1978324Y-122188D01*
X2000753Y-105536D01*
X2019502Y-84827D01*
X2033851Y-60859D01*
X2043248Y-34552D01*
X2031326Y-12500D01*
X1917500Y-12500D01*
X1892500Y-12500D01*
X1890500Y-12500D01*
X1890500Y12500D01*
X1892500Y12500D01*
X1892500Y126258D01*
X1917500Y126258D01*
X1917500Y12500D01*
X2031326Y12500D01*
X2043248Y34552D01*
X2033851Y60859D01*
X2019502Y84827D01*
X2000753Y105536D01*
X1978324Y122188D01*
X1953077Y134145D01*
X1939552Y138248D01*
X1917500Y126258D01*
X1892500Y126258D01*
X1870448Y138248D01*
X1856923Y134145D01*
X1831676Y122188D01*
X1809247Y105536D01*
X1790498Y84827D01*
X1778444Y64693D01*
X1777282Y67499D01*
X1761687Y90838D01*
X1741838Y110687D01*
X1718499Y126282D01*
X1692566Y137024D01*
X1665035Y142500D01*
X1636965Y142500D01*
X1609434Y137024D01*
X1583501Y126282D01*
X1560161Y110687D01*
X1540313Y90838D01*
X1524718Y67499D01*
X1524000Y65765D01*
X1523282Y67499D01*
X1507687Y90838D01*
X1487838Y110687D01*
X1464499Y126282D01*
X1438566Y137024D01*
X1411035Y142500D01*
X1382965Y142500D01*
X1355434Y137024D01*
X1329501Y126282D01*
X1306162Y110687D01*
X1286313Y90838D01*
X1270718Y67499D01*
X1259976Y41566D01*
X1255500Y19062D01*
X1255500Y669432D01*
X1258978Y657967D01*
X1264782Y647109D01*
X1272592Y637592D01*
X1282109Y629782D01*
X1292967Y623978D01*
X1304748Y620404D01*
X1317000Y619198D01*
X1477000Y619198D01*
X1489252Y620404D01*
X1501033Y623978D01*
X1511891Y629782D01*
X1521408Y637592D01*
X1529218Y647109D01*
X1535022Y657967D01*
X1538596Y669748D01*
X1538938Y673220D01*
X1540313Y671162D01*
X1560161Y651313D01*
X1583501Y635718D01*
X1609434Y624976D01*
X1636965Y619500D01*
X1665035Y619500D01*
X1692566Y624976D01*
X1718499Y635718D01*
X1741838Y651313D01*
X1761687Y671162D01*
X1777282Y694501D01*
X1778000Y696235D01*
X1778718Y694501D01*
X1794313Y671162D01*
X1814161Y651313D01*
X1837501Y635718D01*
X1863434Y624976D01*
X1890965Y619500D01*
X1919035Y619500D01*
X1946566Y624976D01*
X1972499Y635718D01*
X1995838Y651313D01*
X2015687Y671162D01*
X2031282Y694501D01*
X2042024Y720434D01*
X2047500Y747965D01*
X2047500Y776035D01*
X2042024Y803566D01*
X2031282Y829499D01*
X2015687Y852838D01*
X1995838Y872687D01*
X1972499Y888282D01*
X1970765Y889000D01*
X1972499Y889718D01*
X1995838Y905313D01*
X2015687Y925161D01*
X2031282Y948501D01*
X2042024Y974434D01*
X2047500Y1001965D01*
X2047500Y1030035D01*
X2042024Y1057566D01*
X2031282Y1083499D01*
X2015687Y1106839D01*
X1995838Y1126687D01*
X1972499Y1142282D01*
X1946566Y1153024D01*
X1919035Y1158500D01*
X1890965Y1158500D01*
X1863434Y1153024D01*
X1837501Y1142282D01*
X1814161Y1126687D01*
X1794313Y1106839D01*
X1778718Y1083499D01*
X1767976Y1057566D01*
X1762500Y1030035D01*
X1762500Y1001965D01*
X1767976Y974434D01*
X1778718Y948501D01*
X1794313Y925161D01*
X1814161Y905313D01*
X1837501Y889718D01*
X1839235Y889000D01*
X1837501Y888282D01*
X1814161Y872687D01*
X1794313Y852838D01*
X1778718Y829499D01*
X1778000Y827765D01*
X1777282Y829499D01*
X1761687Y852838D01*
X1741838Y872687D01*
X1718499Y888282D01*
X1692566Y899024D01*
X1665035Y904500D01*
X1636965Y904500D01*
X1609434Y899024D01*
X1583501Y888282D01*
X1560161Y872687D01*
X1540313Y852838D01*
X1538938Y850780D01*
X1538596Y854252D01*
X1535022Y866033D01*
X1529218Y876891D01*
X1521408Y886408D01*
X1511891Y894218D01*
X1509500Y895496D01*
X1509500Y1377938D01*
X1513976Y1355434D01*
X1524718Y1329501D01*
X1540313Y1306162D01*
X1560161Y1286313D01*
X1583501Y1270718D01*
X1609434Y1259976D01*
X1636965Y1254500D01*
X1665035Y1254500D01*
X1692566Y1259976D01*
X1718499Y1270718D01*
X1741838Y1286313D01*
X1761687Y1306162D01*
X1777282Y1329501D01*
X1788024Y1355434D01*
X1793500Y1382965D01*
X1793500Y1411035D01*
X1788024Y1438566D01*
X1777282Y1464499D01*
X1761687Y1487838D01*
X1741838Y1507687D01*
X1726457Y1517965D01*
X2121217Y1517965D01*
X2125560Y1485933D01*
X2136070Y1455364D01*
X2145635Y1437469D01*
X2171983Y1427660D01*
X2268322Y1524000D01*
X2171983Y1620340D01*
X2145635Y1610531D01*
X2131450Y1581484D01*
X2123205Y1550228D01*
X2121217Y1517965D01*
X1726457Y1517965D01*
X1718499Y1523282D01*
X1692566Y1534024D01*
X1665035Y1539500D01*
X1636965Y1539500D01*
X1609434Y1534024D01*
X1583501Y1523282D01*
X1560161Y1507687D01*
X1540313Y1487838D01*
X1524718Y1464499D01*
X1513976Y1438566D01*
X1509500Y1416062D01*
X1509500Y1644504D01*
X1511891Y1645782D01*
X1521408Y1653592D01*
X1529218Y1663109D01*
X1535022Y1673967D01*
X1538596Y1685748D01*
X1539802Y1698000D01*
X1539802Y1858000D01*
X1538596Y1870252D01*
X1535022Y1882033D01*
X1529218Y1892891D01*
X1521408Y1902408D01*
X1511891Y1910218D01*
X1501033Y1916022D01*
X1489568Y1919500D01*
X1816875Y1919500D01*
X1837501Y1905718D01*
X1863434Y1894976D01*
X1890965Y1889500D01*
X1919035Y1889500D01*
X1946566Y1894976D01*
X1972499Y1905718D01*
X1995838Y1921313D01*
X2015687Y1941161D01*
X2031282Y1964501D01*
X2042024Y1990434D01*
X2047500Y2017965D01*
X2047500Y2046035D01*
X2042024Y2073566D01*
X2031282Y2099499D01*
X2015687Y2122839D01*
X1995838Y2142687D01*
X1972499Y2158282D01*
X1946566Y2169024D01*
X1919035Y2174500D01*
X1890965Y2174500D01*
X1863434Y2169024D01*
X1837501Y2158282D01*
X1816875Y2144500D01*
X1255500Y2144500D01*
X1255500Y2409264D01*
X1274288Y2390476D01*
X1305817Y2369409D01*
X1340850Y2354898D01*
X1378040Y2347500D01*
X1415960Y2347500D01*
X1453150Y2354898D01*
X1488183Y2369409D01*
X1519712Y2390476D01*
X1546524Y2417288D01*
X1567591Y2448817D01*
X1582102Y2483850D01*
X1589500Y2521040D01*
X1589500Y2558960D01*
X1583027Y2591500D01*
X1691956Y2591500D01*
X1691956Y2361500D01*
X1694128Y2339446D01*
X1700561Y2318240D01*
X1711007Y2298696D01*
X1725066Y2281566D01*
X1742196Y2267507D01*
X1761740Y2257061D01*
X1782946Y2250628D01*
X1805000Y2248456D01*
X2005000Y2248456D01*
X2027054Y2250628D01*
X2048260Y2257061D01*
X2067804Y2267507D01*
X2084934Y2281566D01*
X2098993Y2298696D01*
X2109439Y2318240D01*
X2115872Y2339446D01*
X2118044Y2361500D01*
X2118044Y2591500D01*
X2115872Y2613554D01*
X2109439Y2634760D01*
X2098993Y2654304D01*
X2084934Y2671434D01*
X2067804Y2685493D01*
X2065013Y2686985D01*
X2075591Y2702817D01*
X2090102Y2737850D01*
X2097500Y2775040D01*
X2097500Y2812960D01*
X2090102Y2850150D01*
X2075591Y2885183D01*
X2054524Y2916712D01*
X2027712Y2943524D01*
X1996183Y2964591D01*
X1961150Y2979102D01*
X1923960Y2986500D01*
X1886040Y2986500D01*
X1848850Y2979102D01*
X1813817Y2964591D01*
X1782288Y2943524D01*
X1755475Y2916712D01*
X1734409Y2885183D01*
X1719898Y2850150D01*
X1712500Y2812960D01*
X1712500Y2775040D01*
X1719898Y2737850D01*
X1734409Y2702817D01*
X1744987Y2686985D01*
X1742196Y2685493D01*
X1725066Y2671434D01*
X1711007Y2654304D01*
X1700561Y2634760D01*
X1694128Y2613554D01*
X1691956Y2591500D01*
X1583027Y2591500D01*
X1582102Y2596150D01*
X1567591Y2631183D01*
X1546524Y2662712D01*
X1519712Y2689525D01*
X1488183Y2710591D01*
X1453150Y2725102D01*
X1415960Y2732500D01*
X1378040Y2732500D01*
X1340850Y2725102D01*
X1305817Y2710591D01*
X1274288Y2689525D01*
X1255500Y2670736D01*
X1255500Y2915474D01*
X1255661Y2917103D01*
X1274288Y2898475D01*
X1305817Y2877409D01*
X1340850Y2862898D01*
X1378040Y2855500D01*
X1415960Y2855500D01*
X1453150Y2862898D01*
X1488183Y2877409D01*
X1519712Y2898475D01*
X1546524Y2925288D01*
X1567591Y2956817D01*
X1582102Y2991850D01*
X1589500Y3029040D01*
X1589500Y3066960D01*
X1582102Y3104150D01*
X1567591Y3139183D01*
X1546524Y3170712D01*
X1519712Y3197524D01*
X1488183Y3218591D01*
X1453150Y3233102D01*
X1415960Y3240500D01*
X1378040Y3240500D01*
X1340850Y3233102D01*
X1305817Y3218591D01*
X1274288Y3197524D01*
X1247476Y3170712D01*
X1226409Y3139183D01*
X1211898Y3104150D01*
X1204500Y3066960D01*
X1204500Y3029040D01*
X1207093Y3016006D01*
X893426Y3329673D01*
X919924Y3332283D01*
X949660Y3341303D01*
X977065Y3355951D01*
X980259Y3358572D01*
X995388Y3340138D01*
X1027022Y3314176D01*
X1063113Y3294885D01*
X1102274Y3283006D01*
X1143000Y3278995D01*
X1183726Y3283006D01*
X1222887Y3294885D01*
X1235285Y3301512D01*
X1238946Y3298507D01*
X1258490Y3288061D01*
X1279696Y3281628D01*
X1301750Y3279456D01*
X1492250Y3279456D01*
X1514304Y3281628D01*
X1535510Y3288061D01*
X1550297Y3295965D01*
X2121217Y3295965D01*
X2125560Y3263933D01*
X2136070Y3233364D01*
X2145635Y3215469D01*
X2171983Y3205660D01*
X2268322Y3302000D01*
X2171983Y3398340D01*
X2145635Y3388531D01*
X2131450Y3359484D01*
X2123205Y3328228D01*
X2121217Y3295965D01*
X1550297Y3295965D01*
X1555054Y3298507D01*
X1572184Y3312566D01*
X1586243Y3329696D01*
X1596689Y3349240D01*
X1603122Y3370446D01*
X1605294Y3392500D01*
X1605294Y3592500D01*
X1603122Y3614554D01*
X1596689Y3635760D01*
X1586243Y3655304D01*
X1573772Y3670500D01*
X2168428Y3670500D01*
X2158535Y3660608D01*
D27*
X1397000Y0D03*
X1905000Y762000D03*
X1651000Y0D03*
X1651000Y762000D03*
X1905000Y0D03*
X1397000Y762000D03*
X2286000Y-317500D03*
X889000Y-317500D03*
X2286000Y254000D03*
X2286000Y762000D03*
X2286000Y508000D03*
X2286000Y2540000D03*
X2286000Y2286000D03*
X2286000Y1778000D03*
X2286000Y2032000D03*
X2286000Y3556000D03*
X2286000Y1524000D03*
X2286000Y1016000D03*
X2286000Y1270000D03*
X2286000Y2794000D03*
X2286000Y3302000D03*
X2286000Y3048000D03*
X2286000Y0D03*
X0Y3556000D03*
X0Y3302000D03*
X0Y3048000D03*
X0Y2794000D03*
X0Y2540000D03*
X0Y2286000D03*
X0Y2032000D03*
X0Y1778000D03*
X0Y1524000D03*
X0Y1270000D03*
X0Y1016000D03*
X0Y762000D03*
X0Y508000D03*
X0Y254000D03*
X0Y0D03*
X381000Y-317500D03*
X635000Y-317500D03*
X1145000Y-323500D03*
X385000Y2476500D03*
X1905000Y2476500D03*
X1905000Y-323500D03*
X1905000Y2032000D03*
X1905000Y1016000D03*
X635000Y1397000D03*
X1651000Y1397000D03*
X889000Y2794000D03*
X1905000Y2794000D03*
X381000Y1143000D03*
X381000Y2159000D03*
X1397000Y3048000D03*
X381000Y3048000D03*
X1397000Y1778000D03*
X889000Y2540000D03*
X889000Y1778000D03*
X1397000Y2540000D03*
X889000Y762000D03*
X381000Y0D03*
X635000Y762000D03*
X635000Y0D03*
X381000Y762000D03*
X889000Y0D03*
X889000Y3492500D03*
X1143000Y3492500D03*
X1397000Y3492500D03*
X1905000Y4127500D03*
X1397000Y4127500D03*
X889000Y4127500D03*
X381000Y4127500D03*
M02*
