M48
METRIC
T1C0.500
T2C0.700
T3C0.750
T4C0.800
T5C0.900
T6C1.000
T7C1.016
T8C1.100
%
G90
G05
T1
X6.985Y19.05
X9.525Y19.05
X12.065Y19.05
X14.605Y19.05
T2
X20.32Y15.24
X20.32Y7.62
X2.54Y22.86
X2.54Y15.24
X20.32Y7.62
X20.32Y0.0
X4.445Y38.1
X9.525Y38.1
X12.065Y38.1
X17.78Y25.4
X17.78Y17.78
T3
X6.35Y24.13
X7.62Y24.13
X8.89Y24.13
X12.065Y24.13
X13.335Y24.13
X14.605Y24.13
T4
X2.54Y33.02
X2.54Y25.4
T5
X15.875Y38.1
X18.415Y38.1
T6
X7.62Y-4.445
X10.16Y-4.445
X12.7Y-4.445
X15.24Y-4.445
X20.32Y35.56
X20.32Y33.02
X20.32Y30.48
X20.32Y27.94
X2.54Y10.16
X2.54Y7.62
X2.54Y5.08
X8.89Y-1.27
X11.43Y-1.27
X13.97Y-1.27
X6.35Y33.02
X6.35Y27.94
X8.89Y33.02
X8.89Y27.94
X16.51Y33.02
X16.51Y27.94
T7
X0.0Y35.56
X0.0Y33.02
X0.0Y30.48
X0.0Y27.94
X0.0Y25.4
X0.0Y22.86
X0.0Y20.32
X0.0Y17.78
X0.0Y15.24
X0.0Y12.7
X0.0Y10.16
X0.0Y7.62
X0.0Y5.08
X0.0Y2.54
X0.0Y0.0
X22.86Y35.56
X22.86Y33.02
X22.86Y30.48
X22.86Y27.94
X22.86Y25.4
X22.86Y22.86
X22.86Y20.32
X22.86Y17.78
X22.86Y15.24
X22.86Y12.7
X22.86Y10.16
X22.86Y7.62
X22.86Y5.08
X22.86Y2.54
X22.86Y0.0
T8
X4.445Y38.1
X6.985Y38.1
X9.525Y38.1
X12.065Y38.1
T0
M30
