%TF.GenerationSoftware,KiCad,Pcbnew,5.1.5+dfsg1-2~bpo10+1*%
%TF.CreationDate,2020-10-04T09:46:05+00:00*%
%TF.ProjectId,PIS,5049532e-6b69-4636-9164-5f7063625858,rev?*%
%TF.SameCoordinates,Original*%
%TF.FileFunction,Legend,Bot*%
%TF.FilePolarity,Positive*%
%FSLAX45Y45*%
G04 Gerber Fmt 4.5, Leading zero omitted, Abs format (unit mm)*
G04 Created by KiCad (PCBNEW 5.1.5+dfsg1-2~bpo10+1) date 2020-10-04 09:46:05*
%MOMM*%
%LPD*%
G04 APERTURE LIST*
%ADD10C,0.150000*%
%ADD11C,0.400000*%
%ADD12C,0.250000*%
%ADD13C,0.120000*%
%ADD14C,0.010000*%
%ADD15C,2.500000*%
%ADD16R,2.500000X2.500000*%
%ADD17C,1.800000*%
%ADD18O,2.100000X2.100000*%
%ADD19R,2.100000X2.100000*%
%ADD20O,1.400000X1.400000*%
%ADD21R,1.400000X1.400000*%
%ADD22O,1.800000X1.800000*%
%ADD23C,2.200000*%
%ADD24R,2.200000X2.200000*%
%ADD25R,1.450000X1.900000*%
%ADD26O,1.450000X1.900000*%
%ADD27O,2.000000X2.000000*%
%ADD28R,2.000000X2.000000*%
%ADD29C,2.400000*%
%ADD30R,2.400000X2.400000*%
%ADD31C,3.600000*%
%ADD32C,2.432000*%
%ADD33R,2.432000X2.432000*%
G04 APERTURE END LIST*
D10*
X643929Y-3536309D02*
X651548Y-3536309D01*
X659167Y-3532500D01*
X662976Y-3528690D01*
X666786Y-3521071D01*
X670595Y-3505833D01*
X670595Y-3486786D01*
X666786Y-3471548D01*
X662976Y-3463928D01*
X659167Y-3460119D01*
X651548Y-3456309D01*
X643929Y-3456309D01*
X636310Y-3460119D01*
X632500Y-3463928D01*
X628690Y-3471548D01*
X624881Y-3486786D01*
X624881Y-3505833D01*
X628690Y-3521071D01*
X632500Y-3528690D01*
X636310Y-3532500D01*
X643929Y-3536309D01*
X701071Y-3528690D02*
X704881Y-3532500D01*
X712500Y-3536309D01*
X731548Y-3536309D01*
X739167Y-3532500D01*
X742976Y-3528690D01*
X746786Y-3521071D01*
X746786Y-3513452D01*
X742976Y-3502024D01*
X697262Y-3456309D01*
X746786Y-3456309D01*
X781071Y-3463928D02*
X784881Y-3460119D01*
X781071Y-3456309D01*
X777262Y-3460119D01*
X781071Y-3463928D01*
X781071Y-3456309D01*
X834405Y-3536309D02*
X842024Y-3536309D01*
X849643Y-3532500D01*
X853452Y-3528690D01*
X857262Y-3521071D01*
X861071Y-3505833D01*
X861071Y-3486786D01*
X857262Y-3471548D01*
X853452Y-3463928D01*
X849643Y-3460119D01*
X842024Y-3456309D01*
X834405Y-3456309D01*
X826786Y-3460119D01*
X822976Y-3463928D01*
X819167Y-3471548D01*
X815357Y-3486786D01*
X815357Y-3505833D01*
X819167Y-3521071D01*
X822976Y-3528690D01*
X826786Y-3532500D01*
X834405Y-3536309D01*
X891548Y-3528690D02*
X895357Y-3532500D01*
X902976Y-3536309D01*
X922024Y-3536309D01*
X929643Y-3532500D01*
X933452Y-3528690D01*
X937262Y-3521071D01*
X937262Y-3513452D01*
X933452Y-3502024D01*
X887738Y-3456309D01*
X937262Y-3456309D01*
X971548Y-3463928D02*
X975357Y-3460119D01*
X971548Y-3456309D01*
X967738Y-3460119D01*
X971548Y-3463928D01*
X971548Y-3456309D01*
X1005833Y-3528690D02*
X1009643Y-3532500D01*
X1017262Y-3536309D01*
X1036309Y-3536309D01*
X1043928Y-3532500D01*
X1047738Y-3528690D01*
X1051548Y-3521071D01*
X1051548Y-3513452D01*
X1047738Y-3502024D01*
X1002024Y-3456309D01*
X1051548Y-3456309D01*
X1101071Y-3536309D02*
X1108690Y-3536309D01*
X1116310Y-3532500D01*
X1120119Y-3528690D01*
X1123929Y-3521071D01*
X1127738Y-3505833D01*
X1127738Y-3486786D01*
X1123929Y-3471548D01*
X1120119Y-3463928D01*
X1116310Y-3460119D01*
X1108690Y-3456309D01*
X1101071Y-3456309D01*
X1093452Y-3460119D01*
X1089643Y-3463928D01*
X1085833Y-3471548D01*
X1082024Y-3486786D01*
X1082024Y-3505833D01*
X1085833Y-3521071D01*
X1089643Y-3528690D01*
X1093452Y-3532500D01*
X1101071Y-3536309D01*
X1203929Y-3456309D02*
X1158214Y-3456309D01*
X1181071Y-3456309D02*
X1181071Y-3536309D01*
X1173452Y-3524881D01*
X1165833Y-3517262D01*
X1158214Y-3513452D01*
X1242024Y-3456309D02*
X1257262Y-3456309D01*
X1264881Y-3460119D01*
X1268690Y-3463928D01*
X1276310Y-3475357D01*
X1280119Y-3490595D01*
X1280119Y-3521071D01*
X1276310Y-3528690D01*
X1272500Y-3532500D01*
X1264881Y-3536309D01*
X1249643Y-3536309D01*
X1242024Y-3532500D01*
X1238214Y-3528690D01*
X1234405Y-3521071D01*
X1234405Y-3502024D01*
X1238214Y-3494405D01*
X1242024Y-3490595D01*
X1249643Y-3486786D01*
X1264881Y-3486786D01*
X1272500Y-3490595D01*
X1276310Y-3494405D01*
X1280119Y-3502024D01*
D11*
X1723083Y-2891833D02*
X1731417Y-2908500D01*
X1739750Y-2916833D01*
X1756417Y-2925167D01*
X1806417Y-2925167D01*
X1823083Y-2916833D01*
X1831417Y-2908500D01*
X1839750Y-2891833D01*
X1839750Y-2866833D01*
X1831417Y-2850167D01*
X1823083Y-2841833D01*
X1806417Y-2833500D01*
X1756417Y-2833500D01*
X1739750Y-2841833D01*
X1731417Y-2850167D01*
X1723083Y-2866833D01*
X1723083Y-2891833D01*
X1839750Y-2758500D02*
X1664750Y-2758500D01*
X1831417Y-2758500D02*
X1839750Y-2741833D01*
X1839750Y-2708500D01*
X1831417Y-2691833D01*
X1823083Y-2683500D01*
X1806417Y-2675167D01*
X1756417Y-2675167D01*
X1739750Y-2683500D01*
X1731417Y-2691833D01*
X1723083Y-2708500D01*
X1723083Y-2741833D01*
X1731417Y-2758500D01*
X1731417Y-2533500D02*
X1723083Y-2550167D01*
X1723083Y-2583500D01*
X1731417Y-2600167D01*
X1748083Y-2608500D01*
X1814750Y-2608500D01*
X1831417Y-2600167D01*
X1839750Y-2583500D01*
X1839750Y-2550167D01*
X1831417Y-2533500D01*
X1814750Y-2525167D01*
X1798083Y-2525167D01*
X1781417Y-2608500D01*
X1839750Y-2450167D02*
X1723083Y-2450167D01*
X1823083Y-2450167D02*
X1831417Y-2441833D01*
X1839750Y-2425167D01*
X1839750Y-2400167D01*
X1831417Y-2383500D01*
X1814750Y-2375167D01*
X1723083Y-2375167D01*
X1420583Y-2916833D02*
X1595583Y-2916833D01*
X1420583Y-2841833D02*
X1512250Y-2841833D01*
X1528917Y-2850167D01*
X1537250Y-2866833D01*
X1537250Y-2891833D01*
X1528917Y-2908500D01*
X1520583Y-2916833D01*
X1420583Y-2683500D02*
X1512250Y-2683500D01*
X1528917Y-2691833D01*
X1537250Y-2708500D01*
X1537250Y-2741833D01*
X1528917Y-2758500D01*
X1428917Y-2683500D02*
X1420583Y-2700167D01*
X1420583Y-2741833D01*
X1428917Y-2758500D01*
X1445583Y-2766833D01*
X1462250Y-2766833D01*
X1478917Y-2758500D01*
X1487250Y-2741833D01*
X1487250Y-2700167D01*
X1495583Y-2683500D01*
X1420583Y-2600167D02*
X1537250Y-2600167D01*
X1503917Y-2600167D02*
X1520583Y-2591833D01*
X1528917Y-2583500D01*
X1537250Y-2566833D01*
X1537250Y-2550167D01*
X1420583Y-2416833D02*
X1595583Y-2416833D01*
X1428917Y-2416833D02*
X1420583Y-2433500D01*
X1420583Y-2466833D01*
X1428917Y-2483500D01*
X1437250Y-2491833D01*
X1453917Y-2500167D01*
X1503917Y-2500167D01*
X1520583Y-2491833D01*
X1528917Y-2483500D01*
X1537250Y-2466833D01*
X1537250Y-2433500D01*
X1528917Y-2416833D01*
X1537250Y-2350167D02*
X1420583Y-2316833D01*
X1503917Y-2283500D01*
X1420583Y-2250167D01*
X1537250Y-2216833D01*
X1420583Y-2075167D02*
X1512250Y-2075167D01*
X1528917Y-2083500D01*
X1537250Y-2100167D01*
X1537250Y-2133500D01*
X1528917Y-2150167D01*
X1428917Y-2075167D02*
X1420583Y-2091833D01*
X1420583Y-2133500D01*
X1428917Y-2150167D01*
X1445583Y-2158500D01*
X1462250Y-2158500D01*
X1478917Y-2150167D01*
X1487250Y-2133500D01*
X1487250Y-2091833D01*
X1495583Y-2075167D01*
X1420583Y-1991833D02*
X1537250Y-1991833D01*
X1503917Y-1991833D02*
X1520583Y-1983500D01*
X1528917Y-1975167D01*
X1537250Y-1958500D01*
X1537250Y-1941833D01*
X1428917Y-1816833D02*
X1420583Y-1833500D01*
X1420583Y-1866833D01*
X1428917Y-1883500D01*
X1445583Y-1891833D01*
X1512250Y-1891833D01*
X1528917Y-1883500D01*
X1537250Y-1866833D01*
X1537250Y-1833500D01*
X1528917Y-1816833D01*
X1512250Y-1808500D01*
X1495583Y-1808500D01*
X1478917Y-1891833D01*
D12*
X399262Y-4159048D02*
X499262Y-4159048D01*
X399262Y-4116190D02*
X451643Y-4116190D01*
X461167Y-4120952D01*
X465928Y-4130476D01*
X465928Y-4144762D01*
X461167Y-4154286D01*
X456405Y-4159048D01*
X465928Y-4082857D02*
X465928Y-4044762D01*
X499262Y-4068571D02*
X413548Y-4068571D01*
X404024Y-4063809D01*
X399262Y-4054286D01*
X399262Y-4044762D01*
X465928Y-4025714D02*
X465928Y-3987619D01*
X499262Y-4011428D02*
X413548Y-4011428D01*
X404024Y-4006667D01*
X399262Y-3997143D01*
X399262Y-3987619D01*
X465928Y-3954286D02*
X365928Y-3954286D01*
X461167Y-3954286D02*
X465928Y-3944762D01*
X465928Y-3925714D01*
X461167Y-3916190D01*
X456405Y-3911428D01*
X446881Y-3906667D01*
X418309Y-3906667D01*
X408786Y-3911428D01*
X404024Y-3916190D01*
X399262Y-3925714D01*
X399262Y-3944762D01*
X404024Y-3954286D01*
X404024Y-3868571D02*
X399262Y-3859048D01*
X399262Y-3840000D01*
X404024Y-3830476D01*
X413548Y-3825714D01*
X418309Y-3825714D01*
X427833Y-3830476D01*
X432595Y-3840000D01*
X432595Y-3854286D01*
X437357Y-3863809D01*
X446881Y-3868571D01*
X451643Y-3868571D01*
X461167Y-3863809D01*
X465928Y-3854286D01*
X465928Y-3840000D01*
X461167Y-3830476D01*
X408786Y-3782857D02*
X404024Y-3778095D01*
X399262Y-3782857D01*
X404024Y-3787619D01*
X408786Y-3782857D01*
X399262Y-3782857D01*
X461167Y-3782857D02*
X456405Y-3778095D01*
X451643Y-3782857D01*
X456405Y-3787619D01*
X461167Y-3782857D01*
X451643Y-3782857D01*
X504024Y-3663809D02*
X375452Y-3749524D01*
X504024Y-3559048D02*
X375452Y-3644762D01*
X465928Y-3525714D02*
X399262Y-3525714D01*
X456405Y-3525714D02*
X461167Y-3520952D01*
X465928Y-3511428D01*
X465928Y-3497143D01*
X461167Y-3487619D01*
X451643Y-3482857D01*
X399262Y-3482857D01*
X404024Y-3397143D02*
X399262Y-3406667D01*
X399262Y-3425714D01*
X404024Y-3435238D01*
X413548Y-3440000D01*
X451643Y-3440000D01*
X461167Y-3435238D01*
X465928Y-3425714D01*
X465928Y-3406667D01*
X461167Y-3397143D01*
X451643Y-3392381D01*
X442119Y-3392381D01*
X432595Y-3440000D01*
X399262Y-3349524D02*
X465928Y-3349524D01*
X446881Y-3349524D02*
X456405Y-3344762D01*
X461167Y-3340000D01*
X465928Y-3330476D01*
X465928Y-3320952D01*
X399262Y-3244762D02*
X499262Y-3244762D01*
X404024Y-3244762D02*
X399262Y-3254286D01*
X399262Y-3273333D01*
X404024Y-3282857D01*
X408786Y-3287619D01*
X418309Y-3292381D01*
X446881Y-3292381D01*
X456405Y-3287619D01*
X461167Y-3282857D01*
X465928Y-3273333D01*
X465928Y-3254286D01*
X461167Y-3244762D01*
X465928Y-3206667D02*
X399262Y-3182857D01*
X465928Y-3159048D02*
X399262Y-3182857D01*
X375452Y-3192381D01*
X370690Y-3197143D01*
X365928Y-3206667D01*
X404024Y-3125714D02*
X399262Y-3116190D01*
X399262Y-3097143D01*
X404024Y-3087619D01*
X413548Y-3082857D01*
X418309Y-3082857D01*
X427833Y-3087619D01*
X432595Y-3097143D01*
X432595Y-3111428D01*
X437357Y-3120952D01*
X446881Y-3125714D01*
X451643Y-3125714D01*
X461167Y-3120952D01*
X465928Y-3111428D01*
X465928Y-3097143D01*
X461167Y-3087619D01*
X404024Y-2997143D02*
X399262Y-3006667D01*
X399262Y-3025714D01*
X404024Y-3035238D01*
X408786Y-3040000D01*
X418309Y-3044762D01*
X446881Y-3044762D01*
X456405Y-3040000D01*
X461167Y-3035238D01*
X465928Y-3025714D01*
X465928Y-3006667D01*
X461167Y-2997143D01*
X399262Y-2940000D02*
X404024Y-2949524D01*
X408786Y-2954286D01*
X418309Y-2959048D01*
X446881Y-2959048D01*
X456405Y-2954286D01*
X461167Y-2949524D01*
X465928Y-2940000D01*
X465928Y-2925714D01*
X461167Y-2916190D01*
X456405Y-2911428D01*
X446881Y-2906667D01*
X418309Y-2906667D01*
X408786Y-2911428D01*
X404024Y-2916190D01*
X399262Y-2925714D01*
X399262Y-2940000D01*
X465928Y-2820952D02*
X399262Y-2820952D01*
X465928Y-2863809D02*
X413548Y-2863809D01*
X404024Y-2859048D01*
X399262Y-2849524D01*
X399262Y-2835238D01*
X404024Y-2825714D01*
X408786Y-2820952D01*
X465928Y-2787619D02*
X465928Y-2749524D01*
X499262Y-2773333D02*
X413548Y-2773333D01*
X404024Y-2768571D01*
X399262Y-2759048D01*
X399262Y-2749524D01*
X408786Y-2716190D02*
X404024Y-2711429D01*
X399262Y-2716190D01*
X404024Y-2720952D01*
X408786Y-2716190D01*
X399262Y-2716190D01*
X465928Y-2625714D02*
X384976Y-2625714D01*
X375452Y-2630476D01*
X370690Y-2635238D01*
X365928Y-2644762D01*
X365928Y-2659048D01*
X370690Y-2668571D01*
X404024Y-2625714D02*
X399262Y-2635238D01*
X399262Y-2654286D01*
X404024Y-2663810D01*
X408786Y-2668571D01*
X418309Y-2673333D01*
X446881Y-2673333D01*
X456405Y-2668571D01*
X461167Y-2663810D01*
X465928Y-2654286D01*
X465928Y-2635238D01*
X461167Y-2625714D01*
X399262Y-2578095D02*
X465928Y-2578095D01*
X499262Y-2578095D02*
X494500Y-2582857D01*
X489738Y-2578095D01*
X494500Y-2573333D01*
X499262Y-2578095D01*
X489738Y-2578095D01*
X465928Y-2544762D02*
X465928Y-2506667D01*
X499262Y-2530476D02*
X413548Y-2530476D01*
X404024Y-2525714D01*
X399262Y-2516190D01*
X399262Y-2506667D01*
X399262Y-2473333D02*
X499262Y-2473333D01*
X399262Y-2430476D02*
X451643Y-2430476D01*
X461167Y-2435238D01*
X465928Y-2444762D01*
X465928Y-2459048D01*
X461167Y-2468571D01*
X456405Y-2473333D01*
X465928Y-2340000D02*
X399262Y-2340000D01*
X465928Y-2382857D02*
X413548Y-2382857D01*
X404024Y-2378095D01*
X399262Y-2368571D01*
X399262Y-2354286D01*
X404024Y-2344762D01*
X408786Y-2340000D01*
X399262Y-2292381D02*
X499262Y-2292381D01*
X461167Y-2292381D02*
X465928Y-2282857D01*
X465928Y-2263810D01*
X461167Y-2254286D01*
X456405Y-2249524D01*
X446881Y-2244762D01*
X418309Y-2244762D01*
X408786Y-2249524D01*
X404024Y-2254286D01*
X399262Y-2263810D01*
X399262Y-2282857D01*
X404024Y-2292381D01*
X408786Y-2201905D02*
X404024Y-2197143D01*
X399262Y-2201905D01*
X404024Y-2206667D01*
X408786Y-2201905D01*
X399262Y-2201905D01*
X399262Y-2154286D02*
X465928Y-2154286D01*
X499262Y-2154286D02*
X494500Y-2159048D01*
X489738Y-2154286D01*
X494500Y-2149524D01*
X499262Y-2154286D01*
X489738Y-2154286D01*
X399262Y-2092381D02*
X404024Y-2101905D01*
X408786Y-2106667D01*
X418309Y-2111429D01*
X446881Y-2111429D01*
X456405Y-2106667D01*
X461167Y-2101905D01*
X465928Y-2092381D01*
X465928Y-2078095D01*
X461167Y-2068571D01*
X456405Y-2063809D01*
X446881Y-2059048D01*
X418309Y-2059048D01*
X408786Y-2063809D01*
X404024Y-2068571D01*
X399262Y-2078095D01*
X399262Y-2092381D01*
X504024Y-1944762D02*
X375452Y-2030476D01*
X399262Y-1911428D02*
X499262Y-1911428D01*
X399262Y-1854286D01*
X499262Y-1854286D01*
X399262Y-1792381D02*
X404024Y-1801905D01*
X408786Y-1806667D01*
X418309Y-1811428D01*
X446881Y-1811428D01*
X456405Y-1806667D01*
X461167Y-1801905D01*
X465928Y-1792381D01*
X465928Y-1778095D01*
X461167Y-1768571D01*
X456405Y-1763809D01*
X446881Y-1759048D01*
X418309Y-1759048D01*
X408786Y-1763809D01*
X404024Y-1768571D01*
X399262Y-1778095D01*
X399262Y-1792381D01*
X399262Y-1673333D02*
X499262Y-1673333D01*
X404024Y-1673333D02*
X399262Y-1682857D01*
X399262Y-1701905D01*
X404024Y-1711428D01*
X408786Y-1716190D01*
X418309Y-1720952D01*
X446881Y-1720952D01*
X456405Y-1716190D01*
X461167Y-1711428D01*
X465928Y-1701905D01*
X465928Y-1682857D01*
X461167Y-1673333D01*
X404024Y-1587619D02*
X399262Y-1597143D01*
X399262Y-1616190D01*
X404024Y-1625714D01*
X413548Y-1630476D01*
X451643Y-1630476D01*
X461167Y-1625714D01*
X465928Y-1616190D01*
X465928Y-1597143D01*
X461167Y-1587619D01*
X451643Y-1582857D01*
X442119Y-1582857D01*
X432595Y-1630476D01*
X399262Y-1540000D02*
X499262Y-1540000D01*
X427833Y-1506667D01*
X499262Y-1473333D01*
X399262Y-1473333D01*
X408786Y-1368571D02*
X404024Y-1373333D01*
X399262Y-1387619D01*
X399262Y-1397143D01*
X404024Y-1411428D01*
X413548Y-1420952D01*
X423071Y-1425714D01*
X442119Y-1430476D01*
X456405Y-1430476D01*
X475452Y-1425714D01*
X484976Y-1420952D01*
X494500Y-1411428D01*
X499262Y-1397143D01*
X499262Y-1387619D01*
X494500Y-1373333D01*
X489738Y-1368571D01*
X499262Y-1325714D02*
X418309Y-1325714D01*
X408786Y-1320952D01*
X404024Y-1316190D01*
X399262Y-1306667D01*
X399262Y-1287619D01*
X404024Y-1278095D01*
X408786Y-1273333D01*
X418309Y-1268571D01*
X499262Y-1268571D01*
X504024Y-1149524D02*
X375452Y-1235238D01*
X399262Y-1116190D02*
X499262Y-1116190D01*
X499262Y-1078095D01*
X494500Y-1068571D01*
X489738Y-1063810D01*
X480214Y-1059048D01*
X465928Y-1059048D01*
X456405Y-1063810D01*
X451643Y-1068571D01*
X446881Y-1078095D01*
X446881Y-1116190D01*
X399262Y-1016190D02*
X499262Y-1016190D01*
X404024Y-973333D02*
X399262Y-959048D01*
X399262Y-935238D01*
X404024Y-925714D01*
X408786Y-920952D01*
X418309Y-916190D01*
X427833Y-916190D01*
X437357Y-920952D01*
X442119Y-925714D01*
X446881Y-935238D01*
X451643Y-954286D01*
X456405Y-963809D01*
X461167Y-968571D01*
X470690Y-973333D01*
X480214Y-973333D01*
X489738Y-968571D01*
X494500Y-963809D01*
X499262Y-954286D01*
X499262Y-930476D01*
X494500Y-916190D01*
D13*
X-190500Y507511D02*
G75*
G02X-63500Y634511I127000J0D01*
G01*
X2476500Y-4127500D02*
G75*
G02X2349500Y-4254500I-127000J0D01*
G01*
X2349500Y634511D02*
G75*
G02X2476500Y507511I0J-127000D01*
G01*
X-63500Y-4254989D02*
G75*
G02X-190500Y-4127989I0J127000D01*
G01*
X2476500Y-4127500D02*
X2476500Y508000D01*
X-63500Y-4254500D02*
X2349500Y-4254500D01*
X-190500Y508000D02*
X-190500Y-4127500D01*
X2349500Y634511D02*
X-63500Y634511D01*
D14*
G36*
X1312351Y-2876108D02*
G01*
X1308776Y-2865797D01*
X1303149Y-2856198D01*
X1295471Y-2847625D01*
X1285743Y-2840393D01*
X1279611Y-2837144D01*
X1271034Y-2834333D01*
X1261132Y-2832970D01*
X1250953Y-2833121D01*
X1241729Y-2834797D01*
X1230457Y-2839376D01*
X1220679Y-2846017D01*
X1212589Y-2854381D01*
X1206377Y-2864131D01*
X1202237Y-2874930D01*
X1200360Y-2886440D01*
X1200940Y-2898323D01*
X1202179Y-2904181D01*
X1206620Y-2915597D01*
X1213397Y-2925736D01*
X1222300Y-2934354D01*
X1233121Y-2941207D01*
X1234303Y-2941786D01*
X1238737Y-2943790D01*
X1242472Y-2945049D01*
X1246412Y-2945732D01*
X1251462Y-2946010D01*
X1256957Y-2946057D01*
X1263559Y-2945980D01*
X1268331Y-2945635D01*
X1272190Y-2944848D01*
X1276049Y-2943444D01*
X1279857Y-2941712D01*
X1290667Y-2935250D01*
X1299420Y-2927293D01*
X1306116Y-2918156D01*
X1310756Y-2908154D01*
X1313342Y-2897601D01*
X1313873Y-2886814D01*
X1312351Y-2876108D01*
G37*
X1312351Y-2876108D02*
X1308776Y-2865797D01*
X1303149Y-2856198D01*
X1295471Y-2847625D01*
X1285743Y-2840393D01*
X1279611Y-2837144D01*
X1271034Y-2834333D01*
X1261132Y-2832970D01*
X1250953Y-2833121D01*
X1241729Y-2834797D01*
X1230457Y-2839376D01*
X1220679Y-2846017D01*
X1212589Y-2854381D01*
X1206377Y-2864131D01*
X1202237Y-2874930D01*
X1200360Y-2886440D01*
X1200940Y-2898323D01*
X1202179Y-2904181D01*
X1206620Y-2915597D01*
X1213397Y-2925736D01*
X1222300Y-2934354D01*
X1233121Y-2941207D01*
X1234303Y-2941786D01*
X1238737Y-2943790D01*
X1242472Y-2945049D01*
X1246412Y-2945732D01*
X1251462Y-2946010D01*
X1256957Y-2946057D01*
X1263559Y-2945980D01*
X1268331Y-2945635D01*
X1272190Y-2944848D01*
X1276049Y-2943444D01*
X1279857Y-2941712D01*
X1290667Y-2935250D01*
X1299420Y-2927293D01*
X1306116Y-2918156D01*
X1310756Y-2908154D01*
X1313342Y-2897601D01*
X1313873Y-2886814D01*
X1312351Y-2876108D01*
G36*
X1220318Y-1919273D02*
G01*
X1220270Y-1907596D01*
X1220246Y-1903627D01*
X1219887Y-1849051D01*
X1010508Y-1848365D01*
X982116Y-1848274D01*
X956336Y-1848194D01*
X933035Y-1848118D01*
X912081Y-1848043D01*
X893338Y-1847962D01*
X876675Y-1847871D01*
X861957Y-1847765D01*
X849052Y-1847638D01*
X837826Y-1847484D01*
X828146Y-1847300D01*
X819877Y-1847080D01*
X812888Y-1846818D01*
X807044Y-1846509D01*
X802213Y-1846149D01*
X798260Y-1845732D01*
X795053Y-1845253D01*
X792458Y-1844707D01*
X790341Y-1844088D01*
X788570Y-1843392D01*
X787011Y-1842613D01*
X785531Y-1841746D01*
X783996Y-1840786D01*
X782272Y-1839728D01*
X781905Y-1839512D01*
X775697Y-1835873D01*
X776057Y-1888457D01*
X776416Y-1941041D01*
X787967Y-1941727D01*
X793510Y-1942101D01*
X796715Y-1942490D01*
X797986Y-1943019D01*
X797730Y-1943810D01*
X796998Y-1944473D01*
X794329Y-1947363D01*
X790898Y-1952072D01*
X787115Y-1957938D01*
X783391Y-1964297D01*
X780135Y-1970485D01*
X777992Y-1975237D01*
X774472Y-1986368D01*
X771978Y-1999140D01*
X770606Y-2012610D01*
X770451Y-2025834D01*
X771609Y-2037869D01*
X771643Y-2038067D01*
X775775Y-2054536D01*
X782359Y-2069952D01*
X791253Y-2084167D01*
X802315Y-2097032D01*
X815404Y-2108399D01*
X830378Y-2118119D01*
X847097Y-2126043D01*
X859481Y-2130357D01*
X869842Y-2133202D01*
X879875Y-2135312D01*
X890189Y-2136751D01*
X901394Y-2137584D01*
X914100Y-2137876D01*
X924475Y-2137747D01*
X924475Y-2036435D01*
X907078Y-2035956D01*
X892110Y-2034443D01*
X879440Y-2031851D01*
X868934Y-2028134D01*
X860459Y-2023243D01*
X853883Y-2017134D01*
X849234Y-2010082D01*
X847499Y-2006413D01*
X846458Y-2003230D01*
X845982Y-1999682D01*
X845940Y-1994916D01*
X846125Y-1989781D01*
X847016Y-1979683D01*
X848760Y-1971696D01*
X849634Y-1969186D01*
X852214Y-1963455D01*
X855455Y-1957410D01*
X857077Y-1954770D01*
X861579Y-1947905D01*
X1004302Y-1947905D01*
X1008828Y-1955457D01*
X1013943Y-1965988D01*
X1016968Y-1976747D01*
X1017920Y-1987342D01*
X1016819Y-1997378D01*
X1013682Y-2006461D01*
X1008526Y-2014199D01*
X1006051Y-2016696D01*
X997942Y-2022714D01*
X988127Y-2027585D01*
X976436Y-2031350D01*
X962701Y-2034049D01*
X946756Y-2035722D01*
X928430Y-2036412D01*
X924475Y-2036435D01*
X924475Y-2137747D01*
X928793Y-2137693D01*
X951395Y-2136535D01*
X971781Y-2134208D01*
X990249Y-2130650D01*
X1007095Y-2125799D01*
X1022617Y-2119594D01*
X1027219Y-2117380D01*
X1042226Y-2108462D01*
X1055562Y-2097684D01*
X1067012Y-2085301D01*
X1076361Y-2071566D01*
X1083393Y-2056732D01*
X1086294Y-2047840D01*
X1088016Y-2039107D01*
X1089041Y-2028599D01*
X1089368Y-2017197D01*
X1088999Y-2005782D01*
X1087934Y-1995235D01*
X1086263Y-1986767D01*
X1082986Y-1976687D01*
X1078772Y-1966918D01*
X1074048Y-1958370D01*
X1070842Y-1953821D01*
X1068458Y-1950683D01*
X1067006Y-1948486D01*
X1066800Y-1947986D01*
X1068128Y-1947831D01*
X1071934Y-1947686D01*
X1077948Y-1947556D01*
X1085903Y-1947442D01*
X1095529Y-1947348D01*
X1106558Y-1947277D01*
X1118722Y-1947233D01*
X1131112Y-1947219D01*
X1146980Y-1947227D01*
X1160359Y-1947266D01*
X1171504Y-1947360D01*
X1180671Y-1947532D01*
X1188115Y-1947804D01*
X1194093Y-1948200D01*
X1198860Y-1948743D01*
X1202673Y-1949456D01*
X1205787Y-1950362D01*
X1208458Y-1951483D01*
X1210942Y-1952844D01*
X1213496Y-1954467D01*
X1213812Y-1954676D01*
X1217119Y-1956769D01*
X1219393Y-1958033D01*
X1219873Y-1958203D01*
X1220024Y-1956878D01*
X1220147Y-1953100D01*
X1220240Y-1947158D01*
X1220301Y-1939346D01*
X1220327Y-1929953D01*
X1220318Y-1919273D01*
G37*
X1220318Y-1919273D02*
X1220270Y-1907596D01*
X1220246Y-1903627D01*
X1219887Y-1849051D01*
X1010508Y-1848365D01*
X982116Y-1848274D01*
X956336Y-1848194D01*
X933035Y-1848118D01*
X912081Y-1848043D01*
X893338Y-1847962D01*
X876675Y-1847871D01*
X861957Y-1847765D01*
X849052Y-1847638D01*
X837826Y-1847484D01*
X828146Y-1847300D01*
X819877Y-1847080D01*
X812888Y-1846818D01*
X807044Y-1846509D01*
X802213Y-1846149D01*
X798260Y-1845732D01*
X795053Y-1845253D01*
X792458Y-1844707D01*
X790341Y-1844088D01*
X788570Y-1843392D01*
X787011Y-1842613D01*
X785531Y-1841746D01*
X783996Y-1840786D01*
X782272Y-1839728D01*
X781905Y-1839512D01*
X775697Y-1835873D01*
X776057Y-1888457D01*
X776416Y-1941041D01*
X787967Y-1941727D01*
X793510Y-1942101D01*
X796715Y-1942490D01*
X797986Y-1943019D01*
X797730Y-1943810D01*
X796998Y-1944473D01*
X794329Y-1947363D01*
X790898Y-1952072D01*
X787115Y-1957938D01*
X783391Y-1964297D01*
X780135Y-1970485D01*
X777992Y-1975237D01*
X774472Y-1986368D01*
X771978Y-1999140D01*
X770606Y-2012610D01*
X770451Y-2025834D01*
X771609Y-2037869D01*
X771643Y-2038067D01*
X775775Y-2054536D01*
X782359Y-2069952D01*
X791253Y-2084167D01*
X802315Y-2097032D01*
X815404Y-2108399D01*
X830378Y-2118119D01*
X847097Y-2126043D01*
X859481Y-2130357D01*
X869842Y-2133202D01*
X879875Y-2135312D01*
X890189Y-2136751D01*
X901394Y-2137584D01*
X914100Y-2137876D01*
X924475Y-2137747D01*
X924475Y-2036435D01*
X907078Y-2035956D01*
X892110Y-2034443D01*
X879440Y-2031851D01*
X868934Y-2028134D01*
X860459Y-2023243D01*
X853883Y-2017134D01*
X849234Y-2010082D01*
X847499Y-2006413D01*
X846458Y-2003230D01*
X845982Y-1999682D01*
X845940Y-1994916D01*
X846125Y-1989781D01*
X847016Y-1979683D01*
X848760Y-1971696D01*
X849634Y-1969186D01*
X852214Y-1963455D01*
X855455Y-1957410D01*
X857077Y-1954770D01*
X861579Y-1947905D01*
X1004302Y-1947905D01*
X1008828Y-1955457D01*
X1013943Y-1965988D01*
X1016968Y-1976747D01*
X1017920Y-1987342D01*
X1016819Y-1997378D01*
X1013682Y-2006461D01*
X1008526Y-2014199D01*
X1006051Y-2016696D01*
X997942Y-2022714D01*
X988127Y-2027585D01*
X976436Y-2031350D01*
X962701Y-2034049D01*
X946756Y-2035722D01*
X928430Y-2036412D01*
X924475Y-2036435D01*
X924475Y-2137747D01*
X928793Y-2137693D01*
X951395Y-2136535D01*
X971781Y-2134208D01*
X990249Y-2130650D01*
X1007095Y-2125799D01*
X1022617Y-2119594D01*
X1027219Y-2117380D01*
X1042226Y-2108462D01*
X1055562Y-2097684D01*
X1067012Y-2085301D01*
X1076361Y-2071566D01*
X1083393Y-2056732D01*
X1086294Y-2047840D01*
X1088016Y-2039107D01*
X1089041Y-2028599D01*
X1089368Y-2017197D01*
X1088999Y-2005782D01*
X1087934Y-1995235D01*
X1086263Y-1986767D01*
X1082986Y-1976687D01*
X1078772Y-1966918D01*
X1074048Y-1958370D01*
X1070842Y-1953821D01*
X1068458Y-1950683D01*
X1067006Y-1948486D01*
X1066800Y-1947986D01*
X1068128Y-1947831D01*
X1071934Y-1947686D01*
X1077948Y-1947556D01*
X1085903Y-1947442D01*
X1095529Y-1947348D01*
X1106558Y-1947277D01*
X1118722Y-1947233D01*
X1131112Y-1947219D01*
X1146980Y-1947227D01*
X1160359Y-1947266D01*
X1171504Y-1947360D01*
X1180671Y-1947532D01*
X1188115Y-1947804D01*
X1194093Y-1948200D01*
X1198860Y-1948743D01*
X1202673Y-1949456D01*
X1205787Y-1950362D01*
X1208458Y-1951483D01*
X1210942Y-1952844D01*
X1213496Y-1954467D01*
X1213812Y-1954676D01*
X1217119Y-1956769D01*
X1219393Y-1958033D01*
X1219873Y-1958203D01*
X1220024Y-1956878D01*
X1220147Y-1953100D01*
X1220240Y-1947158D01*
X1220301Y-1939346D01*
X1220327Y-1929953D01*
X1220318Y-1919273D01*
G36*
X1089577Y-2286750D02*
G01*
X1089062Y-2279947D01*
X1086473Y-2260484D01*
X1082343Y-2243247D01*
X1076615Y-2228153D01*
X1069233Y-2215118D01*
X1060139Y-2204057D01*
X1049278Y-2194887D01*
X1036591Y-2187523D01*
X1022865Y-2182146D01*
X1018486Y-2180781D01*
X1014386Y-2179593D01*
X1010343Y-2178567D01*
X1006137Y-2177689D01*
X1001547Y-2176945D01*
X996352Y-2176322D01*
X990331Y-2175805D01*
X983265Y-2175380D01*
X974931Y-2175034D01*
X965109Y-2174752D01*
X953579Y-2174520D01*
X940120Y-2174324D01*
X924511Y-2174151D01*
X906530Y-2173986D01*
X892432Y-2173868D01*
X795638Y-2173073D01*
X786323Y-2167924D01*
X781835Y-2165486D01*
X778350Y-2163672D01*
X776495Y-2162807D01*
X776369Y-2162776D01*
X776225Y-2164099D01*
X776093Y-2167867D01*
X775975Y-2173782D01*
X775876Y-2181541D01*
X775800Y-2190846D01*
X775750Y-2201397D01*
X775730Y-2212892D01*
X775730Y-2214262D01*
X775730Y-2265749D01*
X787400Y-2265749D01*
X792674Y-2265837D01*
X796707Y-2266071D01*
X798870Y-2266408D01*
X799070Y-2266557D01*
X798232Y-2267920D01*
X796031Y-2270724D01*
X792940Y-2274370D01*
X792868Y-2274452D01*
X787916Y-2281104D01*
X782942Y-2289505D01*
X778437Y-2298706D01*
X774889Y-2307758D01*
X773676Y-2311743D01*
X772136Y-2319675D01*
X771153Y-2329407D01*
X770742Y-2340048D01*
X770916Y-2350709D01*
X771689Y-2360498D01*
X772802Y-2367349D01*
X777735Y-2384148D01*
X784766Y-2399272D01*
X793807Y-2412622D01*
X804770Y-2424099D01*
X817570Y-2433606D01*
X832118Y-2441044D01*
X840946Y-2444253D01*
X849526Y-2446264D01*
X859826Y-2447596D01*
X870897Y-2448213D01*
X872507Y-2448193D01*
X872507Y-2355335D01*
X864282Y-2354565D01*
X857445Y-2352001D01*
X851103Y-2347262D01*
X849243Y-2345442D01*
X844215Y-2338972D01*
X840994Y-2331493D01*
X839435Y-2322534D01*
X839320Y-2313099D01*
X840078Y-2304150D01*
X841561Y-2297298D01*
X842675Y-2294323D01*
X845710Y-2288959D01*
X849978Y-2283277D01*
X854768Y-2278092D01*
X859370Y-2274222D01*
X861058Y-2273195D01*
X863422Y-2272396D01*
X867183Y-2271828D01*
X872701Y-2271464D01*
X880336Y-2271279D01*
X887602Y-2271241D01*
X896073Y-2271267D01*
X902198Y-2271371D01*
X906377Y-2271596D01*
X909010Y-2271979D01*
X910496Y-2272564D01*
X911236Y-2273388D01*
X911354Y-2273643D01*
X911717Y-2275860D01*
X912013Y-2280232D01*
X912217Y-2286169D01*
X912302Y-2293080D01*
X912302Y-2294581D01*
X912154Y-2303820D01*
X911716Y-2310957D01*
X910926Y-2316628D01*
X909773Y-2321313D01*
X905378Y-2332933D01*
X899976Y-2342046D01*
X893478Y-2348730D01*
X885799Y-2353064D01*
X876853Y-2355127D01*
X872507Y-2355335D01*
X872507Y-2448193D01*
X881787Y-2448076D01*
X891546Y-2447147D01*
X895489Y-2446422D01*
X910130Y-2441796D01*
X923600Y-2434762D01*
X935772Y-2425452D01*
X946515Y-2413999D01*
X955701Y-2400536D01*
X963200Y-2385196D01*
X967754Y-2372154D01*
X970147Y-2363438D01*
X972006Y-2355100D01*
X973392Y-2346602D01*
X974365Y-2337404D01*
X974986Y-2326964D01*
X975315Y-2314743D01*
X975408Y-2303695D01*
X975497Y-2270932D01*
X985345Y-2271560D01*
X996030Y-2273342D01*
X1005215Y-2277133D01*
X1012669Y-2282772D01*
X1018164Y-2290097D01*
X1020845Y-2296547D01*
X1022535Y-2305788D01*
X1022777Y-2316789D01*
X1021662Y-2329034D01*
X1019279Y-2342009D01*
X1015717Y-2355196D01*
X1011066Y-2368080D01*
X1006812Y-2377443D01*
X1004627Y-2381948D01*
X1003102Y-2385384D01*
X1002506Y-2387132D01*
X1002525Y-2387227D01*
X1003859Y-2387830D01*
X1007393Y-2389336D01*
X1012790Y-2391602D01*
X1019710Y-2394489D01*
X1027816Y-2397852D01*
X1036088Y-2401272D01*
X1069220Y-2414941D01*
X1070817Y-2405218D01*
X1071618Y-2401004D01*
X1072964Y-2394668D01*
X1074732Y-2386754D01*
X1076800Y-2377805D01*
X1079047Y-2368363D01*
X1079960Y-2364603D01*
X1083733Y-2348336D01*
X1086561Y-2334095D01*
X1088503Y-2321347D01*
X1089615Y-2309562D01*
X1089954Y-2298206D01*
X1089577Y-2286750D01*
G37*
X1089577Y-2286750D02*
X1089062Y-2279947D01*
X1086473Y-2260484D01*
X1082343Y-2243247D01*
X1076615Y-2228153D01*
X1069233Y-2215118D01*
X1060139Y-2204057D01*
X1049278Y-2194887D01*
X1036591Y-2187523D01*
X1022865Y-2182146D01*
X1018486Y-2180781D01*
X1014386Y-2179593D01*
X1010343Y-2178567D01*
X1006137Y-2177689D01*
X1001547Y-2176945D01*
X996352Y-2176322D01*
X990331Y-2175805D01*
X983265Y-2175380D01*
X974931Y-2175034D01*
X965109Y-2174752D01*
X953579Y-2174520D01*
X940120Y-2174324D01*
X924511Y-2174151D01*
X906530Y-2173986D01*
X892432Y-2173868D01*
X795638Y-2173073D01*
X786323Y-2167924D01*
X781835Y-2165486D01*
X778350Y-2163672D01*
X776495Y-2162807D01*
X776369Y-2162776D01*
X776225Y-2164099D01*
X776093Y-2167867D01*
X775975Y-2173782D01*
X775876Y-2181541D01*
X775800Y-2190846D01*
X775750Y-2201397D01*
X775730Y-2212892D01*
X775730Y-2214262D01*
X775730Y-2265749D01*
X787400Y-2265749D01*
X792674Y-2265837D01*
X796707Y-2266071D01*
X798870Y-2266408D01*
X799070Y-2266557D01*
X798232Y-2267920D01*
X796031Y-2270724D01*
X792940Y-2274370D01*
X792868Y-2274452D01*
X787916Y-2281104D01*
X782942Y-2289505D01*
X778437Y-2298706D01*
X774889Y-2307758D01*
X773676Y-2311743D01*
X772136Y-2319675D01*
X771153Y-2329407D01*
X770742Y-2340048D01*
X770916Y-2350709D01*
X771689Y-2360498D01*
X772802Y-2367349D01*
X777735Y-2384148D01*
X784766Y-2399272D01*
X793807Y-2412622D01*
X804770Y-2424099D01*
X817570Y-2433606D01*
X832118Y-2441044D01*
X840946Y-2444253D01*
X849526Y-2446264D01*
X859826Y-2447596D01*
X870897Y-2448213D01*
X872507Y-2448193D01*
X872507Y-2355335D01*
X864282Y-2354565D01*
X857445Y-2352001D01*
X851103Y-2347262D01*
X849243Y-2345442D01*
X844215Y-2338972D01*
X840994Y-2331493D01*
X839435Y-2322534D01*
X839320Y-2313099D01*
X840078Y-2304150D01*
X841561Y-2297298D01*
X842675Y-2294323D01*
X845710Y-2288959D01*
X849978Y-2283277D01*
X854768Y-2278092D01*
X859370Y-2274222D01*
X861058Y-2273195D01*
X863422Y-2272396D01*
X867183Y-2271828D01*
X872701Y-2271464D01*
X880336Y-2271279D01*
X887602Y-2271241D01*
X896073Y-2271267D01*
X902198Y-2271371D01*
X906377Y-2271596D01*
X909010Y-2271979D01*
X910496Y-2272564D01*
X911236Y-2273388D01*
X911354Y-2273643D01*
X911717Y-2275860D01*
X912013Y-2280232D01*
X912217Y-2286169D01*
X912302Y-2293080D01*
X912302Y-2294581D01*
X912154Y-2303820D01*
X911716Y-2310957D01*
X910926Y-2316628D01*
X909773Y-2321313D01*
X905378Y-2332933D01*
X899976Y-2342046D01*
X893478Y-2348730D01*
X885799Y-2353064D01*
X876853Y-2355127D01*
X872507Y-2355335D01*
X872507Y-2448193D01*
X881787Y-2448076D01*
X891546Y-2447147D01*
X895489Y-2446422D01*
X910130Y-2441796D01*
X923600Y-2434762D01*
X935772Y-2425452D01*
X946515Y-2413999D01*
X955701Y-2400536D01*
X963200Y-2385196D01*
X967754Y-2372154D01*
X970147Y-2363438D01*
X972006Y-2355100D01*
X973392Y-2346602D01*
X974365Y-2337404D01*
X974986Y-2326964D01*
X975315Y-2314743D01*
X975408Y-2303695D01*
X975497Y-2270932D01*
X985345Y-2271560D01*
X996030Y-2273342D01*
X1005215Y-2277133D01*
X1012669Y-2282772D01*
X1018164Y-2290097D01*
X1020845Y-2296547D01*
X1022535Y-2305788D01*
X1022777Y-2316789D01*
X1021662Y-2329034D01*
X1019279Y-2342009D01*
X1015717Y-2355196D01*
X1011066Y-2368080D01*
X1006812Y-2377443D01*
X1004627Y-2381948D01*
X1003102Y-2385384D01*
X1002506Y-2387132D01*
X1002525Y-2387227D01*
X1003859Y-2387830D01*
X1007393Y-2389336D01*
X1012790Y-2391602D01*
X1019710Y-2394489D01*
X1027816Y-2397852D01*
X1036088Y-2401272D01*
X1069220Y-2414941D01*
X1070817Y-2405218D01*
X1071618Y-2401004D01*
X1072964Y-2394668D01*
X1074732Y-2386754D01*
X1076800Y-2377805D01*
X1079047Y-2368363D01*
X1079960Y-2364603D01*
X1083733Y-2348336D01*
X1086561Y-2334095D01*
X1088503Y-2321347D01*
X1089615Y-2309562D01*
X1089954Y-2298206D01*
X1089577Y-2286750D01*
G36*
X1199950Y-2559504D02*
G01*
X1198329Y-2544699D01*
X1195428Y-2530355D01*
X1191096Y-2515889D01*
X1185180Y-2500718D01*
X1177530Y-2484257D01*
X1176048Y-2481293D01*
X1172697Y-2474490D01*
X1169679Y-2468074D01*
X1167283Y-2462679D01*
X1165798Y-2458936D01*
X1165611Y-2458361D01*
X1163960Y-2452851D01*
X1128080Y-2477515D01*
X1119311Y-2483545D01*
X1111299Y-2489058D01*
X1104316Y-2493866D01*
X1098635Y-2497783D01*
X1094528Y-2500621D01*
X1092265Y-2502191D01*
X1091907Y-2502446D01*
X1092656Y-2503483D01*
X1094908Y-2506034D01*
X1098254Y-2509644D01*
X1100145Y-2511636D01*
X1109122Y-2522923D01*
X1115944Y-2535599D01*
X1119681Y-2546522D01*
X1120854Y-2553079D01*
X1121569Y-2561288D01*
X1121813Y-2570186D01*
X1121571Y-2578804D01*
X1120832Y-2586180D01*
X1120265Y-2589122D01*
X1115702Y-2602387D01*
X1108734Y-2614339D01*
X1099374Y-2624972D01*
X1087635Y-2634275D01*
X1073530Y-2642240D01*
X1057071Y-2648857D01*
X1038272Y-2654119D01*
X1022178Y-2657247D01*
X1015074Y-2658063D01*
X1005895Y-2658619D01*
X995303Y-2658920D01*
X983957Y-2658972D01*
X972515Y-2658780D01*
X961638Y-2658350D01*
X951986Y-2657686D01*
X944217Y-2656795D01*
X943018Y-2656602D01*
X923711Y-2652350D01*
X906623Y-2646557D01*
X891678Y-2639187D01*
X878799Y-2630205D01*
X871836Y-2623829D01*
X862383Y-2612371D01*
X855375Y-2599806D01*
X850852Y-2586344D01*
X848852Y-2572199D01*
X849411Y-2557582D01*
X852570Y-2542705D01*
X855661Y-2533909D01*
X861849Y-2521737D01*
X870727Y-2509192D01*
X876731Y-2502165D01*
X880205Y-2498219D01*
X882755Y-2495119D01*
X883983Y-2493354D01*
X884020Y-2493135D01*
X882765Y-2492348D01*
X879448Y-2490307D01*
X874354Y-2487187D01*
X867767Y-2483161D01*
X859971Y-2478404D01*
X851251Y-2473090D01*
X846393Y-2470131D01*
X809278Y-2447535D01*
X795336Y-2475747D01*
X790328Y-2485948D01*
X786379Y-2494211D01*
X783293Y-2501042D01*
X780873Y-2506946D01*
X778924Y-2512429D01*
X777250Y-2517994D01*
X775653Y-2524148D01*
X774252Y-2530046D01*
X773167Y-2535289D01*
X772347Y-2540771D01*
X771747Y-2547043D01*
X771321Y-2554652D01*
X771023Y-2564148D01*
X770895Y-2570549D01*
X770807Y-2579681D01*
X770851Y-2588437D01*
X771015Y-2596239D01*
X771285Y-2602506D01*
X771649Y-2606659D01*
X771686Y-2606905D01*
X776351Y-2628470D01*
X783427Y-2648721D01*
X792909Y-2667651D01*
X804791Y-2685252D01*
X819070Y-2701518D01*
X835741Y-2716442D01*
X850557Y-2727250D01*
X869950Y-2738757D01*
X890430Y-2748058D01*
X912162Y-2755199D01*
X935309Y-2760224D01*
X960036Y-2763180D01*
X985144Y-2764111D01*
X1009433Y-2763345D01*
X1031843Y-2760939D01*
X1052752Y-2756815D01*
X1072539Y-2750897D01*
X1091580Y-2743110D01*
X1093553Y-2742180D01*
X1111994Y-2731935D01*
X1129542Y-2719353D01*
X1145835Y-2704789D01*
X1160509Y-2688600D01*
X1173200Y-2671142D01*
X1182510Y-2654876D01*
X1189801Y-2638443D01*
X1195083Y-2621975D01*
X1198499Y-2604835D01*
X1200192Y-2586385D01*
X1200442Y-2575354D01*
X1199950Y-2559504D01*
G37*
X1199950Y-2559504D02*
X1198329Y-2544699D01*
X1195428Y-2530355D01*
X1191096Y-2515889D01*
X1185180Y-2500718D01*
X1177530Y-2484257D01*
X1176048Y-2481293D01*
X1172697Y-2474490D01*
X1169679Y-2468074D01*
X1167283Y-2462679D01*
X1165798Y-2458936D01*
X1165611Y-2458361D01*
X1163960Y-2452851D01*
X1128080Y-2477515D01*
X1119311Y-2483545D01*
X1111299Y-2489058D01*
X1104316Y-2493866D01*
X1098635Y-2497783D01*
X1094528Y-2500621D01*
X1092265Y-2502191D01*
X1091907Y-2502446D01*
X1092656Y-2503483D01*
X1094908Y-2506034D01*
X1098254Y-2509644D01*
X1100145Y-2511636D01*
X1109122Y-2522923D01*
X1115944Y-2535599D01*
X1119681Y-2546522D01*
X1120854Y-2553079D01*
X1121569Y-2561288D01*
X1121813Y-2570186D01*
X1121571Y-2578804D01*
X1120832Y-2586180D01*
X1120265Y-2589122D01*
X1115702Y-2602387D01*
X1108734Y-2614339D01*
X1099374Y-2624972D01*
X1087635Y-2634275D01*
X1073530Y-2642240D01*
X1057071Y-2648857D01*
X1038272Y-2654119D01*
X1022178Y-2657247D01*
X1015074Y-2658063D01*
X1005895Y-2658619D01*
X995303Y-2658920D01*
X983957Y-2658972D01*
X972515Y-2658780D01*
X961638Y-2658350D01*
X951986Y-2657686D01*
X944217Y-2656795D01*
X943018Y-2656602D01*
X923711Y-2652350D01*
X906623Y-2646557D01*
X891678Y-2639187D01*
X878799Y-2630205D01*
X871836Y-2623829D01*
X862383Y-2612371D01*
X855375Y-2599806D01*
X850852Y-2586344D01*
X848852Y-2572199D01*
X849411Y-2557582D01*
X852570Y-2542705D01*
X855661Y-2533909D01*
X861849Y-2521737D01*
X870727Y-2509192D01*
X876731Y-2502165D01*
X880205Y-2498219D01*
X882755Y-2495119D01*
X883983Y-2493354D01*
X884020Y-2493135D01*
X882765Y-2492348D01*
X879448Y-2490307D01*
X874354Y-2487187D01*
X867767Y-2483161D01*
X859971Y-2478404D01*
X851251Y-2473090D01*
X846393Y-2470131D01*
X809278Y-2447535D01*
X795336Y-2475747D01*
X790328Y-2485948D01*
X786379Y-2494211D01*
X783293Y-2501042D01*
X780873Y-2506946D01*
X778924Y-2512429D01*
X777250Y-2517994D01*
X775653Y-2524148D01*
X774252Y-2530046D01*
X773167Y-2535289D01*
X772347Y-2540771D01*
X771747Y-2547043D01*
X771321Y-2554652D01*
X771023Y-2564148D01*
X770895Y-2570549D01*
X770807Y-2579681D01*
X770851Y-2588437D01*
X771015Y-2596239D01*
X771285Y-2602506D01*
X771649Y-2606659D01*
X771686Y-2606905D01*
X776351Y-2628470D01*
X783427Y-2648721D01*
X792909Y-2667651D01*
X804791Y-2685252D01*
X819070Y-2701518D01*
X835741Y-2716442D01*
X850557Y-2727250D01*
X869950Y-2738757D01*
X890430Y-2748058D01*
X912162Y-2755199D01*
X935309Y-2760224D01*
X960036Y-2763180D01*
X985144Y-2764111D01*
X1009433Y-2763345D01*
X1031843Y-2760939D01*
X1052752Y-2756815D01*
X1072539Y-2750897D01*
X1091580Y-2743110D01*
X1093553Y-2742180D01*
X1111994Y-2731935D01*
X1129542Y-2719353D01*
X1145835Y-2704789D01*
X1160509Y-2688600D01*
X1173200Y-2671142D01*
X1182510Y-2654876D01*
X1189801Y-2638443D01*
X1195083Y-2621975D01*
X1198499Y-2604835D01*
X1200192Y-2586385D01*
X1200442Y-2575354D01*
X1199950Y-2559504D01*
G36*
X1268631Y-3199074D02*
G01*
X1268628Y-3172622D01*
X1268627Y-3160309D01*
X1268627Y-2963219D01*
X1257009Y-2963219D01*
X1242871Y-2961979D01*
X1229832Y-2958236D01*
X1217814Y-2951958D01*
X1206740Y-2943109D01*
X1203749Y-2940116D01*
X1195265Y-2929347D01*
X1189078Y-2917472D01*
X1185184Y-2904846D01*
X1183581Y-2891820D01*
X1184266Y-2878746D01*
X1187236Y-2865979D01*
X1192488Y-2853869D01*
X1200020Y-2842771D01*
X1204564Y-2837787D01*
X1215705Y-2828498D01*
X1227957Y-2821687D01*
X1241179Y-2817413D01*
X1255231Y-2815735D01*
X1256613Y-2815712D01*
X1268627Y-2815624D01*
X1268627Y-2810344D01*
X1267991Y-2805660D01*
X1266444Y-2801382D01*
X1266285Y-2801099D01*
X1265783Y-2800132D01*
X1265393Y-2799245D01*
X1264999Y-2798433D01*
X1264489Y-2797694D01*
X1263749Y-2797024D01*
X1262665Y-2796421D01*
X1261123Y-2795880D01*
X1259009Y-2795399D01*
X1256210Y-2794975D01*
X1252612Y-2794603D01*
X1248101Y-2794282D01*
X1242564Y-2794008D01*
X1235886Y-2793777D01*
X1227955Y-2793587D01*
X1218655Y-2793434D01*
X1207874Y-2793315D01*
X1195498Y-2793227D01*
X1181413Y-2793167D01*
X1165505Y-2793131D01*
X1147661Y-2793117D01*
X1127766Y-2793120D01*
X1105707Y-2793138D01*
X1081371Y-2793168D01*
X1054643Y-2793206D01*
X1025410Y-2793249D01*
X993558Y-2793295D01*
X989677Y-2793300D01*
X957622Y-2793340D01*
X928199Y-2793375D01*
X901294Y-2793407D01*
X876795Y-2793440D01*
X854586Y-2793478D01*
X834555Y-2793524D01*
X816588Y-2793583D01*
X800571Y-2793657D01*
X786390Y-2793751D01*
X773932Y-2793867D01*
X763083Y-2794011D01*
X753729Y-2794184D01*
X745757Y-2794392D01*
X739053Y-2794638D01*
X733503Y-2794924D01*
X728993Y-2795256D01*
X725410Y-2795636D01*
X722641Y-2796069D01*
X720571Y-2796557D01*
X719086Y-2797105D01*
X718074Y-2797717D01*
X717420Y-2798395D01*
X717011Y-2799144D01*
X716732Y-2799967D01*
X716471Y-2800867D01*
X716114Y-2801849D01*
X716005Y-2802089D01*
X715760Y-2802843D01*
X715536Y-2804106D01*
X715330Y-2805986D01*
X715143Y-2808595D01*
X714973Y-2812042D01*
X714820Y-2816438D01*
X714682Y-2821894D01*
X714560Y-2828518D01*
X714452Y-2836423D01*
X714357Y-2845716D01*
X714275Y-2856510D01*
X714205Y-2868914D01*
X714146Y-2883038D01*
X714097Y-2898992D01*
X714058Y-2916887D01*
X714027Y-2936833D01*
X714005Y-2958940D01*
X713989Y-2983319D01*
X713979Y-3010079D01*
X713975Y-3039330D01*
X713976Y-3071184D01*
X713977Y-3081502D01*
X713982Y-3114062D01*
X713991Y-3143988D01*
X714004Y-3171391D01*
X714021Y-3196382D01*
X714045Y-3219074D01*
X714076Y-3239577D01*
X714114Y-3258004D01*
X714161Y-3274465D01*
X714217Y-3289072D01*
X714283Y-3301938D01*
X714361Y-3313172D01*
X714451Y-3322887D01*
X714553Y-3331195D01*
X714670Y-3338206D01*
X714801Y-3344033D01*
X714947Y-3348787D01*
X715110Y-3352579D01*
X715291Y-3355521D01*
X715489Y-3357724D01*
X715706Y-3359301D01*
X715944Y-3360362D01*
X716161Y-3360940D01*
X716594Y-3361968D01*
X716914Y-3362912D01*
X717233Y-3363775D01*
X717666Y-3364562D01*
X718326Y-3365275D01*
X719325Y-3365918D01*
X720779Y-3366495D01*
X722800Y-3367009D01*
X725501Y-3367464D01*
X728998Y-3367863D01*
X733402Y-3368211D01*
X738828Y-3368510D01*
X745388Y-3368765D01*
X753198Y-3368978D01*
X762369Y-3369153D01*
X773016Y-3369294D01*
X777103Y-3369331D01*
X777103Y-3332688D01*
X777103Y-3203173D01*
X780878Y-3205665D01*
X784758Y-3208145D01*
X788453Y-3210244D01*
X792221Y-3211993D01*
X796321Y-3213423D01*
X801012Y-3214562D01*
X806551Y-3215441D01*
X813198Y-3216090D01*
X821212Y-3216538D01*
X830850Y-3216815D01*
X842371Y-3216951D01*
X856034Y-3216977D01*
X872098Y-3216921D01*
X878062Y-3216889D01*
X941996Y-3216532D01*
X886855Y-3176030D01*
X871212Y-3164555D01*
X857591Y-3154614D01*
X845811Y-3146099D01*
X835692Y-3138902D01*
X827052Y-3132917D01*
X819713Y-3128035D01*
X813492Y-3124149D01*
X808211Y-3121153D01*
X803687Y-3118939D01*
X799742Y-3117399D01*
X796194Y-3116427D01*
X792863Y-3115914D01*
X789569Y-3115753D01*
X786130Y-3115838D01*
X785698Y-3115859D01*
X777097Y-3116305D01*
X777103Y-2974369D01*
X787748Y-2984926D01*
X790659Y-2987791D01*
X793492Y-2990509D01*
X796403Y-2993199D01*
X799548Y-2995980D01*
X803083Y-2998972D01*
X807165Y-3002295D01*
X811949Y-3006066D01*
X817592Y-3010406D01*
X824251Y-3015434D01*
X832080Y-3021269D01*
X841238Y-3028030D01*
X851880Y-3035837D01*
X864161Y-3044809D01*
X878239Y-3055065D01*
X894270Y-3066724D01*
X907420Y-3076281D01*
X923940Y-3088275D01*
X938385Y-3098738D01*
X950891Y-3107765D01*
X961595Y-3115450D01*
X970635Y-3121889D01*
X978147Y-3127176D01*
X984270Y-3131406D01*
X989139Y-3134674D01*
X992893Y-3137074D01*
X995667Y-3138701D01*
X997601Y-3139651D01*
X998830Y-3140017D01*
X999476Y-3139907D01*
X1001195Y-3138572D01*
X1004834Y-3135687D01*
X1010178Y-3131424D01*
X1017008Y-3125958D01*
X1025110Y-3119464D01*
X1034266Y-3112116D01*
X1044261Y-3104087D01*
X1054878Y-3095551D01*
X1065900Y-3086684D01*
X1077112Y-3077659D01*
X1083276Y-3072694D01*
X1083276Y-2949437D01*
X1074008Y-2944315D01*
X1064741Y-2939192D01*
X795638Y-2939192D01*
X786370Y-2944315D01*
X777103Y-2949437D01*
X777103Y-2888840D01*
X777107Y-2874373D01*
X777126Y-2862424D01*
X777169Y-2852764D01*
X777246Y-2845164D01*
X777367Y-2839396D01*
X777541Y-2835230D01*
X777777Y-2832439D01*
X778085Y-2830793D01*
X778475Y-2830065D01*
X778956Y-2830025D01*
X779538Y-2830446D01*
X779543Y-2830450D01*
X782047Y-2832181D01*
X786118Y-2834474D01*
X790183Y-2836498D01*
X798384Y-2840338D01*
X1083276Y-2841121D01*
X1083276Y-2949437D01*
X1083276Y-3072694D01*
X1088298Y-3068649D01*
X1099240Y-3059830D01*
X1109722Y-3051375D01*
X1119529Y-3043459D01*
X1128443Y-3036256D01*
X1136250Y-3029939D01*
X1142731Y-3024683D01*
X1147671Y-3020662D01*
X1150551Y-3018300D01*
X1161322Y-3009129D01*
X1171042Y-3000306D01*
X1179392Y-2992140D01*
X1186055Y-2984941D01*
X1190140Y-2979832D01*
X1194487Y-2973791D01*
X1194487Y-3112730D01*
X1186333Y-3112691D01*
X1180339Y-3113079D01*
X1174782Y-3114539D01*
X1169515Y-3116799D01*
X1166539Y-3118268D01*
X1163590Y-3119847D01*
X1160472Y-3121681D01*
X1156991Y-3123914D01*
X1152949Y-3126691D01*
X1148151Y-3130155D01*
X1142402Y-3134451D01*
X1135506Y-3139723D01*
X1127266Y-3146115D01*
X1117488Y-3153772D01*
X1105975Y-3162838D01*
X1092531Y-3173457D01*
X1091014Y-3174657D01*
X1038059Y-3216532D01*
X1096708Y-3216938D01*
X1114275Y-3217019D01*
X1129147Y-3217002D01*
X1141373Y-3216885D01*
X1151001Y-3216667D01*
X1158082Y-3216347D01*
X1162663Y-3215926D01*
X1163532Y-3215784D01*
X1172687Y-3213559D01*
X1180939Y-3210644D01*
X1187575Y-3207318D01*
X1190389Y-3205320D01*
X1194487Y-3201872D01*
X1194487Y-3267291D01*
X1194473Y-3282897D01*
X1194430Y-3295947D01*
X1194351Y-3306631D01*
X1194232Y-3315140D01*
X1194068Y-3321663D01*
X1193854Y-3326392D01*
X1193584Y-3329516D01*
X1193254Y-3331225D01*
X1192858Y-3331709D01*
X1192770Y-3331675D01*
X1190677Y-3330288D01*
X1187359Y-3327973D01*
X1185681Y-3326775D01*
X1184006Y-3325537D01*
X1182509Y-3324424D01*
X1181041Y-3323429D01*
X1179455Y-3322545D01*
X1177605Y-3321766D01*
X1175342Y-3321083D01*
X1172519Y-3320492D01*
X1168989Y-3319983D01*
X1164604Y-3319550D01*
X1159218Y-3319187D01*
X1152682Y-3318886D01*
X1144850Y-3318640D01*
X1135573Y-3318442D01*
X1124705Y-3318286D01*
X1112099Y-3318163D01*
X1097606Y-3318068D01*
X1081079Y-3317993D01*
X1062372Y-3317931D01*
X1041336Y-3317875D01*
X1017825Y-3317818D01*
X996226Y-3317765D01*
X972146Y-3317715D01*
X949173Y-3317689D01*
X927451Y-3317687D01*
X907128Y-3317707D01*
X888350Y-3317749D01*
X871265Y-3317812D01*
X856020Y-3317896D01*
X842760Y-3317999D01*
X831632Y-3318122D01*
X822784Y-3318263D01*
X816362Y-3318422D01*
X812513Y-3318599D01*
X812107Y-3318632D01*
X802775Y-3319847D01*
X795281Y-3321743D01*
X788741Y-3324630D01*
X782271Y-3328819D01*
X781565Y-3329343D01*
X777103Y-3332688D01*
X777103Y-3369331D01*
X785252Y-3369405D01*
X799191Y-3369489D01*
X814946Y-3369550D01*
X832631Y-3369590D01*
X852359Y-3369615D01*
X874244Y-3369627D01*
X898399Y-3369629D01*
X924938Y-3369627D01*
X953975Y-3369622D01*
X985623Y-3369619D01*
X991905Y-3369619D01*
X1023886Y-3369617D01*
X1053234Y-3369611D01*
X1080061Y-3369600D01*
X1104480Y-3369583D01*
X1126604Y-3369560D01*
X1146546Y-3369528D01*
X1164418Y-3369488D01*
X1180333Y-3369439D01*
X1194403Y-3369380D01*
X1206742Y-3369309D01*
X1217462Y-3369226D01*
X1226676Y-3369131D01*
X1234497Y-3369021D01*
X1241036Y-3368897D01*
X1246407Y-3368758D01*
X1250723Y-3368602D01*
X1254096Y-3368429D01*
X1256640Y-3368237D01*
X1258465Y-3368027D01*
X1259687Y-3367797D01*
X1260416Y-3367545D01*
X1260434Y-3367536D01*
X1261548Y-3367019D01*
X1262557Y-3366588D01*
X1263465Y-3366112D01*
X1264279Y-3365458D01*
X1265002Y-3364493D01*
X1265641Y-3363087D01*
X1266201Y-3361106D01*
X1266687Y-3358419D01*
X1267103Y-3354893D01*
X1267456Y-3350397D01*
X1267751Y-3344797D01*
X1267992Y-3337963D01*
X1268186Y-3329761D01*
X1268336Y-3320060D01*
X1268449Y-3308728D01*
X1268530Y-3295632D01*
X1268583Y-3280641D01*
X1268615Y-3263621D01*
X1268630Y-3244442D01*
X1268634Y-3222970D01*
X1268631Y-3199074D01*
G37*
X1268631Y-3199074D02*
X1268628Y-3172622D01*
X1268627Y-3160309D01*
X1268627Y-2963219D01*
X1257009Y-2963219D01*
X1242871Y-2961979D01*
X1229832Y-2958236D01*
X1217814Y-2951958D01*
X1206740Y-2943109D01*
X1203749Y-2940116D01*
X1195265Y-2929347D01*
X1189078Y-2917472D01*
X1185184Y-2904846D01*
X1183581Y-2891820D01*
X1184266Y-2878746D01*
X1187236Y-2865979D01*
X1192488Y-2853869D01*
X1200020Y-2842771D01*
X1204564Y-2837787D01*
X1215705Y-2828498D01*
X1227957Y-2821687D01*
X1241179Y-2817413D01*
X1255231Y-2815735D01*
X1256613Y-2815712D01*
X1268627Y-2815624D01*
X1268627Y-2810344D01*
X1267991Y-2805660D01*
X1266444Y-2801382D01*
X1266285Y-2801099D01*
X1265783Y-2800132D01*
X1265393Y-2799245D01*
X1264999Y-2798433D01*
X1264489Y-2797694D01*
X1263749Y-2797024D01*
X1262665Y-2796421D01*
X1261123Y-2795880D01*
X1259009Y-2795399D01*
X1256210Y-2794975D01*
X1252612Y-2794603D01*
X1248101Y-2794282D01*
X1242564Y-2794008D01*
X1235886Y-2793777D01*
X1227955Y-2793587D01*
X1218655Y-2793434D01*
X1207874Y-2793315D01*
X1195498Y-2793227D01*
X1181413Y-2793167D01*
X1165505Y-2793131D01*
X1147661Y-2793117D01*
X1127766Y-2793120D01*
X1105707Y-2793138D01*
X1081371Y-2793168D01*
X1054643Y-2793206D01*
X1025410Y-2793249D01*
X993558Y-2793295D01*
X989677Y-2793300D01*
X957622Y-2793340D01*
X928199Y-2793375D01*
X901294Y-2793407D01*
X876795Y-2793440D01*
X854586Y-2793478D01*
X834555Y-2793524D01*
X816588Y-2793583D01*
X800571Y-2793657D01*
X786390Y-2793751D01*
X773932Y-2793867D01*
X763083Y-2794011D01*
X753729Y-2794184D01*
X745757Y-2794392D01*
X739053Y-2794638D01*
X733503Y-2794924D01*
X728993Y-2795256D01*
X725410Y-2795636D01*
X722641Y-2796069D01*
X720571Y-2796557D01*
X719086Y-2797105D01*
X718074Y-2797717D01*
X717420Y-2798395D01*
X717011Y-2799144D01*
X716732Y-2799967D01*
X716471Y-2800867D01*
X716114Y-2801849D01*
X716005Y-2802089D01*
X715760Y-2802843D01*
X715536Y-2804106D01*
X715330Y-2805986D01*
X715143Y-2808595D01*
X714973Y-2812042D01*
X714820Y-2816438D01*
X714682Y-2821894D01*
X714560Y-2828518D01*
X714452Y-2836423D01*
X714357Y-2845716D01*
X714275Y-2856510D01*
X714205Y-2868914D01*
X714146Y-2883038D01*
X714097Y-2898992D01*
X714058Y-2916887D01*
X714027Y-2936833D01*
X714005Y-2958940D01*
X713989Y-2983319D01*
X713979Y-3010079D01*
X713975Y-3039330D01*
X713976Y-3071184D01*
X713977Y-3081502D01*
X713982Y-3114062D01*
X713991Y-3143988D01*
X714004Y-3171391D01*
X714021Y-3196382D01*
X714045Y-3219074D01*
X714076Y-3239577D01*
X714114Y-3258004D01*
X714161Y-3274465D01*
X714217Y-3289072D01*
X714283Y-3301938D01*
X714361Y-3313172D01*
X714451Y-3322887D01*
X714553Y-3331195D01*
X714670Y-3338206D01*
X714801Y-3344033D01*
X714947Y-3348787D01*
X715110Y-3352579D01*
X715291Y-3355521D01*
X715489Y-3357724D01*
X715706Y-3359301D01*
X715944Y-3360362D01*
X716161Y-3360940D01*
X716594Y-3361968D01*
X716914Y-3362912D01*
X717233Y-3363775D01*
X717666Y-3364562D01*
X718326Y-3365275D01*
X719325Y-3365918D01*
X720779Y-3366495D01*
X722800Y-3367009D01*
X725501Y-3367464D01*
X728998Y-3367863D01*
X733402Y-3368211D01*
X738828Y-3368510D01*
X745388Y-3368765D01*
X753198Y-3368978D01*
X762369Y-3369153D01*
X773016Y-3369294D01*
X777103Y-3369331D01*
X777103Y-3332688D01*
X777103Y-3203173D01*
X780878Y-3205665D01*
X784758Y-3208145D01*
X788453Y-3210244D01*
X792221Y-3211993D01*
X796321Y-3213423D01*
X801012Y-3214562D01*
X806551Y-3215441D01*
X813198Y-3216090D01*
X821212Y-3216538D01*
X830850Y-3216815D01*
X842371Y-3216951D01*
X856034Y-3216977D01*
X872098Y-3216921D01*
X878062Y-3216889D01*
X941996Y-3216532D01*
X886855Y-3176030D01*
X871212Y-3164555D01*
X857591Y-3154614D01*
X845811Y-3146099D01*
X835692Y-3138902D01*
X827052Y-3132917D01*
X819713Y-3128035D01*
X813492Y-3124149D01*
X808211Y-3121153D01*
X803687Y-3118939D01*
X799742Y-3117399D01*
X796194Y-3116427D01*
X792863Y-3115914D01*
X789569Y-3115753D01*
X786130Y-3115838D01*
X785698Y-3115859D01*
X777097Y-3116305D01*
X777103Y-2974369D01*
X787748Y-2984926D01*
X790659Y-2987791D01*
X793492Y-2990509D01*
X796403Y-2993199D01*
X799548Y-2995980D01*
X803083Y-2998972D01*
X807165Y-3002295D01*
X811949Y-3006066D01*
X817592Y-3010406D01*
X824251Y-3015434D01*
X832080Y-3021269D01*
X841238Y-3028030D01*
X851880Y-3035837D01*
X864161Y-3044809D01*
X878239Y-3055065D01*
X894270Y-3066724D01*
X907420Y-3076281D01*
X923940Y-3088275D01*
X938385Y-3098738D01*
X950891Y-3107765D01*
X961595Y-3115450D01*
X970635Y-3121889D01*
X978147Y-3127176D01*
X984270Y-3131406D01*
X989139Y-3134674D01*
X992893Y-3137074D01*
X995667Y-3138701D01*
X997601Y-3139651D01*
X998830Y-3140017D01*
X999476Y-3139907D01*
X1001195Y-3138572D01*
X1004834Y-3135687D01*
X1010178Y-3131424D01*
X1017008Y-3125958D01*
X1025110Y-3119464D01*
X1034266Y-3112116D01*
X1044261Y-3104087D01*
X1054878Y-3095551D01*
X1065900Y-3086684D01*
X1077112Y-3077659D01*
X1083276Y-3072694D01*
X1083276Y-2949437D01*
X1074008Y-2944315D01*
X1064741Y-2939192D01*
X795638Y-2939192D01*
X786370Y-2944315D01*
X777103Y-2949437D01*
X777103Y-2888840D01*
X777107Y-2874373D01*
X777126Y-2862424D01*
X777169Y-2852764D01*
X777246Y-2845164D01*
X777367Y-2839396D01*
X777541Y-2835230D01*
X777777Y-2832439D01*
X778085Y-2830793D01*
X778475Y-2830065D01*
X778956Y-2830025D01*
X779538Y-2830446D01*
X779543Y-2830450D01*
X782047Y-2832181D01*
X786118Y-2834474D01*
X790183Y-2836498D01*
X798384Y-2840338D01*
X1083276Y-2841121D01*
X1083276Y-2949437D01*
X1083276Y-3072694D01*
X1088298Y-3068649D01*
X1099240Y-3059830D01*
X1109722Y-3051375D01*
X1119529Y-3043459D01*
X1128443Y-3036256D01*
X1136250Y-3029939D01*
X1142731Y-3024683D01*
X1147671Y-3020662D01*
X1150551Y-3018300D01*
X1161322Y-3009129D01*
X1171042Y-3000306D01*
X1179392Y-2992140D01*
X1186055Y-2984941D01*
X1190140Y-2979832D01*
X1194487Y-2973791D01*
X1194487Y-3112730D01*
X1186333Y-3112691D01*
X1180339Y-3113079D01*
X1174782Y-3114539D01*
X1169515Y-3116799D01*
X1166539Y-3118268D01*
X1163590Y-3119847D01*
X1160472Y-3121681D01*
X1156991Y-3123914D01*
X1152949Y-3126691D01*
X1148151Y-3130155D01*
X1142402Y-3134451D01*
X1135506Y-3139723D01*
X1127266Y-3146115D01*
X1117488Y-3153772D01*
X1105975Y-3162838D01*
X1092531Y-3173457D01*
X1091014Y-3174657D01*
X1038059Y-3216532D01*
X1096708Y-3216938D01*
X1114275Y-3217019D01*
X1129147Y-3217002D01*
X1141373Y-3216885D01*
X1151001Y-3216667D01*
X1158082Y-3216347D01*
X1162663Y-3215926D01*
X1163532Y-3215784D01*
X1172687Y-3213559D01*
X1180939Y-3210644D01*
X1187575Y-3207318D01*
X1190389Y-3205320D01*
X1194487Y-3201872D01*
X1194487Y-3267291D01*
X1194473Y-3282897D01*
X1194430Y-3295947D01*
X1194351Y-3306631D01*
X1194232Y-3315140D01*
X1194068Y-3321663D01*
X1193854Y-3326392D01*
X1193584Y-3329516D01*
X1193254Y-3331225D01*
X1192858Y-3331709D01*
X1192770Y-3331675D01*
X1190677Y-3330288D01*
X1187359Y-3327973D01*
X1185681Y-3326775D01*
X1184006Y-3325537D01*
X1182509Y-3324424D01*
X1181041Y-3323429D01*
X1179455Y-3322545D01*
X1177605Y-3321766D01*
X1175342Y-3321083D01*
X1172519Y-3320492D01*
X1168989Y-3319983D01*
X1164604Y-3319550D01*
X1159218Y-3319187D01*
X1152682Y-3318886D01*
X1144850Y-3318640D01*
X1135573Y-3318442D01*
X1124705Y-3318286D01*
X1112099Y-3318163D01*
X1097606Y-3318068D01*
X1081079Y-3317993D01*
X1062372Y-3317931D01*
X1041336Y-3317875D01*
X1017825Y-3317818D01*
X996226Y-3317765D01*
X972146Y-3317715D01*
X949173Y-3317689D01*
X927451Y-3317687D01*
X907128Y-3317707D01*
X888350Y-3317749D01*
X871265Y-3317812D01*
X856020Y-3317896D01*
X842760Y-3317999D01*
X831632Y-3318122D01*
X822784Y-3318263D01*
X816362Y-3318422D01*
X812513Y-3318599D01*
X812107Y-3318632D01*
X802775Y-3319847D01*
X795281Y-3321743D01*
X788741Y-3324630D01*
X782271Y-3328819D01*
X781565Y-3329343D01*
X777103Y-3332688D01*
X777103Y-3369331D01*
X785252Y-3369405D01*
X799191Y-3369489D01*
X814946Y-3369550D01*
X832631Y-3369590D01*
X852359Y-3369615D01*
X874244Y-3369627D01*
X898399Y-3369629D01*
X924938Y-3369627D01*
X953975Y-3369622D01*
X985623Y-3369619D01*
X991905Y-3369619D01*
X1023886Y-3369617D01*
X1053234Y-3369611D01*
X1080061Y-3369600D01*
X1104480Y-3369583D01*
X1126604Y-3369560D01*
X1146546Y-3369528D01*
X1164418Y-3369488D01*
X1180333Y-3369439D01*
X1194403Y-3369380D01*
X1206742Y-3369309D01*
X1217462Y-3369226D01*
X1226676Y-3369131D01*
X1234497Y-3369021D01*
X1241036Y-3368897D01*
X1246407Y-3368758D01*
X1250723Y-3368602D01*
X1254096Y-3368429D01*
X1256640Y-3368237D01*
X1258465Y-3368027D01*
X1259687Y-3367797D01*
X1260416Y-3367545D01*
X1260434Y-3367536D01*
X1261548Y-3367019D01*
X1262557Y-3366588D01*
X1263465Y-3366112D01*
X1264279Y-3365458D01*
X1265002Y-3364493D01*
X1265641Y-3363087D01*
X1266201Y-3361106D01*
X1266687Y-3358419D01*
X1267103Y-3354893D01*
X1267456Y-3350397D01*
X1267751Y-3344797D01*
X1267992Y-3337963D01*
X1268186Y-3329761D01*
X1268336Y-3320060D01*
X1268449Y-3308728D01*
X1268530Y-3295632D01*
X1268583Y-3280641D01*
X1268615Y-3263621D01*
X1268630Y-3244442D01*
X1268634Y-3222970D01*
X1268631Y-3199074D01*
D13*
X127000Y-3683000D02*
X-127000Y-3683000D01*
X2413000Y127000D02*
X2413000Y-3683000D01*
X2413000Y-3683000D02*
X2159000Y-3683000D01*
X2159000Y-3683000D02*
X2159000Y127000D01*
X2159000Y127000D02*
X2413000Y127000D01*
X127000Y-3429000D02*
X-127000Y-3429000D01*
X127000Y127000D02*
X127000Y-3683000D01*
X-127000Y127000D02*
X127000Y127000D01*
X-127000Y-3683000D02*
X-127000Y127000D01*
D14*
G36*
X1904107Y-3246419D02*
G01*
X1859644Y-3238036D01*
X1846895Y-3207108D01*
X1834145Y-3176179D01*
X1859375Y-3139075D01*
X1866400Y-3128684D01*
X1872673Y-3119291D01*
X1877906Y-3111335D01*
X1881814Y-3105253D01*
X1884111Y-3101484D01*
X1884606Y-3100458D01*
X1883332Y-3098609D01*
X1879812Y-3094658D01*
X1874494Y-3089048D01*
X1867828Y-3082221D01*
X1860265Y-3074621D01*
X1852253Y-3066691D01*
X1844243Y-3058872D01*
X1836684Y-3051609D01*
X1830025Y-3045344D01*
X1824718Y-3040520D01*
X1821211Y-3037579D01*
X1820038Y-3036876D01*
X1817874Y-3037888D01*
X1813134Y-3040724D01*
X1806281Y-3045087D01*
X1797778Y-3050678D01*
X1788091Y-3057199D01*
X1782565Y-3060978D01*
X1772475Y-3067866D01*
X1763370Y-3073986D01*
X1755703Y-3079042D01*
X1749927Y-3082737D01*
X1746496Y-3084774D01*
X1745775Y-3085080D01*
X1743725Y-3084386D01*
X1738949Y-3082495D01*
X1732117Y-3079691D01*
X1723901Y-3076261D01*
X1714973Y-3072489D01*
X1706004Y-3068661D01*
X1697666Y-3065063D01*
X1690631Y-3061979D01*
X1685569Y-3059696D01*
X1683153Y-3058498D01*
X1683058Y-3058428D01*
X1682596Y-3056547D01*
X1681567Y-3051538D01*
X1680071Y-3043921D01*
X1678210Y-3034213D01*
X1676084Y-3022936D01*
X1674858Y-3016356D01*
X1672564Y-3004305D01*
X1670380Y-2993420D01*
X1668428Y-2984252D01*
X1666825Y-2977352D01*
X1665692Y-2973270D01*
X1665333Y-2972449D01*
X1662899Y-2971645D01*
X1657404Y-2970997D01*
X1649489Y-2970503D01*
X1639797Y-2970164D01*
X1628971Y-2969978D01*
X1617653Y-2969946D01*
X1606486Y-2970067D01*
X1596113Y-2970341D01*
X1587176Y-2970767D01*
X1580317Y-2971344D01*
X1576180Y-2972073D01*
X1575319Y-2972510D01*
X1574287Y-2975124D01*
X1572811Y-2980661D01*
X1571065Y-2988389D01*
X1569222Y-2997577D01*
X1568626Y-3000784D01*
X1565793Y-3016248D01*
X1563512Y-3028462D01*
X1561692Y-3037833D01*
X1560242Y-3044762D01*
X1559071Y-3049653D01*
X1558088Y-3052910D01*
X1557204Y-3054937D01*
X1556328Y-3056137D01*
X1556154Y-3056305D01*
X1553363Y-3057982D01*
X1547930Y-3060539D01*
X1540522Y-3063721D01*
X1531803Y-3067274D01*
X1522439Y-3070942D01*
X1513095Y-3074469D01*
X1504435Y-3077600D01*
X1497126Y-3080081D01*
X1491832Y-3081655D01*
X1489219Y-3082067D01*
X1489127Y-3082032D01*
X1486991Y-3080636D01*
X1482292Y-3077468D01*
X1475517Y-3072861D01*
X1467158Y-3067148D01*
X1457702Y-3060663D01*
X1455015Y-3058816D01*
X1445272Y-3052230D01*
X1436384Y-3046435D01*
X1428859Y-3041746D01*
X1423208Y-3038479D01*
X1419942Y-3036950D01*
X1419541Y-3036876D01*
X1417432Y-3038161D01*
X1413254Y-3041711D01*
X1407455Y-3047071D01*
X1400486Y-3053783D01*
X1392796Y-3061391D01*
X1384832Y-3069440D01*
X1377044Y-3077471D01*
X1369881Y-3085030D01*
X1363793Y-3091659D01*
X1359228Y-3096903D01*
X1356635Y-3100304D01*
X1356212Y-3101245D01*
X1357209Y-3103436D01*
X1359898Y-3107920D01*
X1363826Y-3113968D01*
X1366988Y-3118621D01*
X1372790Y-3127052D01*
X1379622Y-3137037D01*
X1386442Y-3147053D01*
X1390093Y-3152437D01*
X1402420Y-3170663D01*
X1394148Y-3185962D01*
X1390524Y-3192932D01*
X1387707Y-3198859D01*
X1386101Y-3202869D01*
X1385877Y-3203890D01*
X1387528Y-3205117D01*
X1392192Y-3207539D01*
X1399439Y-3210974D01*
X1408839Y-3215241D01*
X1419963Y-3220161D01*
X1432378Y-3225551D01*
X1445657Y-3231232D01*
X1459367Y-3237022D01*
X1473080Y-3242741D01*
X1486364Y-3248208D01*
X1498790Y-3253242D01*
X1509927Y-3257662D01*
X1519346Y-3261288D01*
X1526616Y-3263939D01*
X1531306Y-3265434D01*
X1532917Y-3265675D01*
X1534971Y-3263769D01*
X1538307Y-3259596D01*
X1542230Y-3254029D01*
X1542540Y-3253562D01*
X1554058Y-3239174D01*
X1567495Y-3227572D01*
X1582422Y-3218857D01*
X1598409Y-3213130D01*
X1615026Y-3210491D01*
X1631845Y-3211041D01*
X1648434Y-3214881D01*
X1664366Y-3222110D01*
X1667851Y-3224237D01*
X1681926Y-3235300D01*
X1693229Y-3248370D01*
X1701700Y-3262994D01*
X1707281Y-3278719D01*
X1709913Y-3295094D01*
X1709537Y-3311667D01*
X1706095Y-3327984D01*
X1699528Y-3343593D01*
X1689776Y-3358043D01*
X1685819Y-3362513D01*
X1673430Y-3373889D01*
X1660388Y-3382178D01*
X1645768Y-3387864D01*
X1631291Y-3391031D01*
X1615014Y-3391813D01*
X1598656Y-3389206D01*
X1582770Y-3383475D01*
X1567909Y-3374886D01*
X1554626Y-3363701D01*
X1543474Y-3350188D01*
X1542299Y-3348412D01*
X1538449Y-3342785D01*
X1535114Y-3338508D01*
X1532984Y-3336463D01*
X1532917Y-3336433D01*
X1530613Y-3336872D01*
X1525384Y-3338612D01*
X1517661Y-3341473D01*
X1507873Y-3345273D01*
X1496451Y-3349833D01*
X1483824Y-3354970D01*
X1470423Y-3360504D01*
X1456678Y-3366254D01*
X1443019Y-3372040D01*
X1429876Y-3377680D01*
X1417679Y-3382994D01*
X1406859Y-3387801D01*
X1397845Y-3391920D01*
X1391068Y-3395170D01*
X1386957Y-3397370D01*
X1385877Y-3398256D01*
X1386718Y-3400964D01*
X1388973Y-3406030D01*
X1392239Y-3412582D01*
X1394148Y-3416184D01*
X1402420Y-3431483D01*
X1390093Y-3449709D01*
X1383777Y-3459012D01*
X1376827Y-3469198D01*
X1370284Y-3478744D01*
X1366988Y-3483525D01*
X1362473Y-3490249D01*
X1358894Y-3495944D01*
X1356706Y-3499865D01*
X1356244Y-3501138D01*
X1357492Y-3502992D01*
X1360975Y-3507094D01*
X1366332Y-3513047D01*
X1373202Y-3520454D01*
X1381222Y-3528916D01*
X1386371Y-3534268D01*
X1395571Y-3543632D01*
X1403800Y-3551724D01*
X1410705Y-3558218D01*
X1415936Y-3562786D01*
X1419138Y-3565101D01*
X1419788Y-3565323D01*
X1422261Y-3564292D01*
X1427259Y-3561444D01*
X1434279Y-3557094D01*
X1442812Y-3551558D01*
X1452354Y-3545152D01*
X1455015Y-3543330D01*
X1464683Y-3536693D01*
X1473388Y-3530738D01*
X1480640Y-3525798D01*
X1485951Y-3522207D01*
X1488830Y-3520298D01*
X1489127Y-3520114D01*
X1491422Y-3520389D01*
X1496466Y-3521854D01*
X1503596Y-3524251D01*
X1512145Y-3527327D01*
X1521449Y-3530824D01*
X1530843Y-3534489D01*
X1539660Y-3538066D01*
X1547237Y-3541299D01*
X1552907Y-3543934D01*
X1556006Y-3545714D01*
X1556154Y-3545841D01*
X1557040Y-3546929D01*
X1557916Y-3548768D01*
X1558872Y-3551761D01*
X1560000Y-3556310D01*
X1561391Y-3562821D01*
X1563134Y-3571696D01*
X1565320Y-3583339D01*
X1568041Y-3598154D01*
X1568626Y-3601362D01*
X1570463Y-3610869D01*
X1572259Y-3619156D01*
X1573843Y-3625493D01*
X1575040Y-3629146D01*
X1575319Y-3629636D01*
X1577793Y-3630443D01*
X1583321Y-3631099D01*
X1591261Y-3631603D01*
X1600970Y-3631956D01*
X1611806Y-3632156D01*
X1623126Y-3632204D01*
X1634287Y-3632098D01*
X1644647Y-3631838D01*
X1653563Y-3631425D01*
X1660393Y-3630856D01*
X1664493Y-3630133D01*
X1665333Y-3629697D01*
X1666179Y-3627270D01*
X1667556Y-3621743D01*
X1669345Y-3613666D01*
X1671425Y-3603591D01*
X1673678Y-3592068D01*
X1674858Y-3585790D01*
X1677085Y-3573879D01*
X1679102Y-3563256D01*
X1680808Y-3554443D01*
X1682103Y-3547957D01*
X1682884Y-3544317D01*
X1683058Y-3543718D01*
X1685011Y-3542706D01*
X1689716Y-3540566D01*
X1696500Y-3537584D01*
X1704691Y-3534044D01*
X1713617Y-3530233D01*
X1722606Y-3526435D01*
X1730986Y-3522936D01*
X1738085Y-3520021D01*
X1743231Y-3517974D01*
X1745750Y-3517082D01*
X1745860Y-3517066D01*
X1747848Y-3518077D01*
X1752422Y-3520912D01*
X1759128Y-3525272D01*
X1767512Y-3530861D01*
X1777117Y-3537379D01*
X1782635Y-3541168D01*
X1792752Y-3548072D01*
X1801937Y-3554205D01*
X1809726Y-3559266D01*
X1815653Y-3562957D01*
X1819255Y-3564978D01*
X1820062Y-3565270D01*
X1821942Y-3564015D01*
X1825954Y-3560546D01*
X1831651Y-3555306D01*
X1838581Y-3548738D01*
X1846297Y-3541286D01*
X1854347Y-3533391D01*
X1862284Y-3525498D01*
X1869656Y-3518050D01*
X1876015Y-3511489D01*
X1880911Y-3506260D01*
X1883894Y-3502804D01*
X1884606Y-3501648D01*
X1883605Y-3499765D01*
X1880792Y-3495263D01*
X1876455Y-3488579D01*
X1870878Y-3480150D01*
X1864349Y-3470414D01*
X1859375Y-3463071D01*
X1834145Y-3425967D01*
X1859644Y-3364109D01*
X1904107Y-3355727D01*
X1948569Y-3347345D01*
X1948569Y-3254801D01*
X1904107Y-3246419D01*
G37*
X1904107Y-3246419D02*
X1859644Y-3238036D01*
X1846895Y-3207108D01*
X1834145Y-3176179D01*
X1859375Y-3139075D01*
X1866400Y-3128684D01*
X1872673Y-3119291D01*
X1877906Y-3111335D01*
X1881814Y-3105253D01*
X1884111Y-3101484D01*
X1884606Y-3100458D01*
X1883332Y-3098609D01*
X1879812Y-3094658D01*
X1874494Y-3089048D01*
X1867828Y-3082221D01*
X1860265Y-3074621D01*
X1852253Y-3066691D01*
X1844243Y-3058872D01*
X1836684Y-3051609D01*
X1830025Y-3045344D01*
X1824718Y-3040520D01*
X1821211Y-3037579D01*
X1820038Y-3036876D01*
X1817874Y-3037888D01*
X1813134Y-3040724D01*
X1806281Y-3045087D01*
X1797778Y-3050678D01*
X1788091Y-3057199D01*
X1782565Y-3060978D01*
X1772475Y-3067866D01*
X1763370Y-3073986D01*
X1755703Y-3079042D01*
X1749927Y-3082737D01*
X1746496Y-3084774D01*
X1745775Y-3085080D01*
X1743725Y-3084386D01*
X1738949Y-3082495D01*
X1732117Y-3079691D01*
X1723901Y-3076261D01*
X1714973Y-3072489D01*
X1706004Y-3068661D01*
X1697666Y-3065063D01*
X1690631Y-3061979D01*
X1685569Y-3059696D01*
X1683153Y-3058498D01*
X1683058Y-3058428D01*
X1682596Y-3056547D01*
X1681567Y-3051538D01*
X1680071Y-3043921D01*
X1678210Y-3034213D01*
X1676084Y-3022936D01*
X1674858Y-3016356D01*
X1672564Y-3004305D01*
X1670380Y-2993420D01*
X1668428Y-2984252D01*
X1666825Y-2977352D01*
X1665692Y-2973270D01*
X1665333Y-2972449D01*
X1662899Y-2971645D01*
X1657404Y-2970997D01*
X1649489Y-2970503D01*
X1639797Y-2970164D01*
X1628971Y-2969978D01*
X1617653Y-2969946D01*
X1606486Y-2970067D01*
X1596113Y-2970341D01*
X1587176Y-2970767D01*
X1580317Y-2971344D01*
X1576180Y-2972073D01*
X1575319Y-2972510D01*
X1574287Y-2975124D01*
X1572811Y-2980661D01*
X1571065Y-2988389D01*
X1569222Y-2997577D01*
X1568626Y-3000784D01*
X1565793Y-3016248D01*
X1563512Y-3028462D01*
X1561692Y-3037833D01*
X1560242Y-3044762D01*
X1559071Y-3049653D01*
X1558088Y-3052910D01*
X1557204Y-3054937D01*
X1556328Y-3056137D01*
X1556154Y-3056305D01*
X1553363Y-3057982D01*
X1547930Y-3060539D01*
X1540522Y-3063721D01*
X1531803Y-3067274D01*
X1522439Y-3070942D01*
X1513095Y-3074469D01*
X1504435Y-3077600D01*
X1497126Y-3080081D01*
X1491832Y-3081655D01*
X1489219Y-3082067D01*
X1489127Y-3082032D01*
X1486991Y-3080636D01*
X1482292Y-3077468D01*
X1475517Y-3072861D01*
X1467158Y-3067148D01*
X1457702Y-3060663D01*
X1455015Y-3058816D01*
X1445272Y-3052230D01*
X1436384Y-3046435D01*
X1428859Y-3041746D01*
X1423208Y-3038479D01*
X1419942Y-3036950D01*
X1419541Y-3036876D01*
X1417432Y-3038161D01*
X1413254Y-3041711D01*
X1407455Y-3047071D01*
X1400486Y-3053783D01*
X1392796Y-3061391D01*
X1384832Y-3069440D01*
X1377044Y-3077471D01*
X1369881Y-3085030D01*
X1363793Y-3091659D01*
X1359228Y-3096903D01*
X1356635Y-3100304D01*
X1356212Y-3101245D01*
X1357209Y-3103436D01*
X1359898Y-3107920D01*
X1363826Y-3113968D01*
X1366988Y-3118621D01*
X1372790Y-3127052D01*
X1379622Y-3137037D01*
X1386442Y-3147053D01*
X1390093Y-3152437D01*
X1402420Y-3170663D01*
X1394148Y-3185962D01*
X1390524Y-3192932D01*
X1387707Y-3198859D01*
X1386101Y-3202869D01*
X1385877Y-3203890D01*
X1387528Y-3205117D01*
X1392192Y-3207539D01*
X1399439Y-3210974D01*
X1408839Y-3215241D01*
X1419963Y-3220161D01*
X1432378Y-3225551D01*
X1445657Y-3231232D01*
X1459367Y-3237022D01*
X1473080Y-3242741D01*
X1486364Y-3248208D01*
X1498790Y-3253242D01*
X1509927Y-3257662D01*
X1519346Y-3261288D01*
X1526616Y-3263939D01*
X1531306Y-3265434D01*
X1532917Y-3265675D01*
X1534971Y-3263769D01*
X1538307Y-3259596D01*
X1542230Y-3254029D01*
X1542540Y-3253562D01*
X1554058Y-3239174D01*
X1567495Y-3227572D01*
X1582422Y-3218857D01*
X1598409Y-3213130D01*
X1615026Y-3210491D01*
X1631845Y-3211041D01*
X1648434Y-3214881D01*
X1664366Y-3222110D01*
X1667851Y-3224237D01*
X1681926Y-3235300D01*
X1693229Y-3248370D01*
X1701700Y-3262994D01*
X1707281Y-3278719D01*
X1709913Y-3295094D01*
X1709537Y-3311667D01*
X1706095Y-3327984D01*
X1699528Y-3343593D01*
X1689776Y-3358043D01*
X1685819Y-3362513D01*
X1673430Y-3373889D01*
X1660388Y-3382178D01*
X1645768Y-3387864D01*
X1631291Y-3391031D01*
X1615014Y-3391813D01*
X1598656Y-3389206D01*
X1582770Y-3383475D01*
X1567909Y-3374886D01*
X1554626Y-3363701D01*
X1543474Y-3350188D01*
X1542299Y-3348412D01*
X1538449Y-3342785D01*
X1535114Y-3338508D01*
X1532984Y-3336463D01*
X1532917Y-3336433D01*
X1530613Y-3336872D01*
X1525384Y-3338612D01*
X1517661Y-3341473D01*
X1507873Y-3345273D01*
X1496451Y-3349833D01*
X1483824Y-3354970D01*
X1470423Y-3360504D01*
X1456678Y-3366254D01*
X1443019Y-3372040D01*
X1429876Y-3377680D01*
X1417679Y-3382994D01*
X1406859Y-3387801D01*
X1397845Y-3391920D01*
X1391068Y-3395170D01*
X1386957Y-3397370D01*
X1385877Y-3398256D01*
X1386718Y-3400964D01*
X1388973Y-3406030D01*
X1392239Y-3412582D01*
X1394148Y-3416184D01*
X1402420Y-3431483D01*
X1390093Y-3449709D01*
X1383777Y-3459012D01*
X1376827Y-3469198D01*
X1370284Y-3478744D01*
X1366988Y-3483525D01*
X1362473Y-3490249D01*
X1358894Y-3495944D01*
X1356706Y-3499865D01*
X1356244Y-3501138D01*
X1357492Y-3502992D01*
X1360975Y-3507094D01*
X1366332Y-3513047D01*
X1373202Y-3520454D01*
X1381222Y-3528916D01*
X1386371Y-3534268D01*
X1395571Y-3543632D01*
X1403800Y-3551724D01*
X1410705Y-3558218D01*
X1415936Y-3562786D01*
X1419138Y-3565101D01*
X1419788Y-3565323D01*
X1422261Y-3564292D01*
X1427259Y-3561444D01*
X1434279Y-3557094D01*
X1442812Y-3551558D01*
X1452354Y-3545152D01*
X1455015Y-3543330D01*
X1464683Y-3536693D01*
X1473388Y-3530738D01*
X1480640Y-3525798D01*
X1485951Y-3522207D01*
X1488830Y-3520298D01*
X1489127Y-3520114D01*
X1491422Y-3520389D01*
X1496466Y-3521854D01*
X1503596Y-3524251D01*
X1512145Y-3527327D01*
X1521449Y-3530824D01*
X1530843Y-3534489D01*
X1539660Y-3538066D01*
X1547237Y-3541299D01*
X1552907Y-3543934D01*
X1556006Y-3545714D01*
X1556154Y-3545841D01*
X1557040Y-3546929D01*
X1557916Y-3548768D01*
X1558872Y-3551761D01*
X1560000Y-3556310D01*
X1561391Y-3562821D01*
X1563134Y-3571696D01*
X1565320Y-3583339D01*
X1568041Y-3598154D01*
X1568626Y-3601362D01*
X1570463Y-3610869D01*
X1572259Y-3619156D01*
X1573843Y-3625493D01*
X1575040Y-3629146D01*
X1575319Y-3629636D01*
X1577793Y-3630443D01*
X1583321Y-3631099D01*
X1591261Y-3631603D01*
X1600970Y-3631956D01*
X1611806Y-3632156D01*
X1623126Y-3632204D01*
X1634287Y-3632098D01*
X1644647Y-3631838D01*
X1653563Y-3631425D01*
X1660393Y-3630856D01*
X1664493Y-3630133D01*
X1665333Y-3629697D01*
X1666179Y-3627270D01*
X1667556Y-3621743D01*
X1669345Y-3613666D01*
X1671425Y-3603591D01*
X1673678Y-3592068D01*
X1674858Y-3585790D01*
X1677085Y-3573879D01*
X1679102Y-3563256D01*
X1680808Y-3554443D01*
X1682103Y-3547957D01*
X1682884Y-3544317D01*
X1683058Y-3543718D01*
X1685011Y-3542706D01*
X1689716Y-3540566D01*
X1696500Y-3537584D01*
X1704691Y-3534044D01*
X1713617Y-3530233D01*
X1722606Y-3526435D01*
X1730986Y-3522936D01*
X1738085Y-3520021D01*
X1743231Y-3517974D01*
X1745750Y-3517082D01*
X1745860Y-3517066D01*
X1747848Y-3518077D01*
X1752422Y-3520912D01*
X1759128Y-3525272D01*
X1767512Y-3530861D01*
X1777117Y-3537379D01*
X1782635Y-3541168D01*
X1792752Y-3548072D01*
X1801937Y-3554205D01*
X1809726Y-3559266D01*
X1815653Y-3562957D01*
X1819255Y-3564978D01*
X1820062Y-3565270D01*
X1821942Y-3564015D01*
X1825954Y-3560546D01*
X1831651Y-3555306D01*
X1838581Y-3548738D01*
X1846297Y-3541286D01*
X1854347Y-3533391D01*
X1862284Y-3525498D01*
X1869656Y-3518050D01*
X1876015Y-3511489D01*
X1880911Y-3506260D01*
X1883894Y-3502804D01*
X1884606Y-3501648D01*
X1883605Y-3499765D01*
X1880792Y-3495263D01*
X1876455Y-3488579D01*
X1870878Y-3480150D01*
X1864349Y-3470414D01*
X1859375Y-3463071D01*
X1834145Y-3425967D01*
X1859644Y-3364109D01*
X1904107Y-3355727D01*
X1948569Y-3347345D01*
X1948569Y-3254801D01*
X1904107Y-3246419D01*
%LPC*%
D15*
X444500Y254000D03*
X698500Y254000D03*
X952500Y254000D03*
D16*
X1206500Y254000D03*
D17*
X444500Y254000D03*
X952500Y254000D03*
D10*
G36*
X1267601Y343846D02*
G01*
X1270711Y343384D01*
X1273761Y342620D01*
X1276721Y341561D01*
X1279564Y340217D01*
X1282261Y338600D01*
X1284786Y336727D01*
X1287116Y334616D01*
X1289227Y332286D01*
X1291100Y329761D01*
X1292717Y327064D01*
X1294061Y324221D01*
X1295120Y321261D01*
X1295884Y318211D01*
X1296346Y315101D01*
X1296500Y311960D01*
X1296500Y196040D01*
X1296346Y192899D01*
X1295884Y189789D01*
X1295120Y186739D01*
X1294061Y183779D01*
X1292717Y180936D01*
X1291100Y178239D01*
X1289227Y175714D01*
X1287116Y173384D01*
X1284786Y171273D01*
X1282261Y169400D01*
X1279564Y167783D01*
X1276721Y166439D01*
X1273761Y165380D01*
X1270711Y164616D01*
X1267601Y164154D01*
X1264460Y164000D01*
X1148540Y164000D01*
X1145400Y164154D01*
X1142289Y164616D01*
X1139239Y165380D01*
X1136279Y166439D01*
X1133436Y167783D01*
X1130740Y169400D01*
X1128214Y171273D01*
X1125884Y173384D01*
X1123773Y175714D01*
X1121900Y178239D01*
X1120283Y180936D01*
X1118939Y183779D01*
X1117880Y186739D01*
X1117116Y189789D01*
X1116654Y192899D01*
X1116500Y196040D01*
X1116500Y311960D01*
X1116654Y315101D01*
X1117116Y318211D01*
X1117880Y321261D01*
X1118939Y324221D01*
X1120283Y327064D01*
X1121900Y329761D01*
X1123773Y332286D01*
X1125884Y334616D01*
X1128214Y336727D01*
X1130740Y338600D01*
X1133436Y340217D01*
X1136279Y341561D01*
X1139239Y342620D01*
X1142289Y343384D01*
X1145400Y343846D01*
X1148540Y344000D01*
X1264460Y344000D01*
X1267601Y343846D01*
G37*
D18*
X762000Y-4000500D03*
X1016000Y-4000500D03*
X1270000Y-4000500D03*
D19*
X1524000Y-4000500D03*
D20*
X698500Y-1651000D03*
X952500Y-1651000D03*
X1206500Y-1651000D03*
D21*
X1460500Y-1651000D03*
D22*
X1778000Y-1016000D03*
D17*
X1778000Y-1778000D03*
D23*
X1587500Y254000D03*
D24*
X1841500Y254000D03*
D25*
X1460500Y-1143000D03*
D26*
X1206500Y-1143000D03*
X1333500Y-1143000D03*
D27*
X254000Y-1016000D03*
D28*
X254000Y-254000D03*
D29*
X635000Y-254000D03*
X889000Y-254000D03*
D30*
X635000Y-762000D03*
D29*
X889000Y-762000D03*
X1651000Y-254000D03*
X1651000Y-762000D03*
D22*
X2032000Y-2794000D03*
D17*
X2032000Y-2032000D03*
D22*
X2032000Y-3556000D03*
D17*
X2032000Y-2794000D03*
D25*
X889000Y-1143000D03*
D26*
X635000Y-1143000D03*
X762000Y-1143000D03*
D18*
X254000Y-3048000D03*
X254000Y-2794000D03*
D19*
X254000Y-2540000D03*
D31*
X75000Y-3981000D03*
X2200000Y-3981000D03*
X2200000Y382000D03*
X80000Y382000D03*
D32*
X2286000Y-3302000D03*
X2286000Y-2794000D03*
X2286000Y-3048000D03*
X2286000Y-1016000D03*
X2286000Y-1270000D03*
X2286000Y-1778000D03*
X2286000Y-1524000D03*
X2286000Y0D03*
X2286000Y-2032000D03*
X2286000Y-2540000D03*
X2286000Y-2286000D03*
X2286000Y-762000D03*
X2286000Y-254000D03*
X2286000Y-508000D03*
X2286000Y-3556000D03*
X0Y0D03*
X0Y-254000D03*
X0Y-508000D03*
X0Y-762000D03*
X0Y-1016000D03*
X0Y-1270000D03*
X0Y-1524000D03*
X0Y-1778000D03*
X0Y-2032000D03*
X0Y-2286000D03*
X0Y-2540000D03*
X0Y-2794000D03*
X0Y-3048000D03*
X0Y-3302000D03*
D33*
X0Y-3556000D03*
D18*
X889000Y-3683000D03*
X1143000Y-3683000D03*
D19*
X1397000Y-3683000D03*
D22*
X254000Y-1270000D03*
D17*
X254000Y-2032000D03*
D18*
X2032000Y-762000D03*
X2032000Y-508000D03*
X2032000Y-254000D03*
D19*
X2032000Y0D03*
M02*
