%TF.GenerationSoftware,KiCad,Pcbnew,5.1.5+dfsg1-2~bpo10+1*%
%TF.CreationDate,Date%
%TF.ProjectId,PIS,5049532e-6b69-4636-9164-5f7063625858,rev?*%
%TF.SameCoordinates,Original*%
%TF.FileFunction,Copper,L1,Top*%
%TF.FilePolarity,Positive*%
%FSLAX45Y45*%
G04 Gerber Fmt 4.5, Leading zero omitted, Abs format (unit mm)*
G04 Created by KiCad*
%MOMM*%
%LPD*%
G04 APERTURE LIST*
%ADD10C,0.120000*%
%ADD11R,1.500000X1.000000*%
%ADD12C,2.100000*%
%ADD13R,2.100000X2.100000*%
%ADD14C,1.400000*%
%ADD15C,0.150000*%
%ADD16O,1.700000X1.700000*%
%ADD17R,1.700000X1.700000*%
%ADD18O,1.000000X1.000000*%
%ADD19R,1.000000X1.000000*%
%ADD20C,1.500000*%
%ADD21O,1.400000X1.400000*%
%ADD22C,1.800000*%
%ADD23R,1.800000X1.800000*%
%ADD24R,1.050000X1.500000*%
%ADD25O,1.050000X1.500000*%
%ADD26O,1.600000X1.600000*%
%ADD27R,1.600000X1.600000*%
%ADD28C,2.000000*%
%ADD29R,2.000000X2.000000*%
%ADD30C,2.032000*%
%ADD31R,2.032000X2.032000*%
%ADD32C,0.500000*%
%ADD33C,0.250000*%
%ADD34C,0.350000*%
G04 APERTURE END LIST*
D10*
X-190500Y4063511D02*
G75*
G02X-63500Y4190511I127000J0D01*
G01*
X2476500Y-571500D02*
G75*
G02X2349500Y-698500I-127000J0D01*
G01*
X2349500Y4190511D02*
G75*
G02X2476500Y4063511I0J-127000D01*
G01*
X-63500Y-698989D02*
G75*
G02X-190500Y-571989I0J127000D01*
G01*
X2476500Y-571500D02*
X2476500Y4064000D01*
X-63500Y-698500D02*
X2349500Y-698500D01*
X-190500Y4064000D02*
X-190500Y-571500D01*
X2349500Y4190511D02*
X-63500Y4190511D01*
D11*
X1270000Y2983000D03*
X1270000Y3113000D03*
D12*
X444500Y3810000D03*
X698500Y3810000D03*
X952500Y3810000D03*
D13*
X1206500Y3810000D03*
D14*
X444500Y3810000D03*
X952500Y3810000D03*
%TA.AperFunction,ComponentPad*%
D15*
G36*
X1254023Y3879880D02*
G01*
X1256442Y3879521D01*
X1258814Y3878927D01*
X1261117Y3878103D01*
X1263327Y3877057D01*
X1265425Y3875800D01*
X1267389Y3874343D01*
X1269201Y3872701D01*
X1270843Y3870889D01*
X1272300Y3868925D01*
X1273558Y3866827D01*
X1274603Y3864616D01*
X1275427Y3862314D01*
X1276021Y3859942D01*
X1276380Y3857523D01*
X1276500Y3855080D01*
X1276500Y3764920D01*
X1276380Y3762477D01*
X1276021Y3760058D01*
X1275427Y3757686D01*
X1274603Y3755383D01*
X1273558Y3753173D01*
X1272300Y3751075D01*
X1270843Y3749111D01*
X1269201Y3747299D01*
X1267389Y3745657D01*
X1265425Y3744200D01*
X1263327Y3742942D01*
X1261117Y3741897D01*
X1258814Y3741073D01*
X1256442Y3740479D01*
X1254023Y3740120D01*
X1251580Y3740000D01*
X1161420Y3740000D01*
X1158977Y3740120D01*
X1156558Y3740479D01*
X1154186Y3741073D01*
X1151884Y3741897D01*
X1149673Y3742942D01*
X1147575Y3744200D01*
X1145611Y3745657D01*
X1143799Y3747299D01*
X1142157Y3749111D01*
X1140700Y3751075D01*
X1139443Y3753173D01*
X1138397Y3755383D01*
X1137573Y3757686D01*
X1136979Y3760058D01*
X1136620Y3762477D01*
X1136500Y3764920D01*
X1136500Y3855080D01*
X1136620Y3857523D01*
X1136979Y3859942D01*
X1137573Y3862314D01*
X1138397Y3864616D01*
X1139443Y3866827D01*
X1140700Y3868925D01*
X1142157Y3870889D01*
X1143799Y3872701D01*
X1145611Y3874343D01*
X1147575Y3875800D01*
X1149673Y3877057D01*
X1151884Y3878103D01*
X1154186Y3878927D01*
X1156558Y3879521D01*
X1158977Y3879880D01*
X1161420Y3880000D01*
X1251580Y3880000D01*
X1254023Y3879880D01*
G37*
%TD.AperFunction*%
D16*
X762000Y-444500D03*
X1016000Y-444500D03*
X1270000Y-444500D03*
D17*
X1524000Y-444500D03*
D18*
X698500Y1905000D03*
X952500Y1905000D03*
X1206500Y1905000D03*
D19*
X1460500Y1905000D03*
D20*
X2032000Y2540000D03*
X2032000Y2286000D03*
X2032000Y2032000D03*
X2032000Y1778000D03*
D21*
X1778000Y2540000D03*
D14*
X1778000Y1778000D03*
D22*
X1587500Y3810000D03*
D23*
X1841500Y3810000D03*
D24*
X1460500Y2413000D03*
D25*
X1206500Y2413000D03*
X1333500Y2413000D03*
D26*
X254000Y2540000D03*
D27*
X254000Y3302000D03*
D28*
X635000Y3302000D03*
X889000Y3302000D03*
D29*
X635000Y2794000D03*
D28*
X889000Y2794000D03*
X1651000Y3302000D03*
X1651000Y2794000D03*
D21*
X2032000Y762000D03*
D14*
X2032000Y1524000D03*
D21*
X2032000Y0D03*
D14*
X2032000Y762000D03*
D24*
X889000Y2413000D03*
D25*
X635000Y2413000D03*
X762000Y2413000D03*
D16*
X254000Y508000D03*
X254000Y762000D03*
D17*
X254000Y1016000D03*
D30*
X2286000Y254000D03*
X2286000Y762000D03*
X2286000Y508000D03*
X2286000Y2540000D03*
X2286000Y2286000D03*
X2286000Y1778000D03*
X2286000Y2032000D03*
X2286000Y3556000D03*
X2286000Y1524000D03*
X2286000Y1016000D03*
X2286000Y1270000D03*
X2286000Y2794000D03*
X2286000Y3302000D03*
X2286000Y3048000D03*
X2286000Y0D03*
X0Y3556000D03*
X0Y3302000D03*
X0Y3048000D03*
X0Y2794000D03*
X0Y2540000D03*
X0Y2286000D03*
X0Y2032000D03*
X0Y1778000D03*
X0Y1524000D03*
X0Y1270000D03*
X0Y1016000D03*
X0Y762000D03*
X0Y508000D03*
X0Y254000D03*
D31*
X0Y0D03*
D16*
X889000Y-127000D03*
X1143000Y-127000D03*
D17*
X1397000Y-127000D03*
D21*
X254000Y2286000D03*
D14*
X254000Y1524000D03*
D16*
X2032000Y2794000D03*
X2032000Y3048000D03*
X2032000Y3302000D03*
D17*
X2032000Y3556000D03*
D32*
X825500Y1524000D02*
X254000Y1524000D01*
X1206500Y1905000D02*
X825500Y1524000D01*
X1270000Y2883000D02*
X990500Y2603500D01*
X1270000Y2983000D02*
X1270000Y2883000D01*
X990500Y2603500D02*
X825500Y2603500D01*
X825500Y2603500D02*
X762000Y2540000D01*
X762000Y2540000D02*
X762000Y2413000D01*
X2032000Y1778000D02*
X2286000Y1778000D01*
X2032000Y2032000D02*
X2286000Y2032000D01*
X2032000Y2286000D02*
X2286000Y2286000D01*
X2032000Y2540000D02*
X2286000Y2540000D01*
X254000Y762000D02*
X2032000Y762000D01*
X2032000Y762000D02*
X2286000Y1016000D01*
X1651000Y3302000D02*
X1509579Y3302000D01*
X1509579Y3302000D02*
X1333500Y3302000D01*
X1333500Y3302000D02*
X1270000Y3238500D01*
X1270000Y3238500D02*
X1270000Y3111500D01*
D33*
G36*
X2365678Y4145216D02*
G01*
X2381240Y4140518D01*
X2395593Y4132886D01*
X2408190Y4122612D01*
X2418552Y4110087D01*
X2426283Y4095788D01*
X2431090Y4080259D01*
X2433000Y4062088D01*
X2433000Y-569372D01*
X2431205Y-587678D01*
X2426507Y-603240D01*
X2418875Y-617593D01*
X2408601Y-630190D01*
X2396076Y-640552D01*
X2381777Y-648283D01*
X2366248Y-653090D01*
X2348078Y-655000D01*
X-65636Y-655000D01*
X-65997Y-655036D01*
X-79678Y-653694D01*
X-95240Y-648996D01*
X-109593Y-641364D01*
X-122190Y-631090D01*
X-132552Y-618565D01*
X-140283Y-604266D01*
X-145090Y-588737D01*
X-147000Y-570567D01*
X-147000Y-405548D01*
X-122500Y-405548D01*
X-122500Y-444452D01*
X-114910Y-482609D01*
X-100022Y-518551D01*
X-78408Y-550899D01*
X-50899Y-578408D01*
X-18551Y-600022D01*
X17391Y-614910D01*
X55548Y-622500D01*
X94452Y-622500D01*
X132609Y-614910D01*
X168551Y-600022D01*
X200899Y-578408D01*
X228408Y-550899D01*
X250022Y-518551D01*
X264910Y-482609D01*
X272500Y-444452D01*
X272500Y-432435D01*
X639500Y-432435D01*
X639500Y-456565D01*
X644208Y-480232D01*
X653442Y-502525D01*
X666848Y-522589D01*
X683911Y-539652D01*
X703974Y-553058D01*
X726268Y-562292D01*
X749935Y-567000D01*
X774065Y-567000D01*
X797732Y-562292D01*
X820025Y-553058D01*
X840089Y-539652D01*
X857152Y-522589D01*
X870558Y-502525D01*
X879792Y-480232D01*
X884500Y-456565D01*
X884500Y-432435D01*
X893500Y-432435D01*
X893500Y-456565D01*
X898208Y-480232D01*
X907442Y-502525D01*
X920848Y-522589D01*
X937911Y-539652D01*
X957974Y-553058D01*
X980268Y-562292D01*
X1003935Y-567000D01*
X1028065Y-567000D01*
X1051732Y-562292D01*
X1074026Y-553058D01*
X1094089Y-539652D01*
X1111152Y-522589D01*
X1124558Y-502525D01*
X1133792Y-480232D01*
X1138500Y-456565D01*
X1138500Y-432435D01*
X1147500Y-432435D01*
X1147500Y-456565D01*
X1152208Y-480232D01*
X1161442Y-502525D01*
X1174848Y-522589D01*
X1191911Y-539652D01*
X1211975Y-553058D01*
X1234268Y-562292D01*
X1257935Y-567000D01*
X1282065Y-567000D01*
X1305732Y-562292D01*
X1328026Y-553058D01*
X1348089Y-539652D01*
X1365152Y-522589D01*
X1376323Y-505870D01*
X1376198Y-529500D01*
X1377404Y-541752D01*
X1380978Y-553533D01*
X1386782Y-564391D01*
X1394592Y-573908D01*
X1404109Y-581718D01*
X1414967Y-587522D01*
X1426748Y-591096D01*
X1439000Y-592302D01*
X1495875Y-592000D01*
X1511500Y-576375D01*
X1511500Y-457000D01*
X1536500Y-457000D01*
X1536500Y-576375D01*
X1552125Y-592000D01*
X1609000Y-592302D01*
X1621252Y-591096D01*
X1633033Y-587522D01*
X1643891Y-581718D01*
X1653408Y-573908D01*
X1661218Y-564391D01*
X1667022Y-553533D01*
X1670596Y-541752D01*
X1671802Y-529500D01*
X1671500Y-472625D01*
X1655875Y-457000D01*
X1536500Y-457000D01*
X1511500Y-457000D01*
X1509500Y-457000D01*
X1509500Y-432000D01*
X1511500Y-432000D01*
X1511500Y-312625D01*
X1536500Y-312625D01*
X1536500Y-432000D01*
X1655875Y-432000D01*
X1671500Y-416375D01*
X1671557Y-405548D01*
X2002500Y-405548D01*
X2002500Y-444452D01*
X2010090Y-482609D01*
X2024978Y-518551D01*
X2046592Y-550899D01*
X2074101Y-578408D01*
X2106449Y-600022D01*
X2142391Y-614910D01*
X2180548Y-622500D01*
X2219452Y-622500D01*
X2257609Y-614910D01*
X2293551Y-600022D01*
X2325899Y-578408D01*
X2353408Y-550899D01*
X2375022Y-518551D01*
X2389910Y-482609D01*
X2397500Y-444452D01*
X2397500Y-405548D01*
X2389910Y-367391D01*
X2375022Y-331449D01*
X2353408Y-299101D01*
X2325899Y-271592D01*
X2293551Y-249978D01*
X2257609Y-235090D01*
X2219452Y-227500D01*
X2180548Y-227500D01*
X2142391Y-235090D01*
X2106449Y-249978D01*
X2074101Y-271592D01*
X2046592Y-299101D01*
X2024978Y-331449D01*
X2010090Y-367391D01*
X2002500Y-405548D01*
X1671557Y-405548D01*
X1671802Y-359500D01*
X1670596Y-347248D01*
X1667022Y-335467D01*
X1661218Y-324609D01*
X1653408Y-315092D01*
X1643891Y-307282D01*
X1633033Y-301478D01*
X1621252Y-297904D01*
X1609000Y-296698D01*
X1552125Y-297000D01*
X1536500Y-312625D01*
X1511500Y-312625D01*
X1495875Y-297000D01*
X1439000Y-296698D01*
X1426748Y-297904D01*
X1414967Y-301478D01*
X1404109Y-307282D01*
X1394592Y-315092D01*
X1386782Y-324609D01*
X1380978Y-335467D01*
X1377404Y-347248D01*
X1376198Y-359500D01*
X1376323Y-383130D01*
X1365152Y-366411D01*
X1348089Y-349348D01*
X1328026Y-335942D01*
X1305732Y-326708D01*
X1282065Y-322000D01*
X1257935Y-322000D01*
X1234268Y-326708D01*
X1211975Y-335942D01*
X1191911Y-349348D01*
X1174848Y-366411D01*
X1161442Y-386474D01*
X1152208Y-408768D01*
X1147500Y-432435D01*
X1138500Y-432435D01*
X1133792Y-408768D01*
X1124558Y-386474D01*
X1111152Y-366411D01*
X1094089Y-349348D01*
X1074026Y-335942D01*
X1051732Y-326708D01*
X1028065Y-322000D01*
X1003935Y-322000D01*
X980268Y-326708D01*
X957974Y-335942D01*
X937911Y-349348D01*
X920848Y-366411D01*
X907442Y-386474D01*
X898208Y-408768D01*
X893500Y-432435D01*
X884500Y-432435D01*
X879792Y-408768D01*
X870558Y-386474D01*
X857152Y-366411D01*
X840089Y-349348D01*
X820025Y-335942D01*
X797732Y-326708D01*
X774065Y-322000D01*
X749935Y-322000D01*
X726268Y-326708D01*
X703974Y-335942D01*
X683911Y-349348D01*
X666848Y-366411D01*
X653442Y-386474D01*
X644208Y-408768D01*
X639500Y-432435D01*
X272500Y-432435D01*
X272500Y-405548D01*
X264910Y-367391D01*
X250022Y-331449D01*
X228408Y-299101D01*
X200899Y-271592D01*
X168551Y-249978D01*
X132609Y-235090D01*
X94452Y-227500D01*
X55548Y-227500D01*
X17391Y-235090D01*
X-18551Y-249978D01*
X-50899Y-271592D01*
X-78408Y-299101D01*
X-100022Y-331449D01*
X-114910Y-367391D01*
X-122500Y-405548D01*
X-147000Y-405548D01*
X-147000Y101600D01*
X-139281Y101600D01*
X-139281Y-101600D01*
X-138557Y-108951D01*
X-136413Y-116020D01*
X-132931Y-122535D01*
X-128245Y-128245D01*
X-122535Y-132931D01*
X-116020Y-136413D01*
X-108951Y-138557D01*
X-101600Y-139281D01*
X101600Y-139281D01*
X108951Y-138557D01*
X116020Y-136413D01*
X122535Y-132931D01*
X128245Y-128245D01*
X132931Y-122535D01*
X136413Y-116020D01*
X136742Y-114935D01*
X766500Y-114935D01*
X766500Y-139065D01*
X771208Y-162732D01*
X780442Y-185025D01*
X793848Y-205089D01*
X810911Y-222152D01*
X830974Y-235558D01*
X853268Y-244792D01*
X876935Y-249500D01*
X901065Y-249500D01*
X924732Y-244792D01*
X947025Y-235558D01*
X967089Y-222152D01*
X984152Y-205089D01*
X997558Y-185025D01*
X1003094Y-171661D01*
X1009441Y-189596D01*
X1024219Y-214450D01*
X1043562Y-235942D01*
X1066726Y-253248D01*
X1092821Y-265703D01*
X1107663Y-270205D01*
X1130500Y-258281D01*
X1130500Y-139500D01*
X1128500Y-139500D01*
X1128500Y-114500D01*
X1130500Y-114500D01*
X1130500Y4281D01*
X1155500Y4281D01*
X1155500Y-114500D01*
X1157500Y-114500D01*
X1157500Y-139500D01*
X1155500Y-139500D01*
X1155500Y-258281D01*
X1178337Y-270205D01*
X1193179Y-265703D01*
X1219274Y-253248D01*
X1242438Y-235942D01*
X1261781Y-214450D01*
X1274319Y-193365D01*
X1274319Y-212000D01*
X1275043Y-219351D01*
X1277187Y-226420D01*
X1280669Y-232935D01*
X1285355Y-238645D01*
X1291065Y-243331D01*
X1297580Y-246813D01*
X1304649Y-248957D01*
X1312000Y-249681D01*
X1482000Y-249681D01*
X1489351Y-248957D01*
X1496420Y-246813D01*
X1502935Y-243331D01*
X1508645Y-238645D01*
X1513331Y-232935D01*
X1516813Y-226420D01*
X1518957Y-219351D01*
X1519681Y-212000D01*
X1519681Y-42000D01*
X1518957Y-34649D01*
X1518452Y-32981D01*
X1903670Y-32981D01*
X1912570Y-57383D01*
X1926060Y-79581D01*
X1943621Y-98719D01*
X1964578Y-114064D01*
X1988127Y-125026D01*
X1999019Y-128330D01*
X2019500Y-116205D01*
X2019500Y-12500D01*
X1915715Y-12500D01*
X1903670Y-32981D01*
X1518452Y-32981D01*
X1516813Y-27580D01*
X1513331Y-21065D01*
X1508645Y-15355D01*
X1502935Y-10669D01*
X1496420Y-7187D01*
X1489351Y-5043D01*
X1482000Y-4319D01*
X1312000Y-4319D01*
X1304649Y-5043D01*
X1297580Y-7187D01*
X1291065Y-10669D01*
X1285355Y-15355D01*
X1280669Y-21065D01*
X1277187Y-27580D01*
X1275043Y-34649D01*
X1274319Y-42000D01*
X1274319Y-60635D01*
X1261781Y-39550D01*
X1242438Y-18058D01*
X1219274Y-751D01*
X1193179Y11703D01*
X1178337Y16204D01*
X1155500Y4281D01*
X1130500Y4281D01*
X1107663Y16204D01*
X1092821Y11703D01*
X1066726Y-751D01*
X1043562Y-18058D01*
X1024219Y-39550D01*
X1009441Y-64404D01*
X1003094Y-82340D01*
X997558Y-68975D01*
X984152Y-48911D01*
X967089Y-31848D01*
X947025Y-18442D01*
X924732Y-9208D01*
X901065Y-4500D01*
X876935Y-4500D01*
X853268Y-9208D01*
X830974Y-18442D01*
X810911Y-31848D01*
X793848Y-48911D01*
X780442Y-68975D01*
X771208Y-91268D01*
X766500Y-114935D01*
X136742Y-114935D01*
X138557Y-108951D01*
X139281Y-101600D01*
X139281Y32981D01*
X1903670Y32981D01*
X1915715Y12500D01*
X2019500Y12500D01*
X2019500Y116205D01*
X1999019Y128330D01*
X1988127Y125026D01*
X1964578Y114064D01*
X1943621Y98719D01*
X1926060Y79581D01*
X1912570Y57383D01*
X1903670Y32981D01*
X139281Y32981D01*
X139281Y101600D01*
X138557Y108951D01*
X136413Y116020D01*
X132931Y122535D01*
X128245Y128245D01*
X122535Y132931D01*
X116020Y136413D01*
X108951Y138557D01*
X101600Y139281D01*
X78685Y139281D01*
X88671Y145954D01*
X108046Y165329D01*
X123269Y188111D01*
X133754Y213426D01*
X139100Y240300D01*
X139100Y267700D01*
X133754Y294574D01*
X123269Y319889D01*
X108046Y342671D01*
X88671Y362046D01*
X65889Y377269D01*
X56881Y381000D01*
X65889Y384731D01*
X88671Y399954D01*
X108046Y419329D01*
X122992Y441698D01*
X127751Y431726D01*
X145058Y408562D01*
X166550Y389219D01*
X191404Y374441D01*
X218663Y364795D01*
X241500Y376655D01*
X241500Y495500D01*
X266500Y495500D01*
X266500Y376655D01*
X289337Y364795D01*
X316596Y374441D01*
X341450Y389219D01*
X362942Y408562D01*
X380248Y431726D01*
X392703Y457821D01*
X397204Y472663D01*
X385281Y495500D01*
X266500Y495500D01*
X241500Y495500D01*
X239500Y495500D01*
X239500Y520500D01*
X241500Y520500D01*
X241500Y522500D01*
X266500Y522500D01*
X266500Y520500D01*
X385281Y520500D01*
X397204Y543337D01*
X392703Y558179D01*
X380248Y584274D01*
X362942Y607438D01*
X341450Y626781D01*
X316596Y641559D01*
X298661Y647906D01*
X312026Y653442D01*
X332089Y666848D01*
X349152Y683911D01*
X359568Y699500D01*
X1944472Y699500D01*
X1948499Y693473D01*
X1963473Y678499D01*
X1981080Y666735D01*
X2000643Y658631D01*
X2021412Y654500D01*
X2042588Y654500D01*
X2063357Y658631D01*
X2082920Y666735D01*
X2100527Y678499D01*
X2115501Y693473D01*
X2127265Y711080D01*
X2135369Y730643D01*
X2139500Y751412D01*
X2139500Y772588D01*
X2138086Y779697D01*
X2150081Y791693D01*
X2146900Y775700D01*
X2146900Y748300D01*
X2152246Y721426D01*
X2162731Y696112D01*
X2177954Y673329D01*
X2197329Y653954D01*
X2220112Y638731D01*
X2229119Y635000D01*
X2220112Y631269D01*
X2197329Y616046D01*
X2177954Y596671D01*
X2162731Y573889D01*
X2152246Y548574D01*
X2146900Y521700D01*
X2146900Y494300D01*
X2152246Y467426D01*
X2162731Y442111D01*
X2177954Y419329D01*
X2197329Y399954D01*
X2220112Y384731D01*
X2229119Y381000D01*
X2220112Y377269D01*
X2197329Y362046D01*
X2177954Y342671D01*
X2162731Y319889D01*
X2152246Y294574D01*
X2146900Y267700D01*
X2146900Y240300D01*
X2152246Y213426D01*
X2162731Y188111D01*
X2177954Y165329D01*
X2197329Y145954D01*
X2220112Y130731D01*
X2229119Y127000D01*
X2220112Y123269D01*
X2197329Y108046D01*
X2177954Y88671D01*
X2162731Y65889D01*
X2155072Y47398D01*
X2151430Y57383D01*
X2137940Y79581D01*
X2120379Y98719D01*
X2099422Y114064D01*
X2075873Y125026D01*
X2064981Y128330D01*
X2044500Y116205D01*
X2044500Y12500D01*
X2046500Y12500D01*
X2046500Y-12500D01*
X2044500Y-12500D01*
X2044500Y-116205D01*
X2064981Y-128330D01*
X2075873Y-125026D01*
X2099422Y-114064D01*
X2120379Y-98719D01*
X2137940Y-79581D01*
X2151430Y-57383D01*
X2155072Y-47398D01*
X2162731Y-65889D01*
X2177954Y-88671D01*
X2197329Y-108046D01*
X2220112Y-123269D01*
X2245426Y-133754D01*
X2272300Y-139100D01*
X2299700Y-139100D01*
X2326574Y-133754D01*
X2351889Y-123269D01*
X2374671Y-108046D01*
X2394046Y-88671D01*
X2409269Y-65889D01*
X2419754Y-40574D01*
X2425100Y-13700D01*
X2425100Y13700D01*
X2419754Y40574D01*
X2409269Y65889D01*
X2394046Y88671D01*
X2374671Y108046D01*
X2351889Y123269D01*
X2342881Y127000D01*
X2351889Y130731D01*
X2374671Y145954D01*
X2394046Y165329D01*
X2409269Y188111D01*
X2419754Y213426D01*
X2425100Y240300D01*
X2425100Y267700D01*
X2419754Y294574D01*
X2409269Y319889D01*
X2394046Y342671D01*
X2374671Y362046D01*
X2351889Y377269D01*
X2342881Y381000D01*
X2351889Y384731D01*
X2374671Y399954D01*
X2394046Y419329D01*
X2409269Y442111D01*
X2419754Y467426D01*
X2425100Y494300D01*
X2425100Y521700D01*
X2419754Y548574D01*
X2409269Y573889D01*
X2394046Y596671D01*
X2374671Y616046D01*
X2351889Y631269D01*
X2342881Y635000D01*
X2351889Y638731D01*
X2374671Y653954D01*
X2394046Y673329D01*
X2409269Y696112D01*
X2419754Y721426D01*
X2425100Y748300D01*
X2425100Y775700D01*
X2419754Y802574D01*
X2409269Y827888D01*
X2394046Y850671D01*
X2374671Y870046D01*
X2351889Y885269D01*
X2342881Y889000D01*
X2351889Y892731D01*
X2374671Y907954D01*
X2394046Y927329D01*
X2409269Y950111D01*
X2419754Y975426D01*
X2425100Y1002300D01*
X2425100Y1029700D01*
X2419754Y1056574D01*
X2409269Y1081889D01*
X2394046Y1104671D01*
X2374671Y1124046D01*
X2351889Y1139269D01*
X2342881Y1143000D01*
X2351889Y1146731D01*
X2374671Y1161954D01*
X2394046Y1181329D01*
X2409269Y1204112D01*
X2419754Y1229426D01*
X2425100Y1256300D01*
X2425100Y1283700D01*
X2419754Y1310574D01*
X2409269Y1335889D01*
X2394046Y1358671D01*
X2374671Y1378046D01*
X2351889Y1393269D01*
X2342881Y1397000D01*
X2351889Y1400731D01*
X2374671Y1415954D01*
X2394046Y1435329D01*
X2409269Y1458111D01*
X2419754Y1483426D01*
X2425100Y1510300D01*
X2425100Y1537700D01*
X2419754Y1564574D01*
X2409269Y1589888D01*
X2394046Y1612671D01*
X2374671Y1632046D01*
X2351889Y1647269D01*
X2342881Y1651000D01*
X2351889Y1654731D01*
X2374671Y1669954D01*
X2394046Y1689329D01*
X2409269Y1712111D01*
X2419754Y1737426D01*
X2425100Y1764300D01*
X2425100Y1791700D01*
X2419754Y1818574D01*
X2409269Y1843888D01*
X2394046Y1866671D01*
X2374671Y1886046D01*
X2351889Y1901269D01*
X2342881Y1905000D01*
X2351889Y1908731D01*
X2374671Y1923954D01*
X2394046Y1943329D01*
X2409269Y1966111D01*
X2419754Y1991426D01*
X2425100Y2018300D01*
X2425100Y2045700D01*
X2419754Y2072574D01*
X2409269Y2097889D01*
X2394046Y2120671D01*
X2374671Y2140046D01*
X2351889Y2155269D01*
X2342881Y2159000D01*
X2351889Y2162731D01*
X2374671Y2177954D01*
X2394046Y2197329D01*
X2409269Y2220112D01*
X2419754Y2245426D01*
X2425100Y2272300D01*
X2425100Y2299700D01*
X2419754Y2326574D01*
X2409269Y2351889D01*
X2394046Y2374671D01*
X2374671Y2394046D01*
X2351889Y2409269D01*
X2342881Y2413000D01*
X2351889Y2416731D01*
X2374671Y2431954D01*
X2394046Y2451329D01*
X2409269Y2474112D01*
X2419754Y2499426D01*
X2425100Y2526300D01*
X2425100Y2553700D01*
X2419754Y2580574D01*
X2409269Y2605889D01*
X2394046Y2628671D01*
X2374671Y2648046D01*
X2351889Y2663269D01*
X2342881Y2667000D01*
X2351889Y2670731D01*
X2374671Y2685954D01*
X2394046Y2705329D01*
X2409269Y2728112D01*
X2419754Y2753426D01*
X2425100Y2780300D01*
X2425100Y2807700D01*
X2419754Y2834574D01*
X2409269Y2859888D01*
X2394046Y2882671D01*
X2374671Y2902046D01*
X2351889Y2917269D01*
X2342881Y2921000D01*
X2351889Y2924731D01*
X2374671Y2939954D01*
X2394046Y2959329D01*
X2409269Y2982111D01*
X2419754Y3007426D01*
X2425100Y3034300D01*
X2425100Y3061700D01*
X2419754Y3088574D01*
X2409269Y3113888D01*
X2394046Y3136671D01*
X2374671Y3156046D01*
X2351889Y3171269D01*
X2342881Y3175000D01*
X2351889Y3178731D01*
X2374671Y3193954D01*
X2394046Y3213329D01*
X2409269Y3236111D01*
X2419754Y3261426D01*
X2425100Y3288300D01*
X2425100Y3315700D01*
X2419754Y3342574D01*
X2409269Y3367888D01*
X2394046Y3390671D01*
X2374671Y3410046D01*
X2351889Y3425269D01*
X2342881Y3429000D01*
X2351889Y3432731D01*
X2374671Y3447954D01*
X2394046Y3467329D01*
X2409269Y3490111D01*
X2419754Y3515426D01*
X2425100Y3542300D01*
X2425100Y3569700D01*
X2419754Y3596574D01*
X2409269Y3621888D01*
X2394046Y3644671D01*
X2374671Y3664046D01*
X2351889Y3679269D01*
X2326574Y3689754D01*
X2299700Y3695100D01*
X2272300Y3695100D01*
X2245426Y3689754D01*
X2220112Y3679269D01*
X2197329Y3664046D01*
X2179308Y3646025D01*
X2178596Y3653252D01*
X2175022Y3665033D01*
X2169218Y3675891D01*
X2161408Y3685408D01*
X2151891Y3693218D01*
X2141033Y3699022D01*
X2129252Y3702596D01*
X2117000Y3703802D01*
X2060125Y3703500D01*
X2044500Y3687875D01*
X2044500Y3568500D01*
X2046500Y3568500D01*
X2046500Y3543500D01*
X2044500Y3543500D01*
X2044500Y3541500D01*
X2019500Y3541500D01*
X2019500Y3543500D01*
X1900125Y3543500D01*
X1884500Y3527875D01*
X1884198Y3471000D01*
X1885404Y3458748D01*
X1888978Y3446967D01*
X1894782Y3436109D01*
X1902592Y3426592D01*
X1912109Y3418782D01*
X1922967Y3412978D01*
X1934748Y3409404D01*
X1947000Y3408198D01*
X1970630Y3408323D01*
X1953911Y3397152D01*
X1936848Y3380089D01*
X1923442Y3360025D01*
X1914208Y3337732D01*
X1909500Y3314065D01*
X1909500Y3289935D01*
X1914208Y3266268D01*
X1923442Y3243974D01*
X1936848Y3223911D01*
X1953911Y3206848D01*
X1973974Y3193442D01*
X1996268Y3184208D01*
X2019935Y3179500D01*
X2044065Y3179500D01*
X2067732Y3184208D01*
X2090025Y3193442D01*
X2110089Y3206848D01*
X2127152Y3223911D01*
X2140558Y3243974D01*
X2149792Y3266268D01*
X2150537Y3270013D01*
X2152246Y3261426D01*
X2162731Y3236111D01*
X2177954Y3213329D01*
X2197329Y3193954D01*
X2220112Y3178731D01*
X2229119Y3175000D01*
X2220112Y3171269D01*
X2197329Y3156046D01*
X2177954Y3136671D01*
X2162731Y3113888D01*
X2152246Y3088574D01*
X2150537Y3079986D01*
X2149792Y3083732D01*
X2140558Y3106025D01*
X2127152Y3126089D01*
X2110089Y3143152D01*
X2090025Y3156558D01*
X2067732Y3165792D01*
X2044065Y3170500D01*
X2019935Y3170500D01*
X1996268Y3165792D01*
X1973974Y3156558D01*
X1953911Y3143152D01*
X1936848Y3126089D01*
X1923442Y3106025D01*
X1914208Y3083732D01*
X1909500Y3060065D01*
X1909500Y3035935D01*
X1914208Y3012268D01*
X1923442Y2989974D01*
X1936848Y2969911D01*
X1953911Y2952848D01*
X1973974Y2939442D01*
X1996268Y2930208D01*
X2019935Y2925500D01*
X2044065Y2925500D01*
X2067732Y2930208D01*
X2090025Y2939442D01*
X2110089Y2952848D01*
X2127152Y2969911D01*
X2140558Y2989974D01*
X2149792Y3012268D01*
X2150537Y3016013D01*
X2152246Y3007426D01*
X2162731Y2982111D01*
X2177954Y2959329D01*
X2197329Y2939954D01*
X2220112Y2924731D01*
X2229119Y2921000D01*
X2220112Y2917269D01*
X2197329Y2902046D01*
X2177954Y2882671D01*
X2162731Y2859888D01*
X2152246Y2834574D01*
X2150537Y2825986D01*
X2149792Y2829732D01*
X2140558Y2852025D01*
X2127152Y2872089D01*
X2110089Y2889152D01*
X2090025Y2902558D01*
X2067732Y2911792D01*
X2044065Y2916500D01*
X2019935Y2916500D01*
X1996268Y2911792D01*
X1973974Y2902558D01*
X1953911Y2889152D01*
X1936848Y2872089D01*
X1923442Y2852025D01*
X1914208Y2829732D01*
X1909500Y2806065D01*
X1909500Y2781935D01*
X1914208Y2758268D01*
X1923442Y2735975D01*
X1936848Y2715911D01*
X1953911Y2698848D01*
X1973974Y2685442D01*
X1996268Y2676208D01*
X2019935Y2671500D01*
X2044065Y2671500D01*
X2067732Y2676208D01*
X2090025Y2685442D01*
X2110089Y2698848D01*
X2127152Y2715911D01*
X2140558Y2735975D01*
X2149792Y2758268D01*
X2150537Y2762014D01*
X2152246Y2753426D01*
X2162731Y2728112D01*
X2177954Y2705329D01*
X2197329Y2685954D01*
X2220112Y2670731D01*
X2229119Y2667000D01*
X2220112Y2663269D01*
X2197329Y2648046D01*
X2177954Y2628671D01*
X2162731Y2605889D01*
X2161328Y2602500D01*
X2125541Y2602500D01*
X2119384Y2611715D01*
X2103715Y2627384D01*
X2085289Y2639696D01*
X2064815Y2648177D01*
X2043080Y2652500D01*
X2020920Y2652500D01*
X1999185Y2648177D01*
X1978711Y2639696D01*
X1960285Y2627384D01*
X1944616Y2611715D01*
X1932304Y2593289D01*
X1923823Y2572815D01*
X1919500Y2551080D01*
X1919500Y2528920D01*
X1923823Y2507185D01*
X1932304Y2486711D01*
X1944616Y2468286D01*
X1960285Y2452616D01*
X1978711Y2440304D01*
X1999185Y2431823D01*
X2020920Y2427500D01*
X2043080Y2427500D01*
X2064815Y2431823D01*
X2085289Y2440304D01*
X2103715Y2452616D01*
X2119384Y2468286D01*
X2125541Y2477500D01*
X2161328Y2477500D01*
X2162731Y2474112D01*
X2177954Y2451329D01*
X2197329Y2431954D01*
X2220112Y2416731D01*
X2229119Y2413000D01*
X2220112Y2409269D01*
X2197329Y2394046D01*
X2177954Y2374671D01*
X2162731Y2351889D01*
X2161328Y2348500D01*
X2125541Y2348500D01*
X2119384Y2357715D01*
X2103715Y2373384D01*
X2085289Y2385696D01*
X2064815Y2394177D01*
X2043080Y2398500D01*
X2020920Y2398500D01*
X1999185Y2394177D01*
X1978711Y2385696D01*
X1960285Y2373384D01*
X1944616Y2357715D01*
X1932304Y2339289D01*
X1923823Y2318815D01*
X1919500Y2297080D01*
X1919500Y2274920D01*
X1923823Y2253185D01*
X1932304Y2232711D01*
X1944616Y2214286D01*
X1960285Y2198616D01*
X1978711Y2186304D01*
X1999185Y2177823D01*
X2020920Y2173500D01*
X2043080Y2173500D01*
X2064815Y2177823D01*
X2085289Y2186304D01*
X2103715Y2198616D01*
X2119384Y2214286D01*
X2125541Y2223500D01*
X2161328Y2223500D01*
X2162731Y2220112D01*
X2177954Y2197329D01*
X2197329Y2177954D01*
X2220112Y2162731D01*
X2229119Y2159000D01*
X2220112Y2155269D01*
X2197329Y2140046D01*
X2177954Y2120671D01*
X2162731Y2097889D01*
X2161328Y2094500D01*
X2125541Y2094500D01*
X2119384Y2103715D01*
X2103715Y2119384D01*
X2085289Y2131696D01*
X2064815Y2140177D01*
X2043080Y2144500D01*
X2020920Y2144500D01*
X1999185Y2140177D01*
X1978711Y2131696D01*
X1960285Y2119384D01*
X1944616Y2103715D01*
X1932304Y2085289D01*
X1923823Y2064815D01*
X1919500Y2043080D01*
X1919500Y2020920D01*
X1923823Y1999185D01*
X1932304Y1978711D01*
X1944616Y1960285D01*
X1960285Y1944616D01*
X1978711Y1932304D01*
X1999185Y1923823D01*
X2020920Y1919500D01*
X2043080Y1919500D01*
X2064815Y1923823D01*
X2085289Y1932304D01*
X2103715Y1944616D01*
X2119384Y1960285D01*
X2125541Y1969500D01*
X2161328Y1969500D01*
X2162731Y1966111D01*
X2177954Y1943329D01*
X2197329Y1923954D01*
X2220112Y1908731D01*
X2229119Y1905000D01*
X2220112Y1901269D01*
X2197329Y1886046D01*
X2177954Y1866671D01*
X2162731Y1843888D01*
X2161328Y1840500D01*
X2125541Y1840500D01*
X2119384Y1849714D01*
X2103715Y1865384D01*
X2085289Y1877696D01*
X2064815Y1886177D01*
X2043080Y1890500D01*
X2020920Y1890500D01*
X1999185Y1886177D01*
X1978711Y1877696D01*
X1960285Y1865384D01*
X1944616Y1849714D01*
X1932304Y1831289D01*
X1923823Y1810815D01*
X1919500Y1789080D01*
X1919500Y1766920D01*
X1923823Y1745185D01*
X1932304Y1724711D01*
X1944616Y1706285D01*
X1960285Y1690616D01*
X1978711Y1678304D01*
X1999185Y1669823D01*
X2020920Y1665500D01*
X2043080Y1665500D01*
X2064815Y1669823D01*
X2085289Y1678304D01*
X2103715Y1690616D01*
X2119384Y1706285D01*
X2125541Y1715500D01*
X2161328Y1715500D01*
X2162731Y1712111D01*
X2177954Y1689329D01*
X2197329Y1669954D01*
X2220112Y1654731D01*
X2229119Y1651000D01*
X2220112Y1647269D01*
X2197329Y1632046D01*
X2177954Y1612671D01*
X2162731Y1589888D01*
X2152246Y1564574D01*
X2146900Y1537700D01*
X2146900Y1510300D01*
X2152246Y1483426D01*
X2162731Y1458111D01*
X2177954Y1435329D01*
X2197329Y1415954D01*
X2220112Y1400731D01*
X2229119Y1397000D01*
X2220112Y1393269D01*
X2197329Y1378046D01*
X2177954Y1358671D01*
X2162731Y1335889D01*
X2152246Y1310574D01*
X2146900Y1283700D01*
X2146900Y1256300D01*
X2152246Y1229426D01*
X2162731Y1204112D01*
X2177954Y1181329D01*
X2197329Y1161954D01*
X2220112Y1146731D01*
X2229119Y1143000D01*
X2220112Y1139269D01*
X2197329Y1124046D01*
X2177954Y1104671D01*
X2162731Y1081889D01*
X2152246Y1056574D01*
X2146900Y1029700D01*
X2146900Y1002300D01*
X2152246Y975426D01*
X2153649Y972037D01*
X2049697Y868086D01*
X2042588Y869500D01*
X2021412Y869500D01*
X2000643Y865369D01*
X1981080Y857265D01*
X1963473Y845501D01*
X1948499Y830527D01*
X1944472Y824500D01*
X359568Y824500D01*
X349152Y840089D01*
X332089Y857152D01*
X312026Y870558D01*
X289732Y879792D01*
X266065Y884500D01*
X241935Y884500D01*
X218268Y879792D01*
X195974Y870558D01*
X175911Y857152D01*
X158848Y840089D01*
X145442Y820025D01*
X136208Y797732D01*
X135463Y793986D01*
X133754Y802574D01*
X123269Y827888D01*
X108046Y850671D01*
X88671Y870046D01*
X65889Y885269D01*
X56881Y889000D01*
X65889Y892731D01*
X88671Y907954D01*
X108046Y927329D01*
X123269Y950111D01*
X131319Y969545D01*
X131319Y931000D01*
X132043Y923649D01*
X134187Y916580D01*
X137669Y910065D01*
X142355Y904355D01*
X148065Y899669D01*
X154580Y896187D01*
X161649Y894043D01*
X169000Y893319D01*
X339000Y893319D01*
X346351Y894043D01*
X353420Y896187D01*
X359935Y899669D01*
X365645Y904355D01*
X370331Y910065D01*
X373813Y916580D01*
X375957Y923649D01*
X376681Y931000D01*
X376681Y1101000D01*
X375957Y1108351D01*
X373813Y1115420D01*
X370331Y1121935D01*
X365645Y1127645D01*
X359935Y1132331D01*
X353420Y1135813D01*
X346351Y1137957D01*
X339000Y1138681D01*
X169000Y1138681D01*
X161649Y1137957D01*
X154580Y1135813D01*
X148065Y1132331D01*
X142355Y1127645D01*
X137669Y1121935D01*
X134187Y1115420D01*
X132043Y1108351D01*
X131319Y1101000D01*
X131319Y1062455D01*
X123269Y1081889D01*
X108046Y1104671D01*
X88671Y1124046D01*
X65889Y1139269D01*
X56881Y1143000D01*
X65889Y1146731D01*
X88671Y1161954D01*
X108046Y1181329D01*
X123269Y1204112D01*
X133754Y1229426D01*
X139100Y1256300D01*
X139100Y1283700D01*
X133754Y1310574D01*
X123269Y1335889D01*
X108046Y1358671D01*
X88671Y1378046D01*
X65889Y1393269D01*
X56881Y1397000D01*
X65889Y1400731D01*
X88671Y1415954D01*
X108046Y1435329D01*
X123269Y1458111D01*
X133754Y1483426D01*
X139100Y1510300D01*
X139100Y1534588D01*
X146500Y1534588D01*
X146500Y1513412D01*
X150631Y1492643D01*
X158735Y1473080D01*
X170499Y1455473D01*
X185473Y1440499D01*
X203080Y1428735D01*
X222643Y1420631D01*
X243412Y1416500D01*
X264588Y1416500D01*
X285357Y1420631D01*
X304920Y1428735D01*
X322527Y1440499D01*
X337501Y1455473D01*
X341528Y1461500D01*
X822431Y1461500D01*
X825500Y1461198D01*
X828569Y1461500D01*
X828570Y1461500D01*
X837752Y1462404D01*
X849533Y1465978D01*
X860391Y1471782D01*
X869908Y1479592D01*
X871866Y1481978D01*
X924476Y1534588D01*
X1924500Y1534588D01*
X1924500Y1513412D01*
X1928631Y1492643D01*
X1936735Y1473080D01*
X1948499Y1455473D01*
X1963473Y1440499D01*
X1981080Y1428735D01*
X2000643Y1420631D01*
X2021412Y1416500D01*
X2042588Y1416500D01*
X2063357Y1420631D01*
X2082920Y1428735D01*
X2100527Y1440499D01*
X2115501Y1455473D01*
X2127265Y1473080D01*
X2135369Y1492643D01*
X2139500Y1513412D01*
X2139500Y1534588D01*
X2135369Y1555357D01*
X2127265Y1574920D01*
X2115501Y1592527D01*
X2100527Y1607501D01*
X2082920Y1619265D01*
X2063357Y1627369D01*
X2042588Y1631500D01*
X2021412Y1631500D01*
X2000643Y1627369D01*
X1981080Y1619265D01*
X1963473Y1607501D01*
X1948499Y1592527D01*
X1936735Y1574920D01*
X1928631Y1555357D01*
X1924500Y1534588D01*
X924476Y1534588D01*
X1178476Y1788588D01*
X1670500Y1788588D01*
X1670500Y1767412D01*
X1674631Y1746643D01*
X1682735Y1727080D01*
X1694499Y1709473D01*
X1709473Y1694499D01*
X1727080Y1682735D01*
X1746643Y1674631D01*
X1767412Y1670500D01*
X1788588Y1670500D01*
X1809357Y1674631D01*
X1828920Y1682735D01*
X1846527Y1694499D01*
X1861501Y1709473D01*
X1873265Y1727080D01*
X1881369Y1746643D01*
X1885500Y1767412D01*
X1885500Y1788588D01*
X1881369Y1809357D01*
X1873265Y1828920D01*
X1861501Y1846527D01*
X1846527Y1861501D01*
X1828920Y1873265D01*
X1809357Y1881369D01*
X1788588Y1885500D01*
X1767412Y1885500D01*
X1746643Y1881369D01*
X1727080Y1873265D01*
X1709473Y1861501D01*
X1694499Y1846527D01*
X1682735Y1828920D01*
X1674631Y1809357D01*
X1670500Y1788588D01*
X1178476Y1788588D01*
X1207388Y1817500D01*
X1215118Y1817500D01*
X1232023Y1820863D01*
X1247947Y1827458D01*
X1262278Y1837034D01*
X1274466Y1849222D01*
X1278326Y1855000D01*
X1347698Y1855000D01*
X1348904Y1842748D01*
X1352478Y1830967D01*
X1358282Y1820109D01*
X1366092Y1810592D01*
X1375609Y1802782D01*
X1386467Y1796978D01*
X1398248Y1793404D01*
X1410500Y1792198D01*
X1432375Y1792500D01*
X1448000Y1808125D01*
X1448000Y1892500D01*
X1473000Y1892500D01*
X1473000Y1808125D01*
X1488625Y1792500D01*
X1510500Y1792198D01*
X1522752Y1793404D01*
X1534533Y1796978D01*
X1545391Y1802782D01*
X1554908Y1810592D01*
X1562718Y1820109D01*
X1568522Y1830967D01*
X1572096Y1842748D01*
X1573302Y1855000D01*
X1573000Y1876875D01*
X1557375Y1892500D01*
X1473000Y1892500D01*
X1448000Y1892500D01*
X1363625Y1892500D01*
X1348000Y1876875D01*
X1347698Y1855000D01*
X1278326Y1855000D01*
X1284042Y1863553D01*
X1290637Y1879477D01*
X1294000Y1896382D01*
X1294000Y1913618D01*
X1290637Y1930523D01*
X1284042Y1946447D01*
X1278327Y1955000D01*
X1347698Y1955000D01*
X1348000Y1933125D01*
X1363625Y1917500D01*
X1448000Y1917500D01*
X1448000Y2001875D01*
X1473000Y2001875D01*
X1473000Y1917500D01*
X1557375Y1917500D01*
X1573000Y1933125D01*
X1573302Y1955000D01*
X1572096Y1967252D01*
X1568522Y1979033D01*
X1562718Y1989891D01*
X1554908Y1999408D01*
X1545391Y2007218D01*
X1534533Y2013022D01*
X1522752Y2016596D01*
X1510500Y2017802D01*
X1488625Y2017500D01*
X1473000Y2001875D01*
X1448000Y2001875D01*
X1432375Y2017500D01*
X1410500Y2017802D01*
X1398248Y2016596D01*
X1386467Y2013022D01*
X1375609Y2007218D01*
X1366092Y1999408D01*
X1358282Y1989891D01*
X1352478Y1979033D01*
X1348904Y1967252D01*
X1347698Y1955000D01*
X1278327Y1955000D01*
X1274466Y1960778D01*
X1262278Y1972966D01*
X1247947Y1982541D01*
X1232023Y1989137D01*
X1215118Y1992500D01*
X1197882Y1992500D01*
X1180977Y1989137D01*
X1165053Y1982541D01*
X1150722Y1972966D01*
X1138534Y1960778D01*
X1128959Y1946447D01*
X1122363Y1930523D01*
X1119000Y1913618D01*
X1119000Y1905888D01*
X799612Y1586500D01*
X341528Y1586500D01*
X337501Y1592527D01*
X322527Y1607501D01*
X304920Y1619265D01*
X285357Y1627369D01*
X264588Y1631500D01*
X243412Y1631500D01*
X222643Y1627369D01*
X203080Y1619265D01*
X185473Y1607501D01*
X170499Y1592527D01*
X158735Y1574920D01*
X150631Y1555357D01*
X146500Y1534588D01*
X139100Y1534588D01*
X139100Y1537700D01*
X133754Y1564574D01*
X123269Y1589888D01*
X108046Y1612671D01*
X88671Y1632046D01*
X65889Y1647269D01*
X56881Y1651000D01*
X65889Y1654731D01*
X88671Y1669954D01*
X108046Y1689329D01*
X123269Y1712111D01*
X133754Y1737426D01*
X139100Y1764300D01*
X139100Y1791700D01*
X133754Y1818574D01*
X123269Y1843888D01*
X108046Y1866671D01*
X88671Y1886046D01*
X65889Y1901269D01*
X56881Y1905000D01*
X65889Y1908731D01*
X73202Y1913618D01*
X611000Y1913618D01*
X611000Y1896382D01*
X614363Y1879477D01*
X620959Y1863553D01*
X630534Y1849222D01*
X642722Y1837034D01*
X657053Y1827458D01*
X672977Y1820863D01*
X689882Y1817500D01*
X707118Y1817500D01*
X724023Y1820863D01*
X739947Y1827458D01*
X754278Y1837034D01*
X766466Y1849222D01*
X776041Y1863553D01*
X782637Y1879477D01*
X786000Y1896382D01*
X786000Y1913618D01*
X865000Y1913618D01*
X865000Y1896382D01*
X868363Y1879477D01*
X874958Y1863553D01*
X884534Y1849222D01*
X896722Y1837034D01*
X911053Y1827458D01*
X926977Y1820863D01*
X943882Y1817500D01*
X961118Y1817500D01*
X978023Y1820863D01*
X993947Y1827458D01*
X1008278Y1837034D01*
X1020466Y1849222D01*
X1030041Y1863553D01*
X1036637Y1879477D01*
X1040000Y1896382D01*
X1040000Y1913618D01*
X1036637Y1930523D01*
X1030041Y1946447D01*
X1020466Y1960778D01*
X1008278Y1972966D01*
X993947Y1982541D01*
X978023Y1989137D01*
X961118Y1992500D01*
X943882Y1992500D01*
X926977Y1989137D01*
X911053Y1982541D01*
X896722Y1972966D01*
X884534Y1960778D01*
X874958Y1946447D01*
X868363Y1930523D01*
X865000Y1913618D01*
X786000Y1913618D01*
X782637Y1930523D01*
X776041Y1946447D01*
X766466Y1960778D01*
X754278Y1972966D01*
X739947Y1982541D01*
X724023Y1989137D01*
X707118Y1992500D01*
X689882Y1992500D01*
X672977Y1989137D01*
X657053Y1982541D01*
X642722Y1972966D01*
X630534Y1960778D01*
X620959Y1946447D01*
X614363Y1930523D01*
X611000Y1913618D01*
X73202Y1913618D01*
X88671Y1923954D01*
X108046Y1943329D01*
X123269Y1966111D01*
X133754Y1991426D01*
X139100Y2018300D01*
X139100Y2045700D01*
X133754Y2072574D01*
X123269Y2097889D01*
X108046Y2120671D01*
X88671Y2140046D01*
X65889Y2155269D01*
X56881Y2159000D01*
X65889Y2162731D01*
X88671Y2177954D01*
X108046Y2197329D01*
X123269Y2220112D01*
X130928Y2238602D01*
X134570Y2228617D01*
X148060Y2206420D01*
X165621Y2187281D01*
X186578Y2171936D01*
X210127Y2160974D01*
X221019Y2157670D01*
X241500Y2169795D01*
X241500Y2273500D01*
X266500Y2273500D01*
X266500Y2169795D01*
X286981Y2157670D01*
X297873Y2160974D01*
X321422Y2171936D01*
X342379Y2187281D01*
X359940Y2206420D01*
X373430Y2228617D01*
X382330Y2253019D01*
X370285Y2273500D01*
X266500Y2273500D01*
X241500Y2273500D01*
X239500Y2273500D01*
X239500Y2298500D01*
X241500Y2298500D01*
X241500Y2402205D01*
X266500Y2402205D01*
X266500Y2298500D01*
X370285Y2298500D01*
X382330Y2318981D01*
X373430Y2343384D01*
X359940Y2365581D01*
X342379Y2384719D01*
X321422Y2400064D01*
X297873Y2411026D01*
X286981Y2414330D01*
X266500Y2402205D01*
X241500Y2402205D01*
X221019Y2414330D01*
X210127Y2411026D01*
X186578Y2400064D01*
X165621Y2384719D01*
X148060Y2365581D01*
X134570Y2343384D01*
X130928Y2333398D01*
X123269Y2351889D01*
X108046Y2374671D01*
X88671Y2394046D01*
X65889Y2409269D01*
X56881Y2413000D01*
X65889Y2416731D01*
X88671Y2431954D01*
X108046Y2451329D01*
X123269Y2474112D01*
X133754Y2499426D01*
X138012Y2520828D01*
X141016Y2505727D01*
X149873Y2484343D01*
X162732Y2465098D01*
X179098Y2448732D01*
X198343Y2435873D01*
X219726Y2427016D01*
X242427Y2422500D01*
X265573Y2422500D01*
X288274Y2427016D01*
X309657Y2435873D01*
X328902Y2448732D01*
X345268Y2465098D01*
X358127Y2484343D01*
X366984Y2505727D01*
X371500Y2528427D01*
X371500Y2551573D01*
X366984Y2574274D01*
X358127Y2595657D01*
X345268Y2614902D01*
X328902Y2631268D01*
X309657Y2644127D01*
X288274Y2652985D01*
X265573Y2657500D01*
X242427Y2657500D01*
X219726Y2652985D01*
X198343Y2644127D01*
X179098Y2631268D01*
X162732Y2614902D01*
X149873Y2595657D01*
X141016Y2574274D01*
X138012Y2559172D01*
X133754Y2580574D01*
X123269Y2605889D01*
X108046Y2628671D01*
X88671Y2648046D01*
X65889Y2663269D01*
X56881Y2667000D01*
X65889Y2670731D01*
X88671Y2685954D01*
X108046Y2705329D01*
X123269Y2728112D01*
X133754Y2753426D01*
X139100Y2780300D01*
X139100Y2807700D01*
X133754Y2834574D01*
X123269Y2859888D01*
X108046Y2882671D01*
X96717Y2894000D01*
X497319Y2894000D01*
X497319Y2694000D01*
X498043Y2686649D01*
X500187Y2679580D01*
X503669Y2673065D01*
X508355Y2667355D01*
X514065Y2662669D01*
X520580Y2659187D01*
X527649Y2657043D01*
X535000Y2656319D01*
X735000Y2656319D01*
X742351Y2657043D01*
X749420Y2659187D01*
X755935Y2662669D01*
X761645Y2667355D01*
X766331Y2673065D01*
X769813Y2679580D01*
X771957Y2686649D01*
X772681Y2694000D01*
X772681Y2720590D01*
X782197Y2706349D01*
X801349Y2687197D01*
X823869Y2672149D01*
X838715Y2666000D01*
X828570Y2666000D01*
X825500Y2666302D01*
X822430Y2666000D01*
X822430Y2666000D01*
X813248Y2665096D01*
X801467Y2661522D01*
X797098Y2659187D01*
X790609Y2655718D01*
X783477Y2649865D01*
X783476Y2649865D01*
X781092Y2647908D01*
X779135Y2645523D01*
X719978Y2586366D01*
X717592Y2584408D01*
X709782Y2574891D01*
X703978Y2564033D01*
X700404Y2552252D01*
X699500Y2543070D01*
X699500Y2543069D01*
X699198Y2540000D01*
X699500Y2536931D01*
X699500Y2500635D01*
X698500Y2499815D01*
X685243Y2510694D01*
X669608Y2519051D01*
X652643Y2524198D01*
X635000Y2525935D01*
X617357Y2524198D01*
X600392Y2519051D01*
X584757Y2510694D01*
X571053Y2499448D01*
X559806Y2485743D01*
X551449Y2470108D01*
X546302Y2453143D01*
X545000Y2439921D01*
X545000Y2386079D01*
X546302Y2372857D01*
X551449Y2355892D01*
X559806Y2340257D01*
X571053Y2326553D01*
X584757Y2315306D01*
X600392Y2306949D01*
X617357Y2301802D01*
X635000Y2300065D01*
X652643Y2301802D01*
X669608Y2306949D01*
X685243Y2315306D01*
X698500Y2326185D01*
X711757Y2315306D01*
X727392Y2306949D01*
X744357Y2301802D01*
X762000Y2300065D01*
X779643Y2301802D01*
X796608Y2306949D01*
X808330Y2313214D01*
X809855Y2311355D01*
X815565Y2306669D01*
X822080Y2303187D01*
X829149Y2301043D01*
X836500Y2300319D01*
X941500Y2300319D01*
X948851Y2301043D01*
X955920Y2303187D01*
X962435Y2306669D01*
X968145Y2311355D01*
X972831Y2317065D01*
X976313Y2323580D01*
X978457Y2330649D01*
X979181Y2338000D01*
X979181Y2439921D01*
X1116500Y2439921D01*
X1116500Y2386079D01*
X1117802Y2372857D01*
X1122949Y2355892D01*
X1131306Y2340257D01*
X1142553Y2326553D01*
X1156257Y2315306D01*
X1171892Y2306949D01*
X1188857Y2301802D01*
X1206500Y2300065D01*
X1224143Y2301802D01*
X1241108Y2306949D01*
X1256743Y2315306D01*
X1270000Y2326185D01*
X1283257Y2315306D01*
X1298892Y2306949D01*
X1315857Y2301802D01*
X1333500Y2300065D01*
X1351143Y2301802D01*
X1368108Y2306949D01*
X1379830Y2313214D01*
X1381355Y2311355D01*
X1387065Y2306669D01*
X1393580Y2303187D01*
X1400649Y2301043D01*
X1408000Y2300319D01*
X1513000Y2300319D01*
X1520351Y2301043D01*
X1527420Y2303187D01*
X1533935Y2306669D01*
X1539645Y2311355D01*
X1544331Y2317065D01*
X1547813Y2323580D01*
X1549957Y2330649D01*
X1550681Y2338000D01*
X1550681Y2488000D01*
X1549957Y2495351D01*
X1547813Y2502420D01*
X1544331Y2508935D01*
X1539645Y2514645D01*
X1533935Y2519331D01*
X1527420Y2522813D01*
X1520351Y2524957D01*
X1513000Y2525681D01*
X1408000Y2525681D01*
X1400649Y2524957D01*
X1393580Y2522813D01*
X1387065Y2519331D01*
X1381355Y2514645D01*
X1379830Y2512786D01*
X1368108Y2519051D01*
X1351143Y2524198D01*
X1333500Y2525935D01*
X1315857Y2524198D01*
X1298892Y2519051D01*
X1283257Y2510694D01*
X1270000Y2499815D01*
X1256743Y2510694D01*
X1241108Y2519051D01*
X1224143Y2524198D01*
X1206500Y2525935D01*
X1188857Y2524198D01*
X1171892Y2519051D01*
X1156257Y2510694D01*
X1142553Y2499448D01*
X1131306Y2485743D01*
X1122949Y2470108D01*
X1117802Y2453143D01*
X1116500Y2439921D01*
X979181Y2439921D01*
X979181Y2488000D01*
X978457Y2495351D01*
X976313Y2502420D01*
X972831Y2508935D01*
X968145Y2514645D01*
X962435Y2519331D01*
X955920Y2522813D01*
X948851Y2524957D01*
X941500Y2525681D01*
X836500Y2525681D01*
X836023Y2525634D01*
X851388Y2541000D01*
X987431Y2541000D01*
X990500Y2540698D01*
X993569Y2541000D01*
X993570Y2541000D01*
X1002752Y2541904D01*
X1014533Y2545478D01*
X1024093Y2550588D01*
X1670500Y2550588D01*
X1670500Y2529412D01*
X1674631Y2508643D01*
X1682735Y2489080D01*
X1694499Y2471473D01*
X1709473Y2456499D01*
X1727080Y2444735D01*
X1746643Y2436631D01*
X1767412Y2432500D01*
X1788588Y2432500D01*
X1809357Y2436631D01*
X1828920Y2444735D01*
X1846527Y2456499D01*
X1861501Y2471473D01*
X1873265Y2489080D01*
X1881369Y2508643D01*
X1885500Y2529412D01*
X1885500Y2550588D01*
X1881369Y2571357D01*
X1873265Y2590920D01*
X1861501Y2608527D01*
X1846527Y2623501D01*
X1828920Y2635265D01*
X1809357Y2643369D01*
X1788588Y2647500D01*
X1767412Y2647500D01*
X1746643Y2643369D01*
X1727080Y2635265D01*
X1709473Y2623501D01*
X1694499Y2608527D01*
X1682735Y2590920D01*
X1674631Y2571357D01*
X1670500Y2550588D01*
X1024093Y2550588D01*
X1025391Y2551282D01*
X1034908Y2559092D01*
X1036866Y2561478D01*
X1282931Y2807543D01*
X1513500Y2807543D01*
X1513500Y2780457D01*
X1518784Y2753893D01*
X1529149Y2728869D01*
X1544197Y2706349D01*
X1563349Y2687197D01*
X1585869Y2672149D01*
X1610893Y2661784D01*
X1637457Y2656500D01*
X1664543Y2656500D01*
X1691107Y2661784D01*
X1716131Y2672149D01*
X1738651Y2687197D01*
X1757803Y2706349D01*
X1772851Y2728869D01*
X1783216Y2753893D01*
X1788500Y2780457D01*
X1788500Y2807543D01*
X1783216Y2834107D01*
X1772851Y2859131D01*
X1757803Y2881651D01*
X1738651Y2900803D01*
X1716131Y2915851D01*
X1691107Y2926216D01*
X1664543Y2931500D01*
X1637457Y2931500D01*
X1610893Y2926216D01*
X1585869Y2915851D01*
X1563349Y2900803D01*
X1544197Y2881651D01*
X1529149Y2859131D01*
X1518784Y2834107D01*
X1513500Y2807543D01*
X1282931Y2807543D01*
X1312023Y2836635D01*
X1314408Y2838592D01*
X1322218Y2848109D01*
X1328022Y2858967D01*
X1331596Y2870748D01*
X1332500Y2879930D01*
X1332500Y2879930D01*
X1332802Y2883000D01*
X1332500Y2886070D01*
X1332500Y2895319D01*
X1345000Y2895319D01*
X1352351Y2896043D01*
X1359420Y2898187D01*
X1365935Y2901669D01*
X1371645Y2906355D01*
X1376331Y2912065D01*
X1379813Y2918580D01*
X1381957Y2925649D01*
X1382681Y2933000D01*
X1382681Y3033000D01*
X1381957Y3040351D01*
X1379813Y3047420D01*
X1379503Y3048000D01*
X1379813Y3048580D01*
X1381957Y3055649D01*
X1382681Y3063000D01*
X1382681Y3163000D01*
X1381957Y3170351D01*
X1379813Y3177420D01*
X1376331Y3183935D01*
X1371645Y3189645D01*
X1365935Y3194331D01*
X1359420Y3197813D01*
X1352351Y3199957D01*
X1345000Y3200681D01*
X1332500Y3200681D01*
X1332500Y3212612D01*
X1359388Y3239500D01*
X1528059Y3239500D01*
X1529149Y3236869D01*
X1544197Y3214349D01*
X1563349Y3195197D01*
X1585869Y3180149D01*
X1610893Y3169784D01*
X1637457Y3164500D01*
X1664543Y3164500D01*
X1691107Y3169784D01*
X1716131Y3180149D01*
X1738651Y3195197D01*
X1757803Y3214349D01*
X1772851Y3236869D01*
X1783216Y3261893D01*
X1788500Y3288457D01*
X1788500Y3315543D01*
X1783216Y3342107D01*
X1772851Y3367131D01*
X1757803Y3389651D01*
X1738651Y3408803D01*
X1716131Y3423851D01*
X1691107Y3434216D01*
X1664543Y3439500D01*
X1637457Y3439500D01*
X1610893Y3434216D01*
X1585869Y3423851D01*
X1563349Y3408803D01*
X1544197Y3389651D01*
X1529149Y3367131D01*
X1528059Y3364500D01*
X1336570Y3364500D01*
X1333500Y3364802D01*
X1330430Y3364500D01*
X1330430Y3364500D01*
X1321248Y3363596D01*
X1309467Y3360022D01*
X1304412Y3357320D01*
X1298609Y3354218D01*
X1291477Y3348365D01*
X1291477Y3348365D01*
X1289092Y3346408D01*
X1287135Y3344023D01*
X1227978Y3284866D01*
X1225592Y3282908D01*
X1217782Y3273391D01*
X1211978Y3262533D01*
X1208404Y3250752D01*
X1207500Y3241570D01*
X1207500Y3241569D01*
X1207198Y3238500D01*
X1207500Y3235431D01*
X1207500Y3200681D01*
X1195000Y3200681D01*
X1187649Y3199957D01*
X1180580Y3197813D01*
X1174065Y3194331D01*
X1168355Y3189645D01*
X1163669Y3183935D01*
X1160187Y3177420D01*
X1158043Y3170351D01*
X1157319Y3163000D01*
X1157319Y3063000D01*
X1158043Y3055649D01*
X1160187Y3048580D01*
X1160497Y3048000D01*
X1160187Y3047420D01*
X1158043Y3040351D01*
X1157319Y3033000D01*
X1157319Y2933000D01*
X1158043Y2925649D01*
X1160187Y2918580D01*
X1163669Y2912065D01*
X1168355Y2906355D01*
X1174065Y2901669D01*
X1180580Y2898187D01*
X1187649Y2896043D01*
X1194026Y2895414D01*
X964612Y2666000D01*
X939285Y2666000D01*
X954131Y2672149D01*
X976651Y2687197D01*
X995803Y2706349D01*
X1010851Y2728869D01*
X1021216Y2753893D01*
X1026500Y2780457D01*
X1026500Y2807543D01*
X1021216Y2834107D01*
X1010851Y2859131D01*
X995803Y2881651D01*
X976651Y2900803D01*
X954131Y2915851D01*
X929107Y2926216D01*
X902543Y2931500D01*
X875457Y2931500D01*
X848893Y2926216D01*
X823869Y2915851D01*
X801349Y2900803D01*
X782197Y2881651D01*
X772681Y2867410D01*
X772681Y2894000D01*
X771957Y2901351D01*
X769813Y2908420D01*
X766331Y2914935D01*
X761645Y2920645D01*
X755935Y2925331D01*
X749420Y2928813D01*
X742351Y2930957D01*
X735000Y2931681D01*
X535000Y2931681D01*
X527649Y2930957D01*
X520580Y2928813D01*
X514065Y2925331D01*
X508355Y2920645D01*
X503669Y2914935D01*
X500187Y2908420D01*
X498043Y2901351D01*
X497319Y2894000D01*
X96717Y2894000D01*
X88671Y2902046D01*
X65889Y2917269D01*
X56881Y2921000D01*
X65889Y2924731D01*
X88671Y2939954D01*
X108046Y2959329D01*
X123269Y2982111D01*
X133754Y3007426D01*
X139100Y3034300D01*
X139100Y3061700D01*
X133754Y3088574D01*
X123269Y3113888D01*
X108046Y3136671D01*
X88671Y3156046D01*
X65889Y3171269D01*
X56881Y3175000D01*
X65889Y3178731D01*
X88671Y3193954D01*
X108046Y3213329D01*
X111537Y3218554D01*
X112404Y3209748D01*
X115978Y3197967D01*
X121782Y3187109D01*
X129592Y3177592D01*
X139109Y3169782D01*
X149967Y3163978D01*
X161748Y3160404D01*
X174000Y3159198D01*
X225875Y3159500D01*
X241500Y3175125D01*
X241500Y3289500D01*
X266500Y3289500D01*
X266500Y3175125D01*
X282125Y3159500D01*
X334000Y3159198D01*
X346252Y3160404D01*
X358033Y3163978D01*
X368891Y3169782D01*
X378408Y3177592D01*
X386218Y3187109D01*
X392022Y3197967D01*
X395596Y3209748D01*
X396802Y3222000D01*
X396500Y3273875D01*
X380875Y3289500D01*
X266500Y3289500D01*
X241500Y3289500D01*
X239500Y3289500D01*
X239500Y3314500D01*
X241500Y3314500D01*
X241500Y3428875D01*
X266500Y3428875D01*
X266500Y3314500D01*
X380875Y3314500D01*
X381918Y3315543D01*
X497500Y3315543D01*
X497500Y3288457D01*
X502784Y3261893D01*
X513149Y3236869D01*
X528197Y3214349D01*
X547349Y3195197D01*
X569869Y3180149D01*
X594893Y3169784D01*
X621457Y3164500D01*
X648543Y3164500D01*
X675107Y3169784D01*
X700131Y3180149D01*
X713562Y3189124D01*
X793801Y3189124D01*
X803417Y3162939D01*
X832191Y3148915D01*
X863148Y3140773D01*
X895099Y3138828D01*
X926815Y3143153D01*
X957078Y3153582D01*
X974583Y3162939D01*
X984199Y3189124D01*
X889000Y3284322D01*
X793801Y3189124D01*
X713562Y3189124D01*
X722651Y3195197D01*
X741803Y3214349D01*
X746937Y3222033D01*
X749939Y3216417D01*
X776124Y3206801D01*
X871322Y3302000D01*
X906678Y3302000D01*
X1001876Y3206801D01*
X1028061Y3216417D01*
X1042085Y3245191D01*
X1050227Y3276148D01*
X1052172Y3308099D01*
X1047847Y3339815D01*
X1037418Y3370078D01*
X1028061Y3387583D01*
X1001876Y3397199D01*
X906678Y3302000D01*
X871322Y3302000D01*
X776124Y3397199D01*
X749939Y3387583D01*
X747090Y3381738D01*
X741803Y3389651D01*
X722651Y3408803D01*
X713562Y3414876D01*
X793801Y3414876D01*
X889000Y3319678D01*
X984199Y3414876D01*
X974583Y3441061D01*
X945809Y3455085D01*
X914852Y3463227D01*
X882901Y3465172D01*
X851185Y3460847D01*
X820922Y3450418D01*
X803417Y3441061D01*
X793801Y3414876D01*
X713562Y3414876D01*
X700131Y3423851D01*
X675107Y3434216D01*
X648543Y3439500D01*
X621457Y3439500D01*
X594893Y3434216D01*
X569869Y3423851D01*
X547349Y3408803D01*
X528197Y3389651D01*
X513149Y3367131D01*
X502784Y3342107D01*
X497500Y3315543D01*
X381918Y3315543D01*
X396500Y3330125D01*
X396802Y3382000D01*
X395596Y3394252D01*
X392022Y3406033D01*
X386218Y3416891D01*
X378408Y3426408D01*
X368891Y3434218D01*
X358033Y3440022D01*
X346252Y3443596D01*
X334000Y3444802D01*
X282125Y3444500D01*
X266500Y3428875D01*
X241500Y3428875D01*
X225875Y3444500D01*
X174000Y3444802D01*
X161748Y3443596D01*
X149967Y3440022D01*
X139109Y3434218D01*
X129592Y3426408D01*
X121782Y3416891D01*
X115978Y3406033D01*
X112404Y3394252D01*
X111537Y3385446D01*
X108046Y3390671D01*
X88671Y3410046D01*
X83073Y3413786D01*
X86531Y3415634D01*
X96340Y3441983D01*
X0Y3538322D01*
X-96340Y3441983D01*
X-86531Y3415634D01*
X-82935Y3413879D01*
X-88671Y3410046D01*
X-108046Y3390671D01*
X-123269Y3367888D01*
X-133754Y3342574D01*
X-139100Y3315700D01*
X-139100Y3288300D01*
X-133754Y3261426D01*
X-123269Y3236111D01*
X-108046Y3213329D01*
X-88671Y3193954D01*
X-65889Y3178731D01*
X-56881Y3175000D01*
X-65889Y3171269D01*
X-88671Y3156046D01*
X-108046Y3136671D01*
X-123269Y3113888D01*
X-133754Y3088574D01*
X-139100Y3061700D01*
X-139100Y3034300D01*
X-133754Y3007426D01*
X-123269Y2982111D01*
X-108046Y2959329D01*
X-88671Y2939954D01*
X-65889Y2924731D01*
X-56881Y2921000D01*
X-65889Y2917269D01*
X-88671Y2902046D01*
X-108046Y2882671D01*
X-123269Y2859888D01*
X-133754Y2834574D01*
X-139100Y2807700D01*
X-139100Y2780300D01*
X-133754Y2753426D01*
X-123269Y2728112D01*
X-108046Y2705329D01*
X-88671Y2685954D01*
X-65889Y2670731D01*
X-56881Y2667000D01*
X-65889Y2663269D01*
X-88671Y2648046D01*
X-108046Y2628671D01*
X-123269Y2605889D01*
X-133754Y2580574D01*
X-139100Y2553700D01*
X-139100Y2526300D01*
X-133754Y2499426D01*
X-123269Y2474112D01*
X-108046Y2451329D01*
X-88671Y2431954D01*
X-65889Y2416731D01*
X-56881Y2413000D01*
X-65889Y2409269D01*
X-88671Y2394046D01*
X-108046Y2374671D01*
X-123269Y2351889D01*
X-133754Y2326574D01*
X-139100Y2299700D01*
X-139100Y2272300D01*
X-133754Y2245426D01*
X-123269Y2220112D01*
X-108046Y2197329D01*
X-88671Y2177954D01*
X-65889Y2162731D01*
X-56881Y2159000D01*
X-65889Y2155269D01*
X-88671Y2140046D01*
X-108046Y2120671D01*
X-123269Y2097889D01*
X-133754Y2072574D01*
X-139100Y2045700D01*
X-139100Y2018300D01*
X-133754Y1991426D01*
X-123269Y1966111D01*
X-108046Y1943329D01*
X-88671Y1923954D01*
X-65889Y1908731D01*
X-56881Y1905000D01*
X-65889Y1901269D01*
X-88671Y1886046D01*
X-108046Y1866671D01*
X-123269Y1843888D01*
X-133754Y1818574D01*
X-139100Y1791700D01*
X-139100Y1764300D01*
X-133754Y1737426D01*
X-123269Y1712111D01*
X-108046Y1689329D01*
X-88671Y1669954D01*
X-65889Y1654731D01*
X-56881Y1651000D01*
X-65889Y1647269D01*
X-88671Y1632046D01*
X-108046Y1612671D01*
X-123269Y1589888D01*
X-133754Y1564574D01*
X-139100Y1537700D01*
X-139100Y1510300D01*
X-133754Y1483426D01*
X-123269Y1458111D01*
X-108046Y1435329D01*
X-88671Y1415954D01*
X-65889Y1400731D01*
X-56881Y1397000D01*
X-65889Y1393269D01*
X-88671Y1378046D01*
X-108046Y1358671D01*
X-123269Y1335889D01*
X-133754Y1310574D01*
X-139100Y1283700D01*
X-139100Y1256300D01*
X-133754Y1229426D01*
X-123269Y1204112D01*
X-108046Y1181329D01*
X-88671Y1161954D01*
X-65889Y1146731D01*
X-56881Y1143000D01*
X-65889Y1139269D01*
X-88671Y1124046D01*
X-108046Y1104671D01*
X-123269Y1081889D01*
X-133754Y1056574D01*
X-139100Y1029700D01*
X-139100Y1002300D01*
X-133754Y975426D01*
X-123269Y950111D01*
X-108046Y927329D01*
X-88671Y907954D01*
X-65889Y892731D01*
X-56881Y889000D01*
X-65889Y885269D01*
X-88671Y870046D01*
X-108046Y850671D01*
X-123269Y827888D01*
X-133754Y802574D01*
X-139100Y775700D01*
X-139100Y748300D01*
X-133754Y721426D01*
X-123269Y696112D01*
X-108046Y673329D01*
X-88671Y653954D01*
X-65889Y638731D01*
X-56881Y635000D01*
X-65889Y631269D01*
X-88671Y616046D01*
X-108046Y596671D01*
X-123269Y573889D01*
X-133754Y548574D01*
X-139100Y521700D01*
X-139100Y494300D01*
X-133754Y467426D01*
X-123269Y442111D01*
X-108046Y419329D01*
X-88671Y399954D01*
X-65889Y384731D01*
X-56881Y381000D01*
X-65889Y377269D01*
X-88671Y362046D01*
X-108046Y342671D01*
X-123269Y319889D01*
X-133754Y294574D01*
X-139100Y267700D01*
X-139100Y240300D01*
X-133754Y213426D01*
X-123269Y188111D01*
X-108046Y165329D01*
X-88671Y145954D01*
X-78685Y139281D01*
X-101600Y139281D01*
X-108951Y138557D01*
X-116020Y136413D01*
X-122535Y132931D01*
X-128245Y128245D01*
X-132931Y122535D01*
X-136413Y116020D01*
X-138557Y108951D01*
X-139281Y101600D01*
X-147000Y101600D01*
X-147000Y3481882D01*
X-140366Y3469469D01*
X-114017Y3459660D01*
X-17678Y3556000D01*
X17678Y3556000D01*
X114017Y3459660D01*
X140366Y3469469D01*
X154550Y3498516D01*
X162795Y3529772D01*
X164784Y3562035D01*
X160440Y3594067D01*
X149931Y3624636D01*
X140366Y3642531D01*
X114017Y3652340D01*
X17678Y3556000D01*
X-17678Y3556000D01*
X-114017Y3652340D01*
X-140366Y3642531D01*
X-147000Y3628944D01*
X-147000Y3670017D01*
X-96340Y3670017D01*
X0Y3573678D01*
X96340Y3670017D01*
X86531Y3696365D01*
X57484Y3710550D01*
X26228Y3718795D01*
X-6035Y3720783D01*
X-38067Y3716440D01*
X-68636Y3705930D01*
X-86531Y3696365D01*
X-96340Y3670017D01*
X-147000Y3670017D01*
X-147000Y3957452D01*
X-117500Y3957452D01*
X-117500Y3918548D01*
X-109910Y3880391D01*
X-95022Y3844449D01*
X-73408Y3812101D01*
X-45899Y3784592D01*
X-13551Y3762978D01*
X22391Y3748090D01*
X60548Y3740500D01*
X99452Y3740500D01*
X137609Y3748090D01*
X173551Y3762978D01*
X205899Y3784592D01*
X233408Y3812101D01*
X241382Y3824035D01*
X302000Y3824035D01*
X302000Y3795965D01*
X307476Y3768434D01*
X318218Y3742501D01*
X333813Y3719161D01*
X353661Y3699313D01*
X377001Y3683718D01*
X402934Y3672976D01*
X430465Y3667500D01*
X458535Y3667500D01*
X486066Y3672976D01*
X511999Y3683718D01*
X535339Y3699313D01*
X555187Y3719161D01*
X570782Y3742501D01*
X571500Y3744235D01*
X572218Y3742501D01*
X587813Y3719161D01*
X607662Y3699313D01*
X631001Y3683718D01*
X656934Y3672976D01*
X684465Y3667500D01*
X712535Y3667500D01*
X740066Y3672976D01*
X765999Y3683718D01*
X789338Y3699313D01*
X809187Y3719161D01*
X810443Y3721042D01*
X836059Y3711236D01*
X861036Y3736214D01*
X861036Y3736214D01*
X934822Y3810000D01*
X861036Y3883786D01*
X861036Y3883786D01*
X836059Y3908764D01*
X810443Y3898958D01*
X809187Y3900838D01*
X789338Y3920687D01*
X780726Y3926441D01*
X853736Y3926441D01*
X878714Y3901464D01*
X878714Y3901464D01*
X952500Y3827678D01*
X953914Y3829092D01*
X971592Y3811414D01*
X970178Y3810000D01*
X971592Y3808586D01*
X953914Y3790908D01*
X952500Y3792322D01*
X878714Y3718536D01*
X878714Y3718536D01*
X853736Y3693559D01*
X863955Y3666863D01*
X893582Y3652339D01*
X925472Y3643874D01*
X958401Y3641793D01*
X991103Y3646176D01*
X1022322Y3656855D01*
X1041044Y3666863D01*
X1051264Y3693558D01*
X1062632Y3682190D01*
X1068197Y3687755D01*
X1070169Y3684065D01*
X1074855Y3678355D01*
X1080565Y3673669D01*
X1087080Y3670187D01*
X1094149Y3668043D01*
X1101500Y3667319D01*
X1311500Y3667319D01*
X1318851Y3668043D01*
X1325920Y3670187D01*
X1332435Y3673669D01*
X1338145Y3678355D01*
X1342831Y3684065D01*
X1346313Y3690580D01*
X1348457Y3697649D01*
X1349108Y3704256D01*
X1499434Y3704256D01*
X1507842Y3679094D01*
X1534911Y3666069D01*
X1564001Y3658575D01*
X1593994Y3656900D01*
X1623738Y3661109D01*
X1652089Y3671039D01*
X1667158Y3679094D01*
X1675566Y3704256D01*
X1587500Y3792322D01*
X1499434Y3704256D01*
X1349108Y3704256D01*
X1349181Y3705000D01*
X1349181Y3803506D01*
X1434400Y3803506D01*
X1438609Y3773762D01*
X1448539Y3745411D01*
X1456594Y3730342D01*
X1481756Y3721934D01*
X1569822Y3810000D01*
X1605178Y3810000D01*
X1693244Y3721934D01*
X1713819Y3728809D01*
X1713819Y3720000D01*
X1714543Y3712649D01*
X1716687Y3705580D01*
X1720169Y3699065D01*
X1724855Y3693355D01*
X1730565Y3688669D01*
X1737080Y3685187D01*
X1744149Y3683043D01*
X1751500Y3682319D01*
X1900057Y3682319D01*
X1894782Y3675891D01*
X1888978Y3665033D01*
X1885404Y3653252D01*
X1884198Y3641000D01*
X1884500Y3584125D01*
X1900125Y3568500D01*
X2019500Y3568500D01*
X2019500Y3687875D01*
X2003875Y3703500D01*
X1965311Y3703705D01*
X1966313Y3705580D01*
X1968457Y3712649D01*
X1969181Y3720000D01*
X1969181Y3900000D01*
X1968457Y3907351D01*
X1966313Y3914420D01*
X1962831Y3920935D01*
X1958145Y3926645D01*
X1952435Y3931331D01*
X1945920Y3934813D01*
X1938851Y3936957D01*
X1931500Y3937681D01*
X1751500Y3937681D01*
X1744149Y3936957D01*
X1737080Y3934813D01*
X1730565Y3931331D01*
X1724855Y3926645D01*
X1720169Y3920935D01*
X1716687Y3914420D01*
X1714543Y3907351D01*
X1713819Y3900000D01*
X1713819Y3891191D01*
X1693244Y3898066D01*
X1605178Y3810000D01*
X1569822Y3810000D01*
X1481756Y3898066D01*
X1456594Y3889658D01*
X1443569Y3862589D01*
X1436075Y3833499D01*
X1434400Y3803506D01*
X1349181Y3803506D01*
X1349181Y3915000D01*
X1349108Y3915744D01*
X1499434Y3915744D01*
X1587500Y3827678D01*
X1675566Y3915744D01*
X1667158Y3940906D01*
X1640089Y3953931D01*
X1626422Y3957452D01*
X2002500Y3957452D01*
X2002500Y3918548D01*
X2010090Y3880391D01*
X2024978Y3844449D01*
X2046592Y3812101D01*
X2074101Y3784592D01*
X2106449Y3762978D01*
X2142391Y3748090D01*
X2180548Y3740500D01*
X2219452Y3740500D01*
X2257609Y3748090D01*
X2293551Y3762978D01*
X2325899Y3784592D01*
X2353408Y3812101D01*
X2375022Y3844449D01*
X2389910Y3880391D01*
X2397500Y3918548D01*
X2397500Y3957452D01*
X2389910Y3995609D01*
X2375022Y4031551D01*
X2353408Y4063899D01*
X2325899Y4091408D01*
X2293551Y4113022D01*
X2257609Y4127910D01*
X2219452Y4135500D01*
X2180548Y4135500D01*
X2142391Y4127910D01*
X2106449Y4113022D01*
X2074101Y4091408D01*
X2046592Y4063899D01*
X2024978Y4031551D01*
X2010090Y3995609D01*
X2002500Y3957452D01*
X1626422Y3957452D01*
X1610999Y3961425D01*
X1581006Y3963100D01*
X1551262Y3958891D01*
X1522911Y3948961D01*
X1507842Y3940906D01*
X1499434Y3915744D01*
X1349108Y3915744D01*
X1348457Y3922351D01*
X1346313Y3929420D01*
X1342831Y3935935D01*
X1338145Y3941645D01*
X1332435Y3946331D01*
X1325920Y3949813D01*
X1318851Y3951957D01*
X1311500Y3952681D01*
X1101500Y3952681D01*
X1094149Y3951957D01*
X1087080Y3949813D01*
X1080565Y3946331D01*
X1074855Y3941645D01*
X1070169Y3935935D01*
X1068197Y3932245D01*
X1062632Y3937810D01*
X1051264Y3926442D01*
X1041044Y3953137D01*
X1011418Y3967661D01*
X979528Y3976126D01*
X946599Y3978207D01*
X913897Y3973824D01*
X882678Y3963145D01*
X863955Y3953137D01*
X853736Y3926441D01*
X780726Y3926441D01*
X765999Y3936282D01*
X740066Y3947024D01*
X712535Y3952500D01*
X684465Y3952500D01*
X656934Y3947024D01*
X631001Y3936282D01*
X607662Y3920687D01*
X587813Y3900838D01*
X572218Y3877499D01*
X571500Y3875765D01*
X570782Y3877499D01*
X555187Y3900838D01*
X535339Y3920687D01*
X511999Y3936282D01*
X486066Y3947024D01*
X458535Y3952500D01*
X430465Y3952500D01*
X402934Y3947024D01*
X377001Y3936282D01*
X353661Y3920687D01*
X333813Y3900838D01*
X318218Y3877499D01*
X307476Y3851566D01*
X302000Y3824035D01*
X241382Y3824035D01*
X255022Y3844449D01*
X269910Y3880391D01*
X277500Y3918548D01*
X277500Y3957452D01*
X269910Y3995609D01*
X255022Y4031551D01*
X233408Y4063899D01*
X205899Y4091408D01*
X173551Y4113022D01*
X137609Y4127910D01*
X99452Y4135500D01*
X60548Y4135500D01*
X22391Y4127910D01*
X-13551Y4113022D01*
X-45899Y4091408D01*
X-73408Y4063899D01*
X-95022Y4031551D01*
X-109910Y3995609D01*
X-117500Y3957452D01*
X-147000Y3957452D01*
X-147000Y4061383D01*
X-145205Y4079689D01*
X-140507Y4095251D01*
X-132875Y4109604D01*
X-122601Y4122201D01*
X-110076Y4132563D01*
X-95777Y4140294D01*
X-80248Y4145101D01*
X-62077Y4147011D01*
X2347372Y4147011D01*
X2365678Y4145216D01*
G37*
X2365678Y4145216D02*
X2381240Y4140518D01*
X2395593Y4132886D01*
X2408190Y4122612D01*
X2418552Y4110087D01*
X2426283Y4095788D01*
X2431090Y4080259D01*
X2433000Y4062088D01*
X2433000Y-569372D01*
X2431205Y-587678D01*
X2426507Y-603240D01*
X2418875Y-617593D01*
X2408601Y-630190D01*
X2396076Y-640552D01*
X2381777Y-648283D01*
X2366248Y-653090D01*
X2348078Y-655000D01*
X-65636Y-655000D01*
X-65997Y-655036D01*
X-79678Y-653694D01*
X-95240Y-648996D01*
X-109593Y-641364D01*
X-122190Y-631090D01*
X-132552Y-618565D01*
X-140283Y-604266D01*
X-145090Y-588737D01*
X-147000Y-570567D01*
X-147000Y-405548D01*
X-122500Y-405548D01*
X-122500Y-444452D01*
X-114910Y-482609D01*
X-100022Y-518551D01*
X-78408Y-550899D01*
X-50899Y-578408D01*
X-18551Y-600022D01*
X17391Y-614910D01*
X55548Y-622500D01*
X94452Y-622500D01*
X132609Y-614910D01*
X168551Y-600022D01*
X200899Y-578408D01*
X228408Y-550899D01*
X250022Y-518551D01*
X264910Y-482609D01*
X272500Y-444452D01*
X272500Y-432435D01*
X639500Y-432435D01*
X639500Y-456565D01*
X644208Y-480232D01*
X653442Y-502525D01*
X666848Y-522589D01*
X683911Y-539652D01*
X703974Y-553058D01*
X726268Y-562292D01*
X749935Y-567000D01*
X774065Y-567000D01*
X797732Y-562292D01*
X820025Y-553058D01*
X840089Y-539652D01*
X857152Y-522589D01*
X870558Y-502525D01*
X879792Y-480232D01*
X884500Y-456565D01*
X884500Y-432435D01*
X893500Y-432435D01*
X893500Y-456565D01*
X898208Y-480232D01*
X907442Y-502525D01*
X920848Y-522589D01*
X937911Y-539652D01*
X957974Y-553058D01*
X980268Y-562292D01*
X1003935Y-567000D01*
X1028065Y-567000D01*
X1051732Y-562292D01*
X1074026Y-553058D01*
X1094089Y-539652D01*
X1111152Y-522589D01*
X1124558Y-502525D01*
X1133792Y-480232D01*
X1138500Y-456565D01*
X1138500Y-432435D01*
X1147500Y-432435D01*
X1147500Y-456565D01*
X1152208Y-480232D01*
X1161442Y-502525D01*
X1174848Y-522589D01*
X1191911Y-539652D01*
X1211975Y-553058D01*
X1234268Y-562292D01*
X1257935Y-567000D01*
X1282065Y-567000D01*
X1305732Y-562292D01*
X1328026Y-553058D01*
X1348089Y-539652D01*
X1365152Y-522589D01*
X1376323Y-505870D01*
X1376198Y-529500D01*
X1377404Y-541752D01*
X1380978Y-553533D01*
X1386782Y-564391D01*
X1394592Y-573908D01*
X1404109Y-581718D01*
X1414967Y-587522D01*
X1426748Y-591096D01*
X1439000Y-592302D01*
X1495875Y-592000D01*
X1511500Y-576375D01*
X1511500Y-457000D01*
X1536500Y-457000D01*
X1536500Y-576375D01*
X1552125Y-592000D01*
X1609000Y-592302D01*
X1621252Y-591096D01*
X1633033Y-587522D01*
X1643891Y-581718D01*
X1653408Y-573908D01*
X1661218Y-564391D01*
X1667022Y-553533D01*
X1670596Y-541752D01*
X1671802Y-529500D01*
X1671500Y-472625D01*
X1655875Y-457000D01*
X1536500Y-457000D01*
X1511500Y-457000D01*
X1509500Y-457000D01*
X1509500Y-432000D01*
X1511500Y-432000D01*
X1511500Y-312625D01*
X1536500Y-312625D01*
X1536500Y-432000D01*
X1655875Y-432000D01*
X1671500Y-416375D01*
X1671557Y-405548D01*
X2002500Y-405548D01*
X2002500Y-444452D01*
X2010090Y-482609D01*
X2024978Y-518551D01*
X2046592Y-550899D01*
X2074101Y-578408D01*
X2106449Y-600022D01*
X2142391Y-614910D01*
X2180548Y-622500D01*
X2219452Y-622500D01*
X2257609Y-614910D01*
X2293551Y-600022D01*
X2325899Y-578408D01*
X2353408Y-550899D01*
X2375022Y-518551D01*
X2389910Y-482609D01*
X2397500Y-444452D01*
X2397500Y-405548D01*
X2389910Y-367391D01*
X2375022Y-331449D01*
X2353408Y-299101D01*
X2325899Y-271592D01*
X2293551Y-249978D01*
X2257609Y-235090D01*
X2219452Y-227500D01*
X2180548Y-227500D01*
X2142391Y-235090D01*
X2106449Y-249978D01*
X2074101Y-271592D01*
X2046592Y-299101D01*
X2024978Y-331449D01*
X2010090Y-367391D01*
X2002500Y-405548D01*
X1671557Y-405548D01*
X1671802Y-359500D01*
X1670596Y-347248D01*
X1667022Y-335467D01*
X1661218Y-324609D01*
X1653408Y-315092D01*
X1643891Y-307282D01*
X1633033Y-301478D01*
X1621252Y-297904D01*
X1609000Y-296698D01*
X1552125Y-297000D01*
X1536500Y-312625D01*
X1511500Y-312625D01*
X1495875Y-297000D01*
X1439000Y-296698D01*
X1426748Y-297904D01*
X1414967Y-301478D01*
X1404109Y-307282D01*
X1394592Y-315092D01*
X1386782Y-324609D01*
X1380978Y-335467D01*
X1377404Y-347248D01*
X1376198Y-359500D01*
X1376323Y-383130D01*
X1365152Y-366411D01*
X1348089Y-349348D01*
X1328026Y-335942D01*
X1305732Y-326708D01*
X1282065Y-322000D01*
X1257935Y-322000D01*
X1234268Y-326708D01*
X1211975Y-335942D01*
X1191911Y-349348D01*
X1174848Y-366411D01*
X1161442Y-386474D01*
X1152208Y-408768D01*
X1147500Y-432435D01*
X1138500Y-432435D01*
X1133792Y-408768D01*
X1124558Y-386474D01*
X1111152Y-366411D01*
X1094089Y-349348D01*
X1074026Y-335942D01*
X1051732Y-326708D01*
X1028065Y-322000D01*
X1003935Y-322000D01*
X980268Y-326708D01*
X957974Y-335942D01*
X937911Y-349348D01*
X920848Y-366411D01*
X907442Y-386474D01*
X898208Y-408768D01*
X893500Y-432435D01*
X884500Y-432435D01*
X879792Y-408768D01*
X870558Y-386474D01*
X857152Y-366411D01*
X840089Y-349348D01*
X820025Y-335942D01*
X797732Y-326708D01*
X774065Y-322000D01*
X749935Y-322000D01*
X726268Y-326708D01*
X703974Y-335942D01*
X683911Y-349348D01*
X666848Y-366411D01*
X653442Y-386474D01*
X644208Y-408768D01*
X639500Y-432435D01*
X272500Y-432435D01*
X272500Y-405548D01*
X264910Y-367391D01*
X250022Y-331449D01*
X228408Y-299101D01*
X200899Y-271592D01*
X168551Y-249978D01*
X132609Y-235090D01*
X94452Y-227500D01*
X55548Y-227500D01*
X17391Y-235090D01*
X-18551Y-249978D01*
X-50899Y-271592D01*
X-78408Y-299101D01*
X-100022Y-331449D01*
X-114910Y-367391D01*
X-122500Y-405548D01*
X-147000Y-405548D01*
X-147000Y101600D01*
X-139281Y101600D01*
X-139281Y-101600D01*
X-138557Y-108951D01*
X-136413Y-116020D01*
X-132931Y-122535D01*
X-128245Y-128245D01*
X-122535Y-132931D01*
X-116020Y-136413D01*
X-108951Y-138557D01*
X-101600Y-139281D01*
X101600Y-139281D01*
X108951Y-138557D01*
X116020Y-136413D01*
X122535Y-132931D01*
X128245Y-128245D01*
X132931Y-122535D01*
X136413Y-116020D01*
X136742Y-114935D01*
X766500Y-114935D01*
X766500Y-139065D01*
X771208Y-162732D01*
X780442Y-185025D01*
X793848Y-205089D01*
X810911Y-222152D01*
X830974Y-235558D01*
X853268Y-244792D01*
X876935Y-249500D01*
X901065Y-249500D01*
X924732Y-244792D01*
X947025Y-235558D01*
X967089Y-222152D01*
X984152Y-205089D01*
X997558Y-185025D01*
X1003094Y-171661D01*
X1009441Y-189596D01*
X1024219Y-214450D01*
X1043562Y-235942D01*
X1066726Y-253248D01*
X1092821Y-265703D01*
X1107663Y-270205D01*
X1130500Y-258281D01*
X1130500Y-139500D01*
X1128500Y-139500D01*
X1128500Y-114500D01*
X1130500Y-114500D01*
X1130500Y4281D01*
X1155500Y4281D01*
X1155500Y-114500D01*
X1157500Y-114500D01*
X1157500Y-139500D01*
X1155500Y-139500D01*
X1155500Y-258281D01*
X1178337Y-270205D01*
X1193179Y-265703D01*
X1219274Y-253248D01*
X1242438Y-235942D01*
X1261781Y-214450D01*
X1274319Y-193365D01*
X1274319Y-212000D01*
X1275043Y-219351D01*
X1277187Y-226420D01*
X1280669Y-232935D01*
X1285355Y-238645D01*
X1291065Y-243331D01*
X1297580Y-246813D01*
X1304649Y-248957D01*
X1312000Y-249681D01*
X1482000Y-249681D01*
X1489351Y-248957D01*
X1496420Y-246813D01*
X1502935Y-243331D01*
X1508645Y-238645D01*
X1513331Y-232935D01*
X1516813Y-226420D01*
X1518957Y-219351D01*
X1519681Y-212000D01*
X1519681Y-42000D01*
X1518957Y-34649D01*
X1518452Y-32981D01*
X1903670Y-32981D01*
X1912570Y-57383D01*
X1926060Y-79581D01*
X1943621Y-98719D01*
X1964578Y-114064D01*
X1988127Y-125026D01*
X1999019Y-128330D01*
X2019500Y-116205D01*
X2019500Y-12500D01*
X1915715Y-12500D01*
X1903670Y-32981D01*
X1518452Y-32981D01*
X1516813Y-27580D01*
X1513331Y-21065D01*
X1508645Y-15355D01*
X1502935Y-10669D01*
X1496420Y-7187D01*
X1489351Y-5043D01*
X1482000Y-4319D01*
X1312000Y-4319D01*
X1304649Y-5043D01*
X1297580Y-7187D01*
X1291065Y-10669D01*
X1285355Y-15355D01*
X1280669Y-21065D01*
X1277187Y-27580D01*
X1275043Y-34649D01*
X1274319Y-42000D01*
X1274319Y-60635D01*
X1261781Y-39550D01*
X1242438Y-18058D01*
X1219274Y-751D01*
X1193179Y11703D01*
X1178337Y16204D01*
X1155500Y4281D01*
X1130500Y4281D01*
X1107663Y16204D01*
X1092821Y11703D01*
X1066726Y-751D01*
X1043562Y-18058D01*
X1024219Y-39550D01*
X1009441Y-64404D01*
X1003094Y-82340D01*
X997558Y-68975D01*
X984152Y-48911D01*
X967089Y-31848D01*
X947025Y-18442D01*
X924732Y-9208D01*
X901065Y-4500D01*
X876935Y-4500D01*
X853268Y-9208D01*
X830974Y-18442D01*
X810911Y-31848D01*
X793848Y-48911D01*
X780442Y-68975D01*
X771208Y-91268D01*
X766500Y-114935D01*
X136742Y-114935D01*
X138557Y-108951D01*
X139281Y-101600D01*
X139281Y32981D01*
X1903670Y32981D01*
X1915715Y12500D01*
X2019500Y12500D01*
X2019500Y116205D01*
X1999019Y128330D01*
X1988127Y125026D01*
X1964578Y114064D01*
X1943621Y98719D01*
X1926060Y79581D01*
X1912570Y57383D01*
X1903670Y32981D01*
X139281Y32981D01*
X139281Y101600D01*
X138557Y108951D01*
X136413Y116020D01*
X132931Y122535D01*
X128245Y128245D01*
X122535Y132931D01*
X116020Y136413D01*
X108951Y138557D01*
X101600Y139281D01*
X78685Y139281D01*
X88671Y145954D01*
X108046Y165329D01*
X123269Y188111D01*
X133754Y213426D01*
X139100Y240300D01*
X139100Y267700D01*
X133754Y294574D01*
X123269Y319889D01*
X108046Y342671D01*
X88671Y362046D01*
X65889Y377269D01*
X56881Y381000D01*
X65889Y384731D01*
X88671Y399954D01*
X108046Y419329D01*
X122992Y441698D01*
X127751Y431726D01*
X145058Y408562D01*
X166550Y389219D01*
X191404Y374441D01*
X218663Y364795D01*
X241500Y376655D01*
X241500Y495500D01*
X266500Y495500D01*
X266500Y376655D01*
X289337Y364795D01*
X316596Y374441D01*
X341450Y389219D01*
X362942Y408562D01*
X380248Y431726D01*
X392703Y457821D01*
X397204Y472663D01*
X385281Y495500D01*
X266500Y495500D01*
X241500Y495500D01*
X239500Y495500D01*
X239500Y520500D01*
X241500Y520500D01*
X241500Y522500D01*
X266500Y522500D01*
X266500Y520500D01*
X385281Y520500D01*
X397204Y543337D01*
X392703Y558179D01*
X380248Y584274D01*
X362942Y607438D01*
X341450Y626781D01*
X316596Y641559D01*
X298661Y647906D01*
X312026Y653442D01*
X332089Y666848D01*
X349152Y683911D01*
X359568Y699500D01*
X1944472Y699500D01*
X1948499Y693473D01*
X1963473Y678499D01*
X1981080Y666735D01*
X2000643Y658631D01*
X2021412Y654500D01*
X2042588Y654500D01*
X2063357Y658631D01*
X2082920Y666735D01*
X2100527Y678499D01*
X2115501Y693473D01*
X2127265Y711080D01*
X2135369Y730643D01*
X2139500Y751412D01*
X2139500Y772588D01*
X2138086Y779697D01*
X2150081Y791693D01*
X2146900Y775700D01*
X2146900Y748300D01*
X2152246Y721426D01*
X2162731Y696112D01*
X2177954Y673329D01*
X2197329Y653954D01*
X2220112Y638731D01*
X2229119Y635000D01*
X2220112Y631269D01*
X2197329Y616046D01*
X2177954Y596671D01*
X2162731Y573889D01*
X2152246Y548574D01*
X2146900Y521700D01*
X2146900Y494300D01*
X2152246Y467426D01*
X2162731Y442111D01*
X2177954Y419329D01*
X2197329Y399954D01*
X2220112Y384731D01*
X2229119Y381000D01*
X2220112Y377269D01*
X2197329Y362046D01*
X2177954Y342671D01*
X2162731Y319889D01*
X2152246Y294574D01*
X2146900Y267700D01*
X2146900Y240300D01*
X2152246Y213426D01*
X2162731Y188111D01*
X2177954Y165329D01*
X2197329Y145954D01*
X2220112Y130731D01*
X2229119Y127000D01*
X2220112Y123269D01*
X2197329Y108046D01*
X2177954Y88671D01*
X2162731Y65889D01*
X2155072Y47398D01*
X2151430Y57383D01*
X2137940Y79581D01*
X2120379Y98719D01*
X2099422Y114064D01*
X2075873Y125026D01*
X2064981Y128330D01*
X2044500Y116205D01*
X2044500Y12500D01*
X2046500Y12500D01*
X2046500Y-12500D01*
X2044500Y-12500D01*
X2044500Y-116205D01*
X2064981Y-128330D01*
X2075873Y-125026D01*
X2099422Y-114064D01*
X2120379Y-98719D01*
X2137940Y-79581D01*
X2151430Y-57383D01*
X2155072Y-47398D01*
X2162731Y-65889D01*
X2177954Y-88671D01*
X2197329Y-108046D01*
X2220112Y-123269D01*
X2245426Y-133754D01*
X2272300Y-139100D01*
X2299700Y-139100D01*
X2326574Y-133754D01*
X2351889Y-123269D01*
X2374671Y-108046D01*
X2394046Y-88671D01*
X2409269Y-65889D01*
X2419754Y-40574D01*
X2425100Y-13700D01*
X2425100Y13700D01*
X2419754Y40574D01*
X2409269Y65889D01*
X2394046Y88671D01*
X2374671Y108046D01*
X2351889Y123269D01*
X2342881Y127000D01*
X2351889Y130731D01*
X2374671Y145954D01*
X2394046Y165329D01*
X2409269Y188111D01*
X2419754Y213426D01*
X2425100Y240300D01*
X2425100Y267700D01*
X2419754Y294574D01*
X2409269Y319889D01*
X2394046Y342671D01*
X2374671Y362046D01*
X2351889Y377269D01*
X2342881Y381000D01*
X2351889Y384731D01*
X2374671Y399954D01*
X2394046Y419329D01*
X2409269Y442111D01*
X2419754Y467426D01*
X2425100Y494300D01*
X2425100Y521700D01*
X2419754Y548574D01*
X2409269Y573889D01*
X2394046Y596671D01*
X2374671Y616046D01*
X2351889Y631269D01*
X2342881Y635000D01*
X2351889Y638731D01*
X2374671Y653954D01*
X2394046Y673329D01*
X2409269Y696112D01*
X2419754Y721426D01*
X2425100Y748300D01*
X2425100Y775700D01*
X2419754Y802574D01*
X2409269Y827888D01*
X2394046Y850671D01*
X2374671Y870046D01*
X2351889Y885269D01*
X2342881Y889000D01*
X2351889Y892731D01*
X2374671Y907954D01*
X2394046Y927329D01*
X2409269Y950111D01*
X2419754Y975426D01*
X2425100Y1002300D01*
X2425100Y1029700D01*
X2419754Y1056574D01*
X2409269Y1081889D01*
X2394046Y1104671D01*
X2374671Y1124046D01*
X2351889Y1139269D01*
X2342881Y1143000D01*
X2351889Y1146731D01*
X2374671Y1161954D01*
X2394046Y1181329D01*
X2409269Y1204112D01*
X2419754Y1229426D01*
X2425100Y1256300D01*
X2425100Y1283700D01*
X2419754Y1310574D01*
X2409269Y1335889D01*
X2394046Y1358671D01*
X2374671Y1378046D01*
X2351889Y1393269D01*
X2342881Y1397000D01*
X2351889Y1400731D01*
X2374671Y1415954D01*
X2394046Y1435329D01*
X2409269Y1458111D01*
X2419754Y1483426D01*
X2425100Y1510300D01*
X2425100Y1537700D01*
X2419754Y1564574D01*
X2409269Y1589888D01*
X2394046Y1612671D01*
X2374671Y1632046D01*
X2351889Y1647269D01*
X2342881Y1651000D01*
X2351889Y1654731D01*
X2374671Y1669954D01*
X2394046Y1689329D01*
X2409269Y1712111D01*
X2419754Y1737426D01*
X2425100Y1764300D01*
X2425100Y1791700D01*
X2419754Y1818574D01*
X2409269Y1843888D01*
X2394046Y1866671D01*
X2374671Y1886046D01*
X2351889Y1901269D01*
X2342881Y1905000D01*
X2351889Y1908731D01*
X2374671Y1923954D01*
X2394046Y1943329D01*
X2409269Y1966111D01*
X2419754Y1991426D01*
X2425100Y2018300D01*
X2425100Y2045700D01*
X2419754Y2072574D01*
X2409269Y2097889D01*
X2394046Y2120671D01*
X2374671Y2140046D01*
X2351889Y2155269D01*
X2342881Y2159000D01*
X2351889Y2162731D01*
X2374671Y2177954D01*
X2394046Y2197329D01*
X2409269Y2220112D01*
X2419754Y2245426D01*
X2425100Y2272300D01*
X2425100Y2299700D01*
X2419754Y2326574D01*
X2409269Y2351889D01*
X2394046Y2374671D01*
X2374671Y2394046D01*
X2351889Y2409269D01*
X2342881Y2413000D01*
X2351889Y2416731D01*
X2374671Y2431954D01*
X2394046Y2451329D01*
X2409269Y2474112D01*
X2419754Y2499426D01*
X2425100Y2526300D01*
X2425100Y2553700D01*
X2419754Y2580574D01*
X2409269Y2605889D01*
X2394046Y2628671D01*
X2374671Y2648046D01*
X2351889Y2663269D01*
X2342881Y2667000D01*
X2351889Y2670731D01*
X2374671Y2685954D01*
X2394046Y2705329D01*
X2409269Y2728112D01*
X2419754Y2753426D01*
X2425100Y2780300D01*
X2425100Y2807700D01*
X2419754Y2834574D01*
X2409269Y2859888D01*
X2394046Y2882671D01*
X2374671Y2902046D01*
X2351889Y2917269D01*
X2342881Y2921000D01*
X2351889Y2924731D01*
X2374671Y2939954D01*
X2394046Y2959329D01*
X2409269Y2982111D01*
X2419754Y3007426D01*
X2425100Y3034300D01*
X2425100Y3061700D01*
X2419754Y3088574D01*
X2409269Y3113888D01*
X2394046Y3136671D01*
X2374671Y3156046D01*
X2351889Y3171269D01*
X2342881Y3175000D01*
X2351889Y3178731D01*
X2374671Y3193954D01*
X2394046Y3213329D01*
X2409269Y3236111D01*
X2419754Y3261426D01*
X2425100Y3288300D01*
X2425100Y3315700D01*
X2419754Y3342574D01*
X2409269Y3367888D01*
X2394046Y3390671D01*
X2374671Y3410046D01*
X2351889Y3425269D01*
X2342881Y3429000D01*
X2351889Y3432731D01*
X2374671Y3447954D01*
X2394046Y3467329D01*
X2409269Y3490111D01*
X2419754Y3515426D01*
X2425100Y3542300D01*
X2425100Y3569700D01*
X2419754Y3596574D01*
X2409269Y3621888D01*
X2394046Y3644671D01*
X2374671Y3664046D01*
X2351889Y3679269D01*
X2326574Y3689754D01*
X2299700Y3695100D01*
X2272300Y3695100D01*
X2245426Y3689754D01*
X2220112Y3679269D01*
X2197329Y3664046D01*
X2179308Y3646025D01*
X2178596Y3653252D01*
X2175022Y3665033D01*
X2169218Y3675891D01*
X2161408Y3685408D01*
X2151891Y3693218D01*
X2141033Y3699022D01*
X2129252Y3702596D01*
X2117000Y3703802D01*
X2060125Y3703500D01*
X2044500Y3687875D01*
X2044500Y3568500D01*
X2046500Y3568500D01*
X2046500Y3543500D01*
X2044500Y3543500D01*
X2044500Y3541500D01*
X2019500Y3541500D01*
X2019500Y3543500D01*
X1900125Y3543500D01*
X1884500Y3527875D01*
X1884198Y3471000D01*
X1885404Y3458748D01*
X1888978Y3446967D01*
X1894782Y3436109D01*
X1902592Y3426592D01*
X1912109Y3418782D01*
X1922967Y3412978D01*
X1934748Y3409404D01*
X1947000Y3408198D01*
X1970630Y3408323D01*
X1953911Y3397152D01*
X1936848Y3380089D01*
X1923442Y3360025D01*
X1914208Y3337732D01*
X1909500Y3314065D01*
X1909500Y3289935D01*
X1914208Y3266268D01*
X1923442Y3243974D01*
X1936848Y3223911D01*
X1953911Y3206848D01*
X1973974Y3193442D01*
X1996268Y3184208D01*
X2019935Y3179500D01*
X2044065Y3179500D01*
X2067732Y3184208D01*
X2090025Y3193442D01*
X2110089Y3206848D01*
X2127152Y3223911D01*
X2140558Y3243974D01*
X2149792Y3266268D01*
X2150537Y3270013D01*
X2152246Y3261426D01*
X2162731Y3236111D01*
X2177954Y3213329D01*
X2197329Y3193954D01*
X2220112Y3178731D01*
X2229119Y3175000D01*
X2220112Y3171269D01*
X2197329Y3156046D01*
X2177954Y3136671D01*
X2162731Y3113888D01*
X2152246Y3088574D01*
X2150537Y3079986D01*
X2149792Y3083732D01*
X2140558Y3106025D01*
X2127152Y3126089D01*
X2110089Y3143152D01*
X2090025Y3156558D01*
X2067732Y3165792D01*
X2044065Y3170500D01*
X2019935Y3170500D01*
X1996268Y3165792D01*
X1973974Y3156558D01*
X1953911Y3143152D01*
X1936848Y3126089D01*
X1923442Y3106025D01*
X1914208Y3083732D01*
X1909500Y3060065D01*
X1909500Y3035935D01*
X1914208Y3012268D01*
X1923442Y2989974D01*
X1936848Y2969911D01*
X1953911Y2952848D01*
X1973974Y2939442D01*
X1996268Y2930208D01*
X2019935Y2925500D01*
X2044065Y2925500D01*
X2067732Y2930208D01*
X2090025Y2939442D01*
X2110089Y2952848D01*
X2127152Y2969911D01*
X2140558Y2989974D01*
X2149792Y3012268D01*
X2150537Y3016013D01*
X2152246Y3007426D01*
X2162731Y2982111D01*
X2177954Y2959329D01*
X2197329Y2939954D01*
X2220112Y2924731D01*
X2229119Y2921000D01*
X2220112Y2917269D01*
X2197329Y2902046D01*
X2177954Y2882671D01*
X2162731Y2859888D01*
X2152246Y2834574D01*
X2150537Y2825986D01*
X2149792Y2829732D01*
X2140558Y2852025D01*
X2127152Y2872089D01*
X2110089Y2889152D01*
X2090025Y2902558D01*
X2067732Y2911792D01*
X2044065Y2916500D01*
X2019935Y2916500D01*
X1996268Y2911792D01*
X1973974Y2902558D01*
X1953911Y2889152D01*
X1936848Y2872089D01*
X1923442Y2852025D01*
X1914208Y2829732D01*
X1909500Y2806065D01*
X1909500Y2781935D01*
X1914208Y2758268D01*
X1923442Y2735975D01*
X1936848Y2715911D01*
X1953911Y2698848D01*
X1973974Y2685442D01*
X1996268Y2676208D01*
X2019935Y2671500D01*
X2044065Y2671500D01*
X2067732Y2676208D01*
X2090025Y2685442D01*
X2110089Y2698848D01*
X2127152Y2715911D01*
X2140558Y2735975D01*
X2149792Y2758268D01*
X2150537Y2762014D01*
X2152246Y2753426D01*
X2162731Y2728112D01*
X2177954Y2705329D01*
X2197329Y2685954D01*
X2220112Y2670731D01*
X2229119Y2667000D01*
X2220112Y2663269D01*
X2197329Y2648046D01*
X2177954Y2628671D01*
X2162731Y2605889D01*
X2161328Y2602500D01*
X2125541Y2602500D01*
X2119384Y2611715D01*
X2103715Y2627384D01*
X2085289Y2639696D01*
X2064815Y2648177D01*
X2043080Y2652500D01*
X2020920Y2652500D01*
X1999185Y2648177D01*
X1978711Y2639696D01*
X1960285Y2627384D01*
X1944616Y2611715D01*
X1932304Y2593289D01*
X1923823Y2572815D01*
X1919500Y2551080D01*
X1919500Y2528920D01*
X1923823Y2507185D01*
X1932304Y2486711D01*
X1944616Y2468286D01*
X1960285Y2452616D01*
X1978711Y2440304D01*
X1999185Y2431823D01*
X2020920Y2427500D01*
X2043080Y2427500D01*
X2064815Y2431823D01*
X2085289Y2440304D01*
X2103715Y2452616D01*
X2119384Y2468286D01*
X2125541Y2477500D01*
X2161328Y2477500D01*
X2162731Y2474112D01*
X2177954Y2451329D01*
X2197329Y2431954D01*
X2220112Y2416731D01*
X2229119Y2413000D01*
X2220112Y2409269D01*
X2197329Y2394046D01*
X2177954Y2374671D01*
X2162731Y2351889D01*
X2161328Y2348500D01*
X2125541Y2348500D01*
X2119384Y2357715D01*
X2103715Y2373384D01*
X2085289Y2385696D01*
X2064815Y2394177D01*
X2043080Y2398500D01*
X2020920Y2398500D01*
X1999185Y2394177D01*
X1978711Y2385696D01*
X1960285Y2373384D01*
X1944616Y2357715D01*
X1932304Y2339289D01*
X1923823Y2318815D01*
X1919500Y2297080D01*
X1919500Y2274920D01*
X1923823Y2253185D01*
X1932304Y2232711D01*
X1944616Y2214286D01*
X1960285Y2198616D01*
X1978711Y2186304D01*
X1999185Y2177823D01*
X2020920Y2173500D01*
X2043080Y2173500D01*
X2064815Y2177823D01*
X2085289Y2186304D01*
X2103715Y2198616D01*
X2119384Y2214286D01*
X2125541Y2223500D01*
X2161328Y2223500D01*
X2162731Y2220112D01*
X2177954Y2197329D01*
X2197329Y2177954D01*
X2220112Y2162731D01*
X2229119Y2159000D01*
X2220112Y2155269D01*
X2197329Y2140046D01*
X2177954Y2120671D01*
X2162731Y2097889D01*
X2161328Y2094500D01*
X2125541Y2094500D01*
X2119384Y2103715D01*
X2103715Y2119384D01*
X2085289Y2131696D01*
X2064815Y2140177D01*
X2043080Y2144500D01*
X2020920Y2144500D01*
X1999185Y2140177D01*
X1978711Y2131696D01*
X1960285Y2119384D01*
X1944616Y2103715D01*
X1932304Y2085289D01*
X1923823Y2064815D01*
X1919500Y2043080D01*
X1919500Y2020920D01*
X1923823Y1999185D01*
X1932304Y1978711D01*
X1944616Y1960285D01*
X1960285Y1944616D01*
X1978711Y1932304D01*
X1999185Y1923823D01*
X2020920Y1919500D01*
X2043080Y1919500D01*
X2064815Y1923823D01*
X2085289Y1932304D01*
X2103715Y1944616D01*
X2119384Y1960285D01*
X2125541Y1969500D01*
X2161328Y1969500D01*
X2162731Y1966111D01*
X2177954Y1943329D01*
X2197329Y1923954D01*
X2220112Y1908731D01*
X2229119Y1905000D01*
X2220112Y1901269D01*
X2197329Y1886046D01*
X2177954Y1866671D01*
X2162731Y1843888D01*
X2161328Y1840500D01*
X2125541Y1840500D01*
X2119384Y1849714D01*
X2103715Y1865384D01*
X2085289Y1877696D01*
X2064815Y1886177D01*
X2043080Y1890500D01*
X2020920Y1890500D01*
X1999185Y1886177D01*
X1978711Y1877696D01*
X1960285Y1865384D01*
X1944616Y1849714D01*
X1932304Y1831289D01*
X1923823Y1810815D01*
X1919500Y1789080D01*
X1919500Y1766920D01*
X1923823Y1745185D01*
X1932304Y1724711D01*
X1944616Y1706285D01*
X1960285Y1690616D01*
X1978711Y1678304D01*
X1999185Y1669823D01*
X2020920Y1665500D01*
X2043080Y1665500D01*
X2064815Y1669823D01*
X2085289Y1678304D01*
X2103715Y1690616D01*
X2119384Y1706285D01*
X2125541Y1715500D01*
X2161328Y1715500D01*
X2162731Y1712111D01*
X2177954Y1689329D01*
X2197329Y1669954D01*
X2220112Y1654731D01*
X2229119Y1651000D01*
X2220112Y1647269D01*
X2197329Y1632046D01*
X2177954Y1612671D01*
X2162731Y1589888D01*
X2152246Y1564574D01*
X2146900Y1537700D01*
X2146900Y1510300D01*
X2152246Y1483426D01*
X2162731Y1458111D01*
X2177954Y1435329D01*
X2197329Y1415954D01*
X2220112Y1400731D01*
X2229119Y1397000D01*
X2220112Y1393269D01*
X2197329Y1378046D01*
X2177954Y1358671D01*
X2162731Y1335889D01*
X2152246Y1310574D01*
X2146900Y1283700D01*
X2146900Y1256300D01*
X2152246Y1229426D01*
X2162731Y1204112D01*
X2177954Y1181329D01*
X2197329Y1161954D01*
X2220112Y1146731D01*
X2229119Y1143000D01*
X2220112Y1139269D01*
X2197329Y1124046D01*
X2177954Y1104671D01*
X2162731Y1081889D01*
X2152246Y1056574D01*
X2146900Y1029700D01*
X2146900Y1002300D01*
X2152246Y975426D01*
X2153649Y972037D01*
X2049697Y868086D01*
X2042588Y869500D01*
X2021412Y869500D01*
X2000643Y865369D01*
X1981080Y857265D01*
X1963473Y845501D01*
X1948499Y830527D01*
X1944472Y824500D01*
X359568Y824500D01*
X349152Y840089D01*
X332089Y857152D01*
X312026Y870558D01*
X289732Y879792D01*
X266065Y884500D01*
X241935Y884500D01*
X218268Y879792D01*
X195974Y870558D01*
X175911Y857152D01*
X158848Y840089D01*
X145442Y820025D01*
X136208Y797732D01*
X135463Y793986D01*
X133754Y802574D01*
X123269Y827888D01*
X108046Y850671D01*
X88671Y870046D01*
X65889Y885269D01*
X56881Y889000D01*
X65889Y892731D01*
X88671Y907954D01*
X108046Y927329D01*
X123269Y950111D01*
X131319Y969545D01*
X131319Y931000D01*
X132043Y923649D01*
X134187Y916580D01*
X137669Y910065D01*
X142355Y904355D01*
X148065Y899669D01*
X154580Y896187D01*
X161649Y894043D01*
X169000Y893319D01*
X339000Y893319D01*
X346351Y894043D01*
X353420Y896187D01*
X359935Y899669D01*
X365645Y904355D01*
X370331Y910065D01*
X373813Y916580D01*
X375957Y923649D01*
X376681Y931000D01*
X376681Y1101000D01*
X375957Y1108351D01*
X373813Y1115420D01*
X370331Y1121935D01*
X365645Y1127645D01*
X359935Y1132331D01*
X353420Y1135813D01*
X346351Y1137957D01*
X339000Y1138681D01*
X169000Y1138681D01*
X161649Y1137957D01*
X154580Y1135813D01*
X148065Y1132331D01*
X142355Y1127645D01*
X137669Y1121935D01*
X134187Y1115420D01*
X132043Y1108351D01*
X131319Y1101000D01*
X131319Y1062455D01*
X123269Y1081889D01*
X108046Y1104671D01*
X88671Y1124046D01*
X65889Y1139269D01*
X56881Y1143000D01*
X65889Y1146731D01*
X88671Y1161954D01*
X108046Y1181329D01*
X123269Y1204112D01*
X133754Y1229426D01*
X139100Y1256300D01*
X139100Y1283700D01*
X133754Y1310574D01*
X123269Y1335889D01*
X108046Y1358671D01*
X88671Y1378046D01*
X65889Y1393269D01*
X56881Y1397000D01*
X65889Y1400731D01*
X88671Y1415954D01*
X108046Y1435329D01*
X123269Y1458111D01*
X133754Y1483426D01*
X139100Y1510300D01*
X139100Y1534588D01*
X146500Y1534588D01*
X146500Y1513412D01*
X150631Y1492643D01*
X158735Y1473080D01*
X170499Y1455473D01*
X185473Y1440499D01*
X203080Y1428735D01*
X222643Y1420631D01*
X243412Y1416500D01*
X264588Y1416500D01*
X285357Y1420631D01*
X304920Y1428735D01*
X322527Y1440499D01*
X337501Y1455473D01*
X341528Y1461500D01*
X822431Y1461500D01*
X825500Y1461198D01*
X828569Y1461500D01*
X828570Y1461500D01*
X837752Y1462404D01*
X849533Y1465978D01*
X860391Y1471782D01*
X869908Y1479592D01*
X871866Y1481978D01*
X924476Y1534588D01*
X1924500Y1534588D01*
X1924500Y1513412D01*
X1928631Y1492643D01*
X1936735Y1473080D01*
X1948499Y1455473D01*
X1963473Y1440499D01*
X1981080Y1428735D01*
X2000643Y1420631D01*
X2021412Y1416500D01*
X2042588Y1416500D01*
X2063357Y1420631D01*
X2082920Y1428735D01*
X2100527Y1440499D01*
X2115501Y1455473D01*
X2127265Y1473080D01*
X2135369Y1492643D01*
X2139500Y1513412D01*
X2139500Y1534588D01*
X2135369Y1555357D01*
X2127265Y1574920D01*
X2115501Y1592527D01*
X2100527Y1607501D01*
X2082920Y1619265D01*
X2063357Y1627369D01*
X2042588Y1631500D01*
X2021412Y1631500D01*
X2000643Y1627369D01*
X1981080Y1619265D01*
X1963473Y1607501D01*
X1948499Y1592527D01*
X1936735Y1574920D01*
X1928631Y1555357D01*
X1924500Y1534588D01*
X924476Y1534588D01*
X1178476Y1788588D01*
X1670500Y1788588D01*
X1670500Y1767412D01*
X1674631Y1746643D01*
X1682735Y1727080D01*
X1694499Y1709473D01*
X1709473Y1694499D01*
X1727080Y1682735D01*
X1746643Y1674631D01*
X1767412Y1670500D01*
X1788588Y1670500D01*
X1809357Y1674631D01*
X1828920Y1682735D01*
X1846527Y1694499D01*
X1861501Y1709473D01*
X1873265Y1727080D01*
X1881369Y1746643D01*
X1885500Y1767412D01*
X1885500Y1788588D01*
X1881369Y1809357D01*
X1873265Y1828920D01*
X1861501Y1846527D01*
X1846527Y1861501D01*
X1828920Y1873265D01*
X1809357Y1881369D01*
X1788588Y1885500D01*
X1767412Y1885500D01*
X1746643Y1881369D01*
X1727080Y1873265D01*
X1709473Y1861501D01*
X1694499Y1846527D01*
X1682735Y1828920D01*
X1674631Y1809357D01*
X1670500Y1788588D01*
X1178476Y1788588D01*
X1207388Y1817500D01*
X1215118Y1817500D01*
X1232023Y1820863D01*
X1247947Y1827458D01*
X1262278Y1837034D01*
X1274466Y1849222D01*
X1278326Y1855000D01*
X1347698Y1855000D01*
X1348904Y1842748D01*
X1352478Y1830967D01*
X1358282Y1820109D01*
X1366092Y1810592D01*
X1375609Y1802782D01*
X1386467Y1796978D01*
X1398248Y1793404D01*
X1410500Y1792198D01*
X1432375Y1792500D01*
X1448000Y1808125D01*
X1448000Y1892500D01*
X1473000Y1892500D01*
X1473000Y1808125D01*
X1488625Y1792500D01*
X1510500Y1792198D01*
X1522752Y1793404D01*
X1534533Y1796978D01*
X1545391Y1802782D01*
X1554908Y1810592D01*
X1562718Y1820109D01*
X1568522Y1830967D01*
X1572096Y1842748D01*
X1573302Y1855000D01*
X1573000Y1876875D01*
X1557375Y1892500D01*
X1473000Y1892500D01*
X1448000Y1892500D01*
X1363625Y1892500D01*
X1348000Y1876875D01*
X1347698Y1855000D01*
X1278326Y1855000D01*
X1284042Y1863553D01*
X1290637Y1879477D01*
X1294000Y1896382D01*
X1294000Y1913618D01*
X1290637Y1930523D01*
X1284042Y1946447D01*
X1278327Y1955000D01*
X1347698Y1955000D01*
X1348000Y1933125D01*
X1363625Y1917500D01*
X1448000Y1917500D01*
X1448000Y2001875D01*
X1473000Y2001875D01*
X1473000Y1917500D01*
X1557375Y1917500D01*
X1573000Y1933125D01*
X1573302Y1955000D01*
X1572096Y1967252D01*
X1568522Y1979033D01*
X1562718Y1989891D01*
X1554908Y1999408D01*
X1545391Y2007218D01*
X1534533Y2013022D01*
X1522752Y2016596D01*
X1510500Y2017802D01*
X1488625Y2017500D01*
X1473000Y2001875D01*
X1448000Y2001875D01*
X1432375Y2017500D01*
X1410500Y2017802D01*
X1398248Y2016596D01*
X1386467Y2013022D01*
X1375609Y2007218D01*
X1366092Y1999408D01*
X1358282Y1989891D01*
X1352478Y1979033D01*
X1348904Y1967252D01*
X1347698Y1955000D01*
X1278327Y1955000D01*
X1274466Y1960778D01*
X1262278Y1972966D01*
X1247947Y1982541D01*
X1232023Y1989137D01*
X1215118Y1992500D01*
X1197882Y1992500D01*
X1180977Y1989137D01*
X1165053Y1982541D01*
X1150722Y1972966D01*
X1138534Y1960778D01*
X1128959Y1946447D01*
X1122363Y1930523D01*
X1119000Y1913618D01*
X1119000Y1905888D01*
X799612Y1586500D01*
X341528Y1586500D01*
X337501Y1592527D01*
X322527Y1607501D01*
X304920Y1619265D01*
X285357Y1627369D01*
X264588Y1631500D01*
X243412Y1631500D01*
X222643Y1627369D01*
X203080Y1619265D01*
X185473Y1607501D01*
X170499Y1592527D01*
X158735Y1574920D01*
X150631Y1555357D01*
X146500Y1534588D01*
X139100Y1534588D01*
X139100Y1537700D01*
X133754Y1564574D01*
X123269Y1589888D01*
X108046Y1612671D01*
X88671Y1632046D01*
X65889Y1647269D01*
X56881Y1651000D01*
X65889Y1654731D01*
X88671Y1669954D01*
X108046Y1689329D01*
X123269Y1712111D01*
X133754Y1737426D01*
X139100Y1764300D01*
X139100Y1791700D01*
X133754Y1818574D01*
X123269Y1843888D01*
X108046Y1866671D01*
X88671Y1886046D01*
X65889Y1901269D01*
X56881Y1905000D01*
X65889Y1908731D01*
X73202Y1913618D01*
X611000Y1913618D01*
X611000Y1896382D01*
X614363Y1879477D01*
X620959Y1863553D01*
X630534Y1849222D01*
X642722Y1837034D01*
X657053Y1827458D01*
X672977Y1820863D01*
X689882Y1817500D01*
X707118Y1817500D01*
X724023Y1820863D01*
X739947Y1827458D01*
X754278Y1837034D01*
X766466Y1849222D01*
X776041Y1863553D01*
X782637Y1879477D01*
X786000Y1896382D01*
X786000Y1913618D01*
X865000Y1913618D01*
X865000Y1896382D01*
X868363Y1879477D01*
X874958Y1863553D01*
X884534Y1849222D01*
X896722Y1837034D01*
X911053Y1827458D01*
X926977Y1820863D01*
X943882Y1817500D01*
X961118Y1817500D01*
X978023Y1820863D01*
X993947Y1827458D01*
X1008278Y1837034D01*
X1020466Y1849222D01*
X1030041Y1863553D01*
X1036637Y1879477D01*
X1040000Y1896382D01*
X1040000Y1913618D01*
X1036637Y1930523D01*
X1030041Y1946447D01*
X1020466Y1960778D01*
X1008278Y1972966D01*
X993947Y1982541D01*
X978023Y1989137D01*
X961118Y1992500D01*
X943882Y1992500D01*
X926977Y1989137D01*
X911053Y1982541D01*
X896722Y1972966D01*
X884534Y1960778D01*
X874958Y1946447D01*
X868363Y1930523D01*
X865000Y1913618D01*
X786000Y1913618D01*
X782637Y1930523D01*
X776041Y1946447D01*
X766466Y1960778D01*
X754278Y1972966D01*
X739947Y1982541D01*
X724023Y1989137D01*
X707118Y1992500D01*
X689882Y1992500D01*
X672977Y1989137D01*
X657053Y1982541D01*
X642722Y1972966D01*
X630534Y1960778D01*
X620959Y1946447D01*
X614363Y1930523D01*
X611000Y1913618D01*
X73202Y1913618D01*
X88671Y1923954D01*
X108046Y1943329D01*
X123269Y1966111D01*
X133754Y1991426D01*
X139100Y2018300D01*
X139100Y2045700D01*
X133754Y2072574D01*
X123269Y2097889D01*
X108046Y2120671D01*
X88671Y2140046D01*
X65889Y2155269D01*
X56881Y2159000D01*
X65889Y2162731D01*
X88671Y2177954D01*
X108046Y2197329D01*
X123269Y2220112D01*
X130928Y2238602D01*
X134570Y2228617D01*
X148060Y2206420D01*
X165621Y2187281D01*
X186578Y2171936D01*
X210127Y2160974D01*
X221019Y2157670D01*
X241500Y2169795D01*
X241500Y2273500D01*
X266500Y2273500D01*
X266500Y2169795D01*
X286981Y2157670D01*
X297873Y2160974D01*
X321422Y2171936D01*
X342379Y2187281D01*
X359940Y2206420D01*
X373430Y2228617D01*
X382330Y2253019D01*
X370285Y2273500D01*
X266500Y2273500D01*
X241500Y2273500D01*
X239500Y2273500D01*
X239500Y2298500D01*
X241500Y2298500D01*
X241500Y2402205D01*
X266500Y2402205D01*
X266500Y2298500D01*
X370285Y2298500D01*
X382330Y2318981D01*
X373430Y2343384D01*
X359940Y2365581D01*
X342379Y2384719D01*
X321422Y2400064D01*
X297873Y2411026D01*
X286981Y2414330D01*
X266500Y2402205D01*
X241500Y2402205D01*
X221019Y2414330D01*
X210127Y2411026D01*
X186578Y2400064D01*
X165621Y2384719D01*
X148060Y2365581D01*
X134570Y2343384D01*
X130928Y2333398D01*
X123269Y2351889D01*
X108046Y2374671D01*
X88671Y2394046D01*
X65889Y2409269D01*
X56881Y2413000D01*
X65889Y2416731D01*
X88671Y2431954D01*
X108046Y2451329D01*
X123269Y2474112D01*
X133754Y2499426D01*
X138012Y2520828D01*
X141016Y2505727D01*
X149873Y2484343D01*
X162732Y2465098D01*
X179098Y2448732D01*
X198343Y2435873D01*
X219726Y2427016D01*
X242427Y2422500D01*
X265573Y2422500D01*
X288274Y2427016D01*
X309657Y2435873D01*
X328902Y2448732D01*
X345268Y2465098D01*
X358127Y2484343D01*
X366984Y2505727D01*
X371500Y2528427D01*
X371500Y2551573D01*
X366984Y2574274D01*
X358127Y2595657D01*
X345268Y2614902D01*
X328902Y2631268D01*
X309657Y2644127D01*
X288274Y2652985D01*
X265573Y2657500D01*
X242427Y2657500D01*
X219726Y2652985D01*
X198343Y2644127D01*
X179098Y2631268D01*
X162732Y2614902D01*
X149873Y2595657D01*
X141016Y2574274D01*
X138012Y2559172D01*
X133754Y2580574D01*
X123269Y2605889D01*
X108046Y2628671D01*
X88671Y2648046D01*
X65889Y2663269D01*
X56881Y2667000D01*
X65889Y2670731D01*
X88671Y2685954D01*
X108046Y2705329D01*
X123269Y2728112D01*
X133754Y2753426D01*
X139100Y2780300D01*
X139100Y2807700D01*
X133754Y2834574D01*
X123269Y2859888D01*
X108046Y2882671D01*
X96717Y2894000D01*
X497319Y2894000D01*
X497319Y2694000D01*
X498043Y2686649D01*
X500187Y2679580D01*
X503669Y2673065D01*
X508355Y2667355D01*
X514065Y2662669D01*
X520580Y2659187D01*
X527649Y2657043D01*
X535000Y2656319D01*
X735000Y2656319D01*
X742351Y2657043D01*
X749420Y2659187D01*
X755935Y2662669D01*
X761645Y2667355D01*
X766331Y2673065D01*
X769813Y2679580D01*
X771957Y2686649D01*
X772681Y2694000D01*
X772681Y2720590D01*
X782197Y2706349D01*
X801349Y2687197D01*
X823869Y2672149D01*
X838715Y2666000D01*
X828570Y2666000D01*
X825500Y2666302D01*
X822430Y2666000D01*
X822430Y2666000D01*
X813248Y2665096D01*
X801467Y2661522D01*
X797098Y2659187D01*
X790609Y2655718D01*
X783477Y2649865D01*
X783476Y2649865D01*
X781092Y2647908D01*
X779135Y2645523D01*
X719978Y2586366D01*
X717592Y2584408D01*
X709782Y2574891D01*
X703978Y2564033D01*
X700404Y2552252D01*
X699500Y2543070D01*
X699500Y2543069D01*
X699198Y2540000D01*
X699500Y2536931D01*
X699500Y2500635D01*
X698500Y2499815D01*
X685243Y2510694D01*
X669608Y2519051D01*
X652643Y2524198D01*
X635000Y2525935D01*
X617357Y2524198D01*
X600392Y2519051D01*
X584757Y2510694D01*
X571053Y2499448D01*
X559806Y2485743D01*
X551449Y2470108D01*
X546302Y2453143D01*
X545000Y2439921D01*
X545000Y2386079D01*
X546302Y2372857D01*
X551449Y2355892D01*
X559806Y2340257D01*
X571053Y2326553D01*
X584757Y2315306D01*
X600392Y2306949D01*
X617357Y2301802D01*
X635000Y2300065D01*
X652643Y2301802D01*
X669608Y2306949D01*
X685243Y2315306D01*
X698500Y2326185D01*
X711757Y2315306D01*
X727392Y2306949D01*
X744357Y2301802D01*
X762000Y2300065D01*
X779643Y2301802D01*
X796608Y2306949D01*
X808330Y2313214D01*
X809855Y2311355D01*
X815565Y2306669D01*
X822080Y2303187D01*
X829149Y2301043D01*
X836500Y2300319D01*
X941500Y2300319D01*
X948851Y2301043D01*
X955920Y2303187D01*
X962435Y2306669D01*
X968145Y2311355D01*
X972831Y2317065D01*
X976313Y2323580D01*
X978457Y2330649D01*
X979181Y2338000D01*
X979181Y2439921D01*
X1116500Y2439921D01*
X1116500Y2386079D01*
X1117802Y2372857D01*
X1122949Y2355892D01*
X1131306Y2340257D01*
X1142553Y2326553D01*
X1156257Y2315306D01*
X1171892Y2306949D01*
X1188857Y2301802D01*
X1206500Y2300065D01*
X1224143Y2301802D01*
X1241108Y2306949D01*
X1256743Y2315306D01*
X1270000Y2326185D01*
X1283257Y2315306D01*
X1298892Y2306949D01*
X1315857Y2301802D01*
X1333500Y2300065D01*
X1351143Y2301802D01*
X1368108Y2306949D01*
X1379830Y2313214D01*
X1381355Y2311355D01*
X1387065Y2306669D01*
X1393580Y2303187D01*
X1400649Y2301043D01*
X1408000Y2300319D01*
X1513000Y2300319D01*
X1520351Y2301043D01*
X1527420Y2303187D01*
X1533935Y2306669D01*
X1539645Y2311355D01*
X1544331Y2317065D01*
X1547813Y2323580D01*
X1549957Y2330649D01*
X1550681Y2338000D01*
X1550681Y2488000D01*
X1549957Y2495351D01*
X1547813Y2502420D01*
X1544331Y2508935D01*
X1539645Y2514645D01*
X1533935Y2519331D01*
X1527420Y2522813D01*
X1520351Y2524957D01*
X1513000Y2525681D01*
X1408000Y2525681D01*
X1400649Y2524957D01*
X1393580Y2522813D01*
X1387065Y2519331D01*
X1381355Y2514645D01*
X1379830Y2512786D01*
X1368108Y2519051D01*
X1351143Y2524198D01*
X1333500Y2525935D01*
X1315857Y2524198D01*
X1298892Y2519051D01*
X1283257Y2510694D01*
X1270000Y2499815D01*
X1256743Y2510694D01*
X1241108Y2519051D01*
X1224143Y2524198D01*
X1206500Y2525935D01*
X1188857Y2524198D01*
X1171892Y2519051D01*
X1156257Y2510694D01*
X1142553Y2499448D01*
X1131306Y2485743D01*
X1122949Y2470108D01*
X1117802Y2453143D01*
X1116500Y2439921D01*
X979181Y2439921D01*
X979181Y2488000D01*
X978457Y2495351D01*
X976313Y2502420D01*
X972831Y2508935D01*
X968145Y2514645D01*
X962435Y2519331D01*
X955920Y2522813D01*
X948851Y2524957D01*
X941500Y2525681D01*
X836500Y2525681D01*
X836023Y2525634D01*
X851388Y2541000D01*
X987431Y2541000D01*
X990500Y2540698D01*
X993569Y2541000D01*
X993570Y2541000D01*
X1002752Y2541904D01*
X1014533Y2545478D01*
X1024093Y2550588D01*
X1670500Y2550588D01*
X1670500Y2529412D01*
X1674631Y2508643D01*
X1682735Y2489080D01*
X1694499Y2471473D01*
X1709473Y2456499D01*
X1727080Y2444735D01*
X1746643Y2436631D01*
X1767412Y2432500D01*
X1788588Y2432500D01*
X1809357Y2436631D01*
X1828920Y2444735D01*
X1846527Y2456499D01*
X1861501Y2471473D01*
X1873265Y2489080D01*
X1881369Y2508643D01*
X1885500Y2529412D01*
X1885500Y2550588D01*
X1881369Y2571357D01*
X1873265Y2590920D01*
X1861501Y2608527D01*
X1846527Y2623501D01*
X1828920Y2635265D01*
X1809357Y2643369D01*
X1788588Y2647500D01*
X1767412Y2647500D01*
X1746643Y2643369D01*
X1727080Y2635265D01*
X1709473Y2623501D01*
X1694499Y2608527D01*
X1682735Y2590920D01*
X1674631Y2571357D01*
X1670500Y2550588D01*
X1024093Y2550588D01*
X1025391Y2551282D01*
X1034908Y2559092D01*
X1036866Y2561478D01*
X1282931Y2807543D01*
X1513500Y2807543D01*
X1513500Y2780457D01*
X1518784Y2753893D01*
X1529149Y2728869D01*
X1544197Y2706349D01*
X1563349Y2687197D01*
X1585869Y2672149D01*
X1610893Y2661784D01*
X1637457Y2656500D01*
X1664543Y2656500D01*
X1691107Y2661784D01*
X1716131Y2672149D01*
X1738651Y2687197D01*
X1757803Y2706349D01*
X1772851Y2728869D01*
X1783216Y2753893D01*
X1788500Y2780457D01*
X1788500Y2807543D01*
X1783216Y2834107D01*
X1772851Y2859131D01*
X1757803Y2881651D01*
X1738651Y2900803D01*
X1716131Y2915851D01*
X1691107Y2926216D01*
X1664543Y2931500D01*
X1637457Y2931500D01*
X1610893Y2926216D01*
X1585869Y2915851D01*
X1563349Y2900803D01*
X1544197Y2881651D01*
X1529149Y2859131D01*
X1518784Y2834107D01*
X1513500Y2807543D01*
X1282931Y2807543D01*
X1312023Y2836635D01*
X1314408Y2838592D01*
X1322218Y2848109D01*
X1328022Y2858967D01*
X1331596Y2870748D01*
X1332500Y2879930D01*
X1332500Y2879930D01*
X1332802Y2883000D01*
X1332500Y2886070D01*
X1332500Y2895319D01*
X1345000Y2895319D01*
X1352351Y2896043D01*
X1359420Y2898187D01*
X1365935Y2901669D01*
X1371645Y2906355D01*
X1376331Y2912065D01*
X1379813Y2918580D01*
X1381957Y2925649D01*
X1382681Y2933000D01*
X1382681Y3033000D01*
X1381957Y3040351D01*
X1379813Y3047420D01*
X1379503Y3048000D01*
X1379813Y3048580D01*
X1381957Y3055649D01*
X1382681Y3063000D01*
X1382681Y3163000D01*
X1381957Y3170351D01*
X1379813Y3177420D01*
X1376331Y3183935D01*
X1371645Y3189645D01*
X1365935Y3194331D01*
X1359420Y3197813D01*
X1352351Y3199957D01*
X1345000Y3200681D01*
X1332500Y3200681D01*
X1332500Y3212612D01*
X1359388Y3239500D01*
X1528059Y3239500D01*
X1529149Y3236869D01*
X1544197Y3214349D01*
X1563349Y3195197D01*
X1585869Y3180149D01*
X1610893Y3169784D01*
X1637457Y3164500D01*
X1664543Y3164500D01*
X1691107Y3169784D01*
X1716131Y3180149D01*
X1738651Y3195197D01*
X1757803Y3214349D01*
X1772851Y3236869D01*
X1783216Y3261893D01*
X1788500Y3288457D01*
X1788500Y3315543D01*
X1783216Y3342107D01*
X1772851Y3367131D01*
X1757803Y3389651D01*
X1738651Y3408803D01*
X1716131Y3423851D01*
X1691107Y3434216D01*
X1664543Y3439500D01*
X1637457Y3439500D01*
X1610893Y3434216D01*
X1585869Y3423851D01*
X1563349Y3408803D01*
X1544197Y3389651D01*
X1529149Y3367131D01*
X1528059Y3364500D01*
X1336570Y3364500D01*
X1333500Y3364802D01*
X1330430Y3364500D01*
X1330430Y3364500D01*
X1321248Y3363596D01*
X1309467Y3360022D01*
X1304412Y3357320D01*
X1298609Y3354218D01*
X1291477Y3348365D01*
X1291477Y3348365D01*
X1289092Y3346408D01*
X1287135Y3344023D01*
X1227978Y3284866D01*
X1225592Y3282908D01*
X1217782Y3273391D01*
X1211978Y3262533D01*
X1208404Y3250752D01*
X1207500Y3241570D01*
X1207500Y3241569D01*
X1207198Y3238500D01*
X1207500Y3235431D01*
X1207500Y3200681D01*
X1195000Y3200681D01*
X1187649Y3199957D01*
X1180580Y3197813D01*
X1174065Y3194331D01*
X1168355Y3189645D01*
X1163669Y3183935D01*
X1160187Y3177420D01*
X1158043Y3170351D01*
X1157319Y3163000D01*
X1157319Y3063000D01*
X1158043Y3055649D01*
X1160187Y3048580D01*
X1160497Y3048000D01*
X1160187Y3047420D01*
X1158043Y3040351D01*
X1157319Y3033000D01*
X1157319Y2933000D01*
X1158043Y2925649D01*
X1160187Y2918580D01*
X1163669Y2912065D01*
X1168355Y2906355D01*
X1174065Y2901669D01*
X1180580Y2898187D01*
X1187649Y2896043D01*
X1194026Y2895414D01*
X964612Y2666000D01*
X939285Y2666000D01*
X954131Y2672149D01*
X976651Y2687197D01*
X995803Y2706349D01*
X1010851Y2728869D01*
X1021216Y2753893D01*
X1026500Y2780457D01*
X1026500Y2807543D01*
X1021216Y2834107D01*
X1010851Y2859131D01*
X995803Y2881651D01*
X976651Y2900803D01*
X954131Y2915851D01*
X929107Y2926216D01*
X902543Y2931500D01*
X875457Y2931500D01*
X848893Y2926216D01*
X823869Y2915851D01*
X801349Y2900803D01*
X782197Y2881651D01*
X772681Y2867410D01*
X772681Y2894000D01*
X771957Y2901351D01*
X769813Y2908420D01*
X766331Y2914935D01*
X761645Y2920645D01*
X755935Y2925331D01*
X749420Y2928813D01*
X742351Y2930957D01*
X735000Y2931681D01*
X535000Y2931681D01*
X527649Y2930957D01*
X520580Y2928813D01*
X514065Y2925331D01*
X508355Y2920645D01*
X503669Y2914935D01*
X500187Y2908420D01*
X498043Y2901351D01*
X497319Y2894000D01*
X96717Y2894000D01*
X88671Y2902046D01*
X65889Y2917269D01*
X56881Y2921000D01*
X65889Y2924731D01*
X88671Y2939954D01*
X108046Y2959329D01*
X123269Y2982111D01*
X133754Y3007426D01*
X139100Y3034300D01*
X139100Y3061700D01*
X133754Y3088574D01*
X123269Y3113888D01*
X108046Y3136671D01*
X88671Y3156046D01*
X65889Y3171269D01*
X56881Y3175000D01*
X65889Y3178731D01*
X88671Y3193954D01*
X108046Y3213329D01*
X111537Y3218554D01*
X112404Y3209748D01*
X115978Y3197967D01*
X121782Y3187109D01*
X129592Y3177592D01*
X139109Y3169782D01*
X149967Y3163978D01*
X161748Y3160404D01*
X174000Y3159198D01*
X225875Y3159500D01*
X241500Y3175125D01*
X241500Y3289500D01*
X266500Y3289500D01*
X266500Y3175125D01*
X282125Y3159500D01*
X334000Y3159198D01*
X346252Y3160404D01*
X358033Y3163978D01*
X368891Y3169782D01*
X378408Y3177592D01*
X386218Y3187109D01*
X392022Y3197967D01*
X395596Y3209748D01*
X396802Y3222000D01*
X396500Y3273875D01*
X380875Y3289500D01*
X266500Y3289500D01*
X241500Y3289500D01*
X239500Y3289500D01*
X239500Y3314500D01*
X241500Y3314500D01*
X241500Y3428875D01*
X266500Y3428875D01*
X266500Y3314500D01*
X380875Y3314500D01*
X381918Y3315543D01*
X497500Y3315543D01*
X497500Y3288457D01*
X502784Y3261893D01*
X513149Y3236869D01*
X528197Y3214349D01*
X547349Y3195197D01*
X569869Y3180149D01*
X594893Y3169784D01*
X621457Y3164500D01*
X648543Y3164500D01*
X675107Y3169784D01*
X700131Y3180149D01*
X713562Y3189124D01*
X793801Y3189124D01*
X803417Y3162939D01*
X832191Y3148915D01*
X863148Y3140773D01*
X895099Y3138828D01*
X926815Y3143153D01*
X957078Y3153582D01*
X974583Y3162939D01*
X984199Y3189124D01*
X889000Y3284322D01*
X793801Y3189124D01*
X713562Y3189124D01*
X722651Y3195197D01*
X741803Y3214349D01*
X746937Y3222033D01*
X749939Y3216417D01*
X776124Y3206801D01*
X871322Y3302000D01*
X906678Y3302000D01*
X1001876Y3206801D01*
X1028061Y3216417D01*
X1042085Y3245191D01*
X1050227Y3276148D01*
X1052172Y3308099D01*
X1047847Y3339815D01*
X1037418Y3370078D01*
X1028061Y3387583D01*
X1001876Y3397199D01*
X906678Y3302000D01*
X871322Y3302000D01*
X776124Y3397199D01*
X749939Y3387583D01*
X747090Y3381738D01*
X741803Y3389651D01*
X722651Y3408803D01*
X713562Y3414876D01*
X793801Y3414876D01*
X889000Y3319678D01*
X984199Y3414876D01*
X974583Y3441061D01*
X945809Y3455085D01*
X914852Y3463227D01*
X882901Y3465172D01*
X851185Y3460847D01*
X820922Y3450418D01*
X803417Y3441061D01*
X793801Y3414876D01*
X713562Y3414876D01*
X700131Y3423851D01*
X675107Y3434216D01*
X648543Y3439500D01*
X621457Y3439500D01*
X594893Y3434216D01*
X569869Y3423851D01*
X547349Y3408803D01*
X528197Y3389651D01*
X513149Y3367131D01*
X502784Y3342107D01*
X497500Y3315543D01*
X381918Y3315543D01*
X396500Y3330125D01*
X396802Y3382000D01*
X395596Y3394252D01*
X392022Y3406033D01*
X386218Y3416891D01*
X378408Y3426408D01*
X368891Y3434218D01*
X358033Y3440022D01*
X346252Y3443596D01*
X334000Y3444802D01*
X282125Y3444500D01*
X266500Y3428875D01*
X241500Y3428875D01*
X225875Y3444500D01*
X174000Y3444802D01*
X161748Y3443596D01*
X149967Y3440022D01*
X139109Y3434218D01*
X129592Y3426408D01*
X121782Y3416891D01*
X115978Y3406033D01*
X112404Y3394252D01*
X111537Y3385446D01*
X108046Y3390671D01*
X88671Y3410046D01*
X83073Y3413786D01*
X86531Y3415634D01*
X96340Y3441983D01*
X0Y3538322D01*
X-96340Y3441983D01*
X-86531Y3415634D01*
X-82935Y3413879D01*
X-88671Y3410046D01*
X-108046Y3390671D01*
X-123269Y3367888D01*
X-133754Y3342574D01*
X-139100Y3315700D01*
X-139100Y3288300D01*
X-133754Y3261426D01*
X-123269Y3236111D01*
X-108046Y3213329D01*
X-88671Y3193954D01*
X-65889Y3178731D01*
X-56881Y3175000D01*
X-65889Y3171269D01*
X-88671Y3156046D01*
X-108046Y3136671D01*
X-123269Y3113888D01*
X-133754Y3088574D01*
X-139100Y3061700D01*
X-139100Y3034300D01*
X-133754Y3007426D01*
X-123269Y2982111D01*
X-108046Y2959329D01*
X-88671Y2939954D01*
X-65889Y2924731D01*
X-56881Y2921000D01*
X-65889Y2917269D01*
X-88671Y2902046D01*
X-108046Y2882671D01*
X-123269Y2859888D01*
X-133754Y2834574D01*
X-139100Y2807700D01*
X-139100Y2780300D01*
X-133754Y2753426D01*
X-123269Y2728112D01*
X-108046Y2705329D01*
X-88671Y2685954D01*
X-65889Y2670731D01*
X-56881Y2667000D01*
X-65889Y2663269D01*
X-88671Y2648046D01*
X-108046Y2628671D01*
X-123269Y2605889D01*
X-133754Y2580574D01*
X-139100Y2553700D01*
X-139100Y2526300D01*
X-133754Y2499426D01*
X-123269Y2474112D01*
X-108046Y2451329D01*
X-88671Y2431954D01*
X-65889Y2416731D01*
X-56881Y2413000D01*
X-65889Y2409269D01*
X-88671Y2394046D01*
X-108046Y2374671D01*
X-123269Y2351889D01*
X-133754Y2326574D01*
X-139100Y2299700D01*
X-139100Y2272300D01*
X-133754Y2245426D01*
X-123269Y2220112D01*
X-108046Y2197329D01*
X-88671Y2177954D01*
X-65889Y2162731D01*
X-56881Y2159000D01*
X-65889Y2155269D01*
X-88671Y2140046D01*
X-108046Y2120671D01*
X-123269Y2097889D01*
X-133754Y2072574D01*
X-139100Y2045700D01*
X-139100Y2018300D01*
X-133754Y1991426D01*
X-123269Y1966111D01*
X-108046Y1943329D01*
X-88671Y1923954D01*
X-65889Y1908731D01*
X-56881Y1905000D01*
X-65889Y1901269D01*
X-88671Y1886046D01*
X-108046Y1866671D01*
X-123269Y1843888D01*
X-133754Y1818574D01*
X-139100Y1791700D01*
X-139100Y1764300D01*
X-133754Y1737426D01*
X-123269Y1712111D01*
X-108046Y1689329D01*
X-88671Y1669954D01*
X-65889Y1654731D01*
X-56881Y1651000D01*
X-65889Y1647269D01*
X-88671Y1632046D01*
X-108046Y1612671D01*
X-123269Y1589888D01*
X-133754Y1564574D01*
X-139100Y1537700D01*
X-139100Y1510300D01*
X-133754Y1483426D01*
X-123269Y1458111D01*
X-108046Y1435329D01*
X-88671Y1415954D01*
X-65889Y1400731D01*
X-56881Y1397000D01*
X-65889Y1393269D01*
X-88671Y1378046D01*
X-108046Y1358671D01*
X-123269Y1335889D01*
X-133754Y1310574D01*
X-139100Y1283700D01*
X-139100Y1256300D01*
X-133754Y1229426D01*
X-123269Y1204112D01*
X-108046Y1181329D01*
X-88671Y1161954D01*
X-65889Y1146731D01*
X-56881Y1143000D01*
X-65889Y1139269D01*
X-88671Y1124046D01*
X-108046Y1104671D01*
X-123269Y1081889D01*
X-133754Y1056574D01*
X-139100Y1029700D01*
X-139100Y1002300D01*
X-133754Y975426D01*
X-123269Y950111D01*
X-108046Y927329D01*
X-88671Y907954D01*
X-65889Y892731D01*
X-56881Y889000D01*
X-65889Y885269D01*
X-88671Y870046D01*
X-108046Y850671D01*
X-123269Y827888D01*
X-133754Y802574D01*
X-139100Y775700D01*
X-139100Y748300D01*
X-133754Y721426D01*
X-123269Y696112D01*
X-108046Y673329D01*
X-88671Y653954D01*
X-65889Y638731D01*
X-56881Y635000D01*
X-65889Y631269D01*
X-88671Y616046D01*
X-108046Y596671D01*
X-123269Y573889D01*
X-133754Y548574D01*
X-139100Y521700D01*
X-139100Y494300D01*
X-133754Y467426D01*
X-123269Y442111D01*
X-108046Y419329D01*
X-88671Y399954D01*
X-65889Y384731D01*
X-56881Y381000D01*
X-65889Y377269D01*
X-88671Y362046D01*
X-108046Y342671D01*
X-123269Y319889D01*
X-133754Y294574D01*
X-139100Y267700D01*
X-139100Y240300D01*
X-133754Y213426D01*
X-123269Y188111D01*
X-108046Y165329D01*
X-88671Y145954D01*
X-78685Y139281D01*
X-101600Y139281D01*
X-108951Y138557D01*
X-116020Y136413D01*
X-122535Y132931D01*
X-128245Y128245D01*
X-132931Y122535D01*
X-136413Y116020D01*
X-138557Y108951D01*
X-139281Y101600D01*
X-147000Y101600D01*
X-147000Y3481882D01*
X-140366Y3469469D01*
X-114017Y3459660D01*
X-17678Y3556000D01*
X17678Y3556000D01*
X114017Y3459660D01*
X140366Y3469469D01*
X154550Y3498516D01*
X162795Y3529772D01*
X164784Y3562035D01*
X160440Y3594067D01*
X149931Y3624636D01*
X140366Y3642531D01*
X114017Y3652340D01*
X17678Y3556000D01*
X-17678Y3556000D01*
X-114017Y3652340D01*
X-140366Y3642531D01*
X-147000Y3628944D01*
X-147000Y3670017D01*
X-96340Y3670017D01*
X0Y3573678D01*
X96340Y3670017D01*
X86531Y3696365D01*
X57484Y3710550D01*
X26228Y3718795D01*
X-6035Y3720783D01*
X-38067Y3716440D01*
X-68636Y3705930D01*
X-86531Y3696365D01*
X-96340Y3670017D01*
X-147000Y3670017D01*
X-147000Y3957452D01*
X-117500Y3957452D01*
X-117500Y3918548D01*
X-109910Y3880391D01*
X-95022Y3844449D01*
X-73408Y3812101D01*
X-45899Y3784592D01*
X-13551Y3762978D01*
X22391Y3748090D01*
X60548Y3740500D01*
X99452Y3740500D01*
X137609Y3748090D01*
X173551Y3762978D01*
X205899Y3784592D01*
X233408Y3812101D01*
X241382Y3824035D01*
X302000Y3824035D01*
X302000Y3795965D01*
X307476Y3768434D01*
X318218Y3742501D01*
X333813Y3719161D01*
X353661Y3699313D01*
X377001Y3683718D01*
X402934Y3672976D01*
X430465Y3667500D01*
X458535Y3667500D01*
X486066Y3672976D01*
X511999Y3683718D01*
X535339Y3699313D01*
X555187Y3719161D01*
X570782Y3742501D01*
X571500Y3744235D01*
X572218Y3742501D01*
X587813Y3719161D01*
X607662Y3699313D01*
X631001Y3683718D01*
X656934Y3672976D01*
X684465Y3667500D01*
X712535Y3667500D01*
X740066Y3672976D01*
X765999Y3683718D01*
X789338Y3699313D01*
X809187Y3719161D01*
X810443Y3721042D01*
X836059Y3711236D01*
X861036Y3736214D01*
X861036Y3736214D01*
X934822Y3810000D01*
X861036Y3883786D01*
X861036Y3883786D01*
X836059Y3908764D01*
X810443Y3898958D01*
X809187Y3900838D01*
X789338Y3920687D01*
X780726Y3926441D01*
X853736Y3926441D01*
X878714Y3901464D01*
X878714Y3901464D01*
X952500Y3827678D01*
X953914Y3829092D01*
X971592Y3811414D01*
X970178Y3810000D01*
X971592Y3808586D01*
X953914Y3790908D01*
X952500Y3792322D01*
X878714Y3718536D01*
X878714Y3718536D01*
X853736Y3693559D01*
X863955Y3666863D01*
X893582Y3652339D01*
X925472Y3643874D01*
X958401Y3641793D01*
X991103Y3646176D01*
X1022322Y3656855D01*
X1041044Y3666863D01*
X1051264Y3693558D01*
X1062632Y3682190D01*
X1068197Y3687755D01*
X1070169Y3684065D01*
X1074855Y3678355D01*
X1080565Y3673669D01*
X1087080Y3670187D01*
X1094149Y3668043D01*
X1101500Y3667319D01*
X1311500Y3667319D01*
X1318851Y3668043D01*
X1325920Y3670187D01*
X1332435Y3673669D01*
X1338145Y3678355D01*
X1342831Y3684065D01*
X1346313Y3690580D01*
X1348457Y3697649D01*
X1349108Y3704256D01*
X1499434Y3704256D01*
X1507842Y3679094D01*
X1534911Y3666069D01*
X1564001Y3658575D01*
X1593994Y3656900D01*
X1623738Y3661109D01*
X1652089Y3671039D01*
X1667158Y3679094D01*
X1675566Y3704256D01*
X1587500Y3792322D01*
X1499434Y3704256D01*
X1349108Y3704256D01*
X1349181Y3705000D01*
X1349181Y3803506D01*
X1434400Y3803506D01*
X1438609Y3773762D01*
X1448539Y3745411D01*
X1456594Y3730342D01*
X1481756Y3721934D01*
X1569822Y3810000D01*
X1605178Y3810000D01*
X1693244Y3721934D01*
X1713819Y3728809D01*
X1713819Y3720000D01*
X1714543Y3712649D01*
X1716687Y3705580D01*
X1720169Y3699065D01*
X1724855Y3693355D01*
X1730565Y3688669D01*
X1737080Y3685187D01*
X1744149Y3683043D01*
X1751500Y3682319D01*
X1900057Y3682319D01*
X1894782Y3675891D01*
X1888978Y3665033D01*
X1885404Y3653252D01*
X1884198Y3641000D01*
X1884500Y3584125D01*
X1900125Y3568500D01*
X2019500Y3568500D01*
X2019500Y3687875D01*
X2003875Y3703500D01*
X1965311Y3703705D01*
X1966313Y3705580D01*
X1968457Y3712649D01*
X1969181Y3720000D01*
X1969181Y3900000D01*
X1968457Y3907351D01*
X1966313Y3914420D01*
X1962831Y3920935D01*
X1958145Y3926645D01*
X1952435Y3931331D01*
X1945920Y3934813D01*
X1938851Y3936957D01*
X1931500Y3937681D01*
X1751500Y3937681D01*
X1744149Y3936957D01*
X1737080Y3934813D01*
X1730565Y3931331D01*
X1724855Y3926645D01*
X1720169Y3920935D01*
X1716687Y3914420D01*
X1714543Y3907351D01*
X1713819Y3900000D01*
X1713819Y3891191D01*
X1693244Y3898066D01*
X1605178Y3810000D01*
X1569822Y3810000D01*
X1481756Y3898066D01*
X1456594Y3889658D01*
X1443569Y3862589D01*
X1436075Y3833499D01*
X1434400Y3803506D01*
X1349181Y3803506D01*
X1349181Y3915000D01*
X1349108Y3915744D01*
X1499434Y3915744D01*
X1587500Y3827678D01*
X1675566Y3915744D01*
X1667158Y3940906D01*
X1640089Y3953931D01*
X1626422Y3957452D01*
X2002500Y3957452D01*
X2002500Y3918548D01*
X2010090Y3880391D01*
X2024978Y3844449D01*
X2046592Y3812101D01*
X2074101Y3784592D01*
X2106449Y3762978D01*
X2142391Y3748090D01*
X2180548Y3740500D01*
X2219452Y3740500D01*
X2257609Y3748090D01*
X2293551Y3762978D01*
X2325899Y3784592D01*
X2353408Y3812101D01*
X2375022Y3844449D01*
X2389910Y3880391D01*
X2397500Y3918548D01*
X2397500Y3957452D01*
X2389910Y3995609D01*
X2375022Y4031551D01*
X2353408Y4063899D01*
X2325899Y4091408D01*
X2293551Y4113022D01*
X2257609Y4127910D01*
X2219452Y4135500D01*
X2180548Y4135500D01*
X2142391Y4127910D01*
X2106449Y4113022D01*
X2074101Y4091408D01*
X2046592Y4063899D01*
X2024978Y4031551D01*
X2010090Y3995609D01*
X2002500Y3957452D01*
X1626422Y3957452D01*
X1610999Y3961425D01*
X1581006Y3963100D01*
X1551262Y3958891D01*
X1522911Y3948961D01*
X1507842Y3940906D01*
X1499434Y3915744D01*
X1349108Y3915744D01*
X1348457Y3922351D01*
X1346313Y3929420D01*
X1342831Y3935935D01*
X1338145Y3941645D01*
X1332435Y3946331D01*
X1325920Y3949813D01*
X1318851Y3951957D01*
X1311500Y3952681D01*
X1101500Y3952681D01*
X1094149Y3951957D01*
X1087080Y3949813D01*
X1080565Y3946331D01*
X1074855Y3941645D01*
X1070169Y3935935D01*
X1068197Y3932245D01*
X1062632Y3937810D01*
X1051264Y3926442D01*
X1041044Y3953137D01*
X1011418Y3967661D01*
X979528Y3976126D01*
X946599Y3978207D01*
X913897Y3973824D01*
X882678Y3963145D01*
X863955Y3953137D01*
X853736Y3926441D01*
X780726Y3926441D01*
X765999Y3936282D01*
X740066Y3947024D01*
X712535Y3952500D01*
X684465Y3952500D01*
X656934Y3947024D01*
X631001Y3936282D01*
X607662Y3920687D01*
X587813Y3900838D01*
X572218Y3877499D01*
X571500Y3875765D01*
X570782Y3877499D01*
X555187Y3900838D01*
X535339Y3920687D01*
X511999Y3936282D01*
X486066Y3947024D01*
X458535Y3952500D01*
X430465Y3952500D01*
X402934Y3947024D01*
X377001Y3936282D01*
X353661Y3920687D01*
X333813Y3900838D01*
X318218Y3877499D01*
X307476Y3851566D01*
X302000Y3824035D01*
X241382Y3824035D01*
X255022Y3844449D01*
X269910Y3880391D01*
X277500Y3918548D01*
X277500Y3957452D01*
X269910Y3995609D01*
X255022Y4031551D01*
X233408Y4063899D01*
X205899Y4091408D01*
X173551Y4113022D01*
X137609Y4127910D01*
X99452Y4135500D01*
X60548Y4135500D01*
X22391Y4127910D01*
X-13551Y4113022D01*
X-45899Y4091408D01*
X-73408Y4063899D01*
X-95022Y4031551D01*
X-109910Y3995609D01*
X-117500Y3957452D01*
X-147000Y3957452D01*
X-147000Y4061383D01*
X-145205Y4079689D01*
X-140507Y4095251D01*
X-132875Y4109604D01*
X-122601Y4122201D01*
X-110076Y4132563D01*
X-95777Y4140294D01*
X-80248Y4145101D01*
X-62077Y4147011D01*
X2347372Y4147011D01*
X2365678Y4145216D01*
D34*
X444500Y3810000D03*
X698500Y3810000D03*
X952500Y3810000D03*
X1206500Y3810000D03*
X444500Y3810000D03*
X952500Y3810000D03*
X1206500Y3810000D03*
X762000Y-444500D03*
X1016000Y-444500D03*
X1270000Y-444500D03*
X1524000Y-444500D03*
X698500Y1905000D03*
X952500Y1905000D03*
X1206500Y1905000D03*
X1460500Y1905000D03*
X1778000Y2540000D03*
X1778000Y1778000D03*
X1587500Y3810000D03*
X1841500Y3810000D03*
X1460500Y2413000D03*
X1206500Y2413000D03*
X1333500Y2413000D03*
X254000Y2540000D03*
X254000Y3302000D03*
X635000Y3302000D03*
X889000Y3302000D03*
X635000Y2794000D03*
X889000Y2794000D03*
X1651000Y3302000D03*
X1651000Y2794000D03*
X2032000Y762000D03*
X2032000Y1524000D03*
X2032000Y0D03*
X2032000Y762000D03*
X889000Y2413000D03*
X635000Y2413000D03*
X762000Y2413000D03*
X254000Y508000D03*
X254000Y762000D03*
X254000Y1016000D03*
X75000Y-425000D03*
X2200000Y-425000D03*
X2200000Y3938000D03*
X80000Y3938000D03*
X2286000Y254000D03*
X2286000Y762000D03*
X2286000Y508000D03*
X2286000Y2540000D03*
X2286000Y2286000D03*
X2286000Y1778000D03*
X2286000Y2032000D03*
X2286000Y3556000D03*
X2286000Y1524000D03*
X2286000Y1016000D03*
X2286000Y1270000D03*
X2286000Y2794000D03*
X2286000Y3302000D03*
X2286000Y3048000D03*
X2286000Y0D03*
X0Y3556000D03*
X0Y3302000D03*
X0Y3048000D03*
X0Y2794000D03*
X0Y2540000D03*
X0Y2286000D03*
X0Y2032000D03*
X0Y1778000D03*
X0Y1524000D03*
X0Y1270000D03*
X0Y1016000D03*
X0Y762000D03*
X0Y508000D03*
X0Y254000D03*
X0Y0D03*
X889000Y-127000D03*
X1143000Y-127000D03*
X1397000Y-127000D03*
X254000Y2286000D03*
X254000Y1524000D03*
X2032000Y2794000D03*
X2032000Y3048000D03*
X2032000Y3302000D03*
X2032000Y3556000D03*
M02*
