%TF.GenerationSoftware,KiCad,Pcbnew,5.1.5+dfsg1-2~bpo10+1*%
%TF.CreationDate,Date%
%TF.ProjectId,PIS,5049532e-6b69-4636-9164-5f7063625858,rev?*%
%TF.SameCoordinates,Original*%
%TF.FileFunction,Plated,1,2,PTH,Drill*%
%TF.FilePolarity,Positive*%
%FSLAX46Y46*%
G04 Gerber Fmt 4.6, Leading zero omitted, Abs format (unit mm)*
G04 Created by KiCad*
%MOMM*%
%LPD*%
G04 APERTURE LIST*
%TA.AperFunction,ComponentDrill*%
%ADD10C,0.500000*%
%TD*%
%TA.AperFunction,ComponentDrill*%
%ADD11C,0.700000*%
%TD*%
%TA.AperFunction,ComponentDrill*%
%ADD12C,0.750000*%
%TD*%
%TA.AperFunction,ComponentDrill*%
%ADD13C,0.800000*%
%TD*%
%TA.AperFunction,ComponentDrill*%
%ADD14C,0.900000*%
%TD*%
%TA.AperFunction,ComponentDrill*%
%ADD15C,1.000000*%
%TD*%
%TA.AperFunction,ComponentDrill*%
%ADD16C,1.016000*%
%TD*%
%TA.AperFunction,ComponentDrill*%
%ADD17C,1.100000*%
%TD*%
G04 APERTURE END LIST*
D10*
%TO.C,U4*%
X6985000Y19050000D03*
X9525000Y19050000D03*
X12065000Y19050000D03*
X14605000Y19050000D03*
D11*
%TO.C,R3*%
X20320000Y15240000D03*
X20320000Y7620000D03*
%TO.C,R1*%
X2540000Y22860000D03*
X2540000Y15240000D03*
%TO.C,R2*%
X20320000Y7620000D03*
X20320000Y0D03*
%TO.C,U2*%
X4445000Y38100000D03*
X9525000Y38100000D03*
X12065000Y38100000D03*
%TO.C,R4*%
X17780000Y25400000D03*
X17780000Y17780000D03*
D12*
%TO.C,Q3*%
X6350000Y24130000D03*
X7620000Y24130000D03*
X8890000Y24130000D03*
%TO.C,Q1*%
X12065000Y24130000D03*
X13335000Y24130000D03*
X14605000Y24130000D03*
D13*
%TO.C,D1*%
X2540000Y33020000D03*
X2540000Y25400000D03*
D14*
%TO.C,D2*%
X15875000Y38100000D03*
X18415000Y38100000D03*
D15*
%TO.C,J5*%
X7620000Y-4445000D03*
X10160000Y-4445000D03*
X12700000Y-4445000D03*
X15240000Y-4445000D03*
%TO.C,J3*%
X20320000Y35560000D03*
X20320000Y33020000D03*
X20320000Y30480000D03*
X20320000Y27940000D03*
%TO.C,J2*%
X2540000Y10160000D03*
X2540000Y7620000D03*
X2540000Y5080000D03*
%TO.C,J1*%
X8890000Y-1270000D03*
X11430000Y-1270000D03*
X13970000Y-1270000D03*
%TO.C,K1*%
X6350000Y33020000D03*
X6350000Y27940000D03*
X8890000Y33020000D03*
X8890000Y27940000D03*
X16510000Y33020000D03*
X16510000Y27940000D03*
D16*
%TO.C,U1*%
X0Y35560000D03*
X0Y33020000D03*
X0Y30480000D03*
X0Y27940000D03*
X0Y25400000D03*
X0Y22860000D03*
X0Y20320000D03*
X0Y17780000D03*
X0Y15240000D03*
X0Y12700000D03*
X0Y10160000D03*
X0Y7620000D03*
X0Y5080000D03*
X0Y2540000D03*
X0Y0D03*
X22860000Y35560000D03*
X22860000Y33020000D03*
X22860000Y30480000D03*
X22860000Y27940000D03*
X22860000Y25400000D03*
X22860000Y22860000D03*
X22860000Y20320000D03*
X22860000Y17780000D03*
X22860000Y15240000D03*
X22860000Y12700000D03*
X22860000Y10160000D03*
X22860000Y7620000D03*
X22860000Y5080000D03*
X22860000Y2540000D03*
X22860000Y0D03*
D17*
%TO.C,J4*%
X4445000Y38100000D03*
X6985000Y38100000D03*
X9525000Y38100000D03*
X12065000Y38100000D03*
M02*
