%TF.GenerationSoftware,KiCad,Pcbnew,5.1.5+dfsg1-2~bpo10+1*%
%TF.CreationDate,2020-10-04T09:46:05+00:00*%
%TF.ProjectId,PIS,5049532e-6b69-4636-9164-5f7063625858,rev?*%
%TF.SameCoordinates,Original*%
%TF.FileFunction,Legend,Top*%
%TF.FilePolarity,Positive*%
%FSLAX45Y45*%
G04 Gerber Fmt 4.5, Leading zero omitted, Abs format (unit mm)*
G04 Created by KiCad (PCBNEW 5.1.5+dfsg1-2~bpo10+1) date 2020-10-04 09:46:05*
%MOMM*%
%LPD*%
G04 APERTURE LIST*
%ADD10C,0.150000*%
%ADD11C,0.120000*%
%ADD12R,1.900000X1.400000*%
%ADD13C,2.500000*%
%ADD14R,2.500000X2.500000*%
%ADD15C,1.800000*%
%ADD16O,2.100000X2.100000*%
%ADD17R,2.100000X2.100000*%
%ADD18O,1.400000X1.400000*%
%ADD19R,1.400000X1.400000*%
%ADD20C,1.900000*%
%ADD21O,1.800000X1.800000*%
%ADD22C,2.200000*%
%ADD23R,2.200000X2.200000*%
%ADD24R,1.450000X1.900000*%
%ADD25O,1.450000X1.900000*%
%ADD26O,2.000000X2.000000*%
%ADD27R,2.000000X2.000000*%
%ADD28C,2.400000*%
%ADD29R,2.400000X2.400000*%
%ADD30C,3.600000*%
%ADD31C,2.432000*%
%ADD32R,2.432000X2.432000*%
G04 APERTURE END LIST*
D10*
X478059Y-2839238D02*
X478059Y-2739238D01*
X501869Y-2739238D01*
X516155Y-2744000D01*
X525679Y-2753524D01*
X530440Y-2763048D01*
X535202Y-2782095D01*
X535202Y-2796381D01*
X530440Y-2815428D01*
X525679Y-2824952D01*
X516155Y-2834476D01*
X501869Y-2839238D01*
X478059Y-2839238D01*
X620917Y-2772571D02*
X620917Y-2839238D01*
X597107Y-2734476D02*
X573298Y-2805905D01*
X635202Y-2805905D01*
X744726Y-2734476D02*
X659012Y-2863048D01*
X830440Y-2744000D02*
X820917Y-2739238D01*
X806631Y-2739238D01*
X792345Y-2744000D01*
X782821Y-2753524D01*
X778059Y-2763048D01*
X773298Y-2782095D01*
X773298Y-2796381D01*
X778059Y-2815428D01*
X782821Y-2824952D01*
X792345Y-2834476D01*
X806631Y-2839238D01*
X816155Y-2839238D01*
X830440Y-2834476D01*
X835202Y-2829714D01*
X835202Y-2796381D01*
X816155Y-2796381D01*
X878059Y-2839238D02*
X878059Y-2739238D01*
X916155Y-2739238D01*
X925678Y-2744000D01*
X930440Y-2748762D01*
X935202Y-2758286D01*
X935202Y-2772571D01*
X930440Y-2782095D01*
X925678Y-2786857D01*
X916155Y-2791619D01*
X878059Y-2791619D01*
X978059Y-2839238D02*
X978059Y-2739238D01*
X1044726Y-2739238D02*
X1063774Y-2739238D01*
X1073298Y-2744000D01*
X1082821Y-2753524D01*
X1087583Y-2772571D01*
X1087583Y-2805905D01*
X1082821Y-2824952D01*
X1073298Y-2834476D01*
X1063774Y-2839238D01*
X1044726Y-2839238D01*
X1035202Y-2834476D01*
X1025678Y-2824952D01*
X1020917Y-2805905D01*
X1020917Y-2772571D01*
X1025678Y-2753524D01*
X1035202Y-2744000D01*
X1044726Y-2739238D01*
X1125679Y-2748762D02*
X1130440Y-2744000D01*
X1139964Y-2739238D01*
X1163774Y-2739238D01*
X1173298Y-2744000D01*
X1178060Y-2748762D01*
X1182821Y-2758286D01*
X1182821Y-2767810D01*
X1178060Y-2782095D01*
X1120917Y-2839238D01*
X1182821Y-2839238D01*
X525679Y-2993238D02*
X478059Y-2993238D01*
X473298Y-3040857D01*
X478059Y-3036095D01*
X487583Y-3031333D01*
X511393Y-3031333D01*
X520917Y-3036095D01*
X525679Y-3040857D01*
X530440Y-3050381D01*
X530440Y-3074190D01*
X525679Y-3083714D01*
X520917Y-3088476D01*
X511393Y-3093238D01*
X487583Y-3093238D01*
X478059Y-3088476D01*
X473298Y-3083714D01*
X559012Y-2993238D02*
X592345Y-3093238D01*
X625679Y-2993238D01*
X530440Y-2490000D02*
X520917Y-2485238D01*
X506631Y-2485238D01*
X492345Y-2490000D01*
X482821Y-2499524D01*
X478059Y-2509048D01*
X473298Y-2528095D01*
X473298Y-2542381D01*
X478059Y-2561429D01*
X482821Y-2570952D01*
X492345Y-2580476D01*
X506631Y-2585238D01*
X516155Y-2585238D01*
X530440Y-2580476D01*
X535202Y-2575714D01*
X535202Y-2542381D01*
X516155Y-2542381D01*
X578060Y-2585238D02*
X578060Y-2485238D01*
X635202Y-2585238D01*
X635202Y-2485238D01*
X682821Y-2585238D02*
X682821Y-2485238D01*
X706631Y-2485238D01*
X720917Y-2490000D01*
X730440Y-2499524D01*
X735202Y-2509048D01*
X739964Y-2528095D01*
X739964Y-2542381D01*
X735202Y-2561429D01*
X730440Y-2570952D01*
X720917Y-2580476D01*
X706631Y-2585238D01*
X682821Y-2585238D01*
X905667Y-3182928D02*
X905667Y-3135309D01*
X934238Y-3192452D02*
X834238Y-3159119D01*
X934238Y-3125786D01*
X834238Y-3073405D02*
X834238Y-3063881D01*
X839000Y-3054357D01*
X843762Y-3049595D01*
X853286Y-3044833D01*
X872333Y-3040071D01*
X896143Y-3040071D01*
X915190Y-3044833D01*
X924714Y-3049595D01*
X929476Y-3054357D01*
X934238Y-3063881D01*
X934238Y-3073405D01*
X929476Y-3082928D01*
X924714Y-3087690D01*
X915190Y-3092452D01*
X896143Y-3097214D01*
X872333Y-3097214D01*
X853286Y-3092452D01*
X843762Y-3087690D01*
X839000Y-3082928D01*
X834238Y-3073405D01*
X1469238Y-3384548D02*
X1469238Y-3432167D01*
X1516857Y-3436928D01*
X1512095Y-3432167D01*
X1507333Y-3422643D01*
X1507333Y-3398833D01*
X1512095Y-3389309D01*
X1516857Y-3384548D01*
X1526381Y-3379786D01*
X1550190Y-3379786D01*
X1559714Y-3384548D01*
X1564476Y-3389309D01*
X1569238Y-3398833D01*
X1569238Y-3422643D01*
X1564476Y-3432167D01*
X1559714Y-3436928D01*
X1469238Y-3351214D02*
X1569238Y-3317881D01*
X1469238Y-3284548D01*
X1220000Y-3441690D02*
X1215238Y-3451214D01*
X1215238Y-3465500D01*
X1220000Y-3479786D01*
X1229524Y-3489309D01*
X1239048Y-3494071D01*
X1258095Y-3498833D01*
X1272381Y-3498833D01*
X1291429Y-3494071D01*
X1300952Y-3489309D01*
X1310476Y-3479786D01*
X1315238Y-3465500D01*
X1315238Y-3455976D01*
X1310476Y-3441690D01*
X1305714Y-3436928D01*
X1272381Y-3436928D01*
X1272381Y-3455976D01*
X1315238Y-3394071D02*
X1215238Y-3394071D01*
X1315238Y-3336928D01*
X1215238Y-3336928D01*
X1315238Y-3289309D02*
X1215238Y-3289309D01*
X1215238Y-3265500D01*
X1220000Y-3251214D01*
X1229524Y-3241690D01*
X1239048Y-3236928D01*
X1258095Y-3232167D01*
X1272381Y-3232167D01*
X1291429Y-3236928D01*
X1300952Y-3241690D01*
X1310476Y-3251214D01*
X1315238Y-3265500D01*
X1315238Y-3289309D01*
X778667Y-3436928D02*
X778667Y-3389309D01*
X807238Y-3446452D02*
X707238Y-3413119D01*
X807238Y-3379786D01*
X707238Y-3327405D02*
X707238Y-3317881D01*
X712000Y-3308357D01*
X716762Y-3303595D01*
X726286Y-3298833D01*
X745333Y-3294071D01*
X769143Y-3294071D01*
X788190Y-3298833D01*
X797714Y-3303595D01*
X802476Y-3308357D01*
X807238Y-3317881D01*
X807238Y-3327405D01*
X802476Y-3336928D01*
X797714Y-3341690D01*
X788190Y-3346452D01*
X769143Y-3351214D01*
X745333Y-3351214D01*
X726286Y-3346452D01*
X716762Y-3341690D01*
X712000Y-3336928D01*
X707238Y-3327405D01*
X1061238Y-3444071D02*
X961238Y-3444071D01*
X1061238Y-3386928D01*
X961238Y-3386928D01*
X1051714Y-3282167D02*
X1056476Y-3286928D01*
X1061238Y-3301214D01*
X1061238Y-3310738D01*
X1056476Y-3325024D01*
X1046952Y-3334548D01*
X1037428Y-3339309D01*
X1018381Y-3344071D01*
X1004095Y-3344071D01*
X985048Y-3339309D01*
X975524Y-3334548D01*
X966000Y-3325024D01*
X961238Y-3310738D01*
X961238Y-3301214D01*
X966000Y-3286928D01*
X970762Y-3282167D01*
X1347000Y-3187690D02*
X1342238Y-3197214D01*
X1342238Y-3211500D01*
X1347000Y-3225786D01*
X1356524Y-3235309D01*
X1366048Y-3240071D01*
X1385095Y-3244833D01*
X1399381Y-3244833D01*
X1418428Y-3240071D01*
X1427952Y-3235309D01*
X1437476Y-3225786D01*
X1442238Y-3211500D01*
X1442238Y-3201976D01*
X1437476Y-3187690D01*
X1432714Y-3182928D01*
X1399381Y-3182928D01*
X1399381Y-3201976D01*
X1442238Y-3140071D02*
X1342238Y-3140071D01*
X1442238Y-3082928D01*
X1342238Y-3082928D01*
X1442238Y-3035309D02*
X1342238Y-3035309D01*
X1342238Y-3011500D01*
X1347000Y-2997214D01*
X1356524Y-2987690D01*
X1366048Y-2982928D01*
X1385095Y-2978167D01*
X1399381Y-2978167D01*
X1418428Y-2982928D01*
X1427952Y-2987690D01*
X1437476Y-2997214D01*
X1442238Y-3011500D01*
X1442238Y-3035309D01*
X1088238Y-3130548D02*
X1088238Y-3178167D01*
X1135857Y-3182928D01*
X1131095Y-3178167D01*
X1126333Y-3168643D01*
X1126333Y-3144833D01*
X1131095Y-3135309D01*
X1135857Y-3130548D01*
X1145381Y-3125786D01*
X1169190Y-3125786D01*
X1178714Y-3130548D01*
X1183476Y-3135309D01*
X1188238Y-3144833D01*
X1188238Y-3168643D01*
X1183476Y-3178167D01*
X1178714Y-3182928D01*
X1088238Y-3097214D02*
X1188238Y-3063881D01*
X1088238Y-3030548D01*
X867595Y-1950238D02*
X867595Y-1850238D01*
X891405Y-1850238D01*
X905690Y-1855000D01*
X915214Y-1864524D01*
X919976Y-1874048D01*
X924738Y-1893095D01*
X924738Y-1907381D01*
X919976Y-1926428D01*
X915214Y-1935952D01*
X905690Y-1945476D01*
X891405Y-1950238D01*
X867595Y-1950238D01*
X967595Y-1950238D02*
X967595Y-1850238D01*
X967595Y-1897857D02*
X1024738Y-1897857D01*
X1024738Y-1950238D02*
X1024738Y-1850238D01*
X1058071Y-1850238D02*
X1115214Y-1850238D01*
X1086643Y-1950238D02*
X1086643Y-1850238D01*
X1143786Y-1859762D02*
X1148548Y-1855000D01*
X1158071Y-1850238D01*
X1181881Y-1850238D01*
X1191405Y-1855000D01*
X1196167Y-1859762D01*
X1200929Y-1869286D01*
X1200929Y-1878809D01*
X1196167Y-1893095D01*
X1139024Y-1950238D01*
X1200929Y-1950238D01*
X1239024Y-1859762D02*
X1243786Y-1855000D01*
X1253310Y-1850238D01*
X1277119Y-1850238D01*
X1286643Y-1855000D01*
X1291405Y-1859762D01*
X1296167Y-1869286D01*
X1296167Y-1878809D01*
X1291405Y-1893095D01*
X1234262Y-1950238D01*
X1296167Y-1950238D01*
D11*
X-190500Y507511D02*
G75*
G02X-63500Y634511I127000J0D01*
G01*
X2476500Y-4127500D02*
G75*
G02X2349500Y-4254500I-127000J0D01*
G01*
X2349500Y634511D02*
G75*
G02X2476500Y507511I0J-127000D01*
G01*
X-63500Y-4254989D02*
G75*
G02X-190500Y-4127989I0J127000D01*
G01*
X2476500Y-4127500D02*
X2476500Y508000D01*
X-63500Y-4254500D02*
X2349500Y-4254500D01*
X-190500Y508000D02*
X-190500Y-4127500D01*
X2349500Y634511D02*
X-63500Y634511D01*
X1170000Y-648000D02*
X1170000Y-368000D01*
X1170000Y-368000D02*
X1370000Y-368000D01*
X1370000Y-368000D02*
X1370000Y-648000D01*
X1370000Y-648000D02*
X1170000Y-648000D01*
X1392500Y615000D02*
X1352500Y615000D01*
X1392500Y551000D02*
X1392500Y615000D01*
X282400Y-83000D02*
X282400Y591000D01*
X1368500Y-83000D02*
X1368500Y591000D01*
X1368500Y591000D02*
X282400Y591000D01*
X1368500Y-83000D02*
X282400Y-83000D01*
X1368500Y29000D02*
X282400Y29000D01*
X1368500Y539000D02*
X282400Y539000D01*
X1117126Y504423D02*
G75*
G03X551500Y504000I-282626J-250423D01*
G01*
X1336500Y504000D02*
X1116500Y504000D01*
X1336500Y254000D02*
X1336500Y504000D01*
X316500Y84000D02*
X1206500Y84000D01*
X316500Y504000D02*
X316500Y84000D01*
X556500Y504000D02*
X316500Y504000D01*
X1116500Y504000D02*
X546500Y504000D01*
X1657000Y-3867500D02*
X1657000Y-4000500D01*
X1524000Y-3867500D02*
X1657000Y-3867500D01*
X1397000Y-3867500D02*
X1397000Y-4133500D01*
X1397000Y-4133500D02*
X629000Y-4133500D01*
X1397000Y-3867500D02*
X629000Y-3867500D01*
X629000Y-3867500D02*
X629000Y-4133500D01*
X1593500Y-1651000D02*
X1593500Y-1784000D01*
X1593500Y-1784000D02*
X1460500Y-1784000D01*
X1333500Y-1784000D02*
X565500Y-1784000D01*
X565500Y-1518000D02*
X565500Y-1784000D01*
X1333500Y-1518000D02*
X565500Y-1518000D01*
X1333500Y-1518000D02*
X1333500Y-1784000D01*
X2127000Y-1016000D02*
G75*
G03X2127000Y-1016000I-95000J0D01*
G01*
X2127000Y-1270000D02*
G75*
G03X2127000Y-1270000I-95000J0D01*
G01*
X2127000Y-1524000D02*
G75*
G03X2127000Y-1524000I-95000J0D01*
G01*
X2127000Y-1778000D02*
G75*
G03X2127000Y-1778000I-95000J0D01*
G01*
X1778000Y-1110000D02*
X1778000Y-1205000D01*
X1778000Y-1684000D02*
X1778000Y-1589000D01*
X1686000Y-1205000D02*
X1686000Y-1589000D01*
X1870000Y-1205000D02*
X1686000Y-1205000D01*
X1870000Y-1589000D02*
X1870000Y-1205000D01*
X1686000Y-1589000D02*
X1870000Y-1589000D01*
X1970500Y99500D02*
X1970500Y408500D01*
X1964500Y254000D02*
G75*
G03X1964500Y254000I-250000J0D01*
G01*
X1415500Y253954D02*
G75*
G02X1970500Y408483I299000J46D01*
G01*
X1415500Y254046D02*
G75*
G03X1970500Y99517I299000J-46D01*
G01*
X1149652Y-959152D02*
G75*
G03X1333500Y-1403000I183848J-183848D01*
G01*
X1517348Y-959152D02*
G75*
G02X1333500Y-1403000I-183848J-183848D01*
G01*
X1513500Y-958000D02*
X1153500Y-958000D01*
X366000Y-483000D02*
X142000Y-483000D01*
X366000Y-507000D02*
X142000Y-507000D01*
X366000Y-495000D02*
X142000Y-495000D01*
X254000Y-912000D02*
X254000Y-847000D01*
X254000Y-358000D02*
X254000Y-423000D01*
X366000Y-847000D02*
X366000Y-423000D01*
X142000Y-847000D02*
X366000Y-847000D01*
X142000Y-423000D02*
X142000Y-847000D01*
X366000Y-423000D02*
X142000Y-423000D01*
X485000Y-922000D02*
X485000Y-702000D01*
X695000Y-922000D02*
X485000Y-922000D01*
X1775000Y-902000D02*
X505000Y-902000D01*
X1775000Y-122000D02*
X1775000Y-902000D01*
X505000Y-122000D02*
X1775000Y-122000D01*
X505000Y-902000D02*
X505000Y-122000D01*
X1016000Y-467400D02*
X1117600Y-530900D01*
X1003300Y-685800D02*
X1066800Y-685800D01*
X1066800Y-685800D02*
X1066800Y-619800D01*
X1003300Y-365800D02*
X1066800Y-365800D01*
X1066800Y-365800D02*
X1066800Y-429300D01*
X1016000Y-429300D02*
X1016000Y-619800D01*
X1016000Y-619800D02*
X1117600Y-619800D01*
X1117600Y-619800D02*
X1117600Y-429300D01*
X1016000Y-429300D02*
X1117600Y-429300D01*
X2032000Y-2700000D02*
X2032000Y-2605000D01*
X2032000Y-2126000D02*
X2032000Y-2221000D01*
X2124000Y-2605000D02*
X2124000Y-2221000D01*
X1940000Y-2605000D02*
X2124000Y-2605000D01*
X1940000Y-2221000D02*
X1940000Y-2605000D01*
X2124000Y-2221000D02*
X1940000Y-2221000D01*
X2032000Y-3462000D02*
X2032000Y-3367000D01*
X2032000Y-2888000D02*
X2032000Y-2983000D01*
X2124000Y-3367000D02*
X2124000Y-2983000D01*
X1940000Y-3367000D02*
X2124000Y-3367000D01*
X1940000Y-2983000D02*
X1940000Y-3367000D01*
X2124000Y-2983000D02*
X1940000Y-2983000D01*
X578152Y-959152D02*
G75*
G03X762000Y-1403000I183848J-183848D01*
G01*
X945848Y-959152D02*
G75*
G02X762000Y-1403000I-183848J-183848D01*
G01*
X942000Y-958000D02*
X582000Y-958000D01*
X121000Y-2407000D02*
X254000Y-2407000D01*
X121000Y-2540000D02*
X121000Y-2407000D01*
X121000Y-2667000D02*
X387000Y-2667000D01*
X387000Y-2667000D02*
X387000Y-3181000D01*
X121000Y-2667000D02*
X121000Y-3181000D01*
X121000Y-3181000D02*
X387000Y-3181000D01*
X1530000Y-3550000D02*
X1530000Y-3683000D01*
X1397000Y-3550000D02*
X1530000Y-3550000D01*
X1270000Y-3550000D02*
X1270000Y-3816000D01*
X1270000Y-3816000D02*
X756000Y-3816000D01*
X1270000Y-3550000D02*
X756000Y-3550000D01*
X756000Y-3550000D02*
X756000Y-3816000D01*
X254000Y-1364000D02*
X254000Y-1459000D01*
X254000Y-1938000D02*
X254000Y-1843000D01*
X162000Y-1459000D02*
X162000Y-1843000D01*
X346000Y-1459000D02*
X162000Y-1459000D01*
X346000Y-1843000D02*
X346000Y-1459000D01*
X162000Y-1843000D02*
X346000Y-1843000D01*
X1899000Y133000D02*
X2032000Y133000D01*
X1899000Y0D02*
X1899000Y133000D01*
X1899000Y-127000D02*
X2165000Y-127000D01*
X2165000Y-127000D02*
X2165000Y-895000D01*
X1899000Y-127000D02*
X1899000Y-895000D01*
X1899000Y-895000D02*
X2165000Y-895000D01*
D10*
X1405738Y-591333D02*
X1477167Y-591333D01*
X1491452Y-596095D01*
X1500976Y-605619D01*
X1505738Y-619905D01*
X1505738Y-629429D01*
X1505738Y-543714D02*
X1405738Y-543714D01*
X1405738Y-505619D01*
X1410500Y-496095D01*
X1415262Y-491333D01*
X1424786Y-486571D01*
X1439071Y-486571D01*
X1448595Y-491333D01*
X1453357Y-496095D01*
X1458119Y-505619D01*
X1458119Y-543714D01*
X1505738Y-391333D02*
X1505738Y-448476D01*
X1505738Y-419905D02*
X1405738Y-419905D01*
X1420024Y-429428D01*
X1429548Y-438952D01*
X1434309Y-448476D01*
X135738Y93667D02*
X207167Y93667D01*
X221452Y88905D01*
X230976Y79381D01*
X235738Y65095D01*
X235738Y55571D01*
X169071Y184143D02*
X235738Y184143D01*
X130976Y160333D02*
X202405Y136524D01*
X202405Y198429D01*
X135738Y-139690D02*
X216690Y-139690D01*
X226214Y-134929D01*
X230976Y-130167D01*
X235738Y-120643D01*
X235738Y-101595D01*
X230976Y-92071D01*
X226214Y-87310D01*
X216690Y-82548D01*
X135738Y-82548D01*
X145262Y-39690D02*
X140500Y-34929D01*
X135738Y-25405D01*
X135738Y-1595D01*
X140500Y7929D01*
X145262Y12690D01*
X154786Y17452D01*
X164310Y17452D01*
X178595Y12690D01*
X235738Y-44452D01*
X235738Y17452D01*
X1786738Y-4033833D02*
X1858167Y-4033833D01*
X1872452Y-4038595D01*
X1881976Y-4048119D01*
X1886738Y-4062405D01*
X1886738Y-4071928D01*
X1786738Y-3938595D02*
X1786738Y-3986214D01*
X1834357Y-3990976D01*
X1829595Y-3986214D01*
X1824833Y-3976690D01*
X1824833Y-3952881D01*
X1829595Y-3943357D01*
X1834357Y-3938595D01*
X1843881Y-3933833D01*
X1867690Y-3933833D01*
X1877214Y-3938595D01*
X1881976Y-3943357D01*
X1886738Y-3952881D01*
X1886738Y-3976690D01*
X1881976Y-3986214D01*
X1877214Y-3990976D01*
X1632738Y-1413667D02*
X1585119Y-1447000D01*
X1632738Y-1470809D02*
X1532738Y-1470809D01*
X1532738Y-1432714D01*
X1537500Y-1423190D01*
X1542262Y-1418428D01*
X1551786Y-1413667D01*
X1566071Y-1413667D01*
X1575595Y-1418428D01*
X1580357Y-1423190D01*
X1585119Y-1432714D01*
X1585119Y-1470809D01*
X1566071Y-1327952D02*
X1632738Y-1327952D01*
X1527976Y-1351762D02*
X1599405Y-1375571D01*
X1599405Y-1313667D01*
X1886738Y-200809D02*
X1786738Y-200809D01*
X1786738Y-177000D01*
X1791500Y-162714D01*
X1801024Y-153190D01*
X1810548Y-148429D01*
X1829595Y-143667D01*
X1843881Y-143667D01*
X1862928Y-148429D01*
X1872452Y-153190D01*
X1881976Y-162714D01*
X1886738Y-177000D01*
X1886738Y-200809D01*
X1796262Y-105571D02*
X1791500Y-100809D01*
X1786738Y-91286D01*
X1786738Y-67476D01*
X1791500Y-57952D01*
X1796262Y-53190D01*
X1805786Y-48428D01*
X1815309Y-48428D01*
X1829595Y-53190D01*
X1886738Y-110333D01*
X1886738Y-48428D01*
X1134262Y-1406524D02*
X1129500Y-1416048D01*
X1119976Y-1425571D01*
X1105690Y-1439857D01*
X1100929Y-1449381D01*
X1100929Y-1458905D01*
X1124738Y-1454143D02*
X1119976Y-1463667D01*
X1110452Y-1473190D01*
X1091405Y-1477952D01*
X1058071Y-1477952D01*
X1039024Y-1473190D01*
X1029500Y-1463667D01*
X1024738Y-1454143D01*
X1024738Y-1435095D01*
X1029500Y-1425571D01*
X1039024Y-1416048D01*
X1058071Y-1411286D01*
X1091405Y-1411286D01*
X1110452Y-1416048D01*
X1119976Y-1425571D01*
X1124738Y-1435095D01*
X1124738Y-1454143D01*
X1124738Y-1316048D02*
X1124738Y-1373190D01*
X1124738Y-1344619D02*
X1024738Y-1344619D01*
X1039024Y-1354143D01*
X1048548Y-1363667D01*
X1053310Y-1373190D01*
X489738Y-708809D02*
X389738Y-708809D01*
X389738Y-685000D01*
X394500Y-670714D01*
X404024Y-661190D01*
X413548Y-656429D01*
X432595Y-651667D01*
X446881Y-651667D01*
X465928Y-656429D01*
X475452Y-661190D01*
X484976Y-670714D01*
X489738Y-685000D01*
X489738Y-708809D01*
X489738Y-556429D02*
X489738Y-613571D01*
X489738Y-585000D02*
X389738Y-585000D01*
X404024Y-594524D01*
X413548Y-604048D01*
X418309Y-613571D01*
X299238Y-597690D02*
X199238Y-597690D01*
X299238Y-540548D02*
X242095Y-583405D01*
X199238Y-540548D02*
X256381Y-597690D01*
X489738Y-454809D02*
X389738Y-454809D01*
X489738Y-397667D02*
X432595Y-440524D01*
X389738Y-397667D02*
X446881Y-454809D01*
X489738Y-302429D02*
X489738Y-359571D01*
X489738Y-331000D02*
X389738Y-331000D01*
X404024Y-340524D01*
X413548Y-350048D01*
X418309Y-359571D01*
X1886738Y-2429667D02*
X1839119Y-2463000D01*
X1886738Y-2486810D02*
X1786738Y-2486810D01*
X1786738Y-2448714D01*
X1791500Y-2439190D01*
X1796262Y-2434429D01*
X1805786Y-2429667D01*
X1820071Y-2429667D01*
X1829595Y-2434429D01*
X1834357Y-2439190D01*
X1839119Y-2448714D01*
X1839119Y-2486810D01*
X1786738Y-2396333D02*
X1786738Y-2334429D01*
X1824833Y-2367762D01*
X1824833Y-2353476D01*
X1829595Y-2343952D01*
X1834357Y-2339190D01*
X1843881Y-2334429D01*
X1867690Y-2334429D01*
X1877214Y-2339190D01*
X1881976Y-2343952D01*
X1886738Y-2353476D01*
X1886738Y-2382048D01*
X1881976Y-2391571D01*
X1877214Y-2396333D01*
X1886738Y-3191667D02*
X1839119Y-3225000D01*
X1886738Y-3248809D02*
X1786738Y-3248809D01*
X1786738Y-3210714D01*
X1791500Y-3201190D01*
X1796262Y-3196428D01*
X1805786Y-3191667D01*
X1820071Y-3191667D01*
X1829595Y-3196428D01*
X1834357Y-3201190D01*
X1839119Y-3210714D01*
X1839119Y-3248809D01*
X1796262Y-3153571D02*
X1791500Y-3148809D01*
X1786738Y-3139286D01*
X1786738Y-3115476D01*
X1791500Y-3105952D01*
X1796262Y-3101190D01*
X1805786Y-3096428D01*
X1815309Y-3096428D01*
X1829595Y-3101190D01*
X1886738Y-3158333D01*
X1886738Y-3096428D01*
X499262Y-1406524D02*
X494500Y-1416048D01*
X484976Y-1425571D01*
X470690Y-1439857D01*
X465928Y-1449381D01*
X465928Y-1458905D01*
X489738Y-1454143D02*
X484976Y-1463667D01*
X475452Y-1473190D01*
X456405Y-1477952D01*
X423071Y-1477952D01*
X404024Y-1473190D01*
X394500Y-1463667D01*
X389738Y-1454143D01*
X389738Y-1435095D01*
X394500Y-1425571D01*
X404024Y-1416048D01*
X423071Y-1411286D01*
X456405Y-1411286D01*
X475452Y-1416048D01*
X484976Y-1425571D01*
X489738Y-1435095D01*
X489738Y-1454143D01*
X389738Y-1377952D02*
X389738Y-1316048D01*
X427833Y-1349381D01*
X427833Y-1335095D01*
X432595Y-1325571D01*
X437357Y-1320810D01*
X446881Y-1316048D01*
X470690Y-1316048D01*
X480214Y-1320810D01*
X484976Y-1325571D01*
X489738Y-1335095D01*
X489738Y-1363667D01*
X484976Y-1373190D01*
X480214Y-1377952D01*
X1659738Y-3716333D02*
X1731167Y-3716333D01*
X1745452Y-3721095D01*
X1754976Y-3730619D01*
X1759738Y-3744905D01*
X1759738Y-3754428D01*
X1759738Y-3616333D02*
X1759738Y-3673476D01*
X1759738Y-3644905D02*
X1659738Y-3644905D01*
X1674024Y-3654428D01*
X1683548Y-3663952D01*
X1688309Y-3673476D01*
X489738Y-1667667D02*
X442119Y-1701000D01*
X489738Y-1724809D02*
X389738Y-1724809D01*
X389738Y-1686714D01*
X394500Y-1677190D01*
X399262Y-1672428D01*
X408786Y-1667667D01*
X423071Y-1667667D01*
X432595Y-1672428D01*
X437357Y-1677190D01*
X442119Y-1686714D01*
X442119Y-1724809D01*
X489738Y-1572428D02*
X489738Y-1629571D01*
X489738Y-1601000D02*
X389738Y-1601000D01*
X404024Y-1610524D01*
X413548Y-1620048D01*
X418309Y-1629571D01*
X1786738Y-541333D02*
X1858167Y-541333D01*
X1872452Y-546095D01*
X1881976Y-555619D01*
X1886738Y-569905D01*
X1886738Y-579429D01*
X1786738Y-503238D02*
X1786738Y-441333D01*
X1824833Y-474667D01*
X1824833Y-460381D01*
X1829595Y-450857D01*
X1834357Y-446095D01*
X1843881Y-441333D01*
X1867690Y-441333D01*
X1877214Y-446095D01*
X1881976Y-450857D01*
X1886738Y-460381D01*
X1886738Y-488952D01*
X1881976Y-498476D01*
X1877214Y-503238D01*
%LPC*%
D12*
X1270000Y-573000D03*
X1270000Y-443000D03*
D13*
X444500Y254000D03*
X698500Y254000D03*
X952500Y254000D03*
D14*
X1206500Y254000D03*
D15*
X444500Y254000D03*
X952500Y254000D03*
D10*
G36*
X1267601Y343846D02*
G01*
X1270711Y343384D01*
X1273761Y342620D01*
X1276721Y341561D01*
X1279564Y340217D01*
X1282261Y338600D01*
X1284786Y336727D01*
X1287116Y334616D01*
X1289227Y332286D01*
X1291100Y329761D01*
X1292717Y327064D01*
X1294061Y324221D01*
X1295120Y321261D01*
X1295884Y318211D01*
X1296346Y315101D01*
X1296500Y311960D01*
X1296500Y196040D01*
X1296346Y192899D01*
X1295884Y189789D01*
X1295120Y186739D01*
X1294061Y183779D01*
X1292717Y180936D01*
X1291100Y178239D01*
X1289227Y175714D01*
X1287116Y173384D01*
X1284786Y171273D01*
X1282261Y169400D01*
X1279564Y167783D01*
X1276721Y166439D01*
X1273761Y165380D01*
X1270711Y164616D01*
X1267601Y164154D01*
X1264460Y164000D01*
X1148540Y164000D01*
X1145400Y164154D01*
X1142289Y164616D01*
X1139239Y165380D01*
X1136279Y166439D01*
X1133436Y167783D01*
X1130740Y169400D01*
X1128214Y171273D01*
X1125884Y173384D01*
X1123773Y175714D01*
X1121900Y178239D01*
X1120283Y180936D01*
X1118939Y183779D01*
X1117880Y186739D01*
X1117116Y189789D01*
X1116654Y192899D01*
X1116500Y196040D01*
X1116500Y311960D01*
X1116654Y315101D01*
X1117116Y318211D01*
X1117880Y321261D01*
X1118939Y324221D01*
X1120283Y327064D01*
X1121900Y329761D01*
X1123773Y332286D01*
X1125884Y334616D01*
X1128214Y336727D01*
X1130740Y338600D01*
X1133436Y340217D01*
X1136279Y341561D01*
X1139239Y342620D01*
X1142289Y343384D01*
X1145400Y343846D01*
X1148540Y344000D01*
X1264460Y344000D01*
X1267601Y343846D01*
G37*
D16*
X762000Y-4000500D03*
X1016000Y-4000500D03*
X1270000Y-4000500D03*
D17*
X1524000Y-4000500D03*
D18*
X698500Y-1651000D03*
X952500Y-1651000D03*
X1206500Y-1651000D03*
D19*
X1460500Y-1651000D03*
D20*
X2032000Y-1016000D03*
X2032000Y-1270000D03*
X2032000Y-1524000D03*
X2032000Y-1778000D03*
D21*
X1778000Y-1016000D03*
D15*
X1778000Y-1778000D03*
D22*
X1587500Y254000D03*
D23*
X1841500Y254000D03*
D24*
X1460500Y-1143000D03*
D25*
X1206500Y-1143000D03*
X1333500Y-1143000D03*
D26*
X254000Y-1016000D03*
D27*
X254000Y-254000D03*
D28*
X635000Y-254000D03*
X889000Y-254000D03*
D29*
X635000Y-762000D03*
D28*
X889000Y-762000D03*
X1651000Y-254000D03*
X1651000Y-762000D03*
D21*
X2032000Y-2794000D03*
D15*
X2032000Y-2032000D03*
D21*
X2032000Y-3556000D03*
D15*
X2032000Y-2794000D03*
D24*
X889000Y-1143000D03*
D25*
X635000Y-1143000D03*
X762000Y-1143000D03*
D16*
X254000Y-3048000D03*
X254000Y-2794000D03*
D17*
X254000Y-2540000D03*
D30*
X75000Y-3981000D03*
X2200000Y-3981000D03*
X2200000Y382000D03*
X80000Y382000D03*
D31*
X2286000Y-3302000D03*
X2286000Y-2794000D03*
X2286000Y-3048000D03*
X2286000Y-1016000D03*
X2286000Y-1270000D03*
X2286000Y-1778000D03*
X2286000Y-1524000D03*
X2286000Y0D03*
X2286000Y-2032000D03*
X2286000Y-2540000D03*
X2286000Y-2286000D03*
X2286000Y-762000D03*
X2286000Y-254000D03*
X2286000Y-508000D03*
X2286000Y-3556000D03*
X0Y0D03*
X0Y-254000D03*
X0Y-508000D03*
X0Y-762000D03*
X0Y-1016000D03*
X0Y-1270000D03*
X0Y-1524000D03*
X0Y-1778000D03*
X0Y-2032000D03*
X0Y-2286000D03*
X0Y-2540000D03*
X0Y-2794000D03*
X0Y-3048000D03*
X0Y-3302000D03*
D32*
X0Y-3556000D03*
D16*
X889000Y-3683000D03*
X1143000Y-3683000D03*
D17*
X1397000Y-3683000D03*
D21*
X254000Y-1270000D03*
D15*
X254000Y-2032000D03*
D16*
X2032000Y-762000D03*
X2032000Y-508000D03*
X2032000Y-254000D03*
D17*
X2032000Y0D03*
M02*
