M48
METRIC
T1C0.500
T2C0.700
T3C0.750
T4C0.800
T5C0.900
T6C1.000
T7C1.016
T8C1.100
%
G90
G05
T1
X6.985Y-16.51
X9.525Y-16.51
X12.065Y-16.51
X14.605Y-16.51
T2
X20.32Y-27.94
X20.32Y-35.56
X2.54Y-12.7
X2.54Y-20.32
X20.32Y-20.32
X20.32Y-27.94
X17.78Y-10.16
X17.78Y-17.78
X4.445Y2.54
X9.525Y2.54
X12.065Y2.54
T3
X12.065Y-11.43
X13.335Y-11.43
X14.605Y-11.43
X6.35Y-11.43
X7.62Y-11.43
X8.89Y-11.43
T4
X2.54Y-2.54
X2.54Y-10.16
T5
X15.875Y2.54
X18.415Y2.54
T6
X7.62Y-40.005
X10.16Y-40.005
X12.7Y-40.005
X15.24Y-40.005
X20.32Y0.0
X20.32Y-2.54
X20.32Y-5.08
X20.32Y-7.62
X6.35Y-2.54
X6.35Y-7.62
X8.89Y-2.54
X8.89Y-7.62
X16.51Y-2.54
X16.51Y-7.62
X2.54Y-25.4
X2.54Y-27.94
X2.54Y-30.48
X8.89Y-36.83
X11.43Y-36.83
X13.97Y-36.83
T7
X0.0Y0.0
X0.0Y-2.54
X0.0Y-5.08
X0.0Y-7.62
X0.0Y-10.16
X0.0Y-12.7
X0.0Y-15.24
X0.0Y-17.78
X0.0Y-20.32
X0.0Y-22.86
X0.0Y-25.4
X0.0Y-27.94
X0.0Y-30.48
X0.0Y-33.02
X0.0Y-35.56
X22.86Y0.0
X22.86Y-2.54
X22.86Y-5.08
X22.86Y-7.62
X22.86Y-10.16
X22.86Y-12.7
X22.86Y-15.24
X22.86Y-17.78
X22.86Y-20.32
X22.86Y-22.86
X22.86Y-25.4
X22.86Y-27.94
X22.86Y-30.48
X22.86Y-33.02
X22.86Y-35.56
T8
X4.445Y2.54
X6.985Y2.54
X9.525Y2.54
X12.065Y2.54
T0
M30
