%TF.GenerationSoftware,KiCad,Pcbnew,5.1.5+dfsg1-2~bpo10+1*%
%TF.CreationDate,Date%
%TF.ProjectId,PIS,5049532e-6b69-4636-9164-5f7063625858,rev?*%
%TF.SameCoordinates,Original*%
%TF.FileFunction,Copper,L2,Bot*%
%TF.FilePolarity,Positive*%
%FSLAX45Y45*%
G04 Gerber Fmt 4.5, Leading zero omitted, Abs format (unit mm)*
G04 Created by KiCad*
%MOMM*%
%LPD*%
G04 APERTURE LIST*
%ADD10C,0.120000*%
%ADD11C,2.100000*%
%ADD12R,2.100000X2.100000*%
%ADD13C,1.400000*%
%ADD14C,0.150000*%
%ADD15O,1.700000X1.700000*%
%ADD16R,1.700000X1.700000*%
%ADD17O,1.000000X1.000000*%
%ADD18R,1.000000X1.000000*%
%ADD19O,1.400000X1.400000*%
%ADD20C,1.800000*%
%ADD21R,1.800000X1.800000*%
%ADD22R,1.050000X1.500000*%
%ADD23O,1.050000X1.500000*%
%ADD24O,1.600000X1.600000*%
%ADD25R,1.600000X1.600000*%
%ADD26C,2.000000*%
%ADD27R,2.000000X2.000000*%
%ADD28C,2.032000*%
%ADD29R,2.032000X2.032000*%
%ADD30C,0.500000*%
%ADD31C,0.250000*%
%ADD32C,0.350000*%
G04 APERTURE END LIST*
D10*
X-190500Y4063511D02*
G75*
G02X-63500Y4190511I127000J0D01*
G01*
X2476500Y-571500D02*
G75*
G02X2349500Y-698500I-127000J0D01*
G01*
X2349500Y4190511D02*
G75*
G02X2476500Y4063511I0J-127000D01*
G01*
X-63500Y-698989D02*
G75*
G02X-190500Y-571989I0J127000D01*
G01*
X2476500Y-571500D02*
X2476500Y4064000D01*
X-63500Y-698500D02*
X2349500Y-698500D01*
X-190500Y4064000D02*
X-190500Y-571500D01*
X2349500Y4190511D02*
X-63500Y4190511D01*
D11*
X444500Y3810000D03*
X698500Y3810000D03*
X952500Y3810000D03*
D12*
X1206500Y3810000D03*
D13*
X444500Y3810000D03*
X952500Y3810000D03*
%TA.AperFunction,ComponentPad*%
D14*
G36*
X1254023Y3879880D02*
G01*
X1256442Y3879521D01*
X1258814Y3878927D01*
X1261117Y3878103D01*
X1263327Y3877057D01*
X1265425Y3875800D01*
X1267389Y3874343D01*
X1269201Y3872701D01*
X1270843Y3870889D01*
X1272300Y3868925D01*
X1273558Y3866827D01*
X1274603Y3864616D01*
X1275427Y3862314D01*
X1276021Y3859942D01*
X1276380Y3857523D01*
X1276500Y3855080D01*
X1276500Y3764920D01*
X1276380Y3762477D01*
X1276021Y3760058D01*
X1275427Y3757686D01*
X1274603Y3755383D01*
X1273558Y3753173D01*
X1272300Y3751075D01*
X1270843Y3749111D01*
X1269201Y3747299D01*
X1267389Y3745657D01*
X1265425Y3744200D01*
X1263327Y3742942D01*
X1261117Y3741897D01*
X1258814Y3741073D01*
X1256442Y3740479D01*
X1254023Y3740120D01*
X1251580Y3740000D01*
X1161420Y3740000D01*
X1158977Y3740120D01*
X1156558Y3740479D01*
X1154186Y3741073D01*
X1151884Y3741897D01*
X1149673Y3742942D01*
X1147575Y3744200D01*
X1145611Y3745657D01*
X1143799Y3747299D01*
X1142157Y3749111D01*
X1140700Y3751075D01*
X1139443Y3753173D01*
X1138397Y3755383D01*
X1137573Y3757686D01*
X1136979Y3760058D01*
X1136620Y3762477D01*
X1136500Y3764920D01*
X1136500Y3855080D01*
X1136620Y3857523D01*
X1136979Y3859942D01*
X1137573Y3862314D01*
X1138397Y3864616D01*
X1139443Y3866827D01*
X1140700Y3868925D01*
X1142157Y3870889D01*
X1143799Y3872701D01*
X1145611Y3874343D01*
X1147575Y3875800D01*
X1149673Y3877057D01*
X1151884Y3878103D01*
X1154186Y3878927D01*
X1156558Y3879521D01*
X1158977Y3879880D01*
X1161420Y3880000D01*
X1251580Y3880000D01*
X1254023Y3879880D01*
G37*
%TD.AperFunction*%
D15*
X762000Y-444500D03*
X1016000Y-444500D03*
X1270000Y-444500D03*
D16*
X1524000Y-444500D03*
D17*
X698500Y1905000D03*
X952500Y1905000D03*
X1206500Y1905000D03*
D18*
X1460500Y1905000D03*
D19*
X1778000Y2540000D03*
D13*
X1778000Y1778000D03*
D20*
X1587500Y3810000D03*
D21*
X1841500Y3810000D03*
D22*
X1460500Y2413000D03*
D23*
X1206500Y2413000D03*
X1333500Y2413000D03*
D24*
X254000Y2540000D03*
D25*
X254000Y3302000D03*
D26*
X635000Y3302000D03*
X889000Y3302000D03*
D27*
X635000Y2794000D03*
D26*
X889000Y2794000D03*
X1651000Y3302000D03*
X1651000Y2794000D03*
D19*
X2032000Y762000D03*
D13*
X2032000Y1524000D03*
D19*
X2032000Y0D03*
D13*
X2032000Y762000D03*
D22*
X889000Y2413000D03*
D23*
X635000Y2413000D03*
X762000Y2413000D03*
D15*
X254000Y508000D03*
X254000Y762000D03*
D16*
X254000Y1016000D03*
D28*
X2286000Y254000D03*
X2286000Y762000D03*
X2286000Y508000D03*
X2286000Y2540000D03*
X2286000Y2286000D03*
X2286000Y1778000D03*
X2286000Y2032000D03*
X2286000Y3556000D03*
X2286000Y1524000D03*
X2286000Y1016000D03*
X2286000Y1270000D03*
X2286000Y2794000D03*
X2286000Y3302000D03*
X2286000Y3048000D03*
X2286000Y0D03*
X0Y3556000D03*
X0Y3302000D03*
X0Y3048000D03*
X0Y2794000D03*
X0Y2540000D03*
X0Y2286000D03*
X0Y2032000D03*
X0Y1778000D03*
X0Y1524000D03*
X0Y1270000D03*
X0Y1016000D03*
X0Y762000D03*
X0Y508000D03*
X0Y254000D03*
D29*
X0Y0D03*
D15*
X889000Y-127000D03*
X1143000Y-127000D03*
D16*
X1397000Y-127000D03*
D19*
X254000Y2286000D03*
D13*
X254000Y1524000D03*
D15*
X2032000Y2794000D03*
X2032000Y3048000D03*
X2032000Y3302000D03*
D16*
X2032000Y3556000D03*
D30*
X2032000Y3302000D02*
X2286000Y3302000D01*
X762000Y-444500D02*
X762000Y-254000D01*
X762000Y-254000D02*
X889000Y-127000D01*
X889000Y-127000D02*
X762000Y0D01*
X762000Y0D02*
X0Y0D01*
X2032000Y2794000D02*
X2286000Y2794000D01*
X2286000Y3048000D02*
X2032000Y3048000D01*
X2032000Y508000D02*
X1206500Y1333500D01*
X2286000Y508000D02*
X2032000Y508000D01*
X1206500Y1905000D02*
X1206500Y1333500D01*
X635000Y3302000D02*
X635000Y3492500D01*
X635000Y3492500D02*
X698500Y3556000D01*
X698500Y3556000D02*
X698500Y3810000D01*
X762000Y2159000D02*
X762000Y2413000D01*
X825500Y1270000D02*
X825500Y2095500D01*
X825500Y2095500D02*
X762000Y2159000D01*
X1841500Y254000D02*
X825500Y1270000D01*
X2286000Y254000D02*
X1841500Y254000D01*
X889000Y2413000D02*
X889000Y2603500D01*
X889000Y2603500D02*
X889000Y2794000D01*
X889000Y2603500D02*
X508000Y2603500D01*
X508000Y2603500D02*
X444500Y2540000D01*
X444500Y2540000D02*
X254000Y2540000D01*
X1841500Y3810000D02*
X1841500Y2603500D01*
X1841500Y2603500D02*
X1778000Y2540000D01*
X1333500Y1778000D02*
X1333500Y2413000D01*
X2286000Y762000D02*
X1333500Y1714500D01*
X1333500Y1714500D02*
X1333500Y1778000D01*
X1587500Y2413000D02*
X1460500Y2413000D01*
X1587500Y2413000D02*
X1778000Y2222500D01*
X1778000Y1778000D02*
X1778000Y2222500D01*
X1651000Y-635000D02*
X2000250Y-285750D01*
X1016000Y-444500D02*
X1206500Y-635000D01*
X2000250Y-285750D02*
X2286000Y0D01*
X1206500Y-635000D02*
X1651000Y-635000D01*
X1651000Y3048000D02*
X571500Y3048000D01*
X1651000Y2794000D02*
X1651000Y3048000D01*
X1651000Y3048000D02*
X1651000Y3302000D01*
X571500Y3048000D02*
X444500Y3175000D01*
X444500Y3175000D02*
X444500Y3810000D01*
D31*
G36*
X2365678Y4145216D02*
G01*
X2381240Y4140518D01*
X2395593Y4132886D01*
X2408190Y4122612D01*
X2418552Y4110087D01*
X2426283Y4095788D01*
X2431090Y4080259D01*
X2433000Y4062088D01*
X2433000Y3376118D01*
X2426366Y3388531D01*
X2400017Y3398340D01*
X2303678Y3302000D01*
X2400017Y3205660D01*
X2426366Y3215469D01*
X2433000Y3229056D01*
X2433000Y1598118D01*
X2426366Y1610531D01*
X2400017Y1620340D01*
X2303678Y1524000D01*
X2400017Y1427660D01*
X2426366Y1437469D01*
X2433000Y1451056D01*
X2433000Y-569372D01*
X2431205Y-587678D01*
X2426507Y-603240D01*
X2418875Y-617593D01*
X2408601Y-630190D01*
X2396076Y-640552D01*
X2381777Y-648283D01*
X2366248Y-653090D01*
X2348078Y-655000D01*
X1719388Y-655000D01*
X2012277Y-362111D01*
X2010090Y-367391D01*
X2002500Y-405548D01*
X2002500Y-444452D01*
X2010090Y-482609D01*
X2024978Y-518551D01*
X2046592Y-550899D01*
X2074101Y-578408D01*
X2106449Y-600022D01*
X2142391Y-614910D01*
X2180548Y-622500D01*
X2219452Y-622500D01*
X2257609Y-614910D01*
X2293551Y-600022D01*
X2325899Y-578408D01*
X2353408Y-550899D01*
X2375022Y-518551D01*
X2389910Y-482609D01*
X2397500Y-444452D01*
X2397500Y-405548D01*
X2389910Y-367391D01*
X2375022Y-331449D01*
X2353408Y-299101D01*
X2325899Y-271592D01*
X2293551Y-249978D01*
X2257609Y-235090D01*
X2219452Y-227500D01*
X2180548Y-227500D01*
X2142391Y-235090D01*
X2137111Y-237277D01*
X2242038Y-132351D01*
X2245426Y-133754D01*
X2272300Y-139100D01*
X2299700Y-139100D01*
X2326574Y-133754D01*
X2351889Y-123269D01*
X2374671Y-108046D01*
X2394046Y-88671D01*
X2409269Y-65889D01*
X2419754Y-40574D01*
X2425100Y-13700D01*
X2425100Y13700D01*
X2419754Y40574D01*
X2409269Y65889D01*
X2394046Y88671D01*
X2374671Y108046D01*
X2351889Y123269D01*
X2342881Y127000D01*
X2351889Y130731D01*
X2374671Y145954D01*
X2394046Y165329D01*
X2409269Y188111D01*
X2419754Y213426D01*
X2425100Y240300D01*
X2425100Y267700D01*
X2419754Y294574D01*
X2409269Y319889D01*
X2394046Y342671D01*
X2374671Y362046D01*
X2351889Y377269D01*
X2342881Y381000D01*
X2351889Y384731D01*
X2374671Y399954D01*
X2394046Y419329D01*
X2409269Y442111D01*
X2419754Y467426D01*
X2425100Y494300D01*
X2425100Y521700D01*
X2419754Y548574D01*
X2409269Y573889D01*
X2394046Y596671D01*
X2374671Y616046D01*
X2351889Y631269D01*
X2342881Y635000D01*
X2351889Y638731D01*
X2374671Y653954D01*
X2394046Y673329D01*
X2409269Y696112D01*
X2419754Y721426D01*
X2425100Y748300D01*
X2425100Y775700D01*
X2419754Y802574D01*
X2409269Y827888D01*
X2394046Y850671D01*
X2374671Y870046D01*
X2351889Y885269D01*
X2342881Y889000D01*
X2351889Y892731D01*
X2374671Y907954D01*
X2394046Y927329D01*
X2409269Y950111D01*
X2419754Y975426D01*
X2425100Y1002300D01*
X2425100Y1029700D01*
X2419754Y1056574D01*
X2409269Y1081889D01*
X2394046Y1104671D01*
X2374671Y1124046D01*
X2351889Y1139269D01*
X2342881Y1143000D01*
X2351889Y1146731D01*
X2374671Y1161954D01*
X2394046Y1181329D01*
X2409269Y1204112D01*
X2419754Y1229426D01*
X2425100Y1256300D01*
X2425100Y1283700D01*
X2419754Y1310574D01*
X2409269Y1335889D01*
X2394046Y1358671D01*
X2374671Y1378046D01*
X2369073Y1381786D01*
X2372531Y1383635D01*
X2382340Y1409983D01*
X2286000Y1506322D01*
X2189660Y1409983D01*
X2199469Y1383635D01*
X2203065Y1381879D01*
X2197329Y1378046D01*
X2177954Y1358671D01*
X2162731Y1335889D01*
X2152246Y1310574D01*
X2146900Y1283700D01*
X2146900Y1256300D01*
X2152246Y1229426D01*
X2162731Y1204112D01*
X2177954Y1181329D01*
X2197329Y1161954D01*
X2220112Y1146731D01*
X2229119Y1143000D01*
X2220112Y1139269D01*
X2197329Y1124046D01*
X2177954Y1104671D01*
X2162731Y1081889D01*
X2152246Y1056574D01*
X2146900Y1029700D01*
X2146900Y1002300D01*
X2150081Y986307D01*
X1703852Y1432536D01*
X1958214Y1432536D01*
X1964200Y1409415D01*
X1987857Y1398390D01*
X2013211Y1392191D01*
X2039286Y1391058D01*
X2065082Y1395034D01*
X2089606Y1403966D01*
X2099800Y1409415D01*
X2105786Y1432536D01*
X2032000Y1506322D01*
X1958214Y1432536D01*
X1703852Y1432536D01*
X1619675Y1516714D01*
X1899058Y1516714D01*
X1903034Y1490918D01*
X1911966Y1466394D01*
X1917415Y1456200D01*
X1940536Y1450214D01*
X2014322Y1524000D01*
X2049678Y1524000D01*
X2123464Y1450214D01*
X2136955Y1453707D01*
X2145635Y1437469D01*
X2171983Y1427660D01*
X2268322Y1524000D01*
X2171983Y1620340D01*
X2145635Y1610531D01*
X2137621Y1594121D01*
X2123464Y1597786D01*
X2049678Y1524000D01*
X2014322Y1524000D01*
X1940536Y1597786D01*
X1917415Y1591800D01*
X1906390Y1568143D01*
X1900191Y1542789D01*
X1899058Y1516714D01*
X1619675Y1516714D01*
X1520924Y1615464D01*
X1958214Y1615464D01*
X2032000Y1541678D01*
X2105786Y1615464D01*
X2099800Y1638585D01*
X2076143Y1649610D01*
X2050789Y1655809D01*
X2024714Y1656942D01*
X1998918Y1652966D01*
X1974394Y1644034D01*
X1964200Y1638585D01*
X1958214Y1615464D01*
X1520924Y1615464D01*
X1396000Y1740388D01*
X1396000Y1820230D01*
X1396080Y1820187D01*
X1403149Y1818043D01*
X1410500Y1817319D01*
X1510500Y1817319D01*
X1517851Y1818043D01*
X1524920Y1820187D01*
X1531435Y1823669D01*
X1537145Y1828355D01*
X1541831Y1834065D01*
X1545313Y1840580D01*
X1547457Y1847649D01*
X1548181Y1855000D01*
X1548181Y1955000D01*
X1547457Y1962351D01*
X1545313Y1969420D01*
X1541831Y1975935D01*
X1537145Y1981645D01*
X1531435Y1986331D01*
X1524920Y1989813D01*
X1517851Y1991957D01*
X1510500Y1992681D01*
X1410500Y1992681D01*
X1403149Y1991957D01*
X1396080Y1989813D01*
X1396000Y1989770D01*
X1396000Y2302453D01*
X1400649Y2301043D01*
X1408000Y2300319D01*
X1513000Y2300319D01*
X1520351Y2301043D01*
X1527420Y2303187D01*
X1533935Y2306669D01*
X1539645Y2311355D01*
X1544331Y2317065D01*
X1547813Y2323580D01*
X1549957Y2330649D01*
X1550681Y2338000D01*
X1550681Y2350500D01*
X1561612Y2350500D01*
X1715500Y2196612D01*
X1715500Y1865528D01*
X1709473Y1861501D01*
X1694499Y1846527D01*
X1682735Y1828920D01*
X1674631Y1809357D01*
X1670500Y1788588D01*
X1670500Y1767412D01*
X1674631Y1746643D01*
X1682735Y1727080D01*
X1694499Y1709473D01*
X1709473Y1694499D01*
X1727080Y1682735D01*
X1746643Y1674631D01*
X1767412Y1670500D01*
X1788588Y1670500D01*
X1809357Y1674631D01*
X1828920Y1682735D01*
X1846527Y1694499D01*
X1861501Y1709473D01*
X1873265Y1727080D01*
X1881369Y1746643D01*
X1885500Y1767412D01*
X1885500Y1788588D01*
X1881369Y1809357D01*
X1873265Y1828920D01*
X1861501Y1846527D01*
X1846527Y1861501D01*
X1840500Y1865528D01*
X1840500Y2219430D01*
X1840802Y2222500D01*
X1840500Y2225570D01*
X1839596Y2234752D01*
X1836022Y2246533D01*
X1830218Y2257391D01*
X1822408Y2266908D01*
X1820023Y2268865D01*
X1633866Y2455022D01*
X1631908Y2457408D01*
X1622391Y2465218D01*
X1611533Y2471022D01*
X1599752Y2474596D01*
X1590570Y2475500D01*
X1590569Y2475500D01*
X1587500Y2475802D01*
X1584431Y2475500D01*
X1550681Y2475500D01*
X1550681Y2488000D01*
X1549957Y2495351D01*
X1547813Y2502420D01*
X1544331Y2508935D01*
X1539645Y2514645D01*
X1533935Y2519331D01*
X1527420Y2522813D01*
X1520351Y2524957D01*
X1513000Y2525681D01*
X1408000Y2525681D01*
X1400649Y2524957D01*
X1393580Y2522813D01*
X1387065Y2519331D01*
X1381355Y2514645D01*
X1379830Y2512786D01*
X1368108Y2519051D01*
X1351143Y2524198D01*
X1333500Y2525935D01*
X1315857Y2524198D01*
X1298892Y2519051D01*
X1290553Y2514594D01*
X1282504Y2523097D01*
X1263954Y2536242D01*
X1243196Y2545515D01*
X1236730Y2546456D01*
X1219000Y2534086D01*
X1219000Y2425500D01*
X1221000Y2425500D01*
X1221000Y2400500D01*
X1219000Y2400500D01*
X1219000Y2291914D01*
X1236730Y2279544D01*
X1243196Y2280485D01*
X1263954Y2289758D01*
X1271000Y2294751D01*
X1271000Y1964244D01*
X1262278Y1972966D01*
X1247947Y1982541D01*
X1232023Y1989137D01*
X1215118Y1992500D01*
X1197882Y1992500D01*
X1180977Y1989137D01*
X1165053Y1982541D01*
X1150722Y1972966D01*
X1138534Y1960778D01*
X1128959Y1946447D01*
X1122363Y1930523D01*
X1119000Y1913618D01*
X1119000Y1896382D01*
X1122363Y1879477D01*
X1128959Y1863553D01*
X1138534Y1849222D01*
X1144000Y1843756D01*
X1144000Y1336570D01*
X1143698Y1333500D01*
X1144000Y1330430D01*
X1144904Y1321248D01*
X1148478Y1309467D01*
X1154282Y1298609D01*
X1162092Y1289092D01*
X1164477Y1287135D01*
X1985635Y465977D01*
X1987592Y463592D01*
X1997109Y455782D01*
X2007967Y449978D01*
X2019748Y446404D01*
X2028930Y445500D01*
X2028931Y445500D01*
X2032000Y445198D01*
X2035069Y445500D01*
X2161328Y445500D01*
X2162731Y442111D01*
X2177954Y419329D01*
X2197329Y399954D01*
X2220112Y384731D01*
X2229119Y381000D01*
X2220112Y377269D01*
X2197329Y362046D01*
X2177954Y342671D01*
X2162731Y319889D01*
X2161328Y316500D01*
X1867388Y316500D01*
X888000Y1295888D01*
X888000Y1845756D01*
X896722Y1837034D01*
X911053Y1827458D01*
X926977Y1820863D01*
X943882Y1817500D01*
X961118Y1817500D01*
X978023Y1820863D01*
X993947Y1827458D01*
X1008278Y1837034D01*
X1020466Y1849222D01*
X1030041Y1863553D01*
X1036637Y1879477D01*
X1040000Y1896382D01*
X1040000Y1913618D01*
X1036637Y1930523D01*
X1030041Y1946447D01*
X1020466Y1960778D01*
X1008278Y1972966D01*
X993947Y1982541D01*
X978023Y1989137D01*
X961118Y1992500D01*
X943882Y1992500D01*
X926977Y1989137D01*
X911053Y1982541D01*
X896722Y1972966D01*
X888000Y1964244D01*
X888000Y2092430D01*
X888302Y2095500D01*
X888000Y2098570D01*
X887096Y2107752D01*
X883522Y2119533D01*
X880300Y2125560D01*
X877718Y2130391D01*
X871865Y2137523D01*
X871865Y2137524D01*
X869908Y2139908D01*
X867523Y2141865D01*
X824500Y2184888D01*
X824500Y2302453D01*
X829149Y2301043D01*
X836500Y2300319D01*
X941500Y2300319D01*
X948851Y2301043D01*
X955920Y2303187D01*
X962435Y2306669D01*
X968145Y2311355D01*
X972831Y2317065D01*
X976313Y2323580D01*
X978457Y2330649D01*
X979181Y2338000D01*
X979181Y2382302D01*
X1090817Y2382302D01*
X1094639Y2359891D01*
X1102760Y2338656D01*
X1114867Y2319414D01*
X1130496Y2302903D01*
X1149046Y2289758D01*
X1169804Y2280485D01*
X1176271Y2279544D01*
X1194000Y2291914D01*
X1194000Y2400500D01*
X1106583Y2400500D01*
X1090817Y2382302D01*
X979181Y2382302D01*
X979181Y2443698D01*
X1090817Y2443698D01*
X1106583Y2425500D01*
X1194000Y2425500D01*
X1194000Y2534086D01*
X1176271Y2546456D01*
X1169804Y2545515D01*
X1149046Y2536242D01*
X1130496Y2523097D01*
X1114867Y2506587D01*
X1102760Y2487344D01*
X1094639Y2466109D01*
X1090817Y2443698D01*
X979181Y2443698D01*
X979181Y2488000D01*
X978457Y2495351D01*
X976313Y2502420D01*
X972831Y2508935D01*
X968145Y2514645D01*
X962435Y2519331D01*
X955920Y2522813D01*
X951500Y2524154D01*
X951500Y2600430D01*
X951802Y2603500D01*
X951500Y2606570D01*
X951500Y2671059D01*
X954131Y2672149D01*
X976651Y2687197D01*
X995803Y2706349D01*
X1010851Y2728869D01*
X1021216Y2753893D01*
X1026500Y2780457D01*
X1026500Y2807543D01*
X1021216Y2834107D01*
X1010851Y2859131D01*
X995803Y2881651D01*
X976651Y2900803D01*
X954131Y2915851D01*
X929107Y2926216D01*
X902543Y2931500D01*
X875457Y2931500D01*
X848893Y2926216D01*
X823869Y2915851D01*
X801349Y2900803D01*
X782197Y2881651D01*
X772681Y2867410D01*
X772681Y2894000D01*
X771957Y2901351D01*
X769813Y2908420D01*
X766331Y2914935D01*
X761645Y2920645D01*
X755935Y2925331D01*
X749420Y2928813D01*
X742351Y2930957D01*
X735000Y2931681D01*
X535000Y2931681D01*
X527649Y2930957D01*
X520580Y2928813D01*
X514065Y2925331D01*
X508355Y2920645D01*
X503669Y2914935D01*
X500187Y2908420D01*
X498043Y2901351D01*
X497319Y2894000D01*
X497319Y2694000D01*
X498043Y2686649D01*
X500187Y2679580D01*
X503669Y2673065D01*
X508355Y2667355D01*
X509861Y2666119D01*
X508000Y2666302D01*
X504930Y2666000D01*
X504930Y2666000D01*
X495748Y2665096D01*
X483967Y2661522D01*
X479598Y2659187D01*
X473109Y2655718D01*
X465977Y2649865D01*
X465976Y2649865D01*
X463592Y2647908D01*
X461635Y2645523D01*
X418612Y2602500D01*
X353555Y2602500D01*
X345268Y2614902D01*
X328902Y2631268D01*
X309657Y2644127D01*
X288274Y2652985D01*
X265573Y2657500D01*
X242427Y2657500D01*
X219726Y2652985D01*
X198343Y2644127D01*
X179098Y2631268D01*
X162732Y2614902D01*
X149873Y2595657D01*
X141016Y2574274D01*
X138012Y2559172D01*
X133754Y2580574D01*
X123269Y2605889D01*
X108046Y2628671D01*
X88671Y2648046D01*
X65889Y2663269D01*
X56881Y2667000D01*
X65889Y2670731D01*
X88671Y2685954D01*
X108046Y2705329D01*
X123269Y2728112D01*
X133754Y2753426D01*
X139100Y2780300D01*
X139100Y2807700D01*
X133754Y2834574D01*
X123269Y2859888D01*
X108046Y2882671D01*
X88671Y2902046D01*
X65889Y2917269D01*
X56881Y2921000D01*
X65889Y2924731D01*
X88671Y2939954D01*
X108046Y2959329D01*
X123269Y2982111D01*
X133754Y3007426D01*
X139100Y3034300D01*
X139100Y3061700D01*
X133754Y3088574D01*
X123269Y3113888D01*
X108046Y3136671D01*
X88671Y3156046D01*
X83073Y3159786D01*
X86531Y3161634D01*
X96340Y3187983D01*
X0Y3284322D01*
X-96340Y3187983D01*
X-86531Y3161634D01*
X-82935Y3159879D01*
X-88671Y3156046D01*
X-108046Y3136671D01*
X-123269Y3113888D01*
X-133754Y3088574D01*
X-139100Y3061700D01*
X-139100Y3034300D01*
X-133754Y3007426D01*
X-123269Y2982111D01*
X-108046Y2959329D01*
X-88671Y2939954D01*
X-65889Y2924731D01*
X-56881Y2921000D01*
X-65889Y2917269D01*
X-88671Y2902046D01*
X-108046Y2882671D01*
X-123269Y2859888D01*
X-133754Y2834574D01*
X-139100Y2807700D01*
X-139100Y2780300D01*
X-133754Y2753426D01*
X-123269Y2728112D01*
X-108046Y2705329D01*
X-88671Y2685954D01*
X-65889Y2670731D01*
X-56881Y2667000D01*
X-65889Y2663269D01*
X-88671Y2648046D01*
X-108046Y2628671D01*
X-123269Y2605889D01*
X-133754Y2580574D01*
X-139100Y2553700D01*
X-139100Y2526300D01*
X-133754Y2499426D01*
X-123269Y2474112D01*
X-108046Y2451329D01*
X-88671Y2431954D01*
X-83073Y2428214D01*
X-86531Y2426366D01*
X-96340Y2400017D01*
X0Y2303678D01*
X96340Y2400017D01*
X86531Y2426366D01*
X82935Y2428121D01*
X88671Y2431954D01*
X108046Y2451329D01*
X123269Y2474112D01*
X133754Y2499426D01*
X138012Y2520828D01*
X141016Y2505727D01*
X149873Y2484343D01*
X162732Y2465098D01*
X179098Y2448732D01*
X198343Y2435873D01*
X219726Y2427016D01*
X242427Y2422500D01*
X265573Y2422500D01*
X288274Y2427016D01*
X309657Y2435873D01*
X328902Y2448732D01*
X345268Y2465098D01*
X353555Y2477500D01*
X441431Y2477500D01*
X444500Y2477198D01*
X447569Y2477500D01*
X447570Y2477500D01*
X456752Y2478404D01*
X468533Y2481978D01*
X479391Y2487782D01*
X488908Y2495592D01*
X490866Y2497978D01*
X533888Y2541000D01*
X588197Y2541000D01*
X577546Y2536242D01*
X558996Y2523097D01*
X543367Y2506587D01*
X531260Y2487344D01*
X523139Y2466109D01*
X519316Y2443698D01*
X535083Y2425500D01*
X622500Y2425500D01*
X622500Y2427500D01*
X647500Y2427500D01*
X647500Y2425500D01*
X649500Y2425500D01*
X649500Y2400500D01*
X647500Y2400500D01*
X647500Y2291914D01*
X665230Y2279544D01*
X671696Y2280485D01*
X692454Y2289758D01*
X699500Y2294751D01*
X699500Y2162069D01*
X699198Y2159000D01*
X699500Y2155931D01*
X699500Y2155930D01*
X700404Y2146748D01*
X703978Y2134967D01*
X709782Y2124109D01*
X717592Y2114592D01*
X719978Y2112634D01*
X763000Y2069612D01*
X763000Y1996513D01*
X754104Y2002799D01*
X733956Y2011767D01*
X728336Y2013471D01*
X711000Y2001065D01*
X711000Y1917500D01*
X713000Y1917500D01*
X713000Y1892500D01*
X711000Y1892500D01*
X711000Y1808935D01*
X728336Y1796528D01*
X733956Y1798233D01*
X754104Y1807201D01*
X763000Y1813487D01*
X763000Y1273069D01*
X762698Y1270000D01*
X763000Y1266931D01*
X763000Y1266930D01*
X763904Y1257748D01*
X767478Y1245967D01*
X773282Y1235109D01*
X781092Y1225592D01*
X783478Y1223634D01*
X1795135Y211977D01*
X1797092Y209592D01*
X1806609Y201782D01*
X1817467Y195978D01*
X1829248Y192404D01*
X1838430Y191500D01*
X1838430Y191500D01*
X1841500Y191198D01*
X1844570Y191500D01*
X2161328Y191500D01*
X2162731Y188111D01*
X2177954Y165329D01*
X2197329Y145954D01*
X2220112Y130731D01*
X2229119Y127000D01*
X2220112Y123269D01*
X2197329Y108046D01*
X2177954Y88671D01*
X2162731Y65889D01*
X2152246Y40574D01*
X2146900Y13700D01*
X2146900Y-13700D01*
X2152246Y-40574D01*
X2153649Y-43962D01*
X1958227Y-239385D01*
X1625112Y-572500D01*
X1342604Y-572500D01*
X1346274Y-570749D01*
X1369438Y-553442D01*
X1388781Y-531950D01*
X1401319Y-510865D01*
X1401319Y-529500D01*
X1402043Y-536851D01*
X1404187Y-543920D01*
X1407669Y-550435D01*
X1412355Y-556145D01*
X1418065Y-560831D01*
X1424580Y-564313D01*
X1431649Y-566457D01*
X1439000Y-567181D01*
X1609000Y-567181D01*
X1616351Y-566457D01*
X1623420Y-564313D01*
X1629935Y-560831D01*
X1635645Y-556145D01*
X1640331Y-550435D01*
X1643813Y-543920D01*
X1645957Y-536851D01*
X1646681Y-529500D01*
X1646681Y-359500D01*
X1645957Y-352149D01*
X1643813Y-345080D01*
X1640331Y-338565D01*
X1635645Y-332855D01*
X1629935Y-328169D01*
X1623420Y-324687D01*
X1616351Y-322543D01*
X1609000Y-321819D01*
X1439000Y-321819D01*
X1431649Y-322543D01*
X1424580Y-324687D01*
X1418065Y-328169D01*
X1412355Y-332855D01*
X1407669Y-338565D01*
X1404187Y-345080D01*
X1402043Y-352149D01*
X1401319Y-359500D01*
X1401319Y-378135D01*
X1388781Y-357050D01*
X1369438Y-335558D01*
X1346274Y-318252D01*
X1320179Y-305797D01*
X1305337Y-301296D01*
X1282500Y-313219D01*
X1282500Y-432000D01*
X1284500Y-432000D01*
X1284500Y-457000D01*
X1282500Y-457000D01*
X1282500Y-459000D01*
X1257500Y-459000D01*
X1257500Y-457000D01*
X1255500Y-457000D01*
X1255500Y-432000D01*
X1257500Y-432000D01*
X1257500Y-313219D01*
X1234663Y-301296D01*
X1219821Y-305797D01*
X1193726Y-318252D01*
X1170562Y-335558D01*
X1151219Y-357050D01*
X1136441Y-381904D01*
X1130094Y-399839D01*
X1124558Y-386474D01*
X1111152Y-366411D01*
X1094089Y-349348D01*
X1074026Y-335942D01*
X1051732Y-326708D01*
X1028065Y-322000D01*
X1003935Y-322000D01*
X980268Y-326708D01*
X957974Y-335942D01*
X937911Y-349348D01*
X920848Y-366411D01*
X907442Y-386474D01*
X898208Y-408768D01*
X893500Y-432435D01*
X893500Y-456565D01*
X898208Y-480232D01*
X907442Y-502525D01*
X920848Y-522589D01*
X937911Y-539652D01*
X957974Y-553058D01*
X980268Y-562292D01*
X1003935Y-567000D01*
X1028065Y-567000D01*
X1046454Y-563342D01*
X1138112Y-655000D01*
X-65636Y-655000D01*
X-65997Y-655036D01*
X-79678Y-653694D01*
X-95240Y-648996D01*
X-109593Y-641364D01*
X-122190Y-631090D01*
X-132552Y-618565D01*
X-140283Y-604266D01*
X-145090Y-588737D01*
X-147000Y-570567D01*
X-147000Y-405548D01*
X-122500Y-405548D01*
X-122500Y-444452D01*
X-114910Y-482609D01*
X-100022Y-518551D01*
X-78408Y-550899D01*
X-50899Y-578408D01*
X-18551Y-600022D01*
X17391Y-614910D01*
X55548Y-622500D01*
X94452Y-622500D01*
X132609Y-614910D01*
X168551Y-600022D01*
X200899Y-578408D01*
X228408Y-550899D01*
X250022Y-518551D01*
X264910Y-482609D01*
X272500Y-444452D01*
X272500Y-405548D01*
X264910Y-367391D01*
X250022Y-331449D01*
X228408Y-299101D01*
X200899Y-271592D01*
X168551Y-249978D01*
X132609Y-235090D01*
X94452Y-227500D01*
X55548Y-227500D01*
X17391Y-235090D01*
X-18551Y-249978D01*
X-50899Y-271592D01*
X-78408Y-299101D01*
X-100022Y-331449D01*
X-114910Y-367391D01*
X-122500Y-405548D01*
X-147000Y-405548D01*
X-147000Y101600D01*
X-139281Y101600D01*
X-139281Y-101600D01*
X-138557Y-108951D01*
X-136413Y-116020D01*
X-132931Y-122535D01*
X-128245Y-128245D01*
X-122535Y-132931D01*
X-116020Y-136413D01*
X-108951Y-138557D01*
X-101600Y-139281D01*
X101600Y-139281D01*
X108951Y-138557D01*
X116020Y-136413D01*
X122535Y-132931D01*
X128245Y-128245D01*
X132931Y-122535D01*
X136413Y-116020D01*
X138557Y-108951D01*
X139281Y-101600D01*
X139281Y-62500D01*
X736112Y-62500D01*
X770158Y-96546D01*
X766500Y-114935D01*
X766500Y-139065D01*
X770158Y-157454D01*
X719977Y-207635D01*
X717592Y-209592D01*
X709782Y-219109D01*
X703978Y-229967D01*
X700404Y-241748D01*
X699898Y-246891D01*
X699198Y-254000D01*
X699500Y-257070D01*
X699500Y-338932D01*
X683911Y-349348D01*
X666848Y-366411D01*
X653442Y-386474D01*
X644208Y-408768D01*
X639500Y-432435D01*
X639500Y-456565D01*
X644208Y-480232D01*
X653442Y-502525D01*
X666848Y-522589D01*
X683911Y-539652D01*
X703974Y-553058D01*
X726268Y-562292D01*
X749935Y-567000D01*
X774065Y-567000D01*
X797732Y-562292D01*
X820025Y-553058D01*
X840089Y-539652D01*
X857152Y-522589D01*
X870558Y-502525D01*
X879792Y-480232D01*
X884500Y-456565D01*
X884500Y-432435D01*
X879792Y-408768D01*
X870558Y-386474D01*
X857152Y-366411D01*
X840089Y-349348D01*
X824500Y-338932D01*
X824500Y-279888D01*
X858546Y-245842D01*
X876935Y-249500D01*
X901065Y-249500D01*
X924732Y-244792D01*
X947025Y-235558D01*
X967089Y-222152D01*
X984152Y-205089D01*
X997558Y-185025D01*
X1006792Y-162732D01*
X1011500Y-139065D01*
X1011500Y-114935D01*
X1020500Y-114935D01*
X1020500Y-139065D01*
X1025208Y-162732D01*
X1034442Y-185025D01*
X1047848Y-205089D01*
X1064911Y-222152D01*
X1084975Y-235558D01*
X1107268Y-244792D01*
X1130935Y-249500D01*
X1155065Y-249500D01*
X1178732Y-244792D01*
X1201026Y-235558D01*
X1221089Y-222152D01*
X1238152Y-205089D01*
X1249323Y-188370D01*
X1249198Y-212000D01*
X1250404Y-224252D01*
X1253978Y-236033D01*
X1259782Y-246891D01*
X1267592Y-256408D01*
X1277109Y-264218D01*
X1287967Y-270022D01*
X1299748Y-273596D01*
X1312000Y-274802D01*
X1368875Y-274500D01*
X1384500Y-258875D01*
X1384500Y-139500D01*
X1409500Y-139500D01*
X1409500Y-258875D01*
X1425125Y-274500D01*
X1482000Y-274802D01*
X1494252Y-273596D01*
X1506033Y-270022D01*
X1516891Y-264218D01*
X1526408Y-256408D01*
X1534218Y-246891D01*
X1540022Y-236033D01*
X1543596Y-224252D01*
X1544802Y-212000D01*
X1544500Y-155125D01*
X1528875Y-139500D01*
X1409500Y-139500D01*
X1384500Y-139500D01*
X1382500Y-139500D01*
X1382500Y-114500D01*
X1384500Y-114500D01*
X1384500Y4875D01*
X1409500Y4875D01*
X1409500Y-114500D01*
X1528875Y-114500D01*
X1544500Y-98875D01*
X1544802Y-42000D01*
X1543596Y-29748D01*
X1540022Y-17967D01*
X1534218Y-7109D01*
X1526408Y2408D01*
X1516891Y10218D01*
X1516200Y10588D01*
X1924500Y10588D01*
X1924500Y-10588D01*
X1928631Y-31357D01*
X1936735Y-50920D01*
X1948499Y-68527D01*
X1963473Y-83501D01*
X1981080Y-95265D01*
X2000643Y-103369D01*
X2021412Y-107500D01*
X2042588Y-107500D01*
X2063357Y-103369D01*
X2082920Y-95265D01*
X2100527Y-83501D01*
X2115501Y-68527D01*
X2127265Y-50920D01*
X2135369Y-31357D01*
X2139500Y-10588D01*
X2139500Y10588D01*
X2135369Y31357D01*
X2127265Y50920D01*
X2115501Y68527D01*
X2100527Y83501D01*
X2082920Y95265D01*
X2063357Y103369D01*
X2042588Y107500D01*
X2021412Y107500D01*
X2000643Y103369D01*
X1981080Y95265D01*
X1963473Y83501D01*
X1948499Y68527D01*
X1936735Y50920D01*
X1928631Y31357D01*
X1924500Y10588D01*
X1516200Y10588D01*
X1506033Y16022D01*
X1494252Y19596D01*
X1482000Y20802D01*
X1425125Y20500D01*
X1409500Y4875D01*
X1384500Y4875D01*
X1368875Y20500D01*
X1312000Y20802D01*
X1299748Y19596D01*
X1287967Y16022D01*
X1277109Y10218D01*
X1267592Y2408D01*
X1259782Y-7109D01*
X1253978Y-17967D01*
X1250404Y-29748D01*
X1249198Y-42000D01*
X1249323Y-65630D01*
X1238152Y-48911D01*
X1221089Y-31848D01*
X1201026Y-18442D01*
X1178732Y-9208D01*
X1155065Y-4500D01*
X1130935Y-4500D01*
X1107268Y-9208D01*
X1084975Y-18442D01*
X1064911Y-31848D01*
X1047848Y-48911D01*
X1034442Y-68975D01*
X1025208Y-91268D01*
X1020500Y-114935D01*
X1011500Y-114935D01*
X1006792Y-91268D01*
X997558Y-68975D01*
X984152Y-48911D01*
X967089Y-31848D01*
X947025Y-18442D01*
X924732Y-9208D01*
X901065Y-4500D01*
X876935Y-4500D01*
X858546Y-8158D01*
X808366Y42022D01*
X806408Y44408D01*
X796891Y52218D01*
X786033Y58022D01*
X774252Y61596D01*
X765070Y62500D01*
X765069Y62500D01*
X762000Y62802D01*
X758931Y62500D01*
X139281Y62500D01*
X139281Y101600D01*
X138557Y108951D01*
X136413Y116020D01*
X132931Y122535D01*
X128245Y128245D01*
X122535Y132931D01*
X116020Y136413D01*
X108951Y138557D01*
X101600Y139281D01*
X78685Y139281D01*
X88671Y145954D01*
X108046Y165329D01*
X123269Y188111D01*
X133754Y213426D01*
X139100Y240300D01*
X139100Y267700D01*
X133754Y294574D01*
X123269Y319889D01*
X108046Y342671D01*
X88671Y362046D01*
X65889Y377269D01*
X56881Y381000D01*
X65889Y384731D01*
X88671Y399954D01*
X108046Y419329D01*
X123269Y442111D01*
X133754Y467426D01*
X135463Y476013D01*
X136208Y472268D01*
X145442Y449974D01*
X158848Y429911D01*
X175911Y412848D01*
X195974Y399442D01*
X218268Y390208D01*
X241935Y385500D01*
X266065Y385500D01*
X289732Y390208D01*
X312026Y399442D01*
X332089Y412848D01*
X349152Y429911D01*
X362558Y449974D01*
X371792Y472268D01*
X376500Y495935D01*
X376500Y520065D01*
X371792Y543732D01*
X362558Y566026D01*
X349152Y586089D01*
X332089Y603152D01*
X312026Y616558D01*
X289732Y625792D01*
X266065Y630500D01*
X241935Y630500D01*
X218268Y625792D01*
X195974Y616558D01*
X175911Y603152D01*
X158848Y586089D01*
X145442Y566026D01*
X136208Y543732D01*
X135463Y539987D01*
X133754Y548574D01*
X123269Y573889D01*
X108046Y596671D01*
X88671Y616046D01*
X65889Y631269D01*
X56881Y635000D01*
X65889Y638731D01*
X88671Y653954D01*
X108046Y673329D01*
X123269Y696112D01*
X133754Y721426D01*
X135463Y730013D01*
X136208Y726268D01*
X145442Y703974D01*
X158848Y683911D01*
X175911Y666848D01*
X195974Y653442D01*
X218268Y644208D01*
X241935Y639500D01*
X266065Y639500D01*
X289732Y644208D01*
X312026Y653442D01*
X332089Y666848D01*
X349152Y683911D01*
X362558Y703974D01*
X371792Y726268D01*
X376500Y749935D01*
X376500Y774065D01*
X371792Y797732D01*
X362558Y820025D01*
X349152Y840089D01*
X332089Y857152D01*
X315370Y868323D01*
X339000Y868198D01*
X351252Y869404D01*
X363033Y872978D01*
X373891Y878782D01*
X383408Y886592D01*
X391218Y896109D01*
X397022Y906967D01*
X400596Y918748D01*
X401802Y931000D01*
X401500Y987875D01*
X385875Y1003500D01*
X266500Y1003500D01*
X266500Y1001500D01*
X241500Y1001500D01*
X241500Y1003500D01*
X239500Y1003500D01*
X239500Y1028500D01*
X241500Y1028500D01*
X241500Y1147875D01*
X266500Y1147875D01*
X266500Y1028500D01*
X385875Y1028500D01*
X401500Y1044125D01*
X401802Y1101000D01*
X400596Y1113252D01*
X397022Y1125033D01*
X391218Y1135891D01*
X383408Y1145408D01*
X373891Y1153218D01*
X363033Y1159022D01*
X351252Y1162596D01*
X339000Y1163802D01*
X282125Y1163500D01*
X266500Y1147875D01*
X241500Y1147875D01*
X225875Y1163500D01*
X169000Y1163802D01*
X156748Y1162596D01*
X144967Y1159022D01*
X134109Y1153218D01*
X124592Y1145408D01*
X116782Y1135891D01*
X110978Y1125033D01*
X107404Y1113252D01*
X106692Y1106025D01*
X88671Y1124046D01*
X65889Y1139269D01*
X56881Y1143000D01*
X65889Y1146731D01*
X88671Y1161954D01*
X108046Y1181329D01*
X123269Y1204112D01*
X133754Y1229426D01*
X139100Y1256300D01*
X139100Y1283700D01*
X133754Y1310574D01*
X123269Y1335889D01*
X108046Y1358671D01*
X88671Y1378046D01*
X65889Y1393269D01*
X56881Y1397000D01*
X65889Y1400731D01*
X88671Y1415954D01*
X108046Y1435329D01*
X123269Y1458111D01*
X133754Y1483426D01*
X139100Y1510300D01*
X139100Y1534588D01*
X146500Y1534588D01*
X146500Y1513412D01*
X150631Y1492643D01*
X158735Y1473080D01*
X170499Y1455473D01*
X185473Y1440499D01*
X203080Y1428735D01*
X222643Y1420631D01*
X243412Y1416500D01*
X264588Y1416500D01*
X285357Y1420631D01*
X304920Y1428735D01*
X322527Y1440499D01*
X337501Y1455473D01*
X349265Y1473080D01*
X357369Y1492643D01*
X361500Y1513412D01*
X361500Y1534588D01*
X357369Y1555357D01*
X349265Y1574920D01*
X337501Y1592527D01*
X322527Y1607501D01*
X304920Y1619265D01*
X285357Y1627369D01*
X264588Y1631500D01*
X243412Y1631500D01*
X222643Y1627369D01*
X203080Y1619265D01*
X185473Y1607501D01*
X170499Y1592527D01*
X158735Y1574920D01*
X150631Y1555357D01*
X146500Y1534588D01*
X139100Y1534588D01*
X139100Y1537700D01*
X133754Y1564574D01*
X123269Y1589888D01*
X108046Y1612671D01*
X88671Y1632046D01*
X65889Y1647269D01*
X56881Y1651000D01*
X65889Y1654731D01*
X88671Y1669954D01*
X108046Y1689329D01*
X123269Y1712111D01*
X133754Y1737426D01*
X139100Y1764300D01*
X139100Y1791700D01*
X133754Y1818574D01*
X123269Y1843888D01*
X108046Y1866671D01*
X99553Y1875164D01*
X590028Y1875164D01*
X597933Y1854575D01*
X609703Y1835924D01*
X624885Y1819928D01*
X642896Y1807201D01*
X663044Y1798233D01*
X668664Y1796528D01*
X686000Y1808935D01*
X686000Y1892500D01*
X602321Y1892500D01*
X590028Y1875164D01*
X99553Y1875164D01*
X88671Y1886046D01*
X65889Y1901269D01*
X56881Y1905000D01*
X65889Y1908731D01*
X88671Y1923954D01*
X99553Y1934836D01*
X590028Y1934836D01*
X602321Y1917500D01*
X686000Y1917500D01*
X686000Y2001065D01*
X668664Y2013471D01*
X663044Y2011767D01*
X642896Y2002799D01*
X624885Y1990072D01*
X609703Y1974075D01*
X597933Y1955425D01*
X590028Y1934836D01*
X99553Y1934836D01*
X108046Y1943329D01*
X123269Y1966111D01*
X133754Y1991426D01*
X139100Y2018300D01*
X139100Y2045700D01*
X133754Y2072574D01*
X123269Y2097889D01*
X108046Y2120671D01*
X88671Y2140046D01*
X83073Y2143786D01*
X86531Y2145635D01*
X96340Y2171983D01*
X0Y2268322D01*
X-96340Y2171983D01*
X-86531Y2145635D01*
X-82935Y2143879D01*
X-88671Y2140046D01*
X-108046Y2120671D01*
X-123269Y2097889D01*
X-133754Y2072574D01*
X-139100Y2045700D01*
X-139100Y2018300D01*
X-133754Y1991426D01*
X-123269Y1966111D01*
X-108046Y1943329D01*
X-88671Y1923954D01*
X-65889Y1908731D01*
X-56881Y1905000D01*
X-65889Y1901269D01*
X-88671Y1886046D01*
X-108046Y1866671D01*
X-123269Y1843888D01*
X-133754Y1818574D01*
X-139100Y1791700D01*
X-139100Y1764300D01*
X-133754Y1737426D01*
X-123269Y1712111D01*
X-108046Y1689329D01*
X-88671Y1669954D01*
X-65889Y1654731D01*
X-56881Y1651000D01*
X-65889Y1647269D01*
X-88671Y1632046D01*
X-108046Y1612671D01*
X-123269Y1589888D01*
X-133754Y1564574D01*
X-139100Y1537700D01*
X-139100Y1510300D01*
X-133754Y1483426D01*
X-123269Y1458111D01*
X-108046Y1435329D01*
X-88671Y1415954D01*
X-65889Y1400731D01*
X-56881Y1397000D01*
X-65889Y1393269D01*
X-88671Y1378046D01*
X-108046Y1358671D01*
X-123269Y1335889D01*
X-133754Y1310574D01*
X-139100Y1283700D01*
X-139100Y1256300D01*
X-133754Y1229426D01*
X-123269Y1204112D01*
X-108046Y1181329D01*
X-88671Y1161954D01*
X-65889Y1146731D01*
X-56881Y1143000D01*
X-65889Y1139269D01*
X-88671Y1124046D01*
X-108046Y1104671D01*
X-123269Y1081889D01*
X-133754Y1056574D01*
X-139100Y1029700D01*
X-139100Y1002300D01*
X-133754Y975426D01*
X-123269Y950111D01*
X-108046Y927329D01*
X-88671Y907954D01*
X-65889Y892731D01*
X-56881Y889000D01*
X-65889Y885269D01*
X-88671Y870046D01*
X-108046Y850671D01*
X-123269Y827888D01*
X-133754Y802574D01*
X-139100Y775700D01*
X-139100Y748300D01*
X-133754Y721426D01*
X-123269Y696112D01*
X-108046Y673329D01*
X-88671Y653954D01*
X-65889Y638731D01*
X-56881Y635000D01*
X-65889Y631269D01*
X-88671Y616046D01*
X-108046Y596671D01*
X-123269Y573889D01*
X-133754Y548574D01*
X-139100Y521700D01*
X-139100Y494300D01*
X-133754Y467426D01*
X-123269Y442111D01*
X-108046Y419329D01*
X-88671Y399954D01*
X-65889Y384731D01*
X-56881Y381000D01*
X-65889Y377269D01*
X-88671Y362046D01*
X-108046Y342671D01*
X-123269Y319889D01*
X-133754Y294574D01*
X-139100Y267700D01*
X-139100Y240300D01*
X-133754Y213426D01*
X-123269Y188111D01*
X-108046Y165329D01*
X-88671Y145954D01*
X-78685Y139281D01*
X-101600Y139281D01*
X-108951Y138557D01*
X-116020Y136413D01*
X-122535Y132931D01*
X-128245Y128245D01*
X-132931Y122535D01*
X-136413Y116020D01*
X-138557Y108951D01*
X-139281Y101600D01*
X-147000Y101600D01*
X-147000Y2211882D01*
X-140366Y2199469D01*
X-114017Y2189660D01*
X-17678Y2286000D01*
X17678Y2286000D01*
X114017Y2189660D01*
X140366Y2199469D01*
X154550Y2228516D01*
X157236Y2238699D01*
X158735Y2235080D01*
X170499Y2217473D01*
X185473Y2202499D01*
X203080Y2190735D01*
X222643Y2182631D01*
X243412Y2178500D01*
X264588Y2178500D01*
X285357Y2182631D01*
X304920Y2190735D01*
X322527Y2202499D01*
X337501Y2217473D01*
X349265Y2235080D01*
X357369Y2254643D01*
X361500Y2275412D01*
X361500Y2296588D01*
X357369Y2317357D01*
X349265Y2336920D01*
X337501Y2354527D01*
X322527Y2369501D01*
X304920Y2381265D01*
X302417Y2382302D01*
X519316Y2382302D01*
X523139Y2359891D01*
X531260Y2338656D01*
X543367Y2319414D01*
X558996Y2302903D01*
X577546Y2289758D01*
X598304Y2280485D01*
X604771Y2279544D01*
X622500Y2291914D01*
X622500Y2400500D01*
X535083Y2400500D01*
X519316Y2382302D01*
X302417Y2382302D01*
X285357Y2389369D01*
X264588Y2393500D01*
X243412Y2393500D01*
X222643Y2389369D01*
X203080Y2381265D01*
X185473Y2369501D01*
X170499Y2354527D01*
X158735Y2336920D01*
X157252Y2333340D01*
X149931Y2354636D01*
X140366Y2372531D01*
X114017Y2382340D01*
X17678Y2286000D01*
X-17678Y2286000D01*
X-114017Y2382340D01*
X-140366Y2372531D01*
X-147000Y2358944D01*
X-147000Y3227882D01*
X-140366Y3215469D01*
X-114017Y3205660D01*
X-17678Y3302000D01*
X17678Y3302000D01*
X114017Y3205660D01*
X137156Y3214275D01*
X139187Y3207580D01*
X142669Y3201065D01*
X147355Y3195355D01*
X153065Y3190669D01*
X159580Y3187187D01*
X166649Y3185043D01*
X174000Y3184319D01*
X334000Y3184319D01*
X341351Y3185043D01*
X348420Y3187187D01*
X354935Y3190669D01*
X360645Y3195355D01*
X365331Y3201065D01*
X368813Y3207580D01*
X370957Y3214649D01*
X371681Y3222000D01*
X371681Y3382000D01*
X370957Y3389351D01*
X368813Y3396420D01*
X365331Y3402935D01*
X360645Y3408645D01*
X354935Y3413331D01*
X348420Y3416813D01*
X341351Y3418957D01*
X334000Y3419681D01*
X174000Y3419681D01*
X166649Y3418957D01*
X159580Y3416813D01*
X153065Y3413331D01*
X147355Y3408645D01*
X142669Y3402935D01*
X139187Y3396420D01*
X137156Y3389725D01*
X114017Y3398340D01*
X17678Y3302000D01*
X-17678Y3302000D01*
X-114017Y3398340D01*
X-140366Y3388531D01*
X-147000Y3374944D01*
X-147000Y3569700D01*
X-139100Y3569700D01*
X-139100Y3542300D01*
X-133754Y3515426D01*
X-123269Y3490111D01*
X-108046Y3467329D01*
X-88671Y3447954D01*
X-83073Y3444214D01*
X-86531Y3442365D01*
X-96340Y3416017D01*
X0Y3319678D01*
X96340Y3416017D01*
X86531Y3442365D01*
X82935Y3444121D01*
X88671Y3447954D01*
X108046Y3467329D01*
X123269Y3490111D01*
X133754Y3515426D01*
X139100Y3542300D01*
X139100Y3569700D01*
X133754Y3596574D01*
X123269Y3621888D01*
X108046Y3644671D01*
X88671Y3664046D01*
X65889Y3679269D01*
X40574Y3689754D01*
X13700Y3695100D01*
X-13700Y3695100D01*
X-40574Y3689754D01*
X-65889Y3679269D01*
X-88671Y3664046D01*
X-108046Y3644671D01*
X-123269Y3621888D01*
X-133754Y3596574D01*
X-139100Y3569700D01*
X-147000Y3569700D01*
X-147000Y3957452D01*
X-117500Y3957452D01*
X-117500Y3918548D01*
X-109910Y3880391D01*
X-95022Y3844449D01*
X-73408Y3812101D01*
X-45899Y3784592D01*
X-13551Y3762978D01*
X22391Y3748090D01*
X60548Y3740500D01*
X99452Y3740500D01*
X137609Y3748090D01*
X173551Y3762978D01*
X205899Y3784592D01*
X233408Y3812101D01*
X241382Y3824035D01*
X302000Y3824035D01*
X302000Y3795965D01*
X307476Y3768434D01*
X318218Y3742501D01*
X333813Y3719161D01*
X353661Y3699313D01*
X377001Y3683718D01*
X382000Y3681647D01*
X382000Y3178069D01*
X381698Y3175000D01*
X382000Y3171931D01*
X382000Y3171930D01*
X382904Y3162748D01*
X386478Y3150967D01*
X392282Y3140109D01*
X400092Y3130592D01*
X402478Y3128634D01*
X525135Y3005977D01*
X527092Y3003592D01*
X529477Y3001635D01*
X536609Y2995782D01*
X536609Y2995782D01*
X547467Y2989978D01*
X559248Y2986404D01*
X568430Y2985500D01*
X568431Y2985500D01*
X571500Y2985198D01*
X574569Y2985500D01*
X1588500Y2985500D01*
X1588500Y2916941D01*
X1585869Y2915851D01*
X1563349Y2900803D01*
X1544197Y2881651D01*
X1529149Y2859131D01*
X1518784Y2834107D01*
X1513500Y2807543D01*
X1513500Y2780457D01*
X1518784Y2753893D01*
X1529149Y2728869D01*
X1544197Y2706349D01*
X1563349Y2687197D01*
X1585869Y2672149D01*
X1610893Y2661784D01*
X1637457Y2656500D01*
X1664543Y2656500D01*
X1691107Y2661784D01*
X1716131Y2672149D01*
X1738651Y2687197D01*
X1757803Y2706349D01*
X1772851Y2728869D01*
X1779000Y2743715D01*
X1779000Y2647500D01*
X1767412Y2647500D01*
X1746643Y2643369D01*
X1727080Y2635265D01*
X1709473Y2623501D01*
X1694499Y2608527D01*
X1682735Y2590920D01*
X1674631Y2571357D01*
X1670500Y2550588D01*
X1670500Y2529412D01*
X1674631Y2508643D01*
X1682735Y2489080D01*
X1694499Y2471473D01*
X1709473Y2456499D01*
X1727080Y2444735D01*
X1746643Y2436631D01*
X1767412Y2432500D01*
X1788588Y2432500D01*
X1809357Y2436631D01*
X1828920Y2444735D01*
X1846527Y2456499D01*
X1861501Y2471473D01*
X1873265Y2489080D01*
X1881369Y2508643D01*
X1885500Y2529412D01*
X1885500Y2550588D01*
X1884103Y2557611D01*
X1885908Y2559092D01*
X1887865Y2561477D01*
X1887865Y2561477D01*
X1893718Y2568609D01*
X1899522Y2579467D01*
X1899522Y2579467D01*
X1903096Y2591248D01*
X1904000Y2600430D01*
X1904000Y2600430D01*
X1904302Y2603500D01*
X1904000Y2606570D01*
X1904000Y3229396D01*
X1905751Y3225726D01*
X1923058Y3202562D01*
X1944550Y3183219D01*
X1969404Y3168441D01*
X1987339Y3162094D01*
X1973974Y3156558D01*
X1953911Y3143152D01*
X1936848Y3126089D01*
X1923442Y3106025D01*
X1914208Y3083732D01*
X1909500Y3060065D01*
X1909500Y3035935D01*
X1914208Y3012268D01*
X1923442Y2989974D01*
X1936848Y2969911D01*
X1953911Y2952848D01*
X1973974Y2939442D01*
X1996268Y2930208D01*
X2019935Y2925500D01*
X2044065Y2925500D01*
X2067732Y2930208D01*
X2090025Y2939442D01*
X2110089Y2952848D01*
X2127152Y2969911D01*
X2137568Y2985500D01*
X2161328Y2985500D01*
X2162731Y2982111D01*
X2177954Y2959329D01*
X2197329Y2939954D01*
X2220112Y2924731D01*
X2229119Y2921000D01*
X2220112Y2917269D01*
X2197329Y2902046D01*
X2177954Y2882671D01*
X2162731Y2859888D01*
X2161328Y2856500D01*
X2137568Y2856500D01*
X2127152Y2872089D01*
X2110089Y2889152D01*
X2090025Y2902558D01*
X2067732Y2911792D01*
X2044065Y2916500D01*
X2019935Y2916500D01*
X1996268Y2911792D01*
X1973974Y2902558D01*
X1953911Y2889152D01*
X1936848Y2872089D01*
X1923442Y2852025D01*
X1914208Y2829732D01*
X1909500Y2806065D01*
X1909500Y2781935D01*
X1914208Y2758268D01*
X1923442Y2735975D01*
X1936848Y2715911D01*
X1953911Y2698848D01*
X1973974Y2685442D01*
X1996268Y2676208D01*
X2019935Y2671500D01*
X2044065Y2671500D01*
X2067732Y2676208D01*
X2090025Y2685442D01*
X2110089Y2698848D01*
X2127152Y2715911D01*
X2137568Y2731500D01*
X2161328Y2731500D01*
X2162731Y2728112D01*
X2177954Y2705329D01*
X2197329Y2685954D01*
X2220112Y2670731D01*
X2229119Y2667000D01*
X2220112Y2663269D01*
X2197329Y2648046D01*
X2177954Y2628671D01*
X2162731Y2605889D01*
X2152246Y2580574D01*
X2146900Y2553700D01*
X2146900Y2526300D01*
X2152246Y2499426D01*
X2162731Y2474112D01*
X2177954Y2451329D01*
X2197329Y2431954D01*
X2220112Y2416731D01*
X2229119Y2413000D01*
X2220112Y2409269D01*
X2197329Y2394046D01*
X2177954Y2374671D01*
X2162731Y2351889D01*
X2152246Y2326574D01*
X2146900Y2299700D01*
X2146900Y2272300D01*
X2152246Y2245426D01*
X2162731Y2220112D01*
X2177954Y2197329D01*
X2197329Y2177954D01*
X2220112Y2162731D01*
X2229119Y2159000D01*
X2220112Y2155269D01*
X2197329Y2140046D01*
X2177954Y2120671D01*
X2162731Y2097889D01*
X2152246Y2072574D01*
X2146900Y2045700D01*
X2146900Y2018300D01*
X2152246Y1991426D01*
X2162731Y1966111D01*
X2177954Y1943329D01*
X2197329Y1923954D01*
X2220112Y1908731D01*
X2229119Y1905000D01*
X2220112Y1901269D01*
X2197329Y1886046D01*
X2177954Y1866671D01*
X2162731Y1843888D01*
X2152246Y1818574D01*
X2146900Y1791700D01*
X2146900Y1764300D01*
X2152246Y1737426D01*
X2162731Y1712111D01*
X2177954Y1689329D01*
X2197329Y1669954D01*
X2202927Y1666214D01*
X2199469Y1664365D01*
X2189660Y1638017D01*
X2286000Y1541678D01*
X2382340Y1638017D01*
X2372531Y1664365D01*
X2368935Y1666121D01*
X2374671Y1669954D01*
X2394046Y1689329D01*
X2409269Y1712111D01*
X2419754Y1737426D01*
X2425100Y1764300D01*
X2425100Y1791700D01*
X2419754Y1818574D01*
X2409269Y1843888D01*
X2394046Y1866671D01*
X2374671Y1886046D01*
X2351889Y1901269D01*
X2342881Y1905000D01*
X2351889Y1908731D01*
X2374671Y1923954D01*
X2394046Y1943329D01*
X2409269Y1966111D01*
X2419754Y1991426D01*
X2425100Y2018300D01*
X2425100Y2045700D01*
X2419754Y2072574D01*
X2409269Y2097889D01*
X2394046Y2120671D01*
X2374671Y2140046D01*
X2351889Y2155269D01*
X2342881Y2159000D01*
X2351889Y2162731D01*
X2374671Y2177954D01*
X2394046Y2197329D01*
X2409269Y2220112D01*
X2419754Y2245426D01*
X2425100Y2272300D01*
X2425100Y2299700D01*
X2419754Y2326574D01*
X2409269Y2351889D01*
X2394046Y2374671D01*
X2374671Y2394046D01*
X2351889Y2409269D01*
X2342881Y2413000D01*
X2351889Y2416731D01*
X2374671Y2431954D01*
X2394046Y2451329D01*
X2409269Y2474112D01*
X2419754Y2499426D01*
X2425100Y2526300D01*
X2425100Y2553700D01*
X2419754Y2580574D01*
X2409269Y2605889D01*
X2394046Y2628671D01*
X2374671Y2648046D01*
X2351889Y2663269D01*
X2342881Y2667000D01*
X2351889Y2670731D01*
X2374671Y2685954D01*
X2394046Y2705329D01*
X2409269Y2728112D01*
X2419754Y2753426D01*
X2425100Y2780300D01*
X2425100Y2807700D01*
X2419754Y2834574D01*
X2409269Y2859888D01*
X2394046Y2882671D01*
X2374671Y2902046D01*
X2351889Y2917269D01*
X2342881Y2921000D01*
X2351889Y2924731D01*
X2374671Y2939954D01*
X2394046Y2959329D01*
X2409269Y2982111D01*
X2419754Y3007426D01*
X2425100Y3034300D01*
X2425100Y3061700D01*
X2419754Y3088574D01*
X2409269Y3113888D01*
X2394046Y3136671D01*
X2374671Y3156046D01*
X2369073Y3159786D01*
X2372531Y3161634D01*
X2382340Y3187983D01*
X2286000Y3284322D01*
X2189660Y3187983D01*
X2199469Y3161634D01*
X2203065Y3159879D01*
X2197329Y3156046D01*
X2177954Y3136671D01*
X2162731Y3113888D01*
X2161328Y3110500D01*
X2137568Y3110500D01*
X2127152Y3126089D01*
X2110089Y3143152D01*
X2090025Y3156558D01*
X2076660Y3162094D01*
X2094596Y3168441D01*
X2119450Y3183219D01*
X2140942Y3202562D01*
X2149508Y3214027D01*
X2171983Y3205660D01*
X2268322Y3302000D01*
X2171983Y3398340D01*
X2149508Y3389973D01*
X2140942Y3401438D01*
X2119450Y3420781D01*
X2098365Y3433319D01*
X2117000Y3433319D01*
X2124351Y3434043D01*
X2131420Y3436187D01*
X2137935Y3439669D01*
X2143645Y3444355D01*
X2148331Y3450065D01*
X2151813Y3456580D01*
X2153957Y3463649D01*
X2154681Y3471000D01*
X2154681Y3509545D01*
X2162731Y3490111D01*
X2177954Y3467329D01*
X2197329Y3447954D01*
X2202927Y3444214D01*
X2199469Y3442365D01*
X2189660Y3416017D01*
X2286000Y3319678D01*
X2382340Y3416017D01*
X2372531Y3442365D01*
X2368935Y3444121D01*
X2374671Y3447954D01*
X2394046Y3467329D01*
X2409269Y3490111D01*
X2419754Y3515426D01*
X2425100Y3542300D01*
X2425100Y3569700D01*
X2419754Y3596574D01*
X2409269Y3621888D01*
X2394046Y3644671D01*
X2374671Y3664046D01*
X2351889Y3679269D01*
X2326574Y3689754D01*
X2299700Y3695100D01*
X2272300Y3695100D01*
X2245426Y3689754D01*
X2220112Y3679269D01*
X2197329Y3664046D01*
X2177954Y3644671D01*
X2162731Y3621888D01*
X2154681Y3602454D01*
X2154681Y3641000D01*
X2153957Y3648351D01*
X2151813Y3655420D01*
X2148331Y3661935D01*
X2143645Y3667645D01*
X2137935Y3672331D01*
X2131420Y3675813D01*
X2124351Y3677957D01*
X2117000Y3678681D01*
X1947000Y3678681D01*
X1939649Y3677957D01*
X1932580Y3675813D01*
X1926065Y3672331D01*
X1920355Y3667645D01*
X1915669Y3661935D01*
X1912187Y3655420D01*
X1910043Y3648351D01*
X1909319Y3641000D01*
X1909319Y3471000D01*
X1910043Y3463649D01*
X1912187Y3456580D01*
X1915669Y3450065D01*
X1920355Y3444355D01*
X1926065Y3439669D01*
X1932580Y3436187D01*
X1939649Y3434043D01*
X1947000Y3433319D01*
X1965635Y3433319D01*
X1944550Y3420781D01*
X1923058Y3401438D01*
X1905751Y3378274D01*
X1904000Y3374604D01*
X1904000Y3682319D01*
X1931500Y3682319D01*
X1938851Y3683043D01*
X1945920Y3685187D01*
X1952435Y3688669D01*
X1958145Y3693355D01*
X1962831Y3699065D01*
X1966313Y3705580D01*
X1968457Y3712649D01*
X1969181Y3720000D01*
X1969181Y3900000D01*
X1968457Y3907351D01*
X1966313Y3914420D01*
X1962831Y3920935D01*
X1958145Y3926645D01*
X1952435Y3931331D01*
X1945920Y3934813D01*
X1938851Y3936957D01*
X1931500Y3937681D01*
X1751500Y3937681D01*
X1744149Y3936957D01*
X1737080Y3934813D01*
X1730565Y3931331D01*
X1724855Y3926645D01*
X1720169Y3920935D01*
X1716687Y3914420D01*
X1714543Y3907351D01*
X1713819Y3900000D01*
X1713819Y3828497D01*
X1710100Y3847190D01*
X1700489Y3870394D01*
X1686536Y3891276D01*
X1668776Y3909036D01*
X1647894Y3922989D01*
X1624690Y3932600D01*
X1600058Y3937500D01*
X1574942Y3937500D01*
X1550310Y3932600D01*
X1527106Y3922989D01*
X1506223Y3909036D01*
X1488464Y3891276D01*
X1474511Y3870394D01*
X1464900Y3847190D01*
X1460000Y3822558D01*
X1460000Y3797442D01*
X1464900Y3772810D01*
X1474511Y3749606D01*
X1488464Y3728723D01*
X1506223Y3710964D01*
X1527106Y3697011D01*
X1550310Y3687400D01*
X1574942Y3682500D01*
X1600058Y3682500D01*
X1624690Y3687400D01*
X1647894Y3697011D01*
X1668776Y3710964D01*
X1686536Y3728723D01*
X1700489Y3749606D01*
X1710100Y3772810D01*
X1713819Y3791503D01*
X1713819Y3720000D01*
X1714543Y3712649D01*
X1716687Y3705580D01*
X1720169Y3699065D01*
X1724855Y3693355D01*
X1730565Y3688669D01*
X1737080Y3685187D01*
X1744149Y3683043D01*
X1751500Y3682319D01*
X1779000Y3682319D01*
X1779000Y3352285D01*
X1772851Y3367131D01*
X1757803Y3389651D01*
X1738651Y3408803D01*
X1716131Y3423851D01*
X1691107Y3434216D01*
X1664543Y3439500D01*
X1637457Y3439500D01*
X1610893Y3434216D01*
X1585869Y3423851D01*
X1563349Y3408803D01*
X1544197Y3389651D01*
X1529149Y3367131D01*
X1518784Y3342107D01*
X1513500Y3315543D01*
X1513500Y3288457D01*
X1518784Y3261893D01*
X1529149Y3236869D01*
X1544197Y3214349D01*
X1563349Y3195197D01*
X1585869Y3180149D01*
X1588500Y3179059D01*
X1588500Y3110500D01*
X597388Y3110500D01*
X507000Y3200888D01*
X507000Y3251715D01*
X513149Y3236869D01*
X528197Y3214349D01*
X547349Y3195197D01*
X569869Y3180149D01*
X594893Y3169784D01*
X621457Y3164500D01*
X648543Y3164500D01*
X675107Y3169784D01*
X700131Y3180149D01*
X722651Y3195197D01*
X741803Y3214349D01*
X756851Y3236869D01*
X762000Y3249300D01*
X767149Y3236869D01*
X782197Y3214349D01*
X801349Y3195197D01*
X823869Y3180149D01*
X848893Y3169784D01*
X875457Y3164500D01*
X902543Y3164500D01*
X929107Y3169784D01*
X954131Y3180149D01*
X976651Y3195197D01*
X995803Y3214349D01*
X1010851Y3236869D01*
X1021216Y3261893D01*
X1026500Y3288457D01*
X1026500Y3315543D01*
X1021216Y3342107D01*
X1010851Y3367131D01*
X995803Y3389651D01*
X976651Y3408803D01*
X954131Y3423851D01*
X929107Y3434216D01*
X902543Y3439500D01*
X875457Y3439500D01*
X848893Y3434216D01*
X823869Y3423851D01*
X801349Y3408803D01*
X782197Y3389651D01*
X767149Y3367131D01*
X762000Y3354700D01*
X756851Y3367131D01*
X741803Y3389651D01*
X722651Y3408803D01*
X700131Y3423851D01*
X697500Y3424941D01*
X697500Y3466612D01*
X740523Y3509635D01*
X742908Y3511592D01*
X744865Y3513976D01*
X744865Y3513977D01*
X750718Y3521109D01*
X756522Y3531966D01*
X756522Y3531967D01*
X760096Y3543748D01*
X761000Y3552930D01*
X761000Y3552930D01*
X761302Y3556000D01*
X761000Y3559070D01*
X761000Y3681647D01*
X765999Y3683718D01*
X789338Y3699313D01*
X809187Y3719161D01*
X824782Y3742501D01*
X825500Y3744235D01*
X826218Y3742501D01*
X841813Y3719161D01*
X861661Y3699313D01*
X885001Y3683718D01*
X910934Y3672976D01*
X938465Y3667500D01*
X966535Y3667500D01*
X994066Y3672976D01*
X1019999Y3683718D01*
X1039510Y3696755D01*
X1039904Y3692748D01*
X1043478Y3680967D01*
X1049282Y3670109D01*
X1057092Y3660592D01*
X1066609Y3652782D01*
X1077467Y3646978D01*
X1089248Y3643404D01*
X1101500Y3642198D01*
X1178375Y3642500D01*
X1194000Y3658125D01*
X1194000Y3797500D01*
X1219000Y3797500D01*
X1219000Y3658125D01*
X1234625Y3642500D01*
X1311500Y3642198D01*
X1323752Y3643404D01*
X1335533Y3646978D01*
X1346391Y3652782D01*
X1355908Y3660592D01*
X1363718Y3670109D01*
X1369522Y3680967D01*
X1373096Y3692748D01*
X1374302Y3705000D01*
X1374000Y3781875D01*
X1358375Y3797500D01*
X1219000Y3797500D01*
X1194000Y3797500D01*
X1192000Y3797500D01*
X1192000Y3822500D01*
X1194000Y3822500D01*
X1194000Y3961875D01*
X1219000Y3961875D01*
X1219000Y3822500D01*
X1358375Y3822500D01*
X1374000Y3838125D01*
X1374302Y3915000D01*
X1373096Y3927252D01*
X1369522Y3939033D01*
X1363718Y3949891D01*
X1357513Y3957452D01*
X2002500Y3957452D01*
X2002500Y3918548D01*
X2010090Y3880391D01*
X2024978Y3844449D01*
X2046592Y3812101D01*
X2074101Y3784592D01*
X2106449Y3762978D01*
X2142391Y3748090D01*
X2180548Y3740500D01*
X2219452Y3740500D01*
X2257609Y3748090D01*
X2293551Y3762978D01*
X2325899Y3784592D01*
X2353408Y3812101D01*
X2375022Y3844449D01*
X2389910Y3880391D01*
X2397500Y3918548D01*
X2397500Y3957452D01*
X2389910Y3995609D01*
X2375022Y4031551D01*
X2353408Y4063899D01*
X2325899Y4091408D01*
X2293551Y4113022D01*
X2257609Y4127910D01*
X2219452Y4135500D01*
X2180548Y4135500D01*
X2142391Y4127910D01*
X2106449Y4113022D01*
X2074101Y4091408D01*
X2046592Y4063899D01*
X2024978Y4031551D01*
X2010090Y3995609D01*
X2002500Y3957452D01*
X1357513Y3957452D01*
X1355908Y3959408D01*
X1346391Y3967218D01*
X1335533Y3973022D01*
X1323752Y3976596D01*
X1311500Y3977802D01*
X1234625Y3977500D01*
X1219000Y3961875D01*
X1194000Y3961875D01*
X1178375Y3977500D01*
X1101500Y3977802D01*
X1089248Y3976596D01*
X1077467Y3973022D01*
X1066609Y3967218D01*
X1057092Y3959408D01*
X1049282Y3949891D01*
X1043478Y3939033D01*
X1039904Y3927252D01*
X1039510Y3923245D01*
X1019999Y3936282D01*
X994066Y3947024D01*
X966535Y3952500D01*
X938465Y3952500D01*
X910934Y3947024D01*
X885001Y3936282D01*
X861661Y3920687D01*
X841813Y3900838D01*
X826218Y3877499D01*
X825500Y3875765D01*
X824782Y3877499D01*
X809187Y3900838D01*
X789338Y3920687D01*
X765999Y3936282D01*
X740066Y3947024D01*
X712535Y3952500D01*
X684465Y3952500D01*
X656934Y3947024D01*
X631001Y3936282D01*
X607662Y3920687D01*
X587813Y3900838D01*
X572218Y3877499D01*
X571500Y3875765D01*
X570782Y3877499D01*
X555187Y3900838D01*
X535339Y3920687D01*
X511999Y3936282D01*
X486066Y3947024D01*
X458535Y3952500D01*
X430465Y3952500D01*
X402934Y3947024D01*
X377001Y3936282D01*
X353661Y3920687D01*
X333813Y3900838D01*
X318218Y3877499D01*
X307476Y3851566D01*
X302000Y3824035D01*
X241382Y3824035D01*
X255022Y3844449D01*
X269910Y3880391D01*
X277500Y3918548D01*
X277500Y3957452D01*
X269910Y3995609D01*
X255022Y4031551D01*
X233408Y4063899D01*
X205899Y4091408D01*
X173551Y4113022D01*
X137609Y4127910D01*
X99452Y4135500D01*
X60548Y4135500D01*
X22391Y4127910D01*
X-13551Y4113022D01*
X-45899Y4091408D01*
X-73408Y4063899D01*
X-95022Y4031551D01*
X-109910Y3995609D01*
X-117500Y3957452D01*
X-147000Y3957452D01*
X-147000Y4061383D01*
X-145205Y4079689D01*
X-140507Y4095251D01*
X-132875Y4109604D01*
X-122601Y4122201D01*
X-110076Y4132563D01*
X-95777Y4140294D01*
X-80248Y4145101D01*
X-62077Y4147011D01*
X2347372Y4147011D01*
X2365678Y4145216D01*
G37*
X2365678Y4145216D02*
X2381240Y4140518D01*
X2395593Y4132886D01*
X2408190Y4122612D01*
X2418552Y4110087D01*
X2426283Y4095788D01*
X2431090Y4080259D01*
X2433000Y4062088D01*
X2433000Y3376118D01*
X2426366Y3388531D01*
X2400017Y3398340D01*
X2303678Y3302000D01*
X2400017Y3205660D01*
X2426366Y3215469D01*
X2433000Y3229056D01*
X2433000Y1598118D01*
X2426366Y1610531D01*
X2400017Y1620340D01*
X2303678Y1524000D01*
X2400017Y1427660D01*
X2426366Y1437469D01*
X2433000Y1451056D01*
X2433000Y-569372D01*
X2431205Y-587678D01*
X2426507Y-603240D01*
X2418875Y-617593D01*
X2408601Y-630190D01*
X2396076Y-640552D01*
X2381777Y-648283D01*
X2366248Y-653090D01*
X2348078Y-655000D01*
X1719388Y-655000D01*
X2012277Y-362111D01*
X2010090Y-367391D01*
X2002500Y-405548D01*
X2002500Y-444452D01*
X2010090Y-482609D01*
X2024978Y-518551D01*
X2046592Y-550899D01*
X2074101Y-578408D01*
X2106449Y-600022D01*
X2142391Y-614910D01*
X2180548Y-622500D01*
X2219452Y-622500D01*
X2257609Y-614910D01*
X2293551Y-600022D01*
X2325899Y-578408D01*
X2353408Y-550899D01*
X2375022Y-518551D01*
X2389910Y-482609D01*
X2397500Y-444452D01*
X2397500Y-405548D01*
X2389910Y-367391D01*
X2375022Y-331449D01*
X2353408Y-299101D01*
X2325899Y-271592D01*
X2293551Y-249978D01*
X2257609Y-235090D01*
X2219452Y-227500D01*
X2180548Y-227500D01*
X2142391Y-235090D01*
X2137111Y-237277D01*
X2242038Y-132351D01*
X2245426Y-133754D01*
X2272300Y-139100D01*
X2299700Y-139100D01*
X2326574Y-133754D01*
X2351889Y-123269D01*
X2374671Y-108046D01*
X2394046Y-88671D01*
X2409269Y-65889D01*
X2419754Y-40574D01*
X2425100Y-13700D01*
X2425100Y13700D01*
X2419754Y40574D01*
X2409269Y65889D01*
X2394046Y88671D01*
X2374671Y108046D01*
X2351889Y123269D01*
X2342881Y127000D01*
X2351889Y130731D01*
X2374671Y145954D01*
X2394046Y165329D01*
X2409269Y188111D01*
X2419754Y213426D01*
X2425100Y240300D01*
X2425100Y267700D01*
X2419754Y294574D01*
X2409269Y319889D01*
X2394046Y342671D01*
X2374671Y362046D01*
X2351889Y377269D01*
X2342881Y381000D01*
X2351889Y384731D01*
X2374671Y399954D01*
X2394046Y419329D01*
X2409269Y442111D01*
X2419754Y467426D01*
X2425100Y494300D01*
X2425100Y521700D01*
X2419754Y548574D01*
X2409269Y573889D01*
X2394046Y596671D01*
X2374671Y616046D01*
X2351889Y631269D01*
X2342881Y635000D01*
X2351889Y638731D01*
X2374671Y653954D01*
X2394046Y673329D01*
X2409269Y696112D01*
X2419754Y721426D01*
X2425100Y748300D01*
X2425100Y775700D01*
X2419754Y802574D01*
X2409269Y827888D01*
X2394046Y850671D01*
X2374671Y870046D01*
X2351889Y885269D01*
X2342881Y889000D01*
X2351889Y892731D01*
X2374671Y907954D01*
X2394046Y927329D01*
X2409269Y950111D01*
X2419754Y975426D01*
X2425100Y1002300D01*
X2425100Y1029700D01*
X2419754Y1056574D01*
X2409269Y1081889D01*
X2394046Y1104671D01*
X2374671Y1124046D01*
X2351889Y1139269D01*
X2342881Y1143000D01*
X2351889Y1146731D01*
X2374671Y1161954D01*
X2394046Y1181329D01*
X2409269Y1204112D01*
X2419754Y1229426D01*
X2425100Y1256300D01*
X2425100Y1283700D01*
X2419754Y1310574D01*
X2409269Y1335889D01*
X2394046Y1358671D01*
X2374671Y1378046D01*
X2369073Y1381786D01*
X2372531Y1383635D01*
X2382340Y1409983D01*
X2286000Y1506322D01*
X2189660Y1409983D01*
X2199469Y1383635D01*
X2203065Y1381879D01*
X2197329Y1378046D01*
X2177954Y1358671D01*
X2162731Y1335889D01*
X2152246Y1310574D01*
X2146900Y1283700D01*
X2146900Y1256300D01*
X2152246Y1229426D01*
X2162731Y1204112D01*
X2177954Y1181329D01*
X2197329Y1161954D01*
X2220112Y1146731D01*
X2229119Y1143000D01*
X2220112Y1139269D01*
X2197329Y1124046D01*
X2177954Y1104671D01*
X2162731Y1081889D01*
X2152246Y1056574D01*
X2146900Y1029700D01*
X2146900Y1002300D01*
X2150081Y986307D01*
X1703852Y1432536D01*
X1958214Y1432536D01*
X1964200Y1409415D01*
X1987857Y1398390D01*
X2013211Y1392191D01*
X2039286Y1391058D01*
X2065082Y1395034D01*
X2089606Y1403966D01*
X2099800Y1409415D01*
X2105786Y1432536D01*
X2032000Y1506322D01*
X1958214Y1432536D01*
X1703852Y1432536D01*
X1619675Y1516714D01*
X1899058Y1516714D01*
X1903034Y1490918D01*
X1911966Y1466394D01*
X1917415Y1456200D01*
X1940536Y1450214D01*
X2014322Y1524000D01*
X2049678Y1524000D01*
X2123464Y1450214D01*
X2136955Y1453707D01*
X2145635Y1437469D01*
X2171983Y1427660D01*
X2268322Y1524000D01*
X2171983Y1620340D01*
X2145635Y1610531D01*
X2137621Y1594121D01*
X2123464Y1597786D01*
X2049678Y1524000D01*
X2014322Y1524000D01*
X1940536Y1597786D01*
X1917415Y1591800D01*
X1906390Y1568143D01*
X1900191Y1542789D01*
X1899058Y1516714D01*
X1619675Y1516714D01*
X1520924Y1615464D01*
X1958214Y1615464D01*
X2032000Y1541678D01*
X2105786Y1615464D01*
X2099800Y1638585D01*
X2076143Y1649610D01*
X2050789Y1655809D01*
X2024714Y1656942D01*
X1998918Y1652966D01*
X1974394Y1644034D01*
X1964200Y1638585D01*
X1958214Y1615464D01*
X1520924Y1615464D01*
X1396000Y1740388D01*
X1396000Y1820230D01*
X1396080Y1820187D01*
X1403149Y1818043D01*
X1410500Y1817319D01*
X1510500Y1817319D01*
X1517851Y1818043D01*
X1524920Y1820187D01*
X1531435Y1823669D01*
X1537145Y1828355D01*
X1541831Y1834065D01*
X1545313Y1840580D01*
X1547457Y1847649D01*
X1548181Y1855000D01*
X1548181Y1955000D01*
X1547457Y1962351D01*
X1545313Y1969420D01*
X1541831Y1975935D01*
X1537145Y1981645D01*
X1531435Y1986331D01*
X1524920Y1989813D01*
X1517851Y1991957D01*
X1510500Y1992681D01*
X1410500Y1992681D01*
X1403149Y1991957D01*
X1396080Y1989813D01*
X1396000Y1989770D01*
X1396000Y2302453D01*
X1400649Y2301043D01*
X1408000Y2300319D01*
X1513000Y2300319D01*
X1520351Y2301043D01*
X1527420Y2303187D01*
X1533935Y2306669D01*
X1539645Y2311355D01*
X1544331Y2317065D01*
X1547813Y2323580D01*
X1549957Y2330649D01*
X1550681Y2338000D01*
X1550681Y2350500D01*
X1561612Y2350500D01*
X1715500Y2196612D01*
X1715500Y1865528D01*
X1709473Y1861501D01*
X1694499Y1846527D01*
X1682735Y1828920D01*
X1674631Y1809357D01*
X1670500Y1788588D01*
X1670500Y1767412D01*
X1674631Y1746643D01*
X1682735Y1727080D01*
X1694499Y1709473D01*
X1709473Y1694499D01*
X1727080Y1682735D01*
X1746643Y1674631D01*
X1767412Y1670500D01*
X1788588Y1670500D01*
X1809357Y1674631D01*
X1828920Y1682735D01*
X1846527Y1694499D01*
X1861501Y1709473D01*
X1873265Y1727080D01*
X1881369Y1746643D01*
X1885500Y1767412D01*
X1885500Y1788588D01*
X1881369Y1809357D01*
X1873265Y1828920D01*
X1861501Y1846527D01*
X1846527Y1861501D01*
X1840500Y1865528D01*
X1840500Y2219430D01*
X1840802Y2222500D01*
X1840500Y2225570D01*
X1839596Y2234752D01*
X1836022Y2246533D01*
X1830218Y2257391D01*
X1822408Y2266908D01*
X1820023Y2268865D01*
X1633866Y2455022D01*
X1631908Y2457408D01*
X1622391Y2465218D01*
X1611533Y2471022D01*
X1599752Y2474596D01*
X1590570Y2475500D01*
X1590569Y2475500D01*
X1587500Y2475802D01*
X1584431Y2475500D01*
X1550681Y2475500D01*
X1550681Y2488000D01*
X1549957Y2495351D01*
X1547813Y2502420D01*
X1544331Y2508935D01*
X1539645Y2514645D01*
X1533935Y2519331D01*
X1527420Y2522813D01*
X1520351Y2524957D01*
X1513000Y2525681D01*
X1408000Y2525681D01*
X1400649Y2524957D01*
X1393580Y2522813D01*
X1387065Y2519331D01*
X1381355Y2514645D01*
X1379830Y2512786D01*
X1368108Y2519051D01*
X1351143Y2524198D01*
X1333500Y2525935D01*
X1315857Y2524198D01*
X1298892Y2519051D01*
X1290553Y2514594D01*
X1282504Y2523097D01*
X1263954Y2536242D01*
X1243196Y2545515D01*
X1236730Y2546456D01*
X1219000Y2534086D01*
X1219000Y2425500D01*
X1221000Y2425500D01*
X1221000Y2400500D01*
X1219000Y2400500D01*
X1219000Y2291914D01*
X1236730Y2279544D01*
X1243196Y2280485D01*
X1263954Y2289758D01*
X1271000Y2294751D01*
X1271000Y1964244D01*
X1262278Y1972966D01*
X1247947Y1982541D01*
X1232023Y1989137D01*
X1215118Y1992500D01*
X1197882Y1992500D01*
X1180977Y1989137D01*
X1165053Y1982541D01*
X1150722Y1972966D01*
X1138534Y1960778D01*
X1128959Y1946447D01*
X1122363Y1930523D01*
X1119000Y1913618D01*
X1119000Y1896382D01*
X1122363Y1879477D01*
X1128959Y1863553D01*
X1138534Y1849222D01*
X1144000Y1843756D01*
X1144000Y1336570D01*
X1143698Y1333500D01*
X1144000Y1330430D01*
X1144904Y1321248D01*
X1148478Y1309467D01*
X1154282Y1298609D01*
X1162092Y1289092D01*
X1164477Y1287135D01*
X1985635Y465977D01*
X1987592Y463592D01*
X1997109Y455782D01*
X2007967Y449978D01*
X2019748Y446404D01*
X2028930Y445500D01*
X2028931Y445500D01*
X2032000Y445198D01*
X2035069Y445500D01*
X2161328Y445500D01*
X2162731Y442111D01*
X2177954Y419329D01*
X2197329Y399954D01*
X2220112Y384731D01*
X2229119Y381000D01*
X2220112Y377269D01*
X2197329Y362046D01*
X2177954Y342671D01*
X2162731Y319889D01*
X2161328Y316500D01*
X1867388Y316500D01*
X888000Y1295888D01*
X888000Y1845756D01*
X896722Y1837034D01*
X911053Y1827458D01*
X926977Y1820863D01*
X943882Y1817500D01*
X961118Y1817500D01*
X978023Y1820863D01*
X993947Y1827458D01*
X1008278Y1837034D01*
X1020466Y1849222D01*
X1030041Y1863553D01*
X1036637Y1879477D01*
X1040000Y1896382D01*
X1040000Y1913618D01*
X1036637Y1930523D01*
X1030041Y1946447D01*
X1020466Y1960778D01*
X1008278Y1972966D01*
X993947Y1982541D01*
X978023Y1989137D01*
X961118Y1992500D01*
X943882Y1992500D01*
X926977Y1989137D01*
X911053Y1982541D01*
X896722Y1972966D01*
X888000Y1964244D01*
X888000Y2092430D01*
X888302Y2095500D01*
X888000Y2098570D01*
X887096Y2107752D01*
X883522Y2119533D01*
X880300Y2125560D01*
X877718Y2130391D01*
X871865Y2137523D01*
X871865Y2137524D01*
X869908Y2139908D01*
X867523Y2141865D01*
X824500Y2184888D01*
X824500Y2302453D01*
X829149Y2301043D01*
X836500Y2300319D01*
X941500Y2300319D01*
X948851Y2301043D01*
X955920Y2303187D01*
X962435Y2306669D01*
X968145Y2311355D01*
X972831Y2317065D01*
X976313Y2323580D01*
X978457Y2330649D01*
X979181Y2338000D01*
X979181Y2382302D01*
X1090817Y2382302D01*
X1094639Y2359891D01*
X1102760Y2338656D01*
X1114867Y2319414D01*
X1130496Y2302903D01*
X1149046Y2289758D01*
X1169804Y2280485D01*
X1176271Y2279544D01*
X1194000Y2291914D01*
X1194000Y2400500D01*
X1106583Y2400500D01*
X1090817Y2382302D01*
X979181Y2382302D01*
X979181Y2443698D01*
X1090817Y2443698D01*
X1106583Y2425500D01*
X1194000Y2425500D01*
X1194000Y2534086D01*
X1176271Y2546456D01*
X1169804Y2545515D01*
X1149046Y2536242D01*
X1130496Y2523097D01*
X1114867Y2506587D01*
X1102760Y2487344D01*
X1094639Y2466109D01*
X1090817Y2443698D01*
X979181Y2443698D01*
X979181Y2488000D01*
X978457Y2495351D01*
X976313Y2502420D01*
X972831Y2508935D01*
X968145Y2514645D01*
X962435Y2519331D01*
X955920Y2522813D01*
X951500Y2524154D01*
X951500Y2600430D01*
X951802Y2603500D01*
X951500Y2606570D01*
X951500Y2671059D01*
X954131Y2672149D01*
X976651Y2687197D01*
X995803Y2706349D01*
X1010851Y2728869D01*
X1021216Y2753893D01*
X1026500Y2780457D01*
X1026500Y2807543D01*
X1021216Y2834107D01*
X1010851Y2859131D01*
X995803Y2881651D01*
X976651Y2900803D01*
X954131Y2915851D01*
X929107Y2926216D01*
X902543Y2931500D01*
X875457Y2931500D01*
X848893Y2926216D01*
X823869Y2915851D01*
X801349Y2900803D01*
X782197Y2881651D01*
X772681Y2867410D01*
X772681Y2894000D01*
X771957Y2901351D01*
X769813Y2908420D01*
X766331Y2914935D01*
X761645Y2920645D01*
X755935Y2925331D01*
X749420Y2928813D01*
X742351Y2930957D01*
X735000Y2931681D01*
X535000Y2931681D01*
X527649Y2930957D01*
X520580Y2928813D01*
X514065Y2925331D01*
X508355Y2920645D01*
X503669Y2914935D01*
X500187Y2908420D01*
X498043Y2901351D01*
X497319Y2894000D01*
X497319Y2694000D01*
X498043Y2686649D01*
X500187Y2679580D01*
X503669Y2673065D01*
X508355Y2667355D01*
X509861Y2666119D01*
X508000Y2666302D01*
X504930Y2666000D01*
X504930Y2666000D01*
X495748Y2665096D01*
X483967Y2661522D01*
X479598Y2659187D01*
X473109Y2655718D01*
X465977Y2649865D01*
X465976Y2649865D01*
X463592Y2647908D01*
X461635Y2645523D01*
X418612Y2602500D01*
X353555Y2602500D01*
X345268Y2614902D01*
X328902Y2631268D01*
X309657Y2644127D01*
X288274Y2652985D01*
X265573Y2657500D01*
X242427Y2657500D01*
X219726Y2652985D01*
X198343Y2644127D01*
X179098Y2631268D01*
X162732Y2614902D01*
X149873Y2595657D01*
X141016Y2574274D01*
X138012Y2559172D01*
X133754Y2580574D01*
X123269Y2605889D01*
X108046Y2628671D01*
X88671Y2648046D01*
X65889Y2663269D01*
X56881Y2667000D01*
X65889Y2670731D01*
X88671Y2685954D01*
X108046Y2705329D01*
X123269Y2728112D01*
X133754Y2753426D01*
X139100Y2780300D01*
X139100Y2807700D01*
X133754Y2834574D01*
X123269Y2859888D01*
X108046Y2882671D01*
X88671Y2902046D01*
X65889Y2917269D01*
X56881Y2921000D01*
X65889Y2924731D01*
X88671Y2939954D01*
X108046Y2959329D01*
X123269Y2982111D01*
X133754Y3007426D01*
X139100Y3034300D01*
X139100Y3061700D01*
X133754Y3088574D01*
X123269Y3113888D01*
X108046Y3136671D01*
X88671Y3156046D01*
X83073Y3159786D01*
X86531Y3161634D01*
X96340Y3187983D01*
X0Y3284322D01*
X-96340Y3187983D01*
X-86531Y3161634D01*
X-82935Y3159879D01*
X-88671Y3156046D01*
X-108046Y3136671D01*
X-123269Y3113888D01*
X-133754Y3088574D01*
X-139100Y3061700D01*
X-139100Y3034300D01*
X-133754Y3007426D01*
X-123269Y2982111D01*
X-108046Y2959329D01*
X-88671Y2939954D01*
X-65889Y2924731D01*
X-56881Y2921000D01*
X-65889Y2917269D01*
X-88671Y2902046D01*
X-108046Y2882671D01*
X-123269Y2859888D01*
X-133754Y2834574D01*
X-139100Y2807700D01*
X-139100Y2780300D01*
X-133754Y2753426D01*
X-123269Y2728112D01*
X-108046Y2705329D01*
X-88671Y2685954D01*
X-65889Y2670731D01*
X-56881Y2667000D01*
X-65889Y2663269D01*
X-88671Y2648046D01*
X-108046Y2628671D01*
X-123269Y2605889D01*
X-133754Y2580574D01*
X-139100Y2553700D01*
X-139100Y2526300D01*
X-133754Y2499426D01*
X-123269Y2474112D01*
X-108046Y2451329D01*
X-88671Y2431954D01*
X-83073Y2428214D01*
X-86531Y2426366D01*
X-96340Y2400017D01*
X0Y2303678D01*
X96340Y2400017D01*
X86531Y2426366D01*
X82935Y2428121D01*
X88671Y2431954D01*
X108046Y2451329D01*
X123269Y2474112D01*
X133754Y2499426D01*
X138012Y2520828D01*
X141016Y2505727D01*
X149873Y2484343D01*
X162732Y2465098D01*
X179098Y2448732D01*
X198343Y2435873D01*
X219726Y2427016D01*
X242427Y2422500D01*
X265573Y2422500D01*
X288274Y2427016D01*
X309657Y2435873D01*
X328902Y2448732D01*
X345268Y2465098D01*
X353555Y2477500D01*
X441431Y2477500D01*
X444500Y2477198D01*
X447569Y2477500D01*
X447570Y2477500D01*
X456752Y2478404D01*
X468533Y2481978D01*
X479391Y2487782D01*
X488908Y2495592D01*
X490866Y2497978D01*
X533888Y2541000D01*
X588197Y2541000D01*
X577546Y2536242D01*
X558996Y2523097D01*
X543367Y2506587D01*
X531260Y2487344D01*
X523139Y2466109D01*
X519316Y2443698D01*
X535083Y2425500D01*
X622500Y2425500D01*
X622500Y2427500D01*
X647500Y2427500D01*
X647500Y2425500D01*
X649500Y2425500D01*
X649500Y2400500D01*
X647500Y2400500D01*
X647500Y2291914D01*
X665230Y2279544D01*
X671696Y2280485D01*
X692454Y2289758D01*
X699500Y2294751D01*
X699500Y2162069D01*
X699198Y2159000D01*
X699500Y2155931D01*
X699500Y2155930D01*
X700404Y2146748D01*
X703978Y2134967D01*
X709782Y2124109D01*
X717592Y2114592D01*
X719978Y2112634D01*
X763000Y2069612D01*
X763000Y1996513D01*
X754104Y2002799D01*
X733956Y2011767D01*
X728336Y2013471D01*
X711000Y2001065D01*
X711000Y1917500D01*
X713000Y1917500D01*
X713000Y1892500D01*
X711000Y1892500D01*
X711000Y1808935D01*
X728336Y1796528D01*
X733956Y1798233D01*
X754104Y1807201D01*
X763000Y1813487D01*
X763000Y1273069D01*
X762698Y1270000D01*
X763000Y1266931D01*
X763000Y1266930D01*
X763904Y1257748D01*
X767478Y1245967D01*
X773282Y1235109D01*
X781092Y1225592D01*
X783478Y1223634D01*
X1795135Y211977D01*
X1797092Y209592D01*
X1806609Y201782D01*
X1817467Y195978D01*
X1829248Y192404D01*
X1838430Y191500D01*
X1838430Y191500D01*
X1841500Y191198D01*
X1844570Y191500D01*
X2161328Y191500D01*
X2162731Y188111D01*
X2177954Y165329D01*
X2197329Y145954D01*
X2220112Y130731D01*
X2229119Y127000D01*
X2220112Y123269D01*
X2197329Y108046D01*
X2177954Y88671D01*
X2162731Y65889D01*
X2152246Y40574D01*
X2146900Y13700D01*
X2146900Y-13700D01*
X2152246Y-40574D01*
X2153649Y-43962D01*
X1958227Y-239385D01*
X1625112Y-572500D01*
X1342604Y-572500D01*
X1346274Y-570749D01*
X1369438Y-553442D01*
X1388781Y-531950D01*
X1401319Y-510865D01*
X1401319Y-529500D01*
X1402043Y-536851D01*
X1404187Y-543920D01*
X1407669Y-550435D01*
X1412355Y-556145D01*
X1418065Y-560831D01*
X1424580Y-564313D01*
X1431649Y-566457D01*
X1439000Y-567181D01*
X1609000Y-567181D01*
X1616351Y-566457D01*
X1623420Y-564313D01*
X1629935Y-560831D01*
X1635645Y-556145D01*
X1640331Y-550435D01*
X1643813Y-543920D01*
X1645957Y-536851D01*
X1646681Y-529500D01*
X1646681Y-359500D01*
X1645957Y-352149D01*
X1643813Y-345080D01*
X1640331Y-338565D01*
X1635645Y-332855D01*
X1629935Y-328169D01*
X1623420Y-324687D01*
X1616351Y-322543D01*
X1609000Y-321819D01*
X1439000Y-321819D01*
X1431649Y-322543D01*
X1424580Y-324687D01*
X1418065Y-328169D01*
X1412355Y-332855D01*
X1407669Y-338565D01*
X1404187Y-345080D01*
X1402043Y-352149D01*
X1401319Y-359500D01*
X1401319Y-378135D01*
X1388781Y-357050D01*
X1369438Y-335558D01*
X1346274Y-318252D01*
X1320179Y-305797D01*
X1305337Y-301296D01*
X1282500Y-313219D01*
X1282500Y-432000D01*
X1284500Y-432000D01*
X1284500Y-457000D01*
X1282500Y-457000D01*
X1282500Y-459000D01*
X1257500Y-459000D01*
X1257500Y-457000D01*
X1255500Y-457000D01*
X1255500Y-432000D01*
X1257500Y-432000D01*
X1257500Y-313219D01*
X1234663Y-301296D01*
X1219821Y-305797D01*
X1193726Y-318252D01*
X1170562Y-335558D01*
X1151219Y-357050D01*
X1136441Y-381904D01*
X1130094Y-399839D01*
X1124558Y-386474D01*
X1111152Y-366411D01*
X1094089Y-349348D01*
X1074026Y-335942D01*
X1051732Y-326708D01*
X1028065Y-322000D01*
X1003935Y-322000D01*
X980268Y-326708D01*
X957974Y-335942D01*
X937911Y-349348D01*
X920848Y-366411D01*
X907442Y-386474D01*
X898208Y-408768D01*
X893500Y-432435D01*
X893500Y-456565D01*
X898208Y-480232D01*
X907442Y-502525D01*
X920848Y-522589D01*
X937911Y-539652D01*
X957974Y-553058D01*
X980268Y-562292D01*
X1003935Y-567000D01*
X1028065Y-567000D01*
X1046454Y-563342D01*
X1138112Y-655000D01*
X-65636Y-655000D01*
X-65997Y-655036D01*
X-79678Y-653694D01*
X-95240Y-648996D01*
X-109593Y-641364D01*
X-122190Y-631090D01*
X-132552Y-618565D01*
X-140283Y-604266D01*
X-145090Y-588737D01*
X-147000Y-570567D01*
X-147000Y-405548D01*
X-122500Y-405548D01*
X-122500Y-444452D01*
X-114910Y-482609D01*
X-100022Y-518551D01*
X-78408Y-550899D01*
X-50899Y-578408D01*
X-18551Y-600022D01*
X17391Y-614910D01*
X55548Y-622500D01*
X94452Y-622500D01*
X132609Y-614910D01*
X168551Y-600022D01*
X200899Y-578408D01*
X228408Y-550899D01*
X250022Y-518551D01*
X264910Y-482609D01*
X272500Y-444452D01*
X272500Y-405548D01*
X264910Y-367391D01*
X250022Y-331449D01*
X228408Y-299101D01*
X200899Y-271592D01*
X168551Y-249978D01*
X132609Y-235090D01*
X94452Y-227500D01*
X55548Y-227500D01*
X17391Y-235090D01*
X-18551Y-249978D01*
X-50899Y-271592D01*
X-78408Y-299101D01*
X-100022Y-331449D01*
X-114910Y-367391D01*
X-122500Y-405548D01*
X-147000Y-405548D01*
X-147000Y101600D01*
X-139281Y101600D01*
X-139281Y-101600D01*
X-138557Y-108951D01*
X-136413Y-116020D01*
X-132931Y-122535D01*
X-128245Y-128245D01*
X-122535Y-132931D01*
X-116020Y-136413D01*
X-108951Y-138557D01*
X-101600Y-139281D01*
X101600Y-139281D01*
X108951Y-138557D01*
X116020Y-136413D01*
X122535Y-132931D01*
X128245Y-128245D01*
X132931Y-122535D01*
X136413Y-116020D01*
X138557Y-108951D01*
X139281Y-101600D01*
X139281Y-62500D01*
X736112Y-62500D01*
X770158Y-96546D01*
X766500Y-114935D01*
X766500Y-139065D01*
X770158Y-157454D01*
X719977Y-207635D01*
X717592Y-209592D01*
X709782Y-219109D01*
X703978Y-229967D01*
X700404Y-241748D01*
X699898Y-246891D01*
X699198Y-254000D01*
X699500Y-257070D01*
X699500Y-338932D01*
X683911Y-349348D01*
X666848Y-366411D01*
X653442Y-386474D01*
X644208Y-408768D01*
X639500Y-432435D01*
X639500Y-456565D01*
X644208Y-480232D01*
X653442Y-502525D01*
X666848Y-522589D01*
X683911Y-539652D01*
X703974Y-553058D01*
X726268Y-562292D01*
X749935Y-567000D01*
X774065Y-567000D01*
X797732Y-562292D01*
X820025Y-553058D01*
X840089Y-539652D01*
X857152Y-522589D01*
X870558Y-502525D01*
X879792Y-480232D01*
X884500Y-456565D01*
X884500Y-432435D01*
X879792Y-408768D01*
X870558Y-386474D01*
X857152Y-366411D01*
X840089Y-349348D01*
X824500Y-338932D01*
X824500Y-279888D01*
X858546Y-245842D01*
X876935Y-249500D01*
X901065Y-249500D01*
X924732Y-244792D01*
X947025Y-235558D01*
X967089Y-222152D01*
X984152Y-205089D01*
X997558Y-185025D01*
X1006792Y-162732D01*
X1011500Y-139065D01*
X1011500Y-114935D01*
X1020500Y-114935D01*
X1020500Y-139065D01*
X1025208Y-162732D01*
X1034442Y-185025D01*
X1047848Y-205089D01*
X1064911Y-222152D01*
X1084975Y-235558D01*
X1107268Y-244792D01*
X1130935Y-249500D01*
X1155065Y-249500D01*
X1178732Y-244792D01*
X1201026Y-235558D01*
X1221089Y-222152D01*
X1238152Y-205089D01*
X1249323Y-188370D01*
X1249198Y-212000D01*
X1250404Y-224252D01*
X1253978Y-236033D01*
X1259782Y-246891D01*
X1267592Y-256408D01*
X1277109Y-264218D01*
X1287967Y-270022D01*
X1299748Y-273596D01*
X1312000Y-274802D01*
X1368875Y-274500D01*
X1384500Y-258875D01*
X1384500Y-139500D01*
X1409500Y-139500D01*
X1409500Y-258875D01*
X1425125Y-274500D01*
X1482000Y-274802D01*
X1494252Y-273596D01*
X1506033Y-270022D01*
X1516891Y-264218D01*
X1526408Y-256408D01*
X1534218Y-246891D01*
X1540022Y-236033D01*
X1543596Y-224252D01*
X1544802Y-212000D01*
X1544500Y-155125D01*
X1528875Y-139500D01*
X1409500Y-139500D01*
X1384500Y-139500D01*
X1382500Y-139500D01*
X1382500Y-114500D01*
X1384500Y-114500D01*
X1384500Y4875D01*
X1409500Y4875D01*
X1409500Y-114500D01*
X1528875Y-114500D01*
X1544500Y-98875D01*
X1544802Y-42000D01*
X1543596Y-29748D01*
X1540022Y-17967D01*
X1534218Y-7109D01*
X1526408Y2408D01*
X1516891Y10218D01*
X1516200Y10588D01*
X1924500Y10588D01*
X1924500Y-10588D01*
X1928631Y-31357D01*
X1936735Y-50920D01*
X1948499Y-68527D01*
X1963473Y-83501D01*
X1981080Y-95265D01*
X2000643Y-103369D01*
X2021412Y-107500D01*
X2042588Y-107500D01*
X2063357Y-103369D01*
X2082920Y-95265D01*
X2100527Y-83501D01*
X2115501Y-68527D01*
X2127265Y-50920D01*
X2135369Y-31357D01*
X2139500Y-10588D01*
X2139500Y10588D01*
X2135369Y31357D01*
X2127265Y50920D01*
X2115501Y68527D01*
X2100527Y83501D01*
X2082920Y95265D01*
X2063357Y103369D01*
X2042588Y107500D01*
X2021412Y107500D01*
X2000643Y103369D01*
X1981080Y95265D01*
X1963473Y83501D01*
X1948499Y68527D01*
X1936735Y50920D01*
X1928631Y31357D01*
X1924500Y10588D01*
X1516200Y10588D01*
X1506033Y16022D01*
X1494252Y19596D01*
X1482000Y20802D01*
X1425125Y20500D01*
X1409500Y4875D01*
X1384500Y4875D01*
X1368875Y20500D01*
X1312000Y20802D01*
X1299748Y19596D01*
X1287967Y16022D01*
X1277109Y10218D01*
X1267592Y2408D01*
X1259782Y-7109D01*
X1253978Y-17967D01*
X1250404Y-29748D01*
X1249198Y-42000D01*
X1249323Y-65630D01*
X1238152Y-48911D01*
X1221089Y-31848D01*
X1201026Y-18442D01*
X1178732Y-9208D01*
X1155065Y-4500D01*
X1130935Y-4500D01*
X1107268Y-9208D01*
X1084975Y-18442D01*
X1064911Y-31848D01*
X1047848Y-48911D01*
X1034442Y-68975D01*
X1025208Y-91268D01*
X1020500Y-114935D01*
X1011500Y-114935D01*
X1006792Y-91268D01*
X997558Y-68975D01*
X984152Y-48911D01*
X967089Y-31848D01*
X947025Y-18442D01*
X924732Y-9208D01*
X901065Y-4500D01*
X876935Y-4500D01*
X858546Y-8158D01*
X808366Y42022D01*
X806408Y44408D01*
X796891Y52218D01*
X786033Y58022D01*
X774252Y61596D01*
X765070Y62500D01*
X765069Y62500D01*
X762000Y62802D01*
X758931Y62500D01*
X139281Y62500D01*
X139281Y101600D01*
X138557Y108951D01*
X136413Y116020D01*
X132931Y122535D01*
X128245Y128245D01*
X122535Y132931D01*
X116020Y136413D01*
X108951Y138557D01*
X101600Y139281D01*
X78685Y139281D01*
X88671Y145954D01*
X108046Y165329D01*
X123269Y188111D01*
X133754Y213426D01*
X139100Y240300D01*
X139100Y267700D01*
X133754Y294574D01*
X123269Y319889D01*
X108046Y342671D01*
X88671Y362046D01*
X65889Y377269D01*
X56881Y381000D01*
X65889Y384731D01*
X88671Y399954D01*
X108046Y419329D01*
X123269Y442111D01*
X133754Y467426D01*
X135463Y476013D01*
X136208Y472268D01*
X145442Y449974D01*
X158848Y429911D01*
X175911Y412848D01*
X195974Y399442D01*
X218268Y390208D01*
X241935Y385500D01*
X266065Y385500D01*
X289732Y390208D01*
X312026Y399442D01*
X332089Y412848D01*
X349152Y429911D01*
X362558Y449974D01*
X371792Y472268D01*
X376500Y495935D01*
X376500Y520065D01*
X371792Y543732D01*
X362558Y566026D01*
X349152Y586089D01*
X332089Y603152D01*
X312026Y616558D01*
X289732Y625792D01*
X266065Y630500D01*
X241935Y630500D01*
X218268Y625792D01*
X195974Y616558D01*
X175911Y603152D01*
X158848Y586089D01*
X145442Y566026D01*
X136208Y543732D01*
X135463Y539987D01*
X133754Y548574D01*
X123269Y573889D01*
X108046Y596671D01*
X88671Y616046D01*
X65889Y631269D01*
X56881Y635000D01*
X65889Y638731D01*
X88671Y653954D01*
X108046Y673329D01*
X123269Y696112D01*
X133754Y721426D01*
X135463Y730013D01*
X136208Y726268D01*
X145442Y703974D01*
X158848Y683911D01*
X175911Y666848D01*
X195974Y653442D01*
X218268Y644208D01*
X241935Y639500D01*
X266065Y639500D01*
X289732Y644208D01*
X312026Y653442D01*
X332089Y666848D01*
X349152Y683911D01*
X362558Y703974D01*
X371792Y726268D01*
X376500Y749935D01*
X376500Y774065D01*
X371792Y797732D01*
X362558Y820025D01*
X349152Y840089D01*
X332089Y857152D01*
X315370Y868323D01*
X339000Y868198D01*
X351252Y869404D01*
X363033Y872978D01*
X373891Y878782D01*
X383408Y886592D01*
X391218Y896109D01*
X397022Y906967D01*
X400596Y918748D01*
X401802Y931000D01*
X401500Y987875D01*
X385875Y1003500D01*
X266500Y1003500D01*
X266500Y1001500D01*
X241500Y1001500D01*
X241500Y1003500D01*
X239500Y1003500D01*
X239500Y1028500D01*
X241500Y1028500D01*
X241500Y1147875D01*
X266500Y1147875D01*
X266500Y1028500D01*
X385875Y1028500D01*
X401500Y1044125D01*
X401802Y1101000D01*
X400596Y1113252D01*
X397022Y1125033D01*
X391218Y1135891D01*
X383408Y1145408D01*
X373891Y1153218D01*
X363033Y1159022D01*
X351252Y1162596D01*
X339000Y1163802D01*
X282125Y1163500D01*
X266500Y1147875D01*
X241500Y1147875D01*
X225875Y1163500D01*
X169000Y1163802D01*
X156748Y1162596D01*
X144967Y1159022D01*
X134109Y1153218D01*
X124592Y1145408D01*
X116782Y1135891D01*
X110978Y1125033D01*
X107404Y1113252D01*
X106692Y1106025D01*
X88671Y1124046D01*
X65889Y1139269D01*
X56881Y1143000D01*
X65889Y1146731D01*
X88671Y1161954D01*
X108046Y1181329D01*
X123269Y1204112D01*
X133754Y1229426D01*
X139100Y1256300D01*
X139100Y1283700D01*
X133754Y1310574D01*
X123269Y1335889D01*
X108046Y1358671D01*
X88671Y1378046D01*
X65889Y1393269D01*
X56881Y1397000D01*
X65889Y1400731D01*
X88671Y1415954D01*
X108046Y1435329D01*
X123269Y1458111D01*
X133754Y1483426D01*
X139100Y1510300D01*
X139100Y1534588D01*
X146500Y1534588D01*
X146500Y1513412D01*
X150631Y1492643D01*
X158735Y1473080D01*
X170499Y1455473D01*
X185473Y1440499D01*
X203080Y1428735D01*
X222643Y1420631D01*
X243412Y1416500D01*
X264588Y1416500D01*
X285357Y1420631D01*
X304920Y1428735D01*
X322527Y1440499D01*
X337501Y1455473D01*
X349265Y1473080D01*
X357369Y1492643D01*
X361500Y1513412D01*
X361500Y1534588D01*
X357369Y1555357D01*
X349265Y1574920D01*
X337501Y1592527D01*
X322527Y1607501D01*
X304920Y1619265D01*
X285357Y1627369D01*
X264588Y1631500D01*
X243412Y1631500D01*
X222643Y1627369D01*
X203080Y1619265D01*
X185473Y1607501D01*
X170499Y1592527D01*
X158735Y1574920D01*
X150631Y1555357D01*
X146500Y1534588D01*
X139100Y1534588D01*
X139100Y1537700D01*
X133754Y1564574D01*
X123269Y1589888D01*
X108046Y1612671D01*
X88671Y1632046D01*
X65889Y1647269D01*
X56881Y1651000D01*
X65889Y1654731D01*
X88671Y1669954D01*
X108046Y1689329D01*
X123269Y1712111D01*
X133754Y1737426D01*
X139100Y1764300D01*
X139100Y1791700D01*
X133754Y1818574D01*
X123269Y1843888D01*
X108046Y1866671D01*
X99553Y1875164D01*
X590028Y1875164D01*
X597933Y1854575D01*
X609703Y1835924D01*
X624885Y1819928D01*
X642896Y1807201D01*
X663044Y1798233D01*
X668664Y1796528D01*
X686000Y1808935D01*
X686000Y1892500D01*
X602321Y1892500D01*
X590028Y1875164D01*
X99553Y1875164D01*
X88671Y1886046D01*
X65889Y1901269D01*
X56881Y1905000D01*
X65889Y1908731D01*
X88671Y1923954D01*
X99553Y1934836D01*
X590028Y1934836D01*
X602321Y1917500D01*
X686000Y1917500D01*
X686000Y2001065D01*
X668664Y2013471D01*
X663044Y2011767D01*
X642896Y2002799D01*
X624885Y1990072D01*
X609703Y1974075D01*
X597933Y1955425D01*
X590028Y1934836D01*
X99553Y1934836D01*
X108046Y1943329D01*
X123269Y1966111D01*
X133754Y1991426D01*
X139100Y2018300D01*
X139100Y2045700D01*
X133754Y2072574D01*
X123269Y2097889D01*
X108046Y2120671D01*
X88671Y2140046D01*
X83073Y2143786D01*
X86531Y2145635D01*
X96340Y2171983D01*
X0Y2268322D01*
X-96340Y2171983D01*
X-86531Y2145635D01*
X-82935Y2143879D01*
X-88671Y2140046D01*
X-108046Y2120671D01*
X-123269Y2097889D01*
X-133754Y2072574D01*
X-139100Y2045700D01*
X-139100Y2018300D01*
X-133754Y1991426D01*
X-123269Y1966111D01*
X-108046Y1943329D01*
X-88671Y1923954D01*
X-65889Y1908731D01*
X-56881Y1905000D01*
X-65889Y1901269D01*
X-88671Y1886046D01*
X-108046Y1866671D01*
X-123269Y1843888D01*
X-133754Y1818574D01*
X-139100Y1791700D01*
X-139100Y1764300D01*
X-133754Y1737426D01*
X-123269Y1712111D01*
X-108046Y1689329D01*
X-88671Y1669954D01*
X-65889Y1654731D01*
X-56881Y1651000D01*
X-65889Y1647269D01*
X-88671Y1632046D01*
X-108046Y1612671D01*
X-123269Y1589888D01*
X-133754Y1564574D01*
X-139100Y1537700D01*
X-139100Y1510300D01*
X-133754Y1483426D01*
X-123269Y1458111D01*
X-108046Y1435329D01*
X-88671Y1415954D01*
X-65889Y1400731D01*
X-56881Y1397000D01*
X-65889Y1393269D01*
X-88671Y1378046D01*
X-108046Y1358671D01*
X-123269Y1335889D01*
X-133754Y1310574D01*
X-139100Y1283700D01*
X-139100Y1256300D01*
X-133754Y1229426D01*
X-123269Y1204112D01*
X-108046Y1181329D01*
X-88671Y1161954D01*
X-65889Y1146731D01*
X-56881Y1143000D01*
X-65889Y1139269D01*
X-88671Y1124046D01*
X-108046Y1104671D01*
X-123269Y1081889D01*
X-133754Y1056574D01*
X-139100Y1029700D01*
X-139100Y1002300D01*
X-133754Y975426D01*
X-123269Y950111D01*
X-108046Y927329D01*
X-88671Y907954D01*
X-65889Y892731D01*
X-56881Y889000D01*
X-65889Y885269D01*
X-88671Y870046D01*
X-108046Y850671D01*
X-123269Y827888D01*
X-133754Y802574D01*
X-139100Y775700D01*
X-139100Y748300D01*
X-133754Y721426D01*
X-123269Y696112D01*
X-108046Y673329D01*
X-88671Y653954D01*
X-65889Y638731D01*
X-56881Y635000D01*
X-65889Y631269D01*
X-88671Y616046D01*
X-108046Y596671D01*
X-123269Y573889D01*
X-133754Y548574D01*
X-139100Y521700D01*
X-139100Y494300D01*
X-133754Y467426D01*
X-123269Y442111D01*
X-108046Y419329D01*
X-88671Y399954D01*
X-65889Y384731D01*
X-56881Y381000D01*
X-65889Y377269D01*
X-88671Y362046D01*
X-108046Y342671D01*
X-123269Y319889D01*
X-133754Y294574D01*
X-139100Y267700D01*
X-139100Y240300D01*
X-133754Y213426D01*
X-123269Y188111D01*
X-108046Y165329D01*
X-88671Y145954D01*
X-78685Y139281D01*
X-101600Y139281D01*
X-108951Y138557D01*
X-116020Y136413D01*
X-122535Y132931D01*
X-128245Y128245D01*
X-132931Y122535D01*
X-136413Y116020D01*
X-138557Y108951D01*
X-139281Y101600D01*
X-147000Y101600D01*
X-147000Y2211882D01*
X-140366Y2199469D01*
X-114017Y2189660D01*
X-17678Y2286000D01*
X17678Y2286000D01*
X114017Y2189660D01*
X140366Y2199469D01*
X154550Y2228516D01*
X157236Y2238699D01*
X158735Y2235080D01*
X170499Y2217473D01*
X185473Y2202499D01*
X203080Y2190735D01*
X222643Y2182631D01*
X243412Y2178500D01*
X264588Y2178500D01*
X285357Y2182631D01*
X304920Y2190735D01*
X322527Y2202499D01*
X337501Y2217473D01*
X349265Y2235080D01*
X357369Y2254643D01*
X361500Y2275412D01*
X361500Y2296588D01*
X357369Y2317357D01*
X349265Y2336920D01*
X337501Y2354527D01*
X322527Y2369501D01*
X304920Y2381265D01*
X302417Y2382302D01*
X519316Y2382302D01*
X523139Y2359891D01*
X531260Y2338656D01*
X543367Y2319414D01*
X558996Y2302903D01*
X577546Y2289758D01*
X598304Y2280485D01*
X604771Y2279544D01*
X622500Y2291914D01*
X622500Y2400500D01*
X535083Y2400500D01*
X519316Y2382302D01*
X302417Y2382302D01*
X285357Y2389369D01*
X264588Y2393500D01*
X243412Y2393500D01*
X222643Y2389369D01*
X203080Y2381265D01*
X185473Y2369501D01*
X170499Y2354527D01*
X158735Y2336920D01*
X157252Y2333340D01*
X149931Y2354636D01*
X140366Y2372531D01*
X114017Y2382340D01*
X17678Y2286000D01*
X-17678Y2286000D01*
X-114017Y2382340D01*
X-140366Y2372531D01*
X-147000Y2358944D01*
X-147000Y3227882D01*
X-140366Y3215469D01*
X-114017Y3205660D01*
X-17678Y3302000D01*
X17678Y3302000D01*
X114017Y3205660D01*
X137156Y3214275D01*
X139187Y3207580D01*
X142669Y3201065D01*
X147355Y3195355D01*
X153065Y3190669D01*
X159580Y3187187D01*
X166649Y3185043D01*
X174000Y3184319D01*
X334000Y3184319D01*
X341351Y3185043D01*
X348420Y3187187D01*
X354935Y3190669D01*
X360645Y3195355D01*
X365331Y3201065D01*
X368813Y3207580D01*
X370957Y3214649D01*
X371681Y3222000D01*
X371681Y3382000D01*
X370957Y3389351D01*
X368813Y3396420D01*
X365331Y3402935D01*
X360645Y3408645D01*
X354935Y3413331D01*
X348420Y3416813D01*
X341351Y3418957D01*
X334000Y3419681D01*
X174000Y3419681D01*
X166649Y3418957D01*
X159580Y3416813D01*
X153065Y3413331D01*
X147355Y3408645D01*
X142669Y3402935D01*
X139187Y3396420D01*
X137156Y3389725D01*
X114017Y3398340D01*
X17678Y3302000D01*
X-17678Y3302000D01*
X-114017Y3398340D01*
X-140366Y3388531D01*
X-147000Y3374944D01*
X-147000Y3569700D01*
X-139100Y3569700D01*
X-139100Y3542300D01*
X-133754Y3515426D01*
X-123269Y3490111D01*
X-108046Y3467329D01*
X-88671Y3447954D01*
X-83073Y3444214D01*
X-86531Y3442365D01*
X-96340Y3416017D01*
X0Y3319678D01*
X96340Y3416017D01*
X86531Y3442365D01*
X82935Y3444121D01*
X88671Y3447954D01*
X108046Y3467329D01*
X123269Y3490111D01*
X133754Y3515426D01*
X139100Y3542300D01*
X139100Y3569700D01*
X133754Y3596574D01*
X123269Y3621888D01*
X108046Y3644671D01*
X88671Y3664046D01*
X65889Y3679269D01*
X40574Y3689754D01*
X13700Y3695100D01*
X-13700Y3695100D01*
X-40574Y3689754D01*
X-65889Y3679269D01*
X-88671Y3664046D01*
X-108046Y3644671D01*
X-123269Y3621888D01*
X-133754Y3596574D01*
X-139100Y3569700D01*
X-147000Y3569700D01*
X-147000Y3957452D01*
X-117500Y3957452D01*
X-117500Y3918548D01*
X-109910Y3880391D01*
X-95022Y3844449D01*
X-73408Y3812101D01*
X-45899Y3784592D01*
X-13551Y3762978D01*
X22391Y3748090D01*
X60548Y3740500D01*
X99452Y3740500D01*
X137609Y3748090D01*
X173551Y3762978D01*
X205899Y3784592D01*
X233408Y3812101D01*
X241382Y3824035D01*
X302000Y3824035D01*
X302000Y3795965D01*
X307476Y3768434D01*
X318218Y3742501D01*
X333813Y3719161D01*
X353661Y3699313D01*
X377001Y3683718D01*
X382000Y3681647D01*
X382000Y3178069D01*
X381698Y3175000D01*
X382000Y3171931D01*
X382000Y3171930D01*
X382904Y3162748D01*
X386478Y3150967D01*
X392282Y3140109D01*
X400092Y3130592D01*
X402478Y3128634D01*
X525135Y3005977D01*
X527092Y3003592D01*
X529477Y3001635D01*
X536609Y2995782D01*
X536609Y2995782D01*
X547467Y2989978D01*
X559248Y2986404D01*
X568430Y2985500D01*
X568431Y2985500D01*
X571500Y2985198D01*
X574569Y2985500D01*
X1588500Y2985500D01*
X1588500Y2916941D01*
X1585869Y2915851D01*
X1563349Y2900803D01*
X1544197Y2881651D01*
X1529149Y2859131D01*
X1518784Y2834107D01*
X1513500Y2807543D01*
X1513500Y2780457D01*
X1518784Y2753893D01*
X1529149Y2728869D01*
X1544197Y2706349D01*
X1563349Y2687197D01*
X1585869Y2672149D01*
X1610893Y2661784D01*
X1637457Y2656500D01*
X1664543Y2656500D01*
X1691107Y2661784D01*
X1716131Y2672149D01*
X1738651Y2687197D01*
X1757803Y2706349D01*
X1772851Y2728869D01*
X1779000Y2743715D01*
X1779000Y2647500D01*
X1767412Y2647500D01*
X1746643Y2643369D01*
X1727080Y2635265D01*
X1709473Y2623501D01*
X1694499Y2608527D01*
X1682735Y2590920D01*
X1674631Y2571357D01*
X1670500Y2550588D01*
X1670500Y2529412D01*
X1674631Y2508643D01*
X1682735Y2489080D01*
X1694499Y2471473D01*
X1709473Y2456499D01*
X1727080Y2444735D01*
X1746643Y2436631D01*
X1767412Y2432500D01*
X1788588Y2432500D01*
X1809357Y2436631D01*
X1828920Y2444735D01*
X1846527Y2456499D01*
X1861501Y2471473D01*
X1873265Y2489080D01*
X1881369Y2508643D01*
X1885500Y2529412D01*
X1885500Y2550588D01*
X1884103Y2557611D01*
X1885908Y2559092D01*
X1887865Y2561477D01*
X1887865Y2561477D01*
X1893718Y2568609D01*
X1899522Y2579467D01*
X1899522Y2579467D01*
X1903096Y2591248D01*
X1904000Y2600430D01*
X1904000Y2600430D01*
X1904302Y2603500D01*
X1904000Y2606570D01*
X1904000Y3229396D01*
X1905751Y3225726D01*
X1923058Y3202562D01*
X1944550Y3183219D01*
X1969404Y3168441D01*
X1987339Y3162094D01*
X1973974Y3156558D01*
X1953911Y3143152D01*
X1936848Y3126089D01*
X1923442Y3106025D01*
X1914208Y3083732D01*
X1909500Y3060065D01*
X1909500Y3035935D01*
X1914208Y3012268D01*
X1923442Y2989974D01*
X1936848Y2969911D01*
X1953911Y2952848D01*
X1973974Y2939442D01*
X1996268Y2930208D01*
X2019935Y2925500D01*
X2044065Y2925500D01*
X2067732Y2930208D01*
X2090025Y2939442D01*
X2110089Y2952848D01*
X2127152Y2969911D01*
X2137568Y2985500D01*
X2161328Y2985500D01*
X2162731Y2982111D01*
X2177954Y2959329D01*
X2197329Y2939954D01*
X2220112Y2924731D01*
X2229119Y2921000D01*
X2220112Y2917269D01*
X2197329Y2902046D01*
X2177954Y2882671D01*
X2162731Y2859888D01*
X2161328Y2856500D01*
X2137568Y2856500D01*
X2127152Y2872089D01*
X2110089Y2889152D01*
X2090025Y2902558D01*
X2067732Y2911792D01*
X2044065Y2916500D01*
X2019935Y2916500D01*
X1996268Y2911792D01*
X1973974Y2902558D01*
X1953911Y2889152D01*
X1936848Y2872089D01*
X1923442Y2852025D01*
X1914208Y2829732D01*
X1909500Y2806065D01*
X1909500Y2781935D01*
X1914208Y2758268D01*
X1923442Y2735975D01*
X1936848Y2715911D01*
X1953911Y2698848D01*
X1973974Y2685442D01*
X1996268Y2676208D01*
X2019935Y2671500D01*
X2044065Y2671500D01*
X2067732Y2676208D01*
X2090025Y2685442D01*
X2110089Y2698848D01*
X2127152Y2715911D01*
X2137568Y2731500D01*
X2161328Y2731500D01*
X2162731Y2728112D01*
X2177954Y2705329D01*
X2197329Y2685954D01*
X2220112Y2670731D01*
X2229119Y2667000D01*
X2220112Y2663269D01*
X2197329Y2648046D01*
X2177954Y2628671D01*
X2162731Y2605889D01*
X2152246Y2580574D01*
X2146900Y2553700D01*
X2146900Y2526300D01*
X2152246Y2499426D01*
X2162731Y2474112D01*
X2177954Y2451329D01*
X2197329Y2431954D01*
X2220112Y2416731D01*
X2229119Y2413000D01*
X2220112Y2409269D01*
X2197329Y2394046D01*
X2177954Y2374671D01*
X2162731Y2351889D01*
X2152246Y2326574D01*
X2146900Y2299700D01*
X2146900Y2272300D01*
X2152246Y2245426D01*
X2162731Y2220112D01*
X2177954Y2197329D01*
X2197329Y2177954D01*
X2220112Y2162731D01*
X2229119Y2159000D01*
X2220112Y2155269D01*
X2197329Y2140046D01*
X2177954Y2120671D01*
X2162731Y2097889D01*
X2152246Y2072574D01*
X2146900Y2045700D01*
X2146900Y2018300D01*
X2152246Y1991426D01*
X2162731Y1966111D01*
X2177954Y1943329D01*
X2197329Y1923954D01*
X2220112Y1908731D01*
X2229119Y1905000D01*
X2220112Y1901269D01*
X2197329Y1886046D01*
X2177954Y1866671D01*
X2162731Y1843888D01*
X2152246Y1818574D01*
X2146900Y1791700D01*
X2146900Y1764300D01*
X2152246Y1737426D01*
X2162731Y1712111D01*
X2177954Y1689329D01*
X2197329Y1669954D01*
X2202927Y1666214D01*
X2199469Y1664365D01*
X2189660Y1638017D01*
X2286000Y1541678D01*
X2382340Y1638017D01*
X2372531Y1664365D01*
X2368935Y1666121D01*
X2374671Y1669954D01*
X2394046Y1689329D01*
X2409269Y1712111D01*
X2419754Y1737426D01*
X2425100Y1764300D01*
X2425100Y1791700D01*
X2419754Y1818574D01*
X2409269Y1843888D01*
X2394046Y1866671D01*
X2374671Y1886046D01*
X2351889Y1901269D01*
X2342881Y1905000D01*
X2351889Y1908731D01*
X2374671Y1923954D01*
X2394046Y1943329D01*
X2409269Y1966111D01*
X2419754Y1991426D01*
X2425100Y2018300D01*
X2425100Y2045700D01*
X2419754Y2072574D01*
X2409269Y2097889D01*
X2394046Y2120671D01*
X2374671Y2140046D01*
X2351889Y2155269D01*
X2342881Y2159000D01*
X2351889Y2162731D01*
X2374671Y2177954D01*
X2394046Y2197329D01*
X2409269Y2220112D01*
X2419754Y2245426D01*
X2425100Y2272300D01*
X2425100Y2299700D01*
X2419754Y2326574D01*
X2409269Y2351889D01*
X2394046Y2374671D01*
X2374671Y2394046D01*
X2351889Y2409269D01*
X2342881Y2413000D01*
X2351889Y2416731D01*
X2374671Y2431954D01*
X2394046Y2451329D01*
X2409269Y2474112D01*
X2419754Y2499426D01*
X2425100Y2526300D01*
X2425100Y2553700D01*
X2419754Y2580574D01*
X2409269Y2605889D01*
X2394046Y2628671D01*
X2374671Y2648046D01*
X2351889Y2663269D01*
X2342881Y2667000D01*
X2351889Y2670731D01*
X2374671Y2685954D01*
X2394046Y2705329D01*
X2409269Y2728112D01*
X2419754Y2753426D01*
X2425100Y2780300D01*
X2425100Y2807700D01*
X2419754Y2834574D01*
X2409269Y2859888D01*
X2394046Y2882671D01*
X2374671Y2902046D01*
X2351889Y2917269D01*
X2342881Y2921000D01*
X2351889Y2924731D01*
X2374671Y2939954D01*
X2394046Y2959329D01*
X2409269Y2982111D01*
X2419754Y3007426D01*
X2425100Y3034300D01*
X2425100Y3061700D01*
X2419754Y3088574D01*
X2409269Y3113888D01*
X2394046Y3136671D01*
X2374671Y3156046D01*
X2369073Y3159786D01*
X2372531Y3161634D01*
X2382340Y3187983D01*
X2286000Y3284322D01*
X2189660Y3187983D01*
X2199469Y3161634D01*
X2203065Y3159879D01*
X2197329Y3156046D01*
X2177954Y3136671D01*
X2162731Y3113888D01*
X2161328Y3110500D01*
X2137568Y3110500D01*
X2127152Y3126089D01*
X2110089Y3143152D01*
X2090025Y3156558D01*
X2076660Y3162094D01*
X2094596Y3168441D01*
X2119450Y3183219D01*
X2140942Y3202562D01*
X2149508Y3214027D01*
X2171983Y3205660D01*
X2268322Y3302000D01*
X2171983Y3398340D01*
X2149508Y3389973D01*
X2140942Y3401438D01*
X2119450Y3420781D01*
X2098365Y3433319D01*
X2117000Y3433319D01*
X2124351Y3434043D01*
X2131420Y3436187D01*
X2137935Y3439669D01*
X2143645Y3444355D01*
X2148331Y3450065D01*
X2151813Y3456580D01*
X2153957Y3463649D01*
X2154681Y3471000D01*
X2154681Y3509545D01*
X2162731Y3490111D01*
X2177954Y3467329D01*
X2197329Y3447954D01*
X2202927Y3444214D01*
X2199469Y3442365D01*
X2189660Y3416017D01*
X2286000Y3319678D01*
X2382340Y3416017D01*
X2372531Y3442365D01*
X2368935Y3444121D01*
X2374671Y3447954D01*
X2394046Y3467329D01*
X2409269Y3490111D01*
X2419754Y3515426D01*
X2425100Y3542300D01*
X2425100Y3569700D01*
X2419754Y3596574D01*
X2409269Y3621888D01*
X2394046Y3644671D01*
X2374671Y3664046D01*
X2351889Y3679269D01*
X2326574Y3689754D01*
X2299700Y3695100D01*
X2272300Y3695100D01*
X2245426Y3689754D01*
X2220112Y3679269D01*
X2197329Y3664046D01*
X2177954Y3644671D01*
X2162731Y3621888D01*
X2154681Y3602454D01*
X2154681Y3641000D01*
X2153957Y3648351D01*
X2151813Y3655420D01*
X2148331Y3661935D01*
X2143645Y3667645D01*
X2137935Y3672331D01*
X2131420Y3675813D01*
X2124351Y3677957D01*
X2117000Y3678681D01*
X1947000Y3678681D01*
X1939649Y3677957D01*
X1932580Y3675813D01*
X1926065Y3672331D01*
X1920355Y3667645D01*
X1915669Y3661935D01*
X1912187Y3655420D01*
X1910043Y3648351D01*
X1909319Y3641000D01*
X1909319Y3471000D01*
X1910043Y3463649D01*
X1912187Y3456580D01*
X1915669Y3450065D01*
X1920355Y3444355D01*
X1926065Y3439669D01*
X1932580Y3436187D01*
X1939649Y3434043D01*
X1947000Y3433319D01*
X1965635Y3433319D01*
X1944550Y3420781D01*
X1923058Y3401438D01*
X1905751Y3378274D01*
X1904000Y3374604D01*
X1904000Y3682319D01*
X1931500Y3682319D01*
X1938851Y3683043D01*
X1945920Y3685187D01*
X1952435Y3688669D01*
X1958145Y3693355D01*
X1962831Y3699065D01*
X1966313Y3705580D01*
X1968457Y3712649D01*
X1969181Y3720000D01*
X1969181Y3900000D01*
X1968457Y3907351D01*
X1966313Y3914420D01*
X1962831Y3920935D01*
X1958145Y3926645D01*
X1952435Y3931331D01*
X1945920Y3934813D01*
X1938851Y3936957D01*
X1931500Y3937681D01*
X1751500Y3937681D01*
X1744149Y3936957D01*
X1737080Y3934813D01*
X1730565Y3931331D01*
X1724855Y3926645D01*
X1720169Y3920935D01*
X1716687Y3914420D01*
X1714543Y3907351D01*
X1713819Y3900000D01*
X1713819Y3828497D01*
X1710100Y3847190D01*
X1700489Y3870394D01*
X1686536Y3891276D01*
X1668776Y3909036D01*
X1647894Y3922989D01*
X1624690Y3932600D01*
X1600058Y3937500D01*
X1574942Y3937500D01*
X1550310Y3932600D01*
X1527106Y3922989D01*
X1506223Y3909036D01*
X1488464Y3891276D01*
X1474511Y3870394D01*
X1464900Y3847190D01*
X1460000Y3822558D01*
X1460000Y3797442D01*
X1464900Y3772810D01*
X1474511Y3749606D01*
X1488464Y3728723D01*
X1506223Y3710964D01*
X1527106Y3697011D01*
X1550310Y3687400D01*
X1574942Y3682500D01*
X1600058Y3682500D01*
X1624690Y3687400D01*
X1647894Y3697011D01*
X1668776Y3710964D01*
X1686536Y3728723D01*
X1700489Y3749606D01*
X1710100Y3772810D01*
X1713819Y3791503D01*
X1713819Y3720000D01*
X1714543Y3712649D01*
X1716687Y3705580D01*
X1720169Y3699065D01*
X1724855Y3693355D01*
X1730565Y3688669D01*
X1737080Y3685187D01*
X1744149Y3683043D01*
X1751500Y3682319D01*
X1779000Y3682319D01*
X1779000Y3352285D01*
X1772851Y3367131D01*
X1757803Y3389651D01*
X1738651Y3408803D01*
X1716131Y3423851D01*
X1691107Y3434216D01*
X1664543Y3439500D01*
X1637457Y3439500D01*
X1610893Y3434216D01*
X1585869Y3423851D01*
X1563349Y3408803D01*
X1544197Y3389651D01*
X1529149Y3367131D01*
X1518784Y3342107D01*
X1513500Y3315543D01*
X1513500Y3288457D01*
X1518784Y3261893D01*
X1529149Y3236869D01*
X1544197Y3214349D01*
X1563349Y3195197D01*
X1585869Y3180149D01*
X1588500Y3179059D01*
X1588500Y3110500D01*
X597388Y3110500D01*
X507000Y3200888D01*
X507000Y3251715D01*
X513149Y3236869D01*
X528197Y3214349D01*
X547349Y3195197D01*
X569869Y3180149D01*
X594893Y3169784D01*
X621457Y3164500D01*
X648543Y3164500D01*
X675107Y3169784D01*
X700131Y3180149D01*
X722651Y3195197D01*
X741803Y3214349D01*
X756851Y3236869D01*
X762000Y3249300D01*
X767149Y3236869D01*
X782197Y3214349D01*
X801349Y3195197D01*
X823869Y3180149D01*
X848893Y3169784D01*
X875457Y3164500D01*
X902543Y3164500D01*
X929107Y3169784D01*
X954131Y3180149D01*
X976651Y3195197D01*
X995803Y3214349D01*
X1010851Y3236869D01*
X1021216Y3261893D01*
X1026500Y3288457D01*
X1026500Y3315543D01*
X1021216Y3342107D01*
X1010851Y3367131D01*
X995803Y3389651D01*
X976651Y3408803D01*
X954131Y3423851D01*
X929107Y3434216D01*
X902543Y3439500D01*
X875457Y3439500D01*
X848893Y3434216D01*
X823869Y3423851D01*
X801349Y3408803D01*
X782197Y3389651D01*
X767149Y3367131D01*
X762000Y3354700D01*
X756851Y3367131D01*
X741803Y3389651D01*
X722651Y3408803D01*
X700131Y3423851D01*
X697500Y3424941D01*
X697500Y3466612D01*
X740523Y3509635D01*
X742908Y3511592D01*
X744865Y3513976D01*
X744865Y3513977D01*
X750718Y3521109D01*
X756522Y3531966D01*
X756522Y3531967D01*
X760096Y3543748D01*
X761000Y3552930D01*
X761000Y3552930D01*
X761302Y3556000D01*
X761000Y3559070D01*
X761000Y3681647D01*
X765999Y3683718D01*
X789338Y3699313D01*
X809187Y3719161D01*
X824782Y3742501D01*
X825500Y3744235D01*
X826218Y3742501D01*
X841813Y3719161D01*
X861661Y3699313D01*
X885001Y3683718D01*
X910934Y3672976D01*
X938465Y3667500D01*
X966535Y3667500D01*
X994066Y3672976D01*
X1019999Y3683718D01*
X1039510Y3696755D01*
X1039904Y3692748D01*
X1043478Y3680967D01*
X1049282Y3670109D01*
X1057092Y3660592D01*
X1066609Y3652782D01*
X1077467Y3646978D01*
X1089248Y3643404D01*
X1101500Y3642198D01*
X1178375Y3642500D01*
X1194000Y3658125D01*
X1194000Y3797500D01*
X1219000Y3797500D01*
X1219000Y3658125D01*
X1234625Y3642500D01*
X1311500Y3642198D01*
X1323752Y3643404D01*
X1335533Y3646978D01*
X1346391Y3652782D01*
X1355908Y3660592D01*
X1363718Y3670109D01*
X1369522Y3680967D01*
X1373096Y3692748D01*
X1374302Y3705000D01*
X1374000Y3781875D01*
X1358375Y3797500D01*
X1219000Y3797500D01*
X1194000Y3797500D01*
X1192000Y3797500D01*
X1192000Y3822500D01*
X1194000Y3822500D01*
X1194000Y3961875D01*
X1219000Y3961875D01*
X1219000Y3822500D01*
X1358375Y3822500D01*
X1374000Y3838125D01*
X1374302Y3915000D01*
X1373096Y3927252D01*
X1369522Y3939033D01*
X1363718Y3949891D01*
X1357513Y3957452D01*
X2002500Y3957452D01*
X2002500Y3918548D01*
X2010090Y3880391D01*
X2024978Y3844449D01*
X2046592Y3812101D01*
X2074101Y3784592D01*
X2106449Y3762978D01*
X2142391Y3748090D01*
X2180548Y3740500D01*
X2219452Y3740500D01*
X2257609Y3748090D01*
X2293551Y3762978D01*
X2325899Y3784592D01*
X2353408Y3812101D01*
X2375022Y3844449D01*
X2389910Y3880391D01*
X2397500Y3918548D01*
X2397500Y3957452D01*
X2389910Y3995609D01*
X2375022Y4031551D01*
X2353408Y4063899D01*
X2325899Y4091408D01*
X2293551Y4113022D01*
X2257609Y4127910D01*
X2219452Y4135500D01*
X2180548Y4135500D01*
X2142391Y4127910D01*
X2106449Y4113022D01*
X2074101Y4091408D01*
X2046592Y4063899D01*
X2024978Y4031551D01*
X2010090Y3995609D01*
X2002500Y3957452D01*
X1357513Y3957452D01*
X1355908Y3959408D01*
X1346391Y3967218D01*
X1335533Y3973022D01*
X1323752Y3976596D01*
X1311500Y3977802D01*
X1234625Y3977500D01*
X1219000Y3961875D01*
X1194000Y3961875D01*
X1178375Y3977500D01*
X1101500Y3977802D01*
X1089248Y3976596D01*
X1077467Y3973022D01*
X1066609Y3967218D01*
X1057092Y3959408D01*
X1049282Y3949891D01*
X1043478Y3939033D01*
X1039904Y3927252D01*
X1039510Y3923245D01*
X1019999Y3936282D01*
X994066Y3947024D01*
X966535Y3952500D01*
X938465Y3952500D01*
X910934Y3947024D01*
X885001Y3936282D01*
X861661Y3920687D01*
X841813Y3900838D01*
X826218Y3877499D01*
X825500Y3875765D01*
X824782Y3877499D01*
X809187Y3900838D01*
X789338Y3920687D01*
X765999Y3936282D01*
X740066Y3947024D01*
X712535Y3952500D01*
X684465Y3952500D01*
X656934Y3947024D01*
X631001Y3936282D01*
X607662Y3920687D01*
X587813Y3900838D01*
X572218Y3877499D01*
X571500Y3875765D01*
X570782Y3877499D01*
X555187Y3900838D01*
X535339Y3920687D01*
X511999Y3936282D01*
X486066Y3947024D01*
X458535Y3952500D01*
X430465Y3952500D01*
X402934Y3947024D01*
X377001Y3936282D01*
X353661Y3920687D01*
X333813Y3900838D01*
X318218Y3877499D01*
X307476Y3851566D01*
X302000Y3824035D01*
X241382Y3824035D01*
X255022Y3844449D01*
X269910Y3880391D01*
X277500Y3918548D01*
X277500Y3957452D01*
X269910Y3995609D01*
X255022Y4031551D01*
X233408Y4063899D01*
X205899Y4091408D01*
X173551Y4113022D01*
X137609Y4127910D01*
X99452Y4135500D01*
X60548Y4135500D01*
X22391Y4127910D01*
X-13551Y4113022D01*
X-45899Y4091408D01*
X-73408Y4063899D01*
X-95022Y4031551D01*
X-109910Y3995609D01*
X-117500Y3957452D01*
X-147000Y3957452D01*
X-147000Y4061383D01*
X-145205Y4079689D01*
X-140507Y4095251D01*
X-132875Y4109604D01*
X-122601Y4122201D01*
X-110076Y4132563D01*
X-95777Y4140294D01*
X-80248Y4145101D01*
X-62077Y4147011D01*
X2347372Y4147011D01*
X2365678Y4145216D01*
G36*
X2044500Y3314500D02*
G01*
X2046500Y3314500D01*
X2046500Y3289500D01*
X2044500Y3289500D01*
X2044500Y3287500D01*
X2019500Y3287500D01*
X2019500Y3289500D01*
X2017500Y3289500D01*
X2017500Y3314500D01*
X2019500Y3314500D01*
X2019500Y3316500D01*
X2044500Y3316500D01*
X2044500Y3314500D01*
G37*
X2044500Y3314500D02*
X2046500Y3314500D01*
X2046500Y3289500D01*
X2044500Y3289500D01*
X2044500Y3287500D01*
X2019500Y3287500D01*
X2019500Y3289500D01*
X2017500Y3289500D01*
X2017500Y3314500D01*
X2019500Y3314500D01*
X2019500Y3316500D01*
X2044500Y3316500D01*
X2044500Y3314500D01*
D32*
X444500Y3810000D03*
X698500Y3810000D03*
X952500Y3810000D03*
X1206500Y3810000D03*
X444500Y3810000D03*
X952500Y3810000D03*
X1206500Y3810000D03*
X762000Y-444500D03*
X1016000Y-444500D03*
X1270000Y-444500D03*
X1524000Y-444500D03*
X698500Y1905000D03*
X952500Y1905000D03*
X1206500Y1905000D03*
X1460500Y1905000D03*
X1778000Y2540000D03*
X1778000Y1778000D03*
X1587500Y3810000D03*
X1841500Y3810000D03*
X1460500Y2413000D03*
X1206500Y2413000D03*
X1333500Y2413000D03*
X254000Y2540000D03*
X254000Y3302000D03*
X635000Y3302000D03*
X889000Y3302000D03*
X635000Y2794000D03*
X889000Y2794000D03*
X1651000Y3302000D03*
X1651000Y2794000D03*
X2032000Y762000D03*
X2032000Y1524000D03*
X2032000Y0D03*
X2032000Y762000D03*
X889000Y2413000D03*
X635000Y2413000D03*
X762000Y2413000D03*
X254000Y508000D03*
X254000Y762000D03*
X254000Y1016000D03*
X75000Y-425000D03*
X2200000Y-425000D03*
X2200000Y3938000D03*
X80000Y3938000D03*
X2286000Y254000D03*
X2286000Y762000D03*
X2286000Y508000D03*
X2286000Y2540000D03*
X2286000Y2286000D03*
X2286000Y1778000D03*
X2286000Y2032000D03*
X2286000Y3556000D03*
X2286000Y1524000D03*
X2286000Y1016000D03*
X2286000Y1270000D03*
X2286000Y2794000D03*
X2286000Y3302000D03*
X2286000Y3048000D03*
X2286000Y0D03*
X0Y3556000D03*
X0Y3302000D03*
X0Y3048000D03*
X0Y2794000D03*
X0Y2540000D03*
X0Y2286000D03*
X0Y2032000D03*
X0Y1778000D03*
X0Y1524000D03*
X0Y1270000D03*
X0Y1016000D03*
X0Y762000D03*
X0Y508000D03*
X0Y254000D03*
X0Y0D03*
X889000Y-127000D03*
X1143000Y-127000D03*
X1397000Y-127000D03*
X254000Y2286000D03*
X254000Y1524000D03*
X2032000Y2794000D03*
X2032000Y3048000D03*
X2032000Y3302000D03*
X2032000Y3556000D03*
M02*
