%TF.GenerationSoftware,KiCad,Pcbnew,5.1.5+dfsg1-2~bpo10+1*%
%TF.CreationDate,2020-10-04T09:46:05+00:00*%
%TF.ProjectId,PIS,5049532e-6b69-4636-9164-5f7063625858,rev?*%
%TF.SameCoordinates,Original*%
%TF.FileFunction,Copper,L2,Bot*%
%TF.FilePolarity,Positive*%
%FSLAX45Y45*%
G04 Gerber Fmt 4.5, Leading zero omitted, Abs format (unit mm)*
G04 Created by KiCad (PCBNEW 5.1.5+dfsg1-2~bpo10+1) date 2020-10-04 09:46:05*
%MOMM*%
%LPD*%
G04 APERTURE LIST*
%ADD10C,0.120000*%
%ADD11C,2.100000*%
%ADD12R,2.100000X2.100000*%
%ADD13C,1.400000*%
%ADD14C,0.150000*%
%ADD15O,1.700000X1.700000*%
%ADD16R,1.700000X1.700000*%
%ADD17O,1.000000X1.000000*%
%ADD18R,1.000000X1.000000*%
%ADD19O,1.400000X1.400000*%
%ADD20C,1.800000*%
%ADD21R,1.800000X1.800000*%
%ADD22R,1.050000X1.500000*%
%ADD23O,1.050000X1.500000*%
%ADD24O,1.600000X1.600000*%
%ADD25R,1.600000X1.600000*%
%ADD26C,2.000000*%
%ADD27R,2.000000X2.000000*%
%ADD28C,2.032000*%
%ADD29R,2.032000X2.032000*%
%ADD30C,0.500000*%
%ADD31C,0.250000*%
%ADD32C,0.350000*%
G04 APERTURE END LIST*
D10*
X-190500Y507511D02*
G75*
G02X-63500Y634511I127000J0D01*
G01*
X2476500Y-4127500D02*
G75*
G02X2349500Y-4254500I-127000J0D01*
G01*
X2349500Y634511D02*
G75*
G02X2476500Y507511I0J-127000D01*
G01*
X-63500Y-4254989D02*
G75*
G02X-190500Y-4127989I0J127000D01*
G01*
X2476500Y-4127500D02*
X2476500Y508000D01*
X-63500Y-4254500D02*
X2349500Y-4254500D01*
X-190500Y508000D02*
X-190500Y-4127500D01*
X2349500Y634511D02*
X-63500Y634511D01*
D11*
X444500Y254000D03*
X698500Y254000D03*
X952500Y254000D03*
D12*
X1206500Y254000D03*
D13*
X444500Y254000D03*
X952500Y254000D03*
%TA.AperFunction,ComponentPad*%
D14*
G36*
X1254023Y323880D02*
G01*
X1256442Y323521D01*
X1258814Y322927D01*
X1261117Y322103D01*
X1263327Y321058D01*
X1265425Y319800D01*
X1267389Y318343D01*
X1269201Y316701D01*
X1270843Y314889D01*
X1272300Y312925D01*
X1273558Y310827D01*
X1274603Y308617D01*
X1275427Y306314D01*
X1276021Y303942D01*
X1276380Y301523D01*
X1276500Y299080D01*
X1276500Y208920D01*
X1276380Y206477D01*
X1276021Y204058D01*
X1275427Y201686D01*
X1274603Y199383D01*
X1273558Y197173D01*
X1272300Y195075D01*
X1270843Y193111D01*
X1269201Y191299D01*
X1267389Y189657D01*
X1265425Y188200D01*
X1263327Y186942D01*
X1261117Y185897D01*
X1258814Y185073D01*
X1256442Y184479D01*
X1254023Y184120D01*
X1251580Y184000D01*
X1161420Y184000D01*
X1158977Y184120D01*
X1156558Y184479D01*
X1154186Y185073D01*
X1151884Y185897D01*
X1149673Y186942D01*
X1147575Y188200D01*
X1145611Y189657D01*
X1143799Y191299D01*
X1142157Y193111D01*
X1140700Y195075D01*
X1139443Y197173D01*
X1138397Y199383D01*
X1137573Y201686D01*
X1136979Y204058D01*
X1136620Y206477D01*
X1136500Y208920D01*
X1136500Y299080D01*
X1136620Y301523D01*
X1136979Y303942D01*
X1137573Y306314D01*
X1138397Y308617D01*
X1139443Y310827D01*
X1140700Y312925D01*
X1142157Y314889D01*
X1143799Y316701D01*
X1145611Y318343D01*
X1147575Y319800D01*
X1149673Y321058D01*
X1151884Y322103D01*
X1154186Y322927D01*
X1156558Y323521D01*
X1158977Y323880D01*
X1161420Y324000D01*
X1251580Y324000D01*
X1254023Y323880D01*
G37*
%TD.AperFunction*%
D15*
X762000Y-4000500D03*
X1016000Y-4000500D03*
X1270000Y-4000500D03*
D16*
X1524000Y-4000500D03*
D17*
X698500Y-1651000D03*
X952500Y-1651000D03*
X1206500Y-1651000D03*
D18*
X1460500Y-1651000D03*
D19*
X1778000Y-1016000D03*
D13*
X1778000Y-1778000D03*
D20*
X1587500Y254000D03*
D21*
X1841500Y254000D03*
D22*
X1460500Y-1143000D03*
D23*
X1206500Y-1143000D03*
X1333500Y-1143000D03*
D24*
X254000Y-1016000D03*
D25*
X254000Y-254000D03*
D26*
X635000Y-254000D03*
X889000Y-254000D03*
D27*
X635000Y-762000D03*
D26*
X889000Y-762000D03*
X1651000Y-254000D03*
X1651000Y-762000D03*
D19*
X2032000Y-2794000D03*
D13*
X2032000Y-2032000D03*
D19*
X2032000Y-3556000D03*
D13*
X2032000Y-2794000D03*
D22*
X889000Y-1143000D03*
D23*
X635000Y-1143000D03*
X762000Y-1143000D03*
D15*
X254000Y-3048000D03*
X254000Y-2794000D03*
D16*
X254000Y-2540000D03*
D28*
X2286000Y-3302000D03*
X2286000Y-2794000D03*
X2286000Y-3048000D03*
X2286000Y-1016000D03*
X2286000Y-1270000D03*
X2286000Y-1778000D03*
X2286000Y-1524000D03*
X2286000Y0D03*
X2286000Y-2032000D03*
X2286000Y-2540000D03*
X2286000Y-2286000D03*
X2286000Y-762000D03*
X2286000Y-254000D03*
X2286000Y-508000D03*
X2286000Y-3556000D03*
X0Y0D03*
X0Y-254000D03*
X0Y-508000D03*
X0Y-762000D03*
X0Y-1016000D03*
X0Y-1270000D03*
X0Y-1524000D03*
X0Y-1778000D03*
X0Y-2032000D03*
X0Y-2286000D03*
X0Y-2540000D03*
X0Y-2794000D03*
X0Y-3048000D03*
X0Y-3302000D03*
D29*
X0Y-3556000D03*
D15*
X889000Y-3683000D03*
X1143000Y-3683000D03*
D16*
X1397000Y-3683000D03*
D19*
X254000Y-1270000D03*
D13*
X254000Y-2032000D03*
D15*
X2032000Y-762000D03*
X2032000Y-508000D03*
X2032000Y-254000D03*
D16*
X2032000Y0D03*
D30*
X2032000Y-254000D02*
X2286000Y-254000D01*
X762000Y-4000500D02*
X762000Y-3810000D01*
X762000Y-3810000D02*
X889000Y-3683000D01*
X889000Y-3683000D02*
X762000Y-3556000D01*
X762000Y-3556000D02*
X0Y-3556000D01*
X2032000Y-762000D02*
X2286000Y-762000D01*
X2286000Y-508000D02*
X2032000Y-508000D01*
X2032000Y-3048000D02*
X1206500Y-2222500D01*
X2286000Y-3048000D02*
X2032000Y-3048000D01*
X1206500Y-1651000D02*
X1206500Y-2222500D01*
X635000Y-254000D02*
X635000Y-63500D01*
X635000Y-63500D02*
X698500Y0D01*
X698500Y0D02*
X698500Y254000D01*
X762000Y-1397000D02*
X762000Y-1143000D01*
X825500Y-2286000D02*
X825500Y-1460500D01*
X825500Y-1460500D02*
X762000Y-1397000D01*
X1841500Y-3302000D02*
X825500Y-2286000D01*
X2286000Y-3302000D02*
X1841500Y-3302000D01*
X889000Y-1143000D02*
X889000Y-952500D01*
X889000Y-952500D02*
X889000Y-762000D01*
X889000Y-952500D02*
X508000Y-952500D01*
X508000Y-952500D02*
X444500Y-1016000D01*
X444500Y-1016000D02*
X254000Y-1016000D01*
X1841500Y254000D02*
X1841500Y-952500D01*
X1841500Y-952500D02*
X1778000Y-1016000D01*
X1333500Y-1778000D02*
X1333500Y-1143000D01*
X2286000Y-2794000D02*
X1333500Y-1841500D01*
X1333500Y-1841500D02*
X1333500Y-1778000D01*
X1587500Y-1143000D02*
X1460500Y-1143000D01*
X1587500Y-1143000D02*
X1778000Y-1333500D01*
X1778000Y-1778000D02*
X1778000Y-1333500D01*
X1651000Y-4191000D02*
X2000250Y-3841750D01*
X1016000Y-4000500D02*
X1206500Y-4191000D01*
X2000250Y-3841750D02*
X2286000Y-3556000D01*
X1206500Y-4191000D02*
X1651000Y-4191000D01*
X1651000Y-508000D02*
X571500Y-508000D01*
X1651000Y-762000D02*
X1651000Y-508000D01*
X1651000Y-508000D02*
X1651000Y-254000D01*
X571500Y-508000D02*
X444500Y-381000D01*
X444500Y-381000D02*
X444500Y254000D01*
D31*
G36*
X2365678Y589216D02*
G01*
X2381240Y584518D01*
X2395593Y576886D01*
X2408190Y566612D01*
X2418552Y554087D01*
X2426283Y539788D01*
X2431090Y524259D01*
X2433000Y506088D01*
X2433000Y-179882D01*
X2426366Y-167469D01*
X2400017Y-157660D01*
X2303678Y-254000D01*
X2400017Y-350340D01*
X2426366Y-340531D01*
X2433000Y-326944D01*
X2433000Y-1957882D01*
X2426366Y-1945469D01*
X2400017Y-1935660D01*
X2303678Y-2032000D01*
X2400017Y-2128340D01*
X2426366Y-2118531D01*
X2433000Y-2104944D01*
X2433000Y-4125372D01*
X2431205Y-4143678D01*
X2426507Y-4159240D01*
X2418875Y-4173593D01*
X2408601Y-4186190D01*
X2396076Y-4196552D01*
X2381777Y-4204283D01*
X2366248Y-4209090D01*
X2348078Y-4211000D01*
X1719388Y-4211000D01*
X2012277Y-3918111D01*
X2010090Y-3923391D01*
X2002500Y-3961548D01*
X2002500Y-4000452D01*
X2010090Y-4038609D01*
X2024978Y-4074551D01*
X2046592Y-4106899D01*
X2074101Y-4134408D01*
X2106449Y-4156022D01*
X2142391Y-4170910D01*
X2180548Y-4178500D01*
X2219452Y-4178500D01*
X2257609Y-4170910D01*
X2293551Y-4156022D01*
X2325899Y-4134408D01*
X2353408Y-4106899D01*
X2375022Y-4074551D01*
X2389910Y-4038609D01*
X2397500Y-4000452D01*
X2397500Y-3961548D01*
X2389910Y-3923391D01*
X2375022Y-3887449D01*
X2353408Y-3855101D01*
X2325899Y-3827592D01*
X2293551Y-3805978D01*
X2257609Y-3791090D01*
X2219452Y-3783500D01*
X2180548Y-3783500D01*
X2142391Y-3791090D01*
X2137111Y-3793277D01*
X2242038Y-3688351D01*
X2245426Y-3689754D01*
X2272300Y-3695100D01*
X2299700Y-3695100D01*
X2326574Y-3689754D01*
X2351889Y-3679269D01*
X2374671Y-3664046D01*
X2394046Y-3644671D01*
X2409269Y-3621888D01*
X2419754Y-3596574D01*
X2425100Y-3569700D01*
X2425100Y-3542300D01*
X2419754Y-3515426D01*
X2409269Y-3490111D01*
X2394046Y-3467329D01*
X2374671Y-3447954D01*
X2351889Y-3432731D01*
X2342881Y-3429000D01*
X2351889Y-3425269D01*
X2374671Y-3410046D01*
X2394046Y-3390671D01*
X2409269Y-3367888D01*
X2419754Y-3342574D01*
X2425100Y-3315700D01*
X2425100Y-3288300D01*
X2419754Y-3261426D01*
X2409269Y-3236111D01*
X2394046Y-3213329D01*
X2374671Y-3193954D01*
X2351889Y-3178731D01*
X2342881Y-3175000D01*
X2351889Y-3171269D01*
X2374671Y-3156046D01*
X2394046Y-3136671D01*
X2409269Y-3113888D01*
X2419754Y-3088574D01*
X2425100Y-3061700D01*
X2425100Y-3034300D01*
X2419754Y-3007426D01*
X2409269Y-2982111D01*
X2394046Y-2959329D01*
X2374671Y-2939954D01*
X2351889Y-2924731D01*
X2342881Y-2921000D01*
X2351889Y-2917269D01*
X2374671Y-2902046D01*
X2394046Y-2882671D01*
X2409269Y-2859888D01*
X2419754Y-2834574D01*
X2425100Y-2807700D01*
X2425100Y-2780300D01*
X2419754Y-2753426D01*
X2409269Y-2728112D01*
X2394046Y-2705329D01*
X2374671Y-2685954D01*
X2351889Y-2670731D01*
X2342881Y-2667000D01*
X2351889Y-2663269D01*
X2374671Y-2648046D01*
X2394046Y-2628671D01*
X2409269Y-2605889D01*
X2419754Y-2580574D01*
X2425100Y-2553700D01*
X2425100Y-2526300D01*
X2419754Y-2499426D01*
X2409269Y-2474112D01*
X2394046Y-2451329D01*
X2374671Y-2431954D01*
X2351889Y-2416731D01*
X2342881Y-2413000D01*
X2351889Y-2409269D01*
X2374671Y-2394046D01*
X2394046Y-2374671D01*
X2409269Y-2351889D01*
X2419754Y-2326574D01*
X2425100Y-2299700D01*
X2425100Y-2272300D01*
X2419754Y-2245426D01*
X2409269Y-2220112D01*
X2394046Y-2197329D01*
X2374671Y-2177954D01*
X2369073Y-2174214D01*
X2372531Y-2172366D01*
X2382340Y-2146017D01*
X2286000Y-2049678D01*
X2189660Y-2146017D01*
X2199469Y-2172366D01*
X2203065Y-2174121D01*
X2197329Y-2177954D01*
X2177954Y-2197329D01*
X2162731Y-2220112D01*
X2152246Y-2245426D01*
X2146900Y-2272300D01*
X2146900Y-2299700D01*
X2152246Y-2326574D01*
X2162731Y-2351889D01*
X2177954Y-2374671D01*
X2197329Y-2394046D01*
X2220112Y-2409269D01*
X2229119Y-2413000D01*
X2220112Y-2416731D01*
X2197329Y-2431954D01*
X2177954Y-2451329D01*
X2162731Y-2474112D01*
X2152246Y-2499426D01*
X2146900Y-2526300D01*
X2146900Y-2553700D01*
X2150081Y-2569693D01*
X1703852Y-2123464D01*
X1958214Y-2123464D01*
X1964200Y-2146585D01*
X1987857Y-2157610D01*
X2013211Y-2163809D01*
X2039286Y-2164942D01*
X2065082Y-2160966D01*
X2089606Y-2152034D01*
X2099800Y-2146585D01*
X2105786Y-2123464D01*
X2032000Y-2049678D01*
X1958214Y-2123464D01*
X1703852Y-2123464D01*
X1619675Y-2039286D01*
X1899058Y-2039286D01*
X1903034Y-2065082D01*
X1911966Y-2089606D01*
X1917415Y-2099800D01*
X1940536Y-2105786D01*
X2014322Y-2032000D01*
X2049678Y-2032000D01*
X2123464Y-2105786D01*
X2136955Y-2102293D01*
X2145635Y-2118531D01*
X2171983Y-2128340D01*
X2268322Y-2032000D01*
X2171983Y-1935660D01*
X2145635Y-1945469D01*
X2137621Y-1961879D01*
X2123464Y-1958214D01*
X2049678Y-2032000D01*
X2014322Y-2032000D01*
X1940536Y-1958214D01*
X1917415Y-1964200D01*
X1906390Y-1987857D01*
X1900191Y-2013211D01*
X1899058Y-2039286D01*
X1619675Y-2039286D01*
X1520924Y-1940536D01*
X1958214Y-1940536D01*
X2032000Y-2014322D01*
X2105786Y-1940536D01*
X2099800Y-1917415D01*
X2076143Y-1906390D01*
X2050789Y-1900191D01*
X2024714Y-1899058D01*
X1998918Y-1903034D01*
X1974394Y-1911966D01*
X1964200Y-1917415D01*
X1958214Y-1940536D01*
X1520924Y-1940536D01*
X1396000Y-1815612D01*
X1396000Y-1735770D01*
X1396080Y-1735813D01*
X1403149Y-1737957D01*
X1410500Y-1738681D01*
X1510500Y-1738681D01*
X1517851Y-1737957D01*
X1524920Y-1735813D01*
X1531435Y-1732331D01*
X1537145Y-1727645D01*
X1541831Y-1721935D01*
X1545313Y-1715420D01*
X1547457Y-1708351D01*
X1548181Y-1701000D01*
X1548181Y-1601000D01*
X1547457Y-1593649D01*
X1545313Y-1586580D01*
X1541831Y-1580065D01*
X1537145Y-1574355D01*
X1531435Y-1569669D01*
X1524920Y-1566187D01*
X1517851Y-1564043D01*
X1510500Y-1563319D01*
X1410500Y-1563319D01*
X1403149Y-1564043D01*
X1396080Y-1566187D01*
X1396000Y-1566230D01*
X1396000Y-1253547D01*
X1400649Y-1254957D01*
X1408000Y-1255681D01*
X1513000Y-1255681D01*
X1520351Y-1254957D01*
X1527420Y-1252813D01*
X1533935Y-1249331D01*
X1539645Y-1244645D01*
X1544331Y-1238935D01*
X1547813Y-1232420D01*
X1549957Y-1225351D01*
X1550681Y-1218000D01*
X1550681Y-1205500D01*
X1561612Y-1205500D01*
X1715500Y-1359388D01*
X1715500Y-1690472D01*
X1709473Y-1694499D01*
X1694499Y-1709473D01*
X1682735Y-1727080D01*
X1674631Y-1746643D01*
X1670500Y-1767412D01*
X1670500Y-1788588D01*
X1674631Y-1809357D01*
X1682735Y-1828920D01*
X1694499Y-1846527D01*
X1709473Y-1861501D01*
X1727080Y-1873265D01*
X1746643Y-1881369D01*
X1767412Y-1885500D01*
X1788588Y-1885500D01*
X1809357Y-1881369D01*
X1828920Y-1873265D01*
X1846527Y-1861501D01*
X1861501Y-1846527D01*
X1873265Y-1828920D01*
X1881369Y-1809357D01*
X1885500Y-1788588D01*
X1885500Y-1767412D01*
X1881369Y-1746643D01*
X1873265Y-1727080D01*
X1861501Y-1709473D01*
X1846527Y-1694499D01*
X1840500Y-1690472D01*
X1840500Y-1336570D01*
X1840802Y-1333500D01*
X1840500Y-1330430D01*
X1839596Y-1321248D01*
X1836022Y-1309467D01*
X1830218Y-1298609D01*
X1822408Y-1289092D01*
X1820023Y-1287135D01*
X1633866Y-1100978D01*
X1631908Y-1098592D01*
X1622391Y-1090782D01*
X1611533Y-1084978D01*
X1599752Y-1081404D01*
X1590570Y-1080500D01*
X1590569Y-1080500D01*
X1587500Y-1080198D01*
X1584431Y-1080500D01*
X1550681Y-1080500D01*
X1550681Y-1068000D01*
X1549957Y-1060649D01*
X1547813Y-1053580D01*
X1544331Y-1047065D01*
X1539645Y-1041355D01*
X1533935Y-1036669D01*
X1527420Y-1033187D01*
X1520351Y-1031043D01*
X1513000Y-1030319D01*
X1408000Y-1030319D01*
X1400649Y-1031043D01*
X1393580Y-1033187D01*
X1387065Y-1036669D01*
X1381355Y-1041355D01*
X1379830Y-1043214D01*
X1368108Y-1036949D01*
X1351143Y-1031802D01*
X1333500Y-1030065D01*
X1315857Y-1031802D01*
X1298892Y-1036949D01*
X1290553Y-1041406D01*
X1282504Y-1032903D01*
X1263954Y-1019758D01*
X1243196Y-1010485D01*
X1236730Y-1009544D01*
X1219000Y-1021914D01*
X1219000Y-1130500D01*
X1221000Y-1130500D01*
X1221000Y-1155500D01*
X1219000Y-1155500D01*
X1219000Y-1264086D01*
X1236730Y-1276456D01*
X1243196Y-1275515D01*
X1263954Y-1266242D01*
X1271000Y-1261249D01*
X1271000Y-1591756D01*
X1262278Y-1583034D01*
X1247947Y-1573458D01*
X1232023Y-1566863D01*
X1215118Y-1563500D01*
X1197882Y-1563500D01*
X1180977Y-1566863D01*
X1165053Y-1573458D01*
X1150722Y-1583034D01*
X1138534Y-1595222D01*
X1128959Y-1609553D01*
X1122363Y-1625477D01*
X1119000Y-1642382D01*
X1119000Y-1659618D01*
X1122363Y-1676523D01*
X1128959Y-1692447D01*
X1138534Y-1706778D01*
X1144000Y-1712244D01*
X1144000Y-2219430D01*
X1143698Y-2222500D01*
X1144000Y-2225570D01*
X1144904Y-2234752D01*
X1148478Y-2246533D01*
X1154282Y-2257391D01*
X1162092Y-2266908D01*
X1164477Y-2268865D01*
X1985635Y-3090023D01*
X1987592Y-3092408D01*
X1997109Y-3100218D01*
X2007967Y-3106022D01*
X2019748Y-3109596D01*
X2028930Y-3110500D01*
X2028931Y-3110500D01*
X2032000Y-3110802D01*
X2035069Y-3110500D01*
X2161328Y-3110500D01*
X2162731Y-3113888D01*
X2177954Y-3136671D01*
X2197329Y-3156046D01*
X2220112Y-3171269D01*
X2229119Y-3175000D01*
X2220112Y-3178731D01*
X2197329Y-3193954D01*
X2177954Y-3213329D01*
X2162731Y-3236111D01*
X2161328Y-3239500D01*
X1867388Y-3239500D01*
X888000Y-2260112D01*
X888000Y-1710244D01*
X896722Y-1718966D01*
X911053Y-1728541D01*
X926977Y-1735137D01*
X943882Y-1738500D01*
X961118Y-1738500D01*
X978023Y-1735137D01*
X993947Y-1728541D01*
X1008278Y-1718966D01*
X1020466Y-1706778D01*
X1030041Y-1692447D01*
X1036637Y-1676523D01*
X1040000Y-1659618D01*
X1040000Y-1642382D01*
X1036637Y-1625477D01*
X1030041Y-1609553D01*
X1020466Y-1595222D01*
X1008278Y-1583034D01*
X993947Y-1573458D01*
X978023Y-1566863D01*
X961118Y-1563500D01*
X943882Y-1563500D01*
X926977Y-1566863D01*
X911053Y-1573458D01*
X896722Y-1583034D01*
X888000Y-1591756D01*
X888000Y-1463570D01*
X888302Y-1460500D01*
X888000Y-1457430D01*
X887096Y-1448248D01*
X883522Y-1436467D01*
X880300Y-1430440D01*
X877718Y-1425609D01*
X871865Y-1418477D01*
X871865Y-1418476D01*
X869908Y-1416092D01*
X867523Y-1414135D01*
X824500Y-1371112D01*
X824500Y-1253547D01*
X829149Y-1254957D01*
X836500Y-1255681D01*
X941500Y-1255681D01*
X948851Y-1254957D01*
X955920Y-1252813D01*
X962435Y-1249331D01*
X968145Y-1244645D01*
X972831Y-1238935D01*
X976313Y-1232420D01*
X978457Y-1225351D01*
X979181Y-1218000D01*
X979181Y-1173698D01*
X1090817Y-1173698D01*
X1094639Y-1196109D01*
X1102760Y-1217344D01*
X1114867Y-1236587D01*
X1130496Y-1253097D01*
X1149046Y-1266242D01*
X1169804Y-1275515D01*
X1176271Y-1276456D01*
X1194000Y-1264086D01*
X1194000Y-1155500D01*
X1106583Y-1155500D01*
X1090817Y-1173698D01*
X979181Y-1173698D01*
X979181Y-1112302D01*
X1090817Y-1112302D01*
X1106583Y-1130500D01*
X1194000Y-1130500D01*
X1194000Y-1021914D01*
X1176271Y-1009544D01*
X1169804Y-1010485D01*
X1149046Y-1019758D01*
X1130496Y-1032903D01*
X1114867Y-1049414D01*
X1102760Y-1068656D01*
X1094639Y-1089891D01*
X1090817Y-1112302D01*
X979181Y-1112302D01*
X979181Y-1068000D01*
X978457Y-1060649D01*
X976313Y-1053580D01*
X972831Y-1047065D01*
X968145Y-1041355D01*
X962435Y-1036669D01*
X955920Y-1033187D01*
X951500Y-1031846D01*
X951500Y-955570D01*
X951802Y-952500D01*
X951500Y-949430D01*
X951500Y-884941D01*
X954131Y-883851D01*
X976651Y-868803D01*
X995803Y-849651D01*
X1010851Y-827131D01*
X1021216Y-802107D01*
X1026500Y-775543D01*
X1026500Y-748457D01*
X1021216Y-721893D01*
X1010851Y-696869D01*
X995803Y-674349D01*
X976651Y-655197D01*
X954131Y-640149D01*
X929107Y-629784D01*
X902543Y-624500D01*
X875457Y-624500D01*
X848893Y-629784D01*
X823869Y-640149D01*
X801349Y-655197D01*
X782197Y-674349D01*
X772681Y-688590D01*
X772681Y-662000D01*
X771957Y-654649D01*
X769813Y-647580D01*
X766331Y-641065D01*
X761645Y-635355D01*
X755935Y-630669D01*
X749420Y-627187D01*
X742351Y-625043D01*
X735000Y-624319D01*
X535000Y-624319D01*
X527649Y-625043D01*
X520580Y-627187D01*
X514065Y-630669D01*
X508355Y-635355D01*
X503669Y-641065D01*
X500187Y-647580D01*
X498043Y-654649D01*
X497319Y-662000D01*
X497319Y-862000D01*
X498043Y-869351D01*
X500187Y-876420D01*
X503669Y-882935D01*
X508355Y-888645D01*
X509861Y-889881D01*
X508000Y-889698D01*
X504930Y-890000D01*
X504930Y-890000D01*
X495748Y-890904D01*
X483967Y-894478D01*
X479598Y-896813D01*
X473109Y-900282D01*
X465977Y-906135D01*
X465976Y-906135D01*
X463592Y-908092D01*
X461635Y-910477D01*
X418612Y-953500D01*
X353555Y-953500D01*
X345268Y-941098D01*
X328902Y-924732D01*
X309657Y-911873D01*
X288274Y-903015D01*
X265573Y-898500D01*
X242427Y-898500D01*
X219726Y-903015D01*
X198343Y-911873D01*
X179098Y-924732D01*
X162732Y-941098D01*
X149873Y-960343D01*
X141016Y-981726D01*
X138012Y-996828D01*
X133754Y-975426D01*
X123269Y-950111D01*
X108046Y-927329D01*
X88671Y-907954D01*
X65889Y-892731D01*
X56881Y-889000D01*
X65889Y-885269D01*
X88671Y-870046D01*
X108046Y-850671D01*
X123269Y-827888D01*
X133754Y-802574D01*
X139100Y-775700D01*
X139100Y-748300D01*
X133754Y-721426D01*
X123269Y-696112D01*
X108046Y-673329D01*
X88671Y-653954D01*
X65889Y-638731D01*
X56881Y-635000D01*
X65889Y-631269D01*
X88671Y-616046D01*
X108046Y-596671D01*
X123269Y-573889D01*
X133754Y-548574D01*
X139100Y-521700D01*
X139100Y-494300D01*
X133754Y-467426D01*
X123269Y-442111D01*
X108046Y-419329D01*
X88671Y-399954D01*
X83073Y-396214D01*
X86531Y-394365D01*
X96340Y-368017D01*
X0Y-271678D01*
X-96340Y-368017D01*
X-86531Y-394365D01*
X-82935Y-396121D01*
X-88671Y-399954D01*
X-108046Y-419329D01*
X-123269Y-442111D01*
X-133754Y-467426D01*
X-139100Y-494300D01*
X-139100Y-521700D01*
X-133754Y-548574D01*
X-123269Y-573889D01*
X-108046Y-596671D01*
X-88671Y-616046D01*
X-65889Y-631269D01*
X-56881Y-635000D01*
X-65889Y-638731D01*
X-88671Y-653954D01*
X-108046Y-673329D01*
X-123269Y-696112D01*
X-133754Y-721426D01*
X-139100Y-748300D01*
X-139100Y-775700D01*
X-133754Y-802574D01*
X-123269Y-827888D01*
X-108046Y-850671D01*
X-88671Y-870046D01*
X-65889Y-885269D01*
X-56881Y-889000D01*
X-65889Y-892731D01*
X-88671Y-907954D01*
X-108046Y-927329D01*
X-123269Y-950111D01*
X-133754Y-975426D01*
X-139100Y-1002300D01*
X-139100Y-1029700D01*
X-133754Y-1056574D01*
X-123269Y-1081889D01*
X-108046Y-1104671D01*
X-88671Y-1124046D01*
X-83073Y-1127786D01*
X-86531Y-1129635D01*
X-96340Y-1155983D01*
X0Y-1252322D01*
X96340Y-1155983D01*
X86531Y-1129635D01*
X82935Y-1127879D01*
X88671Y-1124046D01*
X108046Y-1104671D01*
X123269Y-1081889D01*
X133754Y-1056574D01*
X138012Y-1035172D01*
X141016Y-1050274D01*
X149873Y-1071657D01*
X162732Y-1090902D01*
X179098Y-1107268D01*
X198343Y-1120127D01*
X219726Y-1128985D01*
X242427Y-1133500D01*
X265573Y-1133500D01*
X288274Y-1128985D01*
X309657Y-1120127D01*
X328902Y-1107268D01*
X345268Y-1090902D01*
X353555Y-1078500D01*
X441431Y-1078500D01*
X444500Y-1078802D01*
X447569Y-1078500D01*
X447570Y-1078500D01*
X456752Y-1077596D01*
X468533Y-1074022D01*
X479391Y-1068218D01*
X488908Y-1060408D01*
X490866Y-1058022D01*
X533888Y-1015000D01*
X588197Y-1015000D01*
X577546Y-1019758D01*
X558996Y-1032903D01*
X543367Y-1049414D01*
X531260Y-1068656D01*
X523139Y-1089891D01*
X519316Y-1112302D01*
X535083Y-1130500D01*
X622500Y-1130500D01*
X622500Y-1128500D01*
X647500Y-1128500D01*
X647500Y-1130500D01*
X649500Y-1130500D01*
X649500Y-1155500D01*
X647500Y-1155500D01*
X647500Y-1264086D01*
X665230Y-1276456D01*
X671696Y-1275515D01*
X692454Y-1266242D01*
X699500Y-1261249D01*
X699500Y-1393931D01*
X699198Y-1397000D01*
X699500Y-1400069D01*
X699500Y-1400070D01*
X700404Y-1409252D01*
X703978Y-1421033D01*
X709782Y-1431891D01*
X717592Y-1441408D01*
X719978Y-1443366D01*
X763000Y-1486388D01*
X763000Y-1559487D01*
X754104Y-1553201D01*
X733956Y-1544233D01*
X728336Y-1542528D01*
X711000Y-1554935D01*
X711000Y-1638500D01*
X713000Y-1638500D01*
X713000Y-1663500D01*
X711000Y-1663500D01*
X711000Y-1747065D01*
X728336Y-1759471D01*
X733956Y-1757767D01*
X754104Y-1748799D01*
X763000Y-1742513D01*
X763000Y-2282931D01*
X762698Y-2286000D01*
X763000Y-2289069D01*
X763000Y-2289070D01*
X763904Y-2298252D01*
X767478Y-2310033D01*
X773282Y-2320891D01*
X781092Y-2330408D01*
X783478Y-2332366D01*
X1795135Y-3344023D01*
X1797092Y-3346408D01*
X1806609Y-3354218D01*
X1817467Y-3360022D01*
X1829248Y-3363596D01*
X1838430Y-3364500D01*
X1838430Y-3364500D01*
X1841500Y-3364802D01*
X1844570Y-3364500D01*
X2161328Y-3364500D01*
X2162731Y-3367888D01*
X2177954Y-3390671D01*
X2197329Y-3410046D01*
X2220112Y-3425269D01*
X2229119Y-3429000D01*
X2220112Y-3432731D01*
X2197329Y-3447954D01*
X2177954Y-3467329D01*
X2162731Y-3490111D01*
X2152246Y-3515426D01*
X2146900Y-3542300D01*
X2146900Y-3569700D01*
X2152246Y-3596574D01*
X2153649Y-3599962D01*
X1958227Y-3795385D01*
X1625112Y-4128500D01*
X1342604Y-4128500D01*
X1346274Y-4126748D01*
X1369438Y-4109442D01*
X1388781Y-4087950D01*
X1401319Y-4066865D01*
X1401319Y-4085500D01*
X1402043Y-4092851D01*
X1404187Y-4099920D01*
X1407669Y-4106435D01*
X1412355Y-4112145D01*
X1418065Y-4116831D01*
X1424580Y-4120313D01*
X1431649Y-4122457D01*
X1439000Y-4123181D01*
X1609000Y-4123181D01*
X1616351Y-4122457D01*
X1623420Y-4120313D01*
X1629935Y-4116831D01*
X1635645Y-4112145D01*
X1640331Y-4106435D01*
X1643813Y-4099920D01*
X1645957Y-4092851D01*
X1646681Y-4085500D01*
X1646681Y-3915500D01*
X1645957Y-3908149D01*
X1643813Y-3901080D01*
X1640331Y-3894565D01*
X1635645Y-3888855D01*
X1629935Y-3884169D01*
X1623420Y-3880687D01*
X1616351Y-3878543D01*
X1609000Y-3877819D01*
X1439000Y-3877819D01*
X1431649Y-3878543D01*
X1424580Y-3880687D01*
X1418065Y-3884169D01*
X1412355Y-3888855D01*
X1407669Y-3894565D01*
X1404187Y-3901080D01*
X1402043Y-3908149D01*
X1401319Y-3915500D01*
X1401319Y-3934135D01*
X1388781Y-3913050D01*
X1369438Y-3891558D01*
X1346274Y-3874251D01*
X1320179Y-3861797D01*
X1305337Y-3857295D01*
X1282500Y-3869219D01*
X1282500Y-3988000D01*
X1284500Y-3988000D01*
X1284500Y-4013000D01*
X1282500Y-4013000D01*
X1282500Y-4015000D01*
X1257500Y-4015000D01*
X1257500Y-4013000D01*
X1255500Y-4013000D01*
X1255500Y-3988000D01*
X1257500Y-3988000D01*
X1257500Y-3869219D01*
X1234663Y-3857295D01*
X1219821Y-3861797D01*
X1193726Y-3874251D01*
X1170562Y-3891558D01*
X1151219Y-3913050D01*
X1136441Y-3937904D01*
X1130094Y-3955839D01*
X1124558Y-3942474D01*
X1111152Y-3922411D01*
X1094089Y-3905348D01*
X1074026Y-3891942D01*
X1051732Y-3882708D01*
X1028065Y-3878000D01*
X1003935Y-3878000D01*
X980268Y-3882708D01*
X957974Y-3891942D01*
X937911Y-3905348D01*
X920848Y-3922411D01*
X907442Y-3942474D01*
X898208Y-3964768D01*
X893500Y-3988435D01*
X893500Y-4012565D01*
X898208Y-4036232D01*
X907442Y-4058525D01*
X920848Y-4078589D01*
X937911Y-4095652D01*
X957974Y-4109058D01*
X980268Y-4118292D01*
X1003935Y-4123000D01*
X1028065Y-4123000D01*
X1046454Y-4119342D01*
X1138112Y-4211000D01*
X-65636Y-4211000D01*
X-65997Y-4211036D01*
X-79678Y-4209694D01*
X-95240Y-4204996D01*
X-109593Y-4197364D01*
X-122190Y-4187090D01*
X-132552Y-4174565D01*
X-140283Y-4160266D01*
X-145090Y-4144737D01*
X-147000Y-4126566D01*
X-147000Y-3961548D01*
X-122500Y-3961548D01*
X-122500Y-4000452D01*
X-114910Y-4038609D01*
X-100022Y-4074551D01*
X-78408Y-4106899D01*
X-50899Y-4134408D01*
X-18551Y-4156022D01*
X17391Y-4170910D01*
X55548Y-4178500D01*
X94452Y-4178500D01*
X132609Y-4170910D01*
X168551Y-4156022D01*
X200899Y-4134408D01*
X228408Y-4106899D01*
X250022Y-4074551D01*
X264910Y-4038609D01*
X272500Y-4000452D01*
X272500Y-3961548D01*
X264910Y-3923391D01*
X250022Y-3887449D01*
X228408Y-3855101D01*
X200899Y-3827592D01*
X168551Y-3805978D01*
X132609Y-3791090D01*
X94452Y-3783500D01*
X55548Y-3783500D01*
X17391Y-3791090D01*
X-18551Y-3805978D01*
X-50899Y-3827592D01*
X-78408Y-3855101D01*
X-100022Y-3887449D01*
X-114910Y-3923391D01*
X-122500Y-3961548D01*
X-147000Y-3961548D01*
X-147000Y-3454400D01*
X-139281Y-3454400D01*
X-139281Y-3657600D01*
X-138557Y-3664951D01*
X-136413Y-3672020D01*
X-132931Y-3678535D01*
X-128245Y-3684245D01*
X-122535Y-3688931D01*
X-116020Y-3692413D01*
X-108951Y-3694557D01*
X-101600Y-3695281D01*
X101600Y-3695281D01*
X108951Y-3694557D01*
X116020Y-3692413D01*
X122535Y-3688931D01*
X128245Y-3684245D01*
X132931Y-3678535D01*
X136413Y-3672020D01*
X138557Y-3664951D01*
X139281Y-3657600D01*
X139281Y-3618500D01*
X736112Y-3618500D01*
X770158Y-3652546D01*
X766500Y-3670935D01*
X766500Y-3695065D01*
X770158Y-3713454D01*
X719977Y-3763635D01*
X717592Y-3765592D01*
X709782Y-3775109D01*
X703978Y-3785967D01*
X700404Y-3797748D01*
X699898Y-3802891D01*
X699198Y-3810000D01*
X699500Y-3813070D01*
X699500Y-3894932D01*
X683911Y-3905348D01*
X666848Y-3922411D01*
X653442Y-3942474D01*
X644208Y-3964768D01*
X639500Y-3988435D01*
X639500Y-4012565D01*
X644208Y-4036232D01*
X653442Y-4058525D01*
X666848Y-4078589D01*
X683911Y-4095652D01*
X703974Y-4109058D01*
X726268Y-4118292D01*
X749935Y-4123000D01*
X774065Y-4123000D01*
X797732Y-4118292D01*
X820025Y-4109058D01*
X840089Y-4095652D01*
X857152Y-4078589D01*
X870558Y-4058525D01*
X879792Y-4036232D01*
X884500Y-4012565D01*
X884500Y-3988435D01*
X879792Y-3964768D01*
X870558Y-3942474D01*
X857152Y-3922411D01*
X840089Y-3905348D01*
X824500Y-3894932D01*
X824500Y-3835888D01*
X858546Y-3801842D01*
X876935Y-3805500D01*
X901065Y-3805500D01*
X924732Y-3800792D01*
X947025Y-3791558D01*
X967089Y-3778152D01*
X984152Y-3761089D01*
X997558Y-3741025D01*
X1006792Y-3718732D01*
X1011500Y-3695065D01*
X1011500Y-3670935D01*
X1020500Y-3670935D01*
X1020500Y-3695065D01*
X1025208Y-3718732D01*
X1034442Y-3741025D01*
X1047848Y-3761089D01*
X1064911Y-3778152D01*
X1084975Y-3791558D01*
X1107268Y-3800792D01*
X1130935Y-3805500D01*
X1155065Y-3805500D01*
X1178732Y-3800792D01*
X1201026Y-3791558D01*
X1221089Y-3778152D01*
X1238152Y-3761089D01*
X1249323Y-3744370D01*
X1249198Y-3768000D01*
X1250404Y-3780252D01*
X1253978Y-3792033D01*
X1259782Y-3802891D01*
X1267592Y-3812408D01*
X1277109Y-3820218D01*
X1287967Y-3826022D01*
X1299748Y-3829596D01*
X1312000Y-3830802D01*
X1368875Y-3830500D01*
X1384500Y-3814875D01*
X1384500Y-3695500D01*
X1409500Y-3695500D01*
X1409500Y-3814875D01*
X1425125Y-3830500D01*
X1482000Y-3830802D01*
X1494252Y-3829596D01*
X1506033Y-3826022D01*
X1516891Y-3820218D01*
X1526408Y-3812408D01*
X1534218Y-3802891D01*
X1540022Y-3792033D01*
X1543596Y-3780252D01*
X1544802Y-3768000D01*
X1544500Y-3711125D01*
X1528875Y-3695500D01*
X1409500Y-3695500D01*
X1384500Y-3695500D01*
X1382500Y-3695500D01*
X1382500Y-3670500D01*
X1384500Y-3670500D01*
X1384500Y-3551125D01*
X1409500Y-3551125D01*
X1409500Y-3670500D01*
X1528875Y-3670500D01*
X1544500Y-3654875D01*
X1544802Y-3598000D01*
X1543596Y-3585748D01*
X1540022Y-3573967D01*
X1534218Y-3563109D01*
X1526408Y-3553592D01*
X1516891Y-3545782D01*
X1516200Y-3545412D01*
X1924500Y-3545412D01*
X1924500Y-3566588D01*
X1928631Y-3587357D01*
X1936735Y-3606920D01*
X1948499Y-3624527D01*
X1963473Y-3639501D01*
X1981080Y-3651265D01*
X2000643Y-3659369D01*
X2021412Y-3663500D01*
X2042588Y-3663500D01*
X2063357Y-3659369D01*
X2082920Y-3651265D01*
X2100527Y-3639501D01*
X2115501Y-3624527D01*
X2127265Y-3606920D01*
X2135369Y-3587357D01*
X2139500Y-3566588D01*
X2139500Y-3545412D01*
X2135369Y-3524643D01*
X2127265Y-3505080D01*
X2115501Y-3487473D01*
X2100527Y-3472499D01*
X2082920Y-3460735D01*
X2063357Y-3452631D01*
X2042588Y-3448500D01*
X2021412Y-3448500D01*
X2000643Y-3452631D01*
X1981080Y-3460735D01*
X1963473Y-3472499D01*
X1948499Y-3487473D01*
X1936735Y-3505080D01*
X1928631Y-3524643D01*
X1924500Y-3545412D01*
X1516200Y-3545412D01*
X1506033Y-3539978D01*
X1494252Y-3536404D01*
X1482000Y-3535198D01*
X1425125Y-3535500D01*
X1409500Y-3551125D01*
X1384500Y-3551125D01*
X1368875Y-3535500D01*
X1312000Y-3535198D01*
X1299748Y-3536404D01*
X1287967Y-3539978D01*
X1277109Y-3545782D01*
X1267592Y-3553592D01*
X1259782Y-3563109D01*
X1253978Y-3573967D01*
X1250404Y-3585748D01*
X1249198Y-3598000D01*
X1249323Y-3621630D01*
X1238152Y-3604911D01*
X1221089Y-3587848D01*
X1201026Y-3574442D01*
X1178732Y-3565208D01*
X1155065Y-3560500D01*
X1130935Y-3560500D01*
X1107268Y-3565208D01*
X1084975Y-3574442D01*
X1064911Y-3587848D01*
X1047848Y-3604911D01*
X1034442Y-3624974D01*
X1025208Y-3647268D01*
X1020500Y-3670935D01*
X1011500Y-3670935D01*
X1006792Y-3647268D01*
X997558Y-3624974D01*
X984152Y-3604911D01*
X967089Y-3587848D01*
X947025Y-3574442D01*
X924732Y-3565208D01*
X901065Y-3560500D01*
X876935Y-3560500D01*
X858546Y-3564158D01*
X808366Y-3513978D01*
X806408Y-3511592D01*
X796891Y-3503782D01*
X786033Y-3497978D01*
X774252Y-3494404D01*
X765070Y-3493500D01*
X765069Y-3493500D01*
X762000Y-3493198D01*
X758931Y-3493500D01*
X139281Y-3493500D01*
X139281Y-3454400D01*
X138557Y-3447049D01*
X136413Y-3439980D01*
X132931Y-3433465D01*
X128245Y-3427755D01*
X122535Y-3423069D01*
X116020Y-3419587D01*
X108951Y-3417443D01*
X101600Y-3416719D01*
X78685Y-3416719D01*
X88671Y-3410046D01*
X108046Y-3390671D01*
X123269Y-3367888D01*
X133754Y-3342574D01*
X139100Y-3315700D01*
X139100Y-3288300D01*
X133754Y-3261426D01*
X123269Y-3236111D01*
X108046Y-3213329D01*
X88671Y-3193954D01*
X65889Y-3178731D01*
X56881Y-3175000D01*
X65889Y-3171269D01*
X88671Y-3156046D01*
X108046Y-3136671D01*
X123269Y-3113888D01*
X133754Y-3088574D01*
X135463Y-3079986D01*
X136208Y-3083732D01*
X145442Y-3106025D01*
X158848Y-3126089D01*
X175911Y-3143152D01*
X195974Y-3156558D01*
X218268Y-3165792D01*
X241935Y-3170500D01*
X266065Y-3170500D01*
X289732Y-3165792D01*
X312026Y-3156558D01*
X332089Y-3143152D01*
X349152Y-3126089D01*
X362558Y-3106025D01*
X371792Y-3083732D01*
X376500Y-3060065D01*
X376500Y-3035935D01*
X371792Y-3012268D01*
X362558Y-2989974D01*
X349152Y-2969911D01*
X332089Y-2952848D01*
X312026Y-2939442D01*
X289732Y-2930208D01*
X266065Y-2925500D01*
X241935Y-2925500D01*
X218268Y-2930208D01*
X195974Y-2939442D01*
X175911Y-2952848D01*
X158848Y-2969911D01*
X145442Y-2989974D01*
X136208Y-3012268D01*
X135463Y-3016013D01*
X133754Y-3007426D01*
X123269Y-2982111D01*
X108046Y-2959329D01*
X88671Y-2939954D01*
X65889Y-2924731D01*
X56881Y-2921000D01*
X65889Y-2917269D01*
X88671Y-2902046D01*
X108046Y-2882671D01*
X123269Y-2859888D01*
X133754Y-2834574D01*
X135463Y-2825986D01*
X136208Y-2829732D01*
X145442Y-2852025D01*
X158848Y-2872089D01*
X175911Y-2889152D01*
X195974Y-2902558D01*
X218268Y-2911792D01*
X241935Y-2916500D01*
X266065Y-2916500D01*
X289732Y-2911792D01*
X312026Y-2902558D01*
X332089Y-2889152D01*
X349152Y-2872089D01*
X362558Y-2852025D01*
X371792Y-2829732D01*
X376500Y-2806065D01*
X376500Y-2781935D01*
X371792Y-2758268D01*
X362558Y-2735975D01*
X349152Y-2715911D01*
X332089Y-2698848D01*
X315370Y-2687677D01*
X339000Y-2687802D01*
X351252Y-2686596D01*
X363033Y-2683022D01*
X373891Y-2677218D01*
X383408Y-2669408D01*
X391218Y-2659891D01*
X397022Y-2649033D01*
X400596Y-2637252D01*
X401802Y-2625000D01*
X401500Y-2568125D01*
X385875Y-2552500D01*
X266500Y-2552500D01*
X266500Y-2554500D01*
X241500Y-2554500D01*
X241500Y-2552500D01*
X239500Y-2552500D01*
X239500Y-2527500D01*
X241500Y-2527500D01*
X241500Y-2408125D01*
X266500Y-2408125D01*
X266500Y-2527500D01*
X385875Y-2527500D01*
X401500Y-2511875D01*
X401802Y-2455000D01*
X400596Y-2442748D01*
X397022Y-2430967D01*
X391218Y-2420109D01*
X383408Y-2410592D01*
X373891Y-2402782D01*
X363033Y-2396978D01*
X351252Y-2393404D01*
X339000Y-2392198D01*
X282125Y-2392500D01*
X266500Y-2408125D01*
X241500Y-2408125D01*
X225875Y-2392500D01*
X169000Y-2392198D01*
X156748Y-2393404D01*
X144967Y-2396978D01*
X134109Y-2402782D01*
X124592Y-2410592D01*
X116782Y-2420109D01*
X110978Y-2430967D01*
X107404Y-2442748D01*
X106692Y-2449975D01*
X88671Y-2431954D01*
X65889Y-2416731D01*
X56881Y-2413000D01*
X65889Y-2409269D01*
X88671Y-2394046D01*
X108046Y-2374671D01*
X123269Y-2351889D01*
X133754Y-2326574D01*
X139100Y-2299700D01*
X139100Y-2272300D01*
X133754Y-2245426D01*
X123269Y-2220112D01*
X108046Y-2197329D01*
X88671Y-2177954D01*
X65889Y-2162731D01*
X56881Y-2159000D01*
X65889Y-2155269D01*
X88671Y-2140046D01*
X108046Y-2120671D01*
X123269Y-2097889D01*
X133754Y-2072574D01*
X139100Y-2045700D01*
X139100Y-2021412D01*
X146500Y-2021412D01*
X146500Y-2042588D01*
X150631Y-2063357D01*
X158735Y-2082920D01*
X170499Y-2100527D01*
X185473Y-2115501D01*
X203080Y-2127265D01*
X222643Y-2135369D01*
X243412Y-2139500D01*
X264588Y-2139500D01*
X285357Y-2135369D01*
X304920Y-2127265D01*
X322527Y-2115501D01*
X337501Y-2100527D01*
X349265Y-2082920D01*
X357369Y-2063357D01*
X361500Y-2042588D01*
X361500Y-2021412D01*
X357369Y-2000643D01*
X349265Y-1981080D01*
X337501Y-1963473D01*
X322527Y-1948499D01*
X304920Y-1936735D01*
X285357Y-1928631D01*
X264588Y-1924500D01*
X243412Y-1924500D01*
X222643Y-1928631D01*
X203080Y-1936735D01*
X185473Y-1948499D01*
X170499Y-1963473D01*
X158735Y-1981080D01*
X150631Y-2000643D01*
X146500Y-2021412D01*
X139100Y-2021412D01*
X139100Y-2018300D01*
X133754Y-1991426D01*
X123269Y-1966111D01*
X108046Y-1943329D01*
X88671Y-1923954D01*
X65889Y-1908731D01*
X56881Y-1905000D01*
X65889Y-1901269D01*
X88671Y-1886046D01*
X108046Y-1866671D01*
X123269Y-1843888D01*
X133754Y-1818574D01*
X139100Y-1791700D01*
X139100Y-1764300D01*
X133754Y-1737426D01*
X123269Y-1712111D01*
X108046Y-1689329D01*
X99553Y-1680836D01*
X590028Y-1680836D01*
X597933Y-1701425D01*
X609703Y-1720075D01*
X624885Y-1736072D01*
X642896Y-1748799D01*
X663044Y-1757767D01*
X668664Y-1759471D01*
X686000Y-1747065D01*
X686000Y-1663500D01*
X602321Y-1663500D01*
X590028Y-1680836D01*
X99553Y-1680836D01*
X88671Y-1669954D01*
X65889Y-1654731D01*
X56881Y-1651000D01*
X65889Y-1647269D01*
X88671Y-1632046D01*
X99553Y-1621164D01*
X590028Y-1621164D01*
X602321Y-1638500D01*
X686000Y-1638500D01*
X686000Y-1554935D01*
X668664Y-1542528D01*
X663044Y-1544233D01*
X642896Y-1553201D01*
X624885Y-1565928D01*
X609703Y-1581924D01*
X597933Y-1600575D01*
X590028Y-1621164D01*
X99553Y-1621164D01*
X108046Y-1612671D01*
X123269Y-1589888D01*
X133754Y-1564574D01*
X139100Y-1537700D01*
X139100Y-1510300D01*
X133754Y-1483426D01*
X123269Y-1458111D01*
X108046Y-1435329D01*
X88671Y-1415954D01*
X83073Y-1412214D01*
X86531Y-1410365D01*
X96340Y-1384017D01*
X0Y-1287678D01*
X-96340Y-1384017D01*
X-86531Y-1410365D01*
X-82935Y-1412121D01*
X-88671Y-1415954D01*
X-108046Y-1435329D01*
X-123269Y-1458111D01*
X-133754Y-1483426D01*
X-139100Y-1510300D01*
X-139100Y-1537700D01*
X-133754Y-1564574D01*
X-123269Y-1589888D01*
X-108046Y-1612671D01*
X-88671Y-1632046D01*
X-65889Y-1647269D01*
X-56881Y-1651000D01*
X-65889Y-1654731D01*
X-88671Y-1669954D01*
X-108046Y-1689329D01*
X-123269Y-1712111D01*
X-133754Y-1737426D01*
X-139100Y-1764300D01*
X-139100Y-1791700D01*
X-133754Y-1818574D01*
X-123269Y-1843888D01*
X-108046Y-1866671D01*
X-88671Y-1886046D01*
X-65889Y-1901269D01*
X-56881Y-1905000D01*
X-65889Y-1908731D01*
X-88671Y-1923954D01*
X-108046Y-1943329D01*
X-123269Y-1966111D01*
X-133754Y-1991426D01*
X-139100Y-2018300D01*
X-139100Y-2045700D01*
X-133754Y-2072574D01*
X-123269Y-2097889D01*
X-108046Y-2120671D01*
X-88671Y-2140046D01*
X-65889Y-2155269D01*
X-56881Y-2159000D01*
X-65889Y-2162731D01*
X-88671Y-2177954D01*
X-108046Y-2197329D01*
X-123269Y-2220112D01*
X-133754Y-2245426D01*
X-139100Y-2272300D01*
X-139100Y-2299700D01*
X-133754Y-2326574D01*
X-123269Y-2351889D01*
X-108046Y-2374671D01*
X-88671Y-2394046D01*
X-65889Y-2409269D01*
X-56881Y-2413000D01*
X-65889Y-2416731D01*
X-88671Y-2431954D01*
X-108046Y-2451329D01*
X-123269Y-2474112D01*
X-133754Y-2499426D01*
X-139100Y-2526300D01*
X-139100Y-2553700D01*
X-133754Y-2580574D01*
X-123269Y-2605889D01*
X-108046Y-2628671D01*
X-88671Y-2648046D01*
X-65889Y-2663269D01*
X-56881Y-2667000D01*
X-65889Y-2670731D01*
X-88671Y-2685954D01*
X-108046Y-2705329D01*
X-123269Y-2728112D01*
X-133754Y-2753426D01*
X-139100Y-2780300D01*
X-139100Y-2807700D01*
X-133754Y-2834574D01*
X-123269Y-2859888D01*
X-108046Y-2882671D01*
X-88671Y-2902046D01*
X-65889Y-2917269D01*
X-56881Y-2921000D01*
X-65889Y-2924731D01*
X-88671Y-2939954D01*
X-108046Y-2959329D01*
X-123269Y-2982111D01*
X-133754Y-3007426D01*
X-139100Y-3034300D01*
X-139100Y-3061700D01*
X-133754Y-3088574D01*
X-123269Y-3113888D01*
X-108046Y-3136671D01*
X-88671Y-3156046D01*
X-65889Y-3171269D01*
X-56881Y-3175000D01*
X-65889Y-3178731D01*
X-88671Y-3193954D01*
X-108046Y-3213329D01*
X-123269Y-3236111D01*
X-133754Y-3261426D01*
X-139100Y-3288300D01*
X-139100Y-3315700D01*
X-133754Y-3342574D01*
X-123269Y-3367888D01*
X-108046Y-3390671D01*
X-88671Y-3410046D01*
X-78685Y-3416719D01*
X-101600Y-3416719D01*
X-108951Y-3417443D01*
X-116020Y-3419587D01*
X-122535Y-3423069D01*
X-128245Y-3427755D01*
X-132931Y-3433465D01*
X-136413Y-3439980D01*
X-138557Y-3447049D01*
X-139281Y-3454400D01*
X-147000Y-3454400D01*
X-147000Y-1344118D01*
X-140366Y-1356531D01*
X-114017Y-1366340D01*
X-17678Y-1270000D01*
X17678Y-1270000D01*
X114017Y-1366340D01*
X140366Y-1356531D01*
X154550Y-1327484D01*
X157236Y-1317301D01*
X158735Y-1320920D01*
X170499Y-1338527D01*
X185473Y-1353501D01*
X203080Y-1365265D01*
X222643Y-1373369D01*
X243412Y-1377500D01*
X264588Y-1377500D01*
X285357Y-1373369D01*
X304920Y-1365265D01*
X322527Y-1353501D01*
X337501Y-1338527D01*
X349265Y-1320920D01*
X357369Y-1301357D01*
X361500Y-1280588D01*
X361500Y-1259412D01*
X357369Y-1238643D01*
X349265Y-1219080D01*
X337501Y-1201473D01*
X322527Y-1186499D01*
X304920Y-1174735D01*
X302417Y-1173698D01*
X519316Y-1173698D01*
X523139Y-1196109D01*
X531260Y-1217344D01*
X543367Y-1236587D01*
X558996Y-1253097D01*
X577546Y-1266242D01*
X598304Y-1275515D01*
X604771Y-1276456D01*
X622500Y-1264086D01*
X622500Y-1155500D01*
X535083Y-1155500D01*
X519316Y-1173698D01*
X302417Y-1173698D01*
X285357Y-1166631D01*
X264588Y-1162500D01*
X243412Y-1162500D01*
X222643Y-1166631D01*
X203080Y-1174735D01*
X185473Y-1186499D01*
X170499Y-1201473D01*
X158735Y-1219080D01*
X157252Y-1222660D01*
X149931Y-1201364D01*
X140366Y-1183469D01*
X114017Y-1173660D01*
X17678Y-1270000D01*
X-17678Y-1270000D01*
X-114017Y-1173660D01*
X-140366Y-1183469D01*
X-147000Y-1197056D01*
X-147000Y-328118D01*
X-140366Y-340531D01*
X-114017Y-350340D01*
X-17678Y-254000D01*
X17678Y-254000D01*
X114017Y-350340D01*
X137156Y-341725D01*
X139187Y-348420D01*
X142669Y-354935D01*
X147355Y-360645D01*
X153065Y-365331D01*
X159580Y-368813D01*
X166649Y-370957D01*
X174000Y-371681D01*
X334000Y-371681D01*
X341351Y-370957D01*
X348420Y-368813D01*
X354935Y-365331D01*
X360645Y-360645D01*
X365331Y-354935D01*
X368813Y-348420D01*
X370957Y-341351D01*
X371681Y-334000D01*
X371681Y-174000D01*
X370957Y-166649D01*
X368813Y-159580D01*
X365331Y-153065D01*
X360645Y-147355D01*
X354935Y-142669D01*
X348420Y-139187D01*
X341351Y-137043D01*
X334000Y-136319D01*
X174000Y-136319D01*
X166649Y-137043D01*
X159580Y-139187D01*
X153065Y-142669D01*
X147355Y-147355D01*
X142669Y-153065D01*
X139187Y-159580D01*
X137156Y-166275D01*
X114017Y-157660D01*
X17678Y-254000D01*
X-17678Y-254000D01*
X-114017Y-157660D01*
X-140366Y-167469D01*
X-147000Y-181056D01*
X-147000Y13700D01*
X-139100Y13700D01*
X-139100Y-13700D01*
X-133754Y-40574D01*
X-123269Y-65889D01*
X-108046Y-88671D01*
X-88671Y-108046D01*
X-83073Y-111786D01*
X-86531Y-113634D01*
X-96340Y-139983D01*
X0Y-236322D01*
X96340Y-139983D01*
X86531Y-113634D01*
X82935Y-111879D01*
X88671Y-108046D01*
X108046Y-88671D01*
X123269Y-65889D01*
X133754Y-40574D01*
X139100Y-13700D01*
X139100Y13700D01*
X133754Y40574D01*
X123269Y65889D01*
X108046Y88671D01*
X88671Y108046D01*
X65889Y123269D01*
X40574Y133754D01*
X13700Y139100D01*
X-13700Y139100D01*
X-40574Y133754D01*
X-65889Y123269D01*
X-88671Y108046D01*
X-108046Y88671D01*
X-123269Y65889D01*
X-133754Y40574D01*
X-139100Y13700D01*
X-147000Y13700D01*
X-147000Y401452D01*
X-117500Y401452D01*
X-117500Y362548D01*
X-109910Y324391D01*
X-95022Y288449D01*
X-73408Y256101D01*
X-45899Y228592D01*
X-13551Y206978D01*
X22391Y192090D01*
X60548Y184500D01*
X99452Y184500D01*
X137609Y192090D01*
X173551Y206978D01*
X205899Y228592D01*
X233408Y256101D01*
X241382Y268035D01*
X302000Y268035D01*
X302000Y239965D01*
X307476Y212434D01*
X318218Y186501D01*
X333813Y163162D01*
X353661Y143313D01*
X377001Y127718D01*
X382000Y125647D01*
X382000Y-377931D01*
X381698Y-381000D01*
X382000Y-384069D01*
X382000Y-384070D01*
X382904Y-393252D01*
X386478Y-405033D01*
X392282Y-415891D01*
X400092Y-425408D01*
X402478Y-427366D01*
X525135Y-550023D01*
X527092Y-552408D01*
X529477Y-554365D01*
X536609Y-560218D01*
X536609Y-560218D01*
X547467Y-566022D01*
X559248Y-569596D01*
X568430Y-570500D01*
X568431Y-570500D01*
X571500Y-570802D01*
X574569Y-570500D01*
X1588500Y-570500D01*
X1588500Y-639059D01*
X1585869Y-640149D01*
X1563349Y-655197D01*
X1544197Y-674349D01*
X1529149Y-696869D01*
X1518784Y-721893D01*
X1513500Y-748457D01*
X1513500Y-775543D01*
X1518784Y-802107D01*
X1529149Y-827131D01*
X1544197Y-849651D01*
X1563349Y-868803D01*
X1585869Y-883851D01*
X1610893Y-894216D01*
X1637457Y-899500D01*
X1664543Y-899500D01*
X1691107Y-894216D01*
X1716131Y-883851D01*
X1738651Y-868803D01*
X1757803Y-849651D01*
X1772851Y-827131D01*
X1779000Y-812285D01*
X1779000Y-908500D01*
X1767412Y-908500D01*
X1746643Y-912631D01*
X1727080Y-920735D01*
X1709473Y-932499D01*
X1694499Y-947473D01*
X1682735Y-965080D01*
X1674631Y-984643D01*
X1670500Y-1005412D01*
X1670500Y-1026588D01*
X1674631Y-1047357D01*
X1682735Y-1066920D01*
X1694499Y-1084527D01*
X1709473Y-1099501D01*
X1727080Y-1111265D01*
X1746643Y-1119369D01*
X1767412Y-1123500D01*
X1788588Y-1123500D01*
X1809357Y-1119369D01*
X1828920Y-1111265D01*
X1846527Y-1099501D01*
X1861501Y-1084527D01*
X1873265Y-1066920D01*
X1881369Y-1047357D01*
X1885500Y-1026588D01*
X1885500Y-1005412D01*
X1884103Y-998389D01*
X1885908Y-996908D01*
X1887865Y-994523D01*
X1887865Y-994523D01*
X1893718Y-987391D01*
X1899522Y-976533D01*
X1899522Y-976533D01*
X1903096Y-964752D01*
X1904000Y-955570D01*
X1904000Y-955570D01*
X1904302Y-952500D01*
X1904000Y-949430D01*
X1904000Y-326604D01*
X1905751Y-330274D01*
X1923058Y-353438D01*
X1944550Y-372781D01*
X1969404Y-387559D01*
X1987339Y-393906D01*
X1973974Y-399442D01*
X1953911Y-412848D01*
X1936848Y-429911D01*
X1923442Y-449974D01*
X1914208Y-472268D01*
X1909500Y-495935D01*
X1909500Y-520065D01*
X1914208Y-543732D01*
X1923442Y-566026D01*
X1936848Y-586089D01*
X1953911Y-603152D01*
X1973974Y-616558D01*
X1996268Y-625792D01*
X2019935Y-630500D01*
X2044065Y-630500D01*
X2067732Y-625792D01*
X2090025Y-616558D01*
X2110089Y-603152D01*
X2127152Y-586089D01*
X2137568Y-570500D01*
X2161328Y-570500D01*
X2162731Y-573889D01*
X2177954Y-596671D01*
X2197329Y-616046D01*
X2220112Y-631269D01*
X2229119Y-635000D01*
X2220112Y-638731D01*
X2197329Y-653954D01*
X2177954Y-673329D01*
X2162731Y-696112D01*
X2161328Y-699500D01*
X2137568Y-699500D01*
X2127152Y-683911D01*
X2110089Y-666848D01*
X2090025Y-653442D01*
X2067732Y-644208D01*
X2044065Y-639500D01*
X2019935Y-639500D01*
X1996268Y-644208D01*
X1973974Y-653442D01*
X1953911Y-666848D01*
X1936848Y-683911D01*
X1923442Y-703974D01*
X1914208Y-726268D01*
X1909500Y-749935D01*
X1909500Y-774065D01*
X1914208Y-797732D01*
X1923442Y-820025D01*
X1936848Y-840089D01*
X1953911Y-857152D01*
X1973974Y-870558D01*
X1996268Y-879792D01*
X2019935Y-884500D01*
X2044065Y-884500D01*
X2067732Y-879792D01*
X2090025Y-870558D01*
X2110089Y-857152D01*
X2127152Y-840089D01*
X2137568Y-824500D01*
X2161328Y-824500D01*
X2162731Y-827888D01*
X2177954Y-850671D01*
X2197329Y-870046D01*
X2220112Y-885269D01*
X2229119Y-889000D01*
X2220112Y-892731D01*
X2197329Y-907954D01*
X2177954Y-927329D01*
X2162731Y-950111D01*
X2152246Y-975426D01*
X2146900Y-1002300D01*
X2146900Y-1029700D01*
X2152246Y-1056574D01*
X2162731Y-1081889D01*
X2177954Y-1104671D01*
X2197329Y-1124046D01*
X2220112Y-1139269D01*
X2229119Y-1143000D01*
X2220112Y-1146731D01*
X2197329Y-1161954D01*
X2177954Y-1181329D01*
X2162731Y-1204112D01*
X2152246Y-1229426D01*
X2146900Y-1256300D01*
X2146900Y-1283700D01*
X2152246Y-1310574D01*
X2162731Y-1335889D01*
X2177954Y-1358671D01*
X2197329Y-1378046D01*
X2220112Y-1393269D01*
X2229119Y-1397000D01*
X2220112Y-1400731D01*
X2197329Y-1415954D01*
X2177954Y-1435329D01*
X2162731Y-1458111D01*
X2152246Y-1483426D01*
X2146900Y-1510300D01*
X2146900Y-1537700D01*
X2152246Y-1564574D01*
X2162731Y-1589888D01*
X2177954Y-1612671D01*
X2197329Y-1632046D01*
X2220112Y-1647269D01*
X2229119Y-1651000D01*
X2220112Y-1654731D01*
X2197329Y-1669954D01*
X2177954Y-1689329D01*
X2162731Y-1712111D01*
X2152246Y-1737426D01*
X2146900Y-1764300D01*
X2146900Y-1791700D01*
X2152246Y-1818574D01*
X2162731Y-1843888D01*
X2177954Y-1866671D01*
X2197329Y-1886046D01*
X2202927Y-1889786D01*
X2199469Y-1891634D01*
X2189660Y-1917983D01*
X2286000Y-2014322D01*
X2382340Y-1917983D01*
X2372531Y-1891634D01*
X2368935Y-1889879D01*
X2374671Y-1886046D01*
X2394046Y-1866671D01*
X2409269Y-1843888D01*
X2419754Y-1818574D01*
X2425100Y-1791700D01*
X2425100Y-1764300D01*
X2419754Y-1737426D01*
X2409269Y-1712111D01*
X2394046Y-1689329D01*
X2374671Y-1669954D01*
X2351889Y-1654731D01*
X2342881Y-1651000D01*
X2351889Y-1647269D01*
X2374671Y-1632046D01*
X2394046Y-1612671D01*
X2409269Y-1589888D01*
X2419754Y-1564574D01*
X2425100Y-1537700D01*
X2425100Y-1510300D01*
X2419754Y-1483426D01*
X2409269Y-1458111D01*
X2394046Y-1435329D01*
X2374671Y-1415954D01*
X2351889Y-1400731D01*
X2342881Y-1397000D01*
X2351889Y-1393269D01*
X2374671Y-1378046D01*
X2394046Y-1358671D01*
X2409269Y-1335889D01*
X2419754Y-1310574D01*
X2425100Y-1283700D01*
X2425100Y-1256300D01*
X2419754Y-1229426D01*
X2409269Y-1204112D01*
X2394046Y-1181329D01*
X2374671Y-1161954D01*
X2351889Y-1146731D01*
X2342881Y-1143000D01*
X2351889Y-1139269D01*
X2374671Y-1124046D01*
X2394046Y-1104671D01*
X2409269Y-1081889D01*
X2419754Y-1056574D01*
X2425100Y-1029700D01*
X2425100Y-1002300D01*
X2419754Y-975426D01*
X2409269Y-950111D01*
X2394046Y-927329D01*
X2374671Y-907954D01*
X2351889Y-892731D01*
X2342881Y-889000D01*
X2351889Y-885269D01*
X2374671Y-870046D01*
X2394046Y-850671D01*
X2409269Y-827888D01*
X2419754Y-802574D01*
X2425100Y-775700D01*
X2425100Y-748300D01*
X2419754Y-721426D01*
X2409269Y-696112D01*
X2394046Y-673329D01*
X2374671Y-653954D01*
X2351889Y-638731D01*
X2342881Y-635000D01*
X2351889Y-631269D01*
X2374671Y-616046D01*
X2394046Y-596671D01*
X2409269Y-573889D01*
X2419754Y-548574D01*
X2425100Y-521700D01*
X2425100Y-494300D01*
X2419754Y-467426D01*
X2409269Y-442111D01*
X2394046Y-419329D01*
X2374671Y-399954D01*
X2369073Y-396214D01*
X2372531Y-394365D01*
X2382340Y-368017D01*
X2286000Y-271678D01*
X2189660Y-368017D01*
X2199469Y-394365D01*
X2203065Y-396121D01*
X2197329Y-399954D01*
X2177954Y-419329D01*
X2162731Y-442111D01*
X2161328Y-445500D01*
X2137568Y-445500D01*
X2127152Y-429911D01*
X2110089Y-412848D01*
X2090025Y-399442D01*
X2076660Y-393906D01*
X2094596Y-387559D01*
X2119450Y-372781D01*
X2140942Y-353438D01*
X2149508Y-341973D01*
X2171983Y-350340D01*
X2268322Y-254000D01*
X2171983Y-157660D01*
X2149508Y-166027D01*
X2140942Y-154562D01*
X2119450Y-135219D01*
X2098365Y-122681D01*
X2117000Y-122681D01*
X2124351Y-121957D01*
X2131420Y-119813D01*
X2137935Y-116331D01*
X2143645Y-111645D01*
X2148331Y-105935D01*
X2151813Y-99420D01*
X2153957Y-92351D01*
X2154681Y-85000D01*
X2154681Y-46454D01*
X2162731Y-65889D01*
X2177954Y-88671D01*
X2197329Y-108046D01*
X2202927Y-111786D01*
X2199469Y-113634D01*
X2189660Y-139983D01*
X2286000Y-236322D01*
X2382340Y-139983D01*
X2372531Y-113634D01*
X2368935Y-111879D01*
X2374671Y-108046D01*
X2394046Y-88671D01*
X2409269Y-65889D01*
X2419754Y-40574D01*
X2425100Y-13700D01*
X2425100Y13700D01*
X2419754Y40574D01*
X2409269Y65889D01*
X2394046Y88671D01*
X2374671Y108046D01*
X2351889Y123269D01*
X2326574Y133754D01*
X2299700Y139100D01*
X2272300Y139100D01*
X2245426Y133754D01*
X2220112Y123269D01*
X2197329Y108046D01*
X2177954Y88671D01*
X2162731Y65889D01*
X2154681Y46454D01*
X2154681Y85000D01*
X2153957Y92351D01*
X2151813Y99420D01*
X2148331Y105935D01*
X2143645Y111645D01*
X2137935Y116331D01*
X2131420Y119813D01*
X2124351Y121957D01*
X2117000Y122681D01*
X1947000Y122681D01*
X1939649Y121957D01*
X1932580Y119813D01*
X1926065Y116331D01*
X1920355Y111645D01*
X1915669Y105935D01*
X1912187Y99420D01*
X1910043Y92351D01*
X1909319Y85000D01*
X1909319Y-85000D01*
X1910043Y-92351D01*
X1912187Y-99420D01*
X1915669Y-105935D01*
X1920355Y-111645D01*
X1926065Y-116331D01*
X1932580Y-119813D01*
X1939649Y-121957D01*
X1947000Y-122681D01*
X1965635Y-122681D01*
X1944550Y-135219D01*
X1923058Y-154562D01*
X1905751Y-177726D01*
X1904000Y-181396D01*
X1904000Y126319D01*
X1931500Y126319D01*
X1938851Y127043D01*
X1945920Y129187D01*
X1952435Y132669D01*
X1958145Y137355D01*
X1962831Y143065D01*
X1966313Y149580D01*
X1968457Y156649D01*
X1969181Y164000D01*
X1969181Y344000D01*
X1968457Y351351D01*
X1966313Y358420D01*
X1962831Y364935D01*
X1958145Y370645D01*
X1952435Y375331D01*
X1945920Y378813D01*
X1938851Y380957D01*
X1931500Y381681D01*
X1751500Y381681D01*
X1744149Y380957D01*
X1737080Y378813D01*
X1730565Y375331D01*
X1724855Y370645D01*
X1720169Y364935D01*
X1716687Y358420D01*
X1714543Y351351D01*
X1713819Y344000D01*
X1713819Y272497D01*
X1710100Y291190D01*
X1700489Y314394D01*
X1686536Y335277D01*
X1668776Y353036D01*
X1647894Y366989D01*
X1624690Y376600D01*
X1600058Y381500D01*
X1574942Y381500D01*
X1550310Y376600D01*
X1527106Y366989D01*
X1506223Y353036D01*
X1488464Y335277D01*
X1474511Y314394D01*
X1464900Y291190D01*
X1460000Y266558D01*
X1460000Y241442D01*
X1464900Y216810D01*
X1474511Y193606D01*
X1488464Y172724D01*
X1506223Y154964D01*
X1527106Y141011D01*
X1550310Y131400D01*
X1574942Y126500D01*
X1600058Y126500D01*
X1624690Y131400D01*
X1647894Y141011D01*
X1668776Y154964D01*
X1686536Y172724D01*
X1700489Y193606D01*
X1710100Y216810D01*
X1713819Y235503D01*
X1713819Y164000D01*
X1714543Y156649D01*
X1716687Y149580D01*
X1720169Y143065D01*
X1724855Y137355D01*
X1730565Y132669D01*
X1737080Y129187D01*
X1744149Y127043D01*
X1751500Y126319D01*
X1779000Y126319D01*
X1779000Y-203715D01*
X1772851Y-188869D01*
X1757803Y-166349D01*
X1738651Y-147197D01*
X1716131Y-132149D01*
X1691107Y-121784D01*
X1664543Y-116500D01*
X1637457Y-116500D01*
X1610893Y-121784D01*
X1585869Y-132149D01*
X1563349Y-147197D01*
X1544197Y-166349D01*
X1529149Y-188869D01*
X1518784Y-213893D01*
X1513500Y-240457D01*
X1513500Y-267543D01*
X1518784Y-294107D01*
X1529149Y-319131D01*
X1544197Y-341651D01*
X1563349Y-360803D01*
X1585869Y-375851D01*
X1588500Y-376941D01*
X1588500Y-445500D01*
X597388Y-445500D01*
X507000Y-355112D01*
X507000Y-304285D01*
X513149Y-319131D01*
X528197Y-341651D01*
X547349Y-360803D01*
X569869Y-375851D01*
X594893Y-386216D01*
X621457Y-391500D01*
X648543Y-391500D01*
X675107Y-386216D01*
X700131Y-375851D01*
X722651Y-360803D01*
X741803Y-341651D01*
X756851Y-319131D01*
X762000Y-306700D01*
X767149Y-319131D01*
X782197Y-341651D01*
X801349Y-360803D01*
X823869Y-375851D01*
X848893Y-386216D01*
X875457Y-391500D01*
X902543Y-391500D01*
X929107Y-386216D01*
X954131Y-375851D01*
X976651Y-360803D01*
X995803Y-341651D01*
X1010851Y-319131D01*
X1021216Y-294107D01*
X1026500Y-267543D01*
X1026500Y-240457D01*
X1021216Y-213893D01*
X1010851Y-188869D01*
X995803Y-166349D01*
X976651Y-147197D01*
X954131Y-132149D01*
X929107Y-121784D01*
X902543Y-116500D01*
X875457Y-116500D01*
X848893Y-121784D01*
X823869Y-132149D01*
X801349Y-147197D01*
X782197Y-166349D01*
X767149Y-188869D01*
X762000Y-201300D01*
X756851Y-188869D01*
X741803Y-166349D01*
X722651Y-147197D01*
X700131Y-132149D01*
X697500Y-131059D01*
X697500Y-89388D01*
X740523Y-46365D01*
X742908Y-44408D01*
X744865Y-42024D01*
X744865Y-42023D01*
X750718Y-34891D01*
X756522Y-24033D01*
X756522Y-24033D01*
X760096Y-12252D01*
X761000Y-3070D01*
X761000Y-3070D01*
X761302Y0D01*
X761000Y3070D01*
X761000Y125647D01*
X765999Y127718D01*
X789338Y143313D01*
X809187Y163162D01*
X824782Y186501D01*
X825500Y188235D01*
X826218Y186501D01*
X841813Y163162D01*
X861661Y143313D01*
X885001Y127718D01*
X910934Y116976D01*
X938465Y111500D01*
X966535Y111500D01*
X994066Y116976D01*
X1019999Y127718D01*
X1039510Y140755D01*
X1039904Y136748D01*
X1043478Y124967D01*
X1049282Y114109D01*
X1057092Y104592D01*
X1066609Y96782D01*
X1077467Y90978D01*
X1089248Y87404D01*
X1101500Y86198D01*
X1178375Y86500D01*
X1194000Y102125D01*
X1194000Y241500D01*
X1219000Y241500D01*
X1219000Y102125D01*
X1234625Y86500D01*
X1311500Y86198D01*
X1323752Y87404D01*
X1335533Y90978D01*
X1346391Y96782D01*
X1355908Y104592D01*
X1363718Y114109D01*
X1369522Y124967D01*
X1373096Y136748D01*
X1374302Y149000D01*
X1374000Y225875D01*
X1358375Y241500D01*
X1219000Y241500D01*
X1194000Y241500D01*
X1192000Y241500D01*
X1192000Y266500D01*
X1194000Y266500D01*
X1194000Y405875D01*
X1219000Y405875D01*
X1219000Y266500D01*
X1358375Y266500D01*
X1374000Y282125D01*
X1374302Y359000D01*
X1373096Y371252D01*
X1369522Y383033D01*
X1363718Y393891D01*
X1357513Y401452D01*
X2002500Y401452D01*
X2002500Y362548D01*
X2010090Y324391D01*
X2024978Y288449D01*
X2046592Y256101D01*
X2074101Y228592D01*
X2106449Y206978D01*
X2142391Y192090D01*
X2180548Y184500D01*
X2219452Y184500D01*
X2257609Y192090D01*
X2293551Y206978D01*
X2325899Y228592D01*
X2353408Y256101D01*
X2375022Y288449D01*
X2389910Y324391D01*
X2397500Y362548D01*
X2397500Y401452D01*
X2389910Y439609D01*
X2375022Y475551D01*
X2353408Y507899D01*
X2325899Y535408D01*
X2293551Y557022D01*
X2257609Y571910D01*
X2219452Y579500D01*
X2180548Y579500D01*
X2142391Y571910D01*
X2106449Y557022D01*
X2074101Y535408D01*
X2046592Y507899D01*
X2024978Y475551D01*
X2010090Y439609D01*
X2002500Y401452D01*
X1357513Y401452D01*
X1355908Y403408D01*
X1346391Y411218D01*
X1335533Y417022D01*
X1323752Y420596D01*
X1311500Y421802D01*
X1234625Y421500D01*
X1219000Y405875D01*
X1194000Y405875D01*
X1178375Y421500D01*
X1101500Y421802D01*
X1089248Y420596D01*
X1077467Y417022D01*
X1066609Y411218D01*
X1057092Y403408D01*
X1049282Y393891D01*
X1043478Y383033D01*
X1039904Y371252D01*
X1039510Y367245D01*
X1019999Y380282D01*
X994066Y391024D01*
X966535Y396500D01*
X938465Y396500D01*
X910934Y391024D01*
X885001Y380282D01*
X861661Y364687D01*
X841813Y344839D01*
X826218Y321499D01*
X825500Y319765D01*
X824782Y321499D01*
X809187Y344839D01*
X789338Y364687D01*
X765999Y380282D01*
X740066Y391024D01*
X712535Y396500D01*
X684465Y396500D01*
X656934Y391024D01*
X631001Y380282D01*
X607662Y364687D01*
X587813Y344839D01*
X572218Y321499D01*
X571500Y319765D01*
X570782Y321499D01*
X555187Y344839D01*
X535339Y364687D01*
X511999Y380282D01*
X486066Y391024D01*
X458535Y396500D01*
X430465Y396500D01*
X402934Y391024D01*
X377001Y380282D01*
X353661Y364687D01*
X333813Y344839D01*
X318218Y321499D01*
X307476Y295566D01*
X302000Y268035D01*
X241382Y268035D01*
X255022Y288449D01*
X269910Y324391D01*
X277500Y362548D01*
X277500Y401452D01*
X269910Y439609D01*
X255022Y475551D01*
X233408Y507899D01*
X205899Y535408D01*
X173551Y557022D01*
X137609Y571910D01*
X99452Y579500D01*
X60548Y579500D01*
X22391Y571910D01*
X-13551Y557022D01*
X-45899Y535408D01*
X-73408Y507899D01*
X-95022Y475551D01*
X-109910Y439609D01*
X-117500Y401452D01*
X-147000Y401452D01*
X-147000Y505383D01*
X-145205Y523689D01*
X-140507Y539251D01*
X-132875Y553604D01*
X-122601Y566201D01*
X-110076Y576563D01*
X-95777Y584294D01*
X-80248Y589101D01*
X-62077Y591011D01*
X2347372Y591011D01*
X2365678Y589216D01*
G37*
X2365678Y589216D02*
X2381240Y584518D01*
X2395593Y576886D01*
X2408190Y566612D01*
X2418552Y554087D01*
X2426283Y539788D01*
X2431090Y524259D01*
X2433000Y506088D01*
X2433000Y-179882D01*
X2426366Y-167469D01*
X2400017Y-157660D01*
X2303678Y-254000D01*
X2400017Y-350340D01*
X2426366Y-340531D01*
X2433000Y-326944D01*
X2433000Y-1957882D01*
X2426366Y-1945469D01*
X2400017Y-1935660D01*
X2303678Y-2032000D01*
X2400017Y-2128340D01*
X2426366Y-2118531D01*
X2433000Y-2104944D01*
X2433000Y-4125372D01*
X2431205Y-4143678D01*
X2426507Y-4159240D01*
X2418875Y-4173593D01*
X2408601Y-4186190D01*
X2396076Y-4196552D01*
X2381777Y-4204283D01*
X2366248Y-4209090D01*
X2348078Y-4211000D01*
X1719388Y-4211000D01*
X2012277Y-3918111D01*
X2010090Y-3923391D01*
X2002500Y-3961548D01*
X2002500Y-4000452D01*
X2010090Y-4038609D01*
X2024978Y-4074551D01*
X2046592Y-4106899D01*
X2074101Y-4134408D01*
X2106449Y-4156022D01*
X2142391Y-4170910D01*
X2180548Y-4178500D01*
X2219452Y-4178500D01*
X2257609Y-4170910D01*
X2293551Y-4156022D01*
X2325899Y-4134408D01*
X2353408Y-4106899D01*
X2375022Y-4074551D01*
X2389910Y-4038609D01*
X2397500Y-4000452D01*
X2397500Y-3961548D01*
X2389910Y-3923391D01*
X2375022Y-3887449D01*
X2353408Y-3855101D01*
X2325899Y-3827592D01*
X2293551Y-3805978D01*
X2257609Y-3791090D01*
X2219452Y-3783500D01*
X2180548Y-3783500D01*
X2142391Y-3791090D01*
X2137111Y-3793277D01*
X2242038Y-3688351D01*
X2245426Y-3689754D01*
X2272300Y-3695100D01*
X2299700Y-3695100D01*
X2326574Y-3689754D01*
X2351889Y-3679269D01*
X2374671Y-3664046D01*
X2394046Y-3644671D01*
X2409269Y-3621888D01*
X2419754Y-3596574D01*
X2425100Y-3569700D01*
X2425100Y-3542300D01*
X2419754Y-3515426D01*
X2409269Y-3490111D01*
X2394046Y-3467329D01*
X2374671Y-3447954D01*
X2351889Y-3432731D01*
X2342881Y-3429000D01*
X2351889Y-3425269D01*
X2374671Y-3410046D01*
X2394046Y-3390671D01*
X2409269Y-3367888D01*
X2419754Y-3342574D01*
X2425100Y-3315700D01*
X2425100Y-3288300D01*
X2419754Y-3261426D01*
X2409269Y-3236111D01*
X2394046Y-3213329D01*
X2374671Y-3193954D01*
X2351889Y-3178731D01*
X2342881Y-3175000D01*
X2351889Y-3171269D01*
X2374671Y-3156046D01*
X2394046Y-3136671D01*
X2409269Y-3113888D01*
X2419754Y-3088574D01*
X2425100Y-3061700D01*
X2425100Y-3034300D01*
X2419754Y-3007426D01*
X2409269Y-2982111D01*
X2394046Y-2959329D01*
X2374671Y-2939954D01*
X2351889Y-2924731D01*
X2342881Y-2921000D01*
X2351889Y-2917269D01*
X2374671Y-2902046D01*
X2394046Y-2882671D01*
X2409269Y-2859888D01*
X2419754Y-2834574D01*
X2425100Y-2807700D01*
X2425100Y-2780300D01*
X2419754Y-2753426D01*
X2409269Y-2728112D01*
X2394046Y-2705329D01*
X2374671Y-2685954D01*
X2351889Y-2670731D01*
X2342881Y-2667000D01*
X2351889Y-2663269D01*
X2374671Y-2648046D01*
X2394046Y-2628671D01*
X2409269Y-2605889D01*
X2419754Y-2580574D01*
X2425100Y-2553700D01*
X2425100Y-2526300D01*
X2419754Y-2499426D01*
X2409269Y-2474112D01*
X2394046Y-2451329D01*
X2374671Y-2431954D01*
X2351889Y-2416731D01*
X2342881Y-2413000D01*
X2351889Y-2409269D01*
X2374671Y-2394046D01*
X2394046Y-2374671D01*
X2409269Y-2351889D01*
X2419754Y-2326574D01*
X2425100Y-2299700D01*
X2425100Y-2272300D01*
X2419754Y-2245426D01*
X2409269Y-2220112D01*
X2394046Y-2197329D01*
X2374671Y-2177954D01*
X2369073Y-2174214D01*
X2372531Y-2172366D01*
X2382340Y-2146017D01*
X2286000Y-2049678D01*
X2189660Y-2146017D01*
X2199469Y-2172366D01*
X2203065Y-2174121D01*
X2197329Y-2177954D01*
X2177954Y-2197329D01*
X2162731Y-2220112D01*
X2152246Y-2245426D01*
X2146900Y-2272300D01*
X2146900Y-2299700D01*
X2152246Y-2326574D01*
X2162731Y-2351889D01*
X2177954Y-2374671D01*
X2197329Y-2394046D01*
X2220112Y-2409269D01*
X2229119Y-2413000D01*
X2220112Y-2416731D01*
X2197329Y-2431954D01*
X2177954Y-2451329D01*
X2162731Y-2474112D01*
X2152246Y-2499426D01*
X2146900Y-2526300D01*
X2146900Y-2553700D01*
X2150081Y-2569693D01*
X1703852Y-2123464D01*
X1958214Y-2123464D01*
X1964200Y-2146585D01*
X1987857Y-2157610D01*
X2013211Y-2163809D01*
X2039286Y-2164942D01*
X2065082Y-2160966D01*
X2089606Y-2152034D01*
X2099800Y-2146585D01*
X2105786Y-2123464D01*
X2032000Y-2049678D01*
X1958214Y-2123464D01*
X1703852Y-2123464D01*
X1619675Y-2039286D01*
X1899058Y-2039286D01*
X1903034Y-2065082D01*
X1911966Y-2089606D01*
X1917415Y-2099800D01*
X1940536Y-2105786D01*
X2014322Y-2032000D01*
X2049678Y-2032000D01*
X2123464Y-2105786D01*
X2136955Y-2102293D01*
X2145635Y-2118531D01*
X2171983Y-2128340D01*
X2268322Y-2032000D01*
X2171983Y-1935660D01*
X2145635Y-1945469D01*
X2137621Y-1961879D01*
X2123464Y-1958214D01*
X2049678Y-2032000D01*
X2014322Y-2032000D01*
X1940536Y-1958214D01*
X1917415Y-1964200D01*
X1906390Y-1987857D01*
X1900191Y-2013211D01*
X1899058Y-2039286D01*
X1619675Y-2039286D01*
X1520924Y-1940536D01*
X1958214Y-1940536D01*
X2032000Y-2014322D01*
X2105786Y-1940536D01*
X2099800Y-1917415D01*
X2076143Y-1906390D01*
X2050789Y-1900191D01*
X2024714Y-1899058D01*
X1998918Y-1903034D01*
X1974394Y-1911966D01*
X1964200Y-1917415D01*
X1958214Y-1940536D01*
X1520924Y-1940536D01*
X1396000Y-1815612D01*
X1396000Y-1735770D01*
X1396080Y-1735813D01*
X1403149Y-1737957D01*
X1410500Y-1738681D01*
X1510500Y-1738681D01*
X1517851Y-1737957D01*
X1524920Y-1735813D01*
X1531435Y-1732331D01*
X1537145Y-1727645D01*
X1541831Y-1721935D01*
X1545313Y-1715420D01*
X1547457Y-1708351D01*
X1548181Y-1701000D01*
X1548181Y-1601000D01*
X1547457Y-1593649D01*
X1545313Y-1586580D01*
X1541831Y-1580065D01*
X1537145Y-1574355D01*
X1531435Y-1569669D01*
X1524920Y-1566187D01*
X1517851Y-1564043D01*
X1510500Y-1563319D01*
X1410500Y-1563319D01*
X1403149Y-1564043D01*
X1396080Y-1566187D01*
X1396000Y-1566230D01*
X1396000Y-1253547D01*
X1400649Y-1254957D01*
X1408000Y-1255681D01*
X1513000Y-1255681D01*
X1520351Y-1254957D01*
X1527420Y-1252813D01*
X1533935Y-1249331D01*
X1539645Y-1244645D01*
X1544331Y-1238935D01*
X1547813Y-1232420D01*
X1549957Y-1225351D01*
X1550681Y-1218000D01*
X1550681Y-1205500D01*
X1561612Y-1205500D01*
X1715500Y-1359388D01*
X1715500Y-1690472D01*
X1709473Y-1694499D01*
X1694499Y-1709473D01*
X1682735Y-1727080D01*
X1674631Y-1746643D01*
X1670500Y-1767412D01*
X1670500Y-1788588D01*
X1674631Y-1809357D01*
X1682735Y-1828920D01*
X1694499Y-1846527D01*
X1709473Y-1861501D01*
X1727080Y-1873265D01*
X1746643Y-1881369D01*
X1767412Y-1885500D01*
X1788588Y-1885500D01*
X1809357Y-1881369D01*
X1828920Y-1873265D01*
X1846527Y-1861501D01*
X1861501Y-1846527D01*
X1873265Y-1828920D01*
X1881369Y-1809357D01*
X1885500Y-1788588D01*
X1885500Y-1767412D01*
X1881369Y-1746643D01*
X1873265Y-1727080D01*
X1861501Y-1709473D01*
X1846527Y-1694499D01*
X1840500Y-1690472D01*
X1840500Y-1336570D01*
X1840802Y-1333500D01*
X1840500Y-1330430D01*
X1839596Y-1321248D01*
X1836022Y-1309467D01*
X1830218Y-1298609D01*
X1822408Y-1289092D01*
X1820023Y-1287135D01*
X1633866Y-1100978D01*
X1631908Y-1098592D01*
X1622391Y-1090782D01*
X1611533Y-1084978D01*
X1599752Y-1081404D01*
X1590570Y-1080500D01*
X1590569Y-1080500D01*
X1587500Y-1080198D01*
X1584431Y-1080500D01*
X1550681Y-1080500D01*
X1550681Y-1068000D01*
X1549957Y-1060649D01*
X1547813Y-1053580D01*
X1544331Y-1047065D01*
X1539645Y-1041355D01*
X1533935Y-1036669D01*
X1527420Y-1033187D01*
X1520351Y-1031043D01*
X1513000Y-1030319D01*
X1408000Y-1030319D01*
X1400649Y-1031043D01*
X1393580Y-1033187D01*
X1387065Y-1036669D01*
X1381355Y-1041355D01*
X1379830Y-1043214D01*
X1368108Y-1036949D01*
X1351143Y-1031802D01*
X1333500Y-1030065D01*
X1315857Y-1031802D01*
X1298892Y-1036949D01*
X1290553Y-1041406D01*
X1282504Y-1032903D01*
X1263954Y-1019758D01*
X1243196Y-1010485D01*
X1236730Y-1009544D01*
X1219000Y-1021914D01*
X1219000Y-1130500D01*
X1221000Y-1130500D01*
X1221000Y-1155500D01*
X1219000Y-1155500D01*
X1219000Y-1264086D01*
X1236730Y-1276456D01*
X1243196Y-1275515D01*
X1263954Y-1266242D01*
X1271000Y-1261249D01*
X1271000Y-1591756D01*
X1262278Y-1583034D01*
X1247947Y-1573458D01*
X1232023Y-1566863D01*
X1215118Y-1563500D01*
X1197882Y-1563500D01*
X1180977Y-1566863D01*
X1165053Y-1573458D01*
X1150722Y-1583034D01*
X1138534Y-1595222D01*
X1128959Y-1609553D01*
X1122363Y-1625477D01*
X1119000Y-1642382D01*
X1119000Y-1659618D01*
X1122363Y-1676523D01*
X1128959Y-1692447D01*
X1138534Y-1706778D01*
X1144000Y-1712244D01*
X1144000Y-2219430D01*
X1143698Y-2222500D01*
X1144000Y-2225570D01*
X1144904Y-2234752D01*
X1148478Y-2246533D01*
X1154282Y-2257391D01*
X1162092Y-2266908D01*
X1164477Y-2268865D01*
X1985635Y-3090023D01*
X1987592Y-3092408D01*
X1997109Y-3100218D01*
X2007967Y-3106022D01*
X2019748Y-3109596D01*
X2028930Y-3110500D01*
X2028931Y-3110500D01*
X2032000Y-3110802D01*
X2035069Y-3110500D01*
X2161328Y-3110500D01*
X2162731Y-3113888D01*
X2177954Y-3136671D01*
X2197329Y-3156046D01*
X2220112Y-3171269D01*
X2229119Y-3175000D01*
X2220112Y-3178731D01*
X2197329Y-3193954D01*
X2177954Y-3213329D01*
X2162731Y-3236111D01*
X2161328Y-3239500D01*
X1867388Y-3239500D01*
X888000Y-2260112D01*
X888000Y-1710244D01*
X896722Y-1718966D01*
X911053Y-1728541D01*
X926977Y-1735137D01*
X943882Y-1738500D01*
X961118Y-1738500D01*
X978023Y-1735137D01*
X993947Y-1728541D01*
X1008278Y-1718966D01*
X1020466Y-1706778D01*
X1030041Y-1692447D01*
X1036637Y-1676523D01*
X1040000Y-1659618D01*
X1040000Y-1642382D01*
X1036637Y-1625477D01*
X1030041Y-1609553D01*
X1020466Y-1595222D01*
X1008278Y-1583034D01*
X993947Y-1573458D01*
X978023Y-1566863D01*
X961118Y-1563500D01*
X943882Y-1563500D01*
X926977Y-1566863D01*
X911053Y-1573458D01*
X896722Y-1583034D01*
X888000Y-1591756D01*
X888000Y-1463570D01*
X888302Y-1460500D01*
X888000Y-1457430D01*
X887096Y-1448248D01*
X883522Y-1436467D01*
X880300Y-1430440D01*
X877718Y-1425609D01*
X871865Y-1418477D01*
X871865Y-1418476D01*
X869908Y-1416092D01*
X867523Y-1414135D01*
X824500Y-1371112D01*
X824500Y-1253547D01*
X829149Y-1254957D01*
X836500Y-1255681D01*
X941500Y-1255681D01*
X948851Y-1254957D01*
X955920Y-1252813D01*
X962435Y-1249331D01*
X968145Y-1244645D01*
X972831Y-1238935D01*
X976313Y-1232420D01*
X978457Y-1225351D01*
X979181Y-1218000D01*
X979181Y-1173698D01*
X1090817Y-1173698D01*
X1094639Y-1196109D01*
X1102760Y-1217344D01*
X1114867Y-1236587D01*
X1130496Y-1253097D01*
X1149046Y-1266242D01*
X1169804Y-1275515D01*
X1176271Y-1276456D01*
X1194000Y-1264086D01*
X1194000Y-1155500D01*
X1106583Y-1155500D01*
X1090817Y-1173698D01*
X979181Y-1173698D01*
X979181Y-1112302D01*
X1090817Y-1112302D01*
X1106583Y-1130500D01*
X1194000Y-1130500D01*
X1194000Y-1021914D01*
X1176271Y-1009544D01*
X1169804Y-1010485D01*
X1149046Y-1019758D01*
X1130496Y-1032903D01*
X1114867Y-1049414D01*
X1102760Y-1068656D01*
X1094639Y-1089891D01*
X1090817Y-1112302D01*
X979181Y-1112302D01*
X979181Y-1068000D01*
X978457Y-1060649D01*
X976313Y-1053580D01*
X972831Y-1047065D01*
X968145Y-1041355D01*
X962435Y-1036669D01*
X955920Y-1033187D01*
X951500Y-1031846D01*
X951500Y-955570D01*
X951802Y-952500D01*
X951500Y-949430D01*
X951500Y-884941D01*
X954131Y-883851D01*
X976651Y-868803D01*
X995803Y-849651D01*
X1010851Y-827131D01*
X1021216Y-802107D01*
X1026500Y-775543D01*
X1026500Y-748457D01*
X1021216Y-721893D01*
X1010851Y-696869D01*
X995803Y-674349D01*
X976651Y-655197D01*
X954131Y-640149D01*
X929107Y-629784D01*
X902543Y-624500D01*
X875457Y-624500D01*
X848893Y-629784D01*
X823869Y-640149D01*
X801349Y-655197D01*
X782197Y-674349D01*
X772681Y-688590D01*
X772681Y-662000D01*
X771957Y-654649D01*
X769813Y-647580D01*
X766331Y-641065D01*
X761645Y-635355D01*
X755935Y-630669D01*
X749420Y-627187D01*
X742351Y-625043D01*
X735000Y-624319D01*
X535000Y-624319D01*
X527649Y-625043D01*
X520580Y-627187D01*
X514065Y-630669D01*
X508355Y-635355D01*
X503669Y-641065D01*
X500187Y-647580D01*
X498043Y-654649D01*
X497319Y-662000D01*
X497319Y-862000D01*
X498043Y-869351D01*
X500187Y-876420D01*
X503669Y-882935D01*
X508355Y-888645D01*
X509861Y-889881D01*
X508000Y-889698D01*
X504930Y-890000D01*
X504930Y-890000D01*
X495748Y-890904D01*
X483967Y-894478D01*
X479598Y-896813D01*
X473109Y-900282D01*
X465977Y-906135D01*
X465976Y-906135D01*
X463592Y-908092D01*
X461635Y-910477D01*
X418612Y-953500D01*
X353555Y-953500D01*
X345268Y-941098D01*
X328902Y-924732D01*
X309657Y-911873D01*
X288274Y-903015D01*
X265573Y-898500D01*
X242427Y-898500D01*
X219726Y-903015D01*
X198343Y-911873D01*
X179098Y-924732D01*
X162732Y-941098D01*
X149873Y-960343D01*
X141016Y-981726D01*
X138012Y-996828D01*
X133754Y-975426D01*
X123269Y-950111D01*
X108046Y-927329D01*
X88671Y-907954D01*
X65889Y-892731D01*
X56881Y-889000D01*
X65889Y-885269D01*
X88671Y-870046D01*
X108046Y-850671D01*
X123269Y-827888D01*
X133754Y-802574D01*
X139100Y-775700D01*
X139100Y-748300D01*
X133754Y-721426D01*
X123269Y-696112D01*
X108046Y-673329D01*
X88671Y-653954D01*
X65889Y-638731D01*
X56881Y-635000D01*
X65889Y-631269D01*
X88671Y-616046D01*
X108046Y-596671D01*
X123269Y-573889D01*
X133754Y-548574D01*
X139100Y-521700D01*
X139100Y-494300D01*
X133754Y-467426D01*
X123269Y-442111D01*
X108046Y-419329D01*
X88671Y-399954D01*
X83073Y-396214D01*
X86531Y-394365D01*
X96340Y-368017D01*
X0Y-271678D01*
X-96340Y-368017D01*
X-86531Y-394365D01*
X-82935Y-396121D01*
X-88671Y-399954D01*
X-108046Y-419329D01*
X-123269Y-442111D01*
X-133754Y-467426D01*
X-139100Y-494300D01*
X-139100Y-521700D01*
X-133754Y-548574D01*
X-123269Y-573889D01*
X-108046Y-596671D01*
X-88671Y-616046D01*
X-65889Y-631269D01*
X-56881Y-635000D01*
X-65889Y-638731D01*
X-88671Y-653954D01*
X-108046Y-673329D01*
X-123269Y-696112D01*
X-133754Y-721426D01*
X-139100Y-748300D01*
X-139100Y-775700D01*
X-133754Y-802574D01*
X-123269Y-827888D01*
X-108046Y-850671D01*
X-88671Y-870046D01*
X-65889Y-885269D01*
X-56881Y-889000D01*
X-65889Y-892731D01*
X-88671Y-907954D01*
X-108046Y-927329D01*
X-123269Y-950111D01*
X-133754Y-975426D01*
X-139100Y-1002300D01*
X-139100Y-1029700D01*
X-133754Y-1056574D01*
X-123269Y-1081889D01*
X-108046Y-1104671D01*
X-88671Y-1124046D01*
X-83073Y-1127786D01*
X-86531Y-1129635D01*
X-96340Y-1155983D01*
X0Y-1252322D01*
X96340Y-1155983D01*
X86531Y-1129635D01*
X82935Y-1127879D01*
X88671Y-1124046D01*
X108046Y-1104671D01*
X123269Y-1081889D01*
X133754Y-1056574D01*
X138012Y-1035172D01*
X141016Y-1050274D01*
X149873Y-1071657D01*
X162732Y-1090902D01*
X179098Y-1107268D01*
X198343Y-1120127D01*
X219726Y-1128985D01*
X242427Y-1133500D01*
X265573Y-1133500D01*
X288274Y-1128985D01*
X309657Y-1120127D01*
X328902Y-1107268D01*
X345268Y-1090902D01*
X353555Y-1078500D01*
X441431Y-1078500D01*
X444500Y-1078802D01*
X447569Y-1078500D01*
X447570Y-1078500D01*
X456752Y-1077596D01*
X468533Y-1074022D01*
X479391Y-1068218D01*
X488908Y-1060408D01*
X490866Y-1058022D01*
X533888Y-1015000D01*
X588197Y-1015000D01*
X577546Y-1019758D01*
X558996Y-1032903D01*
X543367Y-1049414D01*
X531260Y-1068656D01*
X523139Y-1089891D01*
X519316Y-1112302D01*
X535083Y-1130500D01*
X622500Y-1130500D01*
X622500Y-1128500D01*
X647500Y-1128500D01*
X647500Y-1130500D01*
X649500Y-1130500D01*
X649500Y-1155500D01*
X647500Y-1155500D01*
X647500Y-1264086D01*
X665230Y-1276456D01*
X671696Y-1275515D01*
X692454Y-1266242D01*
X699500Y-1261249D01*
X699500Y-1393931D01*
X699198Y-1397000D01*
X699500Y-1400069D01*
X699500Y-1400070D01*
X700404Y-1409252D01*
X703978Y-1421033D01*
X709782Y-1431891D01*
X717592Y-1441408D01*
X719978Y-1443366D01*
X763000Y-1486388D01*
X763000Y-1559487D01*
X754104Y-1553201D01*
X733956Y-1544233D01*
X728336Y-1542528D01*
X711000Y-1554935D01*
X711000Y-1638500D01*
X713000Y-1638500D01*
X713000Y-1663500D01*
X711000Y-1663500D01*
X711000Y-1747065D01*
X728336Y-1759471D01*
X733956Y-1757767D01*
X754104Y-1748799D01*
X763000Y-1742513D01*
X763000Y-2282931D01*
X762698Y-2286000D01*
X763000Y-2289069D01*
X763000Y-2289070D01*
X763904Y-2298252D01*
X767478Y-2310033D01*
X773282Y-2320891D01*
X781092Y-2330408D01*
X783478Y-2332366D01*
X1795135Y-3344023D01*
X1797092Y-3346408D01*
X1806609Y-3354218D01*
X1817467Y-3360022D01*
X1829248Y-3363596D01*
X1838430Y-3364500D01*
X1838430Y-3364500D01*
X1841500Y-3364802D01*
X1844570Y-3364500D01*
X2161328Y-3364500D01*
X2162731Y-3367888D01*
X2177954Y-3390671D01*
X2197329Y-3410046D01*
X2220112Y-3425269D01*
X2229119Y-3429000D01*
X2220112Y-3432731D01*
X2197329Y-3447954D01*
X2177954Y-3467329D01*
X2162731Y-3490111D01*
X2152246Y-3515426D01*
X2146900Y-3542300D01*
X2146900Y-3569700D01*
X2152246Y-3596574D01*
X2153649Y-3599962D01*
X1958227Y-3795385D01*
X1625112Y-4128500D01*
X1342604Y-4128500D01*
X1346274Y-4126748D01*
X1369438Y-4109442D01*
X1388781Y-4087950D01*
X1401319Y-4066865D01*
X1401319Y-4085500D01*
X1402043Y-4092851D01*
X1404187Y-4099920D01*
X1407669Y-4106435D01*
X1412355Y-4112145D01*
X1418065Y-4116831D01*
X1424580Y-4120313D01*
X1431649Y-4122457D01*
X1439000Y-4123181D01*
X1609000Y-4123181D01*
X1616351Y-4122457D01*
X1623420Y-4120313D01*
X1629935Y-4116831D01*
X1635645Y-4112145D01*
X1640331Y-4106435D01*
X1643813Y-4099920D01*
X1645957Y-4092851D01*
X1646681Y-4085500D01*
X1646681Y-3915500D01*
X1645957Y-3908149D01*
X1643813Y-3901080D01*
X1640331Y-3894565D01*
X1635645Y-3888855D01*
X1629935Y-3884169D01*
X1623420Y-3880687D01*
X1616351Y-3878543D01*
X1609000Y-3877819D01*
X1439000Y-3877819D01*
X1431649Y-3878543D01*
X1424580Y-3880687D01*
X1418065Y-3884169D01*
X1412355Y-3888855D01*
X1407669Y-3894565D01*
X1404187Y-3901080D01*
X1402043Y-3908149D01*
X1401319Y-3915500D01*
X1401319Y-3934135D01*
X1388781Y-3913050D01*
X1369438Y-3891558D01*
X1346274Y-3874251D01*
X1320179Y-3861797D01*
X1305337Y-3857295D01*
X1282500Y-3869219D01*
X1282500Y-3988000D01*
X1284500Y-3988000D01*
X1284500Y-4013000D01*
X1282500Y-4013000D01*
X1282500Y-4015000D01*
X1257500Y-4015000D01*
X1257500Y-4013000D01*
X1255500Y-4013000D01*
X1255500Y-3988000D01*
X1257500Y-3988000D01*
X1257500Y-3869219D01*
X1234663Y-3857295D01*
X1219821Y-3861797D01*
X1193726Y-3874251D01*
X1170562Y-3891558D01*
X1151219Y-3913050D01*
X1136441Y-3937904D01*
X1130094Y-3955839D01*
X1124558Y-3942474D01*
X1111152Y-3922411D01*
X1094089Y-3905348D01*
X1074026Y-3891942D01*
X1051732Y-3882708D01*
X1028065Y-3878000D01*
X1003935Y-3878000D01*
X980268Y-3882708D01*
X957974Y-3891942D01*
X937911Y-3905348D01*
X920848Y-3922411D01*
X907442Y-3942474D01*
X898208Y-3964768D01*
X893500Y-3988435D01*
X893500Y-4012565D01*
X898208Y-4036232D01*
X907442Y-4058525D01*
X920848Y-4078589D01*
X937911Y-4095652D01*
X957974Y-4109058D01*
X980268Y-4118292D01*
X1003935Y-4123000D01*
X1028065Y-4123000D01*
X1046454Y-4119342D01*
X1138112Y-4211000D01*
X-65636Y-4211000D01*
X-65997Y-4211036D01*
X-79678Y-4209694D01*
X-95240Y-4204996D01*
X-109593Y-4197364D01*
X-122190Y-4187090D01*
X-132552Y-4174565D01*
X-140283Y-4160266D01*
X-145090Y-4144737D01*
X-147000Y-4126566D01*
X-147000Y-3961548D01*
X-122500Y-3961548D01*
X-122500Y-4000452D01*
X-114910Y-4038609D01*
X-100022Y-4074551D01*
X-78408Y-4106899D01*
X-50899Y-4134408D01*
X-18551Y-4156022D01*
X17391Y-4170910D01*
X55548Y-4178500D01*
X94452Y-4178500D01*
X132609Y-4170910D01*
X168551Y-4156022D01*
X200899Y-4134408D01*
X228408Y-4106899D01*
X250022Y-4074551D01*
X264910Y-4038609D01*
X272500Y-4000452D01*
X272500Y-3961548D01*
X264910Y-3923391D01*
X250022Y-3887449D01*
X228408Y-3855101D01*
X200899Y-3827592D01*
X168551Y-3805978D01*
X132609Y-3791090D01*
X94452Y-3783500D01*
X55548Y-3783500D01*
X17391Y-3791090D01*
X-18551Y-3805978D01*
X-50899Y-3827592D01*
X-78408Y-3855101D01*
X-100022Y-3887449D01*
X-114910Y-3923391D01*
X-122500Y-3961548D01*
X-147000Y-3961548D01*
X-147000Y-3454400D01*
X-139281Y-3454400D01*
X-139281Y-3657600D01*
X-138557Y-3664951D01*
X-136413Y-3672020D01*
X-132931Y-3678535D01*
X-128245Y-3684245D01*
X-122535Y-3688931D01*
X-116020Y-3692413D01*
X-108951Y-3694557D01*
X-101600Y-3695281D01*
X101600Y-3695281D01*
X108951Y-3694557D01*
X116020Y-3692413D01*
X122535Y-3688931D01*
X128245Y-3684245D01*
X132931Y-3678535D01*
X136413Y-3672020D01*
X138557Y-3664951D01*
X139281Y-3657600D01*
X139281Y-3618500D01*
X736112Y-3618500D01*
X770158Y-3652546D01*
X766500Y-3670935D01*
X766500Y-3695065D01*
X770158Y-3713454D01*
X719977Y-3763635D01*
X717592Y-3765592D01*
X709782Y-3775109D01*
X703978Y-3785967D01*
X700404Y-3797748D01*
X699898Y-3802891D01*
X699198Y-3810000D01*
X699500Y-3813070D01*
X699500Y-3894932D01*
X683911Y-3905348D01*
X666848Y-3922411D01*
X653442Y-3942474D01*
X644208Y-3964768D01*
X639500Y-3988435D01*
X639500Y-4012565D01*
X644208Y-4036232D01*
X653442Y-4058525D01*
X666848Y-4078589D01*
X683911Y-4095652D01*
X703974Y-4109058D01*
X726268Y-4118292D01*
X749935Y-4123000D01*
X774065Y-4123000D01*
X797732Y-4118292D01*
X820025Y-4109058D01*
X840089Y-4095652D01*
X857152Y-4078589D01*
X870558Y-4058525D01*
X879792Y-4036232D01*
X884500Y-4012565D01*
X884500Y-3988435D01*
X879792Y-3964768D01*
X870558Y-3942474D01*
X857152Y-3922411D01*
X840089Y-3905348D01*
X824500Y-3894932D01*
X824500Y-3835888D01*
X858546Y-3801842D01*
X876935Y-3805500D01*
X901065Y-3805500D01*
X924732Y-3800792D01*
X947025Y-3791558D01*
X967089Y-3778152D01*
X984152Y-3761089D01*
X997558Y-3741025D01*
X1006792Y-3718732D01*
X1011500Y-3695065D01*
X1011500Y-3670935D01*
X1020500Y-3670935D01*
X1020500Y-3695065D01*
X1025208Y-3718732D01*
X1034442Y-3741025D01*
X1047848Y-3761089D01*
X1064911Y-3778152D01*
X1084975Y-3791558D01*
X1107268Y-3800792D01*
X1130935Y-3805500D01*
X1155065Y-3805500D01*
X1178732Y-3800792D01*
X1201026Y-3791558D01*
X1221089Y-3778152D01*
X1238152Y-3761089D01*
X1249323Y-3744370D01*
X1249198Y-3768000D01*
X1250404Y-3780252D01*
X1253978Y-3792033D01*
X1259782Y-3802891D01*
X1267592Y-3812408D01*
X1277109Y-3820218D01*
X1287967Y-3826022D01*
X1299748Y-3829596D01*
X1312000Y-3830802D01*
X1368875Y-3830500D01*
X1384500Y-3814875D01*
X1384500Y-3695500D01*
X1409500Y-3695500D01*
X1409500Y-3814875D01*
X1425125Y-3830500D01*
X1482000Y-3830802D01*
X1494252Y-3829596D01*
X1506033Y-3826022D01*
X1516891Y-3820218D01*
X1526408Y-3812408D01*
X1534218Y-3802891D01*
X1540022Y-3792033D01*
X1543596Y-3780252D01*
X1544802Y-3768000D01*
X1544500Y-3711125D01*
X1528875Y-3695500D01*
X1409500Y-3695500D01*
X1384500Y-3695500D01*
X1382500Y-3695500D01*
X1382500Y-3670500D01*
X1384500Y-3670500D01*
X1384500Y-3551125D01*
X1409500Y-3551125D01*
X1409500Y-3670500D01*
X1528875Y-3670500D01*
X1544500Y-3654875D01*
X1544802Y-3598000D01*
X1543596Y-3585748D01*
X1540022Y-3573967D01*
X1534218Y-3563109D01*
X1526408Y-3553592D01*
X1516891Y-3545782D01*
X1516200Y-3545412D01*
X1924500Y-3545412D01*
X1924500Y-3566588D01*
X1928631Y-3587357D01*
X1936735Y-3606920D01*
X1948499Y-3624527D01*
X1963473Y-3639501D01*
X1981080Y-3651265D01*
X2000643Y-3659369D01*
X2021412Y-3663500D01*
X2042588Y-3663500D01*
X2063357Y-3659369D01*
X2082920Y-3651265D01*
X2100527Y-3639501D01*
X2115501Y-3624527D01*
X2127265Y-3606920D01*
X2135369Y-3587357D01*
X2139500Y-3566588D01*
X2139500Y-3545412D01*
X2135369Y-3524643D01*
X2127265Y-3505080D01*
X2115501Y-3487473D01*
X2100527Y-3472499D01*
X2082920Y-3460735D01*
X2063357Y-3452631D01*
X2042588Y-3448500D01*
X2021412Y-3448500D01*
X2000643Y-3452631D01*
X1981080Y-3460735D01*
X1963473Y-3472499D01*
X1948499Y-3487473D01*
X1936735Y-3505080D01*
X1928631Y-3524643D01*
X1924500Y-3545412D01*
X1516200Y-3545412D01*
X1506033Y-3539978D01*
X1494252Y-3536404D01*
X1482000Y-3535198D01*
X1425125Y-3535500D01*
X1409500Y-3551125D01*
X1384500Y-3551125D01*
X1368875Y-3535500D01*
X1312000Y-3535198D01*
X1299748Y-3536404D01*
X1287967Y-3539978D01*
X1277109Y-3545782D01*
X1267592Y-3553592D01*
X1259782Y-3563109D01*
X1253978Y-3573967D01*
X1250404Y-3585748D01*
X1249198Y-3598000D01*
X1249323Y-3621630D01*
X1238152Y-3604911D01*
X1221089Y-3587848D01*
X1201026Y-3574442D01*
X1178732Y-3565208D01*
X1155065Y-3560500D01*
X1130935Y-3560500D01*
X1107268Y-3565208D01*
X1084975Y-3574442D01*
X1064911Y-3587848D01*
X1047848Y-3604911D01*
X1034442Y-3624974D01*
X1025208Y-3647268D01*
X1020500Y-3670935D01*
X1011500Y-3670935D01*
X1006792Y-3647268D01*
X997558Y-3624974D01*
X984152Y-3604911D01*
X967089Y-3587848D01*
X947025Y-3574442D01*
X924732Y-3565208D01*
X901065Y-3560500D01*
X876935Y-3560500D01*
X858546Y-3564158D01*
X808366Y-3513978D01*
X806408Y-3511592D01*
X796891Y-3503782D01*
X786033Y-3497978D01*
X774252Y-3494404D01*
X765070Y-3493500D01*
X765069Y-3493500D01*
X762000Y-3493198D01*
X758931Y-3493500D01*
X139281Y-3493500D01*
X139281Y-3454400D01*
X138557Y-3447049D01*
X136413Y-3439980D01*
X132931Y-3433465D01*
X128245Y-3427755D01*
X122535Y-3423069D01*
X116020Y-3419587D01*
X108951Y-3417443D01*
X101600Y-3416719D01*
X78685Y-3416719D01*
X88671Y-3410046D01*
X108046Y-3390671D01*
X123269Y-3367888D01*
X133754Y-3342574D01*
X139100Y-3315700D01*
X139100Y-3288300D01*
X133754Y-3261426D01*
X123269Y-3236111D01*
X108046Y-3213329D01*
X88671Y-3193954D01*
X65889Y-3178731D01*
X56881Y-3175000D01*
X65889Y-3171269D01*
X88671Y-3156046D01*
X108046Y-3136671D01*
X123269Y-3113888D01*
X133754Y-3088574D01*
X135463Y-3079986D01*
X136208Y-3083732D01*
X145442Y-3106025D01*
X158848Y-3126089D01*
X175911Y-3143152D01*
X195974Y-3156558D01*
X218268Y-3165792D01*
X241935Y-3170500D01*
X266065Y-3170500D01*
X289732Y-3165792D01*
X312026Y-3156558D01*
X332089Y-3143152D01*
X349152Y-3126089D01*
X362558Y-3106025D01*
X371792Y-3083732D01*
X376500Y-3060065D01*
X376500Y-3035935D01*
X371792Y-3012268D01*
X362558Y-2989974D01*
X349152Y-2969911D01*
X332089Y-2952848D01*
X312026Y-2939442D01*
X289732Y-2930208D01*
X266065Y-2925500D01*
X241935Y-2925500D01*
X218268Y-2930208D01*
X195974Y-2939442D01*
X175911Y-2952848D01*
X158848Y-2969911D01*
X145442Y-2989974D01*
X136208Y-3012268D01*
X135463Y-3016013D01*
X133754Y-3007426D01*
X123269Y-2982111D01*
X108046Y-2959329D01*
X88671Y-2939954D01*
X65889Y-2924731D01*
X56881Y-2921000D01*
X65889Y-2917269D01*
X88671Y-2902046D01*
X108046Y-2882671D01*
X123269Y-2859888D01*
X133754Y-2834574D01*
X135463Y-2825986D01*
X136208Y-2829732D01*
X145442Y-2852025D01*
X158848Y-2872089D01*
X175911Y-2889152D01*
X195974Y-2902558D01*
X218268Y-2911792D01*
X241935Y-2916500D01*
X266065Y-2916500D01*
X289732Y-2911792D01*
X312026Y-2902558D01*
X332089Y-2889152D01*
X349152Y-2872089D01*
X362558Y-2852025D01*
X371792Y-2829732D01*
X376500Y-2806065D01*
X376500Y-2781935D01*
X371792Y-2758268D01*
X362558Y-2735975D01*
X349152Y-2715911D01*
X332089Y-2698848D01*
X315370Y-2687677D01*
X339000Y-2687802D01*
X351252Y-2686596D01*
X363033Y-2683022D01*
X373891Y-2677218D01*
X383408Y-2669408D01*
X391218Y-2659891D01*
X397022Y-2649033D01*
X400596Y-2637252D01*
X401802Y-2625000D01*
X401500Y-2568125D01*
X385875Y-2552500D01*
X266500Y-2552500D01*
X266500Y-2554500D01*
X241500Y-2554500D01*
X241500Y-2552500D01*
X239500Y-2552500D01*
X239500Y-2527500D01*
X241500Y-2527500D01*
X241500Y-2408125D01*
X266500Y-2408125D01*
X266500Y-2527500D01*
X385875Y-2527500D01*
X401500Y-2511875D01*
X401802Y-2455000D01*
X400596Y-2442748D01*
X397022Y-2430967D01*
X391218Y-2420109D01*
X383408Y-2410592D01*
X373891Y-2402782D01*
X363033Y-2396978D01*
X351252Y-2393404D01*
X339000Y-2392198D01*
X282125Y-2392500D01*
X266500Y-2408125D01*
X241500Y-2408125D01*
X225875Y-2392500D01*
X169000Y-2392198D01*
X156748Y-2393404D01*
X144967Y-2396978D01*
X134109Y-2402782D01*
X124592Y-2410592D01*
X116782Y-2420109D01*
X110978Y-2430967D01*
X107404Y-2442748D01*
X106692Y-2449975D01*
X88671Y-2431954D01*
X65889Y-2416731D01*
X56881Y-2413000D01*
X65889Y-2409269D01*
X88671Y-2394046D01*
X108046Y-2374671D01*
X123269Y-2351889D01*
X133754Y-2326574D01*
X139100Y-2299700D01*
X139100Y-2272300D01*
X133754Y-2245426D01*
X123269Y-2220112D01*
X108046Y-2197329D01*
X88671Y-2177954D01*
X65889Y-2162731D01*
X56881Y-2159000D01*
X65889Y-2155269D01*
X88671Y-2140046D01*
X108046Y-2120671D01*
X123269Y-2097889D01*
X133754Y-2072574D01*
X139100Y-2045700D01*
X139100Y-2021412D01*
X146500Y-2021412D01*
X146500Y-2042588D01*
X150631Y-2063357D01*
X158735Y-2082920D01*
X170499Y-2100527D01*
X185473Y-2115501D01*
X203080Y-2127265D01*
X222643Y-2135369D01*
X243412Y-2139500D01*
X264588Y-2139500D01*
X285357Y-2135369D01*
X304920Y-2127265D01*
X322527Y-2115501D01*
X337501Y-2100527D01*
X349265Y-2082920D01*
X357369Y-2063357D01*
X361500Y-2042588D01*
X361500Y-2021412D01*
X357369Y-2000643D01*
X349265Y-1981080D01*
X337501Y-1963473D01*
X322527Y-1948499D01*
X304920Y-1936735D01*
X285357Y-1928631D01*
X264588Y-1924500D01*
X243412Y-1924500D01*
X222643Y-1928631D01*
X203080Y-1936735D01*
X185473Y-1948499D01*
X170499Y-1963473D01*
X158735Y-1981080D01*
X150631Y-2000643D01*
X146500Y-2021412D01*
X139100Y-2021412D01*
X139100Y-2018300D01*
X133754Y-1991426D01*
X123269Y-1966111D01*
X108046Y-1943329D01*
X88671Y-1923954D01*
X65889Y-1908731D01*
X56881Y-1905000D01*
X65889Y-1901269D01*
X88671Y-1886046D01*
X108046Y-1866671D01*
X123269Y-1843888D01*
X133754Y-1818574D01*
X139100Y-1791700D01*
X139100Y-1764300D01*
X133754Y-1737426D01*
X123269Y-1712111D01*
X108046Y-1689329D01*
X99553Y-1680836D01*
X590028Y-1680836D01*
X597933Y-1701425D01*
X609703Y-1720075D01*
X624885Y-1736072D01*
X642896Y-1748799D01*
X663044Y-1757767D01*
X668664Y-1759471D01*
X686000Y-1747065D01*
X686000Y-1663500D01*
X602321Y-1663500D01*
X590028Y-1680836D01*
X99553Y-1680836D01*
X88671Y-1669954D01*
X65889Y-1654731D01*
X56881Y-1651000D01*
X65889Y-1647269D01*
X88671Y-1632046D01*
X99553Y-1621164D01*
X590028Y-1621164D01*
X602321Y-1638500D01*
X686000Y-1638500D01*
X686000Y-1554935D01*
X668664Y-1542528D01*
X663044Y-1544233D01*
X642896Y-1553201D01*
X624885Y-1565928D01*
X609703Y-1581924D01*
X597933Y-1600575D01*
X590028Y-1621164D01*
X99553Y-1621164D01*
X108046Y-1612671D01*
X123269Y-1589888D01*
X133754Y-1564574D01*
X139100Y-1537700D01*
X139100Y-1510300D01*
X133754Y-1483426D01*
X123269Y-1458111D01*
X108046Y-1435329D01*
X88671Y-1415954D01*
X83073Y-1412214D01*
X86531Y-1410365D01*
X96340Y-1384017D01*
X0Y-1287678D01*
X-96340Y-1384017D01*
X-86531Y-1410365D01*
X-82935Y-1412121D01*
X-88671Y-1415954D01*
X-108046Y-1435329D01*
X-123269Y-1458111D01*
X-133754Y-1483426D01*
X-139100Y-1510300D01*
X-139100Y-1537700D01*
X-133754Y-1564574D01*
X-123269Y-1589888D01*
X-108046Y-1612671D01*
X-88671Y-1632046D01*
X-65889Y-1647269D01*
X-56881Y-1651000D01*
X-65889Y-1654731D01*
X-88671Y-1669954D01*
X-108046Y-1689329D01*
X-123269Y-1712111D01*
X-133754Y-1737426D01*
X-139100Y-1764300D01*
X-139100Y-1791700D01*
X-133754Y-1818574D01*
X-123269Y-1843888D01*
X-108046Y-1866671D01*
X-88671Y-1886046D01*
X-65889Y-1901269D01*
X-56881Y-1905000D01*
X-65889Y-1908731D01*
X-88671Y-1923954D01*
X-108046Y-1943329D01*
X-123269Y-1966111D01*
X-133754Y-1991426D01*
X-139100Y-2018300D01*
X-139100Y-2045700D01*
X-133754Y-2072574D01*
X-123269Y-2097889D01*
X-108046Y-2120671D01*
X-88671Y-2140046D01*
X-65889Y-2155269D01*
X-56881Y-2159000D01*
X-65889Y-2162731D01*
X-88671Y-2177954D01*
X-108046Y-2197329D01*
X-123269Y-2220112D01*
X-133754Y-2245426D01*
X-139100Y-2272300D01*
X-139100Y-2299700D01*
X-133754Y-2326574D01*
X-123269Y-2351889D01*
X-108046Y-2374671D01*
X-88671Y-2394046D01*
X-65889Y-2409269D01*
X-56881Y-2413000D01*
X-65889Y-2416731D01*
X-88671Y-2431954D01*
X-108046Y-2451329D01*
X-123269Y-2474112D01*
X-133754Y-2499426D01*
X-139100Y-2526300D01*
X-139100Y-2553700D01*
X-133754Y-2580574D01*
X-123269Y-2605889D01*
X-108046Y-2628671D01*
X-88671Y-2648046D01*
X-65889Y-2663269D01*
X-56881Y-2667000D01*
X-65889Y-2670731D01*
X-88671Y-2685954D01*
X-108046Y-2705329D01*
X-123269Y-2728112D01*
X-133754Y-2753426D01*
X-139100Y-2780300D01*
X-139100Y-2807700D01*
X-133754Y-2834574D01*
X-123269Y-2859888D01*
X-108046Y-2882671D01*
X-88671Y-2902046D01*
X-65889Y-2917269D01*
X-56881Y-2921000D01*
X-65889Y-2924731D01*
X-88671Y-2939954D01*
X-108046Y-2959329D01*
X-123269Y-2982111D01*
X-133754Y-3007426D01*
X-139100Y-3034300D01*
X-139100Y-3061700D01*
X-133754Y-3088574D01*
X-123269Y-3113888D01*
X-108046Y-3136671D01*
X-88671Y-3156046D01*
X-65889Y-3171269D01*
X-56881Y-3175000D01*
X-65889Y-3178731D01*
X-88671Y-3193954D01*
X-108046Y-3213329D01*
X-123269Y-3236111D01*
X-133754Y-3261426D01*
X-139100Y-3288300D01*
X-139100Y-3315700D01*
X-133754Y-3342574D01*
X-123269Y-3367888D01*
X-108046Y-3390671D01*
X-88671Y-3410046D01*
X-78685Y-3416719D01*
X-101600Y-3416719D01*
X-108951Y-3417443D01*
X-116020Y-3419587D01*
X-122535Y-3423069D01*
X-128245Y-3427755D01*
X-132931Y-3433465D01*
X-136413Y-3439980D01*
X-138557Y-3447049D01*
X-139281Y-3454400D01*
X-147000Y-3454400D01*
X-147000Y-1344118D01*
X-140366Y-1356531D01*
X-114017Y-1366340D01*
X-17678Y-1270000D01*
X17678Y-1270000D01*
X114017Y-1366340D01*
X140366Y-1356531D01*
X154550Y-1327484D01*
X157236Y-1317301D01*
X158735Y-1320920D01*
X170499Y-1338527D01*
X185473Y-1353501D01*
X203080Y-1365265D01*
X222643Y-1373369D01*
X243412Y-1377500D01*
X264588Y-1377500D01*
X285357Y-1373369D01*
X304920Y-1365265D01*
X322527Y-1353501D01*
X337501Y-1338527D01*
X349265Y-1320920D01*
X357369Y-1301357D01*
X361500Y-1280588D01*
X361500Y-1259412D01*
X357369Y-1238643D01*
X349265Y-1219080D01*
X337501Y-1201473D01*
X322527Y-1186499D01*
X304920Y-1174735D01*
X302417Y-1173698D01*
X519316Y-1173698D01*
X523139Y-1196109D01*
X531260Y-1217344D01*
X543367Y-1236587D01*
X558996Y-1253097D01*
X577546Y-1266242D01*
X598304Y-1275515D01*
X604771Y-1276456D01*
X622500Y-1264086D01*
X622500Y-1155500D01*
X535083Y-1155500D01*
X519316Y-1173698D01*
X302417Y-1173698D01*
X285357Y-1166631D01*
X264588Y-1162500D01*
X243412Y-1162500D01*
X222643Y-1166631D01*
X203080Y-1174735D01*
X185473Y-1186499D01*
X170499Y-1201473D01*
X158735Y-1219080D01*
X157252Y-1222660D01*
X149931Y-1201364D01*
X140366Y-1183469D01*
X114017Y-1173660D01*
X17678Y-1270000D01*
X-17678Y-1270000D01*
X-114017Y-1173660D01*
X-140366Y-1183469D01*
X-147000Y-1197056D01*
X-147000Y-328118D01*
X-140366Y-340531D01*
X-114017Y-350340D01*
X-17678Y-254000D01*
X17678Y-254000D01*
X114017Y-350340D01*
X137156Y-341725D01*
X139187Y-348420D01*
X142669Y-354935D01*
X147355Y-360645D01*
X153065Y-365331D01*
X159580Y-368813D01*
X166649Y-370957D01*
X174000Y-371681D01*
X334000Y-371681D01*
X341351Y-370957D01*
X348420Y-368813D01*
X354935Y-365331D01*
X360645Y-360645D01*
X365331Y-354935D01*
X368813Y-348420D01*
X370957Y-341351D01*
X371681Y-334000D01*
X371681Y-174000D01*
X370957Y-166649D01*
X368813Y-159580D01*
X365331Y-153065D01*
X360645Y-147355D01*
X354935Y-142669D01*
X348420Y-139187D01*
X341351Y-137043D01*
X334000Y-136319D01*
X174000Y-136319D01*
X166649Y-137043D01*
X159580Y-139187D01*
X153065Y-142669D01*
X147355Y-147355D01*
X142669Y-153065D01*
X139187Y-159580D01*
X137156Y-166275D01*
X114017Y-157660D01*
X17678Y-254000D01*
X-17678Y-254000D01*
X-114017Y-157660D01*
X-140366Y-167469D01*
X-147000Y-181056D01*
X-147000Y13700D01*
X-139100Y13700D01*
X-139100Y-13700D01*
X-133754Y-40574D01*
X-123269Y-65889D01*
X-108046Y-88671D01*
X-88671Y-108046D01*
X-83073Y-111786D01*
X-86531Y-113634D01*
X-96340Y-139983D01*
X0Y-236322D01*
X96340Y-139983D01*
X86531Y-113634D01*
X82935Y-111879D01*
X88671Y-108046D01*
X108046Y-88671D01*
X123269Y-65889D01*
X133754Y-40574D01*
X139100Y-13700D01*
X139100Y13700D01*
X133754Y40574D01*
X123269Y65889D01*
X108046Y88671D01*
X88671Y108046D01*
X65889Y123269D01*
X40574Y133754D01*
X13700Y139100D01*
X-13700Y139100D01*
X-40574Y133754D01*
X-65889Y123269D01*
X-88671Y108046D01*
X-108046Y88671D01*
X-123269Y65889D01*
X-133754Y40574D01*
X-139100Y13700D01*
X-147000Y13700D01*
X-147000Y401452D01*
X-117500Y401452D01*
X-117500Y362548D01*
X-109910Y324391D01*
X-95022Y288449D01*
X-73408Y256101D01*
X-45899Y228592D01*
X-13551Y206978D01*
X22391Y192090D01*
X60548Y184500D01*
X99452Y184500D01*
X137609Y192090D01*
X173551Y206978D01*
X205899Y228592D01*
X233408Y256101D01*
X241382Y268035D01*
X302000Y268035D01*
X302000Y239965D01*
X307476Y212434D01*
X318218Y186501D01*
X333813Y163162D01*
X353661Y143313D01*
X377001Y127718D01*
X382000Y125647D01*
X382000Y-377931D01*
X381698Y-381000D01*
X382000Y-384069D01*
X382000Y-384070D01*
X382904Y-393252D01*
X386478Y-405033D01*
X392282Y-415891D01*
X400092Y-425408D01*
X402478Y-427366D01*
X525135Y-550023D01*
X527092Y-552408D01*
X529477Y-554365D01*
X536609Y-560218D01*
X536609Y-560218D01*
X547467Y-566022D01*
X559248Y-569596D01*
X568430Y-570500D01*
X568431Y-570500D01*
X571500Y-570802D01*
X574569Y-570500D01*
X1588500Y-570500D01*
X1588500Y-639059D01*
X1585869Y-640149D01*
X1563349Y-655197D01*
X1544197Y-674349D01*
X1529149Y-696869D01*
X1518784Y-721893D01*
X1513500Y-748457D01*
X1513500Y-775543D01*
X1518784Y-802107D01*
X1529149Y-827131D01*
X1544197Y-849651D01*
X1563349Y-868803D01*
X1585869Y-883851D01*
X1610893Y-894216D01*
X1637457Y-899500D01*
X1664543Y-899500D01*
X1691107Y-894216D01*
X1716131Y-883851D01*
X1738651Y-868803D01*
X1757803Y-849651D01*
X1772851Y-827131D01*
X1779000Y-812285D01*
X1779000Y-908500D01*
X1767412Y-908500D01*
X1746643Y-912631D01*
X1727080Y-920735D01*
X1709473Y-932499D01*
X1694499Y-947473D01*
X1682735Y-965080D01*
X1674631Y-984643D01*
X1670500Y-1005412D01*
X1670500Y-1026588D01*
X1674631Y-1047357D01*
X1682735Y-1066920D01*
X1694499Y-1084527D01*
X1709473Y-1099501D01*
X1727080Y-1111265D01*
X1746643Y-1119369D01*
X1767412Y-1123500D01*
X1788588Y-1123500D01*
X1809357Y-1119369D01*
X1828920Y-1111265D01*
X1846527Y-1099501D01*
X1861501Y-1084527D01*
X1873265Y-1066920D01*
X1881369Y-1047357D01*
X1885500Y-1026588D01*
X1885500Y-1005412D01*
X1884103Y-998389D01*
X1885908Y-996908D01*
X1887865Y-994523D01*
X1887865Y-994523D01*
X1893718Y-987391D01*
X1899522Y-976533D01*
X1899522Y-976533D01*
X1903096Y-964752D01*
X1904000Y-955570D01*
X1904000Y-955570D01*
X1904302Y-952500D01*
X1904000Y-949430D01*
X1904000Y-326604D01*
X1905751Y-330274D01*
X1923058Y-353438D01*
X1944550Y-372781D01*
X1969404Y-387559D01*
X1987339Y-393906D01*
X1973974Y-399442D01*
X1953911Y-412848D01*
X1936848Y-429911D01*
X1923442Y-449974D01*
X1914208Y-472268D01*
X1909500Y-495935D01*
X1909500Y-520065D01*
X1914208Y-543732D01*
X1923442Y-566026D01*
X1936848Y-586089D01*
X1953911Y-603152D01*
X1973974Y-616558D01*
X1996268Y-625792D01*
X2019935Y-630500D01*
X2044065Y-630500D01*
X2067732Y-625792D01*
X2090025Y-616558D01*
X2110089Y-603152D01*
X2127152Y-586089D01*
X2137568Y-570500D01*
X2161328Y-570500D01*
X2162731Y-573889D01*
X2177954Y-596671D01*
X2197329Y-616046D01*
X2220112Y-631269D01*
X2229119Y-635000D01*
X2220112Y-638731D01*
X2197329Y-653954D01*
X2177954Y-673329D01*
X2162731Y-696112D01*
X2161328Y-699500D01*
X2137568Y-699500D01*
X2127152Y-683911D01*
X2110089Y-666848D01*
X2090025Y-653442D01*
X2067732Y-644208D01*
X2044065Y-639500D01*
X2019935Y-639500D01*
X1996268Y-644208D01*
X1973974Y-653442D01*
X1953911Y-666848D01*
X1936848Y-683911D01*
X1923442Y-703974D01*
X1914208Y-726268D01*
X1909500Y-749935D01*
X1909500Y-774065D01*
X1914208Y-797732D01*
X1923442Y-820025D01*
X1936848Y-840089D01*
X1953911Y-857152D01*
X1973974Y-870558D01*
X1996268Y-879792D01*
X2019935Y-884500D01*
X2044065Y-884500D01*
X2067732Y-879792D01*
X2090025Y-870558D01*
X2110089Y-857152D01*
X2127152Y-840089D01*
X2137568Y-824500D01*
X2161328Y-824500D01*
X2162731Y-827888D01*
X2177954Y-850671D01*
X2197329Y-870046D01*
X2220112Y-885269D01*
X2229119Y-889000D01*
X2220112Y-892731D01*
X2197329Y-907954D01*
X2177954Y-927329D01*
X2162731Y-950111D01*
X2152246Y-975426D01*
X2146900Y-1002300D01*
X2146900Y-1029700D01*
X2152246Y-1056574D01*
X2162731Y-1081889D01*
X2177954Y-1104671D01*
X2197329Y-1124046D01*
X2220112Y-1139269D01*
X2229119Y-1143000D01*
X2220112Y-1146731D01*
X2197329Y-1161954D01*
X2177954Y-1181329D01*
X2162731Y-1204112D01*
X2152246Y-1229426D01*
X2146900Y-1256300D01*
X2146900Y-1283700D01*
X2152246Y-1310574D01*
X2162731Y-1335889D01*
X2177954Y-1358671D01*
X2197329Y-1378046D01*
X2220112Y-1393269D01*
X2229119Y-1397000D01*
X2220112Y-1400731D01*
X2197329Y-1415954D01*
X2177954Y-1435329D01*
X2162731Y-1458111D01*
X2152246Y-1483426D01*
X2146900Y-1510300D01*
X2146900Y-1537700D01*
X2152246Y-1564574D01*
X2162731Y-1589888D01*
X2177954Y-1612671D01*
X2197329Y-1632046D01*
X2220112Y-1647269D01*
X2229119Y-1651000D01*
X2220112Y-1654731D01*
X2197329Y-1669954D01*
X2177954Y-1689329D01*
X2162731Y-1712111D01*
X2152246Y-1737426D01*
X2146900Y-1764300D01*
X2146900Y-1791700D01*
X2152246Y-1818574D01*
X2162731Y-1843888D01*
X2177954Y-1866671D01*
X2197329Y-1886046D01*
X2202927Y-1889786D01*
X2199469Y-1891634D01*
X2189660Y-1917983D01*
X2286000Y-2014322D01*
X2382340Y-1917983D01*
X2372531Y-1891634D01*
X2368935Y-1889879D01*
X2374671Y-1886046D01*
X2394046Y-1866671D01*
X2409269Y-1843888D01*
X2419754Y-1818574D01*
X2425100Y-1791700D01*
X2425100Y-1764300D01*
X2419754Y-1737426D01*
X2409269Y-1712111D01*
X2394046Y-1689329D01*
X2374671Y-1669954D01*
X2351889Y-1654731D01*
X2342881Y-1651000D01*
X2351889Y-1647269D01*
X2374671Y-1632046D01*
X2394046Y-1612671D01*
X2409269Y-1589888D01*
X2419754Y-1564574D01*
X2425100Y-1537700D01*
X2425100Y-1510300D01*
X2419754Y-1483426D01*
X2409269Y-1458111D01*
X2394046Y-1435329D01*
X2374671Y-1415954D01*
X2351889Y-1400731D01*
X2342881Y-1397000D01*
X2351889Y-1393269D01*
X2374671Y-1378046D01*
X2394046Y-1358671D01*
X2409269Y-1335889D01*
X2419754Y-1310574D01*
X2425100Y-1283700D01*
X2425100Y-1256300D01*
X2419754Y-1229426D01*
X2409269Y-1204112D01*
X2394046Y-1181329D01*
X2374671Y-1161954D01*
X2351889Y-1146731D01*
X2342881Y-1143000D01*
X2351889Y-1139269D01*
X2374671Y-1124046D01*
X2394046Y-1104671D01*
X2409269Y-1081889D01*
X2419754Y-1056574D01*
X2425100Y-1029700D01*
X2425100Y-1002300D01*
X2419754Y-975426D01*
X2409269Y-950111D01*
X2394046Y-927329D01*
X2374671Y-907954D01*
X2351889Y-892731D01*
X2342881Y-889000D01*
X2351889Y-885269D01*
X2374671Y-870046D01*
X2394046Y-850671D01*
X2409269Y-827888D01*
X2419754Y-802574D01*
X2425100Y-775700D01*
X2425100Y-748300D01*
X2419754Y-721426D01*
X2409269Y-696112D01*
X2394046Y-673329D01*
X2374671Y-653954D01*
X2351889Y-638731D01*
X2342881Y-635000D01*
X2351889Y-631269D01*
X2374671Y-616046D01*
X2394046Y-596671D01*
X2409269Y-573889D01*
X2419754Y-548574D01*
X2425100Y-521700D01*
X2425100Y-494300D01*
X2419754Y-467426D01*
X2409269Y-442111D01*
X2394046Y-419329D01*
X2374671Y-399954D01*
X2369073Y-396214D01*
X2372531Y-394365D01*
X2382340Y-368017D01*
X2286000Y-271678D01*
X2189660Y-368017D01*
X2199469Y-394365D01*
X2203065Y-396121D01*
X2197329Y-399954D01*
X2177954Y-419329D01*
X2162731Y-442111D01*
X2161328Y-445500D01*
X2137568Y-445500D01*
X2127152Y-429911D01*
X2110089Y-412848D01*
X2090025Y-399442D01*
X2076660Y-393906D01*
X2094596Y-387559D01*
X2119450Y-372781D01*
X2140942Y-353438D01*
X2149508Y-341973D01*
X2171983Y-350340D01*
X2268322Y-254000D01*
X2171983Y-157660D01*
X2149508Y-166027D01*
X2140942Y-154562D01*
X2119450Y-135219D01*
X2098365Y-122681D01*
X2117000Y-122681D01*
X2124351Y-121957D01*
X2131420Y-119813D01*
X2137935Y-116331D01*
X2143645Y-111645D01*
X2148331Y-105935D01*
X2151813Y-99420D01*
X2153957Y-92351D01*
X2154681Y-85000D01*
X2154681Y-46454D01*
X2162731Y-65889D01*
X2177954Y-88671D01*
X2197329Y-108046D01*
X2202927Y-111786D01*
X2199469Y-113634D01*
X2189660Y-139983D01*
X2286000Y-236322D01*
X2382340Y-139983D01*
X2372531Y-113634D01*
X2368935Y-111879D01*
X2374671Y-108046D01*
X2394046Y-88671D01*
X2409269Y-65889D01*
X2419754Y-40574D01*
X2425100Y-13700D01*
X2425100Y13700D01*
X2419754Y40574D01*
X2409269Y65889D01*
X2394046Y88671D01*
X2374671Y108046D01*
X2351889Y123269D01*
X2326574Y133754D01*
X2299700Y139100D01*
X2272300Y139100D01*
X2245426Y133754D01*
X2220112Y123269D01*
X2197329Y108046D01*
X2177954Y88671D01*
X2162731Y65889D01*
X2154681Y46454D01*
X2154681Y85000D01*
X2153957Y92351D01*
X2151813Y99420D01*
X2148331Y105935D01*
X2143645Y111645D01*
X2137935Y116331D01*
X2131420Y119813D01*
X2124351Y121957D01*
X2117000Y122681D01*
X1947000Y122681D01*
X1939649Y121957D01*
X1932580Y119813D01*
X1926065Y116331D01*
X1920355Y111645D01*
X1915669Y105935D01*
X1912187Y99420D01*
X1910043Y92351D01*
X1909319Y85000D01*
X1909319Y-85000D01*
X1910043Y-92351D01*
X1912187Y-99420D01*
X1915669Y-105935D01*
X1920355Y-111645D01*
X1926065Y-116331D01*
X1932580Y-119813D01*
X1939649Y-121957D01*
X1947000Y-122681D01*
X1965635Y-122681D01*
X1944550Y-135219D01*
X1923058Y-154562D01*
X1905751Y-177726D01*
X1904000Y-181396D01*
X1904000Y126319D01*
X1931500Y126319D01*
X1938851Y127043D01*
X1945920Y129187D01*
X1952435Y132669D01*
X1958145Y137355D01*
X1962831Y143065D01*
X1966313Y149580D01*
X1968457Y156649D01*
X1969181Y164000D01*
X1969181Y344000D01*
X1968457Y351351D01*
X1966313Y358420D01*
X1962831Y364935D01*
X1958145Y370645D01*
X1952435Y375331D01*
X1945920Y378813D01*
X1938851Y380957D01*
X1931500Y381681D01*
X1751500Y381681D01*
X1744149Y380957D01*
X1737080Y378813D01*
X1730565Y375331D01*
X1724855Y370645D01*
X1720169Y364935D01*
X1716687Y358420D01*
X1714543Y351351D01*
X1713819Y344000D01*
X1713819Y272497D01*
X1710100Y291190D01*
X1700489Y314394D01*
X1686536Y335277D01*
X1668776Y353036D01*
X1647894Y366989D01*
X1624690Y376600D01*
X1600058Y381500D01*
X1574942Y381500D01*
X1550310Y376600D01*
X1527106Y366989D01*
X1506223Y353036D01*
X1488464Y335277D01*
X1474511Y314394D01*
X1464900Y291190D01*
X1460000Y266558D01*
X1460000Y241442D01*
X1464900Y216810D01*
X1474511Y193606D01*
X1488464Y172724D01*
X1506223Y154964D01*
X1527106Y141011D01*
X1550310Y131400D01*
X1574942Y126500D01*
X1600058Y126500D01*
X1624690Y131400D01*
X1647894Y141011D01*
X1668776Y154964D01*
X1686536Y172724D01*
X1700489Y193606D01*
X1710100Y216810D01*
X1713819Y235503D01*
X1713819Y164000D01*
X1714543Y156649D01*
X1716687Y149580D01*
X1720169Y143065D01*
X1724855Y137355D01*
X1730565Y132669D01*
X1737080Y129187D01*
X1744149Y127043D01*
X1751500Y126319D01*
X1779000Y126319D01*
X1779000Y-203715D01*
X1772851Y-188869D01*
X1757803Y-166349D01*
X1738651Y-147197D01*
X1716131Y-132149D01*
X1691107Y-121784D01*
X1664543Y-116500D01*
X1637457Y-116500D01*
X1610893Y-121784D01*
X1585869Y-132149D01*
X1563349Y-147197D01*
X1544197Y-166349D01*
X1529149Y-188869D01*
X1518784Y-213893D01*
X1513500Y-240457D01*
X1513500Y-267543D01*
X1518784Y-294107D01*
X1529149Y-319131D01*
X1544197Y-341651D01*
X1563349Y-360803D01*
X1585869Y-375851D01*
X1588500Y-376941D01*
X1588500Y-445500D01*
X597388Y-445500D01*
X507000Y-355112D01*
X507000Y-304285D01*
X513149Y-319131D01*
X528197Y-341651D01*
X547349Y-360803D01*
X569869Y-375851D01*
X594893Y-386216D01*
X621457Y-391500D01*
X648543Y-391500D01*
X675107Y-386216D01*
X700131Y-375851D01*
X722651Y-360803D01*
X741803Y-341651D01*
X756851Y-319131D01*
X762000Y-306700D01*
X767149Y-319131D01*
X782197Y-341651D01*
X801349Y-360803D01*
X823869Y-375851D01*
X848893Y-386216D01*
X875457Y-391500D01*
X902543Y-391500D01*
X929107Y-386216D01*
X954131Y-375851D01*
X976651Y-360803D01*
X995803Y-341651D01*
X1010851Y-319131D01*
X1021216Y-294107D01*
X1026500Y-267543D01*
X1026500Y-240457D01*
X1021216Y-213893D01*
X1010851Y-188869D01*
X995803Y-166349D01*
X976651Y-147197D01*
X954131Y-132149D01*
X929107Y-121784D01*
X902543Y-116500D01*
X875457Y-116500D01*
X848893Y-121784D01*
X823869Y-132149D01*
X801349Y-147197D01*
X782197Y-166349D01*
X767149Y-188869D01*
X762000Y-201300D01*
X756851Y-188869D01*
X741803Y-166349D01*
X722651Y-147197D01*
X700131Y-132149D01*
X697500Y-131059D01*
X697500Y-89388D01*
X740523Y-46365D01*
X742908Y-44408D01*
X744865Y-42024D01*
X744865Y-42023D01*
X750718Y-34891D01*
X756522Y-24033D01*
X756522Y-24033D01*
X760096Y-12252D01*
X761000Y-3070D01*
X761000Y-3070D01*
X761302Y0D01*
X761000Y3070D01*
X761000Y125647D01*
X765999Y127718D01*
X789338Y143313D01*
X809187Y163162D01*
X824782Y186501D01*
X825500Y188235D01*
X826218Y186501D01*
X841813Y163162D01*
X861661Y143313D01*
X885001Y127718D01*
X910934Y116976D01*
X938465Y111500D01*
X966535Y111500D01*
X994066Y116976D01*
X1019999Y127718D01*
X1039510Y140755D01*
X1039904Y136748D01*
X1043478Y124967D01*
X1049282Y114109D01*
X1057092Y104592D01*
X1066609Y96782D01*
X1077467Y90978D01*
X1089248Y87404D01*
X1101500Y86198D01*
X1178375Y86500D01*
X1194000Y102125D01*
X1194000Y241500D01*
X1219000Y241500D01*
X1219000Y102125D01*
X1234625Y86500D01*
X1311500Y86198D01*
X1323752Y87404D01*
X1335533Y90978D01*
X1346391Y96782D01*
X1355908Y104592D01*
X1363718Y114109D01*
X1369522Y124967D01*
X1373096Y136748D01*
X1374302Y149000D01*
X1374000Y225875D01*
X1358375Y241500D01*
X1219000Y241500D01*
X1194000Y241500D01*
X1192000Y241500D01*
X1192000Y266500D01*
X1194000Y266500D01*
X1194000Y405875D01*
X1219000Y405875D01*
X1219000Y266500D01*
X1358375Y266500D01*
X1374000Y282125D01*
X1374302Y359000D01*
X1373096Y371252D01*
X1369522Y383033D01*
X1363718Y393891D01*
X1357513Y401452D01*
X2002500Y401452D01*
X2002500Y362548D01*
X2010090Y324391D01*
X2024978Y288449D01*
X2046592Y256101D01*
X2074101Y228592D01*
X2106449Y206978D01*
X2142391Y192090D01*
X2180548Y184500D01*
X2219452Y184500D01*
X2257609Y192090D01*
X2293551Y206978D01*
X2325899Y228592D01*
X2353408Y256101D01*
X2375022Y288449D01*
X2389910Y324391D01*
X2397500Y362548D01*
X2397500Y401452D01*
X2389910Y439609D01*
X2375022Y475551D01*
X2353408Y507899D01*
X2325899Y535408D01*
X2293551Y557022D01*
X2257609Y571910D01*
X2219452Y579500D01*
X2180548Y579500D01*
X2142391Y571910D01*
X2106449Y557022D01*
X2074101Y535408D01*
X2046592Y507899D01*
X2024978Y475551D01*
X2010090Y439609D01*
X2002500Y401452D01*
X1357513Y401452D01*
X1355908Y403408D01*
X1346391Y411218D01*
X1335533Y417022D01*
X1323752Y420596D01*
X1311500Y421802D01*
X1234625Y421500D01*
X1219000Y405875D01*
X1194000Y405875D01*
X1178375Y421500D01*
X1101500Y421802D01*
X1089248Y420596D01*
X1077467Y417022D01*
X1066609Y411218D01*
X1057092Y403408D01*
X1049282Y393891D01*
X1043478Y383033D01*
X1039904Y371252D01*
X1039510Y367245D01*
X1019999Y380282D01*
X994066Y391024D01*
X966535Y396500D01*
X938465Y396500D01*
X910934Y391024D01*
X885001Y380282D01*
X861661Y364687D01*
X841813Y344839D01*
X826218Y321499D01*
X825500Y319765D01*
X824782Y321499D01*
X809187Y344839D01*
X789338Y364687D01*
X765999Y380282D01*
X740066Y391024D01*
X712535Y396500D01*
X684465Y396500D01*
X656934Y391024D01*
X631001Y380282D01*
X607662Y364687D01*
X587813Y344839D01*
X572218Y321499D01*
X571500Y319765D01*
X570782Y321499D01*
X555187Y344839D01*
X535339Y364687D01*
X511999Y380282D01*
X486066Y391024D01*
X458535Y396500D01*
X430465Y396500D01*
X402934Y391024D01*
X377001Y380282D01*
X353661Y364687D01*
X333813Y344839D01*
X318218Y321499D01*
X307476Y295566D01*
X302000Y268035D01*
X241382Y268035D01*
X255022Y288449D01*
X269910Y324391D01*
X277500Y362548D01*
X277500Y401452D01*
X269910Y439609D01*
X255022Y475551D01*
X233408Y507899D01*
X205899Y535408D01*
X173551Y557022D01*
X137609Y571910D01*
X99452Y579500D01*
X60548Y579500D01*
X22391Y571910D01*
X-13551Y557022D01*
X-45899Y535408D01*
X-73408Y507899D01*
X-95022Y475551D01*
X-109910Y439609D01*
X-117500Y401452D01*
X-147000Y401452D01*
X-147000Y505383D01*
X-145205Y523689D01*
X-140507Y539251D01*
X-132875Y553604D01*
X-122601Y566201D01*
X-110076Y576563D01*
X-95777Y584294D01*
X-80248Y589101D01*
X-62077Y591011D01*
X2347372Y591011D01*
X2365678Y589216D01*
G36*
X2044500Y-241500D02*
G01*
X2046500Y-241500D01*
X2046500Y-266500D01*
X2044500Y-266500D01*
X2044500Y-268500D01*
X2019500Y-268500D01*
X2019500Y-266500D01*
X2017500Y-266500D01*
X2017500Y-241500D01*
X2019500Y-241500D01*
X2019500Y-239500D01*
X2044500Y-239500D01*
X2044500Y-241500D01*
G37*
X2044500Y-241500D02*
X2046500Y-241500D01*
X2046500Y-266500D01*
X2044500Y-266500D01*
X2044500Y-268500D01*
X2019500Y-268500D01*
X2019500Y-266500D01*
X2017500Y-266500D01*
X2017500Y-241500D01*
X2019500Y-241500D01*
X2019500Y-239500D01*
X2044500Y-239500D01*
X2044500Y-241500D01*
D32*
X444500Y254000D03*
X698500Y254000D03*
X952500Y254000D03*
X1206500Y254000D03*
X444500Y254000D03*
X952500Y254000D03*
X1206500Y254000D03*
X762000Y-4000500D03*
X1016000Y-4000500D03*
X1270000Y-4000500D03*
X1524000Y-4000500D03*
X698500Y-1651000D03*
X952500Y-1651000D03*
X1206500Y-1651000D03*
X1460500Y-1651000D03*
X1778000Y-1016000D03*
X1778000Y-1778000D03*
X1587500Y254000D03*
X1841500Y254000D03*
X1460500Y-1143000D03*
X1206500Y-1143000D03*
X1333500Y-1143000D03*
X254000Y-1016000D03*
X254000Y-254000D03*
X635000Y-254000D03*
X889000Y-254000D03*
X635000Y-762000D03*
X889000Y-762000D03*
X1651000Y-254000D03*
X1651000Y-762000D03*
X2032000Y-2794000D03*
X2032000Y-2032000D03*
X2032000Y-3556000D03*
X2032000Y-2794000D03*
X889000Y-1143000D03*
X635000Y-1143000D03*
X762000Y-1143000D03*
X254000Y-3048000D03*
X254000Y-2794000D03*
X254000Y-2540000D03*
X75000Y-3981000D03*
X2200000Y-3981000D03*
X2200000Y382000D03*
X80000Y382000D03*
X2286000Y-3302000D03*
X2286000Y-2794000D03*
X2286000Y-3048000D03*
X2286000Y-1016000D03*
X2286000Y-1270000D03*
X2286000Y-1778000D03*
X2286000Y-1524000D03*
X2286000Y0D03*
X2286000Y-2032000D03*
X2286000Y-2540000D03*
X2286000Y-2286000D03*
X2286000Y-762000D03*
X2286000Y-254000D03*
X2286000Y-508000D03*
X2286000Y-3556000D03*
X0Y0D03*
X0Y-254000D03*
X0Y-508000D03*
X0Y-762000D03*
X0Y-1016000D03*
X0Y-1270000D03*
X0Y-1524000D03*
X0Y-1778000D03*
X0Y-2032000D03*
X0Y-2286000D03*
X0Y-2540000D03*
X0Y-2794000D03*
X0Y-3048000D03*
X0Y-3302000D03*
X0Y-3556000D03*
X889000Y-3683000D03*
X1143000Y-3683000D03*
X1397000Y-3683000D03*
X254000Y-1270000D03*
X254000Y-2032000D03*
X2032000Y-762000D03*
X2032000Y-508000D03*
X2032000Y-254000D03*
X2032000Y0D03*
M02*
