%TF.GenerationSoftware,KiCad,Pcbnew,5.1.5+dfsg1-2~bpo10+1*%
%TF.CreationDate,Date%
%TF.ProjectId,PIS,5049532e-6b69-4636-9164-5f7063625858,rev?*%
%TF.SameCoordinates,Original*%
%TF.FileFunction,Other,User*%
%FSLAX45Y45*%
G04 Gerber Fmt 4.5, Leading zero omitted, Abs format (unit mm)*
G04 Created by KiCad*
%MOMM*%
%LPD*%
G04 APERTURE LIST*
%ADD10C,0.120000*%
%ADD11C,0.050000*%
G04 APERTURE END LIST*
D10*
X-190500Y4063511D02*
G75*
G02X-63500Y4190511I127000J0D01*
G01*
X2476500Y-571500D02*
G75*
G02X2349500Y-698500I-127000J0D01*
G01*
X2349500Y4190511D02*
G75*
G02X2476500Y4063511I0J-127000D01*
G01*
X-63500Y-698989D02*
G75*
G02X-190500Y-571989I0J127000D01*
G01*
X2476500Y-571500D02*
X2476500Y4064000D01*
X-63500Y-698500D02*
X2349500Y-698500D01*
X-190500Y4064000D02*
X-190500Y-571500D01*
X2349500Y4190511D02*
X-63500Y4190511D01*
D11*
X1395000Y3213000D02*
X1395000Y2883000D01*
X1395000Y3213000D02*
X1145000Y3213000D01*
X1145000Y2883000D02*
X1395000Y2883000D01*
X1145000Y2883000D02*
X1145000Y3213000D01*
X243500Y3435000D02*
X1406500Y3435000D01*
X243500Y4185000D02*
X243500Y3435000D01*
X1406500Y4185000D02*
X243500Y4185000D01*
X1406500Y3435000D02*
X1406500Y4185000D01*
X301500Y4198000D02*
X1351500Y4198000D01*
X301500Y4198000D02*
X301500Y3625000D01*
X1351500Y3625000D02*
X1351500Y4198000D01*
X1351500Y3625000D02*
X301500Y3625000D01*
X1704000Y-624500D02*
X1704000Y-264500D01*
X584000Y-624500D02*
X1704000Y-624500D01*
X584000Y-264500D02*
X584000Y-624500D01*
X1704000Y-264500D02*
X584000Y-264500D01*
X520500Y2085000D02*
X1640500Y2085000D01*
X520500Y1730000D02*
X520500Y2085000D01*
X1640500Y1730000D02*
X520500Y1730000D01*
X1640500Y2085000D02*
X1640500Y1730000D01*
X2157000Y2540000D02*
G75*
G03X2157000Y2540000I-125000J0D01*
G01*
X2157000Y2286000D02*
G75*
G03X2157000Y2286000I-125000J0D01*
G01*
X2157000Y2032000D02*
G75*
G03X2157000Y2032000I-125000J0D01*
G01*
X2157000Y1778000D02*
G75*
G03X2157000Y1778000I-125000J0D01*
G01*
X1673000Y2635000D02*
X1673000Y1683000D01*
X1883000Y2635000D02*
X1673000Y2635000D01*
X1883000Y1683000D02*
X1883000Y2635000D01*
X1673000Y1683000D02*
X1883000Y1683000D01*
X1391500Y3485000D02*
X2036500Y3485000D01*
X1391500Y4135000D02*
X1391500Y3485000D01*
X2036500Y4135000D02*
X1391500Y4135000D01*
X2036500Y3485000D02*
X2036500Y4135000D01*
X1060500Y2614000D02*
X1606500Y2614000D01*
X1060500Y2614000D02*
X1060500Y2140000D01*
X1606500Y2140000D02*
X1606500Y2614000D01*
X1606500Y2140000D02*
X1060500Y2140000D01*
X379000Y2435000D02*
X379000Y3407000D01*
X129000Y2435000D02*
X379000Y2435000D01*
X129000Y3407000D02*
X129000Y2435000D01*
X379000Y3407000D02*
X129000Y3407000D01*
X500000Y2649000D02*
X500000Y3439000D01*
X500000Y2649000D02*
X1780000Y2649000D01*
X1780000Y3439000D02*
X500000Y3439000D01*
X1780000Y3439000D02*
X1780000Y2649000D01*
X2137000Y667000D02*
X2137000Y1619000D01*
X1927000Y667000D02*
X2137000Y667000D01*
X1927000Y1619000D02*
X1927000Y667000D01*
X2137000Y1619000D02*
X1927000Y1619000D01*
X2137000Y-95000D02*
X2137000Y857000D01*
X1927000Y-95000D02*
X2137000Y-95000D01*
X1927000Y857000D02*
X1927000Y-95000D01*
X2137000Y857000D02*
X1927000Y857000D01*
X489000Y2614000D02*
X1035000Y2614000D01*
X489000Y2614000D02*
X489000Y2140000D01*
X1035000Y2140000D02*
X1035000Y2614000D01*
X1035000Y2140000D02*
X489000Y2140000D01*
X434000Y1196000D02*
X74000Y1196000D01*
X434000Y331000D02*
X434000Y1196000D01*
X74000Y331000D02*
X434000Y331000D01*
X74000Y1196000D02*
X74000Y331000D01*
X1577000Y-307000D02*
X1577000Y53000D01*
X712000Y-307000D02*
X1577000Y-307000D01*
X712000Y53000D02*
X712000Y-307000D01*
X1577000Y53000D02*
X712000Y53000D01*
X149000Y2381000D02*
X149000Y1429000D01*
X359000Y2381000D02*
X149000Y2381000D01*
X359000Y1429000D02*
X359000Y2381000D01*
X149000Y1429000D02*
X359000Y1429000D01*
X2212000Y3736000D02*
X1852000Y3736000D01*
X2212000Y2616000D02*
X2212000Y3736000D01*
X1852000Y2616000D02*
X2212000Y2616000D01*
X1852000Y3736000D02*
X1852000Y2616000D01*
M02*
