%TF.GenerationSoftware,KiCad,Pcbnew,5.1.5+dfsg1-2~bpo10+1*%
%TF.CreationDate,Date%
%TF.ProjectId,PIS,5049532e-6b69-4636-9164-5f7063625858,rev?*%
%TF.SameCoordinates,Original*%
%TF.FileFunction,Other,Fab,Top*%
%FSLAX45Y45*%
G04 Gerber Fmt 4.5, Leading zero omitted, Abs format (unit mm)*
G04 Created by KiCad*
%MOMM*%
%LPD*%
G04 APERTURE LIST*
%ADD10C,0.120000*%
%ADD11C,0.100000*%
%ADD12C,0.150000*%
%ADD13C,0.108000*%
%ADD14C,0.200000*%
G04 APERTURE END LIST*
D10*
X-190500Y4063511D02*
G75*
G02X-63500Y4190511I127000J0D01*
G01*
X2476500Y-571500D02*
G75*
G02X2349500Y-698500I-127000J0D01*
G01*
X2349500Y4190511D02*
G75*
G02X2476500Y4063511I0J-127000D01*
G01*
X-63500Y-698989D02*
G75*
G02X-190500Y-571989I0J127000D01*
G01*
X2476500Y-571500D02*
X2476500Y4064000D01*
X-63500Y-698500D02*
X2349500Y-698500D01*
X-190500Y4064000D02*
X-190500Y-571500D01*
X2349500Y4190511D02*
X-63500Y4190511D01*
D11*
X374400Y3726500D02*
X527900Y3880000D01*
X361000Y3740000D02*
X514500Y3893500D01*
X628400Y3726500D02*
X781900Y3880000D01*
X615000Y3740000D02*
X768500Y3893500D01*
X882400Y3726500D02*
X1035900Y3880000D01*
X869000Y3740000D02*
X1022500Y3893500D01*
X1136400Y3726500D02*
X1290000Y3880000D01*
X1123000Y3740000D02*
X1276600Y3893500D01*
X1356500Y3585000D02*
X294500Y3585000D01*
X1356500Y4095000D02*
X294500Y4095000D01*
X1356500Y4095000D02*
X1356500Y3485000D01*
X1316500Y4135000D02*
X1356500Y4095000D01*
X294500Y4135000D02*
X1316500Y4135000D01*
X294500Y3485000D02*
X294500Y4135000D01*
X1356500Y3485000D02*
X294500Y3485000D01*
X554500Y3810000D02*
G75*
G03X554500Y3810000I-110000J0D01*
G01*
X808500Y3810000D02*
G75*
G03X808500Y3810000I-110000J0D01*
G01*
X1062500Y3810000D02*
G75*
G03X1062500Y3810000I-110000J0D01*
G01*
X1316500Y3810000D02*
G75*
G03X1316500Y3810000I-110000J0D01*
G01*
X1226500Y3650000D02*
X1326500Y3750000D01*
X1110803Y4053614D02*
G75*
G03X559500Y4055000I-276303J-258615D01*
G01*
X1326500Y4050000D02*
X1326500Y3750000D01*
X326500Y4050000D02*
X1326500Y4050000D01*
X326500Y3650000D02*
X326500Y4050000D01*
X1226500Y3650000D02*
X326500Y3650000D01*
X1587500Y-317500D02*
X1651000Y-381000D01*
X635000Y-317500D02*
X1587500Y-317500D01*
X635000Y-571500D02*
X635000Y-317500D01*
X1651000Y-571500D02*
X635000Y-571500D01*
X1651000Y-381000D02*
X1651000Y-571500D01*
X571500Y2032000D02*
X1587500Y2032000D01*
X571500Y1778000D02*
X571500Y2032000D01*
X1524000Y1778000D02*
X571500Y1778000D01*
X1587500Y1841500D02*
X1524000Y1778000D01*
X1587500Y2032000D02*
X1587500Y1841500D01*
X1778000Y2540000D02*
X1778000Y2339000D01*
X1778000Y1778000D02*
X1778000Y1979000D01*
X1698000Y2339000D02*
X1698000Y1979000D01*
X1858000Y2339000D02*
X1698000Y2339000D01*
X1858000Y1979000D02*
X1858000Y2339000D01*
X1698000Y1979000D02*
X1858000Y1979000D01*
X1964500Y3663031D02*
X1964500Y3956969D01*
X1964500Y3810000D02*
G75*
G03X1964500Y3810000I-250000J0D01*
G01*
X1964502Y3956967D02*
G75*
G03X1964500Y3663031I-250002J-146967D01*
G01*
X1508862Y2588363D02*
G75*
G02X1333500Y2165000I-175362J-175363D01*
G01*
X1158138Y2588363D02*
G75*
G03X1333500Y2165000I175363J-175363D01*
G01*
X1510500Y2588000D02*
X1160500Y2588000D01*
X354000Y3071000D02*
X154000Y3071000D01*
X354000Y3051000D02*
X154000Y3051000D01*
X354000Y3061000D02*
X154000Y3061000D01*
X254000Y2540000D02*
X254000Y2721000D01*
X254000Y3302000D02*
X254000Y3121000D01*
X354000Y2721000D02*
X354000Y3121000D01*
X154000Y2721000D02*
X354000Y2721000D01*
X154000Y3121000D02*
X154000Y2721000D01*
X354000Y3121000D02*
X154000Y3121000D01*
D10*
X625000Y2674000D02*
X525000Y2784000D01*
X1755000Y2674000D02*
X625000Y2674000D01*
X1755000Y3414000D02*
X1755000Y2674000D01*
X525000Y3414000D02*
X1755000Y3414000D01*
X525000Y2784000D02*
X525000Y3414000D01*
D11*
X2032000Y762000D02*
X2032000Y963000D01*
X2032000Y1524000D02*
X2032000Y1323000D01*
X2112000Y963000D02*
X2112000Y1323000D01*
X1952000Y963000D02*
X2112000Y963000D01*
X1952000Y1323000D02*
X1952000Y963000D01*
X2112000Y1323000D02*
X1952000Y1323000D01*
X2032000Y0D02*
X2032000Y201000D01*
X2032000Y762000D02*
X2032000Y561000D01*
X2112000Y201000D02*
X2112000Y561000D01*
X1952000Y201000D02*
X2112000Y201000D01*
X1952000Y561000D02*
X1952000Y201000D01*
X2112000Y561000D02*
X1952000Y561000D01*
X937362Y2588363D02*
G75*
G02X762000Y2165000I-175363J-175363D01*
G01*
X586638Y2588363D02*
G75*
G03X762000Y2165000I175362J-175363D01*
G01*
X939000Y2588000D02*
X589000Y2588000D01*
X127000Y1079500D02*
X190500Y1143000D01*
X127000Y381000D02*
X127000Y1079500D01*
X381000Y381000D02*
X127000Y381000D01*
X381000Y1143000D02*
X381000Y381000D01*
X190500Y1143000D02*
X381000Y1143000D01*
X1460500Y0D02*
X1524000Y-63500D01*
X762000Y0D02*
X1460500Y0D01*
X762000Y-254000D02*
X762000Y0D01*
X1524000Y-254000D02*
X762000Y-254000D01*
X1524000Y-63500D02*
X1524000Y-254000D01*
X254000Y2286000D02*
X254000Y2085000D01*
X254000Y1524000D02*
X254000Y1725000D01*
X174000Y2085000D02*
X174000Y1725000D01*
X334000Y2085000D02*
X174000Y2085000D01*
X334000Y1725000D02*
X334000Y2085000D01*
X174000Y1725000D02*
X334000Y1725000D01*
X1905000Y3619500D02*
X1968500Y3683000D01*
X1905000Y2667000D02*
X1905000Y3619500D01*
X2159000Y2667000D02*
X1905000Y2667000D01*
X2159000Y3683000D02*
X2159000Y2667000D01*
X1968500Y3683000D02*
X2159000Y3683000D01*
D12*
X792167Y4064762D02*
X792167Y3993333D01*
X787405Y3979048D01*
X777881Y3969524D01*
X763595Y3964762D01*
X754071Y3964762D01*
X882643Y4031429D02*
X882643Y3964762D01*
X858833Y4069524D02*
X835024Y3998095D01*
X896928Y3998095D01*
X1109667Y-389738D02*
X1109667Y-461167D01*
X1104905Y-475452D01*
X1095381Y-484976D01*
X1081095Y-489738D01*
X1071571Y-489738D01*
X1204905Y-389738D02*
X1157286Y-389738D01*
X1152524Y-437357D01*
X1157286Y-432595D01*
X1166810Y-427833D01*
X1190619Y-427833D01*
X1200143Y-432595D01*
X1204905Y-437357D01*
X1209667Y-446881D01*
X1209667Y-470690D01*
X1204905Y-480214D01*
X1200143Y-484976D01*
X1190619Y-489738D01*
X1166810Y-489738D01*
X1157286Y-484976D01*
X1152524Y-480214D01*
X1003309Y1705762D02*
X1003309Y1624810D01*
X1008071Y1615286D01*
X1012833Y1610524D01*
X1022357Y1605762D01*
X1041405Y1605762D01*
X1050929Y1610524D01*
X1055690Y1615286D01*
X1060452Y1624810D01*
X1060452Y1705762D01*
X1150929Y1672429D02*
X1150929Y1605762D01*
X1127119Y1710524D02*
X1103310Y1639095D01*
X1165214Y1639095D01*
D13*
X1810571Y2147000D02*
X1776286Y2123000D01*
X1810571Y2105857D02*
X1738571Y2105857D01*
X1738571Y2133286D01*
X1742000Y2140143D01*
X1745428Y2143572D01*
X1752286Y2147000D01*
X1762571Y2147000D01*
X1769428Y2143572D01*
X1772857Y2140143D01*
X1776286Y2133286D01*
X1776286Y2105857D01*
X1762571Y2208714D02*
X1810571Y2208714D01*
X1735143Y2191572D02*
X1786571Y2174429D01*
X1786571Y2219000D01*
D14*
X1655452Y3583310D02*
X1655452Y3663310D01*
X1674500Y3663310D01*
X1685928Y3659500D01*
X1693548Y3651881D01*
X1697357Y3644262D01*
X1701167Y3629024D01*
X1701167Y3617595D01*
X1697357Y3602357D01*
X1693548Y3594738D01*
X1685928Y3587119D01*
X1674500Y3583310D01*
X1655452Y3583310D01*
X1731643Y3655690D02*
X1735452Y3659500D01*
X1743071Y3663310D01*
X1762119Y3663310D01*
X1769738Y3659500D01*
X1773548Y3655690D01*
X1777357Y3648071D01*
X1777357Y3640452D01*
X1773548Y3629024D01*
X1727833Y3583310D01*
X1777357Y3583310D01*
D12*
X1323976Y2231238D02*
X1314452Y2236000D01*
X1304929Y2245524D01*
X1290643Y2259810D01*
X1281119Y2264572D01*
X1271595Y2264572D01*
X1276357Y2240762D02*
X1266833Y2245524D01*
X1257310Y2255048D01*
X1252548Y2274095D01*
X1252548Y2307429D01*
X1257310Y2326476D01*
X1266833Y2336000D01*
X1276357Y2340762D01*
X1295405Y2340762D01*
X1304929Y2336000D01*
X1314452Y2326476D01*
X1319214Y2307429D01*
X1319214Y2274095D01*
X1314452Y2255048D01*
X1304929Y2245524D01*
X1295405Y2240762D01*
X1276357Y2240762D01*
X1414452Y2240762D02*
X1357310Y2240762D01*
X1385881Y2240762D02*
X1385881Y2340762D01*
X1376357Y2326476D01*
X1366833Y2316952D01*
X1357310Y2312191D01*
D10*
X290190Y2831952D02*
X210190Y2831952D01*
X210190Y2851000D01*
X214000Y2862429D01*
X221619Y2870048D01*
X229238Y2873857D01*
X244476Y2877667D01*
X255905Y2877667D01*
X271143Y2873857D01*
X278762Y2870048D01*
X286381Y2862429D01*
X290190Y2851000D01*
X290190Y2831952D01*
X290190Y2953857D02*
X290190Y2908143D01*
X290190Y2931000D02*
X210190Y2931000D01*
X221619Y2923381D01*
X229238Y2915762D01*
X233048Y2908143D01*
D12*
X688190Y3066262D02*
X688190Y3166262D01*
X745333Y3066262D02*
X702476Y3123405D01*
X745333Y3166262D02*
X688190Y3109119D01*
X840571Y3066262D02*
X783428Y3066262D01*
X812000Y3066262D02*
X812000Y3166262D01*
X802476Y3151976D01*
X792952Y3142452D01*
X783428Y3137690D01*
D13*
X2064571Y1131000D02*
X2030286Y1107000D01*
X2064571Y1089857D02*
X1992571Y1089857D01*
X1992571Y1117286D01*
X1996000Y1124143D01*
X1999428Y1127572D01*
X2006286Y1131000D01*
X2016571Y1131000D01*
X2023428Y1127572D01*
X2026857Y1124143D01*
X2030286Y1117286D01*
X2030286Y1089857D01*
X1992571Y1155000D02*
X1992571Y1199572D01*
X2020000Y1175572D01*
X2020000Y1185857D01*
X2023428Y1192714D01*
X2026857Y1196143D01*
X2033714Y1199572D01*
X2050857Y1199572D01*
X2057714Y1196143D01*
X2061143Y1192714D01*
X2064571Y1185857D01*
X2064571Y1165286D01*
X2061143Y1158429D01*
X2057714Y1155000D01*
X2064571Y369000D02*
X2030286Y345000D01*
X2064571Y327857D02*
X1992571Y327857D01*
X1992571Y355286D01*
X1996000Y362143D01*
X1999428Y365571D01*
X2006286Y369000D01*
X2016571Y369000D01*
X2023428Y365571D01*
X2026857Y362143D01*
X2030286Y355286D01*
X2030286Y327857D01*
X1999428Y396429D02*
X1996000Y399857D01*
X1992571Y406714D01*
X1992571Y423857D01*
X1996000Y430714D01*
X1999428Y434143D01*
X2006286Y437571D01*
X2013143Y437571D01*
X2023428Y434143D01*
X2064571Y393000D01*
X2064571Y437571D01*
D12*
X752476Y2231238D02*
X742952Y2236000D01*
X733428Y2245524D01*
X719143Y2259810D01*
X709619Y2264572D01*
X700095Y2264572D01*
X704857Y2240762D02*
X695333Y2245524D01*
X685810Y2255048D01*
X681048Y2274095D01*
X681048Y2307429D01*
X685810Y2326476D01*
X695333Y2336000D01*
X704857Y2340762D01*
X723905Y2340762D01*
X733428Y2336000D01*
X742952Y2326476D01*
X747714Y2307429D01*
X747714Y2274095D01*
X742952Y2255048D01*
X733428Y2245524D01*
X723905Y2240762D01*
X704857Y2240762D01*
X781048Y2340762D02*
X842952Y2340762D01*
X809619Y2302667D01*
X823905Y2302667D01*
X833428Y2297905D01*
X838190Y2293143D01*
X842952Y2283619D01*
X842952Y2259810D01*
X838190Y2250286D01*
X833428Y2245524D01*
X823905Y2240762D01*
X795333Y2240762D01*
X785809Y2245524D01*
X781048Y2250286D01*
X199238Y728667D02*
X270667Y728667D01*
X284952Y723905D01*
X294476Y714381D01*
X299238Y700095D01*
X299238Y690572D01*
X208762Y771524D02*
X204000Y776286D01*
X199238Y785810D01*
X199238Y809619D01*
X204000Y819143D01*
X208762Y823905D01*
X218286Y828667D01*
X227809Y828667D01*
X242095Y823905D01*
X299238Y766762D01*
X299238Y828667D01*
X1109667Y-72238D02*
X1109667Y-143667D01*
X1104905Y-157952D01*
X1095381Y-167476D01*
X1081095Y-172238D01*
X1071571Y-172238D01*
X1209667Y-172238D02*
X1152524Y-172238D01*
X1181095Y-172238D02*
X1181095Y-72238D01*
X1171571Y-86524D01*
X1162048Y-96048D01*
X1152524Y-100809D01*
D13*
X286571Y1893000D02*
X252286Y1869000D01*
X286571Y1851857D02*
X214571Y1851857D01*
X214571Y1879286D01*
X218000Y1886143D01*
X221428Y1889571D01*
X228286Y1893000D01*
X238571Y1893000D01*
X245428Y1889571D01*
X248857Y1886143D01*
X252286Y1879286D01*
X252286Y1851857D01*
X286571Y1961571D02*
X286571Y1920429D01*
X286571Y1941000D02*
X214571Y1941000D01*
X224857Y1934143D01*
X231714Y1927286D01*
X235143Y1920429D01*
D12*
X1786738Y3141667D02*
X1858167Y3141667D01*
X1872452Y3136905D01*
X1881976Y3127381D01*
X1886738Y3113095D01*
X1886738Y3103571D01*
X1786738Y3179762D02*
X1786738Y3241667D01*
X1824833Y3208333D01*
X1824833Y3222619D01*
X1829595Y3232143D01*
X1834357Y3236905D01*
X1843881Y3241667D01*
X1867690Y3241667D01*
X1877214Y3236905D01*
X1881976Y3232143D01*
X1886738Y3222619D01*
X1886738Y3194048D01*
X1881976Y3184524D01*
X1877214Y3179762D01*
M02*
