%TF.GenerationSoftware,KiCad,Pcbnew,5.1.5+dfsg1-2~bpo10+1*%
%TF.CreationDate,Date%
%TF.ProjectId,PIS,5049532e-6b69-4636-9164-5f7063625858,rev?*%
%TF.SameCoordinates,Original*%
%TF.FileFunction,Other,Fab,Bot*%
%FSLAX45Y45*%
G04 Gerber Fmt 4.5, Leading zero omitted, Abs format (unit mm)*
G04 Created by KiCad*
%MOMM*%
%LPD*%
G04 APERTURE LIST*
%ADD10C,0.120000*%
%ADD11C,0.100000*%
%ADD12C,0.150000*%
G04 APERTURE END LIST*
D10*
X-190500Y4063511D02*
G75*
G02X-63500Y4190511I127000J0D01*
G01*
X2476500Y-571500D02*
G75*
G02X2349500Y-698500I-127000J0D01*
G01*
X2349500Y4190511D02*
G75*
G02X2476500Y4063511I0J-127000D01*
G01*
X-63500Y-698989D02*
G75*
G02X-190500Y-571989I0J127000D01*
G01*
X2476500Y-571500D02*
X2476500Y4064000D01*
X-63500Y-698500D02*
X2349500Y-698500D01*
X-190500Y4064000D02*
X-190500Y-571500D01*
X2349500Y4190511D02*
X-63500Y4190511D01*
D11*
X-12700Y-609600D02*
X-114300Y-508000D01*
X2400300Y-609600D02*
X-12700Y-609600D01*
X2400300Y4216400D02*
X2400300Y-609600D01*
X-114300Y4216400D02*
X2400300Y4216400D01*
X-114300Y-508000D02*
X-114300Y4216400D01*
D12*
X1092190Y181762D02*
X1092190Y100810D01*
X1087429Y91286D01*
X1082667Y86524D01*
X1073143Y81762D01*
X1054095Y81762D01*
X1044571Y86524D01*
X1039809Y91286D01*
X1035048Y100810D01*
X1035048Y181762D01*
X935048Y81762D02*
X992190Y81762D01*
X963619Y81762D02*
X963619Y181762D01*
X973143Y167476D01*
X982667Y157952D01*
X992190Y153191D01*
M02*
