%TF.GenerationSoftware,KiCad,Pcbnew,5.1.5+dfsg1-2~bpo10+1*%
%TF.CreationDate,Date%
%TF.ProjectId,PIS,5049532e-6b69-4636-9164-5f7063625858,rev?*%
%TF.SameCoordinates,Original*%
%TF.FileFunction,Legend,Bot*%
%TF.FilePolarity,Positive*%
%FSLAX45Y45*%
G04 Gerber Fmt 4.5, Leading zero omitted, Abs format (unit mm)*
G04 Created by KiCad*
%MOMM*%
%LPD*%
G04 APERTURE LIST*
%ADD10C,0.150000*%
%ADD11C,0.400000*%
%ADD12C,0.250000*%
%ADD13C,0.120000*%
%ADD14C,0.010000*%
%ADD15C,2.500000*%
%ADD16R,2.500000X2.500000*%
%ADD17C,1.800000*%
%ADD18O,2.100000X2.100000*%
%ADD19R,2.100000X2.100000*%
%ADD20O,1.400000X1.400000*%
%ADD21R,1.400000X1.400000*%
%ADD22O,1.800000X1.800000*%
%ADD23C,2.200000*%
%ADD24R,2.200000X2.200000*%
%ADD25R,1.450000X1.900000*%
%ADD26O,1.450000X1.900000*%
%ADD27O,2.000000X2.000000*%
%ADD28R,2.000000X2.000000*%
%ADD29C,2.400000*%
%ADD30R,2.400000X2.400000*%
%ADD31C,3.600000*%
%ADD32C,2.432000*%
%ADD33R,2.432000X2.432000*%
G04 APERTURE END LIST*
D10*
X643929Y19691D02*
X651548Y19691D01*
X659167Y23500D01*
X662976Y27310D01*
X666786Y34929D01*
X670595Y50167D01*
X670595Y69214D01*
X666786Y84452D01*
X662976Y92071D01*
X659167Y95881D01*
X651548Y99690D01*
X643929Y99690D01*
X636310Y95881D01*
X632500Y92071D01*
X628690Y84452D01*
X624881Y69214D01*
X624881Y50167D01*
X628690Y34929D01*
X632500Y27310D01*
X636310Y23500D01*
X643929Y19691D01*
X701071Y27310D02*
X704881Y23500D01*
X712500Y19691D01*
X731548Y19691D01*
X739167Y23500D01*
X742976Y27310D01*
X746786Y34929D01*
X746786Y42548D01*
X742976Y53976D01*
X697262Y99690D01*
X746786Y99690D01*
X781071Y92071D02*
X784881Y95881D01*
X781071Y99690D01*
X777262Y95881D01*
X781071Y92071D01*
X781071Y99690D01*
X834405Y19691D02*
X842024Y19691D01*
X849643Y23500D01*
X853452Y27310D01*
X857262Y34929D01*
X861071Y50167D01*
X861071Y69214D01*
X857262Y84452D01*
X853452Y92071D01*
X849643Y95881D01*
X842024Y99690D01*
X834405Y99690D01*
X826786Y95881D01*
X822976Y92071D01*
X819167Y84452D01*
X815357Y69214D01*
X815357Y50167D01*
X819167Y34929D01*
X822976Y27310D01*
X826786Y23500D01*
X834405Y19691D01*
X891548Y27310D02*
X895357Y23500D01*
X902976Y19691D01*
X922024Y19691D01*
X929643Y23500D01*
X933452Y27310D01*
X937262Y34929D01*
X937262Y42548D01*
X933452Y53976D01*
X887738Y99690D01*
X937262Y99690D01*
X971548Y92071D02*
X975357Y95881D01*
X971548Y99690D01*
X967738Y95881D01*
X971548Y92071D01*
X971548Y99690D01*
X1005833Y27310D02*
X1009643Y23500D01*
X1017262Y19691D01*
X1036309Y19691D01*
X1043928Y23500D01*
X1047738Y27310D01*
X1051548Y34929D01*
X1051548Y42548D01*
X1047738Y53976D01*
X1002024Y99690D01*
X1051548Y99690D01*
X1101071Y19691D02*
X1108690Y19691D01*
X1116310Y23500D01*
X1120119Y27310D01*
X1123929Y34929D01*
X1127738Y50167D01*
X1127738Y69214D01*
X1123929Y84452D01*
X1120119Y92071D01*
X1116310Y95881D01*
X1108690Y99690D01*
X1101071Y99690D01*
X1093452Y95881D01*
X1089643Y92071D01*
X1085833Y84452D01*
X1082024Y69214D01*
X1082024Y50167D01*
X1085833Y34929D01*
X1089643Y27310D01*
X1093452Y23500D01*
X1101071Y19691D01*
X1203929Y99690D02*
X1158214Y99690D01*
X1181071Y99690D02*
X1181071Y19691D01*
X1173452Y31119D01*
X1165833Y38738D01*
X1158214Y42548D01*
X1242024Y99690D02*
X1257262Y99690D01*
X1264881Y95881D01*
X1268690Y92071D01*
X1276310Y80643D01*
X1280119Y65405D01*
X1280119Y34929D01*
X1276310Y27310D01*
X1272500Y23500D01*
X1264881Y19691D01*
X1249643Y19691D01*
X1242024Y23500D01*
X1238214Y27310D01*
X1234405Y34929D01*
X1234405Y53976D01*
X1238214Y61595D01*
X1242024Y65405D01*
X1249643Y69214D01*
X1264881Y69214D01*
X1272500Y65405D01*
X1276310Y61595D01*
X1280119Y53976D01*
D11*
X1723083Y664167D02*
X1731417Y647500D01*
X1739750Y639167D01*
X1756417Y630833D01*
X1806417Y630833D01*
X1823083Y639167D01*
X1831417Y647500D01*
X1839750Y664167D01*
X1839750Y689167D01*
X1831417Y705833D01*
X1823083Y714167D01*
X1806417Y722500D01*
X1756417Y722500D01*
X1739750Y714167D01*
X1731417Y705833D01*
X1723083Y689167D01*
X1723083Y664167D01*
X1839750Y797500D02*
X1664750Y797500D01*
X1831417Y797500D02*
X1839750Y814167D01*
X1839750Y847500D01*
X1831417Y864167D01*
X1823083Y872500D01*
X1806417Y880833D01*
X1756417Y880833D01*
X1739750Y872500D01*
X1731417Y864167D01*
X1723083Y847500D01*
X1723083Y814167D01*
X1731417Y797500D01*
X1731417Y1022500D02*
X1723083Y1005833D01*
X1723083Y972500D01*
X1731417Y955833D01*
X1748083Y947500D01*
X1814750Y947500D01*
X1831417Y955833D01*
X1839750Y972500D01*
X1839750Y1005833D01*
X1831417Y1022500D01*
X1814750Y1030833D01*
X1798083Y1030833D01*
X1781417Y947500D01*
X1839750Y1105833D02*
X1723083Y1105833D01*
X1823083Y1105833D02*
X1831417Y1114167D01*
X1839750Y1130833D01*
X1839750Y1155833D01*
X1831417Y1172500D01*
X1814750Y1180833D01*
X1723083Y1180833D01*
X1420583Y639167D02*
X1595583Y639167D01*
X1420583Y714167D02*
X1512250Y714167D01*
X1528917Y705833D01*
X1537250Y689167D01*
X1537250Y664167D01*
X1528917Y647500D01*
X1520583Y639167D01*
X1420583Y872500D02*
X1512250Y872500D01*
X1528917Y864167D01*
X1537250Y847500D01*
X1537250Y814167D01*
X1528917Y797500D01*
X1428917Y872500D02*
X1420583Y855833D01*
X1420583Y814167D01*
X1428917Y797500D01*
X1445583Y789167D01*
X1462250Y789167D01*
X1478917Y797500D01*
X1487250Y814167D01*
X1487250Y855833D01*
X1495583Y872500D01*
X1420583Y955833D02*
X1537250Y955833D01*
X1503917Y955833D02*
X1520583Y964167D01*
X1528917Y972500D01*
X1537250Y989167D01*
X1537250Y1005833D01*
X1420583Y1139167D02*
X1595583Y1139167D01*
X1428917Y1139167D02*
X1420583Y1122500D01*
X1420583Y1089167D01*
X1428917Y1072500D01*
X1437250Y1064167D01*
X1453917Y1055833D01*
X1503917Y1055833D01*
X1520583Y1064167D01*
X1528917Y1072500D01*
X1537250Y1089167D01*
X1537250Y1122500D01*
X1528917Y1139167D01*
X1537250Y1205833D02*
X1420583Y1239167D01*
X1503917Y1272500D01*
X1420583Y1305833D01*
X1537250Y1339167D01*
X1420583Y1480833D02*
X1512250Y1480833D01*
X1528917Y1472500D01*
X1537250Y1455833D01*
X1537250Y1422500D01*
X1528917Y1405833D01*
X1428917Y1480833D02*
X1420583Y1464167D01*
X1420583Y1422500D01*
X1428917Y1405833D01*
X1445583Y1397500D01*
X1462250Y1397500D01*
X1478917Y1405833D01*
X1487250Y1422500D01*
X1487250Y1464167D01*
X1495583Y1480833D01*
X1420583Y1564167D02*
X1537250Y1564167D01*
X1503917Y1564167D02*
X1520583Y1572500D01*
X1528917Y1580833D01*
X1537250Y1597500D01*
X1537250Y1614167D01*
X1428917Y1739167D02*
X1420583Y1722500D01*
X1420583Y1689167D01*
X1428917Y1672500D01*
X1445583Y1664167D01*
X1512250Y1664167D01*
X1528917Y1672500D01*
X1537250Y1689167D01*
X1537250Y1722500D01*
X1528917Y1739167D01*
X1512250Y1747500D01*
X1495583Y1747500D01*
X1478917Y1664167D01*
D12*
X399262Y-603048D02*
X499262Y-603048D01*
X399262Y-560190D02*
X451643Y-560190D01*
X461167Y-564952D01*
X465928Y-574476D01*
X465928Y-588762D01*
X461167Y-598286D01*
X456405Y-603048D01*
X465928Y-526857D02*
X465928Y-488762D01*
X499262Y-512571D02*
X413548Y-512571D01*
X404024Y-507809D01*
X399262Y-498286D01*
X399262Y-488762D01*
X465928Y-469714D02*
X465928Y-431619D01*
X499262Y-455428D02*
X413548Y-455428D01*
X404024Y-450667D01*
X399262Y-441143D01*
X399262Y-431619D01*
X465928Y-398286D02*
X365928Y-398286D01*
X461167Y-398286D02*
X465928Y-388762D01*
X465928Y-369714D01*
X461167Y-360190D01*
X456405Y-355428D01*
X446881Y-350667D01*
X418309Y-350667D01*
X408786Y-355428D01*
X404024Y-360190D01*
X399262Y-369714D01*
X399262Y-388762D01*
X404024Y-398286D01*
X404024Y-312571D02*
X399262Y-303048D01*
X399262Y-284000D01*
X404024Y-274476D01*
X413548Y-269714D01*
X418309Y-269714D01*
X427833Y-274476D01*
X432595Y-284000D01*
X432595Y-298286D01*
X437357Y-307810D01*
X446881Y-312571D01*
X451643Y-312571D01*
X461167Y-307810D01*
X465928Y-298286D01*
X465928Y-284000D01*
X461167Y-274476D01*
X408786Y-226857D02*
X404024Y-222095D01*
X399262Y-226857D01*
X404024Y-231619D01*
X408786Y-226857D01*
X399262Y-226857D01*
X461167Y-226857D02*
X456405Y-222095D01*
X451643Y-226857D01*
X456405Y-231619D01*
X461167Y-226857D01*
X451643Y-226857D01*
X504024Y-107809D02*
X375452Y-193524D01*
X504024Y-3048D02*
X375452Y-88762D01*
X465928Y30286D02*
X399262Y30286D01*
X456405Y30286D02*
X461167Y35048D01*
X465928Y44571D01*
X465928Y58857D01*
X461167Y68381D01*
X451643Y73143D01*
X399262Y73143D01*
X404024Y158857D02*
X399262Y149333D01*
X399262Y130286D01*
X404024Y120762D01*
X413548Y116000D01*
X451643Y116000D01*
X461167Y120762D01*
X465928Y130286D01*
X465928Y149333D01*
X461167Y158857D01*
X451643Y163619D01*
X442119Y163619D01*
X432595Y116000D01*
X399262Y206476D02*
X465928Y206476D01*
X446881Y206476D02*
X456405Y211238D01*
X461167Y216000D01*
X465928Y225524D01*
X465928Y235048D01*
X399262Y311238D02*
X499262Y311238D01*
X404024Y311238D02*
X399262Y301714D01*
X399262Y282667D01*
X404024Y273143D01*
X408786Y268381D01*
X418309Y263619D01*
X446881Y263619D01*
X456405Y268381D01*
X461167Y273143D01*
X465928Y282667D01*
X465928Y301714D01*
X461167Y311238D01*
X465928Y349333D02*
X399262Y373143D01*
X465928Y396952D02*
X399262Y373143D01*
X375452Y363619D01*
X370690Y358857D01*
X365928Y349333D01*
X404024Y430286D02*
X399262Y439810D01*
X399262Y458857D01*
X404024Y468381D01*
X413548Y473143D01*
X418309Y473143D01*
X427833Y468381D01*
X432595Y458857D01*
X432595Y444571D01*
X437357Y435048D01*
X446881Y430286D01*
X451643Y430286D01*
X461167Y435048D01*
X465928Y444571D01*
X465928Y458857D01*
X461167Y468381D01*
X404024Y558857D02*
X399262Y549333D01*
X399262Y530286D01*
X404024Y520762D01*
X408786Y516000D01*
X418309Y511238D01*
X446881Y511238D01*
X456405Y516000D01*
X461167Y520762D01*
X465928Y530286D01*
X465928Y549333D01*
X461167Y558857D01*
X399262Y616000D02*
X404024Y606476D01*
X408786Y601714D01*
X418309Y596952D01*
X446881Y596952D01*
X456405Y601714D01*
X461167Y606476D01*
X465928Y616000D01*
X465928Y630286D01*
X461167Y639810D01*
X456405Y644572D01*
X446881Y649333D01*
X418309Y649333D01*
X408786Y644572D01*
X404024Y639810D01*
X399262Y630286D01*
X399262Y616000D01*
X465928Y735048D02*
X399262Y735048D01*
X465928Y692191D02*
X413548Y692191D01*
X404024Y696952D01*
X399262Y706476D01*
X399262Y720762D01*
X404024Y730286D01*
X408786Y735048D01*
X465928Y768381D02*
X465928Y806476D01*
X499262Y782667D02*
X413548Y782667D01*
X404024Y787429D01*
X399262Y796952D01*
X399262Y806476D01*
X408786Y839810D02*
X404024Y844571D01*
X399262Y839810D01*
X404024Y835048D01*
X408786Y839810D01*
X399262Y839810D01*
X465928Y930286D02*
X384976Y930286D01*
X375452Y925524D01*
X370690Y920762D01*
X365928Y911238D01*
X365928Y896952D01*
X370690Y887429D01*
X404024Y930286D02*
X399262Y920762D01*
X399262Y901714D01*
X404024Y892190D01*
X408786Y887429D01*
X418309Y882667D01*
X446881Y882667D01*
X456405Y887429D01*
X461167Y892190D01*
X465928Y901714D01*
X465928Y920762D01*
X461167Y930286D01*
X399262Y977905D02*
X465928Y977905D01*
X499262Y977905D02*
X494500Y973143D01*
X489738Y977905D01*
X494500Y982667D01*
X499262Y977905D01*
X489738Y977905D01*
X465928Y1011238D02*
X465928Y1049333D01*
X499262Y1025524D02*
X413548Y1025524D01*
X404024Y1030286D01*
X399262Y1039810D01*
X399262Y1049333D01*
X399262Y1082667D02*
X499262Y1082667D01*
X399262Y1125524D02*
X451643Y1125524D01*
X461167Y1120762D01*
X465928Y1111238D01*
X465928Y1096952D01*
X461167Y1087429D01*
X456405Y1082667D01*
X465928Y1216000D02*
X399262Y1216000D01*
X465928Y1173143D02*
X413548Y1173143D01*
X404024Y1177905D01*
X399262Y1187429D01*
X399262Y1201714D01*
X404024Y1211238D01*
X408786Y1216000D01*
X399262Y1263619D02*
X499262Y1263619D01*
X461167Y1263619D02*
X465928Y1273143D01*
X465928Y1292191D01*
X461167Y1301714D01*
X456405Y1306476D01*
X446881Y1311238D01*
X418309Y1311238D01*
X408786Y1306476D01*
X404024Y1301714D01*
X399262Y1292191D01*
X399262Y1273143D01*
X404024Y1263619D01*
X408786Y1354095D02*
X404024Y1358857D01*
X399262Y1354095D01*
X404024Y1349333D01*
X408786Y1354095D01*
X399262Y1354095D01*
X399262Y1401714D02*
X465928Y1401714D01*
X499262Y1401714D02*
X494500Y1396952D01*
X489738Y1401714D01*
X494500Y1406476D01*
X499262Y1401714D01*
X489738Y1401714D01*
X399262Y1463619D02*
X404024Y1454095D01*
X408786Y1449333D01*
X418309Y1444571D01*
X446881Y1444571D01*
X456405Y1449333D01*
X461167Y1454095D01*
X465928Y1463619D01*
X465928Y1477905D01*
X461167Y1487429D01*
X456405Y1492190D01*
X446881Y1496952D01*
X418309Y1496952D01*
X408786Y1492190D01*
X404024Y1487429D01*
X399262Y1477905D01*
X399262Y1463619D01*
X504024Y1611238D02*
X375452Y1525524D01*
X399262Y1644571D02*
X499262Y1644571D01*
X399262Y1701714D01*
X499262Y1701714D01*
X399262Y1763619D02*
X404024Y1754095D01*
X408786Y1749333D01*
X418309Y1744571D01*
X446881Y1744571D01*
X456405Y1749333D01*
X461167Y1754095D01*
X465928Y1763619D01*
X465928Y1777905D01*
X461167Y1787429D01*
X456405Y1792190D01*
X446881Y1796952D01*
X418309Y1796952D01*
X408786Y1792190D01*
X404024Y1787429D01*
X399262Y1777905D01*
X399262Y1763619D01*
X399262Y1882667D02*
X499262Y1882667D01*
X404024Y1882667D02*
X399262Y1873143D01*
X399262Y1854095D01*
X404024Y1844571D01*
X408786Y1839810D01*
X418309Y1835048D01*
X446881Y1835048D01*
X456405Y1839810D01*
X461167Y1844571D01*
X465928Y1854095D01*
X465928Y1873143D01*
X461167Y1882667D01*
X404024Y1968381D02*
X399262Y1958857D01*
X399262Y1939810D01*
X404024Y1930286D01*
X413548Y1925524D01*
X451643Y1925524D01*
X461167Y1930286D01*
X465928Y1939810D01*
X465928Y1958857D01*
X461167Y1968381D01*
X451643Y1973143D01*
X442119Y1973143D01*
X432595Y1925524D01*
X399262Y2016000D02*
X499262Y2016000D01*
X427833Y2049333D01*
X499262Y2082667D01*
X399262Y2082667D01*
X408786Y2187429D02*
X404024Y2182667D01*
X399262Y2168381D01*
X399262Y2158857D01*
X404024Y2144572D01*
X413548Y2135048D01*
X423071Y2130286D01*
X442119Y2125524D01*
X456405Y2125524D01*
X475452Y2130286D01*
X484976Y2135048D01*
X494500Y2144572D01*
X499262Y2158857D01*
X499262Y2168381D01*
X494500Y2182667D01*
X489738Y2187429D01*
X499262Y2230286D02*
X418309Y2230286D01*
X408786Y2235048D01*
X404024Y2239810D01*
X399262Y2249333D01*
X399262Y2268381D01*
X404024Y2277905D01*
X408786Y2282667D01*
X418309Y2287429D01*
X499262Y2287429D01*
X504024Y2406476D02*
X375452Y2320762D01*
X399262Y2439810D02*
X499262Y2439810D01*
X499262Y2477905D01*
X494500Y2487429D01*
X489738Y2492191D01*
X480214Y2496952D01*
X465928Y2496952D01*
X456405Y2492191D01*
X451643Y2487429D01*
X446881Y2477905D01*
X446881Y2439810D01*
X399262Y2539810D02*
X499262Y2539810D01*
X404024Y2582667D02*
X399262Y2596952D01*
X399262Y2620762D01*
X404024Y2630286D01*
X408786Y2635048D01*
X418309Y2639810D01*
X427833Y2639810D01*
X437357Y2635048D01*
X442119Y2630286D01*
X446881Y2620762D01*
X451643Y2601714D01*
X456405Y2592191D01*
X461167Y2587429D01*
X470690Y2582667D01*
X480214Y2582667D01*
X489738Y2587429D01*
X494500Y2592191D01*
X499262Y2601714D01*
X499262Y2625524D01*
X494500Y2639810D01*
D13*
X-190500Y4063511D02*
G75*
G02X-63500Y4190511I127000J0D01*
G01*
X2476500Y-571500D02*
G75*
G02X2349500Y-698500I-127000J0D01*
G01*
X2349500Y4190511D02*
G75*
G02X2476500Y4063511I0J-127000D01*
G01*
X-63500Y-698989D02*
G75*
G02X-190500Y-571989I0J127000D01*
G01*
X2476500Y-571500D02*
X2476500Y4064000D01*
X-63500Y-698500D02*
X2349500Y-698500D01*
X-190500Y4064000D02*
X-190500Y-571500D01*
X2349500Y4190511D02*
X-63500Y4190511D01*
D14*
G36*
X1312351Y679892D02*
G01*
X1308776Y690203D01*
X1303149Y699802D01*
X1295471Y708375D01*
X1285743Y715607D01*
X1279611Y718855D01*
X1271034Y721667D01*
X1261132Y723029D01*
X1250953Y722879D01*
X1241729Y721203D01*
X1230457Y716624D01*
X1220679Y709983D01*
X1212589Y701619D01*
X1206377Y691869D01*
X1202237Y681070D01*
X1200360Y669560D01*
X1200940Y657677D01*
X1202179Y651819D01*
X1206620Y640403D01*
X1213397Y630264D01*
X1222300Y621646D01*
X1233121Y614793D01*
X1234303Y614214D01*
X1238737Y612210D01*
X1242472Y610951D01*
X1246412Y610268D01*
X1251462Y609990D01*
X1256957Y609943D01*
X1263559Y610020D01*
X1268331Y610365D01*
X1272190Y611152D01*
X1276049Y612556D01*
X1279857Y614288D01*
X1290667Y620750D01*
X1299420Y628707D01*
X1306116Y637844D01*
X1310756Y647846D01*
X1313342Y658399D01*
X1313873Y669186D01*
X1312351Y679892D01*
G37*
X1312351Y679892D02*
X1308776Y690203D01*
X1303149Y699802D01*
X1295471Y708375D01*
X1285743Y715607D01*
X1279611Y718855D01*
X1271034Y721667D01*
X1261132Y723029D01*
X1250953Y722879D01*
X1241729Y721203D01*
X1230457Y716624D01*
X1220679Y709983D01*
X1212589Y701619D01*
X1206377Y691869D01*
X1202237Y681070D01*
X1200360Y669560D01*
X1200940Y657677D01*
X1202179Y651819D01*
X1206620Y640403D01*
X1213397Y630264D01*
X1222300Y621646D01*
X1233121Y614793D01*
X1234303Y614214D01*
X1238737Y612210D01*
X1242472Y610951D01*
X1246412Y610268D01*
X1251462Y609990D01*
X1256957Y609943D01*
X1263559Y610020D01*
X1268331Y610365D01*
X1272190Y611152D01*
X1276049Y612556D01*
X1279857Y614288D01*
X1290667Y620750D01*
X1299420Y628707D01*
X1306116Y637844D01*
X1310756Y647846D01*
X1313342Y658399D01*
X1313873Y669186D01*
X1312351Y679892D01*
G36*
X1220318Y1636727D02*
G01*
X1220270Y1648404D01*
X1220246Y1652373D01*
X1219887Y1706949D01*
X1010508Y1707635D01*
X982116Y1707726D01*
X956336Y1707806D01*
X933035Y1707881D01*
X912081Y1707957D01*
X893338Y1708037D01*
X876675Y1708128D01*
X861957Y1708235D01*
X849052Y1708362D01*
X837826Y1708516D01*
X828146Y1708700D01*
X819877Y1708920D01*
X812888Y1709182D01*
X807044Y1709491D01*
X802213Y1709851D01*
X798260Y1710268D01*
X795053Y1710747D01*
X792458Y1711293D01*
X790341Y1711912D01*
X788570Y1712608D01*
X787011Y1713387D01*
X785531Y1714254D01*
X783996Y1715213D01*
X782272Y1716271D01*
X781905Y1716488D01*
X775697Y1720127D01*
X776057Y1667543D01*
X776416Y1614959D01*
X787967Y1614273D01*
X793510Y1613899D01*
X796715Y1613510D01*
X797986Y1612981D01*
X797730Y1612190D01*
X796998Y1611527D01*
X794329Y1608637D01*
X790898Y1603928D01*
X787115Y1598062D01*
X783391Y1591703D01*
X780135Y1585515D01*
X777992Y1580763D01*
X774472Y1569632D01*
X771978Y1556860D01*
X770606Y1543390D01*
X770451Y1530166D01*
X771609Y1518131D01*
X771643Y1517933D01*
X775775Y1501464D01*
X782359Y1486048D01*
X791253Y1471833D01*
X802315Y1458967D01*
X815404Y1447601D01*
X830378Y1437881D01*
X847097Y1429957D01*
X859481Y1425643D01*
X869842Y1422798D01*
X879875Y1420688D01*
X890189Y1419249D01*
X901394Y1418416D01*
X914100Y1418124D01*
X924475Y1418253D01*
X924475Y1519565D01*
X907078Y1520044D01*
X892110Y1521557D01*
X879440Y1524148D01*
X868934Y1527866D01*
X860459Y1532756D01*
X853883Y1538866D01*
X849234Y1545918D01*
X847499Y1549587D01*
X846458Y1552770D01*
X845982Y1556318D01*
X845940Y1561084D01*
X846125Y1566219D01*
X847016Y1576317D01*
X848760Y1584303D01*
X849634Y1586813D01*
X852214Y1592545D01*
X855455Y1598590D01*
X857077Y1601230D01*
X861579Y1608095D01*
X1004302Y1608095D01*
X1008828Y1600543D01*
X1013943Y1590012D01*
X1016968Y1579252D01*
X1017920Y1568658D01*
X1016819Y1558622D01*
X1013682Y1549539D01*
X1008526Y1541801D01*
X1006051Y1539304D01*
X997942Y1533286D01*
X988127Y1528414D01*
X976436Y1524650D01*
X962701Y1521951D01*
X946756Y1520277D01*
X928430Y1519588D01*
X924475Y1519565D01*
X924475Y1418253D01*
X928793Y1418307D01*
X951395Y1419465D01*
X971781Y1421792D01*
X990249Y1425350D01*
X1007095Y1430201D01*
X1022617Y1436406D01*
X1027219Y1438620D01*
X1042226Y1447538D01*
X1055562Y1458316D01*
X1067012Y1470699D01*
X1076361Y1484434D01*
X1083393Y1499268D01*
X1086294Y1508160D01*
X1088016Y1516893D01*
X1089041Y1527401D01*
X1089368Y1538803D01*
X1088999Y1550218D01*
X1087934Y1560765D01*
X1086263Y1569233D01*
X1082986Y1579313D01*
X1078772Y1589082D01*
X1074048Y1597630D01*
X1070842Y1602179D01*
X1068458Y1605317D01*
X1067006Y1607514D01*
X1066800Y1608014D01*
X1068128Y1608169D01*
X1071934Y1608313D01*
X1077948Y1608444D01*
X1085903Y1608558D01*
X1095529Y1608652D01*
X1106558Y1608723D01*
X1118722Y1608767D01*
X1131112Y1608781D01*
X1146980Y1608773D01*
X1160359Y1608733D01*
X1171504Y1608639D01*
X1180671Y1608468D01*
X1188115Y1608196D01*
X1194093Y1607800D01*
X1198860Y1607257D01*
X1202673Y1606544D01*
X1205787Y1605638D01*
X1208458Y1604517D01*
X1210942Y1603156D01*
X1213496Y1601533D01*
X1213812Y1601324D01*
X1217119Y1599231D01*
X1219393Y1597967D01*
X1219873Y1597797D01*
X1220024Y1599122D01*
X1220147Y1602900D01*
X1220240Y1608842D01*
X1220301Y1616654D01*
X1220327Y1626046D01*
X1220318Y1636727D01*
G37*
X1220318Y1636727D02*
X1220270Y1648404D01*
X1220246Y1652373D01*
X1219887Y1706949D01*
X1010508Y1707635D01*
X982116Y1707726D01*
X956336Y1707806D01*
X933035Y1707881D01*
X912081Y1707957D01*
X893338Y1708037D01*
X876675Y1708128D01*
X861957Y1708235D01*
X849052Y1708362D01*
X837826Y1708516D01*
X828146Y1708700D01*
X819877Y1708920D01*
X812888Y1709182D01*
X807044Y1709491D01*
X802213Y1709851D01*
X798260Y1710268D01*
X795053Y1710747D01*
X792458Y1711293D01*
X790341Y1711912D01*
X788570Y1712608D01*
X787011Y1713387D01*
X785531Y1714254D01*
X783996Y1715213D01*
X782272Y1716271D01*
X781905Y1716488D01*
X775697Y1720127D01*
X776057Y1667543D01*
X776416Y1614959D01*
X787967Y1614273D01*
X793510Y1613899D01*
X796715Y1613510D01*
X797986Y1612981D01*
X797730Y1612190D01*
X796998Y1611527D01*
X794329Y1608637D01*
X790898Y1603928D01*
X787115Y1598062D01*
X783391Y1591703D01*
X780135Y1585515D01*
X777992Y1580763D01*
X774472Y1569632D01*
X771978Y1556860D01*
X770606Y1543390D01*
X770451Y1530166D01*
X771609Y1518131D01*
X771643Y1517933D01*
X775775Y1501464D01*
X782359Y1486048D01*
X791253Y1471833D01*
X802315Y1458967D01*
X815404Y1447601D01*
X830378Y1437881D01*
X847097Y1429957D01*
X859481Y1425643D01*
X869842Y1422798D01*
X879875Y1420688D01*
X890189Y1419249D01*
X901394Y1418416D01*
X914100Y1418124D01*
X924475Y1418253D01*
X924475Y1519565D01*
X907078Y1520044D01*
X892110Y1521557D01*
X879440Y1524148D01*
X868934Y1527866D01*
X860459Y1532756D01*
X853883Y1538866D01*
X849234Y1545918D01*
X847499Y1549587D01*
X846458Y1552770D01*
X845982Y1556318D01*
X845940Y1561084D01*
X846125Y1566219D01*
X847016Y1576317D01*
X848760Y1584303D01*
X849634Y1586813D01*
X852214Y1592545D01*
X855455Y1598590D01*
X857077Y1601230D01*
X861579Y1608095D01*
X1004302Y1608095D01*
X1008828Y1600543D01*
X1013943Y1590012D01*
X1016968Y1579252D01*
X1017920Y1568658D01*
X1016819Y1558622D01*
X1013682Y1549539D01*
X1008526Y1541801D01*
X1006051Y1539304D01*
X997942Y1533286D01*
X988127Y1528414D01*
X976436Y1524650D01*
X962701Y1521951D01*
X946756Y1520277D01*
X928430Y1519588D01*
X924475Y1519565D01*
X924475Y1418253D01*
X928793Y1418307D01*
X951395Y1419465D01*
X971781Y1421792D01*
X990249Y1425350D01*
X1007095Y1430201D01*
X1022617Y1436406D01*
X1027219Y1438620D01*
X1042226Y1447538D01*
X1055562Y1458316D01*
X1067012Y1470699D01*
X1076361Y1484434D01*
X1083393Y1499268D01*
X1086294Y1508160D01*
X1088016Y1516893D01*
X1089041Y1527401D01*
X1089368Y1538803D01*
X1088999Y1550218D01*
X1087934Y1560765D01*
X1086263Y1569233D01*
X1082986Y1579313D01*
X1078772Y1589082D01*
X1074048Y1597630D01*
X1070842Y1602179D01*
X1068458Y1605317D01*
X1067006Y1607514D01*
X1066800Y1608014D01*
X1068128Y1608169D01*
X1071934Y1608313D01*
X1077948Y1608444D01*
X1085903Y1608558D01*
X1095529Y1608652D01*
X1106558Y1608723D01*
X1118722Y1608767D01*
X1131112Y1608781D01*
X1146980Y1608773D01*
X1160359Y1608733D01*
X1171504Y1608639D01*
X1180671Y1608468D01*
X1188115Y1608196D01*
X1194093Y1607800D01*
X1198860Y1607257D01*
X1202673Y1606544D01*
X1205787Y1605638D01*
X1208458Y1604517D01*
X1210942Y1603156D01*
X1213496Y1601533D01*
X1213812Y1601324D01*
X1217119Y1599231D01*
X1219393Y1597967D01*
X1219873Y1597797D01*
X1220024Y1599122D01*
X1220147Y1602900D01*
X1220240Y1608842D01*
X1220301Y1616654D01*
X1220327Y1626046D01*
X1220318Y1636727D01*
G36*
X1089577Y1269251D02*
G01*
X1089062Y1276053D01*
X1086473Y1295516D01*
X1082343Y1312753D01*
X1076615Y1327847D01*
X1069233Y1340883D01*
X1060139Y1351943D01*
X1049278Y1361114D01*
X1036591Y1368477D01*
X1022865Y1373854D01*
X1018486Y1375219D01*
X1014386Y1376407D01*
X1010343Y1377433D01*
X1006137Y1378311D01*
X1001547Y1379055D01*
X996352Y1379678D01*
X990331Y1380195D01*
X983265Y1380620D01*
X974931Y1380966D01*
X965109Y1381248D01*
X953579Y1381480D01*
X940120Y1381676D01*
X924511Y1381849D01*
X906530Y1382014D01*
X892432Y1382132D01*
X795638Y1382927D01*
X786323Y1388076D01*
X781835Y1390514D01*
X778350Y1392328D01*
X776495Y1393194D01*
X776369Y1393224D01*
X776225Y1391901D01*
X776093Y1388133D01*
X775975Y1382218D01*
X775876Y1374459D01*
X775800Y1365154D01*
X775750Y1354604D01*
X775730Y1343108D01*
X775730Y1341738D01*
X775730Y1290251D01*
X787400Y1290251D01*
X792674Y1290164D01*
X796707Y1289929D01*
X798870Y1289592D01*
X799070Y1289443D01*
X798232Y1288080D01*
X796031Y1285276D01*
X792940Y1281630D01*
X792868Y1281549D01*
X787916Y1274896D01*
X782942Y1266495D01*
X778437Y1257294D01*
X774889Y1248242D01*
X773676Y1244257D01*
X772136Y1236326D01*
X771153Y1226594D01*
X770742Y1215952D01*
X770916Y1205291D01*
X771689Y1195502D01*
X772802Y1188651D01*
X777735Y1171852D01*
X784766Y1156728D01*
X793807Y1143378D01*
X804770Y1131901D01*
X817570Y1122394D01*
X832118Y1114956D01*
X840946Y1111747D01*
X849526Y1109737D01*
X859826Y1108404D01*
X870897Y1107787D01*
X872507Y1107807D01*
X872507Y1200665D01*
X864282Y1201435D01*
X857445Y1203999D01*
X851103Y1208738D01*
X849243Y1210558D01*
X844215Y1217028D01*
X840994Y1224507D01*
X839435Y1233466D01*
X839320Y1242901D01*
X840078Y1251850D01*
X841561Y1258702D01*
X842675Y1261678D01*
X845710Y1267041D01*
X849978Y1272724D01*
X854768Y1277908D01*
X859370Y1281778D01*
X861058Y1282805D01*
X863422Y1283604D01*
X867183Y1284172D01*
X872701Y1284536D01*
X880336Y1284721D01*
X887602Y1284759D01*
X896073Y1284734D01*
X902198Y1284629D01*
X906377Y1284405D01*
X909010Y1284021D01*
X910496Y1283437D01*
X911236Y1282612D01*
X911354Y1282357D01*
X911717Y1280140D01*
X912013Y1275768D01*
X912217Y1269831D01*
X912302Y1262920D01*
X912302Y1261419D01*
X912154Y1252181D01*
X911716Y1245043D01*
X910926Y1239372D01*
X909773Y1234687D01*
X905378Y1223067D01*
X899976Y1213954D01*
X893478Y1207271D01*
X885799Y1202937D01*
X876853Y1200873D01*
X872507Y1200665D01*
X872507Y1107807D01*
X881787Y1107924D01*
X891546Y1108853D01*
X895489Y1109578D01*
X910130Y1114204D01*
X923600Y1121238D01*
X935772Y1130548D01*
X946515Y1142001D01*
X955701Y1155464D01*
X963200Y1170804D01*
X967754Y1183846D01*
X970147Y1192562D01*
X972006Y1200900D01*
X973392Y1209398D01*
X974365Y1218597D01*
X974986Y1229036D01*
X975315Y1241257D01*
X975408Y1252306D01*
X975497Y1285068D01*
X985345Y1284440D01*
X996030Y1282658D01*
X1005215Y1278867D01*
X1012669Y1273228D01*
X1018164Y1265903D01*
X1020845Y1259454D01*
X1022535Y1250212D01*
X1022777Y1239211D01*
X1021662Y1226966D01*
X1019279Y1213991D01*
X1015717Y1200804D01*
X1011066Y1187920D01*
X1006812Y1178557D01*
X1004627Y1174052D01*
X1003102Y1170616D01*
X1002506Y1168868D01*
X1002525Y1168773D01*
X1003859Y1168170D01*
X1007393Y1166665D01*
X1012790Y1164398D01*
X1019710Y1161512D01*
X1027816Y1158148D01*
X1036088Y1154728D01*
X1069220Y1141059D01*
X1070817Y1150782D01*
X1071618Y1154996D01*
X1072964Y1161332D01*
X1074732Y1169246D01*
X1076800Y1178195D01*
X1079047Y1187637D01*
X1079960Y1191397D01*
X1083733Y1207664D01*
X1086561Y1221905D01*
X1088503Y1234653D01*
X1089615Y1246438D01*
X1089954Y1257794D01*
X1089577Y1269251D01*
G37*
X1089577Y1269251D02*
X1089062Y1276053D01*
X1086473Y1295516D01*
X1082343Y1312753D01*
X1076615Y1327847D01*
X1069233Y1340883D01*
X1060139Y1351943D01*
X1049278Y1361114D01*
X1036591Y1368477D01*
X1022865Y1373854D01*
X1018486Y1375219D01*
X1014386Y1376407D01*
X1010343Y1377433D01*
X1006137Y1378311D01*
X1001547Y1379055D01*
X996352Y1379678D01*
X990331Y1380195D01*
X983265Y1380620D01*
X974931Y1380966D01*
X965109Y1381248D01*
X953579Y1381480D01*
X940120Y1381676D01*
X924511Y1381849D01*
X906530Y1382014D01*
X892432Y1382132D01*
X795638Y1382927D01*
X786323Y1388076D01*
X781835Y1390514D01*
X778350Y1392328D01*
X776495Y1393194D01*
X776369Y1393224D01*
X776225Y1391901D01*
X776093Y1388133D01*
X775975Y1382218D01*
X775876Y1374459D01*
X775800Y1365154D01*
X775750Y1354604D01*
X775730Y1343108D01*
X775730Y1341738D01*
X775730Y1290251D01*
X787400Y1290251D01*
X792674Y1290164D01*
X796707Y1289929D01*
X798870Y1289592D01*
X799070Y1289443D01*
X798232Y1288080D01*
X796031Y1285276D01*
X792940Y1281630D01*
X792868Y1281549D01*
X787916Y1274896D01*
X782942Y1266495D01*
X778437Y1257294D01*
X774889Y1248242D01*
X773676Y1244257D01*
X772136Y1236326D01*
X771153Y1226594D01*
X770742Y1215952D01*
X770916Y1205291D01*
X771689Y1195502D01*
X772802Y1188651D01*
X777735Y1171852D01*
X784766Y1156728D01*
X793807Y1143378D01*
X804770Y1131901D01*
X817570Y1122394D01*
X832118Y1114956D01*
X840946Y1111747D01*
X849526Y1109737D01*
X859826Y1108404D01*
X870897Y1107787D01*
X872507Y1107807D01*
X872507Y1200665D01*
X864282Y1201435D01*
X857445Y1203999D01*
X851103Y1208738D01*
X849243Y1210558D01*
X844215Y1217028D01*
X840994Y1224507D01*
X839435Y1233466D01*
X839320Y1242901D01*
X840078Y1251850D01*
X841561Y1258702D01*
X842675Y1261678D01*
X845710Y1267041D01*
X849978Y1272724D01*
X854768Y1277908D01*
X859370Y1281778D01*
X861058Y1282805D01*
X863422Y1283604D01*
X867183Y1284172D01*
X872701Y1284536D01*
X880336Y1284721D01*
X887602Y1284759D01*
X896073Y1284734D01*
X902198Y1284629D01*
X906377Y1284405D01*
X909010Y1284021D01*
X910496Y1283437D01*
X911236Y1282612D01*
X911354Y1282357D01*
X911717Y1280140D01*
X912013Y1275768D01*
X912217Y1269831D01*
X912302Y1262920D01*
X912302Y1261419D01*
X912154Y1252181D01*
X911716Y1245043D01*
X910926Y1239372D01*
X909773Y1234687D01*
X905378Y1223067D01*
X899976Y1213954D01*
X893478Y1207271D01*
X885799Y1202937D01*
X876853Y1200873D01*
X872507Y1200665D01*
X872507Y1107807D01*
X881787Y1107924D01*
X891546Y1108853D01*
X895489Y1109578D01*
X910130Y1114204D01*
X923600Y1121238D01*
X935772Y1130548D01*
X946515Y1142001D01*
X955701Y1155464D01*
X963200Y1170804D01*
X967754Y1183846D01*
X970147Y1192562D01*
X972006Y1200900D01*
X973392Y1209398D01*
X974365Y1218597D01*
X974986Y1229036D01*
X975315Y1241257D01*
X975408Y1252306D01*
X975497Y1285068D01*
X985345Y1284440D01*
X996030Y1282658D01*
X1005215Y1278867D01*
X1012669Y1273228D01*
X1018164Y1265903D01*
X1020845Y1259454D01*
X1022535Y1250212D01*
X1022777Y1239211D01*
X1021662Y1226966D01*
X1019279Y1213991D01*
X1015717Y1200804D01*
X1011066Y1187920D01*
X1006812Y1178557D01*
X1004627Y1174052D01*
X1003102Y1170616D01*
X1002506Y1168868D01*
X1002525Y1168773D01*
X1003859Y1168170D01*
X1007393Y1166665D01*
X1012790Y1164398D01*
X1019710Y1161512D01*
X1027816Y1158148D01*
X1036088Y1154728D01*
X1069220Y1141059D01*
X1070817Y1150782D01*
X1071618Y1154996D01*
X1072964Y1161332D01*
X1074732Y1169246D01*
X1076800Y1178195D01*
X1079047Y1187637D01*
X1079960Y1191397D01*
X1083733Y1207664D01*
X1086561Y1221905D01*
X1088503Y1234653D01*
X1089615Y1246438D01*
X1089954Y1257794D01*
X1089577Y1269251D01*
G36*
X1199950Y996496D02*
G01*
X1198329Y1011301D01*
X1195428Y1025645D01*
X1191096Y1040111D01*
X1185180Y1055282D01*
X1177530Y1071743D01*
X1176048Y1074707D01*
X1172697Y1081510D01*
X1169679Y1087926D01*
X1167283Y1093322D01*
X1165798Y1097064D01*
X1165611Y1097639D01*
X1163960Y1103149D01*
X1128080Y1078485D01*
X1119311Y1072455D01*
X1111299Y1066942D01*
X1104316Y1062134D01*
X1098635Y1058217D01*
X1094528Y1055379D01*
X1092265Y1053809D01*
X1091907Y1053554D01*
X1092656Y1052517D01*
X1094908Y1049966D01*
X1098254Y1046356D01*
X1100145Y1044364D01*
X1109122Y1033077D01*
X1115944Y1020401D01*
X1119681Y1009478D01*
X1120854Y1002921D01*
X1121569Y994712D01*
X1121813Y985814D01*
X1121571Y977196D01*
X1120832Y969820D01*
X1120265Y966878D01*
X1115702Y953613D01*
X1108734Y941661D01*
X1099374Y931028D01*
X1087635Y921725D01*
X1073530Y913760D01*
X1057071Y907143D01*
X1038272Y901881D01*
X1022178Y898753D01*
X1015074Y897937D01*
X1005895Y897381D01*
X995303Y897080D01*
X983957Y897028D01*
X972515Y897220D01*
X961638Y897650D01*
X951986Y898314D01*
X944217Y899205D01*
X943018Y899398D01*
X923711Y903650D01*
X906623Y909443D01*
X891678Y916813D01*
X878799Y925795D01*
X871836Y932171D01*
X862383Y943629D01*
X855375Y956194D01*
X850852Y969656D01*
X848852Y983801D01*
X849411Y998418D01*
X852570Y1013295D01*
X855661Y1022091D01*
X861849Y1034263D01*
X870727Y1046808D01*
X876731Y1053835D01*
X880205Y1057781D01*
X882755Y1060881D01*
X883983Y1062646D01*
X884020Y1062865D01*
X882765Y1063652D01*
X879448Y1065693D01*
X874354Y1068813D01*
X867767Y1072839D01*
X859971Y1077596D01*
X851251Y1082910D01*
X846393Y1085869D01*
X809278Y1108465D01*
X795336Y1080253D01*
X790328Y1070052D01*
X786379Y1061789D01*
X783293Y1054958D01*
X780873Y1049054D01*
X778924Y1043571D01*
X777250Y1038006D01*
X775653Y1031852D01*
X774252Y1025954D01*
X773167Y1020711D01*
X772347Y1015229D01*
X771747Y1008957D01*
X771321Y1001348D01*
X771023Y991852D01*
X770895Y985451D01*
X770807Y976319D01*
X770851Y967563D01*
X771015Y959761D01*
X771285Y953494D01*
X771649Y949341D01*
X771686Y949095D01*
X776351Y927530D01*
X783427Y907279D01*
X792909Y888349D01*
X804791Y870748D01*
X819070Y854482D01*
X835741Y839558D01*
X850557Y828750D01*
X869950Y817243D01*
X890430Y807942D01*
X912162Y800801D01*
X935309Y795776D01*
X960036Y792820D01*
X985144Y791889D01*
X1009433Y792655D01*
X1031843Y795061D01*
X1052752Y799185D01*
X1072539Y805103D01*
X1091580Y812890D01*
X1093553Y813820D01*
X1111994Y824065D01*
X1129542Y836647D01*
X1145835Y851211D01*
X1160509Y867400D01*
X1173200Y884858D01*
X1182510Y901124D01*
X1189801Y917557D01*
X1195083Y934025D01*
X1198499Y951165D01*
X1200192Y969615D01*
X1200442Y980646D01*
X1199950Y996496D01*
G37*
X1199950Y996496D02*
X1198329Y1011301D01*
X1195428Y1025645D01*
X1191096Y1040111D01*
X1185180Y1055282D01*
X1177530Y1071743D01*
X1176048Y1074707D01*
X1172697Y1081510D01*
X1169679Y1087926D01*
X1167283Y1093322D01*
X1165798Y1097064D01*
X1165611Y1097639D01*
X1163960Y1103149D01*
X1128080Y1078485D01*
X1119311Y1072455D01*
X1111299Y1066942D01*
X1104316Y1062134D01*
X1098635Y1058217D01*
X1094528Y1055379D01*
X1092265Y1053809D01*
X1091907Y1053554D01*
X1092656Y1052517D01*
X1094908Y1049966D01*
X1098254Y1046356D01*
X1100145Y1044364D01*
X1109122Y1033077D01*
X1115944Y1020401D01*
X1119681Y1009478D01*
X1120854Y1002921D01*
X1121569Y994712D01*
X1121813Y985814D01*
X1121571Y977196D01*
X1120832Y969820D01*
X1120265Y966878D01*
X1115702Y953613D01*
X1108734Y941661D01*
X1099374Y931028D01*
X1087635Y921725D01*
X1073530Y913760D01*
X1057071Y907143D01*
X1038272Y901881D01*
X1022178Y898753D01*
X1015074Y897937D01*
X1005895Y897381D01*
X995303Y897080D01*
X983957Y897028D01*
X972515Y897220D01*
X961638Y897650D01*
X951986Y898314D01*
X944217Y899205D01*
X943018Y899398D01*
X923711Y903650D01*
X906623Y909443D01*
X891678Y916813D01*
X878799Y925795D01*
X871836Y932171D01*
X862383Y943629D01*
X855375Y956194D01*
X850852Y969656D01*
X848852Y983801D01*
X849411Y998418D01*
X852570Y1013295D01*
X855661Y1022091D01*
X861849Y1034263D01*
X870727Y1046808D01*
X876731Y1053835D01*
X880205Y1057781D01*
X882755Y1060881D01*
X883983Y1062646D01*
X884020Y1062865D01*
X882765Y1063652D01*
X879448Y1065693D01*
X874354Y1068813D01*
X867767Y1072839D01*
X859971Y1077596D01*
X851251Y1082910D01*
X846393Y1085869D01*
X809278Y1108465D01*
X795336Y1080253D01*
X790328Y1070052D01*
X786379Y1061789D01*
X783293Y1054958D01*
X780873Y1049054D01*
X778924Y1043571D01*
X777250Y1038006D01*
X775653Y1031852D01*
X774252Y1025954D01*
X773167Y1020711D01*
X772347Y1015229D01*
X771747Y1008957D01*
X771321Y1001348D01*
X771023Y991852D01*
X770895Y985451D01*
X770807Y976319D01*
X770851Y967563D01*
X771015Y959761D01*
X771285Y953494D01*
X771649Y949341D01*
X771686Y949095D01*
X776351Y927530D01*
X783427Y907279D01*
X792909Y888349D01*
X804791Y870748D01*
X819070Y854482D01*
X835741Y839558D01*
X850557Y828750D01*
X869950Y817243D01*
X890430Y807942D01*
X912162Y800801D01*
X935309Y795776D01*
X960036Y792820D01*
X985144Y791889D01*
X1009433Y792655D01*
X1031843Y795061D01*
X1052752Y799185D01*
X1072539Y805103D01*
X1091580Y812890D01*
X1093553Y813820D01*
X1111994Y824065D01*
X1129542Y836647D01*
X1145835Y851211D01*
X1160509Y867400D01*
X1173200Y884858D01*
X1182510Y901124D01*
X1189801Y917557D01*
X1195083Y934025D01*
X1198499Y951165D01*
X1200192Y969615D01*
X1200442Y980646D01*
X1199950Y996496D01*
G36*
X1268631Y356926D02*
G01*
X1268628Y383378D01*
X1268627Y395691D01*
X1268627Y592781D01*
X1257009Y592781D01*
X1242871Y594021D01*
X1229832Y597764D01*
X1217814Y604042D01*
X1206740Y612891D01*
X1203749Y615884D01*
X1195265Y626653D01*
X1189078Y638528D01*
X1185184Y651154D01*
X1183581Y664180D01*
X1184266Y677254D01*
X1187236Y690021D01*
X1192488Y702130D01*
X1200020Y713229D01*
X1204564Y718213D01*
X1215705Y727502D01*
X1227957Y734313D01*
X1241179Y738587D01*
X1255231Y740265D01*
X1256613Y740288D01*
X1268627Y740376D01*
X1268627Y745656D01*
X1267991Y750340D01*
X1266444Y754618D01*
X1266285Y754901D01*
X1265783Y755867D01*
X1265393Y756755D01*
X1264999Y757566D01*
X1264489Y758306D01*
X1263749Y758975D01*
X1262665Y759579D01*
X1261123Y760120D01*
X1259009Y760601D01*
X1256210Y761025D01*
X1252612Y761397D01*
X1248101Y761718D01*
X1242564Y761992D01*
X1235886Y762223D01*
X1227955Y762413D01*
X1218655Y762566D01*
X1207874Y762685D01*
X1195498Y762773D01*
X1181413Y762833D01*
X1165505Y762869D01*
X1147661Y762883D01*
X1127766Y762880D01*
X1105707Y762862D01*
X1081371Y762832D01*
X1054643Y762794D01*
X1025410Y762751D01*
X993558Y762705D01*
X989677Y762700D01*
X957622Y762660D01*
X928199Y762625D01*
X901294Y762593D01*
X876795Y762560D01*
X854586Y762522D01*
X834555Y762476D01*
X816588Y762417D01*
X800571Y762343D01*
X786390Y762249D01*
X773932Y762133D01*
X763083Y761989D01*
X753729Y761816D01*
X745757Y761608D01*
X739053Y761362D01*
X733503Y761076D01*
X728993Y760744D01*
X725410Y760364D01*
X722641Y759931D01*
X720571Y759442D01*
X719086Y758894D01*
X718074Y758283D01*
X717420Y757605D01*
X717011Y756856D01*
X716732Y756033D01*
X716471Y755133D01*
X716114Y754150D01*
X716005Y753911D01*
X715760Y753156D01*
X715536Y751894D01*
X715330Y750014D01*
X715143Y747405D01*
X714973Y743958D01*
X714820Y739561D01*
X714682Y734106D01*
X714560Y727481D01*
X714452Y719577D01*
X714357Y710284D01*
X714275Y699490D01*
X714205Y687086D01*
X714146Y672962D01*
X714097Y657008D01*
X714058Y639113D01*
X714027Y619167D01*
X714005Y597060D01*
X713989Y572681D01*
X713979Y545921D01*
X713975Y516670D01*
X713976Y484816D01*
X713977Y474498D01*
X713982Y441938D01*
X713991Y412012D01*
X714004Y384609D01*
X714021Y359618D01*
X714045Y336926D01*
X714076Y316423D01*
X714114Y297996D01*
X714161Y281535D01*
X714217Y266928D01*
X714283Y254062D01*
X714361Y242828D01*
X714451Y233113D01*
X714553Y224805D01*
X714670Y217794D01*
X714801Y211967D01*
X714947Y207213D01*
X715110Y203421D01*
X715291Y200479D01*
X715489Y198275D01*
X715706Y196699D01*
X715944Y195638D01*
X716161Y195060D01*
X716594Y194032D01*
X716914Y193088D01*
X717233Y192224D01*
X717666Y191438D01*
X718326Y190725D01*
X719325Y190082D01*
X720779Y189505D01*
X722800Y188991D01*
X725501Y188536D01*
X728998Y188136D01*
X733402Y187789D01*
X738828Y187490D01*
X745388Y187235D01*
X753198Y187022D01*
X762369Y186847D01*
X773016Y186705D01*
X777103Y186668D01*
X777103Y223312D01*
X777103Y352827D01*
X780878Y350334D01*
X784758Y347855D01*
X788453Y345756D01*
X792221Y344007D01*
X796321Y342577D01*
X801012Y341438D01*
X806551Y340559D01*
X813198Y339910D01*
X821212Y339462D01*
X830850Y339185D01*
X842371Y339049D01*
X856034Y339023D01*
X872098Y339079D01*
X878062Y339111D01*
X941996Y339468D01*
X886855Y379970D01*
X871212Y391445D01*
X857591Y401386D01*
X845811Y409901D01*
X835692Y417098D01*
X827052Y423083D01*
X819713Y427965D01*
X813492Y431850D01*
X808211Y434847D01*
X803687Y437061D01*
X799742Y438601D01*
X796194Y439573D01*
X792863Y440086D01*
X789569Y440247D01*
X786130Y440162D01*
X785698Y440140D01*
X777097Y439695D01*
X777103Y581631D01*
X787748Y571074D01*
X790659Y568209D01*
X793492Y565491D01*
X796403Y562801D01*
X799548Y560020D01*
X803083Y557028D01*
X807165Y553705D01*
X811949Y549934D01*
X817592Y545594D01*
X824251Y540566D01*
X832080Y534731D01*
X841238Y527970D01*
X851880Y520163D01*
X864161Y511191D01*
X878239Y500935D01*
X894270Y489276D01*
X907420Y479719D01*
X923940Y467725D01*
X938385Y457262D01*
X950891Y448235D01*
X961595Y440550D01*
X970635Y434111D01*
X978147Y428824D01*
X984270Y424594D01*
X989139Y421326D01*
X992893Y418926D01*
X995667Y417299D01*
X997601Y416349D01*
X998830Y415983D01*
X999476Y416093D01*
X1001195Y417428D01*
X1004834Y420313D01*
X1010178Y424576D01*
X1017008Y430041D01*
X1025110Y436536D01*
X1034266Y443884D01*
X1044261Y451913D01*
X1054878Y460448D01*
X1065900Y469316D01*
X1077112Y478341D01*
X1083276Y483306D01*
X1083276Y606563D01*
X1074008Y611685D01*
X1064741Y616808D01*
X795638Y616808D01*
X786370Y611685D01*
X777103Y606563D01*
X777103Y667160D01*
X777107Y681627D01*
X777126Y693576D01*
X777169Y703236D01*
X777246Y710836D01*
X777367Y716604D01*
X777541Y720770D01*
X777777Y723561D01*
X778085Y725206D01*
X778475Y725935D01*
X778956Y725974D01*
X779538Y725554D01*
X779543Y725550D01*
X782047Y723819D01*
X786118Y721526D01*
X790183Y719502D01*
X798384Y715662D01*
X1083276Y714879D01*
X1083276Y606563D01*
X1083276Y483306D01*
X1088298Y487351D01*
X1099240Y496170D01*
X1109722Y504625D01*
X1119529Y512541D01*
X1128443Y519744D01*
X1136250Y526061D01*
X1142731Y531317D01*
X1147671Y535338D01*
X1150551Y537700D01*
X1161322Y546871D01*
X1171042Y555694D01*
X1179392Y563860D01*
X1186055Y571059D01*
X1190140Y576168D01*
X1194487Y582209D01*
X1194487Y443270D01*
X1186333Y443309D01*
X1180339Y442921D01*
X1174782Y441461D01*
X1169515Y439201D01*
X1166539Y437732D01*
X1163590Y436153D01*
X1160472Y434319D01*
X1156991Y432085D01*
X1152949Y429309D01*
X1148151Y425845D01*
X1142402Y421549D01*
X1135506Y416277D01*
X1127266Y409885D01*
X1117488Y402228D01*
X1105975Y393162D01*
X1092531Y382543D01*
X1091014Y381343D01*
X1038059Y339468D01*
X1096708Y339062D01*
X1114275Y338981D01*
X1129147Y338998D01*
X1141373Y339115D01*
X1151001Y339333D01*
X1158082Y339653D01*
X1162663Y340074D01*
X1163532Y340216D01*
X1172687Y342441D01*
X1180939Y345356D01*
X1187575Y348682D01*
X1190389Y350680D01*
X1194487Y354128D01*
X1194487Y288709D01*
X1194473Y273103D01*
X1194430Y260053D01*
X1194351Y249369D01*
X1194232Y240860D01*
X1194068Y234336D01*
X1193854Y229608D01*
X1193584Y226484D01*
X1193254Y224775D01*
X1192858Y224291D01*
X1192770Y224325D01*
X1190677Y225711D01*
X1187359Y228027D01*
X1185681Y229225D01*
X1184006Y230463D01*
X1182509Y231576D01*
X1181041Y232571D01*
X1179455Y233455D01*
X1177605Y234234D01*
X1175342Y234916D01*
X1172519Y235508D01*
X1168989Y236017D01*
X1164604Y236450D01*
X1159218Y236813D01*
X1152682Y237114D01*
X1144850Y237360D01*
X1135573Y237558D01*
X1124705Y237714D01*
X1112099Y237837D01*
X1097606Y237932D01*
X1081079Y238007D01*
X1062372Y238069D01*
X1041336Y238125D01*
X1017825Y238181D01*
X996226Y238234D01*
X972146Y238284D01*
X949173Y238310D01*
X927451Y238313D01*
X907128Y238293D01*
X888350Y238251D01*
X871265Y238188D01*
X856020Y238104D01*
X842760Y238001D01*
X831632Y237878D01*
X822784Y237737D01*
X816362Y237577D01*
X812513Y237401D01*
X812107Y237368D01*
X802775Y236153D01*
X795281Y234257D01*
X788741Y231370D01*
X782271Y227181D01*
X781565Y226657D01*
X777103Y223312D01*
X777103Y186668D01*
X785252Y186595D01*
X799191Y186511D01*
X814946Y186450D01*
X832631Y186409D01*
X852359Y186385D01*
X874244Y186373D01*
X898399Y186370D01*
X924938Y186373D01*
X953975Y186378D01*
X985623Y186381D01*
X991905Y186381D01*
X1023886Y186383D01*
X1053234Y186389D01*
X1080061Y186400D01*
X1104480Y186417D01*
X1126604Y186440D01*
X1146546Y186472D01*
X1164418Y186511D01*
X1180333Y186561D01*
X1194403Y186620D01*
X1206742Y186691D01*
X1217462Y186774D01*
X1226676Y186869D01*
X1234497Y186979D01*
X1241036Y187103D01*
X1246407Y187242D01*
X1250723Y187398D01*
X1254096Y187571D01*
X1256640Y187763D01*
X1258465Y187973D01*
X1259687Y188203D01*
X1260416Y188454D01*
X1260434Y188464D01*
X1261548Y188981D01*
X1262557Y189411D01*
X1263465Y189888D01*
X1264279Y190542D01*
X1265002Y191506D01*
X1265641Y192913D01*
X1266201Y194894D01*
X1266687Y197581D01*
X1267103Y201107D01*
X1267456Y205603D01*
X1267751Y211203D01*
X1267992Y218037D01*
X1268186Y226239D01*
X1268336Y235939D01*
X1268449Y247272D01*
X1268530Y260368D01*
X1268583Y275359D01*
X1268615Y292379D01*
X1268630Y311558D01*
X1268634Y333030D01*
X1268631Y356926D01*
G37*
X1268631Y356926D02*
X1268628Y383378D01*
X1268627Y395691D01*
X1268627Y592781D01*
X1257009Y592781D01*
X1242871Y594021D01*
X1229832Y597764D01*
X1217814Y604042D01*
X1206740Y612891D01*
X1203749Y615884D01*
X1195265Y626653D01*
X1189078Y638528D01*
X1185184Y651154D01*
X1183581Y664180D01*
X1184266Y677254D01*
X1187236Y690021D01*
X1192488Y702130D01*
X1200020Y713229D01*
X1204564Y718213D01*
X1215705Y727502D01*
X1227957Y734313D01*
X1241179Y738587D01*
X1255231Y740265D01*
X1256613Y740288D01*
X1268627Y740376D01*
X1268627Y745656D01*
X1267991Y750340D01*
X1266444Y754618D01*
X1266285Y754901D01*
X1265783Y755867D01*
X1265393Y756755D01*
X1264999Y757566D01*
X1264489Y758306D01*
X1263749Y758975D01*
X1262665Y759579D01*
X1261123Y760120D01*
X1259009Y760601D01*
X1256210Y761025D01*
X1252612Y761397D01*
X1248101Y761718D01*
X1242564Y761992D01*
X1235886Y762223D01*
X1227955Y762413D01*
X1218655Y762566D01*
X1207874Y762685D01*
X1195498Y762773D01*
X1181413Y762833D01*
X1165505Y762869D01*
X1147661Y762883D01*
X1127766Y762880D01*
X1105707Y762862D01*
X1081371Y762832D01*
X1054643Y762794D01*
X1025410Y762751D01*
X993558Y762705D01*
X989677Y762700D01*
X957622Y762660D01*
X928199Y762625D01*
X901294Y762593D01*
X876795Y762560D01*
X854586Y762522D01*
X834555Y762476D01*
X816588Y762417D01*
X800571Y762343D01*
X786390Y762249D01*
X773932Y762133D01*
X763083Y761989D01*
X753729Y761816D01*
X745757Y761608D01*
X739053Y761362D01*
X733503Y761076D01*
X728993Y760744D01*
X725410Y760364D01*
X722641Y759931D01*
X720571Y759442D01*
X719086Y758894D01*
X718074Y758283D01*
X717420Y757605D01*
X717011Y756856D01*
X716732Y756033D01*
X716471Y755133D01*
X716114Y754150D01*
X716005Y753911D01*
X715760Y753156D01*
X715536Y751894D01*
X715330Y750014D01*
X715143Y747405D01*
X714973Y743958D01*
X714820Y739561D01*
X714682Y734106D01*
X714560Y727481D01*
X714452Y719577D01*
X714357Y710284D01*
X714275Y699490D01*
X714205Y687086D01*
X714146Y672962D01*
X714097Y657008D01*
X714058Y639113D01*
X714027Y619167D01*
X714005Y597060D01*
X713989Y572681D01*
X713979Y545921D01*
X713975Y516670D01*
X713976Y484816D01*
X713977Y474498D01*
X713982Y441938D01*
X713991Y412012D01*
X714004Y384609D01*
X714021Y359618D01*
X714045Y336926D01*
X714076Y316423D01*
X714114Y297996D01*
X714161Y281535D01*
X714217Y266928D01*
X714283Y254062D01*
X714361Y242828D01*
X714451Y233113D01*
X714553Y224805D01*
X714670Y217794D01*
X714801Y211967D01*
X714947Y207213D01*
X715110Y203421D01*
X715291Y200479D01*
X715489Y198275D01*
X715706Y196699D01*
X715944Y195638D01*
X716161Y195060D01*
X716594Y194032D01*
X716914Y193088D01*
X717233Y192224D01*
X717666Y191438D01*
X718326Y190725D01*
X719325Y190082D01*
X720779Y189505D01*
X722800Y188991D01*
X725501Y188536D01*
X728998Y188136D01*
X733402Y187789D01*
X738828Y187490D01*
X745388Y187235D01*
X753198Y187022D01*
X762369Y186847D01*
X773016Y186705D01*
X777103Y186668D01*
X777103Y223312D01*
X777103Y352827D01*
X780878Y350334D01*
X784758Y347855D01*
X788453Y345756D01*
X792221Y344007D01*
X796321Y342577D01*
X801012Y341438D01*
X806551Y340559D01*
X813198Y339910D01*
X821212Y339462D01*
X830850Y339185D01*
X842371Y339049D01*
X856034Y339023D01*
X872098Y339079D01*
X878062Y339111D01*
X941996Y339468D01*
X886855Y379970D01*
X871212Y391445D01*
X857591Y401386D01*
X845811Y409901D01*
X835692Y417098D01*
X827052Y423083D01*
X819713Y427965D01*
X813492Y431850D01*
X808211Y434847D01*
X803687Y437061D01*
X799742Y438601D01*
X796194Y439573D01*
X792863Y440086D01*
X789569Y440247D01*
X786130Y440162D01*
X785698Y440140D01*
X777097Y439695D01*
X777103Y581631D01*
X787748Y571074D01*
X790659Y568209D01*
X793492Y565491D01*
X796403Y562801D01*
X799548Y560020D01*
X803083Y557028D01*
X807165Y553705D01*
X811949Y549934D01*
X817592Y545594D01*
X824251Y540566D01*
X832080Y534731D01*
X841238Y527970D01*
X851880Y520163D01*
X864161Y511191D01*
X878239Y500935D01*
X894270Y489276D01*
X907420Y479719D01*
X923940Y467725D01*
X938385Y457262D01*
X950891Y448235D01*
X961595Y440550D01*
X970635Y434111D01*
X978147Y428824D01*
X984270Y424594D01*
X989139Y421326D01*
X992893Y418926D01*
X995667Y417299D01*
X997601Y416349D01*
X998830Y415983D01*
X999476Y416093D01*
X1001195Y417428D01*
X1004834Y420313D01*
X1010178Y424576D01*
X1017008Y430041D01*
X1025110Y436536D01*
X1034266Y443884D01*
X1044261Y451913D01*
X1054878Y460448D01*
X1065900Y469316D01*
X1077112Y478341D01*
X1083276Y483306D01*
X1083276Y606563D01*
X1074008Y611685D01*
X1064741Y616808D01*
X795638Y616808D01*
X786370Y611685D01*
X777103Y606563D01*
X777103Y667160D01*
X777107Y681627D01*
X777126Y693576D01*
X777169Y703236D01*
X777246Y710836D01*
X777367Y716604D01*
X777541Y720770D01*
X777777Y723561D01*
X778085Y725206D01*
X778475Y725935D01*
X778956Y725974D01*
X779538Y725554D01*
X779543Y725550D01*
X782047Y723819D01*
X786118Y721526D01*
X790183Y719502D01*
X798384Y715662D01*
X1083276Y714879D01*
X1083276Y606563D01*
X1083276Y483306D01*
X1088298Y487351D01*
X1099240Y496170D01*
X1109722Y504625D01*
X1119529Y512541D01*
X1128443Y519744D01*
X1136250Y526061D01*
X1142731Y531317D01*
X1147671Y535338D01*
X1150551Y537700D01*
X1161322Y546871D01*
X1171042Y555694D01*
X1179392Y563860D01*
X1186055Y571059D01*
X1190140Y576168D01*
X1194487Y582209D01*
X1194487Y443270D01*
X1186333Y443309D01*
X1180339Y442921D01*
X1174782Y441461D01*
X1169515Y439201D01*
X1166539Y437732D01*
X1163590Y436153D01*
X1160472Y434319D01*
X1156991Y432085D01*
X1152949Y429309D01*
X1148151Y425845D01*
X1142402Y421549D01*
X1135506Y416277D01*
X1127266Y409885D01*
X1117488Y402228D01*
X1105975Y393162D01*
X1092531Y382543D01*
X1091014Y381343D01*
X1038059Y339468D01*
X1096708Y339062D01*
X1114275Y338981D01*
X1129147Y338998D01*
X1141373Y339115D01*
X1151001Y339333D01*
X1158082Y339653D01*
X1162663Y340074D01*
X1163532Y340216D01*
X1172687Y342441D01*
X1180939Y345356D01*
X1187575Y348682D01*
X1190389Y350680D01*
X1194487Y354128D01*
X1194487Y288709D01*
X1194473Y273103D01*
X1194430Y260053D01*
X1194351Y249369D01*
X1194232Y240860D01*
X1194068Y234336D01*
X1193854Y229608D01*
X1193584Y226484D01*
X1193254Y224775D01*
X1192858Y224291D01*
X1192770Y224325D01*
X1190677Y225711D01*
X1187359Y228027D01*
X1185681Y229225D01*
X1184006Y230463D01*
X1182509Y231576D01*
X1181041Y232571D01*
X1179455Y233455D01*
X1177605Y234234D01*
X1175342Y234916D01*
X1172519Y235508D01*
X1168989Y236017D01*
X1164604Y236450D01*
X1159218Y236813D01*
X1152682Y237114D01*
X1144850Y237360D01*
X1135573Y237558D01*
X1124705Y237714D01*
X1112099Y237837D01*
X1097606Y237932D01*
X1081079Y238007D01*
X1062372Y238069D01*
X1041336Y238125D01*
X1017825Y238181D01*
X996226Y238234D01*
X972146Y238284D01*
X949173Y238310D01*
X927451Y238313D01*
X907128Y238293D01*
X888350Y238251D01*
X871265Y238188D01*
X856020Y238104D01*
X842760Y238001D01*
X831632Y237878D01*
X822784Y237737D01*
X816362Y237577D01*
X812513Y237401D01*
X812107Y237368D01*
X802775Y236153D01*
X795281Y234257D01*
X788741Y231370D01*
X782271Y227181D01*
X781565Y226657D01*
X777103Y223312D01*
X777103Y186668D01*
X785252Y186595D01*
X799191Y186511D01*
X814946Y186450D01*
X832631Y186409D01*
X852359Y186385D01*
X874244Y186373D01*
X898399Y186370D01*
X924938Y186373D01*
X953975Y186378D01*
X985623Y186381D01*
X991905Y186381D01*
X1023886Y186383D01*
X1053234Y186389D01*
X1080061Y186400D01*
X1104480Y186417D01*
X1126604Y186440D01*
X1146546Y186472D01*
X1164418Y186511D01*
X1180333Y186561D01*
X1194403Y186620D01*
X1206742Y186691D01*
X1217462Y186774D01*
X1226676Y186869D01*
X1234497Y186979D01*
X1241036Y187103D01*
X1246407Y187242D01*
X1250723Y187398D01*
X1254096Y187571D01*
X1256640Y187763D01*
X1258465Y187973D01*
X1259687Y188203D01*
X1260416Y188454D01*
X1260434Y188464D01*
X1261548Y188981D01*
X1262557Y189411D01*
X1263465Y189888D01*
X1264279Y190542D01*
X1265002Y191506D01*
X1265641Y192913D01*
X1266201Y194894D01*
X1266687Y197581D01*
X1267103Y201107D01*
X1267456Y205603D01*
X1267751Y211203D01*
X1267992Y218037D01*
X1268186Y226239D01*
X1268336Y235939D01*
X1268449Y247272D01*
X1268530Y260368D01*
X1268583Y275359D01*
X1268615Y292379D01*
X1268630Y311558D01*
X1268634Y333030D01*
X1268631Y356926D01*
D13*
X127000Y-127000D02*
X-127000Y-127000D01*
X2413000Y3683000D02*
X2413000Y-127000D01*
X2413000Y-127000D02*
X2159000Y-127000D01*
X2159000Y-127000D02*
X2159000Y3683000D01*
X2159000Y3683000D02*
X2413000Y3683000D01*
X127000Y127000D02*
X-127000Y127000D01*
X127000Y3683000D02*
X127000Y-127000D01*
X-127000Y3683000D02*
X127000Y3683000D01*
X-127000Y-127000D02*
X-127000Y3683000D01*
D14*
G36*
X1904107Y309581D02*
G01*
X1859644Y317964D01*
X1846895Y348892D01*
X1834145Y379821D01*
X1859375Y416925D01*
X1866400Y427316D01*
X1872673Y436709D01*
X1877906Y444665D01*
X1881814Y450747D01*
X1884111Y454516D01*
X1884606Y455542D01*
X1883332Y457391D01*
X1879812Y461342D01*
X1874494Y466952D01*
X1867828Y473779D01*
X1860265Y481379D01*
X1852253Y489309D01*
X1844243Y497127D01*
X1836684Y504391D01*
X1830025Y510656D01*
X1824718Y515480D01*
X1821211Y518421D01*
X1820038Y519124D01*
X1817874Y518112D01*
X1813134Y515276D01*
X1806281Y510913D01*
X1797778Y505322D01*
X1788091Y498801D01*
X1782565Y495022D01*
X1772475Y488134D01*
X1763370Y482014D01*
X1755703Y476958D01*
X1749927Y473263D01*
X1746496Y471226D01*
X1745775Y470920D01*
X1743725Y471614D01*
X1738949Y473505D01*
X1732117Y476309D01*
X1723901Y479739D01*
X1714973Y483511D01*
X1706004Y487339D01*
X1697666Y490937D01*
X1690631Y494021D01*
X1685569Y496304D01*
X1683153Y497502D01*
X1683058Y497572D01*
X1682596Y499453D01*
X1681567Y504462D01*
X1680071Y512079D01*
X1678210Y521786D01*
X1676084Y533064D01*
X1674858Y539644D01*
X1672564Y551695D01*
X1670380Y562580D01*
X1668428Y571748D01*
X1666825Y578648D01*
X1665692Y582730D01*
X1665333Y583551D01*
X1662899Y584355D01*
X1657404Y585003D01*
X1649489Y585497D01*
X1639797Y585836D01*
X1628971Y586022D01*
X1617653Y586054D01*
X1606486Y585933D01*
X1596113Y585659D01*
X1587176Y585233D01*
X1580317Y584656D01*
X1576180Y583927D01*
X1575319Y583490D01*
X1574287Y580876D01*
X1572811Y575339D01*
X1571065Y567611D01*
X1569222Y558423D01*
X1568626Y555216D01*
X1565793Y539752D01*
X1563512Y527538D01*
X1561692Y518167D01*
X1560242Y511238D01*
X1559071Y506347D01*
X1558088Y503090D01*
X1557204Y501063D01*
X1556328Y499863D01*
X1556154Y499695D01*
X1553363Y498018D01*
X1547930Y495461D01*
X1540522Y492279D01*
X1531803Y488726D01*
X1522439Y485058D01*
X1513095Y481531D01*
X1504435Y478400D01*
X1497126Y475919D01*
X1491832Y474345D01*
X1489219Y473933D01*
X1489127Y473968D01*
X1486991Y475364D01*
X1482292Y478532D01*
X1475517Y483139D01*
X1467158Y488852D01*
X1457702Y495337D01*
X1455015Y497184D01*
X1445272Y503770D01*
X1436384Y509565D01*
X1428859Y514254D01*
X1423208Y517521D01*
X1419942Y519050D01*
X1419541Y519124D01*
X1417432Y517839D01*
X1413254Y514289D01*
X1407455Y508929D01*
X1400486Y502217D01*
X1392796Y494609D01*
X1384832Y486560D01*
X1377044Y478529D01*
X1369881Y470970D01*
X1363793Y464340D01*
X1359228Y459097D01*
X1356635Y455695D01*
X1356212Y454754D01*
X1357209Y452564D01*
X1359898Y448080D01*
X1363826Y442032D01*
X1366988Y437379D01*
X1372790Y428947D01*
X1379622Y418963D01*
X1386442Y408947D01*
X1390093Y403563D01*
X1402420Y385337D01*
X1394148Y370038D01*
X1390524Y363068D01*
X1387707Y357141D01*
X1386101Y353131D01*
X1385877Y352110D01*
X1387528Y350883D01*
X1392192Y348461D01*
X1399439Y345026D01*
X1408839Y340759D01*
X1419963Y335839D01*
X1432378Y330449D01*
X1445657Y324768D01*
X1459367Y318978D01*
X1473080Y313259D01*
X1486364Y307792D01*
X1498790Y302758D01*
X1509927Y298338D01*
X1519346Y294712D01*
X1526616Y292061D01*
X1531306Y290566D01*
X1532917Y290325D01*
X1534971Y292231D01*
X1538307Y296404D01*
X1542230Y301971D01*
X1542540Y302438D01*
X1554058Y316826D01*
X1567495Y328428D01*
X1582422Y337143D01*
X1598409Y342870D01*
X1615026Y345509D01*
X1631845Y344959D01*
X1648434Y341119D01*
X1664366Y333890D01*
X1667851Y331763D01*
X1681926Y320700D01*
X1693229Y307630D01*
X1701700Y293006D01*
X1707281Y277281D01*
X1709913Y260906D01*
X1709537Y244333D01*
X1706095Y228016D01*
X1699528Y212406D01*
X1689776Y197957D01*
X1685819Y193487D01*
X1673430Y182111D01*
X1660388Y173822D01*
X1645768Y168136D01*
X1631291Y164969D01*
X1615014Y164187D01*
X1598656Y166794D01*
X1582770Y172525D01*
X1567909Y181114D01*
X1554626Y192299D01*
X1543474Y205812D01*
X1542299Y207588D01*
X1538449Y213215D01*
X1535114Y217492D01*
X1532984Y219537D01*
X1532917Y219567D01*
X1530613Y219128D01*
X1525384Y217388D01*
X1517661Y214527D01*
X1507873Y210726D01*
X1496451Y206167D01*
X1483824Y201030D01*
X1470423Y195496D01*
X1456678Y189746D01*
X1443019Y183960D01*
X1429876Y178320D01*
X1417679Y173006D01*
X1406859Y168199D01*
X1397845Y164080D01*
X1391068Y160830D01*
X1386957Y158630D01*
X1385877Y157744D01*
X1386718Y155036D01*
X1388973Y149970D01*
X1392239Y143418D01*
X1394148Y139816D01*
X1402420Y124517D01*
X1390093Y106291D01*
X1383777Y96987D01*
X1376827Y86802D01*
X1370284Y77256D01*
X1366988Y72475D01*
X1362473Y65751D01*
X1358894Y60056D01*
X1356706Y56135D01*
X1356244Y54862D01*
X1357492Y53008D01*
X1360975Y48906D01*
X1366332Y42953D01*
X1373202Y35546D01*
X1381222Y27083D01*
X1386371Y21732D01*
X1395571Y12368D01*
X1403800Y4276D01*
X1410705Y-2218D01*
X1415936Y-6786D01*
X1419138Y-9101D01*
X1419788Y-9323D01*
X1422261Y-8292D01*
X1427259Y-5444D01*
X1434279Y-1094D01*
X1442812Y4442D01*
X1452354Y10848D01*
X1455015Y12670D01*
X1464683Y19307D01*
X1473388Y25262D01*
X1480640Y30202D01*
X1485951Y33793D01*
X1488830Y35702D01*
X1489127Y35886D01*
X1491422Y35611D01*
X1496466Y34146D01*
X1503596Y31749D01*
X1512145Y28673D01*
X1521449Y25176D01*
X1530843Y21511D01*
X1539660Y17934D01*
X1547237Y14701D01*
X1552907Y12066D01*
X1556006Y10286D01*
X1556154Y10159D01*
X1557040Y9071D01*
X1557916Y7232D01*
X1558872Y4239D01*
X1560000Y-310D01*
X1561391Y-6821D01*
X1563134Y-15696D01*
X1565320Y-27339D01*
X1568041Y-42154D01*
X1568626Y-45362D01*
X1570463Y-54869D01*
X1572259Y-63156D01*
X1573843Y-69493D01*
X1575040Y-73146D01*
X1575319Y-73636D01*
X1577793Y-74443D01*
X1583321Y-75099D01*
X1591261Y-75603D01*
X1600970Y-75956D01*
X1611806Y-76156D01*
X1623126Y-76204D01*
X1634287Y-76098D01*
X1644647Y-75838D01*
X1653563Y-75425D01*
X1660393Y-74856D01*
X1664493Y-74133D01*
X1665333Y-73697D01*
X1666179Y-71270D01*
X1667556Y-65743D01*
X1669345Y-57666D01*
X1671425Y-47591D01*
X1673678Y-36068D01*
X1674858Y-29790D01*
X1677085Y-17879D01*
X1679102Y-7256D01*
X1680808Y1557D01*
X1682103Y8043D01*
X1682884Y11683D01*
X1683058Y12282D01*
X1685011Y13294D01*
X1689716Y15434D01*
X1696500Y18416D01*
X1704691Y21955D01*
X1713617Y25767D01*
X1722606Y29565D01*
X1730986Y33064D01*
X1738085Y35979D01*
X1743231Y38026D01*
X1745750Y38918D01*
X1745860Y38934D01*
X1747848Y37923D01*
X1752422Y35088D01*
X1759128Y30728D01*
X1767512Y25139D01*
X1777117Y18621D01*
X1782635Y14832D01*
X1792752Y7927D01*
X1801937Y1795D01*
X1809726Y-3266D01*
X1815653Y-6957D01*
X1819255Y-8978D01*
X1820062Y-9270D01*
X1821942Y-8015D01*
X1825954Y-4546D01*
X1831651Y694D01*
X1838581Y7262D01*
X1846297Y14714D01*
X1854347Y22609D01*
X1862284Y30502D01*
X1869656Y37950D01*
X1876015Y44511D01*
X1880911Y49740D01*
X1883894Y53196D01*
X1884606Y54352D01*
X1883605Y56235D01*
X1880792Y60737D01*
X1876455Y67421D01*
X1870878Y75850D01*
X1864349Y85586D01*
X1859375Y92929D01*
X1834145Y130033D01*
X1859644Y191890D01*
X1904107Y200272D01*
X1948569Y208655D01*
X1948569Y301199D01*
X1904107Y309581D01*
G37*
X1904107Y309581D02*
X1859644Y317964D01*
X1846895Y348892D01*
X1834145Y379821D01*
X1859375Y416925D01*
X1866400Y427316D01*
X1872673Y436709D01*
X1877906Y444665D01*
X1881814Y450747D01*
X1884111Y454516D01*
X1884606Y455542D01*
X1883332Y457391D01*
X1879812Y461342D01*
X1874494Y466952D01*
X1867828Y473779D01*
X1860265Y481379D01*
X1852253Y489309D01*
X1844243Y497127D01*
X1836684Y504391D01*
X1830025Y510656D01*
X1824718Y515480D01*
X1821211Y518421D01*
X1820038Y519124D01*
X1817874Y518112D01*
X1813134Y515276D01*
X1806281Y510913D01*
X1797778Y505322D01*
X1788091Y498801D01*
X1782565Y495022D01*
X1772475Y488134D01*
X1763370Y482014D01*
X1755703Y476958D01*
X1749927Y473263D01*
X1746496Y471226D01*
X1745775Y470920D01*
X1743725Y471614D01*
X1738949Y473505D01*
X1732117Y476309D01*
X1723901Y479739D01*
X1714973Y483511D01*
X1706004Y487339D01*
X1697666Y490937D01*
X1690631Y494021D01*
X1685569Y496304D01*
X1683153Y497502D01*
X1683058Y497572D01*
X1682596Y499453D01*
X1681567Y504462D01*
X1680071Y512079D01*
X1678210Y521786D01*
X1676084Y533064D01*
X1674858Y539644D01*
X1672564Y551695D01*
X1670380Y562580D01*
X1668428Y571748D01*
X1666825Y578648D01*
X1665692Y582730D01*
X1665333Y583551D01*
X1662899Y584355D01*
X1657404Y585003D01*
X1649489Y585497D01*
X1639797Y585836D01*
X1628971Y586022D01*
X1617653Y586054D01*
X1606486Y585933D01*
X1596113Y585659D01*
X1587176Y585233D01*
X1580317Y584656D01*
X1576180Y583927D01*
X1575319Y583490D01*
X1574287Y580876D01*
X1572811Y575339D01*
X1571065Y567611D01*
X1569222Y558423D01*
X1568626Y555216D01*
X1565793Y539752D01*
X1563512Y527538D01*
X1561692Y518167D01*
X1560242Y511238D01*
X1559071Y506347D01*
X1558088Y503090D01*
X1557204Y501063D01*
X1556328Y499863D01*
X1556154Y499695D01*
X1553363Y498018D01*
X1547930Y495461D01*
X1540522Y492279D01*
X1531803Y488726D01*
X1522439Y485058D01*
X1513095Y481531D01*
X1504435Y478400D01*
X1497126Y475919D01*
X1491832Y474345D01*
X1489219Y473933D01*
X1489127Y473968D01*
X1486991Y475364D01*
X1482292Y478532D01*
X1475517Y483139D01*
X1467158Y488852D01*
X1457702Y495337D01*
X1455015Y497184D01*
X1445272Y503770D01*
X1436384Y509565D01*
X1428859Y514254D01*
X1423208Y517521D01*
X1419942Y519050D01*
X1419541Y519124D01*
X1417432Y517839D01*
X1413254Y514289D01*
X1407455Y508929D01*
X1400486Y502217D01*
X1392796Y494609D01*
X1384832Y486560D01*
X1377044Y478529D01*
X1369881Y470970D01*
X1363793Y464340D01*
X1359228Y459097D01*
X1356635Y455695D01*
X1356212Y454754D01*
X1357209Y452564D01*
X1359898Y448080D01*
X1363826Y442032D01*
X1366988Y437379D01*
X1372790Y428947D01*
X1379622Y418963D01*
X1386442Y408947D01*
X1390093Y403563D01*
X1402420Y385337D01*
X1394148Y370038D01*
X1390524Y363068D01*
X1387707Y357141D01*
X1386101Y353131D01*
X1385877Y352110D01*
X1387528Y350883D01*
X1392192Y348461D01*
X1399439Y345026D01*
X1408839Y340759D01*
X1419963Y335839D01*
X1432378Y330449D01*
X1445657Y324768D01*
X1459367Y318978D01*
X1473080Y313259D01*
X1486364Y307792D01*
X1498790Y302758D01*
X1509927Y298338D01*
X1519346Y294712D01*
X1526616Y292061D01*
X1531306Y290566D01*
X1532917Y290325D01*
X1534971Y292231D01*
X1538307Y296404D01*
X1542230Y301971D01*
X1542540Y302438D01*
X1554058Y316826D01*
X1567495Y328428D01*
X1582422Y337143D01*
X1598409Y342870D01*
X1615026Y345509D01*
X1631845Y344959D01*
X1648434Y341119D01*
X1664366Y333890D01*
X1667851Y331763D01*
X1681926Y320700D01*
X1693229Y307630D01*
X1701700Y293006D01*
X1707281Y277281D01*
X1709913Y260906D01*
X1709537Y244333D01*
X1706095Y228016D01*
X1699528Y212406D01*
X1689776Y197957D01*
X1685819Y193487D01*
X1673430Y182111D01*
X1660388Y173822D01*
X1645768Y168136D01*
X1631291Y164969D01*
X1615014Y164187D01*
X1598656Y166794D01*
X1582770Y172525D01*
X1567909Y181114D01*
X1554626Y192299D01*
X1543474Y205812D01*
X1542299Y207588D01*
X1538449Y213215D01*
X1535114Y217492D01*
X1532984Y219537D01*
X1532917Y219567D01*
X1530613Y219128D01*
X1525384Y217388D01*
X1517661Y214527D01*
X1507873Y210726D01*
X1496451Y206167D01*
X1483824Y201030D01*
X1470423Y195496D01*
X1456678Y189746D01*
X1443019Y183960D01*
X1429876Y178320D01*
X1417679Y173006D01*
X1406859Y168199D01*
X1397845Y164080D01*
X1391068Y160830D01*
X1386957Y158630D01*
X1385877Y157744D01*
X1386718Y155036D01*
X1388973Y149970D01*
X1392239Y143418D01*
X1394148Y139816D01*
X1402420Y124517D01*
X1390093Y106291D01*
X1383777Y96987D01*
X1376827Y86802D01*
X1370284Y77256D01*
X1366988Y72475D01*
X1362473Y65751D01*
X1358894Y60056D01*
X1356706Y56135D01*
X1356244Y54862D01*
X1357492Y53008D01*
X1360975Y48906D01*
X1366332Y42953D01*
X1373202Y35546D01*
X1381222Y27083D01*
X1386371Y21732D01*
X1395571Y12368D01*
X1403800Y4276D01*
X1410705Y-2218D01*
X1415936Y-6786D01*
X1419138Y-9101D01*
X1419788Y-9323D01*
X1422261Y-8292D01*
X1427259Y-5444D01*
X1434279Y-1094D01*
X1442812Y4442D01*
X1452354Y10848D01*
X1455015Y12670D01*
X1464683Y19307D01*
X1473388Y25262D01*
X1480640Y30202D01*
X1485951Y33793D01*
X1488830Y35702D01*
X1489127Y35886D01*
X1491422Y35611D01*
X1496466Y34146D01*
X1503596Y31749D01*
X1512145Y28673D01*
X1521449Y25176D01*
X1530843Y21511D01*
X1539660Y17934D01*
X1547237Y14701D01*
X1552907Y12066D01*
X1556006Y10286D01*
X1556154Y10159D01*
X1557040Y9071D01*
X1557916Y7232D01*
X1558872Y4239D01*
X1560000Y-310D01*
X1561391Y-6821D01*
X1563134Y-15696D01*
X1565320Y-27339D01*
X1568041Y-42154D01*
X1568626Y-45362D01*
X1570463Y-54869D01*
X1572259Y-63156D01*
X1573843Y-69493D01*
X1575040Y-73146D01*
X1575319Y-73636D01*
X1577793Y-74443D01*
X1583321Y-75099D01*
X1591261Y-75603D01*
X1600970Y-75956D01*
X1611806Y-76156D01*
X1623126Y-76204D01*
X1634287Y-76098D01*
X1644647Y-75838D01*
X1653563Y-75425D01*
X1660393Y-74856D01*
X1664493Y-74133D01*
X1665333Y-73697D01*
X1666179Y-71270D01*
X1667556Y-65743D01*
X1669345Y-57666D01*
X1671425Y-47591D01*
X1673678Y-36068D01*
X1674858Y-29790D01*
X1677085Y-17879D01*
X1679102Y-7256D01*
X1680808Y1557D01*
X1682103Y8043D01*
X1682884Y11683D01*
X1683058Y12282D01*
X1685011Y13294D01*
X1689716Y15434D01*
X1696500Y18416D01*
X1704691Y21955D01*
X1713617Y25767D01*
X1722606Y29565D01*
X1730986Y33064D01*
X1738085Y35979D01*
X1743231Y38026D01*
X1745750Y38918D01*
X1745860Y38934D01*
X1747848Y37923D01*
X1752422Y35088D01*
X1759128Y30728D01*
X1767512Y25139D01*
X1777117Y18621D01*
X1782635Y14832D01*
X1792752Y7927D01*
X1801937Y1795D01*
X1809726Y-3266D01*
X1815653Y-6957D01*
X1819255Y-8978D01*
X1820062Y-9270D01*
X1821942Y-8015D01*
X1825954Y-4546D01*
X1831651Y694D01*
X1838581Y7262D01*
X1846297Y14714D01*
X1854347Y22609D01*
X1862284Y30502D01*
X1869656Y37950D01*
X1876015Y44511D01*
X1880911Y49740D01*
X1883894Y53196D01*
X1884606Y54352D01*
X1883605Y56235D01*
X1880792Y60737D01*
X1876455Y67421D01*
X1870878Y75850D01*
X1864349Y85586D01*
X1859375Y92929D01*
X1834145Y130033D01*
X1859644Y191890D01*
X1904107Y200272D01*
X1948569Y208655D01*
X1948569Y301199D01*
X1904107Y309581D01*
%LPC*%
D15*
X444500Y3810000D03*
X698500Y3810000D03*
X952500Y3810000D03*
D16*
X1206500Y3810000D03*
D17*
X444500Y3810000D03*
X952500Y3810000D03*
D10*
G36*
X1267601Y3899846D02*
G01*
X1270711Y3899384D01*
X1273761Y3898620D01*
X1276721Y3897561D01*
X1279564Y3896217D01*
X1282261Y3894600D01*
X1284786Y3892727D01*
X1287116Y3890616D01*
X1289227Y3888286D01*
X1291100Y3885760D01*
X1292717Y3883064D01*
X1294061Y3880221D01*
X1295120Y3877261D01*
X1295884Y3874211D01*
X1296346Y3871100D01*
X1296500Y3867960D01*
X1296500Y3752040D01*
X1296346Y3748899D01*
X1295884Y3745789D01*
X1295120Y3742739D01*
X1294061Y3739779D01*
X1292717Y3736936D01*
X1291100Y3734239D01*
X1289227Y3731714D01*
X1287116Y3729384D01*
X1284786Y3727273D01*
X1282261Y3725400D01*
X1279564Y3723783D01*
X1276721Y3722439D01*
X1273761Y3721380D01*
X1270711Y3720616D01*
X1267601Y3720154D01*
X1264460Y3720000D01*
X1148540Y3720000D01*
X1145400Y3720154D01*
X1142289Y3720616D01*
X1139239Y3721380D01*
X1136279Y3722439D01*
X1133436Y3723783D01*
X1130740Y3725400D01*
X1128214Y3727273D01*
X1125884Y3729384D01*
X1123773Y3731714D01*
X1121900Y3734239D01*
X1120283Y3736936D01*
X1118939Y3739779D01*
X1117880Y3742739D01*
X1117116Y3745789D01*
X1116654Y3748899D01*
X1116500Y3752040D01*
X1116500Y3867960D01*
X1116654Y3871100D01*
X1117116Y3874211D01*
X1117880Y3877261D01*
X1118939Y3880221D01*
X1120283Y3883064D01*
X1121900Y3885760D01*
X1123773Y3888286D01*
X1125884Y3890616D01*
X1128214Y3892727D01*
X1130740Y3894600D01*
X1133436Y3896217D01*
X1136279Y3897561D01*
X1139239Y3898620D01*
X1142289Y3899384D01*
X1145400Y3899846D01*
X1148540Y3900000D01*
X1264460Y3900000D01*
X1267601Y3899846D01*
G37*
D18*
X762000Y-444500D03*
X1016000Y-444500D03*
X1270000Y-444500D03*
D19*
X1524000Y-444500D03*
D20*
X698500Y1905000D03*
X952500Y1905000D03*
X1206500Y1905000D03*
D21*
X1460500Y1905000D03*
D22*
X1778000Y2540000D03*
D17*
X1778000Y1778000D03*
D23*
X1587500Y3810000D03*
D24*
X1841500Y3810000D03*
D25*
X1460500Y2413000D03*
D26*
X1206500Y2413000D03*
X1333500Y2413000D03*
D27*
X254000Y2540000D03*
D28*
X254000Y3302000D03*
D29*
X635000Y3302000D03*
X889000Y3302000D03*
D30*
X635000Y2794000D03*
D29*
X889000Y2794000D03*
X1651000Y3302000D03*
X1651000Y2794000D03*
D22*
X2032000Y762000D03*
D17*
X2032000Y1524000D03*
D22*
X2032000Y0D03*
D17*
X2032000Y762000D03*
D25*
X889000Y2413000D03*
D26*
X635000Y2413000D03*
X762000Y2413000D03*
D18*
X254000Y508000D03*
X254000Y762000D03*
D19*
X254000Y1016000D03*
D31*
X75000Y-425000D03*
X2200000Y-425000D03*
X2200000Y3938000D03*
X80000Y3938000D03*
D32*
X2286000Y254000D03*
X2286000Y762000D03*
X2286000Y508000D03*
X2286000Y2540000D03*
X2286000Y2286000D03*
X2286000Y1778000D03*
X2286000Y2032000D03*
X2286000Y3556000D03*
X2286000Y1524000D03*
X2286000Y1016000D03*
X2286000Y1270000D03*
X2286000Y2794000D03*
X2286000Y3302000D03*
X2286000Y3048000D03*
X2286000Y0D03*
X0Y3556000D03*
X0Y3302000D03*
X0Y3048000D03*
X0Y2794000D03*
X0Y2540000D03*
X0Y2286000D03*
X0Y2032000D03*
X0Y1778000D03*
X0Y1524000D03*
X0Y1270000D03*
X0Y1016000D03*
X0Y762000D03*
X0Y508000D03*
X0Y254000D03*
D33*
X0Y0D03*
D18*
X889000Y-127000D03*
X1143000Y-127000D03*
D19*
X1397000Y-127000D03*
D22*
X254000Y2286000D03*
D17*
X254000Y1524000D03*
D18*
X2032000Y2794000D03*
X2032000Y3048000D03*
X2032000Y3302000D03*
D19*
X2032000Y3556000D03*
M02*
